<svg width="670" height="225" viewBox="0 0 670 225" fill="none" xmlns="http://www.w3.org/2000/svg">
<g clip-path="url(#clip0)">
<path d="M26.4899 93.7455V30.8455L10.5259 43.1835L0.00292969 28.7835L28.1749 8.10352H46.6919V93.7455H26.4899Z" fill="#FA00E9"/>
<path d="M181.447 33.4465C180.39 28.3767 178.423 23.5405 175.641 19.1725C173.024 15.1442 169.477 11.8045 165.299 9.43545C161.064 7.01545 155.923 5.80579 149.875 5.80645C144.486 5.64736 139.149 6.89829 134.392 9.43545C130.176 11.7994 126.587 15.1381 123.926 19.1725C121.923 22.2316 120.352 25.5526 119.257 29.0415C118.171 25.5588 116.619 22.2391 114.644 19.1725C112.027 15.1442 108.48 11.8045 104.302 9.43545C100.067 7.01545 94.9258 5.80579 88.8778 5.80645C83.4899 5.64788 78.1539 6.8988 73.3978 9.43545C69.1832 11.7998 65.5956 15.1384 62.9348 19.1725C60.1154 23.5278 58.1263 28.3673 57.0678 33.4465C55.8348 39.1085 55.2265 44.8888 55.2538 50.6835C55.2286 56.4989 55.8369 62.2997 57.0678 67.9835C58.1333 73.1169 60.1212 78.0145 62.9348 82.4385C65.6805 86.7883 69.5252 90.3369 74.0807 92.726C78.6362 95.115 83.7413 96.2601 88.8808 96.0455C93.9972 96.2695 99.0809 95.1269 103.609 92.7351C108.138 90.3433 111.947 86.7886 114.647 82.4365C116.619 79.3179 118.171 75.952 119.26 72.4265C120.358 75.9582 121.929 79.3253 123.929 82.4365C128.458 88.8139 135.146 93.3332 142.753 95.157C150.36 96.9808 158.37 95.9855 165.299 92.3555C169.496 89.9316 173.044 86.5285 175.641 82.4365C178.417 78.0001 180.383 73.1056 181.447 67.9815C182.677 62.2977 183.286 56.4969 183.261 50.6815C183.287 44.8874 182.679 39.108 181.447 33.4465V33.4465ZM100.978 59.6955C100.692 62.775 100.084 65.8161 99.1628 68.7685C98.388 71.3436 97.091 73.7316 95.3528 75.7835C94.5552 76.711 93.5597 77.4478 92.4396 77.9396C91.3196 78.4315 90.1034 78.6658 88.8808 78.6255C87.65 78.662 86.4263 78.4261 85.2972 77.9346C84.1682 77.4431 83.1617 76.7082 82.3498 75.7825C80.5714 73.7389 79.2329 71.351 78.4178 68.7675C77.4556 65.8227 76.8266 62.7794 76.5428 59.6945C76.2201 56.4278 76.0588 53.4238 76.0588 50.6825C76.0588 48.0218 76.2201 45.0785 76.5428 41.8525C76.8306 38.7881 77.4595 35.7653 78.4178 32.8405C79.2333 30.2571 80.5717 27.8692 82.3498 25.8255C83.1622 24.9003 84.1688 24.1659 85.2977 23.6746C86.4267 23.1833 87.6501 22.9473 88.8808 22.9835C90.1034 22.9437 91.3193 23.1783 92.4393 23.6701C93.5593 24.1619 94.5548 24.8984 95.3528 25.8255C97.0909 27.8779 98.3878 30.2661 99.1628 32.8415C100.08 35.774 100.689 38.7944 100.978 41.8535C101.298 45.0795 101.46 48.0228 101.462 50.6835C101.462 53.4268 101.3 56.4308 100.978 59.6955ZM161.972 59.6955C161.686 62.775 161.078 65.816 160.157 68.7685C159.382 71.3436 158.085 73.7316 156.347 75.7835C155.549 76.7111 154.554 77.4481 153.434 77.9402C152.314 78.4322 151.098 78.6667 149.875 78.6265C148.644 78.6629 147.42 78.427 146.291 77.9355C145.162 77.4441 144.155 76.7092 143.343 75.7835C141.565 73.7398 140.227 71.3519 139.412 68.7685C138.45 65.8237 137.821 62.7804 137.537 59.6955C137.214 56.4288 137.053 53.4248 137.053 50.6835C137.053 48.0228 137.214 45.0795 137.537 41.8535C137.825 38.7891 138.453 35.7663 139.412 32.8415C140.227 30.2578 141.565 27.8696 143.343 25.8255C144.155 24.9004 145.162 24.166 146.291 23.6748C147.42 23.1835 148.644 22.9475 149.875 22.9835C151.097 22.9437 152.313 23.1783 153.433 23.6701C154.553 24.1619 155.549 24.8984 156.347 25.8255C158.085 27.8779 159.382 30.2661 160.157 32.8415C161.074 35.7741 161.682 38.7945 161.972 41.8535C162.293 45.0795 162.454 48.0228 162.456 50.6835C162.456 53.4268 162.294 56.4308 161.972 59.6955Z" fill="#FA00E9"/>
<path d="M283.354 41.7313C286.903 38.344 291.129 35.7466 295.754 34.1103C300.388 32.4316 305.279 31.5721 310.209 31.5703C314.578 31.4627 318.934 32.0967 323.091 33.4453C326.409 34.5674 329.358 36.5751 331.619 39.2513C333.935 42.1575 335.568 45.5475 336.398 49.1703C337.479 53.8287 337.986 58.6018 337.909 63.3833V93.7453H319.764V87.3343H319.401C317.739 89.9438 315.309 91.9729 312.445 93.1413C309.26 94.5282 305.818 95.2288 302.345 95.1973C299.814 95.1832 297.296 94.8581 294.845 94.2293C292.318 93.609 289.921 92.5441 287.768 91.0843C285.586 89.5843 283.785 87.5964 282.506 85.2783C281.054 82.5231 280.345 79.4369 280.451 76.3243C280.451 71.9703 281.64 68.4626 284.019 65.8013C286.546 63.0393 289.698 60.9235 293.212 59.6313C297.239 58.1168 301.449 57.1417 305.732 56.7313C310.192 56.2555 314.673 56.0135 319.159 56.0063V55.0383C319.159 52.0563 318.11 49.859 316.014 48.4463C313.706 46.9742 311.007 46.2344 308.272 46.3243C305.45 46.3245 302.663 46.9441 300.107 48.1393C297.658 49.2365 295.394 50.7055 293.394 52.4943L283.354 41.7313ZM319.764 67.4963H317.226C315.048 67.4963 312.85 67.5963 310.633 67.7963C308.621 67.959 306.633 68.3447 304.706 68.9463C303.103 69.4337 301.634 70.2821 300.412 71.4263C299.844 71.9843 299.4 72.6551 299.108 73.3955C298.816 74.1358 298.682 74.9291 298.716 75.7243C298.687 76.7473 298.96 77.7561 299.502 78.6243C300.01 79.4152 300.695 80.0777 301.502 80.5603C302.361 81.0641 303.303 81.4118 304.284 81.5873C305.28 81.7836 306.292 81.8841 307.308 81.8873C311.34 81.8873 314.424 80.7783 316.562 78.5603C318.699 76.3423 319.768 73.3386 319.768 69.5493L319.764 67.4963Z" fill="#775AF6"/>
<path d="M452.147 51.2873C450.465 49.7089 448.546 48.4028 446.461 47.4163C444.312 46.3753 441.955 45.8377 439.567 45.8443C437.794 45.8266 436.039 46.1984 434.426 46.9333C433.692 47.2354 433.07 47.7588 432.647 48.4308C432.224 49.1027 432.022 49.8897 432.067 50.6823C432.051 51.4866 432.296 52.2745 432.764 52.9284C433.233 53.5824 433.9 54.0675 434.667 54.3113C437.403 55.3337 440.213 56.1424 443.074 56.7303C445.402 57.2367 447.687 57.9245 449.908 58.7873C452.147 59.6413 454.247 60.8236 456.138 62.2953C457.984 63.738 459.509 65.5508 460.613 67.6173C461.794 69.937 462.376 72.5152 462.307 75.1173C462.443 78.2704 461.749 81.4039 460.296 84.2055C458.843 87.0071 456.681 89.3788 454.026 91.0843C451.491 92.7298 448.686 93.9171 445.74 94.5923C442.728 95.3119 439.643 95.6774 436.547 95.6813C431.632 95.683 426.748 94.887 422.088 93.3243C417.678 91.9349 413.644 89.5556 410.294 86.3683L421.426 74.6333C423.286 76.6351 425.5 78.2757 427.957 79.4723C430.508 80.756 433.327 81.419 436.183 81.4073C437.843 81.397 439.478 81.0038 440.961 80.2583C441.719 79.9024 442.351 79.324 442.772 78.6002C443.194 77.8763 443.385 77.0414 443.32 76.2063C443.323 75.3045 443.046 74.4241 442.526 73.6871C442.007 72.9501 441.27 72.3931 440.42 72.0933C437.486 70.8923 434.449 69.9608 431.347 69.3103C429.207 68.8149 427.105 68.1683 425.057 67.3753C423.015 66.6033 421.115 65.4999 419.432 64.1093C417.752 62.7067 416.374 60.9787 415.38 59.0293C414.277 56.7727 413.737 54.2822 413.807 51.7713C413.707 48.5338 414.503 45.3316 416.107 42.5173C417.591 40.026 419.614 37.8979 422.026 36.2883C424.488 34.6566 427.208 33.4504 430.07 32.7203C432.932 31.9646 435.88 31.5781 438.84 31.5703C443.34 31.5684 447.811 32.283 452.086 33.6873C456.163 34.9614 459.903 37.131 463.033 40.0373L452.147 51.2873Z" fill="#775AF6"/>
<path d="M553.772 63.3842C553.837 67.9777 552.93 72.533 551.111 76.7512C549.431 80.6098 546.958 84.0718 543.853 86.9122C540.744 89.7214 537.133 91.9171 533.208 93.3832C524.872 96.4486 515.718 96.4486 507.382 93.3832C503.448 91.9366 499.833 89.7389 496.738 86.9122C493.662 84.0589 491.21 80.5992 489.538 76.7512C487.717 72.5333 486.81 67.9777 486.877 63.3842C486.807 58.812 487.714 54.2777 489.538 50.0842C491.212 46.2722 493.665 42.8521 496.738 40.0432C499.833 37.2602 503.451 35.1218 507.382 33.7532C515.746 30.8505 524.844 30.8505 533.208 33.7532C537.13 35.1411 540.745 37.2773 543.853 40.0432C546.955 42.8392 549.429 46.2615 551.111 50.0842C552.933 54.2779 553.84 58.8121 553.772 63.3842ZM534.659 63.3842C534.658 61.4483 534.331 59.5264 533.692 57.6992C533.08 55.9058 532.136 54.2435 530.91 52.7992C529.664 51.362 528.142 50.1898 526.434 49.3522C524.495 48.475 522.392 48.0212 520.265 48.0212C518.137 48.0212 516.034 48.475 514.096 49.3522C512.399 50.1791 510.895 51.3535 509.681 52.7992C508.49 54.2483 507.587 55.9114 507.02 57.6992C505.809 61.3929 505.809 65.3766 507.02 69.0702C507.609 70.8973 508.531 72.5994 509.741 74.0902C510.958 75.5889 512.485 76.8061 514.217 77.6582C516.155 78.5354 518.258 78.9892 520.386 78.9892C522.513 78.9892 524.616 78.5354 526.555 77.6582C528.285 76.8054 529.81 75.5882 531.026 74.0902C532.235 72.5993 533.159 70.8973 533.749 69.0702C534.351 67.235 534.658 65.3158 534.659 63.3842V63.3842Z" fill="#775AF6"/>
<path d="M145.544 164.751C145.61 169.344 144.703 173.899 142.883 178.118C141.203 181.976 138.731 185.438 135.626 188.279C132.518 191.087 128.906 193.283 124.981 194.75C116.645 197.814 107.491 197.814 99.1553 194.75C95.2213 193.302 91.606 191.105 88.5103 188.279C85.4344 185.425 82.9829 181.965 81.3103 178.118C79.4898 173.9 78.583 169.344 78.6493 164.751C78.579 160.176 79.4862 155.64 81.3103 151.445C82.9847 147.633 85.4371 144.214 88.5103 141.406C91.6054 138.622 95.2242 136.483 99.1553 135.115C107.519 132.212 116.617 132.212 124.981 135.115C128.903 136.503 132.519 138.639 135.626 141.406C138.728 144.201 141.201 147.623 142.883 151.445C144.706 155.64 145.614 160.176 145.544 164.751V164.751ZM126.432 164.751C126.432 162.815 126.105 160.893 125.464 159.066C124.854 157.272 123.91 155.609 122.683 154.166C121.437 152.728 119.915 151.556 118.207 150.718C116.269 149.841 114.165 149.388 112.038 149.388C109.91 149.388 107.807 149.841 105.868 150.718C104.171 151.545 102.667 152.72 101.453 154.166C100.263 155.615 99.36 157.278 98.7923 159.066C97.583 162.759 97.583 166.742 98.7923 170.436C99.3818 172.263 100.305 173.965 101.514 175.457C102.731 176.955 104.258 178.172 105.99 179.025C107.929 179.901 110.032 180.355 112.159 180.355C114.287 180.355 116.39 179.901 118.328 179.025C120.06 178.172 121.586 176.954 122.803 175.457C124.013 173.965 124.936 172.263 125.525 170.436C126.127 168.601 126.433 166.682 126.432 164.751Z" fill="#775AF6"/>
<path d="M231.28 195.113V162.213C231.284 160.573 231.162 158.935 230.917 157.313C230.725 155.892 230.274 154.519 229.586 153.261C228.959 152.152 228.065 151.216 226.986 150.539C225.68 149.8 224.192 149.443 222.693 149.511C221.15 149.473 219.625 149.849 218.277 150.6C217.028 151.324 215.954 152.314 215.132 153.5C214.259 154.767 213.624 156.181 213.257 157.674C212.851 159.276 212.649 160.922 212.657 162.574V195.114H192.813V160.76C192.965 157.874 192.249 155.009 190.757 152.534C189.385 150.519 187.207 149.511 184.225 149.51C182.786 149.456 181.357 149.772 180.075 150.428C178.794 151.085 177.703 152.06 176.907 153.26C175.108 155.981 174.199 159.193 174.307 162.453V195.113H154.347V134.873H173.58V143.219H173.822C174.588 141.873 175.501 140.616 176.544 139.471C177.689 138.214 179.013 137.133 180.475 136.264C182.086 135.303 183.814 134.551 185.616 134.026C187.641 133.445 189.739 133.16 191.846 133.18C195.707 133.058 199.529 133.978 202.913 135.841C205.961 137.641 208.42 140.289 209.99 143.462C211.938 140.383 214.592 137.812 217.731 135.962C221.241 134.016 225.211 133.055 229.223 133.18C232.802 133.06 236.355 133.829 239.565 135.418C242.224 136.804 244.523 138.792 246.279 141.224C247.987 143.637 249.238 146.343 249.968 149.208C250.718 152.03 251.104 154.936 251.117 157.856V195.113H231.28Z" fill="#775AF6"/>
<path d="M343.049 195.113V162.213C343.053 160.573 342.932 158.935 342.687 157.313C342.495 155.892 342.044 154.519 341.356 153.261C340.729 152.152 339.836 151.216 338.756 150.539C337.45 149.799 335.962 149.443 334.462 149.511C332.92 149.473 331.395 149.849 330.047 150.6C328.798 151.323 327.724 152.314 326.902 153.5C326.03 154.767 325.394 156.181 325.026 157.675C324.618 159.276 324.415 160.923 324.421 162.575V195.115H304.583V160.76C304.736 157.874 304.02 155.008 302.526 152.534C301.156 150.519 298.979 149.511 295.995 149.51C294.556 149.456 293.127 149.772 291.846 150.428C290.564 151.085 289.473 152.06 288.677 153.26C286.878 155.98 285.969 159.193 286.077 162.453V195.113H266.117V134.873H285.35V143.219H285.592C286.359 141.873 287.272 140.616 288.314 139.471C289.459 138.214 290.784 137.133 292.245 136.264C293.857 135.303 295.584 134.551 297.385 134.026C299.41 133.445 301.509 133.16 303.615 133.18C307.476 133.058 311.299 133.977 314.683 135.841C317.731 137.641 320.19 140.289 321.76 143.462C323.708 140.383 326.362 137.812 329.501 135.962C333.011 134.016 336.982 133.055 340.993 133.18C344.572 133.06 348.126 133.829 351.335 135.418C353.994 136.805 356.293 138.793 358.049 141.224C359.757 143.637 361.008 146.343 361.738 149.208C362.488 152.03 362.874 154.936 362.887 157.856V195.113H343.049Z" fill="#775AF6"/>
<path d="M417.563 195.113V186.767H417.32C416.56 188.185 415.604 189.488 414.478 190.637C413.267 191.879 411.881 192.938 410.365 193.782C408.719 194.701 406.975 195.431 405.165 195.959C403.221 196.53 401.204 196.815 399.178 196.806C395.646 196.916 392.139 196.17 388.957 194.63C386.305 193.287 383.99 191.364 382.182 189.004C380.424 186.657 379.15 183.985 378.433 181.142C377.666 178.2 377.28 175.171 377.284 172.131V134.873H397.243V167.533C397.237 169.153 397.358 170.771 397.606 172.372C397.817 173.816 398.289 175.209 398.997 176.485C399.641 177.652 400.578 178.631 401.716 179.325C403.086 180.07 404.634 180.426 406.192 180.353C407.733 180.434 409.269 180.122 410.655 179.445C412.041 178.767 413.232 177.748 414.115 176.483C415.955 173.821 416.907 170.645 416.837 167.41V134.873H436.674V195.113H417.563Z" fill="#775AF6"/>
<path d="M491.712 195.114V162.214C491.718 160.591 491.576 158.972 491.289 157.376C491.045 155.96 490.575 154.592 489.897 153.326C489.261 152.168 488.32 151.206 487.176 150.544C485.822 149.814 484.298 149.459 482.761 149.516C481.149 149.48 479.552 149.832 478.104 150.544C476.787 151.217 475.648 152.191 474.777 153.387C473.864 154.645 473.186 156.059 472.777 157.56C472.331 159.154 472.107 160.803 472.112 162.46V195.12H452.157V134.88H471.39V143.226H471.632C472.424 141.847 473.379 140.568 474.475 139.417C475.674 138.144 477.061 137.062 478.588 136.211C480.216 135.298 481.939 134.565 483.726 134.026C485.649 133.452 487.647 133.167 489.653 133.18C493.205 133.075 496.73 133.821 499.934 135.357C502.61 136.688 504.948 138.612 506.769 140.982C508.533 143.347 509.808 146.041 510.519 148.905C511.277 151.828 511.664 154.835 511.668 157.856V195.113L491.712 195.114Z" fill="#775AF6"/>
<path d="M548.202 115.64C548.213 117.121 547.903 118.586 547.294 119.934C546.715 121.244 545.882 122.426 544.844 123.412C543.806 124.398 542.583 125.169 541.246 125.68C539.842 126.244 538.343 126.531 536.831 126.527C535.334 126.568 533.844 126.305 532.451 125.754C531.058 125.204 529.791 124.378 528.726 123.325C527.679 122.341 526.848 121.15 526.286 119.828C525.724 118.506 525.442 117.081 525.459 115.644C525.455 114.21 525.744 112.79 526.307 111.471C526.856 110.162 527.681 108.987 528.726 108.025C529.796 107.042 531.022 106.245 532.355 105.666C533.766 105.053 535.291 104.743 536.83 104.758C538.342 104.755 539.841 105.043 541.245 105.605C542.592 106.131 543.825 106.912 544.875 107.905C545.894 108.889 546.715 110.059 547.293 111.352C547.902 112.699 548.212 114.162 548.202 115.64V115.64ZM526.912 195.113V134.873H546.75V195.113H526.912Z" fill="#775AF6"/>
<path d="M648.355 134.873L636.38 173.581H636.017L622.589 134.873H586.426V119.025H566.95V134.871H557.393V149.628H567.07V175.097C567.036 178.064 567.403 181.022 568.159 183.89C568.82 186.395 570.04 188.716 571.728 190.68C573.517 192.674 575.786 194.177 578.32 195.046C581.593 196.14 585.032 196.653 588.481 196.563C590.59 196.562 592.694 196.38 594.771 196.018C596.536 195.738 598.275 195.313 599.971 194.748L599.73 180.233C598.859 180.595 597.944 180.84 597.008 180.959C595.988 181.115 594.957 181.196 593.924 181.2C591.1 181.2 589.145 180.492 588.057 179.076C586.97 177.66 586.426 175.535 586.424 172.701V149.63H606.837L625.737 194.145L623.801 199.105C623.052 201.32 621.859 203.357 620.293 205.093C618.921 206.502 616.704 207.208 613.64 207.21H26.4902V224.144H615.937C619.272 224.208 622.597 223.759 625.795 222.814C628.45 221.995 630.917 220.659 633.053 218.882C635.158 217.09 636.955 214.965 638.375 212.593C639.972 209.916 641.328 207.102 642.428 204.185L669.403 134.873H648.355Z" fill="url(#paint0_linear)"/>
<path d="M64.4476 154.347C63.2213 152.823 61.6426 151.619 59.8476 150.84C57.9921 149.971 55.9695 149.517 53.9206 149.509C51.9518 149.48 50.0038 149.915 48.2346 150.779C46.5705 151.604 45.0897 152.756 43.8806 154.166C42.648 155.617 41.6854 157.276 41.0386 159.066C40.3446 160.965 39.9961 162.972 40.0096 164.993C39.9954 167.01 40.3227 169.014 40.9776 170.921C41.5915 172.726 42.5575 174.392 43.8196 175.821C45.0637 177.23 46.5883 178.363 48.2956 179.148C50.1385 179.978 52.1418 180.391 54.1626 180.357C56.2125 180.352 58.2432 179.962 60.1496 179.208C62.0018 178.529 63.6476 177.383 64.9276 175.882L75.9356 189.309C73.1647 191.889 69.8613 193.83 66.2586 194.994C62.2103 196.38 57.9576 197.075 53.6786 197.05C49.1455 197.087 44.6392 196.351 40.3536 194.873C36.3776 193.509 32.7214 191.349 29.6086 188.524C26.5323 185.699 24.085 182.257 22.4256 178.424C18.9376 169.855 18.9376 160.261 22.4256 151.691C24.085 147.859 26.5316 144.418 29.6066 141.591C32.728 138.761 36.3817 136.582 40.3546 135.179C44.5905 133.67 49.0578 132.913 53.5546 132.942C55.7259 132.94 57.8926 133.141 60.0266 133.542C62.1198 133.936 64.1816 134.481 66.1956 135.174C68.0949 135.826 69.9195 136.678 71.6386 137.715C73.1965 138.65 74.6379 139.767 75.9326 141.041L64.4476 154.347Z" fill="#775AF6"/>
<path d="M253.201 93.9871V86.1241H252.959C250.955 89.2478 248.072 91.7096 244.673 93.2001C241.09 94.8516 237.188 95.6981 233.242 95.6801C229.056 95.7541 224.911 94.8422 221.142 93.0181C217.678 91.3127 214.609 88.9025 212.13 85.9421C209.628 82.9216 207.721 79.4545 206.509 75.7241C205.214 71.8221 204.56 67.7355 204.574 63.6241C204.56 59.5285 205.236 55.4598 206.574 51.5891C207.826 47.8985 209.754 44.4734 212.26 41.4891C214.799 38.473 217.979 36.061 221.567 34.4289C225.156 32.7967 229.064 31.9854 233.005 32.0541C236.91 31.9304 240.782 32.8046 244.255 34.5941C246.953 35.9987 249.372 37.8847 251.391 40.1591H251.634V2.53906H271.466V93.9871H253.201ZM252.475 63.7461C252.474 61.805 252.125 59.8798 251.447 58.0611C250.786 56.2475 249.804 54.5677 248.547 53.1021C247.284 51.6414 245.742 50.4483 244.01 49.5931C242.127 48.6822 240.055 48.2266 237.963 48.2631C235.831 48.2176 233.718 48.6732 231.793 49.5931C230.088 50.4207 228.57 51.5879 227.332 53.0233C226.094 54.4586 225.162 56.1317 224.593 57.9401C223.992 59.7751 223.686 61.694 223.686 63.6251C223.689 65.5759 223.995 67.5144 224.593 69.3711C225.165 71.2057 226.09 72.9109 227.315 74.3911C228.546 75.8598 230.07 77.0547 231.79 77.8991C233.714 78.8203 235.828 79.2759 237.96 79.2291C240.053 79.267 242.124 78.8113 244.007 77.8991C245.739 77.0449 247.282 75.852 248.544 74.3911C249.801 72.9255 250.783 71.2457 251.444 69.4321C252.124 67.6132 252.473 65.6876 252.475 63.7461V63.7461Z" fill="#775AF6"/>
<path d="M600.699 16.9343C599.868 16.6676 599.019 16.4653 598.158 16.3293C597.199 16.169 596.229 16.088 595.258 16.0873C593.707 16.0183 592.165 16.3515 590.782 17.0543C589.681 17.672 588.764 18.5688 588.121 19.6543C587.457 20.7932 587.007 22.0432 586.791 23.3433C586.55 24.7011 586.428 26.0774 586.428 27.4563V33.5053H599.855V48.2633H586.426V93.7453H566.587V48.2633H557.393V33.5063H566.587V27.6993C566.57 24.1359 566.976 20.5831 567.796 17.1153C568.537 13.9063 569.96 10.8947 571.97 8.28532C574.087 5.63692 576.83 3.55793 579.953 2.23632C583.925 0.627741 588.189 -0.134167 592.473 -0.000679384C594.15 -0.00157866 595.827 0.0986028 597.493 0.299321C599.026 0.478543 600.542 0.782891 602.026 1.20932L600.699 16.9343Z" fill="#775AF6"/>
<path d="M389.101 33.5069L377.126 72.2139H376.763L363.336 33.5069H341.32L366.481 92.7779L364.546 97.7389C363.796 99.9526 362.602 101.99 361.037 103.726C359.665 105.135 357.448 105.841 354.384 105.843H26.4902V122.777H356.683C360.018 122.84 363.343 122.392 366.541 121.447C369.196 120.628 371.663 119.291 373.799 117.515C375.906 115.723 377.705 113.598 379.126 111.225C380.723 108.548 382.079 105.734 383.179 102.818L410.154 33.5059L389.101 33.5069Z" fill="url(#paint1_linear)"/>
</g>
<defs>
<linearGradient id="paint0_linear" x1="26.4902" y1="171.585" x2="669.403" y2="171.585" gradientUnits="userSpaceOnUse">
<stop stop-color="#FA00E9"/>
<stop offset="0.111" stop-color="#F106EA"/>
<stop offset="0.292" stop-color="#D917EC"/>
<stop offset="0.52" stop-color="#B132F0"/>
<stop offset="0.784" stop-color="#7B58F6"/>
<stop offset="0.8" stop-color="#775AF6"/>
</linearGradient>
<linearGradient id="paint1_linear" x1="14400.1" y1="7337.87" x2="161596" y2="7337.87" gradientUnits="userSpaceOnUse">
<stop stop-color="#FA00E9"/>
<stop offset="0.111" stop-color="#F106EA"/>
<stop offset="0.292" stop-color="#D917EC"/>
<stop offset="0.52" stop-color="#B132F0"/>
<stop offset="0.784" stop-color="#7B58F6"/>
<stop offset="0.8" stop-color="#775AF6"/>
</linearGradient>
<clipPath id="clip0">
<rect width="669.403" height="224.144" fill="white"/>
</clipPath>
</defs>
</svg>
