<svg width="305" height="328" viewBox="0 0 305 328" fill="none" xmlns="http://www.w3.org/2000/svg">
<path opacity="0.3" d="M192.026 116H112.466C107.374 116 103.246 120.128 103.246 125.22V204.78C103.246 209.872 107.374 214 112.466 214H192.026C197.118 214 201.246 209.872 201.246 204.78V125.22C201.246 120.128 197.118 116 192.026 116Z" fill="url(#paint0_linear_1333_18)"/>
<path d="M180.026 128H124.466C119.374 128 115.246 132.128 115.246 137.22V192.78C115.246 197.872 119.374 202 124.466 202H180.026C185.118 202 189.246 197.872 189.246 192.78V137.22C189.246 132.128 185.118 128 180.026 128Z" fill="url(#paint1_linear_1333_18)"/>
<path fill-rule="evenodd" clip-rule="evenodd" d="M168.605 161.466C168.223 158.554 167.14 155.781 165.45 153.391C163.76 151 161.515 149.066 158.912 147.757C156.31 146.448 153.428 145.805 150.522 145.883C147.615 145.962 144.772 146.761 142.243 148.209C139.713 149.657 137.574 151.71 136.013 154.188C134.453 156.667 133.518 159.494 133.292 162.423C133.066 165.351 133.555 168.291 134.716 170.984C135.877 173.677 137.675 176.04 139.952 177.867C141.695 177.083 143.601 176.168 145.625 175.141C143.578 174.15 141.838 172.612 140.595 170.692C139.352 168.773 138.653 166.547 138.574 164.255C138.494 161.963 139.038 159.692 140.146 157.69C141.253 155.688 142.882 154.031 144.856 152.898C146.83 151.765 149.074 151.2 151.343 151.264C153.613 151.328 155.821 152.019 157.73 153.261C159.638 154.504 161.173 156.25 162.168 158.312C163.164 160.373 163.581 162.67 163.375 164.954C165.25 163.753 167.003 162.584 168.605 161.466ZM168.754 163.499C166.96 164.84 164.972 166.229 162.834 167.629C161.879 170.654 159.825 173.202 157.086 174.759C154.346 176.316 151.124 176.766 148.069 176.02C145.726 177.158 143.502 178.143 141.467 178.959C144.174 180.698 147.298 181.664 150.506 181.754C153.713 181.844 156.885 181.054 159.684 179.468C162.483 177.882 164.804 175.56 166.401 172.748C167.998 169.937 168.811 166.74 168.754 163.499Z" fill="#F1F2F3"/>
<path fill-rule="evenodd" clip-rule="evenodd" d="M171.852 177.603C172.255 177.604 172.649 177.483 172.985 177.257C173.32 177.031 173.581 176.71 173.736 176.334C173.89 175.958 173.931 175.544 173.852 175.145C173.774 174.745 173.58 174.378 173.295 174.09C173.01 173.802 172.647 173.606 172.252 173.526C171.857 173.447 171.447 173.488 171.075 173.643C170.702 173.799 170.384 174.063 170.16 174.401C169.936 174.74 169.816 175.138 169.816 175.545C169.816 176.091 170.031 176.614 170.413 177C170.794 177.386 171.312 177.603 171.852 177.603Z" fill="#F1F2F3"/>
<path fill-rule="evenodd" clip-rule="evenodd" d="M169.657 148.907C169.897 148.907 170.132 148.835 170.332 148.7C170.532 148.565 170.687 148.373 170.779 148.149C170.871 147.925 170.895 147.678 170.849 147.44C170.802 147.202 170.686 146.983 170.516 146.811C170.346 146.64 170.129 146.523 169.894 146.475C169.658 146.428 169.414 146.452 169.192 146.545C168.97 146.638 168.78 146.795 168.646 146.997C168.513 147.199 168.441 147.437 168.441 147.679C168.441 147.841 168.472 148 168.533 148.149C168.594 148.298 168.684 148.434 168.797 148.548C168.91 148.662 169.044 148.752 169.191 148.814C169.339 148.876 169.497 148.907 169.657 148.907Z" fill="#F1F2F3"/>
<path fill-rule="evenodd" clip-rule="evenodd" d="M128.764 169.765C129.085 169.765 129.398 169.669 129.665 169.489C129.931 169.309 130.139 169.053 130.261 168.754C130.384 168.455 130.415 168.125 130.353 167.808C130.29 167.49 130.135 167.199 129.908 166.97C129.681 166.742 129.392 166.586 129.077 166.524C128.763 166.461 128.437 166.494 128.141 166.619C127.845 166.743 127.593 166.954 127.415 167.224C127.238 167.493 127.144 167.81 127.145 168.134C127.146 168.567 127.317 168.982 127.621 169.288C127.924 169.594 128.336 169.765 128.764 169.765Z" fill="#F1F2F3"/>
<path fill-rule="evenodd" clip-rule="evenodd" d="M156.12 160.127C157.87 159.15 159.573 158.223 161.218 157.367C161.279 157.467 161.344 157.585 161.414 157.718C159.784 158.579 158.08 159.509 156.331 160.487L156.12 160.127ZM178.846 151.41C178.065 150.043 173.329 151.495 166.626 154.66C166.689 154.764 166.751 154.872 166.811 154.982C173.232 151.894 177.713 150.407 178.282 151.603C179.177 153.168 168.909 160.846 155.359 168.752C141.809 176.658 130.091 181.798 129.196 180.233C128.686 179.302 131.207 176.767 133.472 174.751C130.211 177.409 128.5 179.457 129.063 180.44C130.339 182.675 142.69 178.281 156.439 170.267C170.188 162.253 180.129 153.645 178.846 151.41Z" fill="#F1F2F3"/>
<path d="M154.51 161.426C154.22 160.924 154.112 160.335 154.204 159.761C154.295 159.187 154.581 158.663 155.012 158.279C155.444 157.894 155.994 157.672 156.569 157.651C157.144 157.63 157.708 157.811 158.166 158.164C158.623 158.516 158.946 159.018 159.078 159.584C159.21 160.15 159.144 160.744 158.891 161.266C158.638 161.788 158.213 162.206 157.69 162.447C157.166 162.688 156.576 162.738 156.02 162.589C155.703 162.509 155.406 162.364 155.146 162.165C154.887 161.965 154.67 161.713 154.51 161.426Z" fill="#F1F2F3"/>
<path d="M74 66.6241V7.37589C74 3.3023 70.6977 0 66.6241 0L7.37589 0C3.3023 0 0 3.3023 0 7.37589V66.6241C0 70.6977 3.3023 74 7.37589 74H66.6241C70.6977 74 74 70.6977 74 66.6241Z" fill="white"/>
<path d="M304 66.6241V7.37589C304 3.30229 300.698 0 296.624 0L237.376 0C233.302 0 230 3.30229 230 7.37589V66.6241C230 70.6977 233.302 74 237.376 74H296.624C300.698 74 304 70.6977 304 66.6241Z" fill="white"/>
<path d="M189.25 66.6241V7.37589C189.25 3.30229 185.948 0 181.874 0L122.626 0C118.552 0 115.25 3.30229 115.25 7.37589V66.6241C115.25 70.6977 118.552 74 122.626 74H181.874C185.948 74 189.25 70.6977 189.25 66.6241Z" fill="white"/>
<path d="M146.795 38.0303C144.335 38.0303 142.34 40.0254 142.34 42.4852V53.6288C142.34 56.0887 144.335 58.0838 146.795 58.0838C149.255 58.0838 151.25 56.0887 151.25 53.6288V42.4852C151.248 40.0254 149.253 38.0303 146.795 38.0303Z" fill="#E01E5A"/>
<path d="M131.203 42.4849C131.203 44.9465 133.2 46.9433 135.662 46.9433C138.123 46.9433 140.12 44.9465 140.12 42.4849V38.0264H135.665C135.663 38.0264 135.663 38.0264 135.662 38.0264C133.2 38.0264 131.203 40.0232 131.203 42.4849Z" fill="#E01E5A"/>
<path d="M146.8 15.6729C146.798 15.6729 146.796 15.6729 146.794 15.6729C144.333 15.6729 142.336 17.6697 142.336 20.1314C142.336 22.593 144.333 24.5898 146.794 24.5898H151.249C151.249 22.0611 151.249 22.676 151.249 20.1225C151.248 17.6644 149.256 15.6729 146.8 15.6729Z" fill="#36C5F0"/>
<path d="M135.63 35.7666H146.795C149.257 35.7666 151.254 33.7697 151.254 31.3081C151.254 28.8465 149.257 26.8496 146.795 26.8496H135.63C133.169 26.8496 131.172 28.8465 131.172 31.3081C131.172 33.7697 133.169 35.7666 135.63 35.7666Z" fill="#36C5F0"/>
<path d="M169.086 26.8477C166.628 26.8477 164.637 28.8392 164.637 31.2973V31.3062V35.7647H169.092C171.553 35.7647 173.55 33.7678 173.55 31.3062C173.55 28.8445 171.553 26.8477 169.092 26.8477C169.09 26.8477 169.088 26.8477 169.086 26.8477Z" fill="#2EB67D"/>
<path d="M153.508 20.1308V31.3079C153.508 33.7678 155.503 35.7629 157.963 35.7629C160.423 35.7629 162.418 33.7678 162.418 31.3079V20.1308C162.418 17.6709 160.423 15.6758 157.963 15.6758C155.503 15.6758 153.508 17.6709 153.508 20.1308Z" fill="#2EB67D"/>
<path d="M162.414 53.6249C162.414 51.165 160.419 49.1699 157.959 49.1699H153.504V53.6284C153.506 56.0865 155.499 58.0798 157.959 58.0798C160.419 58.0798 162.414 56.0847 162.414 53.6249Z" fill="#ECB22E"/>
<path d="M169.123 38.0264H157.958C155.497 38.0264 153.5 40.0232 153.5 42.4849C153.5 44.9465 155.497 46.9433 157.958 46.9433H169.123C171.585 46.9433 173.582 44.9465 173.582 42.4849C173.582 40.0232 171.585 38.0264 169.123 38.0264Z" fill="#ECB22E"/>
<path d="M304.496 194.624V135.376C304.496 131.302 301.194 128 297.12 128H237.872C233.798 128 230.496 131.302 230.496 135.376V194.624C230.496 198.698 233.798 202 237.872 202H297.12C301.194 202 304.496 198.698 304.496 194.624Z" fill="white"/>
<path d="M74 320.624V261.376C74 257.302 70.6977 254 66.6241 254H7.37589C3.30229 254 0 257.302 0 261.376V320.624C0 324.698 3.30229 328 7.37589 328H66.6241C70.6977 328 74 324.698 74 320.624Z" fill="white"/>
<path fill-rule="evenodd" clip-rule="evenodd" d="M36.6242 312.93C25.1885 312.93 15.918 303.66 15.918 292.224C15.918 280.788 25.1885 271.518 36.6242 271.518C48.06 271.518 57.3305 280.788 57.3305 292.224C57.3305 303.66 48.06 312.93 36.6242 312.93ZM36.6242 309.165C45.9807 309.165 53.5657 301.58 53.5657 292.224C53.5657 282.867 45.9807 275.282 36.6242 275.282C27.2677 275.282 19.6827 282.867 19.6827 292.224C19.6827 301.58 27.2677 309.165 36.6242 309.165ZM29.646 301.084L32.3081 298.422L26.1096 292.224L32.3081 286.025L29.646 283.363L20.7854 292.224L29.646 301.084ZM40.9414 286.025L43.6035 283.363L52.4641 292.224L43.6035 301.084L40.9414 298.422L47.1399 292.224L40.9414 286.025ZM32.8867 303.209L36.6003 303.828L40.365 281.239L36.6515 280.62L32.8867 303.209Z" fill="#775AF6"/>
<path d="M74 193.624V134.376C74 130.302 70.6977 127 66.6241 127H7.37589C3.30229 127 0 130.302 0 134.376V193.624C0 197.698 3.30229 201 7.37589 201H66.6241C70.6977 201 74 197.698 74 193.624Z" fill="white"/>
<path d="M304 320.624V261.376C304 257.302 300.698 254 296.624 254H237.376C233.302 254 230 257.302 230 261.376V320.624C230 324.698 233.302 328 237.376 328H296.624C300.698 328 304 324.698 304 320.624Z" fill="white"/>
<path d="M189 320.624V261.376C189 257.302 185.698 254 181.624 254H122.376C118.302 254 115 257.302 115 261.376V320.624C115 324.698 118.302 328 122.376 328H181.624C185.698 328 189 324.698 189 320.624Z" fill="white"/>
<path d="M169.94 281.398C168.634 281.972 167.241 282.363 165.773 282.541C167.269 281.64 168.419 280.219 168.963 278.525C167.561 279.343 166.006 279.939 164.351 280.271C163.03 278.857 161.146 277.972 159.055 277.972C155.047 277.972 151.798 281.221 151.798 285.224C151.798 285.799 151.865 286.352 151.985 286.882C145.953 286.597 140.606 283.7 137.028 279.321C136.398 280.386 136.046 281.624 136.046 282.972C136.046 285.494 137.329 287.711 139.273 289.013C138.083 288.975 136.963 288.647 135.987 288.104V288.194C135.987 291.712 138.484 294.646 141.807 295.314C141.198 295.478 140.555 295.566 139.896 295.566C139.432 295.566 138.988 295.522 138.544 295.439C139.475 298.32 142.151 300.42 145.335 300.479C142.857 302.425 139.717 303.584 136.335 303.584C135.76 303.584 135.186 303.55 134.609 303.485C137.838 305.541 141.642 306.743 145.755 306.743C159.109 306.743 166.403 295.687 166.403 286.115C166.403 285.806 166.403 285.495 166.381 285.186C167.798 284.169 169.036 282.885 170.009 281.427L169.94 281.398Z" fill="#1DA1F2"/>
<path d="M279.97 25.6874C277.488 24.5484 274.826 23.7092 272.042 23.2286C271.992 23.2193 271.941 23.2425 271.915 23.2889C271.573 23.8977 271.193 24.6921 270.928 25.3164C267.934 24.8683 264.956 24.8683 262.024 25.3164C261.759 24.6782 261.366 23.8977 261.022 23.2889C260.996 23.244 260.945 23.2209 260.894 23.2286C258.113 23.7077 255.451 24.5468 252.967 25.6874C252.945 25.6966 252.927 25.7121 252.915 25.7322C247.866 33.2754 246.482 40.6332 247.161 47.8998C247.164 47.9353 247.184 47.9693 247.212 47.991C250.543 50.4374 253.77 51.9225 256.937 52.907C256.987 52.9224 257.041 52.9039 257.073 52.8621C257.822 51.8391 258.49 50.7604 259.063 49.626C259.097 49.5596 259.064 49.4808 258.995 49.4545C257.936 49.0526 256.927 48.5628 255.957 48.0064C255.881 47.9616 255.874 47.8519 255.945 47.7993C256.149 47.6463 256.353 47.4871 256.548 47.3264C256.584 47.2971 256.633 47.2909 256.674 47.3094C263.048 50.2195 269.948 50.2195 276.247 47.3094C276.289 47.2893 276.338 47.2955 276.375 47.3249C276.57 47.4856 276.774 47.6463 276.979 47.7993C277.05 47.8519 277.045 47.9616 276.969 48.0064C275.998 48.5736 274.99 49.0526 273.929 49.453C273.86 49.4792 273.829 49.5596 273.863 49.626C274.448 50.7588 275.116 51.8375 275.851 52.8606C275.882 52.9039 275.937 52.9224 275.988 52.907C279.17 51.9225 282.397 50.4374 285.728 47.991C285.757 47.9693 285.776 47.9369 285.779 47.9013C286.591 39.5004 284.419 32.2029 280.02 25.7337C280.01 25.7121 279.991 25.6966 279.97 25.6874ZM260.015 43.4752C258.096 43.4752 256.515 41.7134 256.515 39.5498C256.515 37.3862 258.065 35.6245 260.015 35.6245C261.98 35.6245 263.545 37.4017 263.515 39.5498C263.515 41.7134 261.964 43.4752 260.015 43.4752ZM272.956 43.4752C271.037 43.4752 269.456 41.7134 269.456 39.5498C269.456 37.3862 271.006 35.6245 272.956 35.6245C274.921 35.6245 276.487 37.4017 276.456 39.5498C276.456 41.7134 274.921 43.4752 272.956 43.4752Z" fill="#5865F2"/>
<path d="M281.429 152.228C280.623 152.473 279.362 153.63 279.011 154.453L278.713 155.136L275.174 155.189L271.635 155.241L270.776 155.767C269.602 156.503 268.971 157.449 268.726 158.938C268.604 159.604 268.411 160.34 268.271 160.55C268.008 161.024 267.097 161.462 266.361 161.462C265.94 161.462 265.8 161.339 265.537 160.761C265.169 159.937 264.101 158.903 263.242 158.553C261.35 157.765 258.844 158.746 257.915 160.673L257.53 161.462H255.9C254.341 161.462 254.271 161.444 254.166 161.059C253.973 160.235 253.044 159.236 252.063 158.746C249.435 157.467 246.351 159.149 246.053 162.022C245.913 163.459 246.334 164.598 247.403 165.544C249.242 167.191 251.59 167.103 253.255 165.316C253.693 164.861 254.096 164.265 254.166 164.02C254.271 163.564 254.288 163.564 255.918 163.564H257.565L258.003 164.423C259.58 167.559 264.206 167.384 265.572 164.125C265.765 163.669 265.905 163.564 266.326 163.564C267.097 163.564 268.008 163.985 268.271 164.475C268.411 164.685 268.604 165.421 268.726 166.087C269.129 168.4 270.566 169.679 272.914 169.837C274.193 169.924 274.228 169.942 274.456 170.468C275.121 172.062 276.488 172.921 278.345 172.938C279.414 172.938 279.694 172.868 280.448 172.412C281.026 172.044 281.499 171.571 281.885 170.923C282.358 170.117 282.445 169.802 282.445 168.838C282.445 166.332 280.711 164.615 278.17 164.615C276.646 164.615 275.121 165.632 274.473 167.086C274.175 167.734 274.105 167.769 273.387 167.769C272.423 167.769 271.512 167.401 271.179 166.858C271.021 166.648 270.829 165.912 270.723 165.229C270.601 164.353 270.391 163.792 270.023 163.266L269.479 162.513L270.023 161.759C270.391 161.234 270.601 160.673 270.723 159.797C271.091 157.432 271.442 157.256 275.682 157.256C278.713 157.256 278.731 157.256 278.836 157.659C279.029 158.483 279.957 159.482 280.938 159.972C283.567 161.251 286.721 159.517 286.966 156.678C287.089 155.224 286.756 154.313 285.722 153.314C284.46 152.088 283.006 151.72 281.429 152.228ZM284.232 154.768C285.214 155.732 285.021 157.449 283.847 158.045C282.27 158.851 280.518 157.694 280.746 155.977C280.833 155.277 281.394 154.541 282.007 154.26C282.638 153.98 283.689 154.208 284.232 154.768ZM251.222 160.656C251.836 160.988 252.309 161.812 252.309 162.565C252.309 163.074 252.168 163.371 251.713 163.879C251.17 164.458 251.03 164.528 250.224 164.528C249.47 164.528 249.26 164.44 248.787 163.985C247.788 162.986 247.946 161.444 249.137 160.708C249.68 160.358 250.662 160.34 251.222 160.656ZM262.979 160.866C263.733 161.497 263.995 162.425 263.645 163.266C262.734 165.439 259.668 164.791 259.668 162.425C259.668 161.602 259.913 161.181 260.596 160.761C261.402 160.27 262.331 160.305 262.979 160.866ZM279.852 167.401C280.746 168.4 280.395 170.17 279.204 170.678C278.38 171.011 277.907 170.993 277.224 170.573C275.962 169.802 275.892 168.137 277.049 167.156C277.539 166.735 277.732 166.683 278.486 166.771C279.186 166.823 279.449 166.963 279.852 167.401Z" fill="black"/>
<path d="M36.6728 141C25.5451 141 16.1875 150.017 16.1875 161.142V182L36.6696 181.981C47.7908 181.981 56.8121 172.617 56.8121 161.495C56.8121 150.373 47.7838 141 36.6728 141Z" fill="#231F20"/>
<path d="M36.872 148.796C32.4729 148.799 28.3998 151.115 26.1493 154.895C23.8987 158.675 23.8026 163.36 25.8962 167.228L23.6367 174.496L31.749 172.663C33.4467 173.429 35.2944 173.806 37.1565 173.765C39.0186 173.724 40.848 173.267 42.5106 172.428C44.1732 171.588 45.627 170.388 46.7654 168.913C47.9038 167.439 48.6979 165.729 49.0896 163.908C49.4814 162.087 49.4608 160.202 49.0293 158.39C48.5979 156.578 47.7665 154.886 46.5962 153.437C45.4259 151.988 43.9462 150.819 42.2656 150.016C40.585 149.213 38.7461 148.796 36.8836 148.796H36.872Z" fill="#FFF9AE"/>
<path d="M46.7774 153.686C50.2393 158.224 50.1804 164.534 46.6339 169.007C43.0874 173.481 36.9585 174.978 31.749 172.644L23.6367 174.5L31.8944 173.524C37.3692 176.731 44.3789 175.32 48.1855 170.244C51.9921 165.168 51.386 158.044 46.7761 153.685L46.7774 153.686Z" fill="#00AEEF"/>
<path d="M44.4788 151.384C48.3956 155.536 48.9952 161.817 45.9356 166.637C42.876 171.457 36.9367 173.585 31.5126 171.807L23.6367 174.5L31.749 172.663C37.5274 175.273 44.3436 173.137 47.598 167.696C50.8524 162.254 49.5109 155.239 44.4782 151.383L44.4788 151.384Z" fill="#00A94F"/>
<path d="M26.6425 167.505C25.5471 164.861 25.3934 161.921 26.2072 159.177C27.0209 156.433 28.7527 154.052 31.1126 152.432C33.4725 150.812 36.3172 150.053 39.1703 150.28C42.0234 150.508 44.7117 151.709 46.7851 153.682C44.8754 151.184 42.0935 149.498 38.9951 148.962C35.8968 148.425 32.7101 149.078 30.0719 150.789C27.4337 152.5 25.5381 155.143 24.764 158.191C23.9899 161.239 24.3942 164.466 25.8962 167.229L23.6367 174.496L26.6425 167.505Z" fill="#F15D22"/>
<path d="M25.8962 167.228C24.5365 164.714 24.0809 161.809 24.6055 158.999C25.13 156.189 26.6028 153.644 28.778 151.789C30.9532 149.934 33.6989 148.882 36.5566 148.808C39.4142 148.734 42.2107 149.643 44.4788 151.383C42.3158 149.111 39.3766 147.736 36.2461 147.532C33.1155 147.328 30.0229 148.311 27.5836 150.283C25.1443 152.256 23.537 155.075 23.0816 158.179C22.6261 161.283 23.3558 164.444 25.1255 167.035L23.6405 174.499L25.8962 167.228Z" fill="#E31B23"/>
<path fill-rule="evenodd" clip-rule="evenodd" d="M267.013 270C255.403 270 246 279.403 246 291.013C246 300.311 252.015 308.165 260.368 310.949C261.418 311.133 261.812 310.503 261.812 309.951C261.812 309.452 261.786 307.797 261.786 306.037C256.507 307.009 255.141 304.75 254.72 303.568C254.484 302.964 253.46 301.099 252.567 300.6C251.831 300.206 250.78 299.234 252.54 299.208C254.195 299.182 255.377 300.732 255.771 301.362C257.662 304.54 260.683 303.647 261.891 303.096C262.075 301.73 262.626 300.81 263.231 300.285C258.555 299.76 253.67 297.947 253.67 289.91C253.67 287.625 254.484 285.733 255.824 284.263C255.613 283.737 254.878 281.583 256.034 278.694C256.034 278.694 257.794 278.143 261.812 280.848C263.493 280.375 265.279 280.139 267.066 280.139C268.852 280.139 270.638 280.375 272.319 280.848C276.337 278.116 278.097 278.694 278.097 278.694C279.253 281.583 278.518 283.737 278.307 284.263C279.647 285.733 280.461 287.598 280.461 289.91C280.461 297.974 275.55 299.76 270.874 300.285C271.636 300.942 272.292 302.202 272.292 304.172C272.292 306.983 272.266 309.242 272.266 309.951C272.266 310.503 272.66 311.159 273.711 310.949C282.011 308.165 288.026 300.285 288.026 291.013C288.026 279.403 278.623 270 267.013 270Z" fill="#1B1F23"/>
<path d="M50.7 16H21.3C17.8206 16 15 18.8206 15 22.3V51.7C15 55.1794 17.8206 58 21.3 58H50.7C54.1794 58 57 55.1794 57 51.7V22.3C57 18.8206 54.1794 16 50.7 16Z" fill="#FF4F00"/>
<path d="M50.7008 43.2998H21.3008V51.6998H50.7008V43.2998Z" fill="#FFFDF9"/>
<defs>
<linearGradient id="paint0_linear_1333_18" x1="100.306" y1="113.55" x2="201.246" y2="214" gradientUnits="userSpaceOnUse">
<stop offset="0.09375" stop-color="#FA00E9"/>
<stop offset="1" stop-color="#3860FF"/>
</linearGradient>
<linearGradient id="paint1_linear_1333_18" x1="113.026" y1="126.15" x2="189.246" y2="202" gradientUnits="userSpaceOnUse">
<stop offset="0.09375" stop-color="#FA00E9"/>
<stop offset="1" stop-color="#3860FF"/>
</linearGradient>
</defs>
</svg>
