<svg width="109" height="32" viewBox="0 0 109 32" fill="none" xmlns="http://www.w3.org/2000/svg">
<g clip-path="url(#clip0_1236_33)">
<path d="M17.6711 9.07209H14.3951L9.66406 21.3521H12.6301L13.3981 19.2621H17.8731L17.0641 16.9721H14.1121L16.0261 11.6871L19.4361 21.3521H22.4021L17.6711 9.07209V9.07209ZM67.4511 21.3521V9.07209H70.0791V19.0471H75.2691V21.3521H67.4491H67.4511ZM82.6141 21.3521V9.07209H85.2561V19.0471H90.4461V21.3521H82.6141ZM52.8661 11.2711C53.3848 11.2707 53.8985 11.3726 54.3777 11.5709C54.857 11.7692 55.2925 12.0601 55.6593 12.4268C56.0261 12.7936 56.317 13.2291 56.5153 13.7084C56.7136 14.1877 56.8155 14.7014 56.8151 15.2201C56.8156 15.739 56.7138 16.2528 56.5155 16.7323C56.3171 17.2118 56.0262 17.6474 55.6593 18.0143C55.2924 18.3812 54.8568 18.6722 54.3773 18.8705C53.8978 19.0688 53.3839 19.1706 52.8651 19.1701C52.3463 19.1705 51.8325 19.0686 51.3531 18.8702C50.8738 18.6718 50.4383 18.3809 50.0715 18.014C49.7047 17.6471 49.4138 17.2115 49.2156 16.7321C49.0173 16.2527 48.9155 15.7389 48.9161 15.2201C48.9161 13.0361 50.6961 11.2701 52.8661 11.2701V11.2711ZM52.8661 8.87109C51.1822 8.87136 49.5673 9.54032 48.3766 10.7309C47.1858 11.9215 46.5166 13.5362 46.5161 15.2201C46.5166 16.904 47.1858 18.5187 48.3766 19.7093C49.5673 20.8999 51.1822 21.5688 52.8661 21.5691C54.5496 21.5683 56.1639 20.8991 57.3543 19.7086C58.5446 18.5181 59.2135 16.9036 59.2141 15.2201C59.2135 13.5364 58.5445 11.9218 57.3539 10.7313C56.1633 9.5407 54.5488 8.87162 52.8651 8.87109H52.8661ZM102.55 11.2711C103.069 11.2707 103.583 11.3726 104.062 11.5709C104.541 11.7692 104.977 12.06 105.344 12.4268C105.711 12.7936 106.001 13.229 106.2 13.7083C106.398 14.1876 106.5 14.7013 106.5 15.2201C106.5 15.7389 106.399 16.2527 106.2 16.7322C106.002 17.2116 105.711 17.6472 105.344 18.014C104.977 18.3809 104.542 18.6719 104.062 18.8702C103.583 19.0686 103.069 19.1705 102.55 19.1701C102.031 19.1705 101.518 19.0686 101.038 18.8702C100.559 18.6718 100.123 18.3809 99.7565 18.014C99.3897 17.6471 99.0988 17.2115 98.9006 16.7321C98.7023 16.2527 98.6005 15.7389 98.6011 15.2201C98.6005 14.7013 98.7023 14.1875 98.9006 13.7081C99.0988 13.2287 99.3897 12.7931 99.7565 12.4262C100.123 12.0593 100.559 11.7684 101.038 11.57C101.518 11.3716 102.031 11.2697 102.55 11.2701V11.2711ZM102.55 8.87109C100.866 8.87162 99.252 9.54074 98.0616 10.7313C96.8712 11.9219 96.2023 13.5365 96.2021 15.2201C96.2023 16.9037 96.8712 18.5183 98.0616 19.7089C99.252 20.8995 100.866 21.5686 102.55 21.5691C104.234 21.5686 105.848 20.8995 107.039 19.7089C108.229 18.5184 108.899 16.9038 108.899 15.2201C108.899 13.5363 108.23 11.9216 107.039 10.731C105.849 9.54035 104.234 8.87136 102.55 8.87109V8.87109ZM35.7871 9.07309H30.0591V21.3531H32.6741V17.1211H35.7881C37.9721 17.1211 39.7381 15.2741 39.7381 13.0911C39.7381 10.9201 37.9721 9.07309 35.7881 9.07309H35.7871ZM35.7871 14.7211H32.6731V11.4731H35.7871C36.6371 11.4731 37.3371 12.2411 37.3371 13.0901C37.3371 13.9401 36.6371 14.7211 35.7871 14.7211Z" fill="white"/>
<path d="M27.808 25.072C27.6998 25.0706 27.5928 25.0957 27.4964 25.145C27.4001 25.1943 27.3172 25.2664 27.255 25.355C27.255 25.355 26.662 26.029 26.352 26.352C25.0183 27.6879 23.4394 28.754 21.702 29.492C19.8987 30.257 17.9588 30.6476 16 30.64C14.042 30.6416 12.1034 30.252 10.298 29.494C8.55876 28.7593 6.97933 27.6928 5.648 26.354C4.31207 25.02 3.24594 23.4408 2.508 21.703C1.74294 19.8994 1.35237 17.9592 1.36 16C1.36 14.018 1.751 12.104 2.506 10.298C3.23105 8.55673 4.29383 6.97632 5.633 5.64802C6.96676 4.31219 8.54558 3.24607 10.283 2.50802C12.0864 1.74341 14.0263 1.35318 15.985 1.36102C17.943 1.35945 19.8816 1.74908 21.687 2.50702C22.9477 3.04102 24.1275 3.74889 25.192 4.61002C25.1323 4.78392 25.1006 4.96618 25.098 5.15002C25.0982 5.47765 25.1955 5.79788 25.3777 6.07022C25.5598 6.34256 25.8186 6.55478 26.1214 6.68008C26.4241 6.80537 26.7572 6.8381 27.0785 6.77413C27.3998 6.71016 27.695 6.55237 27.9267 6.32069C28.1584 6.08902 28.3161 5.79386 28.3801 5.47253C28.4441 5.15119 28.4114 4.81811 28.2861 4.51537C28.1608 4.21264 27.9485 3.95384 27.6762 3.77169C27.4039 3.58954 27.0836 3.49221 26.756 3.49202C26.526 3.49202 26.311 3.53202 26.122 3.62602C23.267 1.27682 19.6833 -0.00521369 15.986 1.59362e-05C7.159 1.59362e-05 0 7.15802 0 16C0 24.843 7.158 32 16 32C20.947 32 25.355 29.762 28.293 26.23C28.4184 26.1053 28.4908 25.9369 28.495 25.76C28.482 25.382 28.172 25.072 27.808 25.072V25.072Z" fill="white"/>
</g>
<defs>
<clipPath id="clip0_1236_33">
<rect width="109" height="32" fill="white"/>
</clipPath>
</defs>
</svg>
