<svg width="3238" height="1268" viewBox="0 0 3238 1268" fill="none" xmlns="http://www.w3.org/2000/svg">
<rect width="3238" height="1268" fill="#604FAF"/>
<path d="M355.286 270.889C407.017 308.619 435.244 286.088 481.553 314.228C527.583 342.082 566.694 436.409 601.985 454.421C636.908 472.126 637.55 460.838 688.904 485.256C738.67 508.081 752.294 549.554 821.611 579.298C826.26 581.11 828.675 582.068 828.624 582.191C826.224 581.24 823.888 580.275 821.611 579.298C784.882 564.982 608.246 497.179 398.486 363.954C433.905 410.153 478.911 470.737 564.72 524.948C551.332 517.272 478.861 481.319 375.269 415.156C271.71 349.165 137.029 252.964 0 128.775C16.6614 203.183 25.9217 315.805 73.7044 340.939C144.899 377.168 188.651 335.632 247.798 376.442C306.944 417.252 319.791 541.463 373.803 576.625C427.816 611.788 468.177 576.973 525.703 608.306C583.453 638.437 608.528 745.758 663.528 779.337C718.528 812.916 749.816 798.935 791.918 802.379C834.785 805.79 865.124 833.064 907.624 868.698C950.067 904.033 1004.67 947.728 1094.75 977.076C1078.68 972.464 986.903 953.437 855.749 907.872C724.656 862.654 554.187 790.898 382.16 688.847C419.361 741.103 454.954 794.484 487.066 811.176C544.494 840.344 545.039 823.602 629.618 862.596C672.015 881.631 712.059 940.836 850.703 1004.52C858.966 1007.27 863.278 1008.7 863.222 1008.94C858.931 1007.5 854.763 1006.02 850.703 1004.52C810.009 990.969 673.34 945.262 488.855 850.94C391.975 800.98 282.15 737.001 167.177 657.123C183.333 684.981 197.109 713.105 210.107 740.461C245.218 814.228 274.647 882.347 327.473 914.894C433.626 978.917 479.653 953.423 574.268 998.042C628.484 1023.14 695.726 1146.84 793.35 1180.46C890.964 1214.07 996.99 1145.35 1090.76 1162.5C1184.94 1178.6 1221.87 1251.33 1337.37 1266.48C1453.3 1279.33 1509.63 1206.46 1637.88 1208.11C1765.96 1207.37 1827.73 1270.55 1931.96 1262.47C2035.75 1252.88 2067.64 1198.89 2187.36 1184.03C2307.07 1169.16 2393.58 1219.69 2514.51 1177.39C2634.99 1133.79 2636.34 1060.53 2726.07 1018.52C2816.61 974.117 2893.26 1001.64 3010.25 922.404C3103.56 857.337 3124.65 738.768 3176.3 671.616C2902.5 871.011 2659.78 970.037 2632.66 982.369C2762.13 914.886 2811.96 861.741 2846.75 825.639C2581.32 971.169 2356.34 1032.63 2330.09 1041.02C2440.76 998.811 2495.27 959.387 2531.56 929.577C2567.78 899.288 2585.77 878.613 2621.72 862.859C2672.62 840.319 2702.53 853.219 2768.53 812.589C2818.56 781.262 2834.78 739.62 2862.95 706.583C2665.3 821.237 2455.21 901.882 2290.23 948.646C2125.19 996.407 2005.28 1010.29 1986.58 1014.43C2096.87 988.586 2152.51 957.549 2189.8 933.345C2227.06 908.674 2245.98 890.837 2281.88 880.616C2332.72 865.926 2360.69 883.23 2427.43 853.041C2494.04 822.025 2505.19 765.437 2558.95 739.127C2612.59 711.978 2632.58 736.87 2698.58 704.849C2764.53 671.483 2767.77 591.913 2862.09 542.95C2956.06 492.155 2998.6 556.146 3056.41 520.074C3101.75 491.152 3112.66 369.681 3135.87 301.355C2946.75 450.777 2753.47 558.653 2603.36 627.437C2453.17 696.782 2346.15 727.035 2327.61 734.157C2451.27 683.19 2511.21 635.016 2550.85 598.743C2590.39 561.821 2609.62 536.799 2649.39 517.148C2705.62 489.037 2740.24 503.72 2812.6 452.973C2884.68 401.075 2888.78 331.273 2946.33 287.422C3003.59 242.402 3030.65 267.036 3101.47 212.356C3136.71 184.685 3151.88 146.063 3170.65 105.02C3186.16 70.9763 3204.11 35.2828 3238 0H3213.56C3140.82 65.5937 3069.82 122.922 3004.3 171.43C2825.77 303.531 2689.04 371.052 2668.69 382.536C2780.79 311.636 2832.66 254.218 2866.44 211.906C2900.06 168.977 2915.59 141.153 2951.45 115.213C3002.11 78.2142 3037 86.8869 3100.73 24.905C3109.02 16.7352 3116.15 8.4088 3122.4 0H3080.58C3042.84 31.1976 3017.86 50.1185 3010.25 56.1403C3032.38 36.3309 3051.78 17.6323 3068.9 0H3012.68C2924.63 69.324 2862.65 109.224 2850.93 117.497C2899.06 79.5422 2929.04 39.099 2948.47 0H2819.05C2608.03 142.398 2446.78 203.584 2422.28 215.197C2567.21 138.121 2633.92 67.6298 2677.15 15.3761C2681.43 10.074 2685.47 4.95503 2689.33 0H447.501C474.825 22.6039 493.413 48.1769 515.33 75.4959C539.825 105.854 568.486 138.393 618.042 167.531C624.41 171.008 627.71 172.807 627.584 172.955C624.318 171.161 621.141 169.352 618.042 167.531C587.658 150.938 487.422 96.1241 356.28 0H264.613C267.136 1.70469 269.72 3.59796 272.372 5.70497C336.411 55.162 303.119 231.996 355.286 270.889Z" fill="#1B1242"/>
<path d="M200.56 1268C196.588 767.408 518.844 317.042 996.518 160.651L996.62 160.267L996.311 160.019C506.978 315.886 169.333 762.105 145.024 1268" fill="url(#paint0_linear_2_643)"/>
<path d="M1002.01 161.07L1017.61 153.55L1000.53 156.491L989.318 154.395L996.62 160.267L994.178 169.429L1002.01 161.07Z" fill="white"/>
<path d="M1000.53 156.491L989.318 154.395L996.62 160.267L1017.61 153.55L1000.53 156.491Z" fill="#0FC9F2"/>
<path d="M998.468 158.481L996.62 160.267L989.318 154.395L998.468 158.481Z" fill="#F703E6"/>
<path d="M998.973 160.618L996.62 160.267L994.178 169.429L998.973 160.618Z" fill="#F703E6"/>
<path d="M2184.65 142.744C2188.05 142.744 2188.06 137.461 2184.65 137.461C2181.26 137.461 2181.25 142.744 2184.65 142.744Z" fill="#F703E6"/>
<path d="M2227.18 222.577C2230.32 222.577 2230.33 217.7 2227.18 217.7C2224.05 217.7 2224.04 222.577 2227.18 222.577Z" fill="#0FC9F2"/>
<path d="M2056.39 237.903C2057.61 237.903 2057.61 236.006 2056.39 236.006C2055.16 236.006 2055.16 237.903 2056.39 237.903Z" fill="#F703E6"/>
<path d="M2090.96 206.697C2092.79 206.697 2092.79 203.852 2090.96 203.852C2089.13 203.852 2089.12 206.697 2090.96 206.697Z" fill="#0FC9F2"/>
<path d="M2055.29 186.06C2057.12 186.06 2057.12 183.215 2055.29 183.215C2053.46 183.215 2053.45 186.06 2055.29 186.06Z" fill="#F703E6"/>
<path d="M2144.95 122.134C2147.31 122.134 2147.31 118.476 2144.95 118.476C2142.6 118.476 2142.6 122.134 2144.95 122.134Z" fill="#0FC9F2"/>
<path d="M2318.74 117.537C2321.35 117.537 2321.36 113.473 2318.74 113.473C2316.12 113.473 2316.12 117.537 2318.74 117.537Z" fill="#F703E6"/>
<path d="M2522.4 48.4045C2525.02 48.4045 2525.02 44.3406 2522.4 44.3406C2519.79 44.3406 2519.78 48.4045 2522.4 48.4045Z" fill="#0FC9F2"/>
<path d="M1266.8 132.485C1269.41 132.485 1269.41 128.421 1266.8 128.421C1264.18 128.421 1264.18 132.485 1266.8 132.485Z" fill="#F703E6"/>
<path d="M1235.03 64.8142C1237.12 64.8142 1237.13 61.563 1235.03 61.563C1232.94 61.563 1232.94 64.8142 1235.03 64.8142Z" fill="#0FC9F2"/>
<path d="M717.467 25.5767C719.559 25.5767 719.563 22.3256 717.467 22.3256C715.376 22.3256 715.372 25.5767 717.467 25.5767Z" fill="#0FC9F2"/>
<path d="M1119.19 55.4719C1121.28 55.4719 1121.28 52.2208 1119.19 52.2208C1117.09 52.2208 1117.09 55.4719 1119.19 55.4719Z" fill="#F703E6"/>
<path d="M1422.27 109.442C1424.36 109.442 1424.37 106.191 1422.27 106.191C1420.18 106.191 1420.17 109.442 1422.27 109.442Z" fill="#F703E6"/>
<path d="M1324.72 152.225C1326.29 152.225 1326.29 149.787 1324.72 149.787C1323.15 149.787 1323.15 152.225 1324.72 152.225Z" fill="#0FC9F2"/>
<path d="M1145.35 244.835C1145.87 244.835 1145.87 244.022 1145.35 244.022C1144.82 244.022 1144.82 244.835 1145.35 244.835Z" fill="#F703E6"/>
<path d="M1165.9 243.373C1166.94 243.373 1166.95 241.747 1165.9 241.747C1164.85 241.747 1164.85 243.373 1165.9 243.373Z" fill="#F703E6"/>
<path d="M1156.62 291.952C1157.67 291.952 1157.67 290.327 1156.62 290.327C1155.58 290.327 1155.58 291.952 1156.62 291.952Z" fill="#F703E6"/>
<path d="M883.76 251.361C884.806 251.361 884.808 249.736 883.76 249.736C882.715 249.736 882.713 251.361 883.76 251.361Z" fill="#F703E6"/>
<path d="M1223.82 215.346C1224.87 215.346 1224.87 213.72 1223.82 213.72C1222.77 213.72 1222.77 215.346 1223.82 215.346Z" fill="#0FC9F2"/>
<path d="M1248.11 241.91C1249.68 241.91 1249.68 239.472 1248.11 239.472C1246.54 239.472 1246.54 241.91 1248.11 241.91Z" fill="#F703E6"/>
<path d="M1976.81 238.783C1979.16 238.783 1979.17 235.126 1976.81 235.126C1974.46 235.126 1974.45 238.783 1976.81 238.783Z" fill="#F703E6"/>
<path d="M1948.78 232.771C1950.61 232.771 1950.62 229.927 1948.78 229.927C1946.95 229.927 1946.95 232.771 1948.78 232.771Z" fill="#F703E6"/>
<path d="M1980.55 217.214C1981.59 217.214 1981.59 215.589 1980.55 215.589C1979.5 215.589 1979.5 217.214 1980.55 217.214Z" fill="#0FC9F2"/>
<path d="M1890.86 282.61C1891.91 282.61 1891.91 280.984 1890.86 280.984C1889.82 280.984 1889.81 282.61 1890.86 282.61Z" fill="#0FC9F2"/>
<path d="M2402.82 39.7115C2403.87 39.7115 2403.87 38.086 2402.82 38.086C2401.77 38.086 2401.77 39.7115 2402.82 39.7115Z" fill="#0FC9F2"/>
<path d="M2621.43 251.361C2622.48 251.361 2622.48 249.736 2621.43 249.736C2620.38 249.736 2620.38 251.361 2621.43 251.361Z" fill="#F703E6"/>
<path d="M2716.72 202.267C2717.77 202.267 2717.77 200.641 2716.72 200.641C2715.67 200.641 2715.67 202.267 2716.72 202.267Z" fill="#0FC9F2"/>
<path d="M2645.72 191.666C2647.55 191.666 2647.55 188.821 2645.72 188.821C2643.89 188.821 2643.89 191.666 2645.72 191.666Z" fill="#F703E6"/>
<path d="M2755.96 186.467C2758.31 186.467 2758.32 182.809 2755.96 182.809C2753.61 182.809 2753.6 186.467 2755.96 186.467Z" fill="#0FC9F2"/>
<path d="M2481.29 401.541C2483.91 401.541 2483.91 397.478 2481.29 397.478C2478.68 397.478 2478.68 401.541 2481.29 401.541Z" fill="#F703E6"/>
<path d="M2342.59 598.425C2345.73 598.425 2345.74 593.549 2342.59 593.549C2339.45 593.549 2339.45 598.425 2342.59 598.425Z" fill="#0FC9F2"/>
<path d="M760.442 127.692C764.103 127.692 764.109 122.003 760.442 122.003C756.781 122.003 756.775 127.692 760.442 127.692Z" fill="#F703E6"/>
<path d="M773.521 162.38C776.136 162.38 776.141 158.316 773.521 158.316C770.906 158.316 770.902 162.38 773.521 162.38Z" fill="#F703E6"/>
<path d="M536.227 283.22C538.057 283.22 538.06 280.375 536.227 280.375C534.396 280.375 534.393 283.22 536.227 283.22Z" fill="#F703E6"/>
<path d="M532.49 214.087C534.32 214.087 534.323 211.242 532.49 211.242C530.659 211.242 530.656 214.087 532.49 214.087Z" fill="#0FC9F2"/>
<path d="M717.467 221.561C719.298 221.561 719.301 218.716 717.467 218.716C715.637 218.716 715.634 221.561 717.467 221.561Z" fill="#0FC9F2"/>
<path d="M502.594 221.154C503.902 221.154 503.904 219.122 502.594 219.122C501.287 219.122 501.285 221.154 502.594 221.154Z" fill="#0FC9F2"/>
<path d="M837.049 90.3629C838.356 90.3629 838.359 88.3309 837.049 88.3309C835.742 88.3309 835.739 90.3629 837.049 90.3629Z" fill="#F703E6"/>
<path d="M812.759 75.4153C814.066 75.4153 814.069 73.3834 812.759 73.3834C811.451 73.3834 811.449 75.4153 812.759 75.4153Z" fill="#F703E6"/>
<path d="M805.285 106.773C806.07 106.773 806.071 105.553 805.285 105.553C804.501 105.553 804.499 106.773 805.285 106.773Z" fill="#0FC9F2"/>
<path d="M758.574 467.383C759.358 467.383 759.359 466.164 758.574 466.164C757.789 466.164 757.788 467.383 758.574 467.383Z" fill="#F703E6"/>
<path d="M932.34 445.918C933.125 445.918 933.126 444.699 932.34 444.699C931.556 444.699 931.555 445.918 932.34 445.918Z" fill="#0FC9F2"/>
<path d="M857.602 334.723C858.387 334.723 858.388 333.504 857.602 333.504C856.818 333.504 856.816 334.723 857.602 334.723Z" fill="#F703E6"/>
<path d="M706.257 392.442C706.78 392.442 706.781 391.629 706.257 391.629C705.734 391.629 705.733 392.442 706.257 392.442Z" fill="#F703E6"/>
<path d="M738.02 398.657C739.328 398.657 739.33 396.625 738.02 396.625C736.713 396.625 736.711 398.657 738.02 398.657Z" fill="#F703E6"/>
<path d="M758.574 361.898C760.666 361.898 760.669 358.646 758.574 358.646C756.482 358.646 756.478 361.898 758.574 361.898Z" fill="#0FC9F2"/>
<path d="M2499.98 365.635C2502.07 365.635 2502.07 362.383 2499.98 362.383C2497.89 362.383 2497.88 365.635 2499.98 365.635Z" fill="#0FC9F2"/>
<path d="M2475.69 356.292C2477.78 356.292 2477.78 353.041 2475.69 353.041C2473.6 353.041 2473.59 356.292 2475.69 356.292Z" fill="#0FC9F2"/>
<path d="M2509.32 312.912C2510.89 312.912 2510.89 310.473 2509.32 310.473C2507.75 310.473 2507.75 312.912 2509.32 312.912Z" fill="#F703E6"/>
<path d="M2561.64 452.436C2562.42 452.436 2562.42 451.217 2561.64 451.217C2560.85 451.217 2560.85 452.436 2561.64 452.436Z" fill="#0FC9F2"/>
<path d="M2395.35 543.99C2396.13 543.99 2396.13 542.771 2395.35 542.771C2394.56 542.771 2394.56 543.99 2395.35 543.99Z" fill="#F703E6"/>
<path d="M2329.95 652.36C2330.73 652.36 2330.74 651.141 2329.95 651.141C2329.16 651.141 2329.16 652.36 2329.95 652.36Z" fill="#F703E6"/>
<path d="M2376.66 482.331C2377.45 482.331 2377.45 481.112 2376.66 481.112C2375.88 481.112 2375.87 482.331 2376.66 482.331Z" fill="#F703E6"/>
<path d="M2412.16 487.53C2412.42 487.53 2412.42 487.124 2412.16 487.124C2411.9 487.124 2411.9 487.53 2412.16 487.53Z" fill="#F703E6"/>
<path d="M2414.03 459.91C2414.81 459.91 2414.82 458.69 2414.03 458.69C2413.25 458.69 2413.24 459.91 2414.03 459.91Z" fill="#F703E6"/>
<path d="M2583.95 233.982C2584.74 233.982 2584.74 232.763 2583.95 232.763C2583.17 232.763 2583.17 233.982 2583.95 233.982Z" fill="#F703E6"/>
<path d="M2285.11 280.538C2285.89 280.538 2285.89 279.319 2285.11 279.319C2284.32 279.319 2284.32 280.538 2285.11 280.538Z" fill="#F703E6"/>
<path d="M2344.9 207.243C2345.68 207.243 2345.68 206.024 2344.9 206.024C2344.11 206.024 2344.11 207.243 2344.9 207.243Z" fill="#0FC9F2"/>
<path d="M2406.56 263.519C2407.08 263.519 2407.08 262.706 2406.56 262.706C2406.03 262.706 2406.03 263.519 2406.56 263.519Z" fill="#F703E6"/>
<path d="M2386 307.306C2387.57 307.306 2387.57 304.868 2386 304.868C2384.43 304.868 2384.43 307.306 2386 307.306Z" fill="#F703E6"/>
<path d="M2313.13 453.045C2314.7 453.045 2314.7 450.607 2313.13 450.607C2311.56 450.607 2311.56 453.045 2313.13 453.045Z" fill="#F703E6"/>
<path d="M894.971 469.209C896.54 469.209 896.543 466.77 894.971 466.77C893.402 466.77 893.4 469.209 894.971 469.209Z" fill="#0FC9F2"/>
<path d="M932.341 302.107C934.432 302.107 934.436 298.856 932.341 298.856C930.249 298.856 930.245 302.107 932.341 302.107Z" fill="#0FC9F2"/>
<path d="M773.521 643.1C775.875 643.1 775.879 639.443 773.521 639.443C771.168 639.443 771.164 643.1 773.521 643.1Z" fill="#0FC9F2"/>
<path d="M867.035 682.902C869.388 682.902 869.392 679.245 867.035 679.245C864.681 679.245 864.678 682.902 867.035 682.902Z" fill="#F703E6"/>
<path d="M1037.88 259.724C1040.23 259.724 1040.24 256.067 1037.88 256.067C1035.53 256.067 1035.52 259.724 1037.88 259.724Z" fill="#F703E6"/>
<path d="M1951.43 149.098C1953.78 149.098 1953.78 145.44 1951.43 145.44C1949.07 145.44 1949.07 149.098 1951.43 149.098Z" fill="#0FC9F2"/>
<path d="M2090.96 63.1489C2093.31 63.1489 2093.31 59.4914 2090.96 59.4914C2088.6 59.4914 2088.6 63.1489 2090.96 63.1489Z" fill="#F703E6"/>
<path d="M2006.58 122.134C2008.94 122.134 2008.94 118.476 2006.58 118.476C2004.23 118.476 2004.23 122.134 2006.58 122.134Z" fill="#F703E6"/>
<path d="M2034.73 81.0206C2036.04 81.0206 2036.04 78.9887 2034.73 78.9887C2033.42 78.9887 2033.42 81.0206 2034.73 81.0206Z" fill="#F703E6"/>
<path d="M1967.47 106.773C1968.25 106.773 1968.25 105.553 1967.47 105.553C1966.68 105.553 1966.68 106.773 1967.47 106.773Z" fill="#0FC9F2"/>
<path d="M392.355 125.254C392.878 125.254 392.879 124.441 392.355 124.441C391.832 124.441 391.831 125.254 392.355 125.254Z" fill="#F703E6"/>
<path d="M631.518 116.318C632.564 116.318 632.566 114.692 631.518 114.692C630.472 114.692 630.471 116.318 631.518 116.318Z" fill="#F703E6"/>
<path d="M2729.8 426.887C2731.37 426.887 2731.37 424.449 2729.8 424.449C2728.23 424.449 2728.23 426.887 2729.8 426.887Z" fill="#F703E6"/>
<path d="M2179.39 802.075C2180.96 802.075 2180.96 799.636 2179.39 799.636C2177.82 799.636 2177.82 802.075 2179.39 802.075Z" fill="#F703E6"/>
<path d="M898.799 733.941C900.368 733.941 900.37 731.503 898.799 731.503C897.23 731.503 897.227 733.941 898.799 733.941Z" fill="#0FC9F2"/>
<path d="M2361.71 818.481C2364.07 818.481 2364.07 814.823 2361.71 814.823C2359.36 814.823 2359.36 818.481 2361.71 818.481Z" fill="#0FC9F2"/>
<path d="M2227.18 1066.51C2229.54 1066.51 2229.54 1062.85 2227.18 1062.85C2224.83 1062.85 2224.83 1066.51 2227.18 1066.51Z" fill="#0FC9F2"/>
<path d="M2406.56 767.351C2408.65 767.351 2408.65 764.1 2406.56 764.1C2404.46 764.1 2404.46 767.351 2406.56 767.351Z" fill="#F703E6"/>
<path d="M2428.98 783.355C2430.02 783.355 2430.03 781.729 2428.98 781.729C2427.93 781.729 2427.93 783.355 2428.98 783.355Z" fill="#F703E6"/>
<path d="M2688.69 652.563C2689.74 652.563 2689.74 650.938 2688.69 650.938C2687.65 650.938 2687.65 652.563 2688.69 652.563Z" fill="#F703E6"/>
<path d="M879.723 1089.29C882.857 1089.29 882.862 1084.42 879.723 1084.42C876.588 1084.42 876.583 1089.29 879.723 1089.29Z" fill="#F703E6"/>
<path d="M3051.18 443.297C3052.22 443.297 3052.22 441.671 3051.18 441.671C3050.13 441.671 3050.13 443.297 3051.18 443.297Z" fill="#F703E6"/>
<path d="M3015.67 461.981C3016.72 461.981 3016.72 460.356 3015.67 460.356C3014.63 460.356 3014.63 461.981 3015.67 461.981Z" fill="#0FC9F2"/>
<path d="M2574.72 465.718C2575.76 465.718 2575.77 464.093 2574.72 464.093C2573.67 464.093 2573.67 465.718 2574.72 465.718Z" fill="#0FC9F2"/>
<path d="M2772.77 389.112C2773.82 389.112 2773.82 387.486 2772.77 387.486C2771.73 387.486 2771.73 389.112 2772.77 389.112Z" fill="#F703E6"/>
<path d="M2752.22 385.375C2753.27 385.375 2753.27 383.749 2752.22 383.749C2751.18 383.749 2751.17 385.375 2752.22 385.375Z" fill="#F703E6"/>
<path d="M2544.82 465.718C2545.87 465.718 2545.87 464.093 2544.82 464.093C2543.78 464.093 2543.77 465.718 2544.82 465.718Z" fill="#F703E6"/>
<path d="M1120.66 191.282C1121.71 191.282 1121.71 189.656 1120.66 189.656C1119.61 189.656 1119.61 191.282 1120.66 191.282Z" fill="#0FC9F2"/>
<path d="M894.971 138.739C896.017 138.739 896.019 137.114 894.971 137.114C893.925 137.114 893.923 138.739 894.971 138.739Z" fill="#F703E6"/>
<path d="M631.518 243.373C632.564 243.373 632.566 241.747 631.518 241.747C630.472 241.747 630.471 243.373 631.518 243.373Z" fill="#F703E6"/>
<path d="M614.702 314.374C615.748 314.374 615.75 312.748 614.702 312.748C613.656 312.748 613.654 314.374 614.702 314.374Z" fill="#0FC9F2"/>
<path d="M569.859 45.3169C570.905 45.3169 570.907 43.6913 569.859 43.6913C568.813 43.6913 568.811 45.3169 569.859 45.3169Z" fill="#0FC9F2"/>
<path d="M364.328 52.7907C365.374 52.7907 365.376 51.1652 364.328 51.1652C363.282 51.1652 363.281 52.7907 364.328 52.7907Z" fill="#F703E6"/>
<path d="M371.802 71.4752C372.848 71.4752 372.85 69.8496 371.802 69.8496C370.756 69.8496 370.754 71.4752 371.802 71.4752Z" fill="#0FC9F2"/>
<path d="M386.75 123.792C387.796 123.792 387.798 122.166 386.75 122.166C385.704 122.166 385.702 123.792 386.75 123.792Z" fill="#F703E6"/>
<path d="M411.04 209.74C412.086 209.74 412.088 208.115 411.04 208.115C409.994 208.115 409.992 209.74 411.04 209.74Z" fill="#F703E6"/>
<path d="M106.481 275.136C107.527 275.136 107.528 273.511 106.481 273.511C105.435 273.511 105.433 275.136 106.481 275.136Z" fill="#F703E6"/>
<path d="M115.823 291.952C116.869 291.952 116.871 290.327 115.823 290.327C114.777 290.327 114.775 291.952 115.823 291.952Z" fill="#0FC9F2"/>
<path d="M938.036 709.245C939.082 709.245 939.084 707.619 938.036 707.619C936.99 707.619 936.989 709.245 938.036 709.245Z" fill="#F703E6"/>
<path d="M2470.08 574.088C2471.13 574.088 2471.13 572.463 2470.08 572.463C2469.04 572.463 2469.04 574.088 2470.08 574.088Z" fill="#F703E6"/>
<path d="M1319.11 295.892C1320.42 295.892 1320.42 293.86 1319.11 293.86C1317.8 293.86 1317.8 295.892 1319.11 295.892Z" fill="#F703E6"/>
<path d="M2384.13 148.691C2385.97 148.691 2385.97 145.846 2384.13 145.846C2382.3 145.846 2382.3 148.691 2384.13 148.691Z" fill="#F703E6"/>
<path d="M2387.87 124.808C2390.23 124.808 2390.23 121.15 2387.87 121.15C2385.52 121.15 2385.51 124.808 2387.87 124.808Z" fill="#F703E6"/>
<path d="M1558.97 57.0536C1561.58 57.0536 1561.59 52.9897 1558.97 52.9897C1556.35 52.9897 1556.35 57.0536 1558.97 57.0536Z" fill="#F703E6"/>
<path d="M1709.1 46.0461C1711.97 46.0461 1711.98 41.5759 1709.1 41.5759C1706.22 41.5759 1706.22 46.0461 1709.1 46.0461Z" fill="#0FC9F2"/>
<path d="M801.548 315.796C804.425 315.796 804.429 311.326 801.548 311.326C798.672 311.326 798.667 315.796 801.548 315.796Z" fill="#F703E6"/>
<path d="M478.304 194.347C481.181 194.347 481.186 189.876 478.304 189.876C475.428 189.876 475.423 194.347 478.304 194.347Z" fill="#F703E6"/>
<path d="M2815.75 386.797C2818.63 386.797 2818.63 382.327 2815.75 382.327C2812.87 382.327 2812.87 386.797 2815.75 386.797Z" fill="#F703E6"/>
<path d="M2944.67 893.147C2947.55 893.147 2947.55 888.677 2944.67 888.677C2941.8 888.677 2941.79 893.147 2944.67 893.147Z" fill="#F703E6"/>
<path d="M2836.3 63.5553C2839.18 63.5553 2839.18 59.085 2836.3 59.085C2833.43 59.085 2833.42 63.5553 2836.3 63.5553Z" fill="#F703E6"/>
<path d="M3051.18 188.741C3054.05 188.741 3054.06 184.271 3051.18 184.271C3048.3 184.271 3048.29 188.741 3051.18 188.741Z" fill="#0FC9F2"/>
<path d="M631.518 420.907C634.395 420.907 634.399 416.437 631.518 416.437C628.642 416.437 628.637 420.907 631.518 420.907Z" fill="#0FC9F2"/>
<path d="M375.539 489.562C378.415 489.562 378.42 485.092 375.539 485.092C372.663 485.092 372.658 489.562 375.539 489.562Z" fill="#0FC9F2"/>
<path d="M689.441 598.222C692.317 598.222 692.322 593.752 689.441 593.752C686.564 593.752 686.559 598.222 689.441 598.222Z" fill="#F703E6"/>
<path d="M2296.32 489.155C2298.67 489.155 2298.67 485.498 2296.32 485.498C2293.96 485.498 2293.96 489.155 2296.32 489.155Z" fill="#0FC9F2"/>
<path d="M2458.87 88.658C2462.8 88.658 2462.8 82.5621 2458.87 82.5621C2454.95 82.5621 2454.94 88.658 2458.87 88.658Z" fill="#0FC9F2"/>
<path d="M2610.22 337.162C2614.14 337.162 2614.15 331.066 2610.22 331.066C2606.3 331.066 2606.29 337.162 2610.22 337.162Z" fill="#F703E6"/>
<path d="M969.71 66.6429C974.155 66.6429 974.162 59.7343 969.71 59.7343C965.264 59.7343 965.257 66.6429 969.71 66.6429Z" fill="#F703E6"/>
<path d="M2227.18 62.906C2231.63 62.906 2231.64 55.9974 2227.18 55.9974C2222.74 55.9974 2222.73 62.906 2227.18 62.906Z" fill="#F703E6"/>
<path d="M2739.14 130.17C2743.59 130.17 2743.6 123.262 2739.14 123.262C2734.7 123.262 2734.69 130.17 2739.14 130.17Z" fill="#F703E6"/>
<path d="M2458.87 1101.76C2463.32 1101.76 2463.33 1094.86 2458.87 1094.86C2454.43 1094.86 2454.42 1101.76 2458.87 1101.76Z" fill="#F703E6"/>
<path d="M2470.08 501.992C2474.53 501.992 2474.54 495.083 2470.08 495.083C2465.64 495.083 2465.63 501.992 2470.08 501.992Z" fill="#F703E6"/>
<path d="M2144.95 283.383C2149.4 283.383 2149.41 276.474 2144.95 276.474C2140.51 276.474 2140.5 283.383 2144.95 283.383Z" fill="#F703E6"/>
<path d="M1319.11 36.7477C1323.56 36.7477 1323.56 29.8391 1319.11 29.8391C1314.67 29.8391 1314.66 36.7477 1319.11 36.7477Z" fill="#F703E6"/>
<path d="M89.6646 298.331C94.1099 298.331 94.1173 291.422 89.6646 291.422C85.2192 291.422 85.2118 298.331 89.6646 298.331Z" fill="#F703E6"/>
<path d="M898.708 550.571C903.154 550.571 903.161 543.663 898.708 543.663C894.263 543.663 894.255 550.571 898.708 550.571Z" fill="#F703E6"/>
<path d="M2312.02 278.738C2308.65 277.931 2307.2 276.898 2306.41 273.135C2305.68 269.634 2305.22 242.56 2305.22 242.56C2305.22 242.56 2304.77 269.634 2304.03 273.135C2303.24 276.898 2301.79 277.931 2298.43 278.738C2295.06 279.545 2267.85 279.929 2267.85 279.929C2267.85 279.929 2294.93 280.384 2298.43 281.119C2302.19 281.911 2303.23 283.357 2304.03 286.723C2304.84 290.088 2305.22 317.298 2305.22 317.298C2305.22 317.298 2305.61 290.088 2306.41 286.723C2307.22 283.357 2308.25 281.911 2312.02 281.119C2315.52 280.384 2342.59 279.929 2342.59 279.929C2342.59 279.929 2315.38 279.545 2312.02 278.738Z" fill="#0FC9F2"/>
<path d="M2398.4 372.337C2396.89 371.974 2396.24 371.509 2395.88 369.816C2395.55 368.24 2395.35 356.057 2395.35 356.057C2395.35 356.057 2395.14 368.24 2394.81 369.816C2394.45 371.509 2393.8 371.974 2392.29 372.337C2390.77 372.7 2378.53 372.873 2378.53 372.873C2378.53 372.873 2390.71 373.078 2392.29 373.409C2393.98 373.765 2394.45 374.416 2394.81 375.93C2395.17 377.445 2395.35 389.689 2395.35 389.689C2395.35 389.689 2395.52 377.445 2395.88 375.93C2396.24 374.416 2396.71 373.765 2398.4 373.409C2399.98 373.078 2412.16 372.873 2412.16 372.873C2412.16 372.873 2399.92 372.7 2398.4 372.337Z" fill="#F703E6"/>
<path d="M2253.38 753.075C2250.87 752.474 2249.79 751.704 2249.2 748.901C2248.66 746.293 2248.32 726.126 2248.32 726.126C2248.32 726.126 2247.98 746.293 2247.43 748.901C2246.84 751.704 2245.76 752.474 2243.26 753.075C2240.75 753.676 2220.48 753.962 2220.48 753.962C2220.48 753.962 2240.65 754.301 2243.26 754.849C2246.06 755.438 2246.83 756.516 2247.43 759.023C2248.03 761.53 2248.32 781.798 2248.32 781.798C2248.32 781.798 2248.6 761.53 2249.2 759.023C2249.81 756.516 2250.58 755.438 2253.38 754.849C2255.99 754.301 2276.15 753.962 2276.15 753.962C2276.15 753.962 2255.89 753.676 2253.38 753.075Z" fill="#F703E6"/>
<path d="M2709.8 262.36C2707.68 261.851 2706.76 261.197 2706.26 258.82C2705.8 256.608 2705.51 239.5 2705.51 239.5C2705.51 239.5 2705.22 256.608 2704.76 258.82C2704.26 261.197 2703.34 261.851 2701.22 262.36C2699.09 262.87 2681.9 263.113 2681.9 263.113C2681.9 263.113 2699 263.4 2701.22 263.865C2703.59 264.365 2704.25 265.279 2704.76 267.406C2705.27 269.533 2705.51 286.726 2705.51 286.726C2705.51 286.726 2705.75 269.533 2706.26 267.406C2706.77 265.279 2707.43 264.365 2709.8 263.865C2712.02 263.4 2729.12 263.113 2729.12 263.113C2729.12 263.113 2711.93 262.87 2709.8 262.36Z" fill="#F703E6"/>
<path d="M685.502 669.37C683.988 669.007 683.337 668.542 682.981 666.848C682.65 665.273 682.445 653.09 682.445 653.09C682.445 653.09 682.24 665.273 681.909 666.848C681.553 668.542 680.902 669.007 679.388 669.37C677.873 669.733 665.629 669.906 665.629 669.906C665.629 669.906 677.812 670.11 679.388 670.441C681.081 670.797 681.546 671.449 681.909 672.963C682.272 674.477 682.445 686.722 682.445 686.722C682.445 686.722 682.618 674.477 682.981 672.963C683.344 671.449 683.809 670.797 685.502 670.441C687.078 670.11 699.261 669.906 699.261 669.906C699.261 669.906 687.017 669.733 685.502 669.37Z" fill="#F703E6"/>
<path d="M898.029 380.289C896.514 379.926 895.863 379.461 895.507 377.768C895.176 376.192 894.971 364.009 894.971 364.009C894.971 364.009 894.767 376.192 894.436 377.768C894.079 379.461 893.428 379.926 891.914 380.289C890.399 380.652 878.155 380.825 878.155 380.825C878.155 380.825 890.339 381.03 891.914 381.361C893.607 381.717 894.072 382.368 894.435 383.882C894.799 385.397 894.971 397.641 894.971 397.641C894.971 397.641 895.144 385.397 895.507 383.882C895.87 382.368 896.335 381.717 898.029 381.361C899.604 381.03 911.787 380.825 911.787 380.825C911.787 380.825 899.543 380.652 898.029 380.289Z" fill="#0FC9F2"/>
<path d="M1740.93 111.025C1739.41 110.662 1738.76 110.196 1738.41 108.503C1738.07 106.928 1737.87 94.7444 1737.87 94.7444C1737.87 94.7444 1737.67 106.928 1737.33 108.503C1736.98 110.196 1736.33 110.662 1734.81 111.025C1733.3 111.388 1721.05 111.56 1721.05 111.56C1721.05 111.56 1733.24 111.765 1734.81 112.096C1736.51 112.452 1736.97 113.103 1737.33 114.618C1737.7 116.132 1737.87 128.376 1737.87 128.376C1737.87 128.376 1738.04 116.132 1738.41 114.618C1738.77 113.103 1739.23 112.452 1740.93 112.096C1742.5 111.765 1754.69 111.56 1754.69 111.56C1754.69 111.56 1742.44 111.388 1740.93 111.025Z" fill="#F703E6"/>
<path d="M844.949 417.288C841.036 416.35 839.353 415.148 838.433 410.772C837.578 406.702 837.049 375.222 837.049 375.222C837.049 375.222 836.52 406.702 835.665 410.772C834.745 415.148 833.062 416.35 829.149 417.288C825.236 418.226 793.599 418.672 793.599 418.672C793.599 418.672 825.079 419.201 829.149 420.057C833.525 420.977 834.726 422.659 835.664 426.572C836.603 430.485 837.049 462.122 837.049 462.122C837.049 462.122 837.495 430.485 838.433 426.572C839.372 422.659 840.573 420.977 844.949 420.057C849.019 419.201 880.499 418.672 880.499 418.672C880.499 418.672 848.862 418.226 844.949 417.288Z" fill="#F703E6"/>
<path d="M1013.36 790.016C1010.29 789.279 1008.97 788.336 1008.24 784.901C1007.57 781.706 1007.16 756.992 1007.16 756.992C1007.16 756.992 1006.74 781.706 1006.07 784.901C1005.35 788.336 1004.03 789.279 1000.96 790.016C997.883 790.752 973.047 791.103 973.047 791.103C973.047 791.103 997.76 791.518 1000.96 792.19C1004.39 792.912 1005.33 794.233 1006.07 797.305C1006.81 800.377 1007.16 825.213 1007.16 825.213C1007.16 825.213 1007.51 800.377 1008.24 797.305C1008.98 794.233 1009.92 792.912 1013.36 792.19C1016.55 791.518 1041.27 791.103 1041.27 791.103C1041.27 791.103 1016.43 790.752 1013.36 790.016Z" fill="#0FC9F2"/>
<path d="M686.182 73.7444C684.331 73.3007 683.535 72.7322 683.1 70.6625C682.695 68.7372 682.445 53.8464 682.445 53.8464C682.445 53.8464 682.195 68.7372 681.79 70.6625C681.355 72.7322 680.559 73.3007 678.708 73.7444C676.857 74.1882 661.892 74.3993 661.892 74.3993C661.892 74.3993 676.783 74.6495 678.708 75.0542C680.778 75.4893 681.346 76.2851 681.79 78.1361C682.234 79.9871 682.445 94.9523 682.445 94.9523C682.445 94.9523 682.656 79.9871 683.1 78.1361C683.544 76.2851 684.112 75.4893 686.182 75.0542C688.107 74.6495 702.998 74.3993 702.998 74.3993C702.998 74.3993 688.033 74.1882 686.182 73.7444Z" fill="#0FC9F2"/>
<path d="M1830.01 80.3313C1827.61 79.7562 1826.58 79.0195 1826.02 76.3371C1825.49 73.8419 1825.17 54.5435 1825.17 54.5435C1825.17 54.5435 1824.84 73.8419 1824.32 76.3371C1823.75 79.0195 1822.72 79.7562 1820.32 80.3313C1817.93 80.9064 1798.53 81.18 1798.53 81.18C1798.53 81.18 1817.83 81.5042 1820.32 82.0287C1823.01 82.5926 1823.74 83.624 1824.32 86.0229C1824.89 88.4218 1825.17 107.817 1825.17 107.817C1825.17 107.817 1825.44 88.4218 1826.02 86.0229C1826.59 83.624 1827.33 82.5926 1830.01 82.0287C1832.51 81.5042 1851.8 81.18 1851.8 81.18C1851.8 81.18 1832.41 80.9064 1830.01 80.3313Z" fill="#0FC9F2"/>
<path d="M1170.11 129.684C1163.23 133.666 1154.42 131.316 1150.44 124.436C1146.46 117.556 1148.81 108.75 1155.69 104.768C1159.99 102.279 1165.05 102.265 1169.2 104.285C1163.07 99.8394 1154.65 99.1268 1147.67 103.167C1138.2 108.644 1134.97 120.755 1140.45 130.218C1145.93 139.682 1158.04 142.914 1167.5 137.437C1174.48 133.397 1178.06 125.745 1177.26 118.209C1176.94 122.82 1174.41 127.195 1170.11 129.684Z" fill="#0FC9F2"/>
<defs>
<linearGradient id="paint0_linear_2_643" x1="145.024" y1="714.01" x2="1129.34" y2="714.01" gradientUnits="userSpaceOnUse">
<stop stop-color="#5D52A9" stop-opacity="0"/>
<stop offset="0.809205" stop-color="#F703E6"/>
</linearGradient>
</defs>
</svg>
