<svg width="16" height="14" viewBox="0 0 16 14" fill="none" xmlns="http://www.w3.org/2000/svg">
<path d="M9.77778 12.6C9.77778 12.9713 9.59048 13.3274 9.25708 13.5899C8.92368 13.8525 8.4715 14 8 14C7.5285 14 7.07632 13.8525 6.74292 13.5899C6.40952 13.3274 6.22222 12.9713 6.22222 12.6H9.77778ZM8 0C8.23575 0 8.46184 0.0737498 8.62854 0.205025C8.79524 0.336301 8.88889 0.514348 8.88889 0.7V1.456C11.4133 1.792 13.3333 3.521 13.3333 5.6V9.8L16 11.9H0L2.66667 9.8V5.6C2.66667 3.521 4.58667 1.792 7.11111 1.456V0.7C7.11111 0.514348 7.20476 0.336301 7.37146 0.205025C7.53816 0.0737498 7.76425 0 8 0V0Z" fill="#00D4FF"/>
</svg>
