<svg width="2273" height="1862" viewBox="0 0 2273 1862" fill="none" xmlns="http://www.w3.org/2000/svg">
<ellipse cx="1146.5" cy="1239.5" rx="783.5" ry="529.5" fill="url(#paint0_radial_1149_7764)"/>
<g filter="url(#filter0_f_1149_7764)">
<path d="M1369.95 841.122C1297.29 1066.76 1185.32 1132.15 1112.13 1203.83L2126.93 541.364C2126.93 541.364 2189.38 469.009 2167.32 438.786C2131.53 389.749 1897.87 209.691 1808.55 154.662C1726.15 103.901 1538.5 73.997 1457.19 134.55C1375.87 195.103 1371.22 304.884 1377.02 394.301C1382.25 474.728 1402.73 739.335 1369.95 841.122Z" fill="url(#paint1_linear_1149_7764)" fill-opacity="0.5"/>
</g>
<g filter="url(#filter1_f_1149_7764)">
<path d="M895.811 908.434C981.233 1117.64 1093.03 1183.22 1168.14 1252.42L150.027 594.507C150.027 594.507 85.1584 525.286 104.153 498.996C134.973 456.34 346.016 305.283 427.667 260.093C502.986 218.409 680.537 201.433 762.64 260.946C844.742 320.459 856.918 420.575 857.641 501.597C858.292 574.473 857.276 814.057 895.811 908.434Z" fill="url(#paint2_linear_1149_7764)" fill-opacity="0.5"/>
</g>
<path d="M1313.36 1076.84C1312.75 1079.64 1311.96 1080.85 1309.09 1081.51C1306.42 1082.12 1301 1082.5 1301 1082.5C1301 1082.5 1306.42 1082.88 1309.09 1083.49C1311.96 1084.15 1312.75 1085.36 1313.36 1088.16C1313.98 1090.97 1314.27 1097 1314.27 1097C1314.27 1097 1314.62 1091.08 1315.18 1088.16C1315.78 1085.03 1316.89 1084.16 1319.45 1083.49C1322.02 1082.82 1327.54 1082.5 1327.54 1082.5C1327.54 1082.5 1322.02 1082.18 1319.45 1081.51C1316.89 1080.84 1315.78 1079.97 1315.18 1076.84C1314.62 1073.92 1314.27 1068 1314.27 1068C1314.27 1068 1313.98 1074.03 1313.36 1076.84Z" fill="white"/>
<path d="M1326.53 1128.1C1326.1 1130.03 1325.56 1130.86 1323.58 1131.32C1321.74 1131.74 1318 1132 1318 1132C1318 1132 1321.74 1132.26 1323.58 1132.68C1325.56 1133.14 1326.1 1133.97 1326.53 1135.9C1326.95 1137.84 1327.15 1142 1327.15 1142C1327.15 1142 1327.39 1137.92 1327.78 1135.9C1328.19 1133.74 1328.96 1133.15 1330.73 1132.68C1332.5 1132.22 1336.3 1132 1336.3 1132C1336.3 1132 1332.5 1131.78 1330.73 1131.32C1328.96 1130.85 1328.19 1130.26 1327.78 1128.1C1327.39 1126.08 1327.15 1122 1327.15 1122C1327.15 1122 1326.95 1126.16 1326.53 1128.1Z" fill="white"/>
<path d="M1387.29 1082.5C1386.63 1085.51 1385.78 1086.81 1382.69 1087.52C1379.83 1088.18 1374 1088.58 1374 1088.58C1374 1088.58 1379.83 1088.99 1382.69 1089.65C1385.78 1090.36 1386.63 1091.65 1387.29 1094.67C1387.95 1097.68 1388.26 1104.17 1388.26 1104.17C1388.26 1104.17 1388.64 1097.8 1389.24 1094.67C1389.89 1091.3 1391.07 1090.37 1393.83 1089.65C1396.59 1088.93 1402.53 1088.58 1402.53 1088.58C1402.53 1088.58 1396.59 1088.24 1393.83 1087.52C1391.07 1086.8 1389.89 1085.87 1389.24 1082.5C1388.64 1079.36 1388.26 1073 1388.26 1073C1388.26 1073 1387.95 1079.49 1387.29 1082.5Z" fill="white"/>
<path d="M1385.4 1016.01C1384.63 1019.5 1383.65 1021 1380.07 1021.82C1376.75 1022.59 1370 1023.06 1370 1023.06C1370 1023.06 1376.75 1023.53 1380.07 1024.29C1383.65 1025.11 1384.63 1026.61 1385.4 1030.11C1386.16 1033.6 1386.53 1041.11 1386.53 1041.11C1386.53 1041.11 1386.96 1033.74 1387.66 1030.11C1388.41 1026.2 1389.78 1025.13 1392.98 1024.29C1396.17 1023.46 1403.05 1023.06 1403.05 1023.06C1403.05 1023.06 1396.17 1022.66 1392.98 1021.82C1389.78 1020.98 1388.41 1019.91 1387.66 1016.01C1386.96 1012.37 1386.53 1005 1386.53 1005C1386.53 1005 1386.16 1012.51 1385.4 1016.01Z" fill="white"/>
<path d="M1278.97 1130.27C1278.28 1134.28 1277.39 1136.01 1274.14 1136.95C1271.13 1137.83 1265 1138.38 1265 1138.38C1265 1138.38 1271.13 1138.92 1274.14 1139.8C1277.39 1140.74 1278.28 1142.47 1278.97 1146.48C1279.67 1150.5 1280 1159.14 1280 1159.14C1280 1159.14 1280.39 1150.66 1281.03 1146.48C1281.71 1141.99 1282.96 1140.76 1285.86 1139.8C1288.76 1138.83 1295 1138.38 1295 1138.38C1295 1138.38 1288.76 1137.92 1285.86 1136.95C1282.96 1135.99 1281.71 1134.76 1281.03 1130.27C1280.39 1126.09 1280 1117.62 1280 1117.62C1280 1117.62 1279.67 1126.26 1278.97 1130.27Z" fill="white"/>
<path d="M989.203 1105.45C989.849 1108.4 990.677 1109.67 993.691 1110.36C996.495 1111 1002.19 1111.4 1002.19 1111.4C1002.19 1111.4 996.495 1111.8 993.691 1112.44C990.677 1113.13 989.849 1114.4 989.203 1117.35C988.556 1120.29 988.249 1126.63 988.249 1126.63C988.249 1126.63 987.885 1120.41 987.295 1117.35C986.662 1114.05 985.503 1113.15 982.807 1112.44C980.111 1111.74 974.31 1111.4 974.31 1111.4C974.31 1111.4 980.111 1111.06 982.807 1110.36C985.503 1109.65 986.662 1108.75 987.295 1105.45C987.885 1102.39 988.249 1096.17 988.249 1096.17C988.249 1096.17 988.556 1102.51 989.203 1105.45Z" fill="white"/>
<path d="M975.377 1159.29C975.823 1161.32 976.394 1162.2 978.472 1162.67C980.406 1163.12 984.332 1163.39 984.332 1163.39C984.332 1163.39 980.406 1163.67 978.472 1164.11C976.394 1164.59 975.823 1165.46 975.377 1167.49C974.931 1169.52 974.719 1173.9 974.719 1173.9C974.719 1173.9 974.468 1169.61 974.062 1167.49C973.625 1165.22 972.825 1164.6 970.966 1164.11C969.107 1163.62 965.107 1163.39 965.107 1163.39C965.107 1163.39 969.107 1163.16 970.966 1162.67C972.825 1162.19 973.625 1161.56 974.062 1159.29C974.468 1157.18 974.719 1152.89 974.719 1152.89C974.719 1152.89 974.931 1157.26 975.377 1159.29Z" fill="white"/>
<path d="M911.56 1111.4C912.254 1114.57 913.144 1115.93 916.384 1116.67C919.397 1117.36 925.516 1117.79 925.516 1117.79C925.516 1117.79 919.397 1118.22 916.384 1118.91C913.144 1119.65 912.254 1121.02 911.56 1124.18C910.865 1127.35 910.535 1134.16 910.535 1134.16C910.535 1134.16 910.143 1127.47 909.51 1124.18C908.829 1120.64 907.583 1119.67 904.686 1118.91C901.789 1118.15 895.554 1117.79 895.554 1117.79C895.554 1117.79 901.789 1117.43 904.686 1116.67C907.583 1115.91 908.829 1114.94 909.51 1111.4C910.143 1108.11 910.535 1101.42 910.535 1101.42C910.535 1101.42 910.865 1108.23 911.56 1111.4Z" fill="white"/>
<path d="M913.545 1041.56C914.349 1045.23 915.38 1046.81 919.134 1047.67C922.626 1048.47 929.715 1048.97 929.715 1048.97C929.715 1048.97 922.626 1049.46 919.134 1050.26C915.38 1051.13 914.349 1052.7 913.545 1056.37C912.74 1060.04 912.357 1067.93 912.357 1067.93C912.357 1067.93 911.903 1060.19 911.169 1056.37C910.38 1052.27 908.937 1051.14 905.58 1050.26C902.223 1049.38 894.999 1048.97 894.999 1048.97C894.999 1048.97 902.223 1048.55 905.58 1047.67C908.937 1046.79 910.38 1045.66 911.169 1041.56C911.903 1037.75 912.357 1030 912.357 1030C912.357 1030 912.74 1037.89 913.545 1041.56Z" fill="white"/>
<path d="M1025.32 1161.57C1026.05 1165.79 1026.99 1167.6 1030.4 1168.6C1033.57 1169.52 1040 1170.09 1040 1170.09C1040 1170.09 1033.57 1170.66 1030.4 1171.58C1026.99 1172.57 1026.05 1174.38 1025.32 1178.6C1024.59 1182.82 1024.25 1191.89 1024.25 1191.89C1024.25 1191.89 1023.83 1182.99 1023.17 1178.6C1022.45 1173.89 1021.14 1172.59 1018.09 1171.58C1015.05 1170.57 1008.49 1170.09 1008.49 1170.09C1008.49 1170.09 1015.05 1169.61 1018.09 1168.6C1021.14 1167.59 1022.45 1166.29 1023.17 1161.57C1023.83 1157.19 1024.25 1148.28 1024.25 1148.28C1024.25 1148.28 1024.59 1157.36 1025.32 1161.57Z" fill="white"/>
<path d="M865.418 1016.61C865.929 1018.93 866.582 1019.93 868.964 1020.48C871.179 1020.99 875.676 1021.3 875.676 1021.3C875.676 1021.3 871.179 1021.62 868.964 1022.13C866.582 1022.67 865.929 1023.68 865.418 1026C864.907 1028.33 864.665 1033.34 864.665 1033.34C864.665 1033.34 864.377 1028.42 863.911 1026C863.411 1023.4 862.495 1022.69 860.366 1022.13C858.236 1021.57 853.653 1021.3 853.653 1021.3C853.653 1021.3 858.236 1021.04 860.366 1020.48C862.495 1019.92 863.411 1019.21 863.911 1016.61C864.377 1014.19 864.665 1009.27 864.665 1009.27C864.665 1009.27 864.907 1014.28 865.418 1016.61Z" fill="white"/>
<path d="M854.496 1059.14C854.848 1060.74 855.299 1061.43 856.941 1061.81C858.469 1062.16 861.57 1062.38 861.57 1062.38C861.57 1062.38 858.469 1062.59 856.941 1062.95C855.299 1063.32 854.848 1064.01 854.496 1065.62C854.144 1067.22 853.976 1070.67 853.976 1070.67C853.976 1070.67 853.778 1067.29 853.457 1065.62C853.112 1063.82 852.48 1063.33 851.012 1062.95C849.543 1062.56 846.382 1062.38 846.382 1062.38C846.382 1062.38 849.543 1062.19 851.012 1061.81C852.48 1061.43 853.112 1060.93 853.457 1059.14C853.778 1057.47 853.976 1054.08 853.976 1054.08C853.976 1054.08 854.144 1057.53 854.496 1059.14Z" fill="white"/>
<path d="M804.081 1021.3C804.629 1023.81 805.332 1024.88 807.891 1025.47C810.272 1026.01 815.105 1026.35 815.105 1026.35C815.105 1026.35 810.272 1026.69 807.891 1027.24C805.332 1027.83 804.629 1028.9 804.081 1031.4C803.532 1033.9 803.271 1039.28 803.271 1039.28C803.271 1039.28 802.962 1034 802.461 1031.4C801.923 1028.61 800.939 1027.84 798.65 1027.24C796.361 1026.64 791.436 1026.35 791.436 1026.35C791.436 1026.35 796.361 1026.07 798.65 1025.47C800.939 1024.87 801.923 1024.1 802.461 1021.3C802.962 1018.7 803.271 1013.42 803.271 1013.42C803.271 1013.42 803.532 1018.8 804.081 1021.3Z" fill="white"/>
<path d="M805.65 966.133C806.285 969.031 807.1 970.276 810.065 970.958C812.823 971.591 818.424 971.983 818.424 971.983C818.424 971.983 812.823 972.374 810.065 973.008C807.1 973.689 806.285 974.935 805.65 977.832C805.014 980.73 804.711 986.965 804.711 986.965C804.711 986.965 804.353 980.846 803.773 977.832C803.15 974.592 802.01 973.703 799.358 973.008C796.706 972.313 790.999 971.983 790.999 971.983C790.999 971.983 796.706 971.652 799.358 970.958C802.01 970.263 803.15 969.373 803.773 966.133C804.353 963.119 804.711 957 804.711 957C804.711 957 805.014 963.235 805.65 966.133Z" fill="white"/>
<path d="M893.952 1060.94C894.529 1064.27 895.269 1065.71 897.96 1066.49C900.464 1067.22 905.547 1067.67 905.547 1067.67C905.547 1067.67 900.464 1068.12 897.96 1068.85C895.269 1069.63 894.529 1071.06 893.952 1074.39C893.375 1077.72 893.101 1084.89 893.101 1084.89C893.101 1084.89 892.775 1077.86 892.249 1074.39C891.683 1070.67 890.648 1069.64 888.241 1068.85C885.834 1068.05 880.655 1067.67 880.655 1067.67C880.655 1067.67 885.834 1067.29 888.241 1066.49C890.648 1065.69 891.683 1064.67 892.249 1060.94C892.775 1057.48 893.101 1050.44 893.101 1050.44C893.101 1050.44 893.375 1057.61 893.952 1060.94Z" fill="white"/>
<path d="M1143.42 1126.61C1143.93 1128.93 1144.58 1129.93 1146.96 1130.48C1149.18 1130.99 1153.68 1131.3 1153.68 1131.3C1153.68 1131.3 1149.18 1131.62 1146.96 1132.13C1144.58 1132.67 1143.93 1133.68 1143.42 1136C1142.91 1138.33 1142.66 1143.34 1142.66 1143.34C1142.66 1143.34 1142.38 1138.42 1141.91 1136C1141.41 1133.4 1140.5 1132.69 1138.37 1132.13C1136.24 1131.57 1131.65 1131.3 1131.65 1131.3C1131.65 1131.3 1136.24 1131.04 1138.37 1130.48C1140.5 1129.92 1141.41 1129.21 1141.91 1126.61C1142.38 1124.19 1142.66 1119.27 1142.66 1119.27C1142.66 1119.27 1142.91 1124.28 1143.42 1126.61Z" fill="white"/>
<path d="M1132.5 1169.14C1132.85 1170.74 1133.3 1171.43 1134.94 1171.81C1136.47 1172.16 1139.57 1172.38 1139.57 1172.38C1139.57 1172.38 1136.47 1172.59 1134.94 1172.95C1133.3 1173.32 1132.85 1174.01 1132.5 1175.62C1132.14 1177.22 1131.98 1180.67 1131.98 1180.67C1131.98 1180.67 1131.78 1177.29 1131.46 1175.62C1131.11 1173.82 1130.48 1173.33 1129.01 1172.95C1127.54 1172.56 1124.38 1172.38 1124.38 1172.38C1124.38 1172.38 1127.54 1172.19 1129.01 1171.81C1130.48 1171.43 1131.11 1170.93 1131.46 1169.14C1131.78 1167.47 1131.98 1164.08 1131.98 1164.08C1131.98 1164.08 1132.14 1167.53 1132.5 1169.14Z" fill="white"/>
<path d="M1082.08 1131.3C1082.63 1133.81 1083.33 1134.88 1085.89 1135.47C1088.27 1136.01 1093.11 1136.35 1093.11 1136.35C1093.11 1136.35 1088.27 1136.69 1085.89 1137.24C1083.33 1137.83 1082.63 1138.9 1082.08 1141.4C1081.53 1143.9 1081.27 1149.28 1081.27 1149.28C1081.27 1149.28 1080.96 1144 1080.46 1141.4C1079.92 1138.61 1078.94 1137.84 1076.65 1137.24C1074.36 1136.64 1069.44 1136.35 1069.44 1136.35C1069.44 1136.35 1074.36 1136.07 1076.65 1135.47C1078.94 1134.87 1079.92 1134.1 1080.46 1131.3C1080.96 1128.7 1081.27 1123.42 1081.27 1123.42C1081.27 1123.42 1081.53 1128.8 1082.08 1131.3Z" fill="white"/>
<path d="M1083.65 1076.13C1084.29 1079.03 1085.1 1080.28 1088.07 1080.96C1090.82 1081.59 1096.42 1081.98 1096.42 1081.98C1096.42 1081.98 1090.82 1082.37 1088.07 1083.01C1085.1 1083.69 1084.29 1084.93 1083.65 1087.83C1083.01 1090.73 1082.71 1096.97 1082.71 1096.97C1082.71 1096.97 1082.35 1090.85 1081.77 1087.83C1081.15 1084.59 1080.01 1083.7 1077.36 1083.01C1074.71 1082.31 1069 1081.98 1069 1081.98C1069 1081.98 1074.71 1081.65 1077.36 1080.96C1080.01 1080.26 1081.15 1079.37 1081.77 1076.13C1082.35 1073.12 1082.71 1067 1082.71 1067C1082.71 1067 1083.01 1073.24 1083.65 1076.13Z" fill="white"/>
<path d="M1171.95 1170.94C1172.53 1174.27 1173.27 1175.71 1175.96 1176.49C1178.46 1177.22 1183.55 1177.67 1183.55 1177.67C1183.55 1177.67 1178.46 1178.12 1175.96 1178.85C1173.27 1179.63 1172.53 1181.06 1171.95 1184.39C1171.38 1187.72 1171.1 1194.89 1171.1 1194.89C1171.1 1194.89 1170.78 1187.86 1170.25 1184.39C1169.68 1180.67 1168.65 1179.64 1166.24 1178.85C1163.83 1178.05 1158.65 1177.67 1158.65 1177.67C1158.65 1177.67 1163.83 1177.29 1166.24 1176.49C1168.65 1175.69 1169.68 1174.67 1170.25 1170.94C1170.78 1167.48 1171.1 1160.44 1171.1 1160.44C1171.1 1160.44 1171.38 1167.61 1171.95 1170.94Z" fill="white"/>
<defs>
<filter id="filter0_f_1149_7764" x="1012.13" y="0.845703" width="1259.91" height="1302.99" filterUnits="userSpaceOnUse" color-interpolation-filters="sRGB">
<feFlood flood-opacity="0" result="BackgroundImageFix"/>
<feBlend mode="normal" in="SourceGraphic" in2="BackgroundImageFix" result="shape"/>
<feGaussianBlur stdDeviation="50" result="effect1_foregroundBlur_1149_7764"/>
</filter>
<filter id="filter1_f_1149_7764" x="0.669922" y="122.333" width="1267.46" height="1230.09" filterUnits="userSpaceOnUse" color-interpolation-filters="sRGB">
<feFlood flood-opacity="0" result="BackgroundImageFix"/>
<feBlend mode="normal" in="SourceGraphic" in2="BackgroundImageFix" result="shape"/>
<feGaussianBlur stdDeviation="50" result="effect1_foregroundBlur_1149_7764"/>
</filter>
<radialGradient id="paint0_radial_1149_7764" cx="0" cy="0" r="1" gradientUnits="userSpaceOnUse" gradientTransform="translate(1146.5 1239.5) rotate(90) scale(529.5 783.5)">
<stop stop-color="#EBE7FE"/>
<stop offset="1" stop-color="white" stop-opacity="0.3"/>
</radialGradient>
<linearGradient id="paint1_linear_1149_7764" x1="1204.24" y1="1090.69" x2="1765.17" y2="676.097" gradientUnits="userSpaceOnUse">
<stop stop-color="#6C4DF6" stop-opacity="0.34"/>
<stop offset="1" stop-color="white" stop-opacity="0"/>
</linearGradient>
<linearGradient id="paint2_linear_1149_7764" x1="1072" y1="1144.49" x2="509.342" y2="732" gradientUnits="userSpaceOnUse">
<stop stop-color="#6C4DF6" stop-opacity="0.34"/>
<stop offset="1" stop-color="white" stop-opacity="0"/>
</linearGradient>
</defs>
</svg>
