<svg width="115" height="24" viewBox="0 0 115 24" fill="none" xmlns="http://www.w3.org/2000/svg">
<path d="M11.6422 14.8585C12.0173 14.8585 12.3889 14.7846 12.7355 14.6411C13.0821 14.4975 13.3971 14.287 13.6624 14.0217C13.9277 13.7564 14.1381 13.4415 14.2817 13.0949C14.4253 12.7482 14.4992 12.3767 14.4992 12.0015C14.4992 11.6263 14.4253 11.2548 14.2817 10.9082C14.1381 10.5616 13.9277 10.2466 13.6624 9.98133C13.3971 9.71603 13.0821 9.50559 12.7355 9.36201C12.3889 9.21843 12.0173 9.14453 11.6422 9.14453C10.8844 9.14453 10.1577 9.44554 9.62195 9.98133C9.08616 10.5171 8.78516 11.2438 8.78516 12.0015C8.78516 12.7593 9.08616 13.4859 9.62195 14.0217C10.1577 14.5575 10.8844 14.8585 11.6422 14.8585Z" fill="white"/>
<path d="M11.6402 0C6.0492 0 1.3502 3.825 0.0181964 9C-0.00361651 9.08432 -0.00584994 9.17252 0.011667 9.25784C0.029184 9.34316 0.065987 9.42334 0.11926 9.49224C0.172533 9.56115 0.240863 9.61696 0.319022 9.6554C0.397181 9.69383 0.483098 9.71388 0.570196 9.714H5.4082C5.6382 9.714 5.8352 9.577 5.9262 9.38L5.9362 9.36C6.53775 8.06011 7.5652 7.00464 8.84843 6.36834C10.1317 5.73203 11.5937 5.55305 12.9926 5.86103C14.3914 6.16901 15.6431 6.94548 16.5404 8.06188C17.4378 9.17828 17.9269 10.5677 17.9269 12C17.9269 13.4323 17.4378 14.8217 16.5404 15.9381C15.6431 17.0545 14.3914 17.831 12.9926 18.139C11.5937 18.4469 10.1317 18.268 8.84843 17.6317C7.5652 16.9954 6.53775 15.9399 5.9362 14.64L5.9262 14.62C5.88095 14.5205 5.80807 14.4362 5.71623 14.3769C5.6244 14.3177 5.51747 14.2862 5.4082 14.286H0.570196C0.483098 14.2861 0.397181 14.3062 0.319022 14.3446C0.240863 14.383 0.172533 14.4388 0.11926 14.5078C0.065987 14.5767 0.029184 14.6568 0.011667 14.7422C-0.00584994 14.8275 -0.00361651 14.9157 0.0181964 15C1.3512 20.175 6.0482 24 11.6402 24C18.2682 24 23.6402 18.627 23.6402 12C23.6402 5.373 18.2682 0 11.6402 0ZM43.0182 14.813H41.3852C41.3312 14.8129 41.2779 14.8253 41.2295 14.8493C41.1811 14.8732 41.1389 14.908 41.1062 14.951C40.4742 15.8872 39.5584 16.5957 38.4935 16.9725C37.4287 17.3492 36.271 17.3742 35.1909 17.0437C34.1108 16.7132 33.1653 16.0448 32.4935 15.1368C31.8218 14.2287 31.4592 13.129 31.4592 11.9995C31.4592 10.87 31.8218 9.77028 32.4935 8.86224C33.1653 7.95419 34.1108 7.28576 35.1909 6.9553C36.271 6.62484 37.4287 6.64981 38.4935 7.02654C39.5584 7.40326 40.4742 8.11184 41.1062 9.048C41.139 9.0911 41.1814 9.126 41.23 9.14994C41.2785 9.17389 41.332 9.18623 41.3862 9.186H43.0182C43.0781 9.18574 43.137 9.17018 43.1892 9.1408C43.2414 9.11142 43.2853 9.0692 43.3167 9.01812C43.348 8.96705 43.3658 8.90882 43.3683 8.84895C43.3709 8.78908 43.3581 8.72955 43.3312 8.676C42.5835 7.19206 41.3572 6.00364 39.8505 5.30286C38.3439 4.60209 36.6449 4.42991 35.0283 4.81418C33.4116 5.19844 31.9718 6.11668 30.9416 7.42045C29.9114 8.72423 29.3511 10.3373 29.3511 11.999C29.3511 13.6607 29.9114 15.2738 30.9416 16.5775C31.9718 17.8813 33.4116 18.7996 35.0283 19.1838C36.6449 19.5681 38.3439 19.3959 39.8505 18.6951C41.3572 17.9944 42.5835 16.8059 43.3312 15.322C43.3647 15.2562 43.3766 15.1815 43.3651 15.1086C43.3536 15.0357 43.3193 14.9683 43.2672 14.916C43.2343 14.8832 43.1953 14.8573 43.1524 14.8396C43.1095 14.8219 43.0636 14.8129 43.0172 14.813H43.0182ZM47.9412 2.154C47.9412 2.52716 47.793 2.88504 47.5291 3.1489C47.2652 3.41276 46.9074 3.561 46.5342 3.561C46.161 3.561 45.8032 3.41276 45.5393 3.1489C45.2754 2.88504 45.1272 2.52716 45.1272 2.154C45.1272 1.78084 45.2754 1.42296 45.5393 1.1591C45.8032 0.895237 46.161 0.747 46.5342 0.747C46.9074 0.747 47.2652 0.895237 47.5291 1.1591C47.793 1.42296 47.9412 1.78084 47.9412 2.154V2.154ZM47.5902 18.681V4.967H45.4802V18.68C45.4805 18.773 45.5175 18.8621 45.5833 18.9279C45.6491 18.9937 45.7382 19.0307 45.8312 19.031H47.2382C47.2843 19.0313 47.3301 19.0224 47.3727 19.0049C47.4154 18.9875 47.4543 18.9617 47.487 18.9292C47.5197 18.8967 47.5456 18.858 47.5634 18.8154C47.5811 18.7728 47.5902 18.7271 47.5902 18.681V18.681ZM56.7382 4.624C54.6102 4.724 52.9102 5.741 51.8082 7.294V5.318C51.8079 5.22516 51.771 5.13619 51.7055 5.07045C51.6399 5.00471 51.551 4.96753 51.4582 4.967H50.0512C49.958 4.967 49.8686 5.00395 49.8026 5.06974C49.7367 5.13554 49.6995 5.22482 49.6992 5.318V18.681C49.6992 18.875 49.8562 19.032 50.0512 19.032H51.4572C51.5503 19.0317 51.6395 18.9947 51.7055 18.929C51.7714 18.8632 51.8087 18.7741 51.8092 18.681V12C51.8092 10.6621 52.3176 9.37424 53.2315 8.39709C54.1453 7.41994 55.3963 6.82653 56.7312 6.737C56.7775 6.73713 56.8234 6.72812 56.8662 6.71049C56.909 6.69286 56.948 6.66696 56.9807 6.63426C57.0135 6.60156 57.0396 6.56271 57.0573 6.51994C57.0751 6.47716 57.0842 6.43131 57.0842 6.385V4.975C57.0839 4.88285 57.0476 4.79447 56.9829 4.72884C56.9182 4.66321 56.8303 4.62557 56.7382 4.624V4.624ZM70.7502 14.813H69.1172C69.0634 14.8131 69.0103 14.8256 68.9621 14.8495C68.9139 14.8734 68.8718 14.9082 68.8392 14.951C68.2072 15.8872 67.2914 16.5957 66.2265 16.9725C65.1617 17.3492 64.004 17.3742 62.9239 17.0437C61.8438 16.7132 60.8983 16.0448 60.2265 15.1368C59.5548 14.2287 59.1922 13.129 59.1922 11.9995C59.1922 10.87 59.5548 9.77028 60.2265 8.86224C60.8983 7.95419 61.8438 7.28576 62.9239 6.9553C64.004 6.62484 65.1617 6.64981 66.2265 7.02654C67.2914 7.40326 68.2072 8.11184 68.8392 9.048C68.8718 9.09083 68.9139 9.12557 68.9621 9.1495C69.0103 9.17343 69.0634 9.18592 69.1172 9.186H70.7502C70.8102 9.18601 70.8693 9.17063 70.9216 9.14132C70.974 9.11201 71.018 9.06976 71.0494 9.0186C71.0808 8.96744 71.0986 8.90908 71.101 8.84909C71.1034 8.78911 71.0904 8.72952 71.0632 8.676C70.3155 7.19206 69.0892 6.00364 67.5825 5.30286C66.0759 4.60209 64.3769 4.42991 62.7603 4.81418C61.1436 5.19844 59.7038 6.11668 58.6736 7.42045C57.6435 8.72423 57.0831 10.3373 57.0831 11.999C57.0831 13.6607 57.6435 15.2738 58.6736 16.5775C59.7038 17.8813 61.1436 18.7996 62.7603 19.1838C64.3769 19.5681 66.0759 19.3959 67.5825 18.6951C69.0892 17.9944 70.3155 16.8059 71.0632 15.322C71.0905 15.2686 71.1035 15.209 71.1011 15.149C71.0987 15.0891 71.081 15.0308 71.0495 14.9797C71.0181 14.9286 70.9741 14.8864 70.9217 14.8572C70.8692 14.828 70.8102 14.8128 70.7502 14.813V14.813ZM74.9702 0.395H73.5632C73.4698 0.395 73.3803 0.432086 73.3143 0.498098C73.2483 0.564111 73.2112 0.653644 73.2112 0.747V18.68C73.2112 18.874 73.3682 19.032 73.5632 19.032H74.9692C75.0626 19.032 75.1521 18.9949 75.2181 18.9289C75.2841 18.8629 75.3212 18.7734 75.3212 18.68V0.747C75.3212 0.653644 75.2841 0.564111 75.2181 0.498098C75.1521 0.432086 75.0626 0.395 74.9692 0.395H74.9702ZM84.8162 4.615C83.502 4.6148 82.2116 4.96529 81.078 5.63031C79.9445 6.29533 79.009 7.25078 78.368 8.39805C77.727 9.54533 77.4038 10.8429 77.4317 12.1568C77.4596 13.4707 77.8376 14.7533 78.5267 15.8724C79.2158 16.9914 80.1911 17.9063 81.3518 18.5226C82.5125 19.1389 83.8167 19.4343 85.1297 19.3783C86.4427 19.3223 87.717 18.917 88.821 18.2041C89.925 17.4912 90.8189 16.4966 91.4102 15.323C91.438 15.2696 91.4515 15.2098 91.4493 15.1496C91.4472 15.0894 91.4295 15.0308 91.398 14.9794C91.3665 14.9281 91.3222 14.8858 91.2695 14.8566C91.2168 14.8274 91.1574 14.8124 91.0972 14.813H89.4652C89.4099 14.8129 89.3554 14.8261 89.3062 14.8513C89.257 14.8765 89.2145 14.9131 89.1822 14.958C88.5826 15.8419 87.7289 16.523 86.7338 16.9112C85.7388 17.2993 84.6494 17.3763 83.6096 17.1319C82.5699 16.8875 81.6289 16.3332 80.911 15.5424C80.1931 14.7516 79.7322 13.7615 79.5892 12.703H91.8392C91.9292 12.7029 92.0157 12.6683 92.081 12.6064C92.1463 12.5444 92.1853 12.4599 92.1902 12.37C92.2403 11.3704 92.0868 10.3711 91.7389 9.43271C91.3909 8.49431 90.8559 7.63642 90.1663 6.91114C89.4766 6.18586 88.6467 5.60832 87.7271 5.21361C86.8074 4.81889 85.817 4.61523 84.8162 4.615V4.615ZM79.7322 10.593C80.0401 9.48106 80.704 8.50071 81.6223 7.8021C82.5405 7.10349 83.6624 6.72514 84.8162 6.725C85.9699 6.72531 87.0918 7.10372 88.01 7.80231C88.9282 8.50089 89.5921 9.48115 89.9002 10.593H79.7322ZM112.625 0.044C112.208 0.0449486 111.801 0.169258 111.455 0.401266C111.108 0.633275 110.838 0.962605 110.679 1.34777C110.519 1.73293 110.477 2.15669 110.558 2.56567C110.639 2.97464 110.839 3.35054 111.133 3.646C111.429 3.94012 111.805 4.14021 112.214 4.22108C112.623 4.30195 113.046 4.25997 113.431 4.10043C113.817 3.94089 114.146 3.67093 114.378 3.32456C114.61 2.97818 114.734 2.57089 114.735 2.154C114.735 1.87687 114.681 1.60244 114.575 1.34638C114.469 1.09033 114.313 0.857669 114.117 0.661712C113.922 0.465754 113.689 0.310337 113.433 0.204346C113.177 0.0983556 112.902 0.0438686 112.625 0.044V0.044ZM114.384 4.967V18.68C114.384 18.7262 114.375 18.772 114.358 18.8147C114.34 18.8574 114.314 18.8962 114.281 18.9288C114.249 18.9615 114.21 18.9873 114.167 19.0048C114.124 19.0224 114.078 19.0313 114.032 19.031H111.219C111.173 19.0312 111.127 19.0223 111.084 19.0046C111.042 18.9869 111.003 18.9609 110.97 18.928C110.938 18.8951 110.912 18.8564 110.894 18.814C110.877 18.7714 110.868 18.7259 110.868 18.68V4.967H114.384V4.967ZM101.694 19.385C103.334 19.3847 104.928 18.8387 106.223 17.8329C107.519 16.8271 108.442 15.4188 108.849 13.83C108.862 13.773 108.86 13.7137 108.843 13.6577C108.826 13.6018 108.796 13.5509 108.754 13.51C108.722 13.4774 108.683 13.4514 108.64 13.4338C108.598 13.4161 108.552 13.407 108.506 13.407H105.53C105.463 13.4072 105.397 13.4265 105.341 13.4629C105.284 13.4992 105.239 13.5509 105.211 13.612H105.21C104.842 14.4143 104.211 15.0666 103.422 15.4608C102.632 15.8549 101.731 15.9672 100.869 15.779C100.007 15.5908 99.235 15.1133 98.6814 14.4259C98.1279 13.7386 97.8261 12.8825 97.8261 12C97.8261 11.1175 98.1279 10.2614 98.6814 9.57406C99.235 8.88667 100.007 8.40923 100.869 8.221C101.731 8.03277 102.632 8.14506 103.422 8.53923C104.211 8.9334 104.842 9.58575 105.21 10.388H105.211C105.239 10.4494 105.284 10.5014 105.34 10.5378C105.397 10.5741 105.463 10.5933 105.53 10.593H108.506C108.558 10.5931 108.61 10.5815 108.657 10.5591C108.704 10.5368 108.745 10.5042 108.778 10.4638C108.811 10.4233 108.835 10.376 108.847 10.3254C108.859 10.2747 108.86 10.222 108.849 10.171C108.507 8.83171 107.796 7.6153 106.797 6.66011C105.798 5.70492 104.55 5.04929 103.197 4.76779C101.844 4.48628 100.439 4.59019 99.1415 5.06771C97.8443 5.54522 96.7071 6.37718 95.8593 7.46895C95.0115 8.56072 94.4871 9.8685 94.3457 11.2435C94.2043 12.6186 94.4517 14.0057 95.0596 15.2472C95.6675 16.4886 96.6115 17.5346 97.7844 18.2661C98.9573 18.9975 100.312 19.3852 101.694 19.385V19.385Z" fill="white"/>
</svg>
