<svg xmlns="http://www.w3.org/2000/svg" width="109" height="32" fill="none" viewBox="0 0 109 32">
  <path fill="#161616" d="M17.672 9.071h-3.276l-4.731 12.28h2.966l.768-2.09h4.475l-.809-2.29h-2.952l1.914-5.285 3.41 9.665h2.966l-4.731-12.28zm49.78 12.28V9.071h2.628v9.975h5.19v2.305H67.45zm15.163 0V9.071h2.642v9.975h5.19v2.305h-7.832zM52.867 11.27a3.946 3.946 0 013.949 3.949 3.946 3.946 0 01-3.95 3.95 3.946 3.946 0 01-3.949-3.95c0-2.184 1.78-3.95 3.95-3.95zm0-2.4a6.351 6.351 0 00-6.35 6.349 6.351 6.351 0 006.35 6.349 6.351 6.351 0 006.348-6.349 6.351 6.351 0 00-6.349-6.349zm49.684 2.4a3.947 3.947 0 013.95 3.949 3.947 3.947 0 01-3.95 3.95 3.946 3.946 0 01-3.949-3.95 3.946 3.946 0 013.949-3.95zm0-2.4a6.35 6.35 0 00-6.348 6.349 6.35 6.35 0 006.348 6.349 6.351 6.351 0 006.349-6.349 6.35 6.35 0 00-6.349-6.349zm-66.763.202H30.06v12.28h2.615V17.12h3.114c2.184 0 3.95-1.847 3.95-4.03 0-2.171-1.766-4.018-3.95-4.018zm0 5.648h-3.114v-3.248h3.114c.85 0 1.55.768 1.55 1.617 0 .85-.7 1.631-1.55 1.631z"/>
  <path fill="#161616" d="M27.808 25.072a.665.665 0 00-.553.283s-.593.674-.903.997a14.682 14.682 0 01-4.65 3.14A14.458 14.458 0 0116 30.64a14.7 14.7 0 01-5.702-1.146 14.534 14.534 0 01-4.65-3.14 14.684 14.684 0 01-3.14-4.651A14.46 14.46 0 011.36 16c0-1.982.391-3.896 1.146-5.702a14.282 14.282 0 013.127-4.65 14.684 14.684 0 014.65-3.14 14.459 14.459 0 015.702-1.147 14.7 14.7 0 015.702 1.146 14.67 14.67 0 013.505 2.103 1.74 1.74 0 00-.094.54 1.657 1.657 0 101.658-1.658c-.23 0-.445.04-.634.134A15.917 15.917 0 0015.986 0C7.159 0 0 7.158 0 16c0 8.843 7.158 16 16 16 4.947 0 9.355-2.238 12.293-5.77a.686.686 0 00.202-.47c-.013-.378-.323-.688-.687-.688z"/>
</svg>
