<svg xmlns="http://www.w3.org/2000/svg" width="115" height="24" fill="none" viewBox="0 0 115 24">
  <path fill="#161616" d="M11.643 14.857a2.857 2.857 0 100-5.714 2.857 2.857 0 000 5.714z"/>
  <path fill="#161616" d="M11.642 0C6.051 0 1.352 3.825.02 9a.571.571 0 00.552.714H5.41c.23 0 .427-.137.518-.334l.01-.02a6.286 6.286 0 110 5.28l-.01-.02a.57.57 0 00-.518-.334H.572A.571.571 0 00.02 15c1.333 5.175 6.03 9 11.622 9 6.628 0 12-5.373 12-12s-5.372-12-12-12zM43.02 14.813h-1.633a.35.35 0 00-.279.138 5.275 5.275 0 110-5.903.35.35 0 00.28.138h1.632a.352.352 0 00.313-.51 7.385 7.385 0 100 6.646.35.35 0 00-.064-.406.353.353 0 00-.25-.103zm4.923-12.659a1.407 1.407 0 11-2.814 0 1.407 1.407 0 012.814 0zm-.351 16.527V4.967h-2.11V18.68a.352.352 0 00.351.351h1.407a.35.35 0 00.352-.35zM56.74 4.624c-2.128.1-3.828 1.117-4.93 2.67V5.318a.352.352 0 00-.35-.351h-1.407a.352.352 0 00-.352.351v13.363c0 .194.157.351.352.351h1.406a.353.353 0 00.352-.351V12a5.275 5.275 0 014.922-5.263.352.352 0 00.353-.352v-1.41a.352.352 0 00-.346-.351zm14.012 10.189h-1.633a.35.35 0 00-.278.138 5.275 5.275 0 110-5.903.35.35 0 00.278.138h1.633a.351.351 0 00.313-.51 7.385 7.385 0 100 6.646.35.35 0 00-.313-.509zM74.972.395h-1.407a.352.352 0 00-.352.352V18.68c0 .194.157.352.352.352h1.406a.352.352 0 00.352-.352V.747a.352.352 0 00-.352-.352zm9.846 4.22a7.385 7.385 0 106.594 10.708.349.349 0 00-.313-.51h-1.632a.348.348 0 00-.283.145 5.275 5.275 0 01-9.593-2.255h12.25a.352.352 0 00.351-.333 7.385 7.385 0 00-7.374-7.755zm-5.084 5.978a5.276 5.276 0 015.084-3.868 5.277 5.277 0 015.084 3.868H79.734zM112.627.044a2.112 2.112 0 00-1.492 3.602 2.112 2.112 0 003.602-1.492 2.109 2.109 0 00-2.11-2.11zm1.759 4.923V18.68a.35.35 0 01-.352.351h-2.813a.348.348 0 01-.249-.103.366.366 0 01-.076-.114.364.364 0 01-.026-.134V4.967h3.516zm-12.69 14.418a7.387 7.387 0 007.155-5.555.345.345 0 00-.095-.32.35.35 0 00-.248-.103h-2.976a.352.352 0 00-.319.205h-.001a3.868 3.868 0 110-3.224h.001a.348.348 0 00.319.205h2.976a.35.35 0 00.343-.422 7.386 7.386 0 10-7.155 9.214z"/>
</svg>
