<svg xmlns="http://www.w3.org/2000/svg" width="114" height="28" fill="none" viewBox="0 0 114 28">
  <path fill="#161616" d="M3.687.001h20.626a3.69 3.69 0 013.686 3.687v20.627A3.688 3.688 0 0124.313 28H3.687A3.688 3.688 0 010 24.315V3.678A3.681 3.681 0 013.687.001"/>
  <path fill="#fff" d="M16.918 6.25v-.96a1.215 1.215 0 00-1.215-1.214h-2.834a1.215 1.215 0 00-1.216 1.215v.985c0 .11.102.187.213.161a8.858 8.858 0 012.466-.347c.808 0 1.609.11 2.382.322a.164.164 0 00.204-.161zM9.152 7.508l-.484-.484a1.215 1.215 0 00-1.719 0l-.578.578a1.21 1.21 0 000 1.716l.476.476c.077.076.187.058.255-.018.28-.385.591-.749.928-1.087a8.79 8.79 0 011.096-.933c.085-.052.094-.17.026-.248zm5.171 3.049v4.153c0 .119.129.204.238.145l3.693-1.911c.084-.042.11-.145.067-.229a4.594 4.594 0 00-3.827-2.32c-.085 0-.17.068-.17.162zm0 10.005a5.58 5.58 0 01-5.58-5.572c0-3.074 2.502-5.57 5.58-5.57 3.08 0 5.58 2.496 5.58 5.57a5.574 5.574 0 01-5.58 5.572zm0-13.487a7.917 7.917 0 00-7.919 7.915c0 4.374 3.547 7.907 7.92 7.907a7.917 7.917 0 007.919-7.915 7.904 7.904 0 00-7.92-7.907"/>
  <path fill="#161616" d="M55.816 22.208c-5.452.026-5.452-4.4-5.452-5.104L50.354.527 53.68 0v16.475c0 .4 0 2.93 2.135 2.94v2.793zM42.334 19.5c1.02 0 1.778-.06 2.305-.16v-3.38a7.88 7.88 0 00-1.957-.247c-.366 0-.74.025-1.114.084a3.359 3.359 0 00-1.012.298 1.824 1.824 0 00-.724.611c-.186.264-.272.417-.272.816 0 .78.272 1.232.766 1.528.493.297 1.165.45 2.008.45zm-.29-12.06c1.097 0 2.024.137 2.773.409.748.272 1.353.653 1.795 1.137.451.493.757 1.147.944 1.844.196.696.289 1.46.289 2.3v8.545c-.51.11-1.285.237-2.322.39-1.037.152-2.202.23-3.496.23-.859 0-1.65-.086-2.356-.247-.715-.16-1.318-.425-1.829-.79a3.835 3.835 0 01-1.182-1.409c-.281-.579-.426-1.393-.426-2.242 0-.816.161-1.334.477-1.895a4.02 4.02 0 011.301-1.375 5.597 5.597 0 011.905-.764 10.94 10.94 0 012.263-.23 10.467 10.467 0 012.451.298v-.544c0-.382-.044-.747-.137-1.087a2.335 2.335 0 00-.477-.908 2.216 2.216 0 00-.9-.612 3.933 3.933 0 00-1.422-.255c-.765 0-1.462.093-2.1.204-.639.11-1.166.238-1.566.381l-.4-2.725c.417-.144 1.038-.29 1.838-.433.8-.154 1.66-.221 2.577-.221zm65.685 11.967c1.021 0 1.777-.06 2.304-.162v-3.379a7.893 7.893 0 00-1.957-.247c-.365 0-.739.026-1.114.085a3.35 3.35 0 00-1.011.297 1.819 1.819 0 00-.724.612c-.187.264-.271.416-.271.815 0 .78.271 1.232.765 1.529.502.305 1.165.45 2.008.45zm-.281-12.05c1.096 0 2.023.135 2.772.407.748.272 1.353.653 1.795 1.137.442.484.757 1.147.944 1.844.196.696.289 1.46.289 2.301v8.544c-.51.11-1.285.237-2.322.39-1.037.153-2.202.23-3.496.23-.859 0-1.65-.086-2.355-.247-.716-.161-1.319-.425-1.83-.79a3.835 3.835 0 01-1.181-1.41c-.282-.577-.426-1.392-.426-2.241 0-.816.162-1.334.477-1.895a4.02 4.02 0 011.301-1.375 5.613 5.613 0 011.905-.765c.723-.152 1.48-.228 2.263-.228.365 0 .748.025 1.156.067.409.042.834.12 1.293.23v-.543c0-.383-.042-.748-.135-1.088a2.333 2.333 0 00-.478-.909 2.213 2.213 0 00-.9-.61 3.94 3.94 0 00-1.421-.255c-.766 0-1.463.093-2.101.203-.639.11-1.166.238-1.566.382l-.399-2.726c.417-.145 1.037-.288 1.837-.433.8-.144 1.658-.22 2.578-.22zm-9.987-1.58c1.114 0 2.025-.9 2.025-2.014a2.016 2.016 0 00-2.025-2.012c-1.122 0-2.024.9-2.024 2.012a2.02 2.02 0 002.024 2.014zm1.675 16.432h-3.342V7.873l3.342-.527v14.862zm-5.86 0c-5.452.026-5.452-4.4-5.452-5.104L87.815.527 91.141 0v16.475c0 .4 0 2.93 2.135 2.94v2.793zm-10.811-7.337c0-1.436-.315-2.633-.927-3.465-.613-.84-1.471-1.256-2.57-1.256-1.096 0-1.956.415-2.567 1.256-.613.84-.911 2.03-.911 3.465 0 1.453.307 2.428.92 3.27.612.848 1.47 1.265 2.568 1.265 1.097 0 1.957-.425 2.569-1.266.612-.85.918-1.816.918-3.269zm3.402-.008c0 1.121-.161 1.97-.493 2.896-.332.925-.8 1.715-1.403 2.37a6.198 6.198 0 01-2.178 1.52c-.85.355-2.16.56-2.815.56-.656-.009-1.957-.196-2.799-.56a6.334 6.334 0 01-2.169-1.52c-.604-.655-1.072-1.445-1.412-2.37a7.88 7.88 0 01-.51-2.896c0-1.121.152-2.2.493-3.117.34-.917.817-1.699 1.43-2.352a6.38 6.38 0 012.176-1.512c.843-.357 1.77-.526 2.773-.526 1.005 0 1.931.177 2.782.526a6.057 6.057 0 012.178 1.512c.603.653 1.07 1.435 1.412 2.352.357.917.535 1.996.535 3.117zm-25.033 0c0 1.392.306 2.938.919 3.583.612.646 1.403.968 2.374.968.527 0 1.029-.076 1.496-.22.468-.145.842-.315 1.14-.518V10.43c-.238-.052-1.233-.256-2.195-.28-1.208-.035-2.126.458-2.772 1.247-.639.79-.962 2.175-.962 3.466zm9.246 6.555c0 2.268-.579 3.924-1.744 4.977-1.165 1.053-2.943 1.58-5.341 1.58-.876 0-2.696-.17-4.151-.492l.535-2.634c1.217.255 2.825.324 3.667.324 1.335 0 2.288-.272 2.857-.816.57-.543.85-1.35.85-2.42v-.544c-.33.16-.765.323-1.3.493-.536.161-1.156.246-1.855.246-.918 0-1.752-.144-2.508-.434a5.228 5.228 0 01-1.949-1.274c-.535-.56-.96-1.264-1.258-2.105-.298-.841-.452-2.344-.452-3.448 0-1.036.162-2.335.477-3.202.323-.866.782-1.614 1.404-2.233.612-.62 1.361-1.096 2.237-1.444a8.21 8.21 0 013.018-.569c1.082 0 2.077.136 3.047.298.969.16 1.794.33 2.466.517v13.18z"/>
</svg>
