<svg width="1440" height="1050" viewBox="0 0 1440 1050" fill="none" xmlns="http://www.w3.org/2000/svg">
<mask id="mask0" mask-type="alpha" maskUnits="userSpaceOnUse" x="0" y="0" width="1440" height="1050">
<rect width="1440" height="1050" fill="#C4C4C4"/>
</mask>
<g mask="url(#mask0)">
<path style="mix-blend-mode:screen" opacity="0.5" d="M1681 397.571C1498.86 149.929 1145.64 -18 739.731 -18C303.074 -18 -72.6014 176.376 -240 455.177L37 1088L1681 1064V397.571Z" fill="url(#paint0_radial)"/>
<path style="mix-blend-mode:screen" d="M1503.89 1141.87C1345.29 926.233 1037.71 780 684.257 780C304.027 780 -23.1134 949.225 -168.797 1192.04V1340.59H1503.89V1141.87Z" fill="url(#paint1_radial)"/>
<path style="mix-blend-mode:screen" d="M1411.14 1145.9C1270.13 966.206 996.672 844.358 682.392 844.358C344.336 844.358 53.4794 985.369 -76.0651 1187.68V1311.37H1411.14V1145.9Z" fill="url(#paint2_radial)"/>
<path style="mix-blend-mode:screen" d="M543.361 1026.73C539.801 1064.97 650.811 1069.73 777.481 1058.07C904.151 1046.4 993.111 1089.93 1051.48 1057.54C1074.59 1044.71 1073.48 1026.71 1061.32 1009.26C990.691 972.255 902.931 950.375 807.841 950.375C709.321 950.375 618.681 973.905 546.841 1013.32C545.019 1017.59 543.846 1022.11 543.361 1026.73Z" fill="url(#paint3_radial)"/>
<path opacity="0.5" d="M978.711 1007.18C977.541 1015.61 960.361 1019.83 940.331 1016.62C920.301 1013.41 905.001 1003.97 906.161 995.545C907.321 987.125 924.501 982.895 944.531 986.105C964.561 989.315 979.871 998.755 978.711 1007.18ZM608.861 995.795C589.951 1003.62 576.911 1016.4 579.731 1024.35C582.551 1032.3 600.181 1032.42 619.091 1024.6C638.001 1016.78 651.091 1004.01 648.231 996.045C645.371 988.085 627.781 988.025 608.861 995.795ZM672.861 1009.56C659.241 1014.81 649.731 1023.71 651.631 1029.44C653.531 1035.17 666.111 1035.56 679.741 1030.31C693.371 1025.06 702.871 1016.15 700.971 1010.42C699.071 1004.69 686.481 1004.3 672.851 1009.56H672.861ZM703.471 967.795C693.171 971.285 685.841 977.635 687.111 981.965C688.381 986.295 697.751 986.965 708.051 983.475C718.351 979.985 725.671 973.635 724.411 969.305C723.151 964.975 713.761 964.295 703.461 967.795H703.471ZM1034.09 1017.35C1024.22 1012.63 1014.84 1012.17 1013.09 1016.35C1011.34 1020.53 1018.01 1027.7 1027.88 1032.41C1037.75 1037.12 1047.14 1037.59 1048.88 1033.41C1050.62 1029.23 1043.96 1022.03 1034.08 1017.35H1034.09ZM987.161 1035.18C974.981 1033.66 964.651 1036.59 964.101 1041.71C963.551 1046.83 972.991 1052.22 985.171 1053.71C997.351 1055.2 1007.68 1052.3 1008.23 1047.18C1008.78 1042.06 999.361 1036.7 987.161 1035.18Z" fill="url(#paint4_radial)"/>
<path style="mix-blend-mode:screen" d="M624.899 1024.02C616.239 1027.6 607.899 1029.51 601.039 1029.77C607.224 1028.77 613.266 1027.03 619.039 1024.59C637.959 1016.78 651.039 1004 648.179 996.045C646.639 991.735 640.759 989.735 632.669 990.045C643.669 988.375 652.109 990.185 653.989 995.475C656.859 1003.43 643.819 1016.21 624.899 1024.02ZM689.899 1005.86C695.739 1005.76 699.969 1007.28 701.009 1010.41C702.909 1016.14 693.399 1025.04 679.779 1030.3C676.158 1031.71 672.406 1032.75 668.579 1033.41C674.413 1033.16 680.161 1031.91 685.579 1029.73C699.199 1024.47 708.709 1015.57 706.809 1009.84C705.409 1005.75 698.599 1004.4 689.849 1005.86H689.899ZM944.579 986.105C964.579 989.315 979.919 998.755 978.759 1007.17C978.069 1012.17 971.819 1015.64 962.699 1017.02C974.899 1016.42 983.699 1012.56 984.569 1006.6C985.729 998.185 970.429 988.745 950.389 985.535C943.013 984.269 935.488 984.127 928.069 985.115C933.575 984.878 939.091 985.21 944.529 986.105H944.579ZM1039.94 1016.77C1032.42 1013.17 1025.19 1012.06 1021.41 1013.57C1025.84 1014.08 1030.14 1015.35 1034.13 1017.34C1044.01 1022.06 1050.63 1029.25 1048.92 1033.4C1048.68 1033.91 1048.35 1034.37 1047.93 1034.74C1047.51 1035.12 1047.02 1035.4 1046.49 1035.57C1050.7 1035.94 1053.82 1035.05 1054.73 1032.83C1056.36 1028.68 1049.77 1021.49 1039.89 1016.77H1039.94ZM993.019 1034.6C988.597 1034.01 984.111 1034.08 979.709 1034.8C982.215 1034.74 984.721 1034.87 987.209 1035.17C999.399 1036.69 1008.83 1042.08 1008.28 1047.17C1007.96 1050.23 1004.14 1052.49 998.529 1053.5C1007.19 1053.28 1013.66 1050.63 1014.09 1046.6C1014.59 1041.51 1005.16 1036.12 992.969 1034.6H993.019ZM715.709 965.605C720.369 965.605 723.709 966.875 724.449 969.345C725.709 973.675 718.389 980.025 708.089 983.515C705.999 984.226 703.86 984.784 701.689 985.185C705.852 985.09 709.974 984.334 713.899 982.945C724.199 979.455 731.519 973.105 730.259 968.775C729.209 965.325 723.199 964.195 715.659 965.565L715.709 965.605Z" fill="url(#paint5_radial)"/>
<path opacity="0.5" d="M1003.88 1051.94C999.282 1049.63 994.311 1048.17 989.2 1047.61C981.6 1046.67 974.73 1047.45 970.49 1049.41C975.087 1051.71 980.058 1053.18 985.17 1053.74C992.77 1054.69 999.64 1053.91 1003.88 1051.94Z" fill="url(#paint6_radial)"/>
<path opacity="0.5" d="M976.8 1011.08C971.11 1005.56 959.89 1000.68 946.57 998.536C929.92 995.866 915.25 998.336 910.1 1004.08C915.79 1009.59 927.01 1014.48 940.33 1016.62C956.97 1019.29 971.64 1016.82 976.8 1011.08Z" fill="url(#paint7_radial)"/>
</g>
<defs>
<radialGradient id="paint0_radial" cx="0" cy="0" r="1" gradientUnits="userSpaceOnUse" gradientTransform="translate(704.925 -21.1108) scale(988.867 1112.47)">
<stop stop-color="#4A289C" stop-opacity="0"/>
<stop offset="0.96" stop-color="#00092B"/>
</radialGradient>
<radialGradient id="paint1_radial" cx="0" cy="0" r="1" gradientUnits="userSpaceOnUse" gradientTransform="translate(655927 199889) scale(654992 219515)">
<stop stop-color="#4A289C" stop-opacity="0"/>
<stop offset="0.96" stop-color="#00092B"/>
</radialGradient>
<radialGradient id="paint2_radial" cx="0" cy="0" r="1" gradientUnits="userSpaceOnUse" gradientTransform="translate(636449 182549) scale(579904 191856)">
<stop stop-color="#4A289C"/>
<stop offset="0.96" stop-color="#00092B"/>
</radialGradient>
<radialGradient id="paint3_radial" cx="0" cy="0" r="1" gradientUnits="userSpaceOnUse" gradientTransform="translate(186196 39264.6) scale(132787 30109.3)">
<stop stop-color="#4A289C"/>
<stop offset="0.96" stop-color="#00092B"/>
</radialGradient>
<radialGradient id="paint4_radial" cx="0" cy="0" r="1" gradientUnits="userSpaceOnUse" gradientTransform="translate(207684 76060.5) rotate(9.21103) scale(102184 20751.3)">
<stop stop-color="#4A289C"/>
<stop offset="0.96" stop-color="#00092B"/>
</radialGradient>
<radialGradient id="paint5_radial" cx="0" cy="0" r="1" gradientUnits="userSpaceOnUse" gradientTransform="translate(214958 46680.4) scale(73739.8 15532.8)">
<stop stop-color="#4A289C"/>
<stop offset="0.96" stop-color="#00092B"/>
</radialGradient>
<radialGradient id="paint6_radial" cx="0" cy="0" r="1" gradientUnits="userSpaceOnUse" gradientTransform="translate(18561.8 3831.73) scale(6700.76 1502.55)">
<stop stop-color="#4A289C"/>
<stop offset="0.96" stop-color="#00092B"/>
</radialGradient>
<radialGradient id="paint7_radial" cx="0" cy="0" r="1" gradientUnits="userSpaceOnUse" gradientTransform="translate(36068.5 9151.66) scale(13385.5 4386.25)">
<stop stop-color="#4A289C"/>
<stop offset="0.96" stop-color="#00092B"/>
</radialGradient>
</defs>
</svg>
