<?xml version="1.0" encoding="utf-8"?>
<!-- Generator: Adobe Illustrator 26.1.0, SVG Export Plug-In . SVG Version: 6.00 Build 0)  -->
<svg version="1.1" id="Layer_1" xmlns="http://www.w3.org/2000/svg" xmlns:xlink="http://www.w3.org/1999/xlink" x="0px" y="0px"
	 viewBox="0 0 527.8179932 527.6211548" enable-background="new 0 0 527.8179932 527.6211548" xml:space="preserve">
<g>
	<path fill="#6A45FF" d="M409.017395,43.2949181C287.8233643-36.50037,123.7487793-2.8269699,43.7504272,118.2331467
		c-80.2322998,121.4140701-47.0221558,284.9154053,74.3023071,365.3886108
		c78.475769,52.0521851,174.6090698,56.6202393,254.5518188,20.5754395
		c6.4772949-2.9205322,3.3859863-12.7391357-3.5894775-11.387085c-46.2922363,8.9731445-95.9949341,0.486145-138.395752-27.6378784
		c-85.7397461-56.8703003-109.1434937-172.4785767-52.2738647-258.2186279
		c56.5288086-85.226265,170.3450317-109.0348587,256.2595825-53.5574951
		c43.5168457,28.1000977,71.3518066,71.1722412,81.2438965,118.0067139
		c1.4763184,6.989563,11.7211914,6.0238037,11.8928223-1.1178589
		C529.8552856,182.3408203,487.9807739,95.2850876,409.017395,43.2949181z"/>
</g>
</svg>
