<svg width="18" height="18" viewBox="0 0 18 18" fill="none" xmlns="http://www.w3.org/2000/svg">
<g clip-path="url(#clip0_246_157)">
<path d="M10.97 6.51913C11.3896 6.11403 11.9449 5.87821 12.5283 5.85742L12.5468 6.40672C12.1002 6.42264 11.675 6.60321 11.3539 6.9133C11.0326 7.22347 10.8383 7.64111 10.8085 8.08526L10.2578 8.04974C10.2967 7.46965 10.5506 6.92416 10.97 6.51913Z" fill="#6D7685"/>
<path d="M7.74851 4.49858L7.7485 4.49857C6.85164 3.93196 5.79296 3.66564 4.73028 3.73898C3.6676 3.81232 2.6569 4.22139 1.84907 4.90597C1.04117 5.5906 0.479321 6.51418 0.248204 7.53941L0.248203 7.53942C0.0170781 8.56476 0.129297 9.63594 0.56786 10.5931L0.79514 10.489L0.567861 10.5931C1.0064 11.5503 1.74748 12.3416 2.67978 12.8497C3.61201 13.3579 4.68597 13.556 5.7416 13.4151C6.58664 13.3022 7.38418 12.9767 8.05908 12.4745C8.46323 12.1739 8.44405 11.6107 8.11985 11.2861L8.1198 11.2861C7.78981 10.9559 7.28528 10.9773 6.94223 11.2147L6.9422 11.2147C6.41273 11.5812 5.7671 11.7967 5.06936 11.7967C3.26652 11.7967 1.81168 10.3588 1.81168 8.59319C1.81168 6.82753 3.26652 5.38962 5.06936 5.38962C6.44888 5.38962 7.62614 6.2324 8.10172 7.41985C8.00342 7.8055 7.95127 8.20927 7.95127 8.6249C7.95127 11.3124 10.1299 13.491 12.8173 13.491C13.2616 13.491 13.6923 13.4314 14.1017 13.3197L14.1017 13.3197C14.5925 13.1857 15.1023 13.35 15.3134 13.7366C15.3134 13.7366 15.3134 13.7366 15.3134 13.7366L15.4442 13.9763L15.4443 13.9763C15.7204 14.4821 16.3544 14.6684 16.8603 14.3923C17.3662 14.1161 17.5525 13.4822 17.2763 12.9762L16.9771 12.428L16.9771 12.428C16.7454 12.0037 16.8088 11.4612 17.0723 10.9876L16.8539 10.8661L17.0724 10.9876C17.4617 10.2878 17.6835 9.4819 17.6835 8.6249C17.6835 5.9374 15.5048 3.75882 12.8173 3.75882C11.8689 3.75882 10.9831 4.0304 10.2344 4.50021C9.53386 4.93976 8.4469 4.93986 7.74851 4.49858ZM15.9867 8.64203C15.9867 10.4113 14.5525 11.8455 12.7832 11.8455C11.0139 11.8455 9.57967 10.4113 9.57967 8.64203C9.57967 6.87271 11.0139 5.43846 12.7832 5.43846C14.5525 5.43846 15.9867 6.87272 15.9867 8.64203Z" fill="#6D7685" stroke="#6D7685" stroke-width="0.5"/>
</g>
<defs>
<clipPath id="clip0_246_157">
<rect width="18" height="18" fill="white"/>
</clipPath>
</defs>
</svg>
