<svg width="159" height="24" viewBox="0 0 159 24" fill="none" xmlns="http://www.w3.org/2000/svg">
<g clip-path="url(#clip0)">
<path d="M0 11.9008V23.8413L6.90248 23.7421C14.3207 23.6628 15.1339 23.5636 17.3554 22.4925C19.676 21.4016 21.362 19.1802 22.1355 16.1653C22.6116 14.3008 22.6116 9.59999 22.1554 7.67602C21.4413 4.74048 19.9735 2.71734 17.6926 1.52726C15.2529 0.238003 14.5785 0.158665 6.90248 0.059491L0 -0.0396826V11.9008ZM13.1306 5.35536C15.5306 6.18842 16.6413 8.60825 16.4231 12.5554C16.2843 14.995 15.9669 16.0859 15.114 17.0777C13.924 18.4661 13.1306 18.7041 9.18347 18.8033L5.75206 18.8826V11.9008V4.91899L9.08429 5.01817C10.9686 5.07767 12.714 5.21652 13.1306 5.35536Z" fill="black"/>
<path d="M86.2821 0.277791C83.9813 0.773659 82.6921 1.84473 81.9185 3.88771C81.5417 4.91911 81.502 5.35548 81.5615 7.43812C81.6408 10.1951 82.0375 11.3654 83.2673 12.5555C84.7152 13.9637 85.4689 14.1621 90.0904 14.2811C94.0772 14.3803 94.1962 14.4001 94.6921 14.8563C95.3268 15.4513 95.5251 16.4629 95.2276 17.4745C94.8111 18.8431 94.8507 18.8431 88.1268 18.8431H82.1169V21.3224V23.8018H88.7218C92.9069 23.8018 95.7631 23.7224 96.4772 23.5836C98.1631 23.2266 99.5317 22.334 100.325 21.0249C101.178 19.577 101.376 18.7439 101.376 16.6414C101.376 13.7257 100.543 11.7621 98.7978 10.6117C97.4292 9.69928 96.378 9.50093 92.3516 9.38192C88.6623 9.26292 88.583 9.26292 88.1268 8.76705C87.3532 7.93399 87.4326 6.28771 88.2855 5.49432L88.8607 4.95878H94.6127H100.365V2.47944V0.00010547L93.8788 0.0199402C89.5549 0.0199402 86.9962 0.119114 86.2821 0.277791Z" fill="black"/>
<path d="M47.6028 3.96693V6.3471H46.4127H45.2227V8.42974V10.5124H46.4127H47.6028V14.8562C47.6028 17.2364 47.702 19.6562 47.8012 20.2512C48.0789 21.6992 48.7532 22.6711 49.9235 23.2264C50.816 23.6628 51.1532 23.7025 54.902 23.762L58.9086 23.8413V21.7587V19.676L56.5086 19.6165C53.1764 19.5173 53.3351 19.7554 53.3946 14.5983L53.4541 10.6116L56.0921 10.5521L58.7103 10.4925V8.42974V6.3471H56.0326H53.3549V3.96693V1.58677H50.4789H47.6028V3.96693Z" fill="black"/>
<path d="M105.917 3.96705V6.34721H104.727H103.537V8.42986V10.4927L104.688 10.5522L105.818 10.6117L105.917 15.5704C106.016 20.3704 106.036 20.5687 106.512 21.5208C107.464 23.4249 108.674 23.8018 113.653 23.8018H117.025V21.7389V19.6761L114.764 19.6166C111.491 19.4976 111.669 19.7951 111.669 14.6381V10.5125H114.347H117.025V8.42986V6.34721H114.347H111.669V3.96705V1.58688H108.793H105.917V3.96705Z" fill="black"/>
<path d="M26.181 8.39019V10.4728L31.2388 10.5522C35.9793 10.6117 36.3165 10.6315 36.6735 11.0084C36.8917 11.2266 37.0901 11.6629 37.1297 12.0001L37.1892 12.5951L32.9248 12.6943C28.0454 12.8133 27.4504 12.972 26.2603 14.3406C25.3082 15.4712 24.9115 16.9389 25.0504 18.8034C25.2487 21.4018 26.5777 23.1274 28.7595 23.5836C29.3744 23.7224 32.3297 23.8018 36.3165 23.8018H42.862L42.8025 17.3158C42.743 10.9489 42.743 10.7902 42.2669 9.75879C41.7116 8.5092 40.4223 7.31912 39.1132 6.82325C38.3198 6.52573 37.2884 6.46622 32.1909 6.38689L26.181 6.30755V8.39019ZM37.2884 18.248V19.6365H34.5116C31.7744 19.6365 31.7149 19.6166 31.1992 19.1208C30.8025 18.7241 30.7231 18.5059 30.8223 17.9902C31.0206 16.9588 31.3182 16.8596 34.452 16.8596H37.2884V18.248Z" fill="black"/>
<path d="M62.0822 8.39019V10.4728L67.1202 10.5522C71.7417 10.6117 72.1979 10.6513 72.5747 10.9885C72.8326 11.2266 72.9912 11.6034 72.9912 12.0199V12.6547L68.6871 12.734C64.7003 12.7935 64.3036 12.8332 63.5499 13.2299C61.6855 14.2216 60.7731 16.1456 60.9317 18.7637C61.1103 21.3423 62.4788 23.1075 64.6607 23.5836C65.2755 23.7224 68.2309 23.8018 72.2177 23.8018H78.7631L78.7036 17.296C78.6441 10.9489 78.6243 10.7902 78.1681 9.75879C77.6127 8.5092 76.3235 7.31912 75.0144 6.82325C74.221 6.52573 73.1896 6.46622 68.0921 6.38689L62.0822 6.30755V8.39019ZM73.1499 18.1885L73.0904 19.5373L70.3929 19.5968C67.9136 19.6365 67.6557 19.6166 67.1797 19.2398C66.5251 18.7241 66.4656 17.8315 67.0408 17.2563C67.3979 16.8993 67.6954 16.8596 70.3136 16.8596H73.2094L73.1499 18.1885Z" fill="black"/>
<path d="M120.398 8.42986V10.5125H124.92C127.419 10.5125 129.76 10.6117 130.157 10.7109C130.97 10.9489 131.307 11.3852 131.307 12.1786V12.6745L127.003 12.734L122.679 12.7935L121.588 13.4084C120.676 13.9241 120.398 14.2216 119.842 15.2927C119.188 16.5224 119.168 16.6216 119.247 18.4464C119.347 20.5885 119.723 21.5604 120.874 22.572C122.163 23.7026 122.897 23.8018 130.375 23.8018H137.079L137.019 17.3951C136.94 11.9604 136.881 10.8695 136.603 10.096C135.889 8.23151 134.401 7.04143 132.14 6.5654C131.505 6.44639 128.947 6.34721 125.753 6.34721H120.398V8.42986ZM131.307 18.248V19.6365H128.53C126.011 19.6365 125.714 19.5968 125.357 19.2398C124.88 18.7637 124.841 17.7125 125.297 17.2166C125.575 16.8993 125.952 16.8596 128.471 16.8596H131.307V18.248Z" fill="black"/>
<path d="M138.784 6.58523C138.903 6.78358 144.08 13.8051 144.833 14.7968C144.972 14.9753 141.898 19.1406 138.387 23.5439C138.248 23.7423 138.883 23.8018 141.442 23.8018L144.695 23.7819L146.46 21.2232C147.432 19.7951 148.285 18.6447 148.344 18.6447C148.404 18.6646 149.257 19.815 150.228 21.2232L151.994 23.8018H155.247C157.805 23.8018 158.48 23.7423 158.361 23.5637C158.281 23.4249 156.913 21.6001 155.306 19.5373C153.7 17.4547 152.271 15.5704 152.133 15.3522C151.895 14.9555 152.093 14.6183 154.969 10.7307C156.675 8.42986 158.083 6.48606 158.083 6.44639C158.083 6.38688 156.714 6.36705 155.068 6.38688L152.033 6.44639L150.347 8.86622C149.415 10.1951 148.602 11.2861 148.542 11.3059C148.463 11.3059 147.63 10.1951 146.698 8.82655L144.972 6.34721H141.799C139.299 6.34721 138.645 6.40672 138.784 6.58523Z" fill="black"/>
</g>
<defs>
<clipPath id="clip0">
<rect width="158.678" height="24" fill="white"/>
</clipPath>
</defs>
</svg>
