<svg width="26" height="24" viewBox="0 0 26 24" fill="none" xmlns="http://www.w3.org/2000/svg">
<g clip-path="url(#clip0_1126_458)">
<path d="M21.8703 9.58203L19.749 7.46071L14.0922 13.1176L12.678 11.7034L18.3348 6.0465L16.2135 3.92518L22.5775 3.21807L21.8703 9.58203Z" fill="#604FAF"/>
<path d="M20.1634 19.7781C16.258 23.6835 9.92662 23.6835 6.02127 19.7781C2.11591 15.8728 2.11591 9.54132 6.02123 5.636C7.11833 4.53726 8.45649 3.70954 9.92951 3.2185C11.4025 2.72754 12.9697 2.5868 14.5065 2.80757L12.5903 4.72383C11.0538 4.82032 9.57767 5.35822 8.33927 6.27282C7.1008 7.18749 6.15258 8.44008 5.60839 9.88025C5.06418 11.3204 4.94711 12.8871 5.27121 14.3922C5.59531 15.8972 6.3468 17.2768 7.43555 18.3654C8.5243 19.4539 9.90399 20.2052 11.4091 20.5291C12.9143 20.8529 14.4809 20.7356 15.921 20.1911C17.361 19.6467 18.6135 18.6982 19.528 17.4597C20.4424 16.2211 20.9799 14.7449 21.0762 13.2084L22.9925 11.2921C23.2133 12.8292 23.0725 14.3965 22.5814 15.8697C22.0903 17.3428 21.2623 18.681 20.1634 19.7781Z" fill="#604FAF"/>
</g>
<defs>
<clipPath id="clip0_1126_458">
<rect width="26" height="24" fill="white"/>
</clipPath>
</defs>
</svg>
