<svg width="20" height="20" viewBox="0 0 20 20" fill="none" xmlns="http://www.w3.org/2000/svg">
<g clip-path="url(#clip0_1886_3956)">
<path d="M10.0804 0C4.6052 0 0 4.39687 0 9.825V20H10.0867C15.5587 20 20 15.4312 20 10C20 4.56875 15.5461 0 10.0804 0Z" fill="#231F20"/>
<path d="M10.1843 3.8031C9.1197 3.80358 8.07348 4.07798 7.14807 4.59943C6.22267 5.12088 5.44981 5.8715 4.90517 6.7778C4.36053 7.68409 4.06278 8.71499 4.04108 9.76955C4.01937 10.8241 4.27446 11.8662 4.78136 12.7937L3.66797 16.3406L7.66103 15.4469C8.49707 15.82 9.40678 16.0031 10.3235 15.9828C11.2403 15.9625 12.1408 15.7392 12.9591 15.3294C13.7775 14.9196 14.493 14.3335 15.0531 13.6142C15.6132 12.8949 16.0038 12.0606 16.1963 11.1723C16.3888 10.284 16.3783 9.36434 16.1656 8.48062C15.9528 7.5969 15.5432 6.77153 14.9668 6.06498C14.3904 5.35843 13.6617 4.78859 12.8342 4.39722C12.0067 4.00584 11.1013 3.80285 10.1843 3.8031Z" fill="#FFF9AE"/>
<path d="M15.0479 6.18738C15.8717 7.26332 16.3113 8.58004 16.2974 9.9305C16.2835 11.2809 15.817 12.5885 14.9712 13.6476C14.1254 14.7067 12.9484 15.4573 11.6251 15.7813C10.3018 16.1052 8.90735 15.9843 7.66103 15.4374L3.66797 16.3405L7.73357 15.8655C9.0355 16.6125 10.5688 16.8603 12.0428 16.5619C13.5169 16.2634 14.8291 15.4395 15.7309 14.2463C16.6327 13.0532 17.0612 11.5736 16.9353 10.0882C16.8094 8.60286 16.1378 7.21486 15.0479 6.18738Z" fill="#00AEEF"/>
<path d="M13.9282 5.06561C14.8661 6.05015 15.446 7.31637 15.5762 8.66404C15.7064 10.0117 15.3794 11.3639 14.6471 12.5069C13.9147 13.6498 12.8186 14.5183 11.5323 14.9749C10.2459 15.4315 8.84264 15.4502 7.54433 15.0281L3.66797 16.3406L7.66103 15.4437C9.03471 16.0575 10.5882 16.1498 12.026 15.7029C13.4638 15.256 14.6857 14.3012 15.4594 13.02C16.2331 11.7388 16.5046 10.2205 16.2223 8.75395C15.94 7.28737 15.1235 5.97472 13.9282 5.06561Z" fill="#00A94F"/>
<path d="M5.14723 12.9282C4.60939 11.6385 4.5348 10.205 4.93593 8.86746C5.33706 7.52988 6.18959 6.36932 7.35091 5.57992C8.51224 4.79051 9.91193 4.42014 11.3159 4.53074C12.7198 4.64134 14.0428 5.22622 15.0636 6.18753C14.1261 4.96303 12.7558 4.1352 11.2278 3.87022C9.69979 3.60525 8.12716 3.92274 6.82561 4.75897C5.52407 5.5952 4.58995 6.88826 4.21077 8.37859C3.83159 9.86892 4.03543 11.4462 4.78136 12.7938L3.66797 16.3407L5.14723 12.9282Z" fill="#F15D22"/>
<path d="M4.78155 12.7938C4.11379 11.5675 3.89063 10.1514 4.1493 8.78173C4.40797 7.41209 5.13283 6.17173 6.20295 5.26759C7.27307 4.36345 8.62375 3.8502 10.0296 3.81346C11.4355 3.77671 12.8116 4.21871 13.9284 5.0657C12.8633 3.95792 11.4165 3.28785 9.8756 3.18871C8.33468 3.08958 6.81255 3.56865 5.61186 4.53066C4.41117 5.49267 3.61988 6.86716 3.39532 8.38082C3.17077 9.89448 3.5294 11.4364 4.3999 12.7001L3.67131 16.3407L4.78155 12.7938Z" fill="#E31B23"/>
</g>
<defs>
<clipPath id="clip0_1886_3956">
<rect width="20" height="20" fill="white"/>
</clipPath>
</defs>
</svg>
