<svg width="20" height="20" viewBox="0 0 20 20" fill="none" xmlns="http://www.w3.org/2000/svg">
<g clip-path="url(#clip0_1193_4844)">
<path d="M10.0804 0C4.6052 0 0 4.39687 0 9.825V20H10.0867C15.5587 20 20 15.4312 20 10C20 4.56875 15.5461 0 10.0804 0Z" fill="#231F20"/>
<path d="M10.1843 3.80273C9.1197 3.80322 8.07348 4.07762 7.14807 4.59906C6.22267 5.12051 5.44981 5.87113 4.90517 6.77743C4.36053 7.68373 4.06278 8.71463 4.04108 9.76919C4.01937 10.8237 4.27446 11.8658 4.78136 12.7934L3.66797 16.3402L7.66103 15.4465C8.49707 15.8197 9.40678 16.0028 10.3235 15.9825C11.2403 15.9621 12.1408 15.7389 12.9591 15.329C13.7775 14.9192 14.493 14.3332 15.0531 13.6138C15.6132 12.8945 16.0038 12.0602 16.1963 11.1719C16.3888 10.2837 16.3783 9.36398 16.1656 8.48026C15.9528 7.59654 15.5432 6.77117 14.9668 6.06461C14.3904 5.35806 13.6617 4.78822 12.8342 4.39685C12.0067 4.00548 11.1013 3.80248 10.1843 3.80273V3.80273Z" fill="#FFF9AE"/>
<path d="M15.0479 6.1875C15.8717 7.26345 16.3113 8.58017 16.2974 9.93062C16.2835 11.2811 15.817 12.5887 14.9712 13.6478C14.1254 14.7069 12.9484 15.4574 11.6251 15.7814C10.3018 16.1054 8.90735 15.9844 7.66103 15.4375L3.66797 16.3406L7.73357 15.8656C9.0355 16.6126 10.5688 16.8604 12.0428 16.562C13.5169 16.2636 14.8291 15.4397 15.7309 14.2465C16.6327 13.0533 17.0612 11.5738 16.9353 10.0884C16.8094 8.60298 16.1378 7.21498 15.0479 6.1875V6.1875Z" fill="#00AEEF"/>
<path d="M13.9282 5.06641C14.8661 6.05095 15.446 7.31716 15.5762 8.66483C15.7064 10.0125 15.3794 11.3647 14.6471 12.5077C13.9147 13.6506 12.8186 14.519 11.5323 14.9757C10.2459 15.4323 8.84264 15.451 7.54433 15.0289L3.66797 16.3414L7.66103 15.4445C9.03471 16.0583 10.5882 16.1506 12.026 15.7037C13.4638 15.2568 14.6857 14.302 15.4594 13.0208C16.2331 11.7396 16.5046 10.2213 16.2223 8.75475C15.94 7.28816 15.1235 5.97552 13.9282 5.06641Z" fill="#00A94F"/>
<path d="M5.14723 12.9284C4.60939 11.6388 4.5348 10.2053 4.93593 8.86771C5.33706 7.53012 6.18959 6.36957 7.35091 5.58016C8.51224 4.79076 9.91193 4.42038 11.3159 4.53098C12.7198 4.64159 14.0428 5.22646 15.0636 6.18778C14.1261 4.96327 12.7558 4.13544 11.2278 3.87047C9.69979 3.60549 8.12716 3.92299 6.82561 4.75921C5.52407 5.59544 4.58995 6.88851 4.21077 8.37883C3.83159 9.86916 4.03543 11.4464 4.78136 12.794L3.66797 16.3409L5.14723 12.9284Z" fill="#F15D22"/>
<path d="M4.78167 12.7937C4.11391 11.5674 3.89075 10.1513 4.14943 8.78161C4.4081 7.41196 5.13296 6.17161 6.20308 5.26747C7.2732 4.36333 8.62387 3.85007 10.0298 3.81333C11.4357 3.77659 12.8118 4.21858 13.9285 5.06558C12.8635 3.9578 11.4166 3.28772 9.87572 3.18859C8.33481 3.08946 6.81267 3.56852 5.61198 4.53054C4.4113 5.49255 3.62 6.86704 3.39545 8.3807C3.17089 9.89436 3.52952 11.4363 4.40002 12.6999L3.67143 16.3406L4.78167 12.7937Z" fill="#E31B23"/>
</g>
<defs>
<clipPath id="clip0_1193_4844">
<rect width="20" height="20" fill="white"/>
</clipPath>
</defs>
</svg>
