<svg width="21" height="20" viewBox="0 0 21 20" fill="none" xmlns="http://www.w3.org/2000/svg">
<g clip-path="url(#clip0_1193_4836)">
<path d="M17.2639 3.76368C15.9891 3.17878 14.6222 2.74785 13.1929 2.50104C13.1669 2.49627 13.1409 2.50818 13.1275 2.53198C12.9517 2.84466 12.757 3.25258 12.6206 3.5732C11.0833 3.34306 9.55399 3.34306 8.04828 3.5732C7.91188 3.24545 7.71008 2.84466 7.53349 2.53198C7.52008 2.50897 7.49408 2.49707 7.46805 2.50104C6.0396 2.74706 4.67264 3.17799 3.39712 3.76368C3.38608 3.76844 3.37661 3.77638 3.37033 3.78669C0.777501 7.66033 0.0672159 11.4387 0.415658 15.1703C0.417235 15.1886 0.427483 15.206 0.441673 15.2171C2.15235 16.4734 3.80943 17.2361 5.43574 17.7416C5.46177 17.7496 5.48935 17.74 5.50591 17.7186C5.89061 17.1933 6.23354 16.6393 6.52757 16.0568C6.54492 16.0227 6.52836 15.9822 6.4929 15.9687C5.94895 15.7624 5.43101 15.5108 4.93278 15.2251C4.89337 15.2021 4.89022 15.1457 4.92647 15.1187C5.03132 15.0402 5.13619 14.9584 5.2363 14.8759C5.25442 14.8608 5.27966 14.8576 5.30095 14.8671C8.57408 16.3615 12.1176 16.3615 15.3521 14.8671C15.3734 14.8568 15.3987 14.86 15.4176 14.8751C15.5177 14.9576 15.6226 15.0402 15.7282 15.1187C15.7644 15.1457 15.7621 15.2021 15.7227 15.2251C15.2244 15.5163 14.7065 15.7624 14.1618 15.9679C14.1263 15.9814 14.1105 16.0227 14.1279 16.0568C14.4282 16.6385 14.7711 17.1924 15.1488 17.7178C15.1645 17.74 15.1929 17.7496 15.2189 17.7416C16.8531 17.2361 18.5102 16.4734 20.2209 15.2171C20.2359 15.206 20.2453 15.1894 20.2469 15.1711C20.6639 10.857 19.5484 7.10956 17.2899 3.78748C17.2843 3.77638 17.2749 3.76844 17.2639 3.76368ZM7.01636 12.8982C6.03092 12.8982 5.21895 11.9935 5.21895 10.8824C5.21895 9.77134 6.01518 8.86663 7.01636 8.86663C8.0254 8.86663 8.82952 9.77928 8.81374 10.8824C8.81374 11.9935 8.01752 12.8982 7.01636 12.8982ZM13.662 12.8982C12.6766 12.8982 11.8646 11.9935 11.8646 10.8824C11.8646 9.77134 12.6608 8.86663 13.662 8.86663C14.671 8.86663 15.4751 9.77928 15.4594 10.8824C15.4594 11.9935 14.671 12.8982 13.662 12.8982Z" fill="#5165F6"/>
</g>
<defs>
<clipPath id="clip0_1193_4836">
<rect width="20" height="20" fill="white" transform="translate(0.333008)"/>
</clipPath>
</defs>
</svg>
