<svg width="20" height="20" viewBox="0 0 20 20" fill="none" xmlns="http://www.w3.org/2000/svg">
<path d="M16.9308 3.76368C15.6561 3.17878 14.2892 2.74785 12.8599 2.50104C12.8339 2.49627 12.8079 2.50818 12.7945 2.53198C12.6187 2.84466 12.4239 3.25258 12.2876 3.5732C10.7503 3.34306 9.22099 3.34306 7.71527 3.5732C7.57887 3.24545 7.37707 2.84466 7.20048 2.53198C7.18707 2.50897 7.16107 2.49707 7.13504 2.50104C5.70659 2.74706 4.33963 3.17799 3.06411 3.76368C3.05307 3.76844 3.04361 3.77638 3.03732 3.78669C0.444493 7.66033 -0.265792 11.4387 0.0826501 15.1703C0.0842267 15.1886 0.0944749 15.206 0.108665 15.2171C1.81934 16.4734 3.47642 17.2361 5.10273 17.7416C5.12876 17.7496 5.15634 17.74 5.1729 17.7186C5.55761 17.1933 5.90054 16.6393 6.19456 16.0568C6.21192 16.0227 6.19535 15.9822 6.15989 15.9687C5.61594 15.7624 5.098 15.5108 4.59977 15.2251C4.56037 15.2021 4.55721 15.1457 4.59347 15.1187C4.69831 15.0402 4.80318 14.9584 4.9033 14.8759C4.92141 14.8608 4.94665 14.8576 4.96794 14.8671C8.24107 16.3615 11.7846 16.3615 15.0191 14.8671C15.0404 14.8568 15.0657 14.86 15.0846 14.8751C15.1847 14.9576 15.2895 15.0402 15.3952 15.1187C15.4314 15.1457 15.4291 15.2021 15.3897 15.2251C14.8914 15.5163 14.3735 15.7624 13.8288 15.9679C13.7933 15.9814 13.7775 16.0227 13.7949 16.0568C14.0952 16.6385 14.4381 17.1924 14.8157 17.7178C14.8315 17.74 14.8599 17.7496 14.8859 17.7416C16.5201 17.2361 18.1772 16.4734 19.8879 15.2171C19.9028 15.206 19.9123 15.1894 19.9139 15.1711C20.3309 10.857 19.2154 7.10956 16.9568 3.78748C16.9513 3.77638 16.9419 3.76844 16.9308 3.76368ZM6.68335 12.8982C5.69792 12.8982 4.88594 11.9935 4.88594 10.8824C4.88594 9.77134 5.68217 8.86663 6.68335 8.86663C7.69239 8.86663 8.49651 9.77928 8.48073 10.8824C8.48073 11.9935 7.68451 12.8982 6.68335 12.8982ZM13.329 12.8982C12.3435 12.8982 11.5316 11.9935 11.5316 10.8824C11.5316 9.77134 12.3278 8.86663 13.329 8.86663C14.338 8.86663 15.1421 9.77928 15.1264 10.8824C15.1264 11.9935 14.338 12.8982 13.329 12.8982Z" fill="#5165F6"/>
</svg>
