<svg width="71" height="70" viewBox="0 0 71 70" fill="none" xmlns="http://www.w3.org/2000/svg">
<rect x="1" y="0.5" width="69" height="69" rx="34.5" fill="url(#paint0_linear_1810_2660)"/>
<rect x="1" y="0.5" width="69" height="69" rx="34.5" stroke="#EBE7FE"/>
<path d="M33.894 47.0625L33.8942 47.0626C34.167 47.1882 34.4516 47.2505 34.7338 47.2505C35.3736 47.2505 35.9797 46.9319 36.3639 46.3551L36.364 46.3551L36.3681 46.3485L42.7756 36.0406C43.3539 35.1847 43.4102 34.1267 42.9268 33.2135C42.4424 32.2986 41.5314 31.7505 40.4968 31.7505H37.0543L39.0969 25.9206C39.3654 25.2005 39.2645 24.3927 38.8262 23.761C38.3876 23.1287 37.6659 22.7505 36.8958 22.7505H32.5228C31.3029 22.7505 30.2442 23.5374 29.8875 24.7161L29.8874 24.7161L29.8858 24.7222L26.8646 35.7073C26.612 36.5472 26.7676 37.4348 27.29 38.1394C27.8132 38.8451 28.6197 39.2505 29.4978 39.2505H34.4871L32.8295 44.7331L32.8295 44.7331L32.8285 44.7367C32.5566 45.6871 32.996 46.6477 33.894 47.0625ZM32.5238 24.2505H33.1275L33.1265 24.2495H36.8958C37.1791 24.2495 37.4321 24.3815 37.5931 24.6146L37.5937 24.6154C37.7548 24.8467 37.7914 25.1284 37.6876 25.4059L37.6876 25.4059L37.6859 25.4108L35.2889 32.2508C35.2081 32.4812 35.2439 32.7351 35.3852 32.9335C35.5257 33.1308 35.7533 33.2495 35.9968 33.2495H40.4968C40.9702 33.2495 41.3803 33.4963 41.6019 33.9146C41.8226 34.331 41.7981 34.8091 41.5209 35.2182L41.5207 35.2181L41.5155 35.2265L35.1056 45.5381C35.0161 45.6718 34.9162 45.7248 34.8262 45.7427C34.7289 45.762 34.6213 45.7441 34.5245 45.6995L34.5241 45.6993C34.4274 45.6549 34.3438 45.5844 34.2952 45.498C34.2501 45.4177 34.226 45.3083 34.2687 45.1568L36.215 38.7173L35.9758 38.6445L36.2151 38.7168L36.215 38.7171C36.2843 38.4896 36.2403 38.2436 36.0998 38.0538C35.9586 37.863 35.735 37.7505 35.4978 37.7505H29.4988C29.098 37.7505 28.7334 37.567 28.4945 37.2454C28.2565 36.925 28.1856 36.5232 28.3052 36.1267L28.3052 36.1267L28.3069 36.1208L31.328 25.136C31.4899 24.6051 31.969 24.2505 32.5238 24.2505Z" fill="#6C4DF6" stroke="#6C4DF6" stroke-width="0.5"/>
<defs>
<linearGradient id="paint0_linear_1810_2660" x1="35.5" y1="0" x2="35.5" y2="70" gradientUnits="userSpaceOnUse">
<stop stop-color="#EBE7FE"/>
<stop offset="1" stop-color="white" stop-opacity="0"/>
</linearGradient>
</defs>
</svg>
