<svg width="71" height="70" viewBox="0 0 71 70" fill="none" xmlns="http://www.w3.org/2000/svg">
<rect x="0.666992" y="0.5" width="69" height="69" rx="34.5" fill="url(#paint0_linear_1810_2655)"/>
<rect x="0.666992" y="0.5" width="69" height="69" rx="34.5" stroke="#EBE7FE"/>
<g clip-path="url(#clip0_1810_2655)">
<path d="M46.7289 33.4166H36.623V29C36.623 28.4886 36.2178 28.0833 35.7064 28.0833C35.195 28.0833 34.7897 28.4886 34.7897 29V36.96C34.7897 37.9286 34.0083 38.71 33.0397 38.71C32.0711 38.71 31.2897 37.9286 31.2897 36.96V28.4266C31.2897 26.4066 32.6399 24.6534 34.5955 24.1487L34.5956 24.1487L40.2217 22.6955C40.2217 22.6955 40.2218 22.6955 40.2219 22.6954C40.8383 22.5377 41.3979 22.2219 41.8565 21.7634L43.3365 20.2834C43.7008 19.9191 43.7008 19.3475 43.3365 18.9832C42.9722 18.6189 42.4006 18.6189 42.0363 18.9832L40.5563 20.4632C40.3376 20.6819 40.0581 20.8349 39.7492 20.9182C39.7488 20.9183 39.7484 20.9184 39.748 20.9186L34.1238 22.3712L34.1231 22.3714C31.4953 23.0587 29.6119 25.3551 29.4528 28.0433H28.493C25.6324 28.0433 23.146 29.9738 22.4376 32.7377C22.4376 32.7377 22.4375 32.7378 22.4375 32.7379L20.985 38.3616C20.9849 38.362 20.9847 38.3624 20.9846 38.3628C20.9013 38.6717 20.7483 38.9512 20.5296 39.1699L19.0496 40.6499C18.6868 41.0126 18.6853 41.581 19.0451 41.9455C19.2198 42.1363 19.4759 42.2233 19.693 42.2233C19.9201 42.2233 20.1568 42.1298 20.3365 41.9501L21.8165 40.4701C22.2612 40.0254 22.5906 39.4526 22.7485 38.8355C22.7485 38.8354 22.7485 38.8353 22.7486 38.8353L24.2017 33.2095C24.7064 31.2662 26.4604 29.9033 28.4797 29.9033H29.4297V36.9866C29.4297 38.9647 31.035 40.57 33.013 40.57C34.9911 40.57 36.5964 38.9647 36.5964 36.9866V35.2366H46.1229L43.7857 43.5321C43.7857 43.5321 43.7857 43.5322 43.7857 43.5322C43.256 45.4116 41.5139 46.7366 39.5597 46.7366H34.1501C33.208 46.7089 32.2232 47.1412 31.5528 47.8401C31.5527 47.8401 31.5527 47.8402 31.5526 47.8402L29.7811 49.6783C29.4147 50.0467 29.4351 50.6338 29.8008 50.9812L29.8008 50.9813L29.8058 50.9858C29.9802 51.1428 30.1984 51.2366 30.4397 51.2366C30.6775 51.2366 30.9149 51.1449 31.0965 50.9634L31.0965 50.9634L31.0997 50.9601L32.8729 49.1203C33.1506 48.8326 33.5209 48.6463 33.9188 48.5966H34.133L39.5597 48.5966L39.561 48.5966C42.3391 48.5827 44.7968 46.7084 45.547 44.0411C45.547 44.041 45.547 44.041 45.547 44.041L48.2099 34.5876C48.2154 34.573 48.2192 34.5594 48.2219 34.5481L50.8174 32.57H50.8717L50.9392 32.5178C51.3416 32.2068 51.4154 31.6365 51.1042 31.2338L51.1042 31.2337L51.1007 31.2293C50.7951 30.8519 50.2296 30.7531 49.821 31.0682C49.8207 31.0684 49.8204 31.0686 49.8202 31.0688L46.7289 33.4166Z" fill="#6C4DF6" stroke="#6C4DF6" stroke-width="0.5"/>
</g>
<defs>
<linearGradient id="paint0_linear_1810_2655" x1="35.167" y1="0" x2="35.167" y2="70" gradientUnits="userSpaceOnUse">
<stop stop-color="#EBE7FE"/>
<stop offset="1" stop-color="white" stop-opacity="0"/>
</linearGradient>
<clipPath id="clip0_1810_2655">
<rect width="32" height="32" fill="white" transform="translate(19 19)"/>
</clipPath>
</defs>
</svg>
