<svg width="63" height="63" viewBox="0 0 63 63" fill="none" xmlns="http://www.w3.org/2000/svg">
<path fill-rule="evenodd" clip-rule="evenodd" d="M27.6734 14.8992C34.6367 13.2903 41.5895 16.2009 45.4591 21.7148L14.6792 28.8167C15.7365 22.1678 20.7102 16.5081 27.6734 14.8992ZM45.631 41.0369C43.303 44.4838 39.7146 47.0923 35.3398 48.0972C28.3297 49.7165 21.3352 46.7539 17.4812 41.1775L48.36 34.0495L53.3858 32.8884L63 30.6703C62.9427 28.6033 62.6823 26.505 62.198 24.4171C58.2867 7.46921 41.3708 -3.10042 24.4184 0.815031C7.47122 4.72527 -3.10123 21.6367 0.815262 38.5845C4.72655 55.5324 21.6425 66.0968 38.5948 62.1866C48.584 59.88 56.3493 53.0592 60.2501 44.3848L45.631 41.0369Z" fill="#F05537"/>
</svg>
