<svg width="18" height="18" viewBox="0 0 18 18" fill="none" xmlns="http://www.w3.org/2000/svg">
<g clip-path="url(#clip0_1037_4749)">
<path d="M12 5.99932L1.5 16.4993M13.5 11.2493H6.75M4.95 14.2493H10.0029C10.1864 14.2493 10.2781 14.2493 10.3644 14.2286C10.441 14.2102 10.5141 14.1799 10.5812 14.1388C10.6569 14.0924 10.7218 14.0276 10.8515 13.8978L14.625 10.1243C14.8042 9.9451 14.8938 9.85549 14.9659 9.77615C16.5261 8.05981 16.5261 5.43883 14.9659 3.72249C14.8938 3.64315 14.8042 3.55354 14.625 3.37432C14.4458 3.1951 14.3562 3.10549 14.2768 3.03337C12.5605 1.47325 9.93951 1.47325 8.22317 3.03337C8.14383 3.10549 8.05422 3.1951 7.875 3.37432L4.10147 7.14785C3.97176 7.27756 3.9069 7.34242 3.86052 7.41811C3.8194 7.48521 3.7891 7.55837 3.77072 7.6349C3.75 7.72121 3.75 7.81293 3.75 7.99638V13.0493C3.75 13.4694 3.75 13.6794 3.83175 13.8398C3.90365 13.9809 4.01839 14.0957 4.15951 14.1676C4.31994 14.2493 4.52996 14.2493 4.95 14.2493Z" stroke="#6D7685" stroke-width="2" stroke-linecap="round" stroke-linejoin="round"/>
</g>
<defs>
<clipPath id="clip0_1037_4749">
<rect width="18" height="18" fill="white"/>
</clipPath>
</defs>
</svg>
