<svg width="12" height="14" viewBox="0 0 12 14" fill="none" xmlns="http://www.w3.org/2000/svg">
<path fill-rule="evenodd" clip-rule="evenodd" d="M6.8157 0.63177C7.05324 0.734885 7.19437 0.982258 7.16225 1.23922L6.66088 5.2502H11.2501C11.4764 5.2502 11.6823 5.38113 11.7783 5.5861C11.8744 5.79108 11.8431 6.03309 11.6982 6.20697L5.86488 13.207C5.6991 13.4059 5.42202 13.4717 5.18448 13.3686C4.94693 13.2655 4.80581 13.0181 4.83793 12.7612L5.3393 8.7502H0.750088C0.523745 8.7502 0.317833 8.61926 0.221828 8.41429C0.125823 8.20931 0.157058 7.9673 0.301959 7.79342L6.13529 0.793421C6.30107 0.594485 6.57816 0.528654 6.8157 0.63177ZM1.99553 7.58353H6.00009C6.16741 7.58353 6.32667 7.65538 6.4374 7.78081C6.54813 7.90625 6.59967 8.07319 6.57892 8.23922L6.24237 10.9316L10.0046 6.41686H6.00009C5.83277 6.41686 5.67351 6.34502 5.56278 6.21958C5.45204 6.09415 5.40051 5.9272 5.42126 5.76118L5.75781 3.0688L1.99553 7.58353Z" fill="#EDB01C"/>
<path d="M6.00009 7.58353H1.99553L5.75781 3.0688L5.42126 5.76118C5.40051 5.9272 5.45204 6.09415 5.56278 6.21958C5.67351 6.34502 5.83277 6.41686 6.00009 6.41686H10.0046L6.24237 10.9316L6.57892 8.23922C6.59967 8.07319 6.54813 7.90625 6.4374 7.78081C6.32667 7.65538 6.16741 7.58353 6.00009 7.58353Z" fill="#EDB01C"/>
</svg>
