<svg width="73" height="23" viewBox="0 0 73 23" fill="none" xmlns="http://www.w3.org/2000/svg">
<rect x="0.338235" y="0.338235" width="72.1471" height="22.3235" rx="5.07353" fill="#F8F9FB"/>
<rect x="0.338235" y="0.338235" width="72.1471" height="22.3235" rx="5.07353" stroke="#DDD6FD" stroke-width="0.676471"/>
<path d="M9.01907 14.6665C7.12773 14.6665 5.95315 13.3254 5.95315 11.1705V11.1612C5.95315 8.99707 7.1231 7.66064 9.01445 7.66064C10.5312 7.66064 11.6827 8.6225 11.8399 9.98667V10.0237H10.67L10.6653 10.0052C10.4942 9.21441 9.85607 8.69187 9.01445 8.69187C7.88149 8.69187 7.17397 9.63985 7.17397 11.1566V11.1659C7.17397 12.6873 7.88149 13.6353 9.01907 13.6353C9.86532 13.6353 10.4942 13.1636 10.6653 12.4283L10.67 12.4052H11.8399V12.4376C11.6642 13.774 10.559 14.6665 9.01907 14.6665ZM15.3289 14.6017C13.8121 14.6017 12.8965 13.6121 12.8965 11.9751V11.9659C12.8965 10.3427 13.8259 9.34852 15.3289 9.34852C16.8364 9.34852 17.7612 10.3381 17.7612 11.9659V11.9751C17.7612 13.6121 16.841 14.6017 15.3289 14.6017ZM15.3289 13.6676C16.1289 13.6676 16.582 13.0433 16.582 11.9798V11.9705C16.582 10.9069 16.1242 10.278 15.3289 10.278C14.5288 10.278 14.071 10.9069 14.071 11.9705V11.9798C14.071 13.0433 14.5288 13.6676 15.3289 13.6676ZM19.012 14.5V9.44563H20.1635V10.2318H20.2421C20.4594 9.6676 20.9681 9.34852 21.6294 9.34852C22.3138 9.34852 22.8132 9.69997 23.0305 10.2595H23.1092C23.3542 9.70921 23.9369 9.34852 24.6398 9.34852C25.6572 9.34852 26.2676 9.9728 26.2676 11.0225V14.5H25.1161V11.3046C25.1161 10.6479 24.8155 10.315 24.2005 10.315C23.5993 10.315 23.2109 10.7636 23.2109 11.3416V14.5H22.0594V11.2214C22.0594 10.6618 21.7126 10.315 21.1485 10.315C20.5797 10.315 20.1635 10.7959 20.1635 11.4248V14.5H19.012ZM28.3184 8.59938C27.9392 8.59938 27.6293 8.2988 27.6293 7.91961C27.6293 7.54504 27.9392 7.23983 28.3184 7.23983C28.6929 7.23983 29.0028 7.54504 29.0028 7.91961C29.0028 8.2988 28.6929 8.59938 28.3184 8.59938ZM27.7403 14.5V9.44563H28.8918V14.5H27.7403ZM30.4015 14.5V9.44563H31.553V10.2179H31.6316C31.872 9.67684 32.3576 9.34852 33.0882 9.34852C34.2166 9.34852 34.8316 10.0283 34.8316 11.2306V14.5H33.6801V11.4988C33.6801 10.7127 33.3611 10.315 32.6628 10.315C31.9784 10.315 31.553 10.7959 31.553 11.5543V14.5H30.4015ZM38.4593 16.2757C37.1275 16.2757 36.3275 15.7069 36.2119 14.8561L36.2165 14.8422H37.3679L37.3726 14.8561C37.4512 15.1798 37.835 15.4064 38.4778 15.4064C39.2639 15.4064 39.7217 15.041 39.7217 14.3936V13.4272H39.6431C39.3518 13.9682 38.8015 14.2642 38.1032 14.2642C36.8223 14.2642 36.0269 13.2746 36.0269 11.841V11.8318C36.0269 10.3705 36.8223 9.36239 38.1263 9.36239C38.8246 9.36239 39.3703 9.70459 39.657 10.278H39.7171V9.44563H40.8685V14.3751C40.8685 15.5405 39.9344 16.2757 38.4593 16.2757ZM38.4593 13.3485C39.2593 13.3485 39.7402 12.7335 39.7402 11.841V11.8318C39.7402 10.9393 39.2547 10.3196 38.4593 10.3196C37.6593 10.3196 37.2061 10.9393 37.2061 11.8318V11.841C37.2061 12.7335 37.6593 13.3485 38.4593 13.3485ZM46.9031 14.6017C45.6175 14.6017 44.8406 14.0098 44.7435 13.1543V13.1451H45.8857L45.8904 13.1543C46.0106 13.5058 46.3482 13.7509 46.9216 13.7509C47.495 13.7509 47.8927 13.4919 47.8927 13.1127V13.1035C47.8927 12.8075 47.6707 12.6133 47.1158 12.4884L46.2973 12.3035C45.3354 12.0907 44.8776 11.6376 44.8776 10.893V10.8884C44.8776 9.97742 45.71 9.34852 46.9031 9.34852C48.1332 9.34852 48.8684 9.95893 48.9424 10.7774V10.7867H47.8603L47.8557 10.7728C47.7725 10.4537 47.4395 10.1948 46.8985 10.1948C46.3852 10.1948 46.0152 10.4445 46.0152 10.8237V10.8283C46.0152 11.1243 46.2279 11.3046 46.7736 11.4295L47.5921 11.6098C48.5817 11.8318 49.0488 12.2526 49.0488 12.9879V12.9971C49.0488 13.959 48.147 14.6017 46.9031 14.6017ZM52.4868 14.6017C50.9701 14.6017 50.0545 13.6121 50.0545 11.9751V11.9659C50.0545 10.3427 50.9839 9.34852 52.4868 9.34852C53.9944 9.34852 54.9192 10.3381 54.9192 11.9659V11.9751C54.9192 13.6121 53.999 14.6017 52.4868 14.6017ZM52.4868 13.6676C53.2869 13.6676 53.74 13.0433 53.74 11.9798V11.9705C53.74 10.9069 53.2822 10.278 52.4868 10.278C51.6868 10.278 51.229 10.9069 51.229 11.9705V11.9798C51.229 13.0433 51.6868 13.6676 52.4868 13.6676ZM58.3527 14.6017C56.8359 14.6017 55.9203 13.6121 55.9203 11.9751V11.9659C55.9203 10.3427 56.8498 9.34852 58.3527 9.34852C59.8602 9.34852 60.7851 10.3381 60.7851 11.9659V11.9751C60.7851 13.6121 59.8648 14.6017 58.3527 14.6017ZM58.3527 13.6676C59.1527 13.6676 59.6059 13.0433 59.6059 11.9798V11.9705C59.6059 10.9069 59.1481 10.278 58.3527 10.278C57.5527 10.278 57.0949 10.9069 57.0949 11.9705V11.9798C57.0949 13.0433 57.5527 13.6676 58.3527 13.6676ZM62.0359 14.5V9.44563H63.1873V10.2179H63.2659C63.5064 9.67684 63.9919 9.34852 64.7226 9.34852C65.8509 9.34852 66.466 10.0283 66.466 11.2306V14.5H65.3145V11.4988C65.3145 10.7127 64.9954 10.315 64.2972 10.315C63.6128 10.315 63.1873 10.7959 63.1873 11.5543V14.5H62.0359Z" fill="#6C4DF6"/>
</svg>
