<svg width="35" height="35" viewBox="0 0 35 35" fill="none" xmlns="http://www.w3.org/2000/svg">
<rect width="35" height="35" rx="17.5" fill="#5558DC"/>
<path d="M20.428 13.8052C21.0233 13.2304 21.8112 12.8958 22.639 12.8663L22.6653 13.6457C22.0316 13.6683 21.4283 13.9245 20.9726 14.3645C20.5168 14.8046 20.2411 15.3972 20.1988 16.0274L19.4174 15.977C19.4726 15.1539 19.8328 14.3799 20.428 13.8052Z" fill="url(#paint0_linear_1146_7762)"/>
<path fill-rule="evenodd" clip-rule="evenodd" d="M19.5722 11.241C18.4631 11.9369 16.7738 11.9375 15.6669 11.2381C14.4584 10.4746 13.0312 10.1154 11.5982 10.2143C10.1652 10.3132 8.80305 10.8648 7.71493 11.7869C6.62681 12.709 5.87098 13.9521 5.56016 15.3309C5.24934 16.7098 5.40018 18.1504 5.99017 19.4381C6.58017 20.7258 7.57772 21.7915 8.83407 22.4763C10.0904 23.1612 11.5383 23.4284 12.9618 23.2383C14.1012 23.0861 15.1761 22.6473 16.0853 21.9708C16.4601 21.692 16.4624 21.1503 16.1323 20.8198C15.8093 20.4966 15.2899 20.4995 14.9142 20.7595C14.1052 21.3195 13.119 21.6483 12.0549 21.6483C9.30615 21.6483 7.07782 19.4544 7.07782 16.7481C7.07782 14.0417 9.30615 11.8478 12.0549 11.8478C14.189 11.8478 16.0093 13.1702 16.7168 15.028C16.7182 15.0318 16.7224 15.0337 16.7262 15.0323C16.7318 15.0302 16.7373 15.0354 16.7358 15.0411C16.5813 15.5988 16.4988 16.1863 16.4988 16.7931C16.4988 20.4105 19.4313 23.343 23.0486 23.343C23.6471 23.343 24.2268 23.2627 24.7776 23.1124C25.5834 22.8924 26.5014 23.143 26.9017 23.8762L27.0873 24.2163C27.3853 24.7621 28.0694 24.9631 28.6152 24.6651C29.1611 24.3671 29.3621 23.6831 29.0641 23.1372L28.6395 22.3593C28.234 21.6165 28.3646 20.7126 28.7761 19.9731C29.3 19.0315 29.5985 17.9472 29.5985 16.7931C29.5985 13.1757 26.666 10.2433 23.0486 10.2433C21.7715 10.2433 20.5797 10.6088 19.5722 11.241ZM27.9004 16.8174C27.9004 19.5237 25.7065 21.7176 23.0001 21.7176C20.2938 21.7176 18.0999 19.5237 18.0999 16.8174C18.0999 14.111 20.2938 11.9171 23.0001 11.9171C25.7065 11.9171 27.9004 14.111 27.9004 16.8174Z" fill="url(#paint1_linear_1146_7762)"/>
<defs>
<linearGradient id="paint0_linear_1146_7762" x1="17.5117" y1="11.4362" x2="17.5117" y2="24.7835" gradientUnits="userSpaceOnUse">
<stop offset="0.372027" stop-color="#F9F9FC"/>
<stop offset="1" stop-color="#F9F9FC" stop-opacity="0.5"/>
</linearGradient>
<linearGradient id="paint1_linear_1146_7762" x1="17.5117" y1="11.4362" x2="17.5117" y2="24.7835" gradientUnits="userSpaceOnUse">
<stop offset="0.372027" stop-color="#F9F9FC"/>
<stop offset="1" stop-color="#F9F9FC" stop-opacity="0.5"/>
</linearGradient>
</defs>
</svg>
