<svg width="650" height="784" viewBox="0 0 650 784" fill="none" xmlns="http://www.w3.org/2000/svg">
<path opacity="0.6" d="M476 245L355 74" stroke="url(#paint0_linear)" stroke-width="22.5287" stroke-dasharray="1.94 2.91"/>
<path opacity="0.6" d="M132 285L362 393" stroke="url(#paint1_linear)" stroke-width="22.5287" stroke-dasharray="1.94 2.91"/>
<path opacity="0.6" d="M132 285L221 694" stroke="url(#paint2_linear)" stroke-width="22.5287" stroke-dasharray="1.94 2.91"/>
<path opacity="0.6" d="M471.777 285L510.638 572.164" stroke="url(#paint3_linear)" stroke-width="22.5287" stroke-dasharray="1.94 2.91"/>
<path opacity="0.6" d="M119 264L303.608 110.447" stroke="url(#paint4_linear)" stroke-width="22.5287" stroke-dasharray="1.94 2.91"/>
<path opacity="0.6" d="M217.907 696.92L361.892 421.11" stroke="url(#paint5_linear)" stroke-width="22.5287" stroke-dasharray="1.94 2.91"/>
<path opacity="0.6" d="M229 714L498 559" stroke="url(#paint6_linear)" stroke-width="22.5287" stroke-dasharray="1.94 2.91"/>
<line opacity="0.6" x1="344.221" y1="74.0141" x2="374.547" y2="419.155" stroke="url(#paint7_linear)" stroke-width="22.5287" stroke-dasharray="1.94 2.91"/>
<path opacity="0.6" d="M465 247L382 421" stroke="url(#paint8_linear)" stroke-width="22.5287" stroke-dasharray="1.94 2.91"/>
<rect x="387" y="208" width="189" height="74" rx="7.84427" fill="#3E3563"/>
<rect x="167" y="656" width="189" height="74" rx="7.84427" fill="#3E3563"/>
<rect x="415" y="517" width="189" height="74" rx="7.84427" fill="#3E3563"/>
<rect x="47" y="234" width="206" height="74" rx="7.84427" fill="#3E3563"/>
<rect x="265" y="47" width="166" height="74" rx="7.84427" fill="#3E3563"/>
<path d="M462.887 231.491C461.736 230.474 460.258 230.071 458.723 230.071C456.057 230.071 453.543 231.587 453.543 234.484C453.543 239.012 459.913 237.669 459.913 240.163C459.913 241.122 458.819 241.583 457.841 241.583C456.843 241.583 455.845 241.103 455.232 240.297L453.102 242.638C454.387 243.827 455.922 244.345 457.668 244.345C460.469 244.345 462.906 242.906 462.906 239.875C462.906 235.117 456.651 236.709 456.651 234.234C456.651 233.218 457.822 232.834 458.666 232.834C459.395 232.834 460.354 233.122 460.834 233.736L462.887 231.491ZM470.623 244H473.27V239.261C473.27 236.153 472.369 234.445 469.011 234.445C467.495 234.445 465.961 234.944 464.905 235.942L466.44 237.515C467.054 236.824 467.841 236.402 468.781 236.402C469.779 236.402 470.623 237.055 470.623 238.072C468.225 238.072 464.311 238.129 464.311 241.352C464.311 243.233 465.884 244.23 467.63 244.23C468.8 244.23 469.951 243.827 470.584 242.83H470.623V244ZM470.623 239.913V240.527C470.623 241.679 469.568 242.273 468.436 242.273C467.802 242.273 467.073 241.947 467.073 241.256C467.073 239.99 469.03 239.913 469.913 239.913H470.623ZM475.345 244H477.992V242.772H478.031C478.472 243.444 479.585 244.23 480.889 244.23C483.652 244.23 485.475 242.235 485.475 239.415C485.475 236.824 483.863 234.445 481.215 234.445C480.026 234.445 478.913 234.772 478.261 235.673H478.222V229.495H475.345V244ZM477.992 239.338C477.992 237.937 478.856 236.978 480.295 236.978C481.734 236.978 482.597 237.937 482.597 239.338C482.597 240.738 481.734 241.698 480.295 241.698C478.856 241.698 477.992 240.738 477.992 239.338ZM487.161 244H490.039V240.105C490.039 238.244 490.307 236.978 492.495 236.978C492.917 236.978 493.32 237.055 493.722 237.17V234.541C493.454 234.465 493.089 234.445 492.763 234.445C491.497 234.445 490.691 235.04 490.077 236.172H490.039V234.676H487.161V244ZM495.012 244H497.89V234.676H495.012V244ZM494.782 231.74C494.782 232.661 495.53 233.409 496.451 233.409C497.372 233.409 498.12 232.661 498.12 231.74C498.12 230.819 497.372 230.071 496.451 230.071C495.53 230.071 494.782 230.819 494.782 231.74ZM499.958 244H502.836V239.357C502.836 238.148 503.066 236.978 504.562 236.978C506.04 236.978 506.059 238.359 506.059 239.434V244H508.937V238.858C508.937 236.364 508.399 234.445 505.483 234.445C504.083 234.445 503.143 235.213 502.759 235.942H502.72V234.676H499.958V244ZM516.826 244H519.474V239.261C519.474 236.153 518.572 234.445 515.215 234.445C513.699 234.445 512.164 234.944 511.109 235.942L512.644 237.515C513.258 236.824 514.044 236.402 514.984 236.402C515.982 236.402 516.826 237.055 516.826 238.072C514.428 238.072 510.514 238.129 510.514 241.352C510.514 243.233 512.087 244.23 513.833 244.23C515.004 244.23 516.155 243.827 516.788 242.83H516.826V244ZM516.826 239.913V240.527C516.826 241.679 515.771 242.273 514.639 242.273C514.006 242.273 513.277 241.947 513.277 241.256C513.277 239.99 515.234 239.913 516.116 239.913H516.826Z" fill="#EAF2FB"/>
<path d="M459.259 260H461.323L462.031 258.2H465.331L466.063 260H468.175L464.479 251.504H462.931L459.259 260ZM464.695 256.616H462.619L463.651 253.976L464.695 256.616ZM474.922 250.928H473.122V254.792H473.098C472.69 254.228 471.994 254.024 471.25 254.024C469.594 254.024 468.586 255.512 468.586 257.132C468.586 258.896 469.726 260.144 471.454 260.144C472.27 260.144 472.966 259.652 473.242 259.232H473.266V260H474.922V250.928ZM473.266 257.084C473.266 257.96 472.726 258.56 471.826 258.56C470.926 258.56 470.386 257.96 470.386 257.084C470.386 256.208 470.926 255.608 471.826 255.608C472.726 255.608 473.266 256.208 473.266 257.084ZM478.161 260H480.069L482.373 254.168H480.561L479.193 258.128H479.169L477.693 254.168H475.749L478.161 260ZM482.813 257.084C482.813 258.944 484.253 260.144 486.053 260.144C487.853 260.144 489.293 258.944 489.293 257.084C489.293 255.224 487.853 254.024 486.053 254.024C484.253 254.024 482.813 255.224 482.813 257.084ZM484.613 257.084C484.613 256.208 485.153 255.608 486.053 255.608C486.953 255.608 487.493 256.208 487.493 257.084C487.493 257.96 486.953 258.56 486.053 258.56C485.153 258.56 484.613 257.96 484.613 257.084ZM495.489 254.804C494.925 254.228 494.097 254.024 493.413 254.024C491.613 254.024 490.173 255.224 490.173 257.084C490.173 258.944 491.613 260.144 493.413 260.144C494.097 260.144 494.925 259.94 495.489 259.364L494.301 258.116C494.097 258.356 493.809 258.56 493.413 258.56C492.513 258.56 491.973 257.96 491.973 257.084C491.973 256.208 492.513 255.608 493.413 255.608C493.785 255.608 494.121 255.8 494.301 256.052L495.489 254.804ZM499.802 260H501.458V257.036C501.458 255.092 500.894 254.024 498.794 254.024C497.846 254.024 496.886 254.336 496.226 254.96L497.186 255.944C497.57 255.512 498.062 255.248 498.65 255.248C499.274 255.248 499.802 255.656 499.802 256.292C498.302 256.292 495.854 256.328 495.854 258.344C495.854 259.52 496.838 260.144 497.93 260.144C498.662 260.144 499.382 259.892 499.778 259.268H499.802V260ZM499.802 257.444V257.828C499.802 258.548 499.142 258.92 498.434 258.92C498.038 258.92 497.582 258.716 497.582 258.284C497.582 257.492 498.806 257.444 499.358 257.444H499.802ZM506.559 254.168H504.975V252.44H503.175V254.168H502.023V255.608H503.175V258.38C503.175 259.652 504.099 260.144 505.299 260.144C505.719 260.144 506.163 260.108 506.559 259.964V258.464C506.403 258.608 506.019 258.632 505.827 258.632C505.047 258.632 504.975 258.176 504.975 257.552V255.608H506.559V254.168ZM511.734 258.068C511.434 258.476 511.038 258.776 510.45 258.776C509.754 258.776 509.238 258.332 509.094 257.648H513.27V257.084C513.27 255.224 512.214 254.024 510.534 254.024C508.734 254.024 507.294 255.224 507.294 257.084C507.294 258.944 508.734 260.144 510.534 260.144C511.47 260.144 512.418 259.724 512.994 258.992L511.734 258.068ZM509.094 256.424C509.142 255.86 509.574 255.32 510.366 255.32C511.014 255.32 511.482 255.824 511.47 256.424H509.094Z" fill="#EAF2FB"/>
<path d="M253.359 703.752C253.359 706.476 255.291 708.216 257.943 708.216C260.595 708.216 262.527 706.476 262.527 703.752C262.527 701.028 260.595 699.288 257.943 699.288C255.291 699.288 253.359 701.028 253.359 703.752ZM255.303 703.752C255.303 702.168 256.347 701.016 257.943 701.016C259.539 701.016 260.583 702.168 260.583 703.752C260.583 705.336 259.539 706.488 257.943 706.488C256.347 706.488 255.303 705.336 255.303 703.752ZM263.74 710.736H265.54V707.376H265.564C265.972 707.94 266.668 708.144 267.412 708.144C269.068 708.144 270.076 706.656 270.076 705.036C270.076 703.272 268.936 702.024 267.208 702.024C266.392 702.024 265.696 702.516 265.42 702.936H265.396V702.168H263.74V710.736ZM265.396 705.084C265.396 704.208 265.936 703.608 266.836 703.608C267.736 703.608 268.276 704.208 268.276 705.084C268.276 705.96 267.736 706.56 266.836 706.56C265.936 706.56 265.396 705.96 265.396 705.084ZM275.534 702.792C274.994 702.216 274.142 702.024 273.374 702.024C272.15 702.024 270.926 702.624 270.926 703.992C270.926 706.212 273.962 705.42 273.962 706.356C273.962 706.668 273.554 706.776 273.146 706.776C272.606 706.776 272.21 706.548 271.874 706.14L270.782 707.352C271.358 707.94 272.258 708.144 273.074 708.144C274.322 708.144 275.762 707.712 275.762 706.224C275.762 704.004 272.726 704.736 272.726 703.872C272.726 703.524 273.086 703.392 273.386 703.392C273.818 703.392 274.166 703.56 274.43 703.884L275.534 702.792Z" fill="#EAF2FB"/>
<path d="M488.466 552H491.459V546.57H492.936L495.776 552H499.363L495.91 546.263C497.828 545.918 498.845 544.441 498.845 542.541C498.845 539.376 496.505 538.416 493.723 538.416H488.466V552ZM491.459 540.949H493.416C494.509 540.949 495.737 541.16 495.737 542.522C495.737 543.999 494.317 544.038 493.224 544.038H491.459V540.949ZM506.394 552H509.041V547.261C509.041 544.153 508.14 542.445 504.782 542.445C503.266 542.445 501.732 542.944 500.676 543.942L502.211 545.515C502.825 544.824 503.612 544.402 504.552 544.402C505.55 544.402 506.394 545.055 506.394 546.072C503.995 546.072 500.082 546.129 500.082 549.352C500.082 551.233 501.655 552.23 503.401 552.23C504.571 552.23 505.722 551.827 506.355 550.83H506.394V552ZM506.394 547.913V548.527C506.394 549.679 505.338 550.273 504.207 550.273C503.573 550.273 502.844 549.947 502.844 549.256C502.844 547.99 504.801 547.913 505.684 547.913H506.394ZM510.885 552H513.763V537.495H510.885V552ZM516.099 556.374H518.977V551.002H519.016C519.668 551.904 520.781 552.23 521.97 552.23C524.618 552.23 526.23 549.851 526.23 547.261C526.23 544.441 524.407 542.445 521.644 542.445C520.339 542.445 519.227 543.232 518.785 543.904H518.747V542.676H516.099V556.374ZM518.747 547.338C518.747 545.937 519.61 544.978 521.049 544.978C522.488 544.978 523.352 545.937 523.352 547.338C523.352 548.738 522.488 549.698 521.049 549.698C519.61 549.698 518.747 548.738 518.747 547.338ZM527.916 537.495V552H530.794V547.357C530.794 546.148 531.024 544.978 532.52 544.978C533.998 544.978 534.017 546.359 534.017 547.434V552H536.895V546.858C536.895 544.364 536.357 542.445 533.441 542.445C532.041 542.445 531.1 543.213 530.832 543.942H530.794V537.495H527.916Z" fill="#EAF2FB"/>
<path d="M504.399 560.176C503.679 559.54 502.755 559.288 501.795 559.288C500.127 559.288 498.555 560.236 498.555 562.048C498.555 564.88 502.539 564.04 502.539 565.6C502.539 566.2 501.855 566.488 501.243 566.488C500.619 566.488 499.995 566.188 499.611 565.684L498.279 567.148C499.083 567.892 500.043 568.216 501.135 568.216C502.887 568.216 504.411 567.316 504.411 565.42C504.411 562.444 500.499 563.44 500.499 561.892C500.499 561.256 501.231 561.016 501.759 561.016C502.215 561.016 502.815 561.196 503.115 561.58L504.399 560.176ZM509.237 568H510.893V565.036C510.893 563.092 510.329 562.024 508.229 562.024C507.281 562.024 506.321 562.336 505.661 562.96L506.621 563.944C507.005 563.512 507.497 563.248 508.085 563.248C508.709 563.248 509.237 563.656 509.237 564.292C507.737 564.292 505.289 564.328 505.289 566.344C505.289 567.52 506.273 568.144 507.365 568.144C508.097 568.144 508.817 567.892 509.213 567.268H509.237V568ZM509.237 565.444V565.828C509.237 566.548 508.577 566.92 507.869 566.92C507.473 566.92 507.017 566.716 507.017 566.284C507.017 565.492 508.241 565.444 508.793 565.444H509.237ZM512.047 568H513.847V558.928H512.047V568ZM519.4 566.068C519.1 566.476 518.704 566.776 518.116 566.776C517.42 566.776 516.904 566.332 516.76 565.648H520.936V565.084C520.936 563.224 519.88 562.024 518.2 562.024C516.4 562.024 514.96 563.224 514.96 565.084C514.96 566.944 516.4 568.144 518.2 568.144C519.136 568.144 520.084 567.724 520.66 566.992L519.4 566.068ZM516.76 564.424C516.808 563.86 517.24 563.32 518.032 563.32C518.68 563.32 519.148 563.824 519.136 564.424H516.76ZM526.435 562.792C525.895 562.216 525.043 562.024 524.275 562.024C523.051 562.024 521.827 562.624 521.827 563.992C521.827 566.212 524.863 565.42 524.863 566.356C524.863 566.668 524.455 566.776 524.047 566.776C523.507 566.776 523.111 566.548 522.775 566.14L521.683 567.352C522.259 567.94 523.159 568.144 523.975 568.144C525.223 568.144 526.663 567.712 526.663 566.224C526.663 564.004 523.627 564.736 523.627 563.872C523.627 563.524 523.987 563.392 524.287 563.392C524.719 563.392 525.067 563.56 525.331 563.884L526.435 562.792Z" fill="#EAF2FB"/>
<path d="M127.4 261.942H122.086V264.705H124.522V266.911C123.966 267.218 123.007 267.583 121.702 267.583C119.15 267.583 117.481 265.741 117.481 263.208C117.481 260.676 119.15 258.834 121.702 258.834C123.218 258.834 124.196 259.275 125.002 260.119L127.113 257.817C125.75 256.551 123.851 256.071 121.702 256.071C117.462 256.071 114.373 258.853 114.373 263.208C114.373 267.563 117.462 270.345 121.702 270.345C123.697 270.345 125.635 269.962 127.4 269.041V261.942ZM136.481 266.911C136.002 267.563 135.369 268.043 134.429 268.043C133.316 268.043 132.491 267.333 132.261 266.24H138.937V265.338C138.937 262.364 137.249 260.445 134.563 260.445C131.685 260.445 129.383 262.364 129.383 265.338C129.383 268.312 131.685 270.23 134.563 270.23C136.059 270.23 137.575 269.559 138.496 268.388L136.481 266.911ZM132.261 264.283C132.337 263.381 133.028 262.518 134.294 262.518C135.33 262.518 136.079 263.323 136.059 264.283H132.261ZM140.342 265.338C140.342 268.312 142.644 270.23 145.522 270.23C148.4 270.23 150.702 268.312 150.702 265.338C150.702 262.364 148.4 260.445 145.522 260.445C142.644 260.445 140.342 262.364 140.342 265.338ZM143.22 265.338C143.22 263.937 144.083 262.978 145.522 262.978C146.961 262.978 147.824 263.937 147.824 265.338C147.824 266.738 146.961 267.698 145.522 267.698C144.083 267.698 143.22 266.738 143.22 265.338ZM152.397 270H155.275V266.105C155.275 264.244 155.544 262.978 157.731 262.978C158.153 262.978 158.556 263.055 158.959 263.17V260.541C158.69 260.465 158.326 260.445 158 260.445C156.733 260.445 155.928 261.04 155.314 262.172H155.275V260.676H152.397V270ZM169.995 260.676H167.348V261.904H167.309C166.868 261.232 165.755 260.445 164.124 260.445C161.477 260.445 159.865 262.824 159.865 265.299C159.865 268.12 161.688 270.115 164.451 270.115C165.314 270.115 166.427 269.789 167.079 268.887H167.117V269.789C167.117 271.113 166.292 272.072 164.546 272.072C163.376 272.072 162.398 271.612 161.515 270.863L159.923 273.242C161.266 274.317 162.954 274.605 164.604 274.605C168.211 274.605 169.995 272.724 169.995 269.213V260.676ZM162.743 265.28C162.743 264.072 163.741 262.978 165.045 262.978C166.35 262.978 167.348 264.072 167.348 265.28C167.348 266.489 166.35 267.583 165.045 267.583C163.741 267.583 162.743 266.489 162.743 265.28ZM179.106 266.911C178.627 267.563 177.994 268.043 177.053 268.043C175.941 268.043 175.116 267.333 174.885 266.24H181.562V265.338C181.562 262.364 179.874 260.445 177.188 260.445C174.31 260.445 172.008 262.364 172.008 265.338C172.008 268.312 174.31 270.23 177.188 270.23C178.684 270.23 180.2 269.559 181.121 268.388L179.106 266.911ZM174.885 264.283C174.962 263.381 175.653 262.518 176.919 262.518C177.955 262.518 178.703 263.323 178.684 264.283H174.885ZM183.351 270H186.228V260.676H183.351V270ZM183.12 257.74C183.12 258.661 183.869 259.409 184.79 259.409C185.71 259.409 186.459 258.661 186.459 257.74C186.459 256.819 185.71 256.071 184.79 256.071C183.869 256.071 183.12 256.819 183.12 257.74Z" fill="#EAF2FB"/>
<path d="M122.026 286H123.898V279.484H123.922L126.07 286H127.498L129.73 279.484H129.754V286H131.626V277.504H128.806L126.838 283.048H126.814L124.858 277.504H122.026V286ZM136.79 286H138.446V283.036C138.446 281.092 137.882 280.024 135.782 280.024C134.834 280.024 133.874 280.336 133.214 280.96L134.174 281.944C134.558 281.512 135.05 281.248 135.638 281.248C136.262 281.248 136.79 281.656 136.79 282.292C135.29 282.292 132.842 282.328 132.842 284.344C132.842 285.52 133.826 286.144 134.918 286.144C135.65 286.144 136.37 285.892 136.766 285.268H136.79V286ZM136.79 283.444V283.828C136.79 284.548 136.13 284.92 135.422 284.92C135.026 284.92 134.57 284.716 134.57 284.284C134.57 283.492 135.794 283.444 136.346 283.444H136.79ZM139.575 286H141.375V283.564C141.375 282.4 141.543 281.608 142.911 281.608C143.175 281.608 143.427 281.656 143.679 281.728V280.084C143.511 280.036 143.283 280.024 143.079 280.024C142.287 280.024 141.783 280.396 141.399 281.104H141.375V280.168H139.575V286ZM144.462 286H146.262V283.048H146.286L148.254 286H150.522L148.146 282.796L150.462 280.168H148.254L146.262 282.472V276.928H144.462V286ZM155.39 284.068C155.09 284.476 154.694 284.776 154.106 284.776C153.41 284.776 152.894 284.332 152.75 283.648H156.926V283.084C156.926 281.224 155.87 280.024 154.19 280.024C152.39 280.024 150.95 281.224 150.95 283.084C150.95 284.944 152.39 286.144 154.19 286.144C155.126 286.144 156.074 285.724 156.65 284.992L155.39 284.068ZM152.75 282.424C152.798 281.86 153.23 281.32 154.022 281.32C154.67 281.32 155.138 281.824 155.126 282.424H152.75ZM161.993 280.168H160.409V278.44H158.609V280.168H157.457V281.608H158.609V284.38C158.609 285.652 159.533 286.144 160.733 286.144C161.153 286.144 161.597 286.108 161.993 285.964V284.464C161.837 284.608 161.453 284.632 161.261 284.632C160.481 284.632 160.409 284.176 160.409 283.552V281.608H161.993V280.168ZM162.931 286H164.731V280.168H162.931V286ZM162.787 278.332C162.787 278.908 163.255 279.376 163.831 279.376C164.407 279.376 164.875 278.908 164.875 278.332C164.875 277.756 164.407 277.288 163.831 277.288C163.255 277.288 162.787 277.756 162.787 278.332ZM166.025 286H167.825V283.096C167.825 282.34 167.969 281.608 168.905 281.608C169.829 281.608 169.841 282.472 169.841 283.144V286H171.641V282.784C171.641 281.224 171.305 280.024 169.481 280.024C168.605 280.024 168.017 280.504 167.777 280.96H167.753V280.168H166.025V286ZM179.035 280.168H177.379V280.936H177.355C177.079 280.516 176.383 280.024 175.363 280.024C173.707 280.024 172.699 281.512 172.699 283.06C172.699 284.824 173.839 286.072 175.567 286.072C176.107 286.072 176.803 285.868 177.211 285.304H177.235V285.868C177.235 286.696 176.719 287.296 175.627 287.296C174.895 287.296 174.283 287.008 173.731 286.54L172.735 288.028C173.575 288.7 174.631 288.88 175.663 288.88C177.919 288.88 179.035 287.704 179.035 285.508V280.168ZM174.499 283.048C174.499 282.292 175.123 281.608 175.939 281.608C176.755 281.608 177.379 282.292 177.379 283.048C177.379 283.804 176.755 284.488 175.939 284.488C175.123 284.488 174.499 283.804 174.499 283.048Z" fill="#EAF2FB"/>
<path d="M335.636 68.0664C334.485 66.5891 332.566 66.0711 331.05 66.0711C326.81 66.0711 323.721 68.853 323.721 73.2082C323.721 77.5634 326.81 80.3453 331.05 80.3453C332.911 80.3453 334.83 79.5971 335.962 77.9855L333.468 76.1245C332.854 77.0454 331.875 77.5826 330.667 77.5826C328.499 77.5826 326.83 75.7407 326.83 73.2082C326.83 70.6757 328.499 68.8338 330.763 68.8338C331.875 68.8338 332.739 69.2367 333.334 69.9466L335.636 68.0664ZM337.22 65.4955V80H340.098V75.357C340.098 74.1483 340.328 72.978 341.825 72.978C343.302 72.978 343.321 74.3594 343.321 75.4338V80H346.199V74.8582C346.199 72.364 345.662 70.4454 342.746 70.4454C341.345 70.4454 340.405 71.2129 340.136 71.9419H340.098V65.4955H337.22ZM348.275 80H351.153V65.4955H348.275V80ZM352.875 75.3378C352.875 78.3116 355.178 80.2302 358.056 80.2302C360.933 80.2302 363.236 78.3116 363.236 75.3378C363.236 72.364 360.933 70.4454 358.056 70.4454C355.178 70.4454 352.875 72.364 352.875 75.3378ZM355.753 75.3378C355.753 73.9373 356.617 72.978 358.056 72.978C359.495 72.978 360.358 73.9373 360.358 75.3378C360.358 76.7384 359.495 77.6977 358.056 77.6977C356.617 77.6977 355.753 76.7384 355.753 75.3378ZM371.742 76.9111C371.262 77.5634 370.629 78.043 369.689 78.043C368.576 78.043 367.751 77.3332 367.521 76.2396H374.198V75.3378C374.198 72.364 372.509 70.4454 369.823 70.4454C366.945 70.4454 364.643 72.364 364.643 75.3378C364.643 78.3116 366.945 80.2302 369.823 80.2302C371.32 80.2302 372.835 79.5587 373.756 78.3884L371.742 76.9111ZM367.521 74.2826C367.598 73.3809 368.288 72.5175 369.555 72.5175C370.591 72.5175 371.339 73.3233 371.32 74.2826H367.521Z" fill="#EAF2FB"/>
<path d="M325.423 88.536C324.703 87.612 323.503 87.288 322.555 87.288C319.903 87.288 317.971 89.028 317.971 91.752C317.971 94.476 319.903 96.216 322.555 96.216C323.719 96.216 324.919 95.748 325.627 94.74L324.067 93.576C323.683 94.152 323.071 94.488 322.315 94.488C320.959 94.488 319.915 93.336 319.915 91.752C319.915 90.168 320.959 89.016 322.375 89.016C323.071 89.016 323.611 89.268 323.983 89.712L325.423 88.536ZM326.197 93.084C326.197 94.944 327.637 96.144 329.437 96.144C331.237 96.144 332.677 94.944 332.677 93.084C332.677 91.224 331.237 90.024 329.437 90.024C327.637 90.024 326.197 91.224 326.197 93.084ZM327.997 93.084C327.997 92.208 328.537 91.608 329.437 91.608C330.337 91.608 330.877 92.208 330.877 93.084C330.877 93.96 330.337 94.56 329.437 94.56C328.537 94.56 327.997 93.96 327.997 93.084ZM333.738 96H335.538V93.096C335.538 92.34 335.682 91.608 336.618 91.608C337.446 91.608 337.422 92.484 337.422 92.916V96H339.222V92.916C339.222 92.196 339.486 91.608 340.314 91.608C340.902 91.608 341.106 92.064 341.106 92.604V96H342.906V92.556C342.906 91.14 342.426 90.024 340.842 90.024C339.978 90.024 339.414 90.324 338.994 91.068C338.682 90.36 338.01 90.024 337.194 90.024C336.318 90.024 335.73 90.504 335.49 90.96H335.466V90.168H333.738V96ZM344.179 96H345.979V93.096C345.979 92.34 346.123 91.608 347.059 91.608C347.887 91.608 347.863 92.484 347.863 92.916V96H349.663V92.916C349.663 92.196 349.927 91.608 350.755 91.608C351.343 91.608 351.547 92.064 351.547 92.604V96H353.347V92.556C353.347 91.14 352.867 90.024 351.283 90.024C350.419 90.024 349.855 90.324 349.435 91.068C349.123 90.36 348.451 90.024 347.635 90.024C346.759 90.024 346.171 90.504 345.931 90.96H345.907V90.168H344.179V96ZM360.236 90.168H358.436V93.072C358.436 93.828 358.292 94.56 357.356 94.56C356.432 94.56 356.42 93.696 356.42 93.024V90.168H354.62V93.384C354.62 94.944 354.956 96.144 356.78 96.144C357.656 96.144 358.244 95.664 358.484 95.208H358.508V96H360.236V90.168ZM361.511 96H363.311V93.096C363.311 92.34 363.455 91.608 364.391 91.608C365.315 91.608 365.327 92.472 365.327 93.144V96H367.127V92.784C367.127 91.224 366.791 90.024 364.967 90.024C364.091 90.024 363.503 90.504 363.263 90.96H363.239V90.168H361.511V96ZM368.426 96H370.226V90.168H368.426V96ZM368.282 88.332C368.282 88.908 368.75 89.376 369.326 89.376C369.902 89.376 370.37 88.908 370.37 88.332C370.37 87.756 369.902 87.288 369.326 87.288C368.75 87.288 368.282 87.756 368.282 88.332ZM375.491 90.168H373.907V88.44H372.107V90.168H370.955V91.608H372.107V94.38C372.107 95.652 373.031 96.144 374.231 96.144C374.651 96.144 375.095 96.108 375.491 95.964V94.464C375.335 94.608 374.951 94.632 374.759 94.632C373.979 94.632 373.907 94.176 373.907 93.552V91.608H375.491V90.168ZM382.406 90.168H380.558L379.274 94.02H379.25L377.75 90.168H375.806L378.362 96.048L378.23 96.384C377.978 97.02 377.846 97.368 377.03 97.368C376.73 97.368 376.466 97.308 376.19 97.188L375.95 98.664C376.382 98.808 376.838 98.88 377.294 98.88C379.01 98.88 379.286 98.184 379.766 96.948L382.406 90.168Z" fill="#EAF2FB"/>
<rect opacity="0.3" x="275" y="313" width="190.047" height="190.047" rx="9.21986" fill="url(#paint9_linear)"/>
<rect x="298.271" y="336.272" width="143.505" height="143.505" rx="9.21986" fill="url(#paint10_linear)"/>
<path fill-rule="evenodd" clip-rule="evenodd" d="M401.747 401.171C401.008 395.524 398.907 390.146 395.63 385.511C392.353 380.876 387.999 377.124 382.952 374.586C377.904 372.047 372.316 370.8 366.68 370.952C361.043 371.105 355.53 372.654 350.625 375.462C345.719 378.27 341.571 382.252 338.544 387.058C335.518 391.864 333.706 397.347 333.267 403.026C332.828 408.705 333.777 414.406 336.029 419.628C338.281 424.851 341.767 429.434 346.182 432.977C349.563 431.457 353.259 429.681 357.184 427.691C353.214 425.769 349.84 422.785 347.429 419.064C345.019 415.342 343.663 411.024 343.509 406.579C343.355 402.134 344.41 397.732 346.558 393.849C348.705 389.967 351.865 386.753 355.693 384.556C359.521 382.359 363.872 381.263 368.273 381.387C372.674 381.511 376.957 382.85 380.658 385.26C384.358 387.669 387.335 391.056 389.265 395.054C391.195 399.051 392.005 403.507 391.606 407.936C395.241 405.607 398.641 403.339 401.747 401.171ZM402.037 405.114C398.558 407.714 394.702 410.407 390.557 413.123C388.705 418.99 384.722 423.93 379.409 426.95C374.096 429.969 367.848 430.843 361.923 429.395C357.379 431.602 353.067 433.512 349.119 435.094C354.371 438.467 360.428 440.341 366.649 440.515C372.869 440.689 379.02 439.157 384.448 436.082C389.876 433.007 394.377 428.503 397.474 423.051C400.571 417.598 402.148 411.399 402.037 405.114V405.114Z" fill="#F1F2F3"/>
<path fill-rule="evenodd" clip-rule="evenodd" d="M408.045 432.465C408.826 432.465 409.591 432.232 410.241 431.794C410.891 431.355 411.398 430.732 411.697 430.003C411.997 429.274 412.076 428.471 411.924 427.696C411.771 426.922 411.395 426.21 410.843 425.652C410.291 425.093 409.587 424.713 408.82 424.559C408.053 424.404 407.259 424.483 406.537 424.785C405.815 425.087 405.197 425.599 404.763 426.255C404.329 426.912 404.097 427.684 404.097 428.473C404.097 429.531 404.513 430.546 405.253 431.294C405.993 432.043 406.997 432.464 408.045 432.465Z" fill="#F1F2F3"/>
<path fill-rule="evenodd" clip-rule="evenodd" d="M403.787 376.815C404.253 376.815 404.709 376.675 405.096 376.414C405.484 376.152 405.786 375.78 405.964 375.345C406.143 374.91 406.189 374.432 406.098 373.97C406.007 373.508 405.783 373.084 405.453 372.751C405.124 372.418 404.704 372.191 404.247 372.099C403.79 372.007 403.316 372.054 402.885 372.235C402.455 372.415 402.087 372.72 401.828 373.112C401.569 373.503 401.43 373.963 401.43 374.434C401.43 374.747 401.491 375.057 401.609 375.346C401.727 375.635 401.901 375.897 402.12 376.119C402.339 376.34 402.599 376.515 402.885 376.635C403.171 376.754 403.477 376.815 403.787 376.815V376.815Z" fill="#F1F2F3"/>
<path fill-rule="evenodd" clip-rule="evenodd" d="M324.486 417.265C325.108 417.265 325.716 417.078 326.232 416.729C326.749 416.38 327.152 415.884 327.389 415.304C327.627 414.723 327.688 414.085 327.566 413.469C327.444 412.853 327.144 412.288 326.704 411.844C326.264 411.401 325.703 411.099 325.093 410.978C324.483 410.857 323.851 410.921 323.278 411.163C322.704 411.404 322.214 411.812 321.87 412.336C321.526 412.859 321.343 413.473 321.345 414.101C321.348 414.941 321.68 415.746 322.269 416.339C322.857 416.932 323.655 417.265 324.486 417.265V417.265Z" fill="#F1F2F3"/>
<path fill-rule="evenodd" clip-rule="evenodd" d="M377.536 398.575C380.929 396.681 384.233 394.883 387.422 393.224C387.54 393.417 387.668 393.646 387.802 393.904C384.641 395.572 381.338 397.377 377.945 399.274L377.536 398.575ZM421.608 381.671C420.093 379.02 410.909 381.836 397.911 387.973C398.032 388.176 398.153 388.385 398.268 388.598C410.721 382.609 419.411 379.726 420.514 382.045C422.249 385.08 402.337 399.97 376.06 415.301C349.783 430.633 327.058 440.6 325.324 437.566C324.335 435.761 329.224 430.845 333.615 426.934C327.291 432.089 323.975 436.061 325.065 437.968C327.54 442.301 351.492 433.78 378.155 418.239C404.818 402.699 424.095 386.004 421.608 381.671Z" fill="#F1F2F3"/>
<path d="M374.412 401.095C373.85 400.121 373.64 398.98 373.818 397.867C373.995 396.754 374.55 395.738 375.386 394.992C376.222 394.246 377.289 393.815 378.404 393.775C379.52 393.734 380.614 394.086 381.502 394.769C382.389 395.453 383.014 396.426 383.271 397.523C383.527 398.621 383.399 399.774 382.908 400.786C382.417 401.798 381.593 402.607 380.578 403.075C379.562 403.543 378.418 403.64 377.339 403.35C376.725 403.195 376.149 402.915 375.646 402.528C375.142 402.14 374.722 401.653 374.412 401.095V401.095Z" fill="#F1F2F3"/>
<path d="M233.566 692H236.866L237.998 689.122H243.274L244.444 692H247.821L241.912 678.416H239.437L233.566 692ZM242.257 686.59H238.938L240.588 682.369L242.257 686.59ZM248.823 692H251.701V687.357C251.701 686.148 251.931 684.978 253.427 684.978C254.751 684.978 254.713 686.379 254.713 687.069V692H257.591V687.069C257.591 685.918 258.013 684.978 259.337 684.978C260.277 684.978 260.603 685.707 260.603 686.57V692H263.481V686.494C263.481 684.23 262.713 682.445 260.181 682.445C258.8 682.445 257.898 682.925 257.226 684.115C256.727 682.983 255.653 682.445 254.348 682.445C252.948 682.445 252.008 683.213 251.624 683.942H251.586V682.676H248.823V692ZM265.517 692H268.395V688.105C268.395 686.244 268.663 684.978 270.851 684.978C271.273 684.978 271.676 685.055 272.078 685.17V682.541C271.81 682.465 271.445 682.445 271.119 682.445C269.853 682.445 269.047 683.04 268.433 684.172H268.395V682.676H265.517V692ZM273.368 692H276.246V682.676H273.368V692ZM273.138 679.74C273.138 680.661 273.886 681.409 274.807 681.409C275.728 681.409 276.476 680.661 276.476 679.74C276.476 678.819 275.728 678.071 274.807 678.071C273.886 678.071 273.138 678.819 273.138 679.74ZM284.664 682.676H282.132V679.913H279.254V682.676H277.412V684.978H279.254V689.41C279.254 691.444 280.731 692.23 282.65 692.23C283.321 692.23 284.031 692.173 284.664 691.942V689.544C284.415 689.774 283.801 689.813 283.494 689.813C282.247 689.813 282.132 689.084 282.132 688.086V684.978H284.664V682.676ZM291.978 692H294.626V687.261C294.626 684.153 293.724 682.445 290.367 682.445C288.851 682.445 287.316 682.944 286.261 683.942L287.796 685.515C288.41 684.824 289.196 684.402 290.137 684.402C291.134 684.402 291.978 685.055 291.978 686.072C289.58 686.072 285.666 686.129 285.666 689.352C285.666 691.233 287.239 692.23 288.985 692.23C290.156 692.23 291.307 691.827 291.94 690.83H291.978V692ZM291.978 687.913V688.527C291.978 689.679 290.923 690.273 289.791 690.273C289.158 690.273 288.429 689.947 288.429 689.256C288.429 687.99 290.386 687.913 291.269 687.913H291.978Z" fill="#EAF2FB"/>
<defs>
<linearGradient id="paint0_linear" x1="415.557" y1="233.231" x2="415.557" y2="74.0002" gradientUnits="userSpaceOnUse">
<stop stop-color="#21174E"/>
<stop offset="1" stop-color="#69618F"/>
</linearGradient>
<linearGradient id="paint1_linear" x1="246.892" y1="292.433" x2="246.892" y2="393" gradientUnits="userSpaceOnUse">
<stop stop-color="#21174E"/>
<stop offset="1" stop-color="#69618F"/>
</linearGradient>
<linearGradient id="paint2_linear" x1="204.789" y1="475.139" x2="141.629" y2="501.131" gradientUnits="userSpaceOnUse">
<stop stop-color="#21174E"/>
<stop offset="1" stop-color="#69618F"/>
</linearGradient>
<linearGradient id="paint3_linear" x1="519.519" y1="414.278" x2="456.36" y2="440.27" gradientUnits="userSpaceOnUse">
<stop stop-color="#21174E"/>
<stop offset="1" stop-color="#69618F"/>
</linearGradient>
<linearGradient id="paint4_linear" x1="158.911" y1="170.199" x2="271.996" y2="207.161" gradientUnits="userSpaceOnUse">
<stop stop-color="#21174E"/>
<stop offset="1" stop-color="#69618F"/>
</linearGradient>
<linearGradient id="paint5_linear" x1="289.832" y1="677.937" x2="289.832" y2="421.11" gradientUnits="userSpaceOnUse">
<stop stop-color="#21174E"/>
<stop offset="1" stop-color="#69618F"/>
</linearGradient>
<linearGradient id="paint6_linear" x1="363.374" y1="703.332" x2="363.374" y2="559" gradientUnits="userSpaceOnUse">
<stop stop-color="#21174E"/>
<stop offset="1" stop-color="#69618F"/>
</linearGradient>
<linearGradient id="paint7_linear" x1="345.223" y1="99.8588" x2="366.382" y2="419.787" gradientUnits="userSpaceOnUse">
<stop stop-color="#21174E"/>
<stop offset="1" stop-color="#69618F"/>
</linearGradient>
<linearGradient id="paint8_linear" x1="423.539" y1="258.976" x2="423.539" y2="421" gradientUnits="userSpaceOnUse">
<stop stop-color="#21174E"/>
<stop offset="1" stop-color="#69618F"/>
</linearGradient>
<linearGradient id="paint9_linear" x1="269.299" y1="308.249" x2="465.047" y2="503.047" gradientUnits="userSpaceOnUse">
<stop offset="0.09375" stop-color="#FA00E9"/>
<stop offset="1" stop-color="#3860FF"/>
</linearGradient>
<linearGradient id="paint10_linear" x1="293.966" y1="332.684" x2="441.776" y2="479.777" gradientUnits="userSpaceOnUse">
<stop offset="0.09375" stop-color="#FA00E9"/>
<stop offset="1" stop-color="#3860FF"/>
</linearGradient>
</defs>
</svg>
