<svg width="17" height="20" viewBox="0 0 17 20" fill="none" xmlns="http://www.w3.org/2000/svg">
<g clip-path="url(#clip0_1889_18002)">
<path fill-rule="evenodd" clip-rule="evenodd" d="M14.1935 12.8725H15.9677V19.9693H0V12.8725H1.77419V18.1951H14.1935V12.8725Z" fill="#BBBBBB"/>
<path d="M3.70841 12.3448L12.4221 14.1763L12.7884 12.4344L4.0747 10.6021L3.70841 12.3448ZM4.86147 8.17242L12.9334 11.9318L13.6853 10.3174L5.61325 6.55806L4.86147 8.17242ZM7.09502 4.21226L13.9382 9.91081L15.0779 8.54226L8.2347 2.84387L7.09502 4.21226ZM11.5123 0L10.0832 1.0629L15.3974 8.20806L16.8265 7.14532L11.5123 0ZM3.54907 16.4206H12.42V14.6465H3.54907V16.4206Z" fill="#F58025"/>
</g>
<defs>
<clipPath id="clip0_1889_18002">
<rect width="16.7742" height="20" fill="white"/>
</clipPath>
</defs>
</svg>
