<svg width="512" height="211" viewBox="0 0 512 211" fill="none" xmlns="http://www.w3.org/2000/svg">
<g clip-path="url(#clip0_1295_11549)">
<path d="M98.7 91.8996H55.6C54.5 91.8996 53.6 92.7996 53.6 93.8996V115C53.6 116.1 54.5 117 55.6 117H72.4V143.2C72.4 143.2 68.6 144.5 58.2 144.5C45.9 144.5 28.7 140 28.7 102.2C28.7 64.3996 46.6 59.3996 63.4 59.3996C77.9 59.3996 84.2 61.9996 88.2 63.1996C89.5 63.5996 90.6 62.2996 90.6 61.1996L95.4 40.8996C95.4 40.3996 95.2 39.7996 94.6 39.2996C93 38.0996 83.1 32.5996 58.2 32.5996C29.5 32.5996 0 44.7996 0 103.6C0 162.4 33.8 171.2 62.2 171.2C85.8 171.2 100 161.1 100 161.1C100.6 160.8 100.7 160 100.7 159.6V93.8996C100.7 92.7996 99.8 91.8996 98.7 91.8996ZM320.5 39.9996C320.5 38.8996 319.6 37.9996 318.5 37.9996H294.3C293.2 37.9996 292.3 38.8996 292.3 39.9996V86.8996H254.5V39.9996C254.5 38.8996 253.6 37.9996 252.5 37.9996H228.3C227.2 37.9996 226.3 38.8996 226.3 39.9996V166.9C226.3 168 227.2 168.9 228.3 168.9H252.5C253.6 168.9 254.5 168 254.5 166.9V112.6H292.3L292.2 166.9C292.2 168 293.1 168.9 294.2 168.9H318.5C319.6 168.9 320.5 168 320.5 166.9V39.9996ZM144.4 56.8996C144.4 48.1996 137.4 41.0996 128.8 41.0996C120.2 41.0996 113.2 48.1996 113.2 56.8996C113.2 65.5996 120.2 72.6996 128.8 72.6996C137.4 72.6996 144.4 65.6996 144.4 56.8996ZM142.4 140.2V81.5996C142.4 80.4996 141.5 79.5996 140.4 79.5996H116.2C115.1 79.5996 114.1 80.6996 114.1 81.8996V165.8C114.1 168.3 115.6 169 117.6 169H139.4C141.8 169 142.4 167.8 142.4 165.8V140.2ZM413.2 79.5996H389.1C388 79.5996 387.1 80.4996 387.1 81.5996V143.8C387.1 143.8 381 148.3 372.3 148.3C363.6 148.3 361.3 144.4 361.3 135.9V81.5996C361.3 80.4996 360.4 79.5996 359.3 79.5996H334.9C333.8 79.5996 332.9 80.4996 332.9 81.5996V140C332.9 165.2 347 171.4 366.3 171.4C382.2 171.4 395 162.6 395 162.6C395 162.6 395.6 167.2 395.9 167.8C396.2 168.3 396.9 168.9 397.7 168.9L413.2 168.8C414.3 168.8 415.2 167.9 415.2 166.8V81.5996C415.2 80.4996 414.3 79.5996 413.2 79.5996ZM468.6 148.3C460.3 148 454.6 144.3 454.6 144.3V104.1C454.6 104.1 460.2 100.7 467 100.1C475.7 99.2996 484 101.9 484 122.6C484 144.4 480.3 148.7 468.6 148.3ZM478.1 76.7996C464.4 76.7996 455.1 82.8996 455.1 82.8996V39.8996C455.1 38.7996 454.2 37.8996 453.1 37.8996H428.8C427.7 37.8996 426.8 38.7996 426.8 39.8996V166.8C426.8 167.9 427.7 168.8 428.8 168.8H445.7C446.5 168.8 447 168.4 447.5 167.7C447.9 167 448.5 161.9 448.5 161.9C448.5 161.9 458.4 171.3 477.3 171.3C499.4 171.3 512.1 160.1 512.1 121C512 81.9996 491.8 76.7996 478.1 76.7996ZM212.2 79.3996H194V55.3996C194 54.4996 193.5 53.9996 192.5 53.9996H167.7C166.7 53.9996 166.2 54.3996 166.2 55.2996V80.0996C166.2 80.0996 153.8 83.0996 152.9 83.2996C152.1 83.4996 151.4 84.2996 151.4 85.1996V100.8C151.4 101.9 152.3 102.8 153.4 102.8H166.1V140.3C166.1 168.2 185.7 170.9 198.9 170.9C204.9 170.9 212.1 169 213.3 168.5C214 168.2 214.4 167.5 214.4 166.7V149.5C214.4 148.4 213.5 147.5 212.4 147.5C211.3 147.5 208.6 147.9 205.8 147.9C196.9 147.9 193.8 143.7 193.8 138.4C193.8 133 193.8 102.7 193.8 102.7H212C213.1 102.7 214 101.8 214 100.7V81.1996C214.2 80.2996 213.3 79.3996 212.2 79.3996Z" fill="#11110F"/>
</g>
<defs>
<clipPath id="clip0_1295_11549">
<rect width="512" height="211" fill="white"/>
</clipPath>
</defs>
</svg>
