<?xml version="1.0" encoding="utf-8"?>
<!-- Generator: Adobe Illustrator 26.0.2, SVG Export Plug-In . SVG Version: 6.00 Build 0)  -->
<svg version="1.1" id="Wordmark" xmlns="http://www.w3.org/2000/svg" xmlns:xlink="http://www.w3.org/1999/xlink" x="0px" y="0px"
	 viewBox="0 0 490.428406 198.185883" enable-background="new 0 0 490.428406 198.185883" xml:space="preserve">
<g>
	<rect x="292.615662" y="66.466309" width="20.550781" height="65.253296"/>
	<path d="M401.893677,66.466293l-8.285339,18.377922c-0.619019,1.37307-0.940308,2.861649-0.942749,4.367805l0,0h-0.652283l0,0
		c-0.002411-1.506157-0.3237-2.994736-0.942719-4.367805l-8.28537-18.377922h-64.958496v19.01709h17.059265v46.236206h20.363831
		V85.483383h14.440186l12.468079,27.872375v18.363831h20.830139v-18.271362l20.973877-46.981934H401.893677z"/>
	<path d="M261.38855,103.474365c0-1.592438-0.217804-3.177383-0.647339-4.710793l-9.047119-32.297264H232.21167l18.549744,65.253296
		h21.906555l18.549744-65.253296h-19.482422l-9.047119,32.297264c-0.429535,1.533409-0.647339,3.118355-0.647339,4.710793H261.38855
		z"/>
	<path d="M224.753891,66.466293h-24.515564l-17.13678,57.94989c-0.001404-2.261108-0.002075-4.861694-0.002075-7.891602
		c0-10.873779-5.215759-12.677368-8.575867-12.677368v-0.745728c8.459045,0,10.067322-9.38385,10.067322-16.220093
		c0-10.272522-2.938416-20.4151-22.092468-20.4151h-34.185913v65.253296h18.897461v-20.508545h13.824951
		c3.497681,0,3.793152,3.189758,3.793152,5.663025v14.84552h35.410217l2.654541-9.787964h19.206482l2.654541,9.787964H244.0504
		L224.753891,66.466293z M162.218063,93.686386h-15.008057v-8.01709h14.915588c1.491455,0,3.635193,0.3396,3.635193,4.008545
		S163.646835,93.686386,162.218063,93.686386z M207.216049,105.990952l4.210693-15.52594
		c0.493103-1.742126,0.743225-3.543945,0.743225-5.354492h0.652283c0,1.810547,0.250122,3.612366,0.743225,5.354492
		l4.210693,15.52594H207.216049z"/>
	<path d="M91.093491,93.592941v10.907532h13.471252v5.355774c0,2.268616-0.837708,3.872375-3.725525,3.872375H89.186935
		c-2.887817,0-3.725525-1.60376-3.725525-3.872375v-21.61908c0-2.268616,0.837708-3.872375,3.725525-3.872375h11.652283
		c2.887817,0,3.725525,1.60376,3.725525,3.872375h17.992798c-0.026855-12.691956-4.251953-23.075378-20.880188-23.075378h-14.32959
		c-6.338684,0.062683-11.046753,1.523315-14.123169,4.38092c-3.075317,2.858582-4.972595,6.075195-5.686462,9.647705
		c-0.714905,3.574585-1.071838,7.690979-1.071838,12.351257v14.728638c0,8.452637,1.569031,14.978271,4.708069,19.575867
		c3.136963,4.599731,7.597534,6.929321,13.376343,6.992004h13.86438c2.857544,0,5.313538-0.606567,7.364868-1.817566
		c2.050171-1.212097,3.262268-2.997803,3.635132-5.360352c0.185913-0.869995,0.310181-1.895081,0.372864-3.076355h0.839233v9.135681
		h12.025085V93.592941H91.093491z"/>
</g>
</svg>
