<?xml version="1.0" encoding="utf-8"?>
<!-- Generator: Adobe Illustrator 26.0.2, SVG Export Plug-In . SVG Version: 6.00 Build 0)  -->
<svg version="1.1" xmlns="http://www.w3.org/2000/svg" xmlns:xlink="http://www.w3.org/1999/xlink" x="0px" y="0px"
	 viewBox="0 0 180.460236 180.460236" enable-background="new 0 0 180.460236 180.460236" xml:space="preserve">
<g id="BG">
</g>
<g id="Gravity_Emblem">
	<g>
		<path fill="#FFFFFF" d="M0.229997,50.240067v33.39447c45.900574-0.212158,83.19281-37.504395,83.40625-83.404419H50.239944
			C22.620193,0.230119,0.229997,22.620316,0.229997,50.240067z"/>
		<path fill="#FFFFFF" d="M0.229997,96.824905v33.395203c0,27.619812,22.390198,50.01001,50.009949,50.01001h33.396301
			C83.423294,134.329544,46.130569,97.037308,0.229997,96.824905z"/>
		<path fill="#FFFFFF" d="M130.22023,0.230119h-33.39679c0.21344,45.900024,37.505676,83.192261,83.406799,83.404419v-33.39447
			C180.23024,22.620316,157.840042,0.230119,130.22023,0.230119z"/>
		<path fill="#FFFFFF" d="M96.823441,180.230118h33.39679c27.619812,0,50.01001-22.390198,50.01001-50.01001V96.824905
			C134.331192,97.038589,97.036392,134.330826,96.823441,180.230118z"/>
	</g>
</g>
</svg>
