<svg width="20" height="16" viewBox="0 0 20 16" fill="none" xmlns="http://www.w3.org/2000/svg">
<path fill-rule="evenodd" clip-rule="evenodd" d="M10 15C13.866 15 17 11.866 17 8C17 4.13401 13.866 1 10 1C6.13401 1 3 4.13401 3 8C3 11.866 6.13401 15 10 15ZM13.2437 6.86872C13.5854 6.52701 13.5854 5.97299 13.2437 5.63128C12.902 5.28957 12.348 5.28957 12.0063 5.63128L9.125 8.51256L7.99372 7.38128C7.65201 7.03957 7.09799 7.03957 6.75628 7.38128C6.41457 7.72299 6.41457 8.27701 6.75628 8.61872L8.50628 10.3687C8.84799 10.7104 9.40201 10.7104 9.74372 10.3687L13.2437 6.86872Z" fill="#26927E"/>
</svg>
