<svg id="STARS" xmlns="http://www.w3.org/2000/svg" viewBox="0 0 520.473 395.604"><path d="M350.7,210.3c6.1-1.4,11.5-3.2,15-6.6,3.8-3.8,5.6-10.2,6.9-16.9,1.2,6.7,3,13,6.9,16.9,3.5,3.5,8.9,5.2,15,6.6h0c-6.1,1.4-11.5,3.2-15,6.6-3.8,3.8-5.6,10.2-6.9,16.9-1.2-6.7-3-13-6.9-16.9C362.3,213.4,356.8,211.7,350.7,210.3Z" fill="#ff00f1"/><path d="M99.8,23.9c1.6-.4,3.1-.8,4-1.8a8.439,8.439,0,0,0,1.8-4.5,8.439,8.439,0,0,0,1.8,4.5,8.567,8.567,0,0,0,4,1.8h0c-1.6.4-3.1.8-4,1.8a8.439,8.439,0,0,0-1.8,4.5,8.439,8.439,0,0,0-1.8-4.5A9.035,9.035,0,0,0,99.8,23.9Z" fill="#fff"/><path d="M299.759,55.5c2.126-.532,4.119-1.063,5.182-2.259a10.626,10.626,0,0,0,2.259-5.847,10.267,10.267,0,0,0,2.259,5.847,10.724,10.724,0,0,0,5.182,2.259h0c-2.126.532-4.119,1.063-5.182,2.259a10.626,10.626,0,0,0-2.259,5.847,10.267,10.267,0,0,0-2.259-5.847C303.878,56.563,301.885,56.032,299.759,55.5Z" fill="#ff00f1"/><path d="M215.761,79.6c4.512-1.121,8.613-2.382,11.211-5.043,2.871-2.942,4.238-7.7,5.058-12.888.957,5.043,2.188,9.946,5.059,12.888,2.6,2.661,6.7,3.922,11.211,5.043h0c-4.512,1.121-8.613,2.382-11.211,5.043-2.871,2.942-4.238,7.7-5.059,12.888-.957-5.043-2.187-9.946-5.058-12.888C224.237,82.122,220.273,80.721,215.761,79.6Z" fill="#775af6"/><path d="M260.85,268.9c3.855-.934,7.359-1.986,9.578-4.2,2.453-2.453,3.621-6.424,4.322-10.746.818,4.2,1.869,8.293,4.322,10.746,2.219,2.219,5.723,3.271,9.578,4.2h0c-3.855.934-7.359,1.986-9.578,4.205-2.453,2.453-3.621,6.424-4.322,10.746-.818-4.2-1.869-8.293-4.322-10.746C268.092,271,264.705,269.834,260.85,268.9Z" fill="#ad9cfa"/><path d="M376.94,34.2c3.3-.8,6.3-1.7,8.2-3.6,2.1-2.1,3.1-5.5,3.7-9.2.7,3.6,1.6,7.1,3.7,9.2,1.9,1.9,4.9,2.8,8.2,3.6h0c-3.3.8-6.3,1.7-8.2,3.6-2.1,2.1-3.1,5.5-3.7,9.2-.7-3.6-1.6-7.1-3.7-9.2C383.24,35.9,380.24,35,376.94,34.2Z" fill="#ffedff"/><path d="M338.7,279.3a6.5,6.5,0,0,0,6.2-6.7,9.552,9.552,0,0,0,1.9,4.8,8.415,8.415,0,0,0,4.3,1.9h0a6.5,6.5,0,0,0-6.2,6.7,6.538,6.538,0,0,0-6.2-6.7Z" fill="#ff91fb"/><path d="M171.9,300.2a10.872,10.872,0,0,0,5.3-2.4c1.4-1.4,2-3.6,2.5-6,.4,2.4,1.1,4.6,2.5,6a11.321,11.321,0,0,0,5.3,2.4h0a10.872,10.872,0,0,0-5.3,2.4c-1.4,1.4-2,3.6-2.5,6-.4-2.4-1.1-4.6-2.5-6C176,301.3,174,300.7,171.9,300.2Z" fill="#e4defd"/><path d="M450.556,134.7c3.615-.9,6.869-1.808,9.038-3.977,2.35-2.35,3.435-6.146,4.158-10.123.723,3.977,1.808,7.773,4.158,10.123,2.169,2.169,5.242,3.073,9.038,3.977h0c-3.615.9-6.869,1.808-9.038,3.977-2.35,2.35-3.435,6.146-4.158,10.123-.723-3.977-1.808-7.773-4.158-10.123A21.371,21.371,0,0,0,450.556,134.7Z" fill="#ffedff"/><path d="M436.256,343.4a7.138,7.138,0,0,0,3.2-1.4,6.679,6.679,0,0,0,1.4-3.6,7,7,0,0,0,1.4,3.6,7.138,7.138,0,0,0,3.2,1.4h0a7.138,7.138,0,0,0-3.2,1.4,6.679,6.679,0,0,0-1.4,3.6,7,7,0,0,0-1.4-3.6A8.252,8.252,0,0,0,436.256,343.4Z" fill="#e4defd"/><path d="M444.556,73.6a10.109,10.109,0,0,0,4.1-1.8c1-1,1.5-2.8,1.9-4.6a8.563,8.563,0,0,0,1.9,4.6,8.918,8.918,0,0,0,4.1,1.8h0a10.109,10.109,0,0,0-4.1,1.8c-1,1-1.5,2.8-1.9,4.6a8.578,8.578,0,0,0-1.9-4.6A11.444,11.444,0,0,0,444.556,73.6Z" fill="#e4defd"/><path d="M426.056,163.624a11.686,11.686,0,0,0,5.1-2.2c1.3-1.3,1.9-3.4,2.3-5.7.4,2.3,1,4.4,2.3,5.7a9.419,9.419,0,0,0,5.1,2.2h0a11.681,11.681,0,0,0-5.1,2.2c-1.3,1.3-1.9,3.4-2.3,5.7-.4-2.3-1-4.4-2.3-5.7A12.223,12.223,0,0,0,426.056,163.624Z" fill="#ad9cfa"/><path d="M170.3,34.2a14.227,14.227,0,0,0,6.493-2.911c1.679-1.679,2.463-4.478,2.911-7.389.56,2.911,1.232,5.71,2.911,7.389,1.455,1.456,3.918,2.239,6.493,2.911h0a14.238,14.238,0,0,0-6.493,2.911c-1.679,1.679-2.463,4.478-2.911,7.389-.56-2.911-1.232-5.71-2.911-7.389A14.238,14.238,0,0,0,170.3,34.2Z" fill="#ffd3fe"/><path d="M127,192.7a18.941,18.941,0,0,0,8.637-3.872c2.234-2.233,3.276-5.956,3.872-9.828.744,3.872,1.638,7.595,3.871,9.828,1.936,1.936,5.212,2.978,8.637,3.872h0a18.941,18.941,0,0,0-8.637,3.872c-2.233,2.233-3.276,5.956-3.871,9.828-.745-3.872-1.638-7.595-3.872-9.828A16.4,16.4,0,0,0,127,192.7Z" fill="#ff91fb"/><path d="M151.8,372.5a7.138,7.138,0,0,0,3.2-1.4,6.679,6.679,0,0,0,1.4-3.6,7,7,0,0,0,1.4,3.6,7.138,7.138,0,0,0,3.2,1.4h0a7.138,7.138,0,0,0-3.2,1.4,6.679,6.679,0,0,0-1.4,3.6,7,7,0,0,0-1.4-3.6A8.252,8.252,0,0,0,151.8,372.5Z" fill="#ffedff"/><path d="M123.2,348.4a7.138,7.138,0,0,0,3.2-1.4,6.679,6.679,0,0,0,1.4-3.6,7,7,0,0,0,1.4,3.6,7.138,7.138,0,0,0,3.2,1.4h0a7.138,7.138,0,0,0-3.2,1.4,6.679,6.679,0,0,0-1.4,3.6,7,7,0,0,0-1.4-3.6A8.252,8.252,0,0,0,123.2,348.4Z" fill="#e4defd"/><path d="M0,115.6a7.148,7.148,0,0,0,3.2-1.4,6.679,6.679,0,0,0,1.4-3.6A7,7,0,0,0,6,114.2a7.148,7.148,0,0,0,3.2,1.4h0A7.148,7.148,0,0,0,6,117a6.679,6.679,0,0,0-1.4,3.6A7,7,0,0,0,3.2,117,7.148,7.148,0,0,0,0,115.6Z" fill="#fff"/><path d="M372.6,330c2.5-.578,4.754-1.349,6.231-2.762,1.606-1.606,2.313-4.176,2.827-6.938.514,2.762,1.22,5.4,2.826,6.938,1.413,1.413,3.662,2.184,6.231,2.762h0c-2.5.578-4.753,1.349-6.231,2.762-1.606,1.606-2.312,4.176-2.826,6.938-.514-2.762-1.221-5.4-2.827-6.938C377.354,331.285,375.105,330.578,372.6,330Z" fill="#e4defd"/><circle cx="492.7" cy="38.7" r="2.7" fill="#e4defd"/><circle cx="517.773" cy="2.7" r="2.7" fill="#fff"/><circle cx="482" cy="185.1" r="2.7" fill="#e4defd"/><circle cx="303.2" cy="306.3" r="1.6" fill="#e4defd"/><circle cx="209.5" cy="220.1" r="1.6" fill="#ffd3fe"/><circle cx="368.525" cy="143.3" r="1.6" fill="#ff00f1"/><circle cx="307.2" cy="143.3" r="1.6" fill="#ffd3fe"/><circle cx="492.7" cy="171.9" r="1.6" fill="#ffedff"/><circle cx="301.6" cy="218.5" r="1.6" fill="#e4defd"/><circle cx="76.3" cy="173" r="2.7" fill="#ffd3fe"/><circle cx="288.65" cy="206.345" r="3.8" transform="translate(-63.476 162.704) rotate(-28.495)" fill="#ff91fb"/><circle cx="251" cy="330" r="2.7" fill="#ffd3fe"/><circle cx="145" cy="317.9" r="2.7" fill="#e4defd"/><circle cx="274.75" cy="36" r="2.7" fill="#ffedff"/><circle cx="93.397" cy="132" r="2.7" fill="#ff91fb"/><circle cx="329" cy="19.2" r="2.7" fill="#e4defd"/><circle cx="429.035" cy="47" r="1.3" fill="#ff91fb"/><circle cx="503" cy="54.2" r="1.3" fill="#ffedff"/><circle cx="492.4" cy="16.65" r="1.3" fill="#ffedff"/><circle cx="383.9" cy="116.9" r="1.3" fill="#e4defd"/><circle cx="430.335" cy="80.9" r="1.3" fill="#e4defd"/><circle cx="202.664" cy="163.624" r="1.3" fill="#e4defd"/><circle cx="359.8" cy="64.6" r="1.3" fill="#e4defd"/><circle cx="111.4" cy="64.6" r="1.3" fill="#775af6"/><circle cx="484.7" cy="316.5" r="1.3" fill="#ffd3fe"/><circle cx="342.744" cy="394.304" r="1.3" fill="#fff"/><circle cx="152.2" cy="336.3" r="1.3" fill="#ffedff"/><circle cx="226.453" cy="299.3" r="1.3" fill="#ece8ff"/><circle cx="62.143" cy="336.857" r="2.043" fill="#ffedff"/><circle cx="108.9" cy="271.218" r="2.318" fill="#e4defd"/><circle cx="39.7" cy="304.4" r="1.3" fill="#ffedff"/><circle cx="30.7" cy="353.4" r="1.3" fill="#ffedff"/><circle cx="209.5" cy="258.5" r="1.3" fill="#ad9cfa"/><circle cx="225.153" cy="155.724" r="1.3" fill="#ff00f1"/><circle cx="153.5" cy="264" r="1.3" fill="#ff91fb"/><ellipse cx="127" cy="254.9" rx="1.7" ry="1.8" fill="#ad9cfa"/></svg>