<svg width="56" height="50" viewBox="0 0 56 50" fill="none" xmlns="http://www.w3.org/2000/svg">
<path fill-rule="evenodd" clip-rule="evenodd" d="M33.9496 2.02553C35.8559 1.23565 37.8992 0.829102 39.9626 0.829102C42.0261 0.829102 44.0693 1.23565 45.9756 2.02553C47.8816 2.81527 49.6133 3.97271 51.0719 5.43177C52.531 6.89035 53.6892 8.62287 54.4789 10.5288C55.2688 12.4351 55.6754 14.4784 55.6754 16.5418C55.6754 18.6053 55.2688 20.6486 54.4789 22.5549C53.6891 24.461 52.5315 26.1929 51.0723 27.6515C51.0722 27.6517 51.0724 27.6514 51.0723 27.6515L29.709 49.0149C28.7652 49.9586 27.2351 49.9586 26.2913 49.0149L4.92795 27.6515C1.98148 24.705 0.326172 20.7088 0.326172 16.5418C0.326172 12.3749 1.98148 8.37864 4.92795 5.43217C7.87442 2.4857 11.8707 0.830394 16.0376 0.830394C20.2046 0.830394 24.2008 2.4857 27.1473 5.43217L28.0001 6.285L28.8526 5.43257C28.8527 5.43244 28.8524 5.43271 28.8526 5.43257C30.3112 3.97333 32.0435 2.81534 33.9496 2.02553ZM39.9626 5.66243C38.5341 5.66243 37.1195 5.94389 35.7998 6.49073C34.48 7.03757 33.2809 7.83907 32.271 8.84945L29.709 11.4115C28.7652 12.3553 27.2351 12.3553 26.2913 11.4115L23.7296 8.84985C21.6896 6.80981 18.9227 5.66373 16.0376 5.66373C13.1526 5.66373 10.3857 6.80981 8.34563 8.84985C6.30559 10.8899 5.15951 13.6568 5.15951 16.5418C5.15951 19.4269 6.30559 22.1938 8.34563 24.2338L28.0001 43.8883L47.6546 24.2338C48.665 23.2239 49.4669 22.0245 50.0137 20.7047C50.5606 19.385 50.842 17.9704 50.842 16.5418C50.842 15.1133 50.5606 13.6987 50.0137 12.379C49.4669 11.0592 48.6654 9.86016 47.655 8.85026C46.6451 7.83988 45.4452 7.03757 44.1255 6.49073C42.8057 5.94389 41.3912 5.66243 39.9626 5.66243Z" fill="#BF1E62"/>
</svg>
