<svg width="1214" height="244" viewBox="0 0 1214 244" fill="none" xmlns="http://www.w3.org/2000/svg">
<path d="M605 244C605 143.864 889 173.579 889 80" stroke="url(#paint0_linear_1195_10879)"/>
<path d="M605 244C605 143.864 751 173.579 751 80" stroke="url(#paint1_linear_1195_10879)"/>
<path d="M605 244C605 143.255 1034 172.148 1034 78" stroke="url(#paint2_linear_1195_10879)"/>
<path d="M605 244C605 143.864 1179 173.579 1179 80" stroke="url(#paint3_linear_1195_10879)"/>
<path d="M605 241C605 142.352 171.5 167.689 171.5 75.5" stroke="url(#paint4_linear_1195_10879)"/>
<path d="M605 241C605 142.352 31.5 169.189 31.5 77" stroke="url(#paint5_linear_1195_10879)"/>
<path d="M605 241C605 139.621 317 168.742 317 74" stroke="url(#paint6_linear_1195_10879)" stroke-width="1.02769"/>
<path d="M605 241C605 139.621 462 168.742 462 74" stroke="url(#paint7_linear_1195_10879)" stroke-width="1.02769"/>
<path d="M605 243L605 76" stroke="url(#paint8_linear_1195_10879)"/>
<circle cx="36" cy="45.0996" r="31.5" fill="white" stroke="url(#paint9_linear_1195_10879)"/>
<path d="M34.0258 42.6195C32.7423 43.7978 31.9395 45.4682 31.9395 47.3226C31.9395 48.7794 32.4355 50.1216 33.269 51.2006L30.7378 53.6763C30.5128 53.5967 30.2724 53.5521 30.0218 53.5521C29.4696 53.5521 28.9531 53.7609 28.5644 54.1387C28.1758 54.5165 27.961 55.0235 27.961 55.5607C27.961 56.0975 28.1757 56.5996 28.5644 56.9776C28.9531 57.3553 29.4747 57.5542 30.0218 57.5542C30.5741 57.5542 31.0905 57.3602 31.4843 56.9776C31.873 56.5996 32.0877 56.0925 32.0877 55.5607C32.0877 55.3518 32.0571 55.1529 31.9906 54.959L34.5475 52.4632C35.6724 53.3034 37.0735 53.8006 38.6025 53.8006C42.2793 53.8006 45.2502 50.9021 45.2502 47.3276C45.2502 44.0861 42.8111 41.4015 39.615 40.9292V37.8667C40.5099 37.4987 41.057 36.6834 41.057 35.7338C41.057 34.4362 39.9883 33.3524 38.6536 33.3524C37.319 33.3524 36.2656 34.4362 36.2656 35.7338C36.2656 36.6834 36.8127 37.4987 37.7076 37.8667V40.9092C36.9304 41.0137 36.194 41.2423 35.5241 41.5854C34.1128 40.5463 29.5156 37.3247 26.8871 35.3808C26.9485 35.162 26.9895 34.9334 26.9895 34.6948C26.9895 33.2629 25.7878 32.0996 24.3099 32.0996C22.8372 32.0996 21.6406 33.2629 21.6406 34.6948C21.6406 36.1316 22.8372 37.2949 24.3099 37.2949C24.8111 37.2949 25.2764 37.1507 25.6804 36.9171L34.0258 42.6195ZM38.6025 50.7532C36.6543 50.7532 35.0741 49.2169 35.0741 47.3227C35.0741 45.4286 36.6543 43.8924 38.6025 43.8924C40.5508 43.8924 42.1309 45.4286 42.1309 47.3227C42.1309 49.2169 40.5508 50.7532 38.6025 50.7532Z" fill="#FF7A59"/>
<circle cx="177.094" cy="45.0996" r="31.5" fill="white" stroke="url(#paint10_linear_1195_10879)"/>
<g clip-path="url(#clip0_1195_10879)">
<path d="M186.168 37.5263C184.499 36.7819 182.71 36.2334 180.839 35.9193C180.805 35.9132 180.771 35.9284 180.753 35.9587C180.523 36.3566 180.268 36.8758 180.089 37.2839C178.077 36.991 176.075 36.991 174.104 37.2839C173.925 36.8667 173.661 36.3566 173.43 35.9587C173.412 35.9294 173.378 35.9142 173.344 35.9193C171.474 36.2324 169.685 36.7809 168.015 37.5263C168.001 37.5323 167.988 37.5425 167.98 37.5556C164.586 42.4857 163.656 47.2946 164.112 52.0438C164.114 52.0671 164.128 52.0893 164.146 52.1034C166.386 53.7023 168.555 54.673 170.684 55.3164C170.718 55.3265 170.754 55.3144 170.776 55.2871C171.279 54.6185 171.728 53.9135 172.113 53.172C172.136 53.1286 172.114 53.0771 172.068 53.0599C171.356 52.7973 170.678 52.4771 170.025 52.1135C169.974 52.0842 169.97 52.0125 170.017 51.9782C170.154 51.8782 170.292 51.7741 170.423 51.6691C170.446 51.6499 170.48 51.6459 170.507 51.658C174.792 53.5599 179.431 53.5599 183.665 51.658C183.693 51.6448 183.726 51.6489 183.751 51.6681C183.882 51.7731 184.019 51.8782 184.158 51.9782C184.205 52.0125 184.202 52.0842 184.15 52.1135C183.498 52.4842 182.82 52.7973 182.107 53.0589C182.061 53.0761 182.04 53.1286 182.063 53.172C182.456 53.9124 182.905 54.6174 183.399 55.2861C183.42 55.3144 183.457 55.3265 183.491 55.3164C185.63 54.673 187.799 53.7023 190.039 52.1034C190.059 52.0893 190.071 52.0681 190.073 52.0448C190.619 46.5542 189.159 41.7847 186.202 37.5566C186.195 37.5425 186.182 37.5323 186.168 37.5263ZM172.753 49.152C171.463 49.152 170.4 48.0006 170.4 46.5865C170.4 45.1724 171.442 44.021 172.753 44.021C174.074 44.021 175.127 45.1825 175.106 46.5865C175.106 48.0006 174.064 49.152 172.753 49.152ZM181.453 49.152C180.163 49.152 179.1 48.0006 179.1 46.5865C179.1 45.1724 180.142 44.021 181.453 44.021C182.774 44.021 183.826 45.1825 183.806 46.5865C183.806 48.0006 182.774 49.152 181.453 49.152Z" fill="#5165F6"/>
</g>
<circle cx="318.188" cy="45.0996" r="31.5" fill="white" stroke="url(#paint11_linear_1195_10879)"/>
<g clip-path="url(#clip1_1195_10879)">
<path fill-rule="evenodd" clip-rule="evenodd" d="M314.739 32.7363C313.286 32.7374 312.109 33.8821 312.11 35.2926C312.109 36.7032 313.287 37.8479 314.74 37.8489H317.37V35.2937C317.371 33.8831 316.194 32.7384 314.739 32.7363ZM314.739 39.5545H307.728C306.274 39.5556 305.097 40.7003 305.098 42.1108C305.096 43.5214 306.273 44.6661 307.727 44.6681H314.739C316.193 44.6671 317.37 43.5224 317.369 42.1118C317.37 40.7003 316.193 39.5556 314.739 39.5545V39.5545Z" fill="#36C5F0"/>
<path fill-rule="evenodd" clip-rule="evenodd" d="M331.279 42.1108C331.28 40.7003 330.102 39.5556 328.648 39.5545C327.194 39.5556 326.017 40.7003 326.018 42.1108V44.6681H328.648C330.102 44.6671 331.28 43.5224 331.279 42.1108ZM324.265 42.1108V35.2926C324.267 33.8831 323.09 32.7384 321.636 32.7363C320.182 32.7374 319.005 33.8821 319.006 35.2926V42.1108C319.004 43.5214 320.181 44.6661 321.635 44.6681C323.089 44.6671 324.267 43.5224 324.265 42.1108V42.1108Z" fill="#2EB67D"/>
<path fill-rule="evenodd" clip-rule="evenodd" d="M321.636 58.1916C323.09 58.1905 324.267 57.0459 324.266 55.6355C324.267 54.2251 323.09 53.0805 321.636 53.0794H319.006V55.6355C319.005 57.0449 320.182 58.1895 321.636 58.1916ZM321.636 51.373H328.648C330.102 51.3719 331.28 50.2273 331.279 48.8169C331.281 47.4065 330.103 46.2619 328.65 46.2598H321.637C320.183 46.2608 319.006 47.4054 319.007 48.8158C319.006 50.2273 320.182 51.3719 321.636 51.373V51.373Z" fill="#ECB22E"/>
<path fill-rule="evenodd" clip-rule="evenodd" d="M305.098 48.8161C305.097 50.2266 306.274 51.3713 307.728 51.3724C309.182 51.3713 310.359 50.2266 310.358 48.8161V46.2598H307.728C306.274 46.2608 305.097 47.4055 305.098 48.8161ZM312.111 48.8161V55.6342C312.109 57.0448 313.286 58.1895 314.74 58.1916C316.194 58.1905 317.371 57.0458 317.37 55.6353V48.8181C317.373 47.4076 316.195 46.2629 314.741 46.2608C313.286 46.2608 312.11 47.4055 312.111 48.8161Z" fill="#E01E5A"/>
</g>
<circle cx="464.174" cy="44.8691" r="31.5" fill="white" stroke="url(#paint12_linear_1195_10879)"/>
<g clip-path="url(#clip2_1195_10879)">
<path d="M464.87 31.8691C457.702 31.8691 451.674 37.4652 451.674 44.3737V57.3237H464.878C472.042 57.3237 477.856 51.5089 477.856 44.5964C477.856 37.6839 472.025 31.8691 464.87 31.8691Z" fill="#231F20"/>
<path d="M465.007 36.709C463.613 36.7096 462.244 37.0588 461.032 37.7225C459.821 38.3862 458.809 39.3415 458.096 40.495C457.383 41.6484 456.993 42.9605 456.965 44.3027C456.937 45.6448 457.271 46.9711 457.934 48.1516L456.477 52.6658L461.704 51.5283C462.798 52.0032 463.989 52.2363 465.189 52.2105C466.389 52.1846 467.568 51.9004 468.64 51.3788C469.711 50.8572 470.647 50.1113 471.381 49.1959C472.114 48.2804 472.625 47.2185 472.877 46.088C473.129 44.9574 473.116 43.7869 472.837 42.6622C472.559 41.5375 472.022 40.487 471.268 39.5877C470.513 38.6885 469.559 37.9632 468.476 37.4651C467.393 36.967 466.207 36.7087 465.007 36.709V36.709Z" fill="#FFF9AE"/>
<path d="M471.374 39.7441C472.452 41.1135 473.028 42.7894 473.01 44.5081C472.991 46.2269 472.381 47.8911 471.274 49.239C470.166 50.587 468.625 51.5422 466.893 51.9545C465.161 52.3669 463.335 52.2129 461.704 51.5169L456.477 52.6663L461.799 52.0618C463.503 53.0125 465.51 53.3279 467.44 52.948C469.37 52.5682 471.088 51.5196 472.268 50.001C473.449 48.4824 474.01 46.5994 473.845 44.7089C473.68 42.8184 472.801 41.0518 471.374 39.7441V39.7441Z" fill="#00AEEF"/>
<path d="M469.908 38.3164C471.136 39.5695 471.895 41.181 472.066 42.8962C472.236 44.6114 471.808 46.3324 470.849 47.7871C469.89 49.2418 468.456 50.347 466.772 50.9282C465.088 51.5093 463.251 51.5332 461.551 50.996L456.477 52.6664L461.704 51.5249C463.502 52.3061 465.536 52.4235 467.418 51.8548C469.3 51.286 470.9 50.0708 471.913 48.4401C472.926 46.8095 473.281 44.8772 472.911 43.0107C472.542 41.1441 471.473 39.4735 469.908 38.3164Z" fill="#00A94F"/>
<path d="M458.413 48.324C457.709 46.6827 457.611 44.8582 458.136 43.1558C458.662 41.4535 459.778 39.9764 461.298 38.9717C462.818 37.967 464.65 37.4956 466.488 37.6364C468.326 37.7771 470.058 38.5215 471.395 39.745C470.167 38.1866 468.373 37.133 466.373 36.7957C464.373 36.4585 462.314 36.8626 460.61 37.9269C458.906 38.9911 457.684 40.6369 457.187 42.5336C456.691 44.4304 456.958 46.4379 457.934 48.153L456.477 52.6672L458.413 48.324Z" fill="#F15D22"/>
<path d="M457.933 48.1531C457.059 46.5923 456.767 44.79 457.106 43.0468C457.444 41.3036 458.393 39.725 459.794 38.5743C461.195 37.4235 462.963 36.7703 464.804 36.7235C466.644 36.6768 468.446 37.2393 469.907 38.3173C468.513 36.9074 466.619 36.0546 464.602 35.9284C462.585 35.8022 460.592 36.412 459.02 37.6363C457.449 38.8607 456.413 40.6101 456.119 42.5365C455.825 44.463 456.294 46.4255 457.434 48.0338L456.48 52.6673L457.933 48.1531Z" fill="#E31B23"/>
</g>
<circle cx="606.399" cy="44.074" r="31.5" transform="rotate(91.8658 606.399 44.074)" fill="white" stroke="url(#paint13_linear_1195_10879)"/>
<path fill-rule="evenodd" clip-rule="evenodd" d="M606.506 31.1202C603.394 31.1171 600.383 32.2163 598.012 34.2208C595.641 36.2253 594.066 39.0041 593.567 42.0593C593.069 45.1144 593.681 48.2462 595.293 50.8934C596.906 53.5405 599.413 55.5301 602.366 56.5054C603.017 56.6253 603.259 56.2176 603.259 55.8738C603.259 55.53 603.259 54.7464 603.259 53.6591C599.617 54.4586 598.846 51.9161 598.846 51.9161C598.603 51.1281 598.087 50.4511 597.391 50.0052C596.209 49.2057 597.487 49.2057 597.487 49.2057C597.901 49.2639 598.297 49.415 598.644 49.6478C598.99 49.8805 599.279 50.1886 599.489 50.5489C599.667 50.8697 599.906 51.1523 600.194 51.3807C600.482 51.6091 600.813 51.7786 601.167 51.8797C601.521 51.9807 601.891 52.0112 602.257 51.9694C602.623 51.9276 602.977 51.8144 603.299 51.6363C603.349 50.9785 603.634 50.3604 604.103 49.8933C601.193 49.5655 598.138 48.4461 598.138 43.457C598.118 42.1642 598.599 40.9132 599.481 39.9631C599.087 38.8391 599.133 37.609 599.609 36.5171C599.609 36.5171 600.71 36.1653 603.21 37.8523C605.357 37.2661 607.623 37.2661 609.769 37.8523C612.269 36.1653 613.363 36.5171 613.363 36.5171C613.844 37.6074 613.893 38.8384 613.499 39.9631C614.381 40.9132 614.862 42.1642 614.842 43.457C614.842 48.4621 611.779 49.5575 608.861 49.8533C609.174 50.1661 609.416 50.5422 609.57 50.9561C609.724 51.3699 609.786 51.8118 609.753 52.2519C609.753 53.9949 609.753 55.402 609.753 55.8258C609.753 56.2495 609.987 56.5774 610.654 56.4574C613.598 55.4729 616.094 53.4802 617.698 50.8348C619.302 48.1894 619.909 45.0633 619.411 42.014C618.912 38.9648 617.341 36.1908 614.978 34.1867C612.614 32.1826 609.612 31.0789 606.506 31.0723V31.1202Z" fill="#191717"/>
<circle cx="748.52" cy="45.0996" r="31.5" fill="white" stroke="url(#paint14_linear_1195_10879)"/>
<path fill-rule="evenodd" clip-rule="evenodd" d="M735.864 41.1872H741.29V58.1914H735.864V41.1872ZM744.692 41.1869H749.895V43.5098H749.974C750.694 42.1741 752.467 40.7678 755.106 40.7678C760.597 40.7678 761.612 44.2871 761.612 48.8684V58.191H756.192V49.9246C756.192 47.952 756.153 45.413 753.371 45.413C750.55 45.413 750.118 47.5639 750.118 49.7778V58.1909H744.692V41.1869ZM738.578 32.7363C740.312 32.7363 741.72 34.1111 741.72 35.7977C741.72 37.4905 740.312 38.8643 738.578 38.8643C736.837 38.8643 735.43 37.4905 735.43 35.7977C735.43 34.111 736.837 32.7363 738.578 32.7363Z" fill="#0277B5"/>
<circle cx="889.613" cy="45.0996" r="31.5" fill="white" stroke="url(#paint15_linear_1195_10879)"/>
<path d="M880.281 35.707L888.049 46.0923L880.232 54.5359H881.992L888.834 47.1434L894.363 54.5359H900.35L892.146 43.5665L899.421 35.707H897.662L891.36 42.5154L886.268 35.707H880.281ZM882.868 37.0028H885.618L897.762 53.24H895.012L882.868 37.0028Z" fill="black"/>
<rect x="999.207" y="8.5" width="68.0993" height="68.0993" rx="34.0497" fill="white" stroke="url(#paint16_linear_1195_10879)"/>
<path d="M1028.23 38.0929L1021.21 43.3787L1028.23 48.0636V52.0485L1018.04 44.7454V42.3614L1028.23 34.0918V38.0929Z" fill="#414857"/>
<path d="M1032.11 55.4308H1029.27L1034.86 31.0547H1037.71L1032.11 55.4308Z" fill="#414857"/>
<path d="M1048.91 44.7454L1038.72 52.0485V48.0636L1045.74 43.3787L1038.72 38.0929V34.0918L1048.91 42.3614V44.7454Z" fill="#414857"/>
<rect x="1145.4" y="8.5" width="68.0993" height="68.0993" rx="34.0497" fill="white" stroke="url(#paint17_linear_1195_10879)"/>
<g clip-path="url(#clip3_1195_10879)">
<path d="M1182.3 28.7949H1171.62C1170.62 28.7949 1169.74 29.674 1169.74 30.6798V53.2945C1169.74 54.2992 1170.62 55.1793 1171.62 55.1793H1187.95C1188.96 55.1793 1189.84 54.3003 1189.84 53.2945V36.3332L1185.44 33.1925L1182.3 28.7949Z" fill="#673AB7"/>
<path d="M1177.28 48.2684H1184.81V47.0126H1177.28V48.2684ZM1177.28 40.1023V41.3581H1184.81V40.1023H1177.28ZM1176.14 40.7312C1176.14 41.2336 1175.77 41.7359 1175.14 41.7359C1174.51 41.7359 1174.13 41.3592 1174.13 40.7312C1174.13 40.1033 1174.51 39.7266 1175.14 39.7266C1175.77 39.7266 1176.14 40.2278 1176.14 40.7312ZM1176.14 44.2487C1176.14 44.751 1175.77 45.2534 1175.14 45.2534C1174.51 45.2534 1174.13 44.8766 1174.13 44.2487C1174.13 43.6207 1174.51 43.244 1175.14 43.244C1175.77 43.244 1176.14 43.7463 1176.14 44.2487ZM1176.14 47.6405C1176.14 48.1429 1175.77 48.6452 1175.14 48.6452C1174.51 48.6452 1174.13 48.2684 1174.13 47.6405C1174.13 47.0126 1174.51 46.6358 1175.14 46.6358C1175.77 46.6358 1176.14 47.1382 1176.14 47.6405ZM1177.28 45.1278H1184.81V43.8709H1177.28V45.1278Z" fill="#F1F1F1"/>
<path d="M1182.8 35.832L1189.83 42.7424V36.3344L1182.8 35.832Z" fill="url(#paint18_linear_1195_10879)"/>
<path d="M1182.3 28.7949V34.4484C1182.3 35.453 1183.18 36.3332 1184.18 36.3332H1189.84L1182.3 28.7949Z" fill="#B39DDB"/>
<path d="M1171.62 28.7949C1170.62 28.7949 1169.74 29.674 1169.74 30.6798V30.8053C1169.74 29.7996 1170.62 28.9205 1171.62 28.9205H1182.3V28.7949H1171.62Z" fill="white" fill-opacity="0.2"/>
<path d="M1187.95 55.0528H1171.62C1170.62 55.0528 1169.74 54.1737 1169.74 53.168V53.2936C1169.74 54.2982 1170.62 55.1784 1171.62 55.1784H1187.95C1188.96 55.1784 1189.84 54.2993 1189.84 53.2936V53.168C1189.84 54.1737 1188.96 55.0528 1187.95 55.0528Z" fill="#311B92" fill-opacity="0.2"/>
<path d="M1184.18 36.334C1183.18 36.334 1182.3 35.455 1182.3 34.4492V34.5748C1182.3 35.5795 1183.18 36.4596 1184.18 36.4596H1189.84V36.334H1184.18Z" fill="#311B92" fill-opacity="0.1"/>
<path d="M1182.3 28.7949H1171.62C1170.62 28.7949 1169.74 29.674 1169.74 30.6798V53.2945C1169.74 54.2992 1170.62 55.1793 1171.62 55.1793H1187.95C1188.96 55.1793 1189.84 54.3003 1189.84 53.2945V36.3332L1182.3 28.7949Z" fill="url(#paint19_radial_1195_10879)"/>
</g>
<defs>
<linearGradient id="paint0_linear_1195_10879" x1="972.77" y1="92.1346" x2="917.556" y2="261.022" gradientUnits="userSpaceOnUse">
<stop stop-color="#9F8AF9"/>
<stop offset="1" stop-color="#EFF2F7"/>
</linearGradient>
<linearGradient id="paint1_linear_1195_10879" x1="794.065" y1="92.1346" x2="709.417" y2="225.242" gradientUnits="userSpaceOnUse">
<stop stop-color="#9F8AF9"/>
<stop offset="1" stop-color="#EFF2F7"/>
</linearGradient>
<linearGradient id="paint2_linear_1195_10879" x1="1130.51" y1="91.2114" x2="1089.4" y2="269.823" gradientUnits="userSpaceOnUse">
<stop stop-color="#9F8AF9"/>
<stop offset="1" stop-color="#EFF2F7"/>
</linearGradient>
<linearGradient id="paint3_linear_1195_10879" x1="1251.25" y1="92.1346" x2="1217.64" y2="272.819" gradientUnits="userSpaceOnUse">
<stop stop-color="#9F8AF9"/>
<stop offset="1" stop-color="#EFF2F7"/>
</linearGradient>
<linearGradient id="paint4_linear_1195_10879" x1="228" y1="91.3918" x2="280.661" y2="259.007" gradientUnits="userSpaceOnUse">
<stop stop-color="#9F8AF9"/>
<stop offset="1" stop-color="#EFF2F7"/>
</linearGradient>
<linearGradient id="paint5_linear_1195_10879" x1="60.0001" y1="91.3918" x2="98.2186" y2="267.246" gradientUnits="userSpaceOnUse">
<stop stop-color="#9F8AF9"/>
<stop offset="1" stop-color="#EFF2F7"/>
</linearGradient>
<linearGradient id="paint6_linear_1195_10879" x1="360.605" y1="87.2489" x2="436.134" y2="238.89" gradientUnits="userSpaceOnUse">
<stop stop-color="#9F8AF9"/>
<stop offset="1" stop-color="#EFF2F7"/>
</linearGradient>
<linearGradient id="paint7_linear_1195_10879" x1="483.651" y1="87.2489" x2="578.281" y2="181.585" gradientUnits="userSpaceOnUse">
<stop stop-color="#9F8AF9"/>
<stop offset="1" stop-color="#EFF2F7"/>
</linearGradient>
<linearGradient id="paint8_linear_1195_10879" x1="605" y1="91.5784" x2="605" y2="194.004" gradientUnits="userSpaceOnUse">
<stop stop-color="#DDD6FD"/>
<stop offset="1" stop-color="#EFF2F7"/>
</linearGradient>
<linearGradient id="paint9_linear_1195_10879" x1="13" y1="22.5996" x2="46.5" y2="54.5996" gradientUnits="userSpaceOnUse">
<stop stop-color="#EBE7FE"/>
<stop offset="1" stop-color="#EBE7FE" stop-opacity="0"/>
</linearGradient>
<linearGradient id="paint10_linear_1195_10879" x1="154.094" y1="22.5996" x2="183.594" y2="41.5996" gradientUnits="userSpaceOnUse">
<stop stop-color="#EBE7FE"/>
<stop offset="1" stop-color="#EBE7FE" stop-opacity="0"/>
</linearGradient>
<linearGradient id="paint11_linear_1195_10879" x1="295.188" y1="22.5996" x2="324.687" y2="41.5996" gradientUnits="userSpaceOnUse">
<stop stop-color="#EBE7FE"/>
<stop offset="1" stop-color="#EBE7FE" stop-opacity="0"/>
</linearGradient>
<linearGradient id="paint12_linear_1195_10879" x1="473.674" y1="16.8691" x2="464.174" y2="52.3691" gradientUnits="userSpaceOnUse">
<stop stop-color="#EBE7FE"/>
<stop offset="1" stop-color="#EBE7FE" stop-opacity="0"/>
</linearGradient>
<linearGradient id="paint13_linear_1195_10879" x1="583.399" y1="21.574" x2="612.899" y2="40.574" gradientUnits="userSpaceOnUse">
<stop stop-color="#EBE7FE"/>
<stop offset="1" stop-color="#EBE7FE" stop-opacity="0"/>
</linearGradient>
<linearGradient id="paint14_linear_1195_10879" x1="725.52" y1="22.5996" x2="755.02" y2="41.5996" gradientUnits="userSpaceOnUse">
<stop stop-color="#EBE7FE"/>
<stop offset="1" stop-color="#EBE7FE" stop-opacity="0"/>
</linearGradient>
<linearGradient id="paint15_linear_1195_10879" x1="866.613" y1="22.5996" x2="896.113" y2="41.5996" gradientUnits="userSpaceOnUse">
<stop stop-color="#EBE7FE"/>
<stop offset="1" stop-color="#EBE7FE" stop-opacity="0"/>
</linearGradient>
<linearGradient id="paint16_linear_1195_10879" x1="1043.51" y1="12.3187" x2="1033.26" y2="50.6472" gradientUnits="userSpaceOnUse">
<stop stop-color="#EBE7FE"/>
<stop offset="1" stop-color="#EBE7FE" stop-opacity="0"/>
</linearGradient>
<linearGradient id="paint17_linear_1195_10879" x1="1189.71" y1="12.3187" x2="1179.45" y2="50.6472" gradientUnits="userSpaceOnUse">
<stop stop-color="#EBE7FE"/>
<stop offset="1" stop-color="#EBE7FE" stop-opacity="0"/>
</linearGradient>
<linearGradient id="paint18_linear_1195_10879" x1="1186.32" y1="36.382" x2="1186.32" y2="42.7688" gradientUnits="userSpaceOnUse">
<stop stop-color="#311B92" stop-opacity="0.2"/>
<stop offset="1" stop-color="#311B92" stop-opacity="0.02"/>
</linearGradient>
<radialGradient id="paint19_radial_1195_10879" cx="0" cy="0" r="1" gradientUnits="userSpaceOnUse" gradientTransform="translate(1170.37 29.499) scale(259.291 259.289)">
<stop stop-color="white" stop-opacity="0.1"/>
<stop offset="1" stop-color="white" stop-opacity="0"/>
</radialGradient>
<clipPath id="clip0_1195_10879">
<rect width="26.1818" height="25.4545" fill="white" transform="translate(164.004 32.7363)"/>
</clipPath>
<clipPath id="clip1_1195_10879">
<rect width="26.1818" height="25.4545" fill="white" transform="translate(305.098 32.7363)"/>
</clipPath>
<clipPath id="clip2_1195_10879">
<rect width="26.1818" height="25.4545" fill="white" transform="translate(451.674 31.8691)"/>
</clipPath>
<clipPath id="clip3_1195_10879">
<rect width="20.102" height="26.3834" fill="white" transform="translate(1169.74 28.7949)"/>
</clipPath>
</defs>
</svg>
