<svg width="1210" height="244" viewBox="0 0 1210 244" fill="none" xmlns="http://www.w3.org/2000/svg">
<path d="M605 244C605 143.559 883 173.365 883 79.5" stroke="url(#paint0_linear_1195_10879)"/>
<path d="M605 244C605 143.559 1029.5 172.365 1029.5 78.5" stroke="url(#paint1_linear_1195_10879)"/>
<path d="M605 244C605 143.559 1177 173.365 1177 79.5" stroke="url(#paint2_linear_1195_10879)"/>
<path d="M605 241C605 142.352 171.5 167.689 171.5 75.5" stroke="url(#paint3_linear_1195_10879)"/>
<path d="M605 241C605 142.352 31.5 169.189 31.5 77" stroke="url(#paint4_linear_1195_10879)"/>
<path d="M605 241C605 142.352 329 168.689 329 76.5" stroke="url(#paint5_linear_1195_10879)"/>
<path d="M605 243L605 76" stroke="url(#paint6_linear_1195_10879)"/>
<g opacity="0.78">
<circle cx="32" cy="45.2305" r="31.5" fill="white" stroke="url(#paint7_linear_1195_10879)"/>
<path d="M30.0258 42.7504C28.7423 43.9287 27.9395 45.5991 27.9395 47.4535C27.9395 48.9102 28.4355 50.2525 29.269 51.3314L26.7378 53.8072C26.5128 53.7276 26.2724 53.6829 26.0218 53.6829C25.4696 53.6829 24.9531 53.8918 24.5644 54.2696C24.1758 54.6474 23.961 55.1544 23.961 55.6915C23.961 56.2283 24.1757 56.7305 24.5644 57.1084C24.9531 57.4861 25.4747 57.685 26.0218 57.685C26.5741 57.685 27.0905 57.4911 27.4843 57.1084C27.873 56.7305 28.0877 56.2234 28.0877 55.6915C28.0877 55.4827 28.0571 55.2838 27.9906 55.0899L30.5475 52.5941C31.6724 53.4343 33.0735 53.9315 34.6025 53.9315C38.2793 53.9315 41.2502 51.033 41.2502 47.4584C41.2502 44.217 38.8111 41.5323 35.615 41.06V37.9976C36.5099 37.6296 37.057 36.8142 37.057 35.8646C37.057 34.567 35.9883 33.4833 34.6536 33.4833C33.319 33.4833 32.2656 34.567 32.2656 35.8646C32.2656 36.8142 32.8127 37.6296 33.7076 37.9976V41.0401C32.9304 41.1445 32.194 41.3732 31.5241 41.7163C30.1128 40.6772 25.5156 37.4555 22.8871 35.5116C22.9485 35.2929 22.9895 35.0642 22.9895 34.8256C22.9895 33.3938 21.7878 32.2305 20.3099 32.2305C18.8372 32.2305 17.6406 33.3938 17.6406 34.8256C17.6406 36.2624 18.8372 37.4258 20.3099 37.4258C20.8111 37.4258 21.2764 37.2816 21.6804 37.0479L30.0258 42.7504ZM34.6025 50.884C32.6543 50.884 31.0741 49.3477 31.0741 47.4535C31.0741 45.5594 32.6543 44.0232 34.6025 44.0232C36.5508 44.0232 38.1309 45.5594 38.1309 47.4535C38.1309 49.3477 36.5508 50.884 34.6025 50.884Z" fill="#FF7A59"/>
<circle cx="174" cy="45.2305" r="31.5" fill="white" stroke="url(#paint8_linear_1195_10879)"/>
<path fill-rule="evenodd" clip-rule="evenodd" d="M161.345 41.3181H166.771V58.3223H161.345V41.3181ZM170.172 41.3178H175.376V43.6406H175.455C176.174 42.3049 177.948 40.8986 180.586 40.8986C186.078 40.8986 187.092 44.4179 187.092 48.9992V58.3219H181.673V50.0554C181.673 48.0828 181.634 45.5439 178.852 45.5439C176.031 45.5439 175.599 47.6947 175.599 49.9087V58.3217H170.172V41.3178ZM164.059 32.8672C165.793 32.8672 167.2 34.242 167.2 35.9286C167.2 37.6213 165.793 38.9952 164.059 38.9952C162.317 38.9952 160.91 37.6213 160.91 35.9286C160.91 34.2418 162.317 32.8672 164.059 32.8672Z" fill="#0277B5"/>
<circle cx="329.23" cy="45.2311" r="31.5" transform="rotate(43.1452 329.23 45.2311)" fill="white" stroke="url(#paint9_linear_1195_10879)"/>
<g clip-path="url(#clip0_1195_10879)">
<path fill-rule="evenodd" clip-rule="evenodd" d="M325.782 32.8672C324.329 32.8682 323.152 34.0129 323.153 35.4235C323.152 36.834 324.33 37.9787 325.783 37.9798H328.413V35.4245C328.414 34.014 327.237 32.8693 325.782 32.8672ZM325.782 39.6854H318.771C317.317 39.6864 316.14 40.8311 316.141 42.2417C316.138 43.6522 317.316 44.7969 318.77 44.799H325.782C327.236 44.798 328.413 43.6533 328.412 42.2427C328.413 40.8311 327.236 39.6864 325.782 39.6854V39.6854Z" fill="#36C5F0"/>
<path fill-rule="evenodd" clip-rule="evenodd" d="M342.322 42.2417C342.323 40.8311 341.145 39.6864 339.691 39.6854C338.237 39.6864 337.06 40.8311 337.061 42.2417V44.799H339.691C341.145 44.798 342.323 43.6533 342.322 42.2417ZM335.308 42.2417V35.4235C335.309 34.014 334.133 32.8693 332.679 32.8672C331.225 32.8682 330.048 34.0129 330.049 35.4235V42.2417C330.047 43.6522 331.224 44.7969 332.678 44.799C334.132 44.798 335.309 43.6533 335.308 42.2417V42.2417Z" fill="#2EB67D"/>
<path fill-rule="evenodd" clip-rule="evenodd" d="M332.679 58.3224C334.133 58.3214 335.31 57.1768 335.309 55.7664C335.31 54.3559 334.133 53.2113 332.679 53.2103H330.049V55.7664C330.048 57.1758 331.225 58.3204 332.679 58.3224ZM332.679 51.5038H339.691C341.145 51.5028 342.323 50.3582 342.322 48.9477C342.324 47.5373 341.146 46.3927 339.693 46.3906H332.68C331.226 46.3917 330.049 47.5363 330.05 48.9467C330.049 50.3582 331.225 51.5028 332.679 51.5038V51.5038Z" fill="#ECB22E"/>
<path fill-rule="evenodd" clip-rule="evenodd" d="M316.141 48.9469C316.14 50.3575 317.317 51.5022 318.771 51.5032C320.225 51.5022 321.402 50.3575 321.401 48.9469V46.3906H318.771C317.317 46.3917 316.14 47.5364 316.141 48.9469ZM323.154 48.9469V55.7651C323.152 57.1757 324.329 58.3204 325.783 58.3224C327.237 58.3214 328.414 57.1767 328.413 55.7661V48.949C328.415 47.5385 327.238 46.3938 325.784 46.3917C324.329 46.3917 323.153 47.5364 323.154 48.9469Z" fill="#E01E5A"/>
</g>
</g>
<circle cx="606" cy="45" r="31.5" fill="white" stroke="url(#paint10_linear_1195_10879)"/>
<g clip-path="url(#clip1_1195_10879)">
<path d="M606.196 32C599.029 32 593 37.596 593 44.5045V57.4545H606.204C613.368 57.4545 619.182 51.6398 619.182 44.7273C619.182 37.8148 613.351 32 606.196 32Z" fill="#231F20"/>
<path d="M606.333 36.8398C604.94 36.8405 603.57 37.1897 602.359 37.8534C601.147 38.517 600.135 39.4724 599.422 40.6258C598.709 41.7793 598.32 43.0913 598.291 44.4335C598.263 45.7757 598.597 47.1019 599.26 48.2825L597.803 52.7967L603.03 51.6592C604.124 52.1341 605.315 52.3672 606.515 52.3413C607.716 52.3154 608.894 52.0313 609.966 51.5097C611.037 50.9881 611.974 50.2422 612.707 49.3267C613.44 48.4112 613.952 47.3493 614.204 46.2188C614.455 45.0883 614.442 43.9178 614.163 42.7931C613.885 41.6683 613.349 40.6178 612.594 39.7186C611.839 38.8193 610.885 38.0941 609.802 37.596C608.719 37.0979 607.534 36.8395 606.333 36.8398V36.8398Z" fill="#FFF9AE"/>
<path d="M612.7 39.875C613.779 41.2444 614.354 42.9202 614.336 44.639C614.318 46.3577 613.707 48.0219 612.6 49.3699C611.493 50.7178 609.952 51.6731 608.219 52.0854C606.487 52.4977 604.662 52.3438 603.03 51.6477L597.803 52.7972L603.125 52.1926C604.829 53.1434 606.837 53.4587 608.766 53.0789C610.696 52.6991 612.414 51.6505 613.594 50.1319C614.775 48.6133 615.336 46.7302 615.171 44.8397C615.006 42.9492 614.127 41.1827 612.7 39.875V39.875Z" fill="#00AEEF"/>
<path d="M611.234 38.4473C612.462 39.7003 613.221 41.3119 613.392 43.0271C613.562 44.7423 613.134 46.4633 612.175 47.918C611.217 49.3726 609.782 50.4779 608.098 51.059C606.414 51.6402 604.577 51.664 602.877 51.1268L597.803 52.7973L603.03 51.6558C604.828 52.437 606.862 52.5544 608.744 51.9856C610.626 51.4169 612.226 50.2016 613.239 48.571C614.252 46.9404 614.607 45.0081 614.238 43.1415C613.868 41.275 612.799 39.6043 611.234 38.4473Z" fill="#00A94F"/>
<path d="M599.739 48.4549C599.035 46.8135 598.937 44.9891 599.463 43.2867C599.988 41.5843 601.104 40.1073 602.624 39.1026C604.144 38.0979 605.977 37.6265 607.815 37.7672C609.652 37.908 611.384 38.6524 612.721 39.8759C611.493 38.3174 609.7 37.2638 607.699 36.9266C605.699 36.5893 603.64 36.9934 601.936 38.0577C600.233 39.122 599.01 40.7677 598.513 42.6645C598.017 44.5613 598.284 46.5687 599.26 48.2838L597.803 52.798L599.739 48.4549Z" fill="#F15D22"/>
<path d="M599.26 48.284C598.385 46.7232 598.093 44.9208 598.432 43.1777C598.771 41.4345 599.72 39.8558 601.12 38.7051C602.521 37.5544 604.289 36.9012 606.13 36.8544C607.97 36.8076 609.772 37.3702 611.234 38.4482C609.839 37.0383 607.945 36.1854 605.928 36.0593C603.911 35.9331 601.918 36.5428 600.347 37.7672C598.775 38.9916 597.739 40.7409 597.445 42.6674C597.151 44.5939 597.62 46.5564 598.76 48.1646L597.806 52.7982L599.26 48.284Z" fill="#E31B23"/>
</g>
<circle cx="882.776" cy="43.7068" r="31.5" transform="rotate(91.8658 882.776 43.7068)" fill="white" stroke="url(#paint11_linear_1195_10879)"/>
<path fill-rule="evenodd" clip-rule="evenodd" d="M882.883 30.7531C879.771 30.7499 876.76 31.8491 874.389 33.8536C872.018 35.8581 870.443 38.6369 869.944 41.6921C869.446 44.7472 870.058 47.879 871.67 50.5262C873.283 53.1733 875.79 55.1629 878.743 56.1382C879.394 56.2581 879.636 55.8504 879.636 55.5066C879.636 55.1628 879.636 54.3792 879.636 53.2919C875.994 54.0914 875.223 51.5489 875.223 51.5489C874.98 50.7609 874.464 50.0839 873.768 49.638C872.586 48.8385 873.864 48.8385 873.864 48.8385C874.278 48.8967 874.674 49.0479 875.021 49.2806C875.367 49.5133 875.656 49.8215 875.866 50.1817C876.043 50.5025 876.283 50.7851 876.571 51.0135C876.859 51.2419 877.19 51.4115 877.544 51.5125C877.898 51.6135 878.268 51.644 878.634 51.6022C879 51.5605 879.354 51.4472 879.676 51.2691C879.726 50.6113 880.011 49.9932 880.48 49.5261C877.57 49.1983 874.515 48.0789 874.515 43.0898C874.495 41.797 874.976 40.546 875.858 39.5959C875.464 38.4719 875.51 37.2418 875.986 36.1499C875.986 36.1499 877.087 35.7981 879.587 37.4851C881.734 36.8989 884 36.8989 886.146 37.4851C888.646 35.7981 889.74 36.1499 889.74 36.1499C890.221 37.2402 890.27 38.4712 889.876 39.5959C890.758 40.546 891.239 41.797 891.219 43.0898C891.219 48.0949 888.156 49.1903 885.238 49.4861C885.551 49.7989 885.793 50.175 885.947 50.5889C886.1 51.0027 886.163 51.4446 886.13 51.8847C886.13 53.6277 886.13 55.0349 886.13 55.4586C886.13 55.8824 886.363 56.2102 887.031 56.0902C889.974 55.1057 892.471 53.113 894.075 50.4676C895.679 47.8222 896.286 44.6961 895.788 41.6468C895.289 38.5976 893.718 35.8236 891.355 33.8195C888.991 31.8155 885.989 30.7117 882.883 30.7051V30.7531Z" fill="#191717"/>
<rect x="994.301" y="11.1816" width="68.0993" height="68.0993" rx="34.0497" fill="white" stroke="url(#paint12_linear_1195_10879)"/>
<path d="M1023.32 40.7746L1016.3 46.0603L1023.32 50.7452V54.7301L1013.13 47.4271V45.043L1023.32 36.7734V40.7746Z" fill="#414857"/>
<path d="M1027.21 58.1124H1024.36L1029.96 33.7363H1032.8L1027.21 58.1124Z" fill="#414857"/>
<path d="M1044.01 47.4271L1033.82 54.7301V50.7452L1040.84 46.0603L1033.82 40.7746V36.7734L1044.01 45.043V47.4271Z" fill="#414857"/>
<rect x="1141.4" y="11.1816" width="68.0993" height="68.0993" rx="34.0497" fill="white" stroke="url(#paint13_linear_1195_10879)"/>
<g clip-path="url(#clip2_1195_10879)">
<path d="M1178.3 31.4766H1167.62C1166.62 31.4766 1165.74 32.3557 1165.74 33.3614V55.9762C1165.74 56.9808 1166.62 57.861 1167.62 57.861H1183.95C1184.96 57.861 1185.84 56.9819 1185.84 55.9762V39.0148L1181.44 35.8741L1178.3 31.4766Z" fill="#673AB7"/>
<path d="M1173.28 50.9501H1180.81V49.6942H1173.28V50.9501ZM1173.28 42.7839V44.0398H1180.81V42.7839H1173.28ZM1172.14 43.4129C1172.14 43.9152 1171.77 44.4176 1171.14 44.4176C1170.51 44.4176 1170.13 44.0408 1170.13 43.4129C1170.13 42.785 1170.51 42.4082 1171.14 42.4082C1171.77 42.4082 1172.14 42.9095 1172.14 43.4129ZM1172.14 46.9303C1172.14 47.4327 1171.77 47.935 1171.14 47.935C1170.51 47.935 1170.13 47.5582 1170.13 46.9303C1170.13 46.3024 1170.51 45.9256 1171.14 45.9256C1171.77 45.9256 1172.14 46.428 1172.14 46.9303ZM1172.14 50.3222C1172.14 50.8245 1171.77 51.3268 1171.14 51.3268C1170.51 51.3268 1170.13 50.9501 1170.13 50.3222C1170.13 49.6942 1170.51 49.3175 1171.14 49.3175C1171.77 49.3175 1172.14 49.8198 1172.14 50.3222ZM1173.28 47.8094H1180.81V46.5525H1173.28V47.8094Z" fill="#F1F1F1"/>
<path d="M1178.8 38.5137L1185.83 45.424V39.016L1178.8 38.5137Z" fill="url(#paint14_linear_1195_10879)"/>
<path d="M1178.3 31.4766V37.13C1178.3 38.1347 1179.18 39.0148 1180.18 39.0148H1185.84L1178.3 31.4766Z" fill="#B39DDB"/>
<path d="M1167.62 31.4766C1166.62 31.4766 1165.74 32.3557 1165.74 33.3614V33.487C1165.74 32.4812 1166.62 31.6021 1167.62 31.6021H1178.3V31.4766H1167.62Z" fill="white" fill-opacity="0.2"/>
<path d="M1183.95 57.7344H1167.62C1166.62 57.7344 1165.74 56.8553 1165.74 55.8496V55.9752C1165.74 56.9799 1166.62 57.86 1167.62 57.86H1183.95C1184.96 57.86 1185.84 56.9809 1185.84 55.9752V55.8496C1185.84 56.8553 1184.96 57.7344 1183.95 57.7344Z" fill="#311B92" fill-opacity="0.2"/>
<path d="M1180.18 39.0157C1179.18 39.0157 1178.3 38.1366 1178.3 37.1309V37.2564C1178.3 38.2611 1179.18 39.1413 1180.18 39.1413H1185.84V39.0157H1180.18Z" fill="#311B92" fill-opacity="0.1"/>
<path d="M1178.3 31.4766H1167.62C1166.62 31.4766 1165.74 32.3557 1165.74 33.3614V55.9762C1165.74 56.9808 1166.62 57.861 1167.62 57.861H1183.95C1184.96 57.861 1185.84 56.9819 1185.84 55.9762V39.0148L1178.3 31.4766Z" fill="url(#paint15_radial_1195_10879)"/>
</g>
<defs>
<linearGradient id="paint0_linear_1195_10879" x1="965" y1="91.6716" x2="908.523" y2="260.26" gradientUnits="userSpaceOnUse">
<stop stop-color="#9F8AF9"/>
<stop offset="1" stop-color="#EFF2F7"/>
</linearGradient>
<linearGradient id="paint1_linear_1195_10879" x1="1125" y1="91.6716" x2="1083.73" y2="269.609" gradientUnits="userSpaceOnUse">
<stop stop-color="#9F8AF9"/>
<stop offset="1" stop-color="#EFF2F7"/>
</linearGradient>
<linearGradient id="paint2_linear_1195_10879" x1="1249" y1="91.6716" x2="1215.08" y2="272.827" gradientUnits="userSpaceOnUse">
<stop stop-color="#9F8AF9"/>
<stop offset="1" stop-color="#EFF2F7"/>
</linearGradient>
<linearGradient id="paint3_linear_1195_10879" x1="228" y1="91.3918" x2="280.661" y2="259.007" gradientUnits="userSpaceOnUse">
<stop stop-color="#9F8AF9"/>
<stop offset="1" stop-color="#EFF2F7"/>
</linearGradient>
<linearGradient id="paint4_linear_1195_10879" x1="60.0001" y1="91.3918" x2="98.2186" y2="267.246" gradientUnits="userSpaceOnUse">
<stop stop-color="#9F8AF9"/>
<stop offset="1" stop-color="#EFF2F7"/>
</linearGradient>
<linearGradient id="paint5_linear_1195_10879" x1="364" y1="91.3918" x2="436.901" y2="239.723" gradientUnits="userSpaceOnUse">
<stop stop-color="#9F8AF9"/>
<stop offset="1" stop-color="#EFF2F7"/>
</linearGradient>
<linearGradient id="paint6_linear_1195_10879" x1="605" y1="91.5784" x2="605" y2="194.004" gradientUnits="userSpaceOnUse">
<stop stop-color="#DDD6FD"/>
<stop offset="1" stop-color="#EFF2F7"/>
</linearGradient>
<linearGradient id="paint7_linear_1195_10879" x1="9" y1="22.7305" x2="42.5" y2="54.7305" gradientUnits="userSpaceOnUse">
<stop stop-color="#EBE7FE"/>
<stop offset="1" stop-color="#EBE7FE" stop-opacity="0"/>
</linearGradient>
<linearGradient id="paint8_linear_1195_10879" x1="151" y1="22.7305" x2="180.5" y2="41.7305" gradientUnits="userSpaceOnUse">
<stop stop-color="#EBE7FE"/>
<stop offset="1" stop-color="#EBE7FE" stop-opacity="0"/>
</linearGradient>
<linearGradient id="paint9_linear_1195_10879" x1="306.23" y1="22.7311" x2="335.73" y2="41.7311" gradientUnits="userSpaceOnUse">
<stop stop-color="#EBE7FE"/>
<stop offset="1" stop-color="#EBE7FE" stop-opacity="0"/>
</linearGradient>
<linearGradient id="paint10_linear_1195_10879" x1="615.5" y1="17" x2="606" y2="52.5" gradientUnits="userSpaceOnUse">
<stop stop-color="#EBE7FE"/>
<stop offset="1" stop-color="#EBE7FE" stop-opacity="0"/>
</linearGradient>
<linearGradient id="paint11_linear_1195_10879" x1="859.776" y1="21.2068" x2="889.276" y2="40.2068" gradientUnits="userSpaceOnUse">
<stop stop-color="#EBE7FE"/>
<stop offset="1" stop-color="#EBE7FE" stop-opacity="0"/>
</linearGradient>
<linearGradient id="paint12_linear_1195_10879" x1="1038.61" y1="15.0003" x2="1028.35" y2="53.3289" gradientUnits="userSpaceOnUse">
<stop stop-color="#EBE7FE"/>
<stop offset="1" stop-color="#EBE7FE" stop-opacity="0"/>
</linearGradient>
<linearGradient id="paint13_linear_1195_10879" x1="1185.71" y1="15.0003" x2="1175.45" y2="53.3289" gradientUnits="userSpaceOnUse">
<stop stop-color="#EBE7FE"/>
<stop offset="1" stop-color="#EBE7FE" stop-opacity="0"/>
</linearGradient>
<linearGradient id="paint14_linear_1195_10879" x1="1182.32" y1="39.0636" x2="1182.32" y2="45.4504" gradientUnits="userSpaceOnUse">
<stop stop-color="#311B92" stop-opacity="0.2"/>
<stop offset="1" stop-color="#311B92" stop-opacity="0.02"/>
</linearGradient>
<radialGradient id="paint15_radial_1195_10879" cx="0" cy="0" r="1" gradientUnits="userSpaceOnUse" gradientTransform="translate(1166.37 32.1807) scale(259.291 259.289)">
<stop stop-color="white" stop-opacity="0.1"/>
<stop offset="1" stop-color="white" stop-opacity="0"/>
</radialGradient>
<clipPath id="clip0_1195_10879">
<rect width="26.1818" height="25.4545" fill="white" transform="translate(316.141 32.8672)"/>
</clipPath>
<clipPath id="clip1_1195_10879">
<rect width="26.1818" height="25.4545" fill="white" transform="translate(593 32)"/>
</clipPath>
<clipPath id="clip2_1195_10879">
<rect width="20.102" height="26.3834" fill="white" transform="translate(1165.74 31.4766)"/>
</clipPath>
</defs>
</svg>
