<svg width="20" height="20" viewBox="0 0 20 20" fill="none" xmlns="http://www.w3.org/2000/svg">
<path d="M10.7108 8.26564C9.73031 9.19143 9.11709 10.5039 9.11709 11.9609C9.11709 13.1055 9.49596 14.1601 10.1327 15.0079L8.19908 16.9531C8.02721 16.8906 7.8436 16.8555 7.65217 16.8555C7.23034 16.8555 6.83581 17.0196 6.5389 17.3165C6.24203 17.6133 6.07794 18.0116 6.07794 18.4337C6.07794 18.8555 6.24199 19.25 6.5389 19.547C6.83581 19.8437 7.23425 20 7.65217 20C8.07404 20 8.46856 19.8476 8.76935 19.547C9.06626 19.25 9.2303 18.8516 9.2303 18.4337C9.2303 18.2696 9.20691 18.1133 9.15609 17.9609L11.1093 16C11.9686 16.6601 13.0389 17.0508 14.2068 17.0508C17.0155 17.0508 19.285 14.7734 19.285 11.9648C19.285 9.41795 17.4218 7.3086 14.9803 6.93751V4.53128C15.6639 4.24215 16.0819 3.60154 16.0819 2.8554C16.0819 1.83588 15.2655 0.984352 14.2459 0.984352C13.2264 0.984352 12.4217 1.83588 12.4217 2.8554C12.4217 3.60154 12.8397 4.24215 13.5232 4.53128V6.92186C12.9295 7.0039 12.367 7.18355 11.8553 7.45312C10.7772 6.63668 7.26551 4.10541 5.25763 2.57805C5.3045 2.40618 5.33581 2.22653 5.33581 2.03905C5.33581 0.914047 4.41785 0 3.28893 0C2.16393 0 1.24988 0.914047 1.24988 2.03905C1.24988 3.16797 2.16393 4.08202 3.28893 4.08202C3.67176 4.08202 4.02719 3.96871 4.3358 3.78515L10.7108 8.26564ZM14.2068 14.6564C12.7186 14.6564 11.5116 13.4493 11.5116 11.961C11.5116 10.4727 12.7186 9.26574 14.2068 9.26574C15.6951 9.26574 16.9022 10.4727 16.9022 11.961C16.9022 13.4493 15.6952 14.6564 14.2068 14.6564Z" fill="#FF7A59"/>
</svg>
