<svg width="297" height="212" viewBox="0 0 297 212" fill="none" xmlns="http://www.w3.org/2000/svg">
<circle opacity="0.2" cx="149.5" cy="66.5" r="80" stroke="url(#paint0_linear_1262_12050)"/>
<circle opacity="0.4" cx="149" cy="66" r="58.5" stroke="url(#paint1_linear_1262_12050)"/>
<circle opacity="0.2" cx="148.5" cy="63.5" r="104" stroke="url(#paint2_linear_1262_12050)"/>
<circle opacity="0.1" cx="148.5" cy="63.5" r="125" stroke="url(#paint3_linear_1262_12050)"/>
<circle opacity="0.05" cx="148.5" cy="63.5" r="148" stroke="url(#paint4_linear_1262_12050)"/>
<rect width="94" height="40" transform="translate(33 43)" fill="white"/>
<g filter="url(#filter0_dd_1262_12050)">
<rect x="33" y="43" width="94" height="40" rx="8" fill="white"/>
<rect x="33.5" y="43.5" width="93" height="39" rx="7.5" stroke="#EFF2F7"/>
</g>
<path d="M83.6 59.504H84.908L88.568 68H86.84L86.048 66.056H82.364L81.596 68H79.904L83.6 59.504ZM85.52 64.76L84.212 61.304L82.88 64.76H85.52ZM89.5287 59.504H92.3007C92.7887 59.504 93.2287 59.548 93.6207 59.636C94.0127 59.724 94.3487 59.868 94.6287 60.068C94.9087 60.268 95.1247 60.524 95.2767 60.836C95.4287 61.148 95.5047 61.524 95.5047 61.964C95.5047 62.436 95.4167 62.832 95.2407 63.152C95.0647 63.472 94.8247 63.732 94.5207 63.932C94.2247 64.124 93.8767 64.264 93.4767 64.352C93.0767 64.44 92.6527 64.484 92.2047 64.484H91.0407V68H89.5287V59.504ZM92.0967 63.212C92.3447 63.212 92.5807 63.196 92.8047 63.164C93.0287 63.124 93.2287 63.06 93.4047 62.972C93.5807 62.876 93.7207 62.748 93.8247 62.588C93.9287 62.428 93.9807 62.22 93.9807 61.964C93.9807 61.716 93.9287 61.516 93.8247 61.364C93.7207 61.204 93.5807 61.08 93.4047 60.992C93.2367 60.904 93.0407 60.848 92.8167 60.824C92.6007 60.792 92.3767 60.776 92.1447 60.776H91.0407V63.212H92.0967ZM96.9729 59.504H98.4849V68H96.9729V59.504Z" fill="black"/>
<path fill-rule="evenodd" clip-rule="evenodd" d="M71.2047 61.9271C71.0281 60.5992 70.5264 59.3348 69.7436 58.2448C68.9608 57.1548 67.9209 56.2726 66.7152 55.6757C65.5094 55.0788 64.1748 54.7854 62.8284 54.8213C61.482 54.8572 60.1651 55.2213 58.9933 55.8817C57.8215 56.542 56.8306 57.4784 56.1077 58.6085C55.3848 59.7387 54.952 61.0281 54.8472 62.3635C54.7424 63.6989 54.9689 65.0395 55.5068 66.2674C56.0448 67.4954 56.8776 68.5733 57.9322 69.4064C58.7397 69.0488 59.6225 68.6314 60.5602 68.1633C59.6118 67.7114 58.806 67.0098 58.2301 66.1346C57.6543 65.2595 57.3304 64.2442 57.2937 63.199C57.257 62.1537 57.5088 61.1184 58.0219 60.2055C58.5349 59.2925 59.2896 58.5367 60.204 58.0201C61.1184 57.5035 62.1576 57.2458 63.2088 57.275C64.2601 57.3042 65.2832 57.6191 66.1672 58.1857C67.0512 58.7522 67.7623 59.5487 68.2233 60.4887C68.6843 61.4288 68.8777 62.4764 68.7824 63.518C69.6508 62.9703 70.4628 62.4369 71.2047 61.9271ZM71.274 62.8544C70.443 63.4657 69.522 64.099 68.5318 64.7376C68.0895 66.1173 67.138 67.2791 65.8689 67.9891C64.5999 68.699 63.1074 68.9045 61.6922 68.564C60.6067 69.0829 59.5768 69.5322 58.6338 69.9041C59.8881 70.6974 61.3351 71.138 62.821 71.1789C64.3069 71.2198 65.7761 70.8595 67.0726 70.1364C68.3691 69.4134 69.4444 68.3544 70.1842 67.0722C70.924 65.79 71.3006 64.3324 71.274 62.8544V62.8544Z" fill="url(#paint5_linear_1262_12050)"/>
<path fill-rule="evenodd" clip-rule="evenodd" d="M72.7091 69.2854C72.8958 69.2856 73.0784 69.2306 73.2337 69.1276C73.389 69.0246 73.5101 68.878 73.5816 68.7065C73.6532 68.535 73.672 68.3463 73.6357 68.1642C73.5993 67.982 73.5095 67.8147 73.3775 67.6834C73.2456 67.552 73.0774 67.4626 72.8943 67.4263C72.7112 67.39 72.5214 67.4086 72.3489 67.4796C72.1764 67.5506 72.029 67.6709 71.9252 67.8253C71.8215 67.9796 71.7661 68.1611 71.7661 68.3468C71.7661 68.5956 71.8654 68.8342 72.0423 69.0102C72.2191 69.1862 72.459 69.2852 72.7091 69.2854Z" fill="#00CCF5"/>
<path fill-rule="evenodd" clip-rule="evenodd" d="M71.6918 56.1997C71.8032 56.1997 71.912 56.1669 72.0046 56.1054C72.0971 56.0439 72.1693 55.9564 72.2119 55.8541C72.2545 55.7519 72.2657 55.6393 72.2439 55.5307C72.2222 55.4221 72.1686 55.3223 72.0899 55.244C72.0111 55.1658 71.9108 55.1124 71.8016 55.0908C71.6925 55.0692 71.5793 55.0803 71.4764 55.1227C71.3735 55.1651 71.2856 55.2368 71.2238 55.3289C71.1619 55.4209 71.1289 55.5292 71.1289 55.6399C71.1288 55.7135 71.1433 55.7863 71.1716 55.8543C71.1998 55.9222 71.2413 55.984 71.2936 56.036C71.3459 56.088 71.4079 56.1292 71.4763 56.1573C71.5446 56.1854 71.6179 56.1998 71.6918 56.1997V56.1997Z" fill="#00CCF5"/>
<path fill-rule="evenodd" clip-rule="evenodd" d="M52.7503 65.7111C52.8988 65.7111 53.044 65.6673 53.1674 65.5852C53.2908 65.5031 53.387 65.3864 53.4437 65.25C53.5004 65.1135 53.5152 64.9633 53.486 64.8185C53.4569 64.6737 53.3852 64.5408 53.28 64.4365C53.1749 64.3322 53.041 64.2613 52.8953 64.2328C52.7496 64.2043 52.5987 64.2194 52.4616 64.2762C52.3245 64.333 52.2075 64.429 52.1253 64.552C52.0432 64.675 51.9996 64.8195 52 64.9672C52.0006 65.1647 52.0799 65.3539 52.2206 65.4934C52.3612 65.6328 52.5517 65.7111 52.7503 65.7111V65.7111Z" fill="#00CCF5"/>
<path fill-rule="evenodd" clip-rule="evenodd" d="M65.422 61.3168C66.2324 60.8714 67.0216 60.4487 67.7833 60.0585C67.8115 60.104 67.842 60.1578 67.874 60.2184C67.1191 60.6108 66.3299 61.035 65.5195 61.4812L65.422 61.3168ZM75.9491 57.342C75.5873 56.7185 73.3935 57.3806 70.2887 58.8237C70.3176 58.8715 70.3466 58.9207 70.374 58.9707C73.3486 57.5624 75.4243 56.8844 75.6879 57.4298C76.1022 58.1434 71.346 61.6448 65.0693 65.25C58.7926 68.8552 53.3644 71.1991 52.9501 70.4855C52.7139 70.0612 53.8817 68.9052 54.9306 67.9855C53.4201 69.1976 52.6278 70.1317 52.8884 70.5802C53.4795 71.5991 59.2009 69.5953 65.5697 65.9409C71.9386 62.2865 76.5433 58.3609 75.9491 57.342Z" fill="#00CCF5"/>
<path d="M64.6762 61.9096C64.542 61.6806 64.4918 61.4123 64.5342 61.1506C64.5766 60.8889 64.709 60.6499 64.9088 60.4744C65.1086 60.2989 65.3634 60.1978 65.6298 60.1882C65.8962 60.1787 66.1577 60.2613 66.3696 60.4221C66.5816 60.5828 66.731 60.8117 66.7922 61.0697C66.8535 61.3277 66.8228 61.5989 66.7055 61.8369C66.5882 62.075 66.3915 62.2652 66.149 62.3752C65.9065 62.4851 65.6331 62.508 65.3754 62.4399C65.2287 62.4035 65.0911 62.3376 64.9708 62.2465C64.8506 62.1553 64.7503 62.0407 64.6762 61.9096V61.9096Z" fill="#FA00E9"/>
<g filter="url(#filter1_dd_1262_12050)">
<rect x="165" y="43" width="94" height="40" rx="8" fill="white"/>
<rect x="165.5" y="43.5" width="93" height="39" rx="7.5" stroke="#EFF2F7"/>
</g>
<path d="M188.988 63.316L185.796 58.504H187.644L189.78 62.08L191.94 58.504H193.692L190.5 63.316V67H188.988V63.316ZM193 64.096C193 63.64 193.08 63.228 193.24 62.86C193.408 62.484 193.632 62.164 193.912 61.9C194.192 61.636 194.524 61.432 194.908 61.288C195.292 61.144 195.7 61.072 196.132 61.072C196.564 61.072 196.972 61.144 197.356 61.288C197.74 61.432 198.072 61.636 198.352 61.9C198.632 62.164 198.852 62.484 199.012 62.86C199.18 63.228 199.264 63.64 199.264 64.096C199.264 64.552 199.18 64.968 199.012 65.344C198.852 65.72 198.632 66.044 198.352 66.316C198.072 66.58 197.74 66.788 197.356 66.94C196.972 67.092 196.564 67.168 196.132 67.168C195.7 67.168 195.292 67.092 194.908 66.94C194.524 66.788 194.192 66.58 193.912 66.316C193.632 66.044 193.408 65.72 193.24 65.344C193.08 64.968 193 64.552 193 64.096ZM194.464 64.096C194.464 64.32 194.496 64.544 194.56 64.768C194.632 64.992 194.736 65.192 194.872 65.368C195.008 65.544 195.18 65.688 195.388 65.8C195.596 65.912 195.844 65.968 196.132 65.968C196.42 65.968 196.668 65.912 196.876 65.8C197.084 65.688 197.256 65.544 197.392 65.368C197.528 65.192 197.628 64.992 197.692 64.768C197.764 64.544 197.8 64.32 197.8 64.096C197.8 63.872 197.764 63.652 197.692 63.436C197.628 63.212 197.528 63.012 197.392 62.836C197.256 62.66 197.084 62.52 196.876 62.416C196.668 62.304 196.42 62.248 196.132 62.248C195.844 62.248 195.596 62.304 195.388 62.416C195.18 62.52 195.008 62.66 194.872 62.836C194.736 63.012 194.632 63.212 194.56 63.436C194.496 63.652 194.464 63.872 194.464 64.096ZM206.036 67H204.668V66.076H204.644C204.516 66.364 204.292 66.62 203.972 66.844C203.66 67.06 203.288 67.168 202.856 67.168C202.48 67.168 202.156 67.104 201.884 66.976C201.62 66.84 201.4 66.664 201.224 66.448C201.056 66.232 200.932 65.984 200.852 65.704C200.772 65.424 200.732 65.136 200.732 64.84V61.24H202.172V64.432C202.172 64.6 202.184 64.776 202.208 64.96C202.232 65.144 202.284 65.312 202.364 65.464C202.444 65.608 202.552 65.728 202.688 65.824C202.832 65.92 203.02 65.968 203.252 65.968C203.476 65.968 203.672 65.924 203.84 65.836C204.016 65.74 204.156 65.62 204.26 65.476C204.372 65.332 204.456 65.168 204.512 64.984C204.568 64.792 204.596 64.6 204.596 64.408V61.24H206.036V67ZM207.884 61.24H209.264V62.2H209.288C209.448 61.864 209.672 61.592 209.96 61.384C210.248 61.176 210.584 61.072 210.968 61.072C211.024 61.072 211.084 61.076 211.148 61.084C211.212 61.084 211.268 61.092 211.316 61.108V62.428C211.22 62.404 211.136 62.388 211.064 62.38C211 62.372 210.936 62.368 210.872 62.368C210.544 62.368 210.28 62.428 210.08 62.548C209.88 62.668 209.724 62.812 209.612 62.98C209.5 63.148 209.424 63.32 209.384 63.496C209.344 63.672 209.324 63.812 209.324 63.916V67H207.884V61.24ZM218.02 58.504H219.328L222.988 67H221.26L220.468 65.056H216.784L216.016 67H214.324L218.02 58.504ZM219.94 63.76L218.632 60.304L217.3 63.76H219.94ZM225.257 61.24V62.044H225.293C225.365 61.932 225.457 61.82 225.569 61.708C225.689 61.588 225.833 61.484 226.001 61.396C226.169 61.3 226.357 61.224 226.565 61.168C226.781 61.104 227.021 61.072 227.285 61.072C227.693 61.072 228.069 61.152 228.413 61.312C228.757 61.464 229.053 61.676 229.301 61.948C229.549 62.22 229.741 62.54 229.877 62.908C230.013 63.276 230.081 63.672 230.081 64.096C230.081 64.52 230.013 64.92 229.877 65.296C229.749 65.664 229.561 65.988 229.313 66.268C229.073 66.54 228.777 66.76 228.425 66.928C228.081 67.088 227.689 67.168 227.249 67.168C226.841 67.168 226.465 67.084 226.121 66.916C225.785 66.748 225.525 66.52 225.341 66.232H225.317V69.88H223.877V61.24H225.257ZM228.617 64.096C228.617 63.872 228.581 63.652 228.509 63.436C228.445 63.212 228.345 63.012 228.209 62.836C228.073 62.66 227.901 62.52 227.693 62.416C227.485 62.304 227.241 62.248 226.961 62.248C226.697 62.248 226.461 62.304 226.253 62.416C226.045 62.528 225.865 62.672 225.713 62.848C225.569 63.024 225.457 63.224 225.377 63.448C225.305 63.672 225.269 63.896 225.269 64.12C225.269 64.344 225.305 64.568 225.377 64.792C225.457 65.008 225.569 65.204 225.713 65.38C225.865 65.556 226.045 65.7 226.253 65.812C226.461 65.916 226.697 65.968 226.961 65.968C227.241 65.968 227.485 65.912 227.693 65.8C227.901 65.688 228.073 65.544 228.209 65.368C228.345 65.192 228.445 64.992 228.509 64.768C228.581 64.544 228.617 64.32 228.617 64.096ZM232.971 61.24V62.044H233.007C233.079 61.932 233.171 61.82 233.283 61.708C233.403 61.588 233.547 61.484 233.715 61.396C233.883 61.3 234.071 61.224 234.279 61.168C234.495 61.104 234.735 61.072 234.999 61.072C235.407 61.072 235.783 61.152 236.127 61.312C236.471 61.464 236.767 61.676 237.015 61.948C237.263 62.22 237.455 62.54 237.591 62.908C237.727 63.276 237.795 63.672 237.795 64.096C237.795 64.52 237.727 64.92 237.591 65.296C237.463 65.664 237.275 65.988 237.027 66.268C236.787 66.54 236.491 66.76 236.139 66.928C235.795 67.088 235.403 67.168 234.963 67.168C234.555 67.168 234.179 67.084 233.835 66.916C233.499 66.748 233.239 66.52 233.055 66.232H233.031V69.88H231.591V61.24H232.971ZM236.331 64.096C236.331 63.872 236.295 63.652 236.223 63.436C236.159 63.212 236.059 63.012 235.923 62.836C235.787 62.66 235.615 62.52 235.407 62.416C235.199 62.304 234.955 62.248 234.675 62.248C234.411 62.248 234.175 62.304 233.967 62.416C233.759 62.528 233.579 62.672 233.427 62.848C233.283 63.024 233.171 63.224 233.091 63.448C233.019 63.672 232.983 63.896 232.983 64.12C232.983 64.344 233.019 64.568 233.091 64.792C233.171 65.008 233.283 65.204 233.427 65.38C233.579 65.556 233.759 65.7 233.967 65.812C234.175 65.916 234.411 65.968 234.675 65.968C234.955 65.968 235.199 65.912 235.407 65.8C235.615 65.688 235.787 65.544 235.923 65.368C236.059 65.192 236.159 64.992 236.223 64.768C236.295 64.544 236.331 64.32 236.331 64.096Z" fill="black"/>
<path d="M127 61L165 61" stroke="url(#paint6_linear_1262_12050)"/>
<path d="M127 65L165 65" stroke="url(#paint7_linear_1262_12050)"/>
<defs>
<filter id="filter0_dd_1262_12050" x="32" y="43" width="96" height="46" filterUnits="userSpaceOnUse" color-interpolation-filters="sRGB">
<feFlood flood-opacity="0" result="BackgroundImageFix"/>
<feColorMatrix in="SourceAlpha" type="matrix" values="0 0 0 0 0 0 0 0 0 0 0 0 0 0 0 0 0 0 127 0" result="hardAlpha"/>
<feMorphology radius="2" operator="erode" in="SourceAlpha" result="effect1_dropShadow_1262_12050"/>
<feOffset dy="5"/>
<feGaussianBlur stdDeviation="1.5"/>
<feComposite in2="hardAlpha" operator="out"/>
<feColorMatrix type="matrix" values="0 0 0 0 0 0 0 0 0 0 0 0 0 0 0 0 0 0 0.02 0"/>
<feBlend mode="normal" in2="BackgroundImageFix" result="effect1_dropShadow_1262_12050"/>
<feColorMatrix in="SourceAlpha" type="matrix" values="0 0 0 0 0 0 0 0 0 0 0 0 0 0 0 0 0 0 127 0" result="hardAlpha"/>
<feMorphology radius="2" operator="erode" in="SourceAlpha" result="effect2_dropShadow_1262_12050"/>
<feOffset dy="3"/>
<feGaussianBlur stdDeviation="1"/>
<feComposite in2="hardAlpha" operator="out"/>
<feColorMatrix type="matrix" values="0 0 0 0 0 0 0 0 0 0 0 0 0 0 0 0 0 0 0.06 0"/>
<feBlend mode="normal" in2="effect1_dropShadow_1262_12050" result="effect2_dropShadow_1262_12050"/>
<feBlend mode="normal" in="SourceGraphic" in2="effect2_dropShadow_1262_12050" result="shape"/>
</filter>
<filter id="filter1_dd_1262_12050" x="164" y="43" width="96" height="46" filterUnits="userSpaceOnUse" color-interpolation-filters="sRGB">
<feFlood flood-opacity="0" result="BackgroundImageFix"/>
<feColorMatrix in="SourceAlpha" type="matrix" values="0 0 0 0 0 0 0 0 0 0 0 0 0 0 0 0 0 0 127 0" result="hardAlpha"/>
<feMorphology radius="2" operator="erode" in="SourceAlpha" result="effect1_dropShadow_1262_12050"/>
<feOffset dy="5"/>
<feGaussianBlur stdDeviation="1.5"/>
<feComposite in2="hardAlpha" operator="out"/>
<feColorMatrix type="matrix" values="0 0 0 0 0 0 0 0 0 0 0 0 0 0 0 0 0 0 0.02 0"/>
<feBlend mode="normal" in2="BackgroundImageFix" result="effect1_dropShadow_1262_12050"/>
<feColorMatrix in="SourceAlpha" type="matrix" values="0 0 0 0 0 0 0 0 0 0 0 0 0 0 0 0 0 0 127 0" result="hardAlpha"/>
<feMorphology radius="2" operator="erode" in="SourceAlpha" result="effect2_dropShadow_1262_12050"/>
<feOffset dy="3"/>
<feGaussianBlur stdDeviation="1"/>
<feComposite in2="hardAlpha" operator="out"/>
<feColorMatrix type="matrix" values="0 0 0 0 0 0 0 0 0 0 0 0 0 0 0 0 0 0 0.06 0"/>
<feBlend mode="normal" in2="effect1_dropShadow_1262_12050" result="effect2_dropShadow_1262_12050"/>
<feBlend mode="normal" in="SourceGraphic" in2="effect2_dropShadow_1262_12050" result="shape"/>
</filter>
<linearGradient id="paint0_linear_1262_12050" x1="149.5" y1="-14" x2="150" y2="124.5" gradientUnits="userSpaceOnUse">
<stop stop-color="#9F8AF9"/>
<stop offset="0.625104" stop-color="#EBE7FE" stop-opacity="0"/>
<stop offset="1" stop-color="#AB99FA"/>
</linearGradient>
<linearGradient id="paint1_linear_1262_12050" x1="149" y1="7" x2="149" y2="119.5" gradientUnits="userSpaceOnUse">
<stop stop-color="#9F8AF9"/>
<stop offset="0.486742" stop-color="#EBE7FE" stop-opacity="0"/>
<stop offset="1" stop-color="#B09FFA"/>
</linearGradient>
<linearGradient id="paint2_linear_1262_12050" x1="148.5" y1="-41" x2="149" y2="168" gradientUnits="userSpaceOnUse">
<stop stop-color="#9F8AF9"/>
<stop offset="0.533021" stop-color="#EBE7FE" stop-opacity="0"/>
<stop offset="1" stop-color="#A794FA"/>
</linearGradient>
<linearGradient id="paint3_linear_1262_12050" x1="148.5" y1="-62" x2="149.1" y2="189" gradientUnits="userSpaceOnUse">
<stop stop-color="#9F8AF9"/>
<stop offset="0.533021" stop-color="#EBE7FE" stop-opacity="0"/>
<stop offset="1" stop-color="#A794FA"/>
</linearGradient>
<linearGradient id="paint4_linear_1262_12050" x1="148.5" y1="-85" x2="149.211" y2="212" gradientUnits="userSpaceOnUse">
<stop stop-color="#9F8AF9"/>
<stop offset="0.533021" stop-color="#EBE7FE" stop-opacity="0"/>
<stop offset="1" stop-color="#A794FA"/>
</linearGradient>
<linearGradient id="paint5_linear_1262_12050" x1="54.3287" y1="54.4093" x2="71.1834" y2="71.2739" gradientUnits="userSpaceOnUse">
<stop offset="0.09375" stop-color="#FA00E9"/>
<stop offset="1" stop-color="#3860FF"/>
</linearGradient>
<linearGradient id="paint6_linear_1262_12050" x1="127" y1="61" x2="164.5" y2="61" gradientUnits="userSpaceOnUse">
<stop stop-color="#4A35A8"/>
<stop offset="1" stop-color="#4A35A8" stop-opacity="0"/>
</linearGradient>
<linearGradient id="paint7_linear_1262_12050" x1="165" y1="65" x2="127" y2="65" gradientUnits="userSpaceOnUse">
<stop stop-color="#4A35A8"/>
<stop offset="1" stop-color="#4A35A8" stop-opacity="0"/>
</linearGradient>
</defs>
</svg>
