<svg width="908" height="568" viewBox="0 0 908 568" fill="none" xmlns="http://www.w3.org/2000/svg">
<g clip-path="url(#clip0_1209_10940)">
<circle cx="470" cy="471" r="437.5" fill="url(#paint0_linear_1209_10940)" stroke="#F8F6FE"/>
<circle cx="470" cy="471" r="335.5" fill="url(#paint1_linear_1209_10940)" stroke="#F3F1FE"/>
<g filter="url(#filter0_d_1209_10940)">
<circle cx="470" cy="471" r="224" fill="white" fill-opacity="0.3"/>
<circle cx="470" cy="471" r="223.5" stroke="#EBE7FE"/>
</g>
<path fill-rule="evenodd" clip-rule="evenodd" d="M517.433 457.936C516.271 449.194 512.968 440.87 507.814 433.694C502.661 426.518 495.815 420.71 487.877 416.781C479.939 412.851 471.153 410.92 462.289 411.156C453.426 411.393 444.756 413.79 437.041 418.137C429.327 422.484 422.804 428.649 418.045 436.089C413.285 443.529 410.436 452.017 409.746 460.809C409.056 469.6 410.548 478.426 414.089 486.51C417.63 494.594 423.113 501.69 430.056 507.175C435.372 504.821 441.184 502.073 447.357 498.991C441.113 496.016 435.808 491.397 432.017 485.635C428.226 479.874 426.094 473.19 425.852 466.309C425.611 459.428 427.268 452.612 430.646 446.602C434.024 440.591 438.992 435.616 445.012 432.215C451.031 428.814 457.873 427.117 464.794 427.309C471.714 427.502 478.45 429.575 484.27 433.305C490.089 437.035 494.771 442.278 497.806 448.467C500.841 454.655 502.114 461.552 501.486 468.409C507.203 464.803 512.549 461.292 517.433 457.936ZM517.89 464.04C512.418 468.065 506.356 472.234 499.836 476.439C496.925 485.521 490.661 493.17 482.306 497.844C473.951 502.518 464.126 503.87 454.809 501.629C447.663 505.045 440.883 508.003 434.675 510.451C442.932 515.674 452.458 518.574 462.24 518.843C472.022 519.113 481.695 516.741 490.23 511.981C498.765 507.22 505.844 500.249 510.715 491.808C515.585 483.367 518.064 473.771 517.89 464.04V464.04Z" fill="url(#paint2_linear_1209_10940)"/>
<path fill-rule="evenodd" clip-rule="evenodd" d="M527.335 506.382C528.564 506.383 529.766 506.021 530.788 505.343C531.811 504.664 532.608 503.7 533.079 502.571C533.55 501.442 533.674 500.199 533.435 499C533.196 497.801 532.604 496.7 531.735 495.835C530.867 494.97 529.76 494.381 528.554 494.143C527.349 493.904 526.099 494.026 524.964 494.493C523.828 494.961 522.857 495.753 522.174 496.769C521.491 497.785 521.127 498.98 521.127 500.203C521.127 501.841 521.781 503.411 522.945 504.57C524.109 505.729 525.688 506.38 527.335 506.382Z" fill="#00CCF5"/>
<path fill-rule="evenodd" clip-rule="evenodd" d="M520.638 420.232C521.37 420.232 522.087 420.016 522.696 419.611C523.306 419.206 523.781 418.631 524.061 417.957C524.342 417.284 524.415 416.543 524.272 415.828C524.129 415.113 523.776 414.456 523.258 413.941C522.74 413.425 522.079 413.074 521.361 412.932C520.642 412.79 519.897 412.863 519.219 413.142C518.542 413.421 517.963 413.893 517.556 414.499C517.149 415.105 516.932 415.818 516.932 416.547C516.931 417.031 517.026 417.511 517.212 417.958C517.398 418.405 517.671 418.812 518.016 419.154C518.36 419.497 518.769 419.768 519.219 419.953C519.668 420.138 520.151 420.233 520.638 420.232V420.232Z" fill="#00CCF5"/>
<path fill-rule="evenodd" clip-rule="evenodd" d="M395.94 482.852C396.917 482.852 397.873 482.564 398.685 482.023C399.498 481.483 400.131 480.715 400.505 479.816C400.878 478.918 400.975 477.929 400.783 476.976C400.591 476.023 400.119 475.147 399.427 474.461C398.735 473.774 397.853 473.308 396.894 473.12C395.935 472.932 394.941 473.031 394.039 473.406C393.137 473.78 392.366 474.412 391.825 475.221C391.284 476.031 390.997 476.982 391 477.955C391.004 479.255 391.526 480.501 392.452 481.419C393.378 482.337 394.632 482.852 395.94 482.852V482.852Z" fill="#00CCF5"/>
<path fill-rule="evenodd" clip-rule="evenodd" d="M479.361 453.915C484.697 450.983 489.892 448.2 494.907 445.631C495.092 445.931 495.293 446.285 495.503 446.684C490.534 449.267 485.338 452.06 480.003 454.997L479.361 453.915ZM548.665 427.747C546.283 423.643 531.84 428.001 511.4 437.502C511.591 437.816 511.781 438.14 511.962 438.47C531.544 429.198 545.21 424.735 546.945 428.326C549.673 433.024 518.361 456.074 477.039 479.809C435.717 503.543 399.982 518.973 397.254 514.275C395.7 511.482 403.387 503.872 410.293 497.817C400.348 505.797 395.133 511.946 396.848 514.899C400.739 521.606 438.405 508.415 480.334 484.357C522.262 460.299 552.576 434.455 548.665 427.747Z" fill="#00CCF5"/>
<path d="M474.451 457.816C473.568 456.308 473.237 454.542 473.517 452.819C473.796 451.096 474.668 449.523 475.983 448.367C477.298 447.212 478.976 446.546 480.729 446.483C482.483 446.421 484.204 446.965 485.6 448.023C486.995 449.081 487.978 450.588 488.382 452.286C488.785 453.985 488.583 455.77 487.811 457.337C487.039 458.904 485.744 460.157 484.147 460.881C482.55 461.604 480.751 461.755 479.055 461.307C478.089 461.067 477.182 460.634 476.391 460.033C475.599 459.433 474.939 458.679 474.451 457.816V457.816Z" fill="#FA00E9"/>
<circle cx="169" cy="149" r="31.5" fill="white" stroke="url(#paint3_linear_1209_10940)"/>
<path d="M167.026 146.52C165.742 147.698 164.94 149.369 164.94 151.223C164.94 152.68 165.435 154.022 166.269 155.101L163.738 157.577C163.513 157.497 163.272 157.452 163.022 157.452C162.47 157.452 161.953 157.661 161.564 158.039C161.176 158.417 160.961 158.924 160.961 159.461C160.961 159.998 161.176 160.5 161.564 160.878C161.953 161.256 162.475 161.455 163.022 161.455C163.574 161.455 164.091 161.261 164.484 160.878C164.873 160.5 165.088 159.993 165.088 159.461C165.088 159.252 165.057 159.053 164.991 158.859L167.547 156.364C168.672 157.204 170.074 157.701 171.602 157.701C175.279 157.701 178.25 154.803 178.25 151.228C178.25 147.986 175.811 145.302 172.615 144.83V141.767C173.51 141.399 174.057 140.584 174.057 139.634C174.057 138.337 172.988 137.253 171.654 137.253C170.319 137.253 169.266 138.337 169.266 139.634C169.266 140.584 169.813 141.399 170.708 141.767V144.81C169.93 144.914 169.194 145.143 168.524 145.486C167.113 144.447 162.516 141.225 159.887 139.281C159.948 139.062 159.989 138.834 159.989 138.595C159.989 137.163 158.788 136 157.31 136C155.837 136 154.641 137.163 154.641 138.595C154.641 140.032 155.837 141.195 157.31 141.195C157.811 141.195 158.276 141.051 158.68 140.817L167.026 146.52ZM171.602 154.654C169.654 154.654 168.074 153.117 168.074 151.223C168.074 149.329 169.654 147.793 171.602 147.793C173.551 147.793 175.131 149.329 175.131 151.223C175.131 153.117 173.551 154.654 171.602 154.654Z" fill="#FF7A59"/>
<g filter="url(#filter1_dd_1209_10940)">
<circle cx="34.3301" cy="413.331" r="32" transform="rotate(-0.594085 34.3301 413.331)" fill="white"/>
<circle cx="34.3301" cy="413.331" r="31.5" transform="rotate(-0.594085 34.3301 413.331)" stroke="url(#paint4_linear_1209_10940)"/>
</g>
<path d="M32.1336 406.093C32.978 405.238 34.1535 404.707 35.4537 404.707C37.182 404.707 38.6898 405.644 39.4928 407.035C40.1906 406.732 40.963 406.564 41.7757 406.564C44.8929 406.564 47.4201 409.042 47.4201 412.099C47.4201 415.156 44.8929 417.635 41.7757 417.635C41.3953 417.635 41.0235 417.598 40.6639 417.527C39.9568 418.753 38.6093 419.582 37.0626 419.582C36.4152 419.582 35.8028 419.437 35.2575 419.178C34.5407 420.817 32.8705 421.967 30.9241 421.967C28.897 421.967 27.1695 420.72 26.5063 418.971C26.2166 419.031 25.9163 419.062 25.6083 419.062C23.1948 419.062 21.2383 417.14 21.2383 414.769C21.2383 413.18 22.1173 411.793 23.4235 411.051C23.1546 410.449 23.005 409.785 23.005 409.087C23.005 406.36 25.2819 404.15 28.0903 404.15C29.7392 404.15 31.2045 404.912 32.1336 406.093Z" fill="#00A1E0"/>
<g filter="url(#filter2_dd_1209_10940)">
<circle cx="805.809" cy="368.81" r="32" transform="rotate(126.96 805.809 368.81)" fill="white"/>
<circle cx="805.809" cy="368.81" r="31.5" transform="rotate(126.96 805.809 368.81)" stroke="url(#paint5_linear_1209_10940)"/>
</g>
<path d="M818.901 368.409C818.901 366.861 817.6 365.603 816.002 365.603C815.222 365.603 814.515 365.907 813.995 366.395C812.02 365.132 809.349 364.328 806.39 364.225L808.008 359.273L812.389 360.271L812.382 360.332C812.382 361.598 813.446 362.626 814.754 362.626C816.061 362.626 817.123 361.598 817.123 360.332C817.123 359.067 816.06 358.037 814.754 358.037C813.75 358.037 812.895 358.646 812.549 359.5L807.827 358.423C807.621 358.374 807.411 358.49 807.347 358.687L805.542 364.21C802.446 364.246 799.642 365.056 797.579 366.358C797.062 365.893 796.375 365.602 795.616 365.602C794.018 365.602 792.719 366.861 792.719 368.409C792.719 369.438 793.3 370.33 794.155 370.817C794.099 371.117 794.062 371.419 794.062 371.726C794.062 375.874 799.307 379.249 805.755 379.249C812.203 379.249 817.45 375.874 817.45 371.726C817.45 371.436 817.418 371.149 817.368 370.867C818.275 370.393 818.901 369.476 818.901 368.409ZM800.111 370.335C800.111 369.414 800.885 368.664 801.837 368.664C802.788 368.664 803.561 369.414 803.561 370.335C803.561 371.255 802.788 372.004 801.837 372.004C800.885 372.004 800.111 371.255 800.111 370.335ZM809.995 375.287C809.126 376.128 807.761 376.537 805.824 376.537L805.81 376.534L805.795 376.537C803.857 376.537 802.492 376.128 801.624 375.287C801.466 375.134 801.466 374.885 801.624 374.732C801.782 374.578 802.039 374.578 802.198 374.732C802.907 375.418 804.084 375.751 805.795 375.751L805.81 375.755L805.824 375.751C807.535 375.751 808.713 375.417 809.422 374.731C809.58 374.577 809.837 374.578 809.995 374.731C810.154 374.885 810.154 375.133 809.995 375.287ZM809.789 372.004C808.838 372.004 808.065 371.255 808.065 370.335C808.065 369.414 808.838 368.664 809.789 368.664C810.741 368.664 811.514 369.414 811.514 370.335C811.514 371.255 810.741 372.004 809.789 372.004Z" fill="#FF4500"/>
<circle cx="549" cy="44" r="31.5" fill="white" stroke="url(#paint6_linear_1209_10940)"/>
<g clip-path="url(#clip1_1209_10940)">
<path d="M549.2 31C542.033 31 536.004 36.596 536.004 43.5045V56.4545H549.208C556.372 56.4545 562.186 50.6398 562.186 43.7273C562.186 36.8148 556.355 31 549.2 31Z" fill="#231F20"/>
<path d="M549.337 35.8398C547.943 35.8405 546.574 36.1897 545.362 36.8534C544.151 37.517 543.139 38.4724 542.426 39.6258C541.713 40.7793 541.323 42.0913 541.295 43.4335C541.267 44.7757 541.601 46.1019 542.264 47.2825L540.807 51.7967L546.034 50.6592C547.128 51.1341 548.319 51.3672 549.519 51.3413C550.719 51.3154 551.898 51.0313 552.97 50.5097C554.041 49.9881 554.978 49.2422 555.711 48.3267C556.444 47.4112 556.955 46.3493 557.207 45.2188C557.459 44.0883 557.446 42.9178 557.167 41.7931C556.889 40.6683 556.352 39.6178 555.598 38.7186C554.843 37.8193 553.889 37.0941 552.806 36.596C551.723 36.0979 550.537 35.8395 549.337 35.8398V35.8398Z" fill="#FFF9AE"/>
<path d="M555.704 38.875C556.782 40.2444 557.358 41.9202 557.34 43.639C557.322 45.3577 556.711 47.0219 555.604 48.3699C554.496 49.7178 552.956 50.6731 551.223 51.0854C549.491 51.4977 547.665 51.3438 546.034 50.6477L540.807 51.7972L546.129 51.1926C547.833 52.1434 549.84 52.4587 551.77 52.0789C553.7 51.6991 555.418 50.6505 556.598 49.1319C557.779 47.6133 558.34 45.7302 558.175 43.8397C558.01 41.9492 557.131 40.1827 555.704 38.875V38.875Z" fill="#00AEEF"/>
<path d="M554.238 37.4473C555.466 38.7003 556.225 40.3119 556.396 42.0271C556.566 43.7423 556.138 45.4633 555.179 46.918C554.221 48.3726 552.786 49.4779 551.102 50.059C549.418 50.6402 547.581 50.664 545.881 50.1268L540.807 51.7973L546.034 50.6558C547.832 51.437 549.866 51.5544 551.748 50.9856C553.63 50.4169 555.23 49.2016 556.243 47.571C557.256 45.9404 557.611 44.0081 557.241 42.1415C556.872 40.275 555.803 38.6043 554.238 37.4473Z" fill="#00A94F"/>
<path d="M542.743 47.4549C542.039 45.8135 541.941 43.9891 542.467 42.2867C542.992 40.5843 544.108 39.1073 545.628 38.1026C547.148 37.0979 548.981 36.6265 550.818 36.7672C552.656 36.908 554.388 37.6524 555.725 38.8759C554.497 37.3174 552.703 36.2638 550.703 35.9266C548.703 35.5893 546.644 35.9934 544.94 37.0577C543.236 38.122 542.014 39.7677 541.517 41.6645C541.021 43.5613 541.288 45.5687 542.264 47.2838L540.807 51.798L542.743 47.4549Z" fill="#F15D22"/>
<path d="M542.264 47.284C541.389 45.7232 541.097 43.9208 541.436 42.1777C541.775 40.4345 542.723 38.8558 544.124 37.7051C545.525 36.5544 547.293 35.9012 549.134 35.8544C550.974 35.8076 552.776 36.3702 554.238 37.4482C552.843 36.0383 550.949 35.1854 548.932 35.0593C546.915 34.9331 544.922 35.5428 543.351 36.7672C541.779 37.9916 540.743 39.7409 540.449 41.6674C540.155 43.5939 540.624 45.5564 541.764 47.1646L540.81 51.7982L542.264 47.284Z" fill="#E31B23"/>
</g>
<g clip-path="url(#clip2_1209_10940)">
<path d="M873.796 273.707C872.155 272.976 870.395 272.437 868.555 272.128C868.522 272.122 868.488 272.137 868.471 272.167C868.245 272.558 867.994 273.068 867.818 273.469C865.84 273.181 863.871 273.181 861.932 273.469C861.757 273.059 861.497 272.558 861.27 272.167C861.252 272.138 861.219 272.123 861.185 272.128C859.346 272.436 857.587 272.975 855.945 273.707C855.93 273.713 855.918 273.723 855.91 273.736C852.572 278.58 851.658 283.306 852.106 287.972C852.108 287.995 852.122 288.017 852.14 288.031C854.342 289.602 856.475 290.556 858.569 291.188C858.603 291.198 858.638 291.186 858.659 291.159C859.155 290.502 859.596 289.809 859.975 289.081C859.997 289.038 859.976 288.987 859.93 288.971C859.23 288.713 858.563 288.398 857.922 288.041C857.871 288.012 857.867 287.941 857.913 287.908C858.048 287.809 858.183 287.707 858.312 287.604C858.336 287.585 858.368 287.581 858.396 287.593C862.609 289.462 867.171 289.462 871.335 287.593C871.362 287.58 871.395 287.584 871.419 287.603C871.548 287.706 871.683 287.809 871.819 287.908C871.866 287.941 871.863 288.012 871.812 288.041C871.171 288.405 870.504 288.713 869.803 288.97C869.757 288.986 869.737 289.038 869.759 289.081C870.146 289.808 870.587 290.501 871.073 291.158C871.093 291.186 871.13 291.198 871.163 291.188C873.267 290.556 875.401 289.602 877.603 288.031C877.622 288.017 877.634 287.996 877.636 287.973C878.173 282.578 876.737 277.892 873.83 273.737C873.822 273.723 873.81 273.713 873.796 273.707ZM860.604 285.131C859.335 285.131 858.29 283.999 858.29 282.61C858.29 281.22 859.315 280.089 860.604 280.089C861.903 280.089 862.938 281.23 862.918 282.61C862.918 283.999 861.893 285.131 860.604 285.131ZM869.159 285.131C867.891 285.131 866.845 283.999 866.845 282.61C866.845 281.22 867.87 280.089 869.159 280.089C870.458 280.089 871.493 281.23 871.473 282.61C871.473 283.999 870.458 285.131 869.159 285.131Z" fill="#5165F6"/>
</g>
<circle cx="178" cy="323" r="31.5" fill="white" stroke="url(#paint7_linear_1209_10940)"/>
<path fill-rule="evenodd" clip-rule="evenodd" d="M165.345 319.088H170.771V336.092H165.345V319.088ZM174.172 319.087H179.376V321.41H179.455C180.174 320.074 181.948 318.668 184.586 318.668C190.078 318.668 191.092 322.187 191.092 326.769V336.091H185.673V327.825C185.673 325.852 185.634 323.313 182.852 323.313C180.031 323.313 179.599 325.464 179.599 327.678V336.091H174.172V319.087ZM168.059 310.637C169.793 310.637 171.2 312.012 171.2 313.698C171.2 315.391 169.793 316.765 168.059 316.765C166.317 316.765 164.91 315.391 164.91 313.698C164.91 312.011 166.317 310.637 168.059 310.637Z" fill="#0277B5"/>
<circle cx="425.23" cy="149.231" r="31.5" transform="rotate(43.1452 425.23 149.231)" fill="white" stroke="url(#paint8_linear_1209_10940)"/>
<g clip-path="url(#clip3_1209_10940)">
<path fill-rule="evenodd" clip-rule="evenodd" d="M421.782 136.867C420.329 136.868 419.152 138.013 419.153 139.423C419.152 140.834 420.33 141.979 421.783 141.98H424.413V139.425C424.414 138.014 423.237 136.869 421.782 136.867ZM421.782 143.685H414.771C413.317 143.686 412.14 144.831 412.141 146.242C412.138 147.652 413.316 148.797 414.77 148.799H421.782C423.236 148.798 424.413 147.653 424.412 146.243C424.413 144.831 423.236 143.686 421.782 143.685V143.685Z" fill="#36C5F0"/>
<path fill-rule="evenodd" clip-rule="evenodd" d="M438.322 146.242C438.323 144.831 437.145 143.686 435.691 143.685C434.237 143.686 433.06 144.831 433.061 146.242V148.799H435.691C437.145 148.798 438.323 147.653 438.322 146.242ZM431.308 146.242V139.423C431.309 138.014 430.133 136.869 428.679 136.867C427.225 136.868 426.048 138.013 426.049 139.423V146.242C426.047 147.652 427.224 148.797 428.678 148.799C430.132 148.798 431.309 147.653 431.308 146.242V146.242Z" fill="#2EB67D"/>
<path fill-rule="evenodd" clip-rule="evenodd" d="M428.679 162.322C430.133 162.321 431.31 161.177 431.309 159.766C431.31 158.356 430.133 157.211 428.679 157.21H426.049V159.766C426.048 161.176 427.225 162.32 428.679 162.322ZM428.679 155.504H435.691C437.145 155.503 438.323 154.358 438.322 152.948C438.324 151.537 437.146 150.393 435.693 150.391H428.68C427.226 150.392 426.049 151.536 426.05 152.947C426.049 154.358 427.225 155.503 428.679 155.504V155.504Z" fill="#ECB22E"/>
<path fill-rule="evenodd" clip-rule="evenodd" d="M412.141 152.947C412.14 154.357 413.317 155.502 414.771 155.503C416.225 155.502 417.402 154.357 417.401 152.947V150.391H414.771C413.317 150.392 412.14 151.536 412.141 152.947ZM419.154 152.947V159.765C419.152 161.176 420.329 162.32 421.783 162.322C423.237 162.321 424.414 161.177 424.413 159.766V152.949C424.415 151.538 423.238 150.394 421.784 150.392C420.329 150.392 419.153 151.536 419.154 152.947Z" fill="#E01E5A"/>
</g>
<circle cx="694.024" cy="214.025" r="31.5" transform="rotate(91.8658 694.024 214.025)" fill="white" stroke="url(#paint9_linear_1209_10940)"/>
<path fill-rule="evenodd" clip-rule="evenodd" d="M694.131 201.071C691.019 201.068 688.008 202.167 685.637 204.172C683.266 206.176 681.691 208.955 681.192 212.01C680.694 215.066 681.306 218.197 682.918 220.845C684.531 223.492 687.038 225.481 689.991 226.457C690.642 226.577 690.884 226.169 690.884 225.825C690.884 225.481 690.884 224.698 690.884 223.61C687.242 224.41 686.471 221.867 686.471 221.867C686.228 221.079 685.712 220.402 685.016 219.956C683.834 219.157 685.112 219.157 685.112 219.157C685.526 219.215 685.922 219.366 686.269 219.599C686.615 219.832 686.904 220.14 687.114 220.5C687.292 220.821 687.531 221.104 687.819 221.332C688.107 221.56 688.438 221.73 688.792 221.831C689.146 221.932 689.516 221.962 689.882 221.921C690.248 221.879 690.602 221.766 690.924 221.587C690.974 220.93 691.259 220.312 691.728 219.844C688.818 219.517 685.763 218.397 685.763 213.408C685.743 212.115 686.224 210.864 687.106 209.914C686.712 208.79 686.758 207.56 687.234 206.468C687.234 206.468 688.335 206.116 690.835 207.803C692.982 207.217 695.248 207.217 697.394 207.803C699.894 206.116 700.988 206.468 700.988 206.468C701.469 207.559 701.518 208.79 701.124 209.914C702.006 210.864 702.487 212.115 702.467 213.408C702.467 218.413 699.404 219.509 696.486 219.804C696.799 220.117 697.041 220.493 697.195 220.907C697.349 221.321 697.411 221.763 697.378 222.203C697.378 223.946 697.378 225.353 697.378 225.777C697.378 226.201 697.612 226.529 698.279 226.409C701.223 225.424 703.719 223.431 705.323 220.786C706.927 218.141 707.534 215.014 707.036 211.965C706.537 208.916 704.966 206.142 702.603 204.138C700.239 202.134 697.237 201.03 694.131 201.023V201.071Z" fill="#191717"/>
</g>
<defs>
<filter id="filter0_d_1209_10940" x="211" y="210" width="518" height="518" filterUnits="userSpaceOnUse" color-interpolation-filters="sRGB">
<feFlood flood-opacity="0" result="BackgroundImageFix"/>
<feColorMatrix in="SourceAlpha" type="matrix" values="0 0 0 0 0 0 0 0 0 0 0 0 0 0 0 0 0 0 127 0" result="hardAlpha"/>
<feOffset dy="-2"/>
<feGaussianBlur stdDeviation="17.5"/>
<feComposite in2="hardAlpha" operator="out"/>
<feColorMatrix type="matrix" values="0 0 0 0 0 0 0 0 0 0 0 0 0 0 0 0 0 0 0.04 0"/>
<feBlend mode="normal" in2="BackgroundImageFix" result="effect1_dropShadow_1209_10940"/>
<feBlend mode="normal" in="SourceGraphic" in2="effect1_dropShadow_1209_10940" result="shape"/>
</filter>
<filter id="filter1_dd_1209_10940" x="1.33008" y="381.33" width="66" height="70" filterUnits="userSpaceOnUse" color-interpolation-filters="sRGB">
<feFlood flood-opacity="0" result="BackgroundImageFix"/>
<feColorMatrix in="SourceAlpha" type="matrix" values="0 0 0 0 0 0 0 0 0 0 0 0 0 0 0 0 0 0 127 0" result="hardAlpha"/>
<feMorphology radius="2" operator="erode" in="SourceAlpha" result="effect1_dropShadow_1209_10940"/>
<feOffset dy="5"/>
<feGaussianBlur stdDeviation="1.5"/>
<feComposite in2="hardAlpha" operator="out"/>
<feColorMatrix type="matrix" values="0 0 0 0 0 0 0 0 0 0 0 0 0 0 0 0 0 0 0.02 0"/>
<feBlend mode="normal" in2="BackgroundImageFix" result="effect1_dropShadow_1209_10940"/>
<feColorMatrix in="SourceAlpha" type="matrix" values="0 0 0 0 0 0 0 0 0 0 0 0 0 0 0 0 0 0 127 0" result="hardAlpha"/>
<feMorphology radius="2" operator="erode" in="SourceAlpha" result="effect2_dropShadow_1209_10940"/>
<feOffset dy="3"/>
<feGaussianBlur stdDeviation="1"/>
<feComposite in2="hardAlpha" operator="out"/>
<feColorMatrix type="matrix" values="0 0 0 0 0 0 0 0 0 0 0 0 0 0 0 0 0 0 0.06 0"/>
<feBlend mode="normal" in2="effect1_dropShadow_1209_10940" result="effect2_dropShadow_1209_10940"/>
<feBlend mode="normal" in="SourceGraphic" in2="effect2_dropShadow_1209_10940" result="shape"/>
</filter>
<filter id="filter2_dd_1209_10940" x="772.807" y="336.809" width="66.0039" height="70.0039" filterUnits="userSpaceOnUse" color-interpolation-filters="sRGB">
<feFlood flood-opacity="0" result="BackgroundImageFix"/>
<feColorMatrix in="SourceAlpha" type="matrix" values="0 0 0 0 0 0 0 0 0 0 0 0 0 0 0 0 0 0 127 0" result="hardAlpha"/>
<feMorphology radius="2" operator="erode" in="SourceAlpha" result="effect1_dropShadow_1209_10940"/>
<feOffset dy="5"/>
<feGaussianBlur stdDeviation="1.5"/>
<feComposite in2="hardAlpha" operator="out"/>
<feColorMatrix type="matrix" values="0 0 0 0 0 0 0 0 0 0 0 0 0 0 0 0 0 0 0.02 0"/>
<feBlend mode="normal" in2="BackgroundImageFix" result="effect1_dropShadow_1209_10940"/>
<feColorMatrix in="SourceAlpha" type="matrix" values="0 0 0 0 0 0 0 0 0 0 0 0 0 0 0 0 0 0 127 0" result="hardAlpha"/>
<feMorphology radius="2" operator="erode" in="SourceAlpha" result="effect2_dropShadow_1209_10940"/>
<feOffset dy="3"/>
<feGaussianBlur stdDeviation="1"/>
<feComposite in2="hardAlpha" operator="out"/>
<feColorMatrix type="matrix" values="0 0 0 0 0 0 0 0 0 0 0 0 0 0 0 0 0 0 0.06 0"/>
<feBlend mode="normal" in2="effect1_dropShadow_1209_10940" result="effect2_dropShadow_1209_10940"/>
<feBlend mode="normal" in="SourceGraphic" in2="effect2_dropShadow_1209_10940" result="shape"/>
</filter>
<linearGradient id="paint0_linear_1209_10940" x1="470" y1="33" x2="470" y2="909" gradientUnits="userSpaceOnUse">
<stop stop-color="#FAF9FE"/>
<stop offset="0.26251" stop-color="white"/>
</linearGradient>
<linearGradient id="paint1_linear_1209_10940" x1="470" y1="135" x2="470" y2="333.5" gradientUnits="userSpaceOnUse">
<stop stop-color="#FCFBFE"/>
<stop offset="1" stop-color="white"/>
</linearGradient>
<linearGradient id="paint2_linear_1209_10940" x1="406.333" y1="408.444" x2="517.293" y2="519.469" gradientUnits="userSpaceOnUse">
<stop offset="0.09375" stop-color="#FA00E9"/>
<stop offset="1" stop-color="#3860FF"/>
</linearGradient>
<linearGradient id="paint3_linear_1209_10940" x1="146" y1="126.5" x2="179.5" y2="158.5" gradientUnits="userSpaceOnUse">
<stop stop-color="#EBE7FE"/>
<stop offset="1" stop-color="#EBE7FE" stop-opacity="0"/>
</linearGradient>
<linearGradient id="paint4_linear_1209_10940" x1="11.3301" y1="390.831" x2="40.8301" y2="409.831" gradientUnits="userSpaceOnUse">
<stop stop-color="#EBE7FE"/>
<stop offset="1" stop-color="#EBE7FE" stop-opacity="0"/>
</linearGradient>
<linearGradient id="paint5_linear_1209_10940" x1="782.809" y1="346.31" x2="812.309" y2="365.31" gradientUnits="userSpaceOnUse">
<stop stop-color="#EBE7FE"/>
<stop offset="1" stop-color="#EBE7FE" stop-opacity="0"/>
</linearGradient>
<linearGradient id="paint6_linear_1209_10940" x1="558.5" y1="16" x2="549" y2="51.5" gradientUnits="userSpaceOnUse">
<stop stop-color="#EBE7FE"/>
<stop offset="1" stop-color="#EBE7FE" stop-opacity="0"/>
</linearGradient>
<linearGradient id="paint7_linear_1209_10940" x1="155" y1="300.5" x2="184.5" y2="319.5" gradientUnits="userSpaceOnUse">
<stop stop-color="#EBE7FE"/>
<stop offset="1" stop-color="#EBE7FE" stop-opacity="0"/>
</linearGradient>
<linearGradient id="paint8_linear_1209_10940" x1="402.23" y1="126.731" x2="431.73" y2="145.731" gradientUnits="userSpaceOnUse">
<stop stop-color="#EBE7FE"/>
<stop offset="1" stop-color="#EBE7FE" stop-opacity="0"/>
</linearGradient>
<linearGradient id="paint9_linear_1209_10940" x1="671.024" y1="191.525" x2="700.524" y2="210.525" gradientUnits="userSpaceOnUse">
<stop stop-color="#EBE7FE"/>
<stop offset="1" stop-color="#EBE7FE" stop-opacity="0"/>
</linearGradient>
<clipPath id="clip0_1209_10940">
<rect width="908" height="568" fill="white"/>
</clipPath>
<clipPath id="clip1_1209_10940">
<rect width="26.1818" height="25.4545" fill="white" transform="translate(536.004 31)"/>
</clipPath>
<clipPath id="clip2_1209_10940">
<rect width="25.7471" height="25.0115" fill="white" transform="translate(852 269)"/>
</clipPath>
<clipPath id="clip3_1209_10940">
<rect width="26.1818" height="25.4545" fill="white" transform="translate(412.141 136.867)"/>
</clipPath>
</defs>
</svg>
