<svg width="18" height="18" viewBox="0 0 18 18" fill="none" xmlns="http://www.w3.org/2000/svg">
<path fill-rule="evenodd" clip-rule="evenodd" d="M0.298828 5.97601H4.02935V18.0004H0.298828V5.97601ZM6.36768 5.97576H9.9452V7.61836H9.99926C10.4941 6.67383 11.7135 5.67938 13.5272 5.67938C17.3027 5.67938 18.0002 8.16802 18.0002 11.4077V18.0001H14.2743V12.1545C14.2743 10.7596 14.2473 8.96425 12.3348 8.96425C10.3953 8.96425 10.0983 10.4852 10.0983 12.0508V18H6.36768V5.97576ZM2.16449 0C3.35692 0 4.3245 0.972174 4.3245 2.16484C4.3245 3.36187 3.35692 4.33337 2.16449 4.33337C0.967467 4.33337 0 3.36187 0 2.16484C0 0.972062 0.967355 0 2.16449 0Z" fill="#0277B5"/>
</svg>
