<svg width="100" height="100" viewBox="0 0 100 100" fill="none" xmlns="http://www.w3.org/2000/svg">
<path fill-rule="evenodd" clip-rule="evenodd" d="M80.02 45.528C79.2841 39.9951 77.1936 34.7265 73.932 30.1849C70.6703 25.6433 66.3373 21.9675 61.3134 19.4803C56.2896 16.9932 50.7286 15.7708 45.1187 15.9205C39.5088 16.0701 34.0217 17.5873 29.1391 20.3387C24.2566 23.0901 20.1279 26.9916 17.1158 31.7006C14.1037 36.4096 12.3002 41.7821 11.8636 47.3463C11.4271 52.9104 12.3709 58.4961 14.6122 63.6127C16.8535 68.7294 20.3237 73.2205 24.718 76.6918C28.0823 75.2019 31.7609 73.4627 35.668 71.512C31.7162 69.6291 28.3585 66.7058 25.9591 63.0593C23.5597 59.4129 22.2103 55.1826 22.0574 50.8274C21.9044 46.4722 22.9537 42.1586 25.0914 38.3545C27.2291 34.5505 30.3736 31.4013 34.1836 29.2488C37.9936 27.0962 42.3236 26.0225 46.7038 26.1441C51.084 26.2657 55.347 27.5781 59.0303 29.9387C62.7136 32.2993 65.6765 35.618 67.5975 39.5348C69.5184 43.4515 70.3241 47.8167 69.927 52.1566C73.5452 49.8745 76.9286 47.6523 80.02 45.528ZM80.3088 49.3915C76.8461 51.9388 73.0089 54.5776 68.8828 57.2385C67.0399 62.9871 63.0754 67.8279 57.7876 70.7861C52.4998 73.7443 46.2814 74.6003 40.3844 73.1818C35.8616 75.344 31.5705 77.2157 27.6412 78.7656C32.8674 82.071 38.8965 83.9065 45.0877 84.077C51.2789 84.2474 57.4008 82.7464 62.8029 79.7336C68.205 76.7207 72.6853 72.3085 75.7677 66.966C78.8501 61.6234 80.4194 55.5501 80.3088 49.3915V49.3915Z" fill="url(#paint0_linear_1195_10819)"/>
<path fill-rule="evenodd" clip-rule="evenodd" d="M86.2887 76.1908C87.0666 76.1915 87.8272 75.9626 88.4743 75.5333C89.1214 75.1039 89.6259 74.4934 89.924 73.7788C90.2222 73.0642 90.3005 72.2778 90.1491 71.519C89.9977 70.7601 89.6235 70.063 89.0736 69.5157C88.5238 68.9685 87.8231 68.5957 87.0602 68.4445C86.2973 68.2934 85.5064 68.3706 84.7877 68.6665C84.0689 68.9624 83.4546 69.4637 83.0223 70.1069C82.5901 70.7501 82.3594 71.5064 82.3594 72.28C82.3594 73.3167 82.7732 74.3109 83.51 75.0443C84.2468 75.7776 85.2463 76.19 86.2887 76.1908Z" fill="#00CCF5"/>
<path fill-rule="evenodd" clip-rule="evenodd" d="M82.0486 21.6652C82.5125 21.6652 82.966 21.5284 83.3517 21.2721C83.7374 21.0158 84.0381 20.6515 84.2156 20.2253C84.3931 19.7991 84.4396 19.33 84.3491 18.8776C84.2586 18.4251 84.0352 18.0094 83.7072 17.6832C83.3791 17.357 82.9612 17.1348 82.5062 17.0448C82.0512 16.9548 81.5796 17.001 81.151 17.1776C80.7225 17.3541 80.3561 17.6531 80.0984 18.0367C79.8407 18.4203 79.7031 18.8713 79.7031 19.3326C79.7027 19.6391 79.7631 19.9426 79.8808 20.2258C79.9985 20.509 80.1713 20.7663 80.3892 20.983C80.6071 21.1997 80.8658 21.3715 81.1506 21.4885C81.4353 21.6056 81.7405 21.6657 82.0486 21.6652V21.6652Z" fill="#00CCF5"/>
<path fill-rule="evenodd" clip-rule="evenodd" d="M3.12631 61.2983C3.74503 61.2983 4.34985 61.1157 4.86417 60.7737C5.37849 60.4316 5.77918 59.9455 6.01552 59.3768C6.25186 58.8081 6.31321 58.1825 6.19181 57.5791C6.07041 56.9758 5.77171 56.4218 5.33354 55.9874C4.89537 55.5529 4.33742 55.2576 3.73036 55.1387C3.12329 55.0198 2.4944 55.0827 1.92331 55.3195C1.35223 55.5562 0.864628 55.9562 0.522255 56.4688C0.179881 56.9813 -0.00186994 57.5833 1.45066e-05 58.1987C0.0025348 59.0216 0.333023 59.81 0.919044 60.391C1.50506 60.972 2.29881 61.2983 3.12631 61.2983V61.2983Z" fill="#00CCF5"/>
<path fill-rule="evenodd" clip-rule="evenodd" d="M55.9236 42.9845C59.3006 41.1285 62.5888 39.3672 65.7627 37.7416C65.8801 37.931 66.0071 38.1551 66.1404 38.4076C62.995 40.0427 59.7069 41.8103 56.3298 43.6694L55.9236 42.9845ZM99.7868 26.4225C98.2792 23.8248 89.1384 26.5835 76.2016 32.5966C76.3222 32.7954 76.4428 33.0006 76.5571 33.2089C88.9512 27.3411 97.6 24.516 98.6982 26.7887C100.425 29.7621 80.607 44.3512 54.4541 59.3728C28.3012 74.3944 5.68396 84.1605 3.95736 81.1872C2.97346 79.4195 7.83904 74.6028 12.2095 70.7708C5.91566 75.8212 2.61481 79.7131 3.70028 81.5817C6.16322 85.8272 30.0024 77.4783 56.5393 62.2515C83.0763 47.0248 102.262 30.668 99.7868 26.4225Z" fill="#00CCF5"/>
<path d="M52.8167 45.4528C52.2575 44.4985 52.0485 43.3808 52.2252 42.2903C52.402 41.1998 52.9537 40.2041 53.7861 39.4728C54.6186 38.7416 55.6803 38.3202 56.7903 38.2804C57.9002 38.2407 58.9897 38.585 59.8729 39.2548C60.7561 39.9246 61.3783 40.8783 61.6335 41.9533C61.8888 43.0283 61.7611 44.1581 61.2724 45.1499C60.7837 46.1418 59.9641 46.9344 58.9535 47.3926C57.9429 47.8507 56.8038 47.9461 55.7304 47.6624C55.1191 47.5105 54.5454 47.2363 54.0444 46.8564C53.5435 46.4765 53.1257 45.9989 52.8167 45.4528V45.4528Z" fill="#FA00E9"/>
<defs>
<linearGradient id="paint0_linear_1195_10819" x1="9.70313" y1="14.2037" x2="79.9312" y2="84.4729" gradientUnits="userSpaceOnUse">
<stop offset="0.09375" stop-color="#FA00E9"/>
<stop offset="1" stop-color="#3860FF"/>
</linearGradient>
</defs>
</svg>
