<svg width="174" height="62" viewBox="0 0 174 62" fill="none" xmlns="http://www.w3.org/2000/svg">
<path fill-rule="evenodd" clip-rule="evenodd" d="M77.9799 30.2097H71.2363V52.1626H77.9799V43.0038C77.975 42.0075 78.0353 41.012 78.1605 40.0237C78.2529 39.2005 78.5209 38.4069 78.9463 37.6964C79.3671 37.037 79.9678 36.5121 80.6774 36.184C81.428 35.8224 82.4444 35.6415 83.7267 35.6415C84.216 35.64 84.7047 35.6777 85.188 35.7543C85.6645 35.8336 86.1348 35.9466 86.5953 36.0924V29.8926C86.242 29.7991 85.8808 29.7386 85.5164 29.7118C85.1246 29.6836 84.7353 29.6672 84.3436 29.6672C82.8455 29.6672 81.6015 30.0062 80.6117 30.6841C79.6219 31.362 78.7681 32.3796 78.0503 33.737H77.9588L77.9799 30.2097ZM96.7447 18.0144H90.0058V52.1626H96.2099V49.2717H96.3014C96.6101 49.7071 96.9639 50.1086 97.357 50.4694C97.8209 50.8978 98.3343 51.2691 98.8863 51.5755C99.4912 51.9153 100.131 52.1878 100.796 52.388C101.511 52.6032 102.254 52.71 103 52.7051C104.51 52.7257 106.008 52.4413 107.406 51.869C108.69 51.3361 109.847 50.5356 110.8 49.5206C111.761 48.4834 112.503 47.262 112.981 45.9299C113.504 44.4662 113.763 42.9213 113.746 41.367C113.75 39.8708 113.512 38.3839 113.042 36.9637C112.606 35.6151 111.937 34.3536 111.065 33.2368C110.218 32.159 109.152 31.2736 107.938 30.6394C106.645 29.976 105.208 29.6421 103.756 29.6672C102.417 29.6557 101.086 29.8774 99.8222 30.3224C98.623 30.7488 97.5805 31.5281 96.8315 32.5581H96.7424L96.7447 18.0144ZM97.622 45.2066C96.6838 44.1827 96.2146 42.8425 96.2146 41.1861C96.2146 39.5297 96.6838 38.1896 97.622 37.1657C98.5602 36.1418 99.8894 35.6298 101.61 35.6298C103.33 35.6298 104.659 36.1418 105.597 37.1657C106.535 38.1896 107.004 39.5297 107.004 41.1861C107.004 42.8425 106.535 44.1827 105.597 45.2066C104.659 46.2305 103.33 46.7425 101.61 46.7425C99.8894 46.7425 98.5618 46.2305 97.6267 45.2066H97.622ZM138.637 35.6298H144.572V30.2097H138.637V23.714H131.896V30.2191H127.58V35.6392H131.896V46.0732C131.866 47.1297 132.074 48.1794 132.503 49.1449C132.885 49.9602 133.465 50.6667 134.19 51.1998C134.945 51.7404 135.799 52.1289 136.702 52.3434C137.733 52.592 138.79 52.7135 139.85 52.7051C140.646 52.7034 141.442 52.6579 142.233 52.5689C143.034 52.4829 143.821 52.3008 144.579 52.0264V46.3902C144.199 46.6933 143.737 46.8742 143.253 46.9092C142.787 46.9751 142.317 47.0128 141.846 47.0219C141.251 47.0464 140.657 46.9465 140.103 46.7284C139.7 46.5611 139.361 46.2679 139.137 45.8923C138.915 45.4957 138.777 45.0577 138.731 44.6054C138.668 44.0598 138.638 43.5108 138.642 42.9615L138.637 35.6298ZM117.897 20.5202C117.261 21.1603 116.866 22.0015 116.78 22.9004C116.693 23.7994 116.921 24.7005 117.423 25.4505C117.926 26.2005 118.672 26.7529 119.536 27.0138C120.399 27.2746 121.327 27.2278 122.159 26.8812C122.992 26.5346 123.68 25.9097 124.104 25.1128C124.529 24.316 124.664 23.3965 124.488 22.5109C124.311 21.6252 123.834 20.8281 123.136 20.2554C122.439 19.6826 121.565 19.3695 120.663 19.3694C120.148 19.3631 119.637 19.4619 119.162 19.6598C118.686 19.8576 118.256 20.1504 117.897 20.5202V20.5202ZM124.036 30.2097H117.29V52.1626H124.036V30.2097Z" fill="#3D2D85"/>
<path fill-rule="evenodd" clip-rule="evenodd" d="M67.0188 27.6734C66.475 23.5569 64.93 19.6371 62.5196 16.2581C60.1091 12.8791 56.9069 10.1443 53.1941 8.2939C49.4813 6.44348 45.3716 5.53401 41.2257 5.64535C37.0799 5.7567 33.0247 6.88546 29.4164 8.93251C25.808 10.9796 22.7568 13.8823 20.5308 17.3858C18.3047 20.8893 16.9719 24.8864 16.6493 29.0262C16.3267 33.1659 17.0242 37.3216 18.6805 41.1284C20.3369 44.9352 22.9015 48.2766 26.149 50.8592C28.6354 49.7508 31.3539 48.4568 34.2414 47.0055C31.3209 45.6046 28.8394 43.4296 27.0662 40.7167C25.293 38.0037 24.2958 34.8564 24.1827 31.6161C24.0697 28.3759 24.8452 25.1665 26.425 22.3363C28.0048 19.5061 30.3287 17.1631 33.1444 15.5616C35.9601 13.9601 39.1601 13.1613 42.3972 13.2517C45.6343 13.3422 48.7848 14.3186 51.5068 16.0749C54.2289 17.8312 56.4186 20.3003 57.8382 23.2144C59.2578 26.1285 59.8532 29.3762 59.5598 32.605C62.2338 30.9071 64.7342 29.2539 67.0188 27.6734ZM67.2322 30.5478C64.6732 32.443 61.8374 34.4063 58.7881 36.386C57.4261 40.6629 54.4962 44.2645 50.5884 46.4654C46.6806 48.6663 42.085 49.3032 37.7269 48.2478C34.3844 49.8564 31.2132 51.249 28.3093 52.4021C32.1716 54.8614 36.6273 56.227 41.2028 56.3538C45.7783 56.4806 50.3026 55.3639 54.2949 53.1223C58.2872 50.8807 61.5983 47.5981 63.8762 43.6232C66.1542 39.6483 67.314 35.1298 67.2322 30.5478V30.5478Z" fill="#3D2D85"/>
<path fill-rule="evenodd" clip-rule="evenodd" d="M68.5178 9.91968C68.8607 9.91968 69.1958 9.8179 69.4808 9.6272C69.7659 9.4365 69.9881 9.16546 70.1193 8.84834C70.2505 8.53123 70.2848 8.18228 70.2179 7.84563C70.151 7.50898 69.9859 7.19975 69.7435 6.95704C69.5011 6.71433 69.1922 6.54904 68.856 6.48208C68.5197 6.41511 68.1712 6.44948 67.8545 6.58084C67.5377 6.71219 67.267 6.93463 67.0766 7.22003C66.8861 7.50542 66.7844 7.84096 66.7844 8.18421C66.7841 8.4122 66.8287 8.63801 66.9157 8.84871C67.0027 9.05941 67.1304 9.25084 67.2914 9.41206C67.4525 9.57328 67.6437 9.7011 67.8541 9.7882C68.0646 9.87531 68.2901 9.91999 68.5178 9.91968V9.91968Z" fill="#3D2D85"/>
<path fill-rule="evenodd" clip-rule="evenodd" d="M10.192 39.4061C10.6493 39.4061 11.0962 39.2703 11.4763 39.0158C11.8564 38.7613 12.1526 38.3996 12.3272 37.9765C12.5019 37.5535 12.5472 37.088 12.4575 36.6391C12.3678 36.1902 12.147 35.778 11.8232 35.4548C11.4994 35.1316 11.0871 34.9118 10.6384 34.8234C10.1898 34.7349 9.72502 34.7817 9.30297 34.9579C8.88093 35.1341 8.52058 35.4316 8.26755 35.813C8.01453 36.1943 7.88021 36.6422 7.8816 37.1C7.88347 37.7123 8.12771 38.2988 8.56079 38.7311C8.99388 39.1634 9.58048 39.4061 10.192 39.4061V39.4061Z" fill="#3D2D85"/>
<path fill-rule="evenodd" clip-rule="evenodd" d="M49.211 25.7806C51.7067 24.3997 54.1368 23.0893 56.4824 21.8799C56.5692 22.0208 56.663 22.1875 56.7615 22.3754C54.437 23.5919 52.007 24.907 49.5112 26.2902L49.211 25.7806ZM81.6272 13.4585C80.5131 11.5258 73.7577 13.5783 64.1971 18.052C64.2862 18.1999 64.3753 18.3526 64.4598 18.5076C73.6193 14.1419 80.0111 12.0401 80.8227 13.7309C82.0987 15.9431 67.4528 26.7975 48.125 37.9735C28.7972 49.1496 12.0825 56.4156 10.8065 54.2034C10.0793 52.8883 13.6751 49.3046 16.905 46.4536C12.2537 50.2111 9.81428 53.1067 10.6165 54.4969C12.4367 57.6555 30.0545 51.444 49.6661 40.1153C69.2776 28.7866 83.4568 16.6171 81.6272 13.4585Z" fill="#3D2D85"/>
<path d="M46.9147 27.6174C46.5014 26.9073 46.3469 26.0758 46.4776 25.2644C46.6082 24.4531 47.0159 23.7123 47.6311 23.1683C48.2463 22.6242 49.031 22.3107 49.8513 22.2811C50.6716 22.2515 51.4767 22.5077 52.1294 23.006C52.7821 23.5043 53.242 24.2139 53.4306 25.0137C53.6192 25.8135 53.5249 26.6541 53.1637 27.392C52.8025 28.13 52.1969 28.7197 51.45 29.0605C50.7031 29.4014 49.8612 29.4723 49.068 29.2613C48.6162 29.1483 48.1923 28.9443 47.822 28.6616C47.4518 28.379 47.143 28.0236 46.9147 27.6174V27.6174Z" fill="#3D2D85"/>
<path d="M158.007 40C161.546 40 164 37.5679 164 34.2539V33.5724C164 30.4722 161.464 28 158.007 28C154.536 28 152 30.4454 152 33.5724V34.2539C152 37.5679 154.481 40 158.007 40ZM157.993 39.118C154.997 39.118 152.936 37.0735 152.936 34.2806V33.5323C152.936 30.9532 155.051 28.8686 157.993 28.8686C160.963 28.8686 163.078 30.9265 163.078 33.5323V34.2806C163.078 37.0735 160.976 39.118 157.993 39.118ZM156.746 37.0067V34.5345H158.237L159.607 37.0067H160.624C160.136 36.1514 159.308 34.6949 159.132 34.4009C159.864 34.2004 160.42 33.559 160.42 32.6102C160.42 31.5278 159.607 30.7661 158.427 30.7661H155.864V37.0067H156.746ZM156.746 31.4878H158.183C158.997 31.4878 159.525 31.8886 159.525 32.637C159.525 33.4922 158.888 33.8129 158.102 33.8129H156.746V31.4878Z" fill="#3D2D85"/>
</svg>
