<?xml version="1.0" encoding="utf-8"?>
<!-- Generator: Adobe Illustrator 26.1.0, SVG Export Plug-In . SVG Version: 6.00 Build 0)  -->
<svg version="1.1" id="Layer_1" xmlns="http://www.w3.org/2000/svg" xmlns:xlink="http://www.w3.org/1999/xlink" x="0px" y="0px"
	 viewBox="0 0 925.3394775 924.352356" enable-background="new 0 0 925.3394775 924.352356" xml:space="preserve">
<g>
	<g>
		<path fill="#6A45FF" d="M920.0858765,456.3676147L570.680542,421.174408l102.3317261-160.9871216
			c3.4538574-5.4338074-3.1399536-11.6381378-8.3538208-7.8600311L505.0183411,368.0126038L468.480011,5.2535563
			c-0.70578-7.0047417-10.913269-7.0047417-11.6186523,0l-36.5383301,362.7599792L260.6806641,252.3272552
			c-5.2135162-3.7781982-11.8073578,2.4262238-8.3535004,7.8600311l102.3310089,160.9855957L5.2535563,456.3660889
			c-7.0047417,0.7054749-7.0047417,10.9130554,0,11.6186523l349.4057617,35.1932068L252.3271637,664.1650391
			c-3.4538574,5.4338379,3.1399841,11.6381836,8.3535004,7.8600464l159.6408386-115.6853638l36.5379639,362.7590332
			c0.7057495,7.0047607,10.9132385,7.0047607,11.6190186,0l36.5383301-362.7599487l159.6416321,115.6862793
			c5.2138672,3.7781982,11.8076782-2.4262085,8.3538208-7.8600464L570.6812744,503.1794434l349.4046021-35.1932068
			C927.0906372,467.2807617,927.0906372,457.0731812,920.0858765,456.3676147z"/>
	</g>
</g>
</svg>
