<svg width="33" height="32" viewBox="0 0 33 32" fill="none" xmlns="http://www.w3.org/2000/svg">
<path d="M14.1667 20.0013L10.0663 24.1529C9.49438 24.732 9.20841 25.0215 8.9626 25.042C8.74935 25.0597 8.54055 24.9739 8.40128 24.8115C8.24074 24.6242 8.24074 24.2173 8.24074 23.4034V21.3235C8.24074 20.5933 7.64277 20.0649 6.92027 19.9591V19.9591C5.17166 19.7029 3.79837 18.3296 3.54223 16.581C3.5 16.2927 3.5 15.9487 3.5 15.2606V9.06797C3.5 6.82776 3.5 5.70765 3.93597 4.85201C4.31947 4.09936 4.93139 3.48744 5.68404 3.10394C6.53969 2.66797 7.65979 2.66797 9.9 2.66797H19.7667C22.0069 2.66797 23.127 2.66797 23.9826 3.10394C24.7353 3.48744 25.3472 4.09936 25.7307 4.85201C26.1667 5.70765 26.1667 6.82776 26.1667 9.06797V14.668M26.1667 29.3346L23.2648 27.3171C22.8569 27.0335 22.6529 26.8917 22.4309 26.7912C22.2339 26.702 22.0268 26.637 21.8141 26.5979C21.5745 26.5537 21.326 26.5537 20.8292 26.5537H18.4333C16.9399 26.5537 16.1931 26.5537 15.6227 26.263C15.1209 26.0074 14.713 25.5994 14.4573 25.0977C14.1667 24.5272 14.1667 23.7805 14.1667 22.287V18.9346C14.1667 17.4412 14.1667 16.6944 14.4573 16.124C14.713 15.6222 15.1209 15.2143 15.6227 14.9586C16.1931 14.668 16.9399 14.668 18.4333 14.668H25.9C27.3935 14.668 28.1402 14.668 28.7106 14.9586C29.2124 15.2143 29.6204 15.6222 29.876 16.124C30.1667 16.6944 30.1667 17.4412 30.1667 18.9346V22.5537C30.1667 23.7962 30.1667 24.4175 29.9637 24.9075C29.693 25.5609 29.1739 26.08 28.5205 26.3507C28.0304 26.5537 27.4092 26.5537 26.1667 26.5537V29.3346Z" stroke="#6C4DF6" stroke-width="2.07407" stroke-linecap="round" stroke-linejoin="round"/>
</svg>
