<svg width="808" height="328" viewBox="0 0 808 328" fill="none" xmlns="http://www.w3.org/2000/svg">
<path d="M634 106.801C678.2 106.801 707.4 137.501 707.4 183.901C707.4 230.301 678.1 261.301 634 261.301C588.1 261.301 557.5 230.301 557.5 183.901C557.5 137.501 588.2 106.801 634 106.801ZM398.3 109.901V258.101L365.3 251.301V116.401L398.3 109.901ZM530.5 106.401V141.201L511.5 144.701C495.2 147.801 484.6 156.301 484.6 175.201V258.101L451.6 251.301V170.201C451.6 129.901 475.2 118.001 511.5 109.601L530.5 106.401ZM179.6 106.801C192.6 106.801 208.4 114.001 217.4 127.001C226.4 115.201 241.4 107.401 259.9 107.201C283.1 106.901 312 121.501 312 165.301V258.101L279 251.301V165.301C279 150.601 268.4 140.101 252.7 140.101C237 140.101 226.4 150.601 226.4 165.301V258.101L193.4 251.301V165.301C193.4 150.601 182.8 140.101 167.1 140.101C151.2 140.101 140.5 150.601 140.5 165.301V258.101L107.5 251.301V116.401L140.5 109.901V125.201C149.7 113.901 163.7 106.801 179.6 106.801ZM634 138.101C608.4 138.101 591.2 156.301 591.2 183.901C591.2 211.501 608.4 230.001 634 230.001C657.9 230.001 673.7 211.501 673.7 183.901C673.7 156.301 657.9 138.101 634 138.101ZM382.5 44.8008C394.5 44.8008 402.5 53.2008 402.5 65.8008C402.5 78.4008 394.5 86.8008 382.5 86.8008C370 86.8008 361.7 78.4008 361.7 65.8008C361.7 53.2008 370 44.8008 382.5 44.8008Z" fill="white"/>
</svg>
