<?xml version="1.0" encoding="utf-8"?>
<!-- Generator: Adobe Illustrator 26.1.0, SVG Export Plug-In . SVG Version: 6.00 Build 0)  -->
<svg version="1.1" id="Logo" xmlns="http://www.w3.org/2000/svg" xmlns:xlink="http://www.w3.org/1999/xlink" x="0px" y="0px"
	 viewBox="0 0 3788.4038086 1464.583374" enable-background="new 0 0 3788.4038086 1464.583374" xml:space="preserve">
<linearGradient id="SVGID_1_" gradientUnits="userSpaceOnUse" x1="1894.2010498" y1="596.4596558" x2="1894.2010498" y2="1432.9267578" gradientTransform="matrix(1 0 0 -1 0 1464.1767578)">
	<stop  offset="0" style="stop-color:#FDB7D0"/>
	<stop  offset="0.0958915" style="stop-color:#FCA2C2"/>
	<stop  offset="0.2896433" style="stop-color:#FB7CAA"/>
	<stop  offset="0.4694643" style="stop-color:#FB6198"/>
	<stop  offset="0.6284816" style="stop-color:#FA518E"/>
	<stop  offset="0.75" style="stop-color:#FA4B8A"/>
</linearGradient>
<path fill="url(#SVGID_1_)" d="M1894.2583008,867.7163696l49.0274658-81.8609009
	c12.753418-21.2944946,34.8775635-34.1922607,58.6512451-34.1922607l503.2192383,0.0001221
	c9.4111328,0,10.744873-14.425415,1.5134277-16.3672485l-471.5596924-102.760498l139.5997314-233.0906982
	c4.6049805-7.6894836-4.1865234-16.4693604-11.1381836-11.1228943l-212.8498535,163.7080383l-48.717041-513.3455811
	c-0.9405518-9.9125824-14.550415-9.9125824-15.4909668,0l-48.717041,513.3469238L1624.9445801,388.321991
	c-6.9515381-5.3464661-15.7431641,3.4334106-11.1380615,11.1227722l139.5996094,233.090332l-471.6737061,102.7605591
	c-9.2313232,1.9417725-7.897583,16.3673096,1.5134277,16.3673096l503.333252,0.0002441
	c23.7740479,0,45.8981934,12.8977661,58.6516113,34.1922607l49.0273438,81.8615723l0,0l0,0L1894.2583008,867.7163696z"/>
<path fill="#FDB7D0" d="M1953.7241211,675.1849976l-38.786499,43.9727783l-17.7982178-134.2446899
	c-0.4328613-3.2647095-4.8762207-3.2642822-5.3085938,0.0006714l-17.609375,133.0057983l-37.6295166-42.6428223
	c-1.9984131-2.2644653-5.4825439,0.0189209-4.4705811,2.9296875l62.2888184,125.4395142l63.784668-125.5302124
	C1959.2089844,675.2045898,1955.7229004,672.9190674,1953.7241211,675.1849976z"/>
<g>
	<g>
		<g>
			
				<linearGradient id="SVGID_00000062165195752215854910000016032466596727011476_" gradientUnits="userSpaceOnUse" x1="409.7051086" y1="29.6994019" x2="409.7051086" y2="647.4572754" gradientTransform="matrix(1 0 0 -1 0 1464.1767578)">
				<stop  offset="0.25" style="stop-color:#644BFA"/>
				<stop  offset="0.4723959" style="stop-color:#8F7DFB"/>
				<stop  offset="0.9781609" style="stop-color:#FAF9FF"/>
				<stop  offset="1" style="stop-color:#FFFFFF"/>
			</linearGradient>
			<path fill="url(#SVGID_00000062165195752215854910000016032466596727011476_)" d="M781.4393311,1396.3800049
				c0,20.5927734-15.8599854,38.09729-36.6781006,38.09729H562.3643188c-10.9036865,0-21.8081665-1.0294189-32.7126465-8.2397461
				c0,0-10.90448-7.2060547-18.8345947-20.588623L337.341095,1118.392334v277.9876709
				c0,20.5927734-15.8610535,38.09729-35.6867371,38.09729H73.6567993c-19.8256874,0-35.6859245-17.5045166-35.6859245-38.09729
				V854.8167725c0-20.5927124,15.8602371-38.0973511,35.6859245-38.0973511h187.3548279
				c21.808136,0,35.6859131,8.2398071,47.5814819,26.7693481l172.4848938,296.5258789v-285.197876
				c0-20.5927124,16.8523865-38.0973511,36.6781006-38.0973511h227.005127
				c20.8181152,0,36.6781006,17.5046387,36.6781006,38.0973511V1396.3800049z"/>
		</g>
	</g>
	<g>
		<g>
			
				<linearGradient id="SVGID_00000134941492143741716240000009108616060716378019_" gradientUnits="userSpaceOnUse" x1="1160.6029053" y1="29.6994019" x2="1160.6029053" y2="647.4572754" gradientTransform="matrix(1 0 0 -1 0 1464.1767578)">
				<stop  offset="0.25" style="stop-color:#644BFA"/>
				<stop  offset="0.4723959" style="stop-color:#8F7DFB"/>
				<stop  offset="0.9781609" style="stop-color:#FAF9FF"/>
				<stop  offset="1" style="stop-color:#FFFFFF"/>
			</linearGradient>
			<path fill="url(#SVGID_00000134941492143741716240000009108616060716378019_)" d="M1468.3989258,1396.3800049
				c0,20.5927734-15.8602295,38.09729-35.6870117,38.09729H888.4938965c-19.8267212,0-35.6869507-17.5045166-35.6869507-38.09729
				V854.8167725c0-20.5927124,15.8602295-38.0973511,35.6869507-38.0973511h544.2180176
				c19.8267822,0,35.6870117,17.5046387,35.6870117,38.0973511v51.4799194
				c0,21.6221313-15.8602295,39.1223755-35.6870117,39.1223755h-278.5512695v125.6112061h183.3883057
				c19.8267822,0,35.6867676,17.5045166,35.6867676,39.1224365v32.9501953c0,20.588501-15.8599854,38.0930176-35.6867676,38.0930176
				h-183.3883057V1305.77771h278.5512695c19.8267822,0,35.6870117,17.5045166,35.6870117,39.1225586V1396.3800049z"/>
		</g>
	</g>
	<g>
		<g>
			
				<linearGradient id="SVGID_00000074411499665322254810000001089915343915428003_" gradientUnits="userSpaceOnUse" x1="1894.2592773" y1="29.6994019" x2="1894.2592773" y2="647.4572754" gradientTransform="matrix(1 0 0 -1 0 1464.1767578)">
				<stop  offset="0.25" style="stop-color:#644BFA"/>
				<stop  offset="0.4723959" style="stop-color:#8F7DFB"/>
				<stop  offset="0.9781609" style="stop-color:#FAF9FF"/>
				<stop  offset="1" style="stop-color:#FFFFFF"/>
			</linearGradient>
			<path fill="url(#SVGID_00000074411499665322254810000001089915343915428003_)" d="M2263.8562012,855.8461914
				l-173.6428223,269.7520752l173.6428223,270.7817383c3.8818359,5.1469727,6.791748,13.3867188,6.791748,21.6223145
				c0,11.3277588-6.791748,16.4749756-14.5507812,16.4749756h-234.7578125c-17.4626465,0-36.862915-20.5927734-47.5341797-38.09729
				l-79.5471191-133.8468018l-79.5449219,133.8468018c-10.6712646,17.5045166-30.0715332,38.09729-47.5339355,38.09729h-234.7578125
				c-7.7592773,0-14.5507812-5.1472168-14.5507812-16.4749756c0-8.2355957,2.9095459-16.4753418,6.7915039-21.6223145
				l173.6428223-270.7817383l-173.6428223-269.7520752c-3.881958-6.1765137-6.7915039-14.4161377-6.7915039-22.6515503
				c0-11.3280029,6.7915039-16.4752197,14.5507812-16.4752197h234.7578125c17.4624023,0,36.8626709,20.5928345,47.5339355,39.12677
				l79.5449219,132.8172607l79.5471191-132.8172607c10.6712646-18.5339355,30.0715332-39.12677,47.5341797-39.12677h234.7578125
				c7.7590332,0,14.5507812,5.1472168,14.5507812,16.4752197
				C2270.6479492,841.4300537,2267.7380371,849.6696777,2263.8562012,855.8461914z"/>
		</g>
	</g>
	<g>
		<g>
			
				<linearGradient id="SVGID_00000183221250911775163330000013796676618626273447_" gradientUnits="userSpaceOnUse" x1="2668.2045898" y1="29.6994019" x2="2668.2045898" y2="647.4572754" gradientTransform="matrix(1 0 0 -1 0 1464.1767578)">
				<stop  offset="0.25" style="stop-color:#644BFA"/>
				<stop  offset="0.4723959" style="stop-color:#8F7DFB"/>
				<stop  offset="0.9781609" style="stop-color:#FAF9FF"/>
				<stop  offset="1" style="stop-color:#FFFFFF"/>
			</linearGradient>
			<path fill="url(#SVGID_00000183221250911775163330000013796676618626273447_)" d="M3016.2836914,1331.5177002
				c0,56.6268311-60.2355957,102.9595947-134.2949219,102.9595947h-427.5700684
				c-74.0576172,0-134.2929688-46.3327637-134.2929688-102.9595947V854.8167725
				c0-20.5927124,16.7856445-38.0973511,37.5231934-38.0973511h212.3041992
				c19.7478027,0,36.5341797,17.5046387,36.5341797,38.0973511v416.9855957
				c0,40.1519775,27.6503906,72.0683594,62.2097168,72.0683594c33.574707,0,61.2229004-31.9163818,61.2229004-72.0683594
				V854.8167725c0-20.5927124,16.7883301-38.0973511,37.5236816-38.0973511h212.3041992
				c19.7502441,0,36.5358887,17.5046387,36.5358887,38.0973511V1331.5177002z"/>
		</g>
	</g>
	<g>
		<g>
			
				<linearGradient id="SVGID_00000093866481806994374500000002615983313062584979_" gradientUnits="userSpaceOnUse" x1="3417.5476074" y1="29.6994019" x2="3417.5476074" y2="647.4572754" gradientTransform="matrix(1 0 0 -1 0 1464.1767578)">
				<stop  offset="0.25" style="stop-color:#644BFA"/>
				<stop  offset="0.4723959" style="stop-color:#8F7DFB"/>
				<stop  offset="0.9781609" style="stop-color:#FAF9FF"/>
				<stop  offset="1" style="stop-color:#FFFFFF"/>
			</linearGradient>
			<path fill="url(#SVGID_00000093866481806994374500000002615983313062584979_)" d="M3750.4328613,1331.5177002
				c0,67.9506836-68.4953613,102.9595947-120.5522461,102.9595947h-425.5810547
				c-52.0554199,0-119.6374512-35.0089111-119.6374512-102.9595947v-77.2197266
				c0-20.9536133,15.206543-38.0974121,33.7927246-38.0974121h210.9624023
				c29.2236328,0,32.8781738,28.8325195,32.8781738,55.6018066c0,37.0637207,21.916748,72.0683594,54.7944336,72.0683594
				c33.7910156,0,55.7099609-35.0043945,55.7099609-72.0681152c0-25.010498-6.3317871-51.1887207-21.9719238-69.9053955
				c-18.0461426-21.5955811-47.1977539-33.4571533-72.6611328-37.5581055l-144.6418457-23.2950439
				c-76.7150879-12.3574219-148.862793-50.4503174-148.862793-152.3806152v-68.984314
				c0-67.9505615,67.5820312-102.9597168,119.6374512-102.9597168h425.5810547
				c52.0568848,0,120.5522461,35.0091553,120.5522461,102.9597168v77.2197266
				c0,20.5927734-14.6115723,38.097229-33.7910156,38.097229h-210.9643555
				c-29.2253418,0-32.8776855-28.8323975-32.8776855-55.6017456c0-38.2648315-23.3623047-75.432251-59.0324707-72.9829102
				c-28.0668945,1.9271851-49.8188477,28.4022217-51.1843262,60.0654297
				c-2.6342773,61.0857544,12.3347168,107.0044556,65.4665527,115.8770142l173.520752,27.7988281
				c83.1069336,13.3868408,148.8625488,40.15625,148.8625488,152.3804932V1331.5177002z"/>
		</g>
	</g>
</g>
<g>
	
		<linearGradient id="SVGID_00000127747347041262403430000001049942686021283727_" gradientUnits="userSpaceOnUse" x1="3417.5476074" y1="45.6532478" x2="3417.5476074" y2="631.50354" gradientTransform="matrix(1 0 0 -1 0 1464.1767578)">
		<stop  offset="0" style="stop-color:#644BFA"/>
		<stop  offset="0.2965278" style="stop-color:#8F7DFB"/>
		<stop  offset="0.9708812" style="stop-color:#FAF9FF"/>
		<stop  offset="1" style="stop-color:#FFFFFF"/>
	</linearGradient>
	<path fill="url(#SVGID_00000127747347041262403430000001049942686021283727_)" d="M3204.2995605,1418.5234375
		c-42.5410156,0-105.4858398-27.6529541-105.4858398-87.0062256v-77.2198486
		c0-12.2089844,8.8117676-22.1434326,19.6416016-22.1434326h210.9619141c10.2456055,0,18.7260742,2.9836426,18.7260742,39.6479492
		c0,55.0977783,35.0561523,88.0227051,68.9465332,88.0227051c34.3410645,0,69.8613281-32.9249268,69.8613281-88.0227051
		c0-32.2044678-9.1711426-60.9169922-25.8225098-80.8441162c-25.5961914-30.6329346-65.1437988-39.8642578-80.9592285-42.4135742
		l-144.6433105-23.2945557c-41.4533691-6.6761475-73.9558105-19.9602051-96.6069336-39.4803467
		c-26.9870605-23.2595215-40.1054688-55.0219727-40.1054688-97.1062622v-68.9837036
		c0-59.3530884,62.9448242-87.0061646,105.4858398-87.0061646h425.581543c25.0419922,0,51.9978027,8.7619019,72.1074219,23.4367065
		c15.6445312,11.418396,34.2929688,31.7155762,34.2929688,63.569458v77.2199097
		c0,12.2090454-8.8105469,22.1434937-19.6401367,22.1434937h-210.9638672c-10.2458496,0-18.7263184-2.9836426-18.7263184-39.6479492
		c0-55.7424927-35.5202637-89.0531616-69.8635254-89.0531616c-1.3798828,0-2.7861328,0.0487061-4.1801758,0.144165
		c-35.0026855,2.4052734-62.713623,34.7401733-64.4584961,75.2157593
		c-3.395752,78.7214355,22.6889648,123.2772217,77.5268555,132.4344482l173.6052246,27.8128662
		c86.5737305,13.9443359,136.7004395,40.7658691,136.7004395,136.5845947v68.9837646
		c0,31.8540039-18.6484375,52.151123-34.2929688,63.5697021c-20.1096191,14.6745605-47.0654297,23.4365234-72.1074219,23.4365234
		H3204.2995605z"/>
	
		<linearGradient id="SVGID_00000048479208606955924830000006468182536924170115_" gradientUnits="userSpaceOnUse" x1="2668.2041016" y1="45.6532478" x2="2668.2041016" y2="631.50354" gradientTransform="matrix(1 0 0 -1 0 1464.1767578)">
		<stop  offset="0" style="stop-color:#644BFA"/>
		<stop  offset="0.2965278" style="stop-color:#8F7DFB"/>
		<stop  offset="0.9708812" style="stop-color:#FAF9FF"/>
		<stop  offset="1" style="stop-color:#FFFFFF"/>
	</linearGradient>
	<path fill="url(#SVGID_00000048479208606955924830000006468182536924170115_)" d="M2454.4187012,1418.5234375
		c-32.5561523,0-63.0432129-9.6383057-85.8476562-27.1387939c-21.3735352-16.4041748-33.1445312-37.6655273-33.1445312-59.8674316
		V854.8166504c0-12.0026855,10.1774902-22.1434937,22.2233887-22.1434937h212.3041992
		c11.3098145,0,21.2314453,10.347168,21.2314453,22.1434937v416.9852295c0,23.3587646,7.8415527,45.2957764,22.079834,61.7720947
		c14.6289062,16.9279785,34.3161621,26.2506104,55.4316406,26.2506104c42.1948242,0,76.5236816-39.486084,76.5236816-88.0227051
		V854.8166504c0-12.0026855,10.1779785-22.1434937,22.2233887-22.1434937h212.3027344
		c11.3115234,0,21.2351074,10.347168,21.2351074,22.1434937v476.7005615c0,22.2019043-11.7709961,43.4632568-33.1447754,59.8674316
		c-22.8041992,17.5004883-53.2929688,27.1387939-85.8496094,27.1387939H2454.4187012z"/>
	
		<linearGradient id="SVGID_00000119804499806348519940000005229573819014557622_" gradientUnits="userSpaceOnUse" x1="1894.2590332" y1="45.6532478" x2="1894.2590332" y2="631.50354" gradientTransform="matrix(1 0 0 -1 0 1464.1767578)">
		<stop  offset="0" style="stop-color:#644BFA"/>
		<stop  offset="0.2965278" style="stop-color:#8F7DFB"/>
		<stop  offset="0.9708812" style="stop-color:#FAF9FF"/>
		<stop  offset="1" style="stop-color:#FFFFFF"/>
	</linearGradient>
	<path fill="url(#SVGID_00000119804499806348519940000005229573819014557622_)" d="M2021.3395996,1418.5234375
		c-9.0444336,0-24.3811035-13.5334473-34.9136963-30.8099365l-92.1678467-155.0843506l-92.2595215,155.2399902
		c-10.4371338,17.1208496-25.7738037,30.6542969-34.8200684,30.6542969h-234.2628174
		c-0.0074463-0.1557617-0.0129395-0.3292236-0.0129395-0.5219727c0-4.6077881,1.7597656-9.3500977,3.4954834-11.6538086
		l0.3634033-0.4810791l179.7371826-280.2858887l-179.4251709-278.7333374
		c-2.576416-4.1034546-4.1708984-9.2625732-4.1708984-13.6523438c0-0.192749,0.0054932-0.3660889,0.0129395-0.5218506h234.2628174
		c9.1417236,0,24.7113037,14.1273804,34.708252,31.4916382l92.3713379,154.2391357l92.3735352-154.2371826
		c9.9985352-17.3662109,25.5681152-31.4935913,34.7080078-31.4935913h234.2631836
		c0.0068359,0.1557617,0.0126953,0.3291016,0.0126953,0.5218506c0,4.3917236-1.5947266,9.5508423-4.2644043,13.7983398
		l-179.3317871,278.5873413l179.7370605,280.2877197l0.3652344,0.4829102
		c1.7358398,2.302124,3.4938965,7.0423584,3.4938965,11.6501465c0,0.192749-0.0058594,0.3662109-0.0126953,0.5219727H2021.3395996z"
		/>
	
		<linearGradient id="SVGID_00000154412228097694667120000018243851757015724446_" gradientUnits="userSpaceOnUse" x1="1160.6033936" y1="45.6532478" x2="1160.6033936" y2="631.50354" gradientTransform="matrix(1 0 0 -1 0 1464.1767578)">
		<stop  offset="0" style="stop-color:#644BFA"/>
		<stop  offset="0.2965278" style="stop-color:#8F7DFB"/>
		<stop  offset="0.9708812" style="stop-color:#FAF9FF"/>
		<stop  offset="1" style="stop-color:#FFFFFF"/>
	</linearGradient>
	<path fill="url(#SVGID_00000154412228097694667120000018243851757015724446_)" d="M888.4946899,1418.5234375
		c-11.0181274,0-20.3259888-10.1407471-20.3259888-22.1434326V854.8166504c0-12.0026855,9.3078613-22.1434937,20.3259888-22.1434937
		h544.2172241c11.0179443,0,20.3260498,10.1408081,20.3260498,22.1434937v51.479248
		c0,12.7758789-9.1187744,23.1698608-20.3260498,23.1698608h-293.9111328v157.5187378h198.7484131
		c11.2072754,0,20.3260498,10.394043,20.3260498,23.1679688v32.9503174c0,12.0007324-9.3081055,22.1396484-20.3260498,22.1396484
		h-198.7484131v156.4904785h293.9111328c11.2072754,0,20.3260498,10.3919678,20.3260498,23.1678467v51.479248
		c0,12.0026855-9.3081055,22.1434326-20.3260498,22.1434326H888.4946899z"/>
	
		<linearGradient id="SVGID_00000101087039684628972160000012056762915010281629_" gradientUnits="userSpaceOnUse" x1="409.7053528" y1="45.6532478" x2="409.7053528" y2="631.50354" gradientTransform="matrix(1 0 0 -1 0 1464.1767578)">
		<stop  offset="0" style="stop-color:#644BFA"/>
		<stop  offset="0.2965278" style="stop-color:#8F7DFB"/>
		<stop  offset="0.9708812" style="stop-color:#FAF9FF"/>
		<stop  offset="1" style="stop-color:#FFFFFF"/>
	</linearGradient>
	<path fill="url(#SVGID_00000101087039684628972160000012056762915010281629_)" d="M562.364563,1418.5234375
		c-9.7391357,0-17.229248-0.960083-24.4644165-5.7451172c0.0047607,0.0019531-8.1601562-5.6342773-14.0001831-15.4907227
		l-201.919342-334.3552246v333.4476318c0,12.0026855-9.308075,22.1434326-20.3259888,22.1434326H73.6565399
		c-11.0171242,0-20.3249435-10.1407471-20.3249435-22.1434326V854.8166504c0-12.0026855,9.3078194-22.1434937,20.3249435-22.1434937
		h187.3553314c16.2674866,0,25.3627014,5.0811157,34.6207886,19.3876343l200.8065796,345.2126465V854.8166504
		c0-11.7963257,9.9612427-22.1434937,21.316864-22.1434937h227.005127c11.755188,0,21.3178711,9.9343872,21.3178711,22.1434937
		v541.5633545c0,12.2092285-9.5626831,22.1434326-21.3178711,22.1434326H562.364563z"/>
</g>
<g>
	<path fill="#19133F" d="M179.326828,1267.4294434c-82.5806885-19.4533691-125.9952316-110.9720459-125.9952316-412.612793
		v541.5633545c0,12.0026855,9.3078194,22.1434326,20.3249435,22.1434326h227.9980927
		c11.0179138,0,20.3259888-10.1407471,20.3259888-22.1434326v-314.9936523
		C321.9806213,1186.1687012,261.9075317,1286.8825684,179.326828,1267.4294434z"/>
	<path fill="#19133F" d="M3643.2927246,1278.4680176c-12.2814941,6.6867676-30.9060059,8.852417-51.0666504,8.5814209
		c-49.6257324-0.6672363-94.4472656-31.6425781-120.0375977-79.5819092
		c9.604248,17.9918213,14.7626953,40.1810303,14.7626953,64.3343506c0,55.0977783-35.5202637,88.0227051-69.8613281,88.0227051
		c-33.8903809,0-68.9465332-32.9249268-68.9465332-88.0227051c0,36.3586426-11.5537109,99.4719238-69.5212402,129.147583
		c-18.1550293,9.2945557-40.0634766,15.5008545-62.2473145,17.5739746h413.5063477
		c25.0419922,0,51.9978027-8.7619629,72.1074219-23.4365234c15.6445312-11.4185791,34.2929688-31.7156982,34.2929688-63.5697021
		v-68.9837646c0-95.8187256-50.126709-122.6402588-136.7004395-136.5845947l-30.2961426-4.8536377
		c27.3144531,4.9858398,54.7600098,12.6583252,76.576416,30.8305664
		C3685.8178711,1185.2070312,3693.0559082,1251.3747559,3643.2927246,1278.4680176z"/>
	<path fill="#382A8D" d="M3348.1433105,1271.8018799c0-36.6643066-8.4804688-39.6479492-18.7260742-39.6479492h-210.9619141
		c-10.8303223,0-19.642334,9.9344482-19.642334,22.1434326v77.2198486c0,59.3530273,62.9450684,87.0059814,105.4865723,87.0059814
		h10.9052734c22.8757324-2.0731201,45.262207-8.2794189,63.4172363-17.5737305
		C3336.5891113,1371.2735596,3348.1433105,1308.1605225,3348.1433105,1271.8018799z"/>
	<path fill="#382A8D" d="M622.953064,1266.2127686c-98.6553955-43.9144287-124.7981567-185.0078125-126.4286499-327.1901245
		c-0.0283203-0.0192871-0.0568542-0.0387573-0.0851746-0.0580444v258.30896c0,0-78.7651672-132.1033936-243.9817963-254.6748047
		c-86.6643524-64.2946777-83.0653992-107.2422485,0.4373627-109.8030396
		c-0.0475922-0.041626-0.091217-0.0807495-0.1390839-0.1225586H73.6565399
		c-11.0171242,0-20.3249435,10.1408081-20.3249435,22.1434937c0,301.6407471,43.4148102,393.1594238,125.9952316,412.612793
		c82.5807037,19.453125,142.6537933-81.2606201,142.6537933-186.0430908v-18.4539795l201.919342,334.3552246
		c5.8400269,9.8564453,14.0049438,15.4926758,14.0004883,15.4904785c7.2348633,4.7852783,14.7249756,5.7451172,24.4641113,5.7451172
		h182.3969116c11.7549438,0,21.3179321-9.9342041,21.3179321-22.1431885v-255.8388672
		C766.0794067,1199.4763184,704.4117432,1302.4725342,622.953064,1266.2127686z"/>
	<path fill="#382A8D" d="M868.1687012,1219.6971436v176.6828613c0,12.0026855,9.3078613,22.1431885,20.3259888,22.1431885
		h355.0159302c-119.1887207,0-238.979248-27.9962158-293.7147827-66.2069092
		C897.8636475,1316.0626221,868.1687012,1283.3457031,868.1687012,1219.6971436z"/>
	<path fill="#382A8D" d="M3645.8613281,1151.9257812c-21.8173828-18.1724854-49.2634277-25.8450928-76.5786133-30.8309326
		l-36.8688965-5.9066162c-0.0131836-0.0021973-0.0263672-0.0041504-0.0397949-0.0062256v-0.0001221l-106.3981934-17.0457764
		c-19.8701172-3.3179932-35.9223633-11.3341064-48.2062988-23.8903809c0.4377441,0.4475098,0.8498535,0.9267578,1.2973633,1.3625488
		c-24.9648438-20.3691406-60.470459-22.6209717-77.5031738-4.0378418
		c-18.2353516,19.8948975-1.7287598,64.0339355,61.1870117,74.168457l17.4187012,2.8052979
		c15.8154297,2.5493164,55.3625488,11.7806396,80.9592285,42.4135742c3.1218262,3.7363281,5.9814453,7.7814941,8.5661621,12.1005859
		c0.8620605,1.4403076,1.6933594,2.9108887,2.4941406,4.4106445c25.5908203,47.9384766,70.411377,78.913208,120.0371094,79.5804443
		c20.1606445,0.2709961,38.784668-1.8946533,51.0666504-8.5814209
		C3693.0559082,1251.3748779,3685.8178711,1185.2070312,3645.8613281,1151.9257812z"/>
	<path fill="#382A8D" d="M3000.9819336,1155.1311035v15.7769775c0,73.402832-41.2807617,139.8857422-105.3759766,170.2453613
		c-32.8486328,15.5588379-51.048584,19.8721924-98.9125977,37.46875
		c-27.501709,10.1109619-40.2331543,39.901001,56.4450684,39.901001h-137.6936035l0,0h166.5427246
		c32.5566406,0,63.0454102-9.6380615,85.8496094-27.138916c21.3737793-16.4038086,33.1447754-37.6651611,33.1447754-59.8670654
		v-176.3862305V1155.1311035z"/>
	<path fill="#382A8D" d="M3701.9885254,856.1098633c-14.5209961-10.5968628-32.6142578-18.0873413-50.9765625-21.4448242
		c41.2941895,9.8435669,19.1779785,38.6170044-53.5578613,63.1524048
		c-74.6132812,25.1687012-114.8840332,49.5213013-108.4694824,105.9453125
		c3.1108398,13.7755737,9.4594727,15.2799683,16.6928711,15.2799683h210.9638672
		c10.8295898,0,19.6401367-9.9344482,19.6401367-22.1434937v-77.2197876
		C3736.2814941,887.8254395,3717.6330566,867.5282593,3701.9885254,856.1098633z"/>
	<path fill="#644BFA" d="M3000.9819336,911.0810547c0,71.6233521-9.611084,113.1826172-59.6462402,139.7097168
		c-51.8630371,27.49646-80.1728516,39.3928223-131.6088867,65.0025635
		c-21.4404297,10.675293-64.5061035,30.4953613-64.5061035,123.3404541v32.6680908
		c0,48.536377-34.3288574,88.0227051-76.5236816,88.0227051c-21.1154785,0-40.8027344-9.322876-55.4316406-26.2508545
		c-14.2387695-16.4760742-22.079834-38.4130859-22.079834-61.7718506v-152.4825439
		c0,93.5083008-42.265625,109.2634277-63.4768066,116.4782715c-48.1879883,16.3900146-81.5515137,26.9577637-130.2641602,39.6809082
		c-15.6157227,4.0789795-62.0180664,13.6757812-62.0180664,56.0386963c0,22.2019043,11.7709961,43.4632568,33.1445312,59.8670654
		c22.8044434,17.5008545,53.2915039,27.138916,85.8476562,27.138916h398.7197266
		c-96.6782227,0-83.9467773-29.7900391-56.4450684-39.901001c47.8640137-17.5965576,66.0639648-21.9099121,98.9125977-37.46875
		c64.0952148-30.3596191,105.3759766-96.8425293,105.3759766-170.2453613V911.0810547z"/>
	<path fill="#644BFA" d="M1432.7119141,1321.7329102h-293.9111328v-26.0079346
		c0-86.8764648-27.6252441-108.7698975-73.0087891-131.3094482c-60.5302734-30.0620117-85.5158691-43.0454102-134.350769-70.1976318
		c-42.2661133-23.5-63.272522-69.0699463-63.272522-148.6515503v274.1307983
		c0,63.6485596,29.6949463,96.3654785,81.6271362,132.6191406c54.7355347,38.2106934,174.526062,66.2069092,293.7147827,66.2069092
		h189.2012939c11.0181885,0,20.3260498-10.1405029,20.3260498-22.1431885v-51.479248
		C1453.0379639,1332.1248779,1443.9194336,1321.7329102,1432.7119141,1321.7329102z"/>
	<path fill="#644BFA" d="M705.1881104,960.4522705c-41.7488403-29.2505493-51.0341797-33.0422363-93.0813599-63.7741089
		c-17.8374023-13.0372925-66.2751465-64.0050049,46.1027832-64.0050049H517.7561035
		c-11.3553467,0-21.316864,10.34729-21.316864,22.1434937v69.5280762c0,147.03479,24.4633484,296.4425049,126.5138245,341.868042
		c81.4586792,36.2597656,143.1263428-66.7364502,143.1263428-125.6716309
		C766.0794067,1002.5997925,753.9860229,994.6416626,705.1881104,960.4522705z"/>
	<path fill="#644BFA" d="M3651.0114746,834.664856c-7.0661621-1.2919922-14.1716309-1.9916992-21.1303711-1.9916992h-51.2509766
		h-335.315918c-0.0712891,0.0592651-0.1433105,0.1174316-0.2145996,0.1766357
		c51.2954102,2.1367798,40.1040039,25.2835083-0.1650391,44.630188
		c-64.4824219,30.9797363-144.121582,42.1994629-144.121582,111.1830444V944.916748v0.0001221v43.7461548
		c0,42.0844116,13.1191406,73.8468628,40.1057129,97.1062622c22.6508789,19.5201416,55.1540527,32.8043213,96.6069336,39.4803467
		l127.2287598,20.4899902c-62.9189453-10.1335449-79.4265137-54.2739258-61.1906738-74.1691895
		c17.0327148-18.5831299,52.5383301-16.3312988,77.5031738,4.0378418
		c-22.5463867-21.9536133-32.8273926-58.6921387-30.6179199-109.9066162
		c1.744873-40.475708,29.4553223-72.8106079,64.4580078-75.2158813c1.394043-0.095459,2.800293-0.144165,4.1806641-0.144165
		c34.3425293,0,69.8635254,33.3106689,69.8635254,89.0531616c0,10.7808228,0.737793,18.6322632,2.0334473,24.3694458
		c-6.4150391-56.4251099,33.8557129-80.777771,108.4694824-105.9467773
		C3670.1899414,873.2819214,3692.3061523,844.5081787,3651.0114746,834.664856z"/>
	<path fill="#644BFA" d="M295.6326599,852.060791c-9.2580872-14.3065186-18.353302-19.3876343-34.6207886-19.3876343l0,0
		c-91.3067474,0-97.9458923,43.6077271-8.5544281,109.9255981
		c165.216629,122.5712891,243.9817963,254.6746826,243.9817963,254.6746826L295.6326599,852.060791z"/>
	<path fill="#A293FC" d="M2979.7468262,832.6731567h-152.6865234c48.3391113,0,31.9003906,15.4503784,19.3984375,22.9614868
		c-20.0429688,12.041687-40.098877,23.8248901-60.3322754,35.0171509
		c-30.9382324,17.1134033-37.9345703,30.3768921-40.9057617,73.4836426v274.9983521
		c0-92.8450928,43.0656738-112.6651611,64.5061035-123.3404541c51.4360352-25.6097412,79.7458496-37.5061035,131.6088867-65.0025635
		c50.0351562-26.5270996,59.6462402-68.0863647,59.6462402-139.7097168v-56.2644043
		C3000.9819336,843.0204468,2991.0583496,832.6731567,2979.7468262,832.6731567z"/>
	<path fill="#A293FC" d="M766.0791016,854.8166504c0-12.2091064-9.5626831-22.1434937-21.3178711-22.1434937h-86.5516968
		c-112.3779297,0-63.9401855,50.9677124-46.1027832,64.0050049c42.0471802,30.7317505,51.3322144,34.5235596,93.0811157,63.7741089
		c48.7981567,34.1893921,60.8912354,42.147522,60.8912354,180.0888672V854.8166504z"/>
	<path fill="#A293FC" d="M1072.6474609,928.2504272c-44.4063721-22.7087402-66.5567627-34.6027222-110.4969482-60.5333862
		c-16.4298706-9.6959839-20.4423828-35.0438843,44.6856689-35.0438843H888.4946899
		c-11.0181274,0-20.3259888,10.1408081-20.3259888,22.1434937v90.7496948c0,79.581604,21.0064087,125.1515503,63.272522,148.6515503
		c48.8348999,27.1522217,73.8204956,40.1356201,134.350769,70.1976318
		c45.3835449,22.5395508,73.0087891,44.4329834,73.0087891,131.3094482v-130.4825439h198.7484131
		c11.0179443,0,20.3260498-10.138916,20.3260498-22.1396484v-32.9503174c0-12.7739258-9.1187744-23.1678467-20.3260498-23.1678467
		h-198.7484131v-52.5522461C1138.8007812,960.656311,1094.6241455,939.4888306,1072.6474609,928.2504272z"/>
	<path fill="#A293FC" d="M3204.2995605,832.6731567c-42.5410156,0-105.4858398,27.6530762-105.4858398,87.0061646v68.9837036
		c0-68.9837036,79.6384277-80.2033081,144.1208496-111.1830444c42.2570801-20.3018188,52.550293-44.8068237-7.8432617-44.8068237
		H3204.2995605z"/>
	<path fill="#A293FC" d="M2519.0673828,1018.7475586c-47.1643066,18.2009277-76.2346191,27.3925781-123.6191406,42.8763428
		c-46.6901855,15.2567139-60.0217285,54.6005859-60.0217285,108.5393066v161.3540039
		c0-42.362915,46.4023438-51.9597168,62.0180664-56.0386963c48.7126465-12.7231445,82.0761719-23.2908936,130.2641602-39.6809082
		c21.2111816-7.2148438,63.4768066-22.9699707,63.4768066-116.4782715V908.6707764
		C2591.1855469,956.8736572,2562.423584,1002.0162964,2519.0673828,1018.7475586z"/>
	<path fill="#E0DBFE" d="M2745.2207031,854.8166504V964.135437c2.9711914-43.1067505,9.9675293-56.3702393,40.9057617-73.4836426
		c20.2338867-11.1922607,40.2893066-22.9754639,60.3322754-35.0171509
		c12.5019531-7.5111084,28.9411621-22.9614868-19.3979492-22.9614868h-59.6166992
		C2755.3986816,832.6731567,2745.2207031,842.8139648,2745.2207031,854.8166504z"/>
	<path fill="#E0DBFE" d="M1423.1915283,888.9298096c-37.5290527-12.5330811-56.7470703-19.3110962-93.9782715-34.3212891
		c-17.7435303-7.1533813-28.5362549-21.9353638,16.4869385-21.9353638h-338.8640137
		c-65.1280518,0-61.1155396,25.3479004-44.6856689,35.0438843c43.9401855,25.9306641,66.0905762,37.824646,110.4969482,60.5333862
		c21.9766846,11.2384033,66.1533203,32.4058838,66.1533203,106.1819458V929.4657593h293.9111328
		c8.1491699,0,15.1745605-5.5080566,18.4123535-13.418457v-0.0001221
		C1453.5443115,905.3652344,1439.2644043,894.2975464,1423.1915283,888.9298096z"/>
	<path fill="#FFFFFF" d="M1329.2132568,854.6085205c37.2312012,15.0101929,56.4492188,21.788208,93.9782715,34.3212891
		c16.072876,5.3677368,30.3527832,16.4354248,27.9327393,27.1173706c1.215332-2.968689,1.9136963-6.2650146,1.9136963-9.7512817
		v-51.479248c0-12.0026855-9.3078613-22.1434937-20.3260498-22.1434937h-87.0117188
		C1300.677002,832.6731567,1311.4697266,847.4551392,1329.2132568,854.6085205z"/>
	<path fill="#E0DBFE" d="M2569.9482422,832.6731567H2449.888916c38.1621094,0,53.6271973,10.5272827,21.2011719,24.0271606
		c-38.4306641,15.9998779-63.3630371,22.286499-102.2963867,35.1486206
		c-20.9558105,6.9227295-33.3671875,41.8907471-33.3671875,65.322998v212.991272
		c0-53.9387207,13.331543-93.2825928,60.0217285-108.5393066c47.3845215-15.4837646,76.454834-24.675415,123.6191406-42.8763428
		c43.3562012-16.7312622,72.1181641-61.8739014,72.1181641-110.0767822v-53.854126
		C2591.1855469,842.6376953,2581.6289062,832.6731567,2569.9482422,832.6731567z"/>
	<path fill="#FFFFFF" d="M2357.6499023,832.6731567c-12.0458984,0-22.2233887,10.1408081-22.2233887,22.1434937V957.171936
		c0-23.432251,12.4118652-58.4002686,33.3671875-65.3231812c38.9333496-12.8619385,63.8657227-19.1485596,102.2963867-35.1484375
		c32.4260254-13.4998779,16.9609375-24.0271606-21.2011719-24.0271606H2357.6499023z"/>
	<path fill="#E0DBFE" d="M2151.0314941,1002.8376465l6.2431641-9.6992188
		c9.9753418-20.5402832,6.729248-48.56427-27.5021973-44.2609863c-2.7275391,0.4505005-5.4577637,0.8864136-8.1875,1.321106
		c-56.3081055,9.6171265-103.3481445,14.2189331-161.5170898,16.4692383
		c-11.8237305,0.529541-23.6621094,0.9207764-35.5169678,1.1558838l-30.2928467,50.5802612l-30.3427734-50.6651611
		c-77.5413818-1.7575684-132.3800049-6.2561035-202.0490723-18.4030762
		c-36.99646-6.4504395-40.9133301,22.2999268-30.8631592,43.4291382l6.8186035,10.5928345l0.0006104,0.0006714
		c0-0.0001831,0-0.0004272,0-0.0004272l31.5229492,48.9707031
		c31.1148682,48.3359375,72.5321045,100.1496582,225.7585449,100.1496582s192.7963867-51.5678711,224.0158691-100.0671387
		l31.7775879-49.3656616c-0.0861816,0.1022339-0.1665039,0.211853-0.2531738,0.3128662L2151.0314941,1002.8376465z"/>
	<path fill="#A293FC" d="M2163.2319336,1267.8203125l-91.2126465-142.239624c0,0,46.2070312-71.7814941,46.1784668-71.7803955
		c-31.2890625,47.6817627-93.706543,91.3830566-223.9385986,91.3830566s-192.6514893-43.7012939-223.9406738-91.3830566
		c-0.0284424-0.0010986,46.1787109,71.7803955,46.1787109,71.7803955l-91.2128906,142.239624
		c0,0.0004883-59.430542,92.6781006-59.430542,92.6781006c6.8790283-10.7261963,15.4720459-18.4202881,26.064209-25.0524902
		c21.9324951-13.7329102,46.1514893-9.1278076,70.1943359-6.4577637
		c33.4803467,3.7182617,67.3389893,7.9272461,100.6799316,10.2745361
		c22.3513184,1.5739746,67.1866455,1.5189209,99.9720459-53.6412354l31.4937744-52.9923096l31.4938965,52.9923096
		c32.7854004,55.1601562,77.6207275,55.21521,99.9720459,53.6412354c33.3409424-2.34729,67.199585-6.5562744,100.6798096-10.2745361
		c24.0429688-2.6700439,48.2619629-7.2751465,70.1943359,6.4577637
		c10.5922852,6.6322021,19.1855469,14.3262939,26.064209,25.0524902
		C2222.6623535,1360.4984131,2163.2319336,1267.8208008,2163.2319336,1267.8203125z"/>
	<path fill="#644BFA" d="M2136.4753418,1326.1497803c-42.0429688,5.2268066-60.4116211,11.1593018-110.7513428,11.1188965
		c-58.7366943-0.0476074-87.6938477-38.0981445-116.0430908-78.6887207l76.7452393,129.1335449
		c10.5325928,17.2764893,25.8690186,30.8096924,34.9134521,30.8096924h234.2624512
		c0.0075684-0.1555176,0.0134277-0.3289795,0.0134277-0.5217285c0-4.6077881-1.7580566-9.3480225-3.4938965-11.6501465
		l-0.3652344-0.4829102l-29.0917969-45.3670654C2193.2080078,1314.5670166,2156.0761719,1323.7130127,2136.4753418,1326.1497803z"/>
	<path fill="#644BFA" d="M1762.7922363,1337.2686768c-50.3395996,0.0404053-68.708252-5.8920898-110.7510986-11.1188965
		c-19.5969238-2.4362793-56.7182617-11.5780029-86.1715088,34.3250732l-29.1077881,45.3914795l-0.3634033,0.480957
		c-1.7357178,2.3040771-3.4954834,7.0463867-3.4954834,11.6541748c0,0.192749,0.0054932,0.3662109,0.0129395,0.5217285h234.2606201
		c9.0447998,0,24.3814697-13.5332031,34.9138184-30.8096924l0.0396729-0.0648193l76.706543-129.0705566
		C1850.4868164,1299.1695557,1821.5299072,1337.2210693,1762.7922363,1337.2686768z"/>
	<path fill="#FFFFFF" d="M1661.8662109,949.3356934c69.6690674,12.1469727,139.8250732,42.2221069,217.3666992,43.9795532
		l-77.3461914-129.1504517c-9.9969482-17.3642578-25.5665283-31.4916382-34.708252-31.4916382h-234.2628174
		c-0.0074463,0.1557617-0.0129395,0.3291016-0.0129395,0.5218506c0,4.3897705,1.5944824,9.5488892,4.1708984,13.6523438
		l93.9294434,145.9170532C1620.9528809,971.6353149,1624.869751,942.885376,1661.8662109,949.3356934z"/>
	<path fill="#FFFFFF" d="M2255.5634766,833.1950073c0-0.192749-0.0056152-0.3660889-0.0126953-0.5218506h-234.2111816
		c-9.1398926,0-24.7094727,14.1273804-34.7080078,31.4935913l-77.3375244,129.1484985
		c77.5141602-1.7583618,147.6524658-31.8352661,217.3060303-43.9795532
		c37.2172852-6.4889526,40.9519043,22.6401978,30.6748047,43.8023682l93.689209-145.5439453l0.4282227-0.7467651
		C2253.9689941,842.7438965,2255.5634766,837.5847778,2255.5634766,833.1950073z"/>
</g>
</svg>
