<svg width="3789" height="1923" viewBox="0 0 3789 1923" fill="none" xmlns="http://www.w3.org/2000/svg">
<g clip-path="url(#clip0_1004_452)">
<path d="M3788.4 0H0.00195312V1922.41H3788.4V0Z" fill="#19133F"/>
<g opacity="0.3">
<path opacity="0.3" d="M1894.2 0V1922.41" stroke="url(#paint0_linear_1004_452)" stroke-width="8" stroke-miterlimit="10"/>
<path opacity="0.3" d="M1322.94 0V1922.41" stroke="url(#paint1_linear_1004_452)" stroke-width="8" stroke-miterlimit="10"/>
<path opacity="0.3" d="M751.686 0V1922.41" stroke="url(#paint2_linear_1004_452)" stroke-width="8" stroke-miterlimit="10"/>
<path opacity="0.3" d="M180.426 0V1922.41" stroke="url(#paint3_linear_1004_452)" stroke-width="8" stroke-miterlimit="10"/>
<path opacity="0.3" d="M2465.46 0V1922.41" stroke="url(#paint4_linear_1004_452)" stroke-width="8" stroke-miterlimit="10"/>
<path opacity="0.3" d="M3036.72 0V1922.41" stroke="url(#paint5_linear_1004_452)" stroke-width="8" stroke-miterlimit="10"/>
<path opacity="0.3" d="M3607.98 0V1922.41" stroke="url(#paint6_linear_1004_452)" stroke-width="8" stroke-miterlimit="10"/>
<path opacity="0.3" d="M3788.4 961.203H0.00195312" stroke="url(#paint7_linear_1004_452)" stroke-width="8" stroke-miterlimit="10"/>
<path opacity="0.3" d="M3788.4 389.945H0.00195312" stroke="url(#paint8_linear_1004_452)" stroke-width="8" stroke-miterlimit="10"/>
<path opacity="0.3" d="M3788.4 1532.46H0.00195312" stroke="url(#paint9_linear_1004_452)" stroke-width="8" stroke-miterlimit="10"/>
</g>
<g opacity="0.3">
<path opacity="0.3" d="M2179.83 0V1922.41" stroke="url(#paint10_linear_1004_452)" stroke-width="8" stroke-miterlimit="10"/>
<path opacity="0.3" d="M3465.16 0V1922.41" stroke="url(#paint11_linear_1004_452)" stroke-width="8" stroke-miterlimit="10"/>
<path opacity="0.3" d="M1608.57 0V1922.41" stroke="url(#paint12_linear_1004_452)" stroke-width="8" stroke-miterlimit="10"/>
<path opacity="0.3" d="M1037.31 0V1922.41" stroke="url(#paint13_linear_1004_452)" stroke-width="8" stroke-miterlimit="10"/>
<path opacity="0.3" d="M466.055 0V1922.41" stroke="url(#paint14_linear_1004_452)" stroke-width="8" stroke-miterlimit="10"/>
<path opacity="0.3" d="M2751.09 0V1922.41" stroke="url(#paint15_linear_1004_452)" stroke-width="8" stroke-miterlimit="10"/>
<path opacity="0.3" d="M3322.35 0V1922.41" stroke="url(#paint16_linear_1004_452)" stroke-width="8" stroke-miterlimit="10"/>
<path opacity="0.3" d="M3179.54 0V1922.41" stroke="url(#paint17_linear_1004_452)" stroke-width="8" stroke-miterlimit="10"/>
<path opacity="0.3" d="M2893.91 0V1922.41" stroke="url(#paint18_linear_1004_452)" stroke-width="8" stroke-miterlimit="10"/>
<path opacity="0.3" d="M2608.28 0V1922.41" stroke="url(#paint19_linear_1004_452)" stroke-width="8" stroke-miterlimit="10"/>
<path opacity="0.3" d="M2322.65 0V1922.41" stroke="url(#paint20_linear_1004_452)" stroke-width="8" stroke-miterlimit="10"/>
<path opacity="0.3" d="M2037.02 0V1922.41" stroke="url(#paint21_linear_1004_452)" stroke-width="8" stroke-miterlimit="10"/>
<path opacity="0.3" d="M1751.39 0V1922.41" stroke="url(#paint22_linear_1004_452)" stroke-width="8" stroke-miterlimit="10"/>
<path opacity="0.3" d="M1465.76 0V1922.41" stroke="url(#paint23_linear_1004_452)" stroke-width="8" stroke-miterlimit="10"/>
<path opacity="0.3" d="M1180.13 0V1922.41" stroke="url(#paint24_linear_1004_452)" stroke-width="8" stroke-miterlimit="10"/>
<path opacity="0.3" d="M894.5 0V1922.41" stroke="url(#paint25_linear_1004_452)" stroke-width="8" stroke-miterlimit="10"/>
<path opacity="0.3" d="M608.871 0V1922.41" stroke="url(#paint26_linear_1004_452)" stroke-width="8" stroke-miterlimit="10"/>
<path opacity="0.3" d="M323.24 0V1922.41" stroke="url(#paint27_linear_1004_452)" stroke-width="8" stroke-miterlimit="10"/>
<path opacity="0.3" d="M3788.4 675.574H0.00195312" stroke="url(#paint28_linear_1004_452)" stroke-width="8" stroke-miterlimit="10"/>
<path opacity="0.25" d="M3788.4 104.316H0.00195312" stroke="url(#paint29_linear_1004_452)" stroke-width="8" stroke-miterlimit="10"/>
<path opacity="0.5" d="M3788.4 247.133H0.00195312" stroke="url(#paint30_linear_1004_452)" stroke-width="8" stroke-miterlimit="10"/>
<path opacity="0.1" d="M3788.4 1818.09H0.00195312" stroke="url(#paint31_linear_1004_452)" stroke-width="8" stroke-miterlimit="10"/>
<path opacity="0.5" d="M3788.4 1246.84H0.00195312" stroke="url(#paint32_linear_1004_452)" stroke-width="8" stroke-miterlimit="10"/>
<path opacity="0.3" d="M3788.4 532.762H0.00195312" stroke="url(#paint33_linear_1004_452)" stroke-width="8" stroke-miterlimit="10"/>
<path opacity="0.3" d="M3788.4 818.391H0.00195312" stroke="url(#paint34_linear_1004_452)" stroke-width="8" stroke-miterlimit="10"/>
<path opacity="0.3" d="M3788.4 1104.02H0.00195312" stroke="url(#paint35_linear_1004_452)" stroke-width="8" stroke-miterlimit="10"/>
<path opacity="0.4" d="M3788.4 1389.65H0.00195312" stroke="url(#paint36_linear_1004_452)" stroke-width="8" stroke-miterlimit="10"/>
<path opacity="0.2" d="M3788.4 1675.28H0.00195312" stroke="url(#paint37_linear_1004_452)" stroke-width="8" stroke-miterlimit="10"/>
</g>
<path d="M894.5 675.574H1180.13" stroke="url(#paint38_linear_1004_452)" stroke-width="8" stroke-miterlimit="10"/>
<path d="M1037.31 818.391V532.762" stroke="url(#paint39_linear_1004_452)" stroke-width="8" stroke-miterlimit="10"/>
<path d="M608.869 532.762H894.499" stroke="url(#paint40_linear_1004_452)" stroke-width="8" stroke-miterlimit="10"/>
<path d="M751.686 675.575V389.945" stroke="url(#paint41_linear_1004_452)" stroke-width="8" stroke-miterlimit="10"/>
<path d="M1180.13 532.762H1465.76" stroke="url(#paint42_linear_1004_452)" stroke-width="8" stroke-miterlimit="10"/>
<path d="M1322.94 675.575V389.945" stroke="url(#paint43_linear_1004_452)" stroke-width="8" stroke-miterlimit="10"/>
<path d="M1180.13 247.133H1751.39" stroke="url(#paint44_linear_1004_452)" stroke-width="8" stroke-miterlimit="10"/>
<path d="M180.426 818.391H751.685" stroke="url(#paint45_linear_1004_452)" stroke-width="8" stroke-miterlimit="10"/>
<path d="M466.055 1104.02V532.762" stroke="url(#paint46_linear_1004_452)" stroke-width="8" stroke-miterlimit="10"/>
<path d="M1465.76 532.761V0" stroke="url(#paint47_linear_1004_452)" stroke-width="8" stroke-miterlimit="10"/>
<path d="M466.055 1389.65H1037.31" stroke="url(#paint48_linear_1004_452)" stroke-width="8" stroke-miterlimit="10"/>
<path d="M751.686 1675.28V1142.52" stroke="url(#paint49_linear_1004_452)" stroke-width="8" stroke-miterlimit="10"/>
<path d="M3036.72 818.391H3607.98" stroke="url(#paint50_linear_1004_452)" stroke-width="8" stroke-miterlimit="10"/>
<path d="M3179.54 675.574H3465.16" stroke="url(#paint51_linear_1004_452)" stroke-width="8" stroke-miterlimit="10"/>
<path d="M3322.35 856.885V532.758" stroke="url(#paint52_linear_1004_452)" stroke-width="8" stroke-miterlimit="10"/>
<path d="M2322.65 532.762H2608.28" stroke="url(#paint53_linear_1004_452)" stroke-width="8" stroke-miterlimit="10"/>
<path d="M2465.46 714.073V389.945" stroke="url(#paint54_linear_1004_452)" stroke-width="8" stroke-miterlimit="10"/>
<path d="M2751.09 247.133H3036.72" stroke="url(#paint55_linear_1004_452)" stroke-width="8" stroke-miterlimit="10"/>
<path d="M2893.91 389.946V104.316" stroke="url(#paint56_linear_1004_452)" stroke-width="8" stroke-miterlimit="10"/>
<path d="M466.055 961.434H751.684" stroke="url(#paint57_linear_1004_452)" stroke-width="8" stroke-miterlimit="10"/>
<path d="M608.869 1104.25V818.617" stroke="url(#paint58_linear_1004_452)" stroke-width="8" stroke-miterlimit="10"/>
<path d="M3322.35 1104.02V571.258" stroke="url(#paint59_linear_1004_452)" stroke-width="8" stroke-miterlimit="10"/>
<path d="M608.869 247.133H894.499" stroke="url(#paint60_linear_1004_452)" stroke-width="8" stroke-miterlimit="10"/>
<path d="M751.686 428.444V104.316" stroke="url(#paint61_linear_1004_452)" stroke-width="8" stroke-miterlimit="10"/>
<path d="M2751.09 961.203H3036.72" stroke="url(#paint62_linear_1004_452)" stroke-width="8" stroke-miterlimit="10"/>
<path d="M2893.91 1142.51V818.387" stroke="url(#paint63_linear_1004_452)" stroke-width="8" stroke-miterlimit="10"/>
<path d="M2608.28 675.574H2893.91" stroke="url(#paint64_linear_1004_452)" stroke-width="8" stroke-miterlimit="10"/>
<path d="M2751.09 818.391V532.762" stroke="url(#paint65_linear_1004_452)" stroke-width="8" stroke-miterlimit="10"/>
<path d="M2465.46 247.133H2751.09" stroke="url(#paint66_linear_1004_452)" stroke-width="8" stroke-miterlimit="10"/>
<path d="M2608.28 428.444V104.316" stroke="url(#paint67_linear_1004_452)" stroke-width="8" stroke-miterlimit="10"/>
<path d="M2037.02 247.133H2322.65" stroke="url(#paint68_linear_1004_452)" stroke-width="8" stroke-miterlimit="10"/>
<path d="M2179.83 428.444V104.316" stroke="url(#paint69_linear_1004_452)" stroke-width="8" stroke-miterlimit="10"/>
<path d="M2893.91 1389.65H3179.54" stroke="url(#paint70_linear_1004_452)" stroke-width="8" stroke-miterlimit="10"/>
<path d="M3036.72 1532.47V1246.84" stroke="url(#paint71_linear_1004_452)" stroke-width="8" stroke-miterlimit="10"/>
<path d="M2322.65 1389.65H2608.28" stroke="url(#paint72_linear_1004_452)" stroke-width="8" stroke-miterlimit="10"/>
<path d="M2465.46 1532.47V1246.84" stroke="url(#paint73_linear_1004_452)" stroke-width="8" stroke-miterlimit="10"/>
<path d="M3036.72 1104.02H3322.35" stroke="url(#paint74_linear_1004_452)" stroke-width="8" stroke-miterlimit="10"/>
<path d="M3179.54 1285.33V961.203" stroke="url(#paint75_linear_1004_452)" stroke-width="8" stroke-miterlimit="10"/>
<path d="M1465.76 247.133H1751.39" stroke="url(#paint76_linear_1004_452)" stroke-width="8" stroke-miterlimit="10"/>
<path d="M1608.57 389.946V104.316" stroke="url(#paint77_linear_1004_452)" stroke-width="8" stroke-miterlimit="10"/>
<path d="M751.684 1419.11C767.958 1419.11 781.15 1405.92 781.15 1389.65C781.15 1373.38 767.958 1360.18 751.684 1360.18C735.411 1360.18 722.219 1373.38 722.219 1389.65C722.219 1405.92 735.411 1419.11 751.684 1419.11Z" fill="#4B38BC"/>
<path d="M466.055 847.857C482.329 847.857 495.521 834.665 495.521 818.391C495.521 802.118 482.329 788.926 466.055 788.926C449.782 788.926 436.59 802.118 436.59 818.391C436.59 834.665 449.782 847.857 466.055 847.857Z" fill="#4B38BC"/>
<path d="M2751.09 705.04C2767.36 705.04 2780.56 691.848 2780.56 675.575C2780.56 659.301 2767.36 646.109 2751.09 646.109C2734.82 646.109 2721.62 659.301 2721.62 675.575C2721.62 691.848 2734.82 705.04 2751.09 705.04Z" fill="#4B38BC"/>
<path d="M1322.94 562.228C1339.22 562.228 1352.41 549.036 1352.41 532.762C1352.41 516.489 1339.22 503.297 1322.94 503.297C1306.67 503.297 1293.48 516.489 1293.48 532.762C1293.48 549.036 1306.67 562.228 1322.94 562.228Z" fill="#4B38BC"/>
<path d="M3036.72 1404.38C3044.86 1404.38 3051.45 1397.79 3051.45 1389.65C3051.45 1381.51 3044.86 1374.92 3036.72 1374.92C3028.58 1374.92 3021.99 1381.51 3021.99 1389.65C3021.99 1397.79 3028.58 1404.38 3036.72 1404.38Z" fill="#4B38BC"/>
<path d="M2465.46 1404.38C2473.6 1404.38 2480.19 1397.79 2480.19 1389.65C2480.19 1381.51 2473.6 1374.92 2465.46 1374.92C2457.32 1374.92 2450.73 1381.51 2450.73 1389.65C2450.73 1397.79 2457.32 1404.38 2465.46 1404.38Z" fill="#4B38BC"/>
<path d="M3322.35 690.305C3330.49 690.305 3337.08 683.709 3337.08 675.573C3337.08 667.436 3330.49 660.84 3322.35 660.84C3314.21 660.84 3307.62 667.436 3307.62 675.573C3307.62 683.709 3314.21 690.305 3322.35 690.305Z" fill="#4B38BC"/>
<path d="M3322.35 863.986C3347.53 863.986 3367.95 843.572 3367.95 818.39C3367.95 793.207 3347.53 772.793 3322.35 772.793C3297.17 772.793 3276.75 793.207 3276.75 818.39C3276.75 843.572 3297.17 863.986 3322.35 863.986Z" fill="#4B38BC"/>
<path d="M2179.83 269.929C2192.42 269.929 2202.63 259.722 2202.63 247.13C2202.63 234.539 2192.42 224.332 2179.83 224.332C2167.24 224.332 2157.03 234.539 2157.03 247.13C2157.03 259.722 2167.24 269.929 2179.83 269.929Z" fill="#4B38BC"/>
<path d="M2608.27 269.929C2620.87 269.929 2631.07 259.722 2631.07 247.13C2631.07 234.539 2620.87 224.332 2608.27 224.332C2595.68 224.332 2585.48 234.539 2585.48 247.13C2585.48 259.722 2595.68 269.929 2608.27 269.929Z" fill="#4B38BC"/>
<path d="M1465.76 284.674C1486.49 284.674 1503.3 267.867 1503.3 247.134C1503.3 226.401 1486.49 209.594 1465.76 209.594C1445.03 209.594 1428.22 226.401 1428.22 247.134C1428.22 267.867 1445.03 284.674 1465.76 284.674Z" fill="#4B38BC"/>
<path d="M1037.31 686.751C1043.49 686.751 1048.49 681.747 1048.49 675.575C1048.49 669.402 1043.49 664.398 1037.31 664.398C1031.14 664.398 1026.14 669.402 1026.14 675.575C1026.14 681.747 1031.14 686.751 1037.31 686.751Z" fill="#4B38BC"/>
<path d="M1608.57 258.31C1614.75 258.31 1619.75 253.306 1619.75 247.133C1619.75 240.961 1614.75 235.957 1608.57 235.957C1602.4 235.957 1597.4 240.961 1597.4 247.133C1597.4 253.306 1602.4 258.31 1608.57 258.31Z" fill="#4B38BC"/>
<path d="M2893.91 258.31C2900.08 258.31 2905.08 253.306 2905.08 247.133C2905.08 240.961 2900.08 235.957 2893.91 235.957C2887.73 235.957 2882.73 240.961 2882.73 247.133C2882.73 253.306 2887.73 258.31 2893.91 258.31Z" fill="#4B38BC"/>
<path d="M3179.54 1115.2C3185.71 1115.2 3190.71 1110.19 3190.71 1104.02C3190.71 1097.85 3185.71 1092.84 3179.54 1092.84C3173.36 1092.84 3168.36 1097.85 3168.36 1104.02C3168.36 1110.19 3173.36 1115.2 3179.54 1115.2Z" fill="#4B38BC"/>
<path d="M2893.9 983.064C2905.98 983.064 2915.76 973.277 2915.76 961.204C2915.76 949.131 2905.98 939.344 2893.9 939.344C2881.83 939.344 2872.04 949.131 2872.04 961.204C2872.04 973.277 2881.83 983.064 2893.9 983.064Z" fill="#4B38BC"/>
<path d="M2465.46 543.939C2471.63 543.939 2476.64 538.935 2476.64 532.762C2476.64 526.59 2471.63 521.586 2465.46 521.586C2459.29 521.586 2454.29 526.59 2454.29 532.762C2454.29 538.935 2459.29 543.939 2465.46 543.939Z" fill="#4B38BC"/>
<path d="M608.87 972.611C615.042 972.611 620.046 967.607 620.046 961.434C620.046 955.262 615.042 950.258 608.87 950.258C602.697 950.258 597.693 955.262 597.693 961.434C597.693 967.607 602.697 972.611 608.87 972.611Z" fill="#4B38BC"/>
<path d="M751.684 543.939C757.857 543.939 762.861 538.935 762.861 532.762C762.861 526.59 757.857 521.586 751.684 521.586C745.512 521.586 740.508 526.59 740.508 532.762C740.508 538.935 745.512 543.939 751.684 543.939Z" fill="#4B38BC"/>
<path d="M751.685 274.086C766.572 274.086 778.64 262.018 778.64 247.131C778.64 232.244 766.572 220.176 751.685 220.176C736.799 220.176 724.73 232.244 724.73 247.131C724.73 262.018 736.799 274.086 751.685 274.086Z" fill="#4B38BC"/>
<path d="M466.055 1118.75C474.192 1118.75 480.788 1112.16 480.788 1104.02C480.788 1095.89 474.192 1089.29 466.055 1089.29C457.918 1089.29 451.322 1095.89 451.322 1104.02C451.322 1112.16 457.918 1118.75 466.055 1118.75Z" fill="#32267D"/>
<path d="M466.055 1547.2C474.192 1547.2 480.788 1540.6 480.788 1532.46C480.788 1524.33 474.192 1517.73 466.055 1517.73C457.918 1517.73 451.322 1524.33 451.322 1532.46C451.322 1540.6 457.918 1547.2 466.055 1547.2Z" fill="#32267D"/>
<path d="M466.055 261.864C474.192 261.864 480.788 255.268 480.788 247.131C480.788 238.995 474.192 232.398 466.055 232.398C457.918 232.398 451.322 238.995 451.322 247.131C451.322 255.268 457.918 261.864 466.055 261.864Z" fill="#32267D"/>
<path d="M894.5 1120.81C903.774 1120.81 911.293 1113.29 911.293 1104.02C911.293 1094.75 903.774 1087.23 894.5 1087.23C885.226 1087.23 877.707 1094.75 877.707 1104.02C877.707 1113.29 885.226 1120.81 894.5 1120.81Z" fill="#32267D"/>
<path d="M894.5 1692.07C903.774 1692.07 911.293 1684.55 911.293 1675.28C911.293 1666 903.774 1658.48 894.5 1658.48C885.226 1658.48 877.707 1666 877.707 1675.28C877.707 1684.55 885.226 1692.07 894.5 1692.07Z" fill="#32267D"/>
<path d="M2893.91 1543.64C2900.08 1543.64 2905.08 1538.64 2905.08 1532.47C2905.08 1526.29 2900.08 1521.29 2893.91 1521.29C2887.73 1521.29 2882.73 1526.29 2882.73 1532.47C2882.73 1538.64 2887.73 1543.64 2893.91 1543.64Z" fill="#32267D"/>
<path d="M1751.39 115.494C1757.56 115.494 1762.56 110.49 1762.56 104.317C1762.56 98.1445 1757.56 93.1406 1751.39 93.1406C1745.21 93.1406 1740.21 98.1445 1740.21 104.317C1740.21 110.49 1745.21 115.494 1751.39 115.494Z" fill="#32267D"/>
<path d="M3179.54 258.306C3185.71 258.306 3190.71 253.302 3190.71 247.13C3190.71 240.957 3185.71 235.953 3179.54 235.953C3173.36 235.953 3168.36 240.957 3168.36 247.13C3168.36 253.302 3173.36 258.306 3179.54 258.306Z" fill="#32267D"/>
<path d="M1608.57 401.122C1614.75 401.122 1619.75 396.119 1619.75 389.946C1619.75 383.773 1614.75 378.77 1608.57 378.77C1602.4 378.77 1597.4 383.773 1597.4 389.946C1597.4 396.119 1602.4 401.122 1608.57 401.122Z" fill="#32267D"/>
<path d="M2751.09 115.494C2757.26 115.494 2762.27 110.49 2762.27 104.317C2762.27 98.1445 2757.26 93.1406 2751.09 93.1406C2744.92 93.1406 2739.91 98.1445 2739.91 104.317C2739.91 110.49 2744.92 115.494 2751.09 115.494Z" fill="#32267D"/>
<path d="M894.499 115.494C900.671 115.494 905.675 110.49 905.675 104.317C905.675 98.1445 900.671 93.1406 894.499 93.1406C888.326 93.1406 883.322 98.1445 883.322 104.317C883.322 110.49 888.326 115.494 894.499 115.494Z" fill="#32267D"/>
<path d="M3322.35 1258.01C3328.52 1258.01 3333.53 1253.01 3333.53 1246.83C3333.53 1240.66 3328.52 1235.66 3322.35 1235.66C3316.18 1235.66 3311.17 1240.66 3311.17 1246.83C3311.17 1253.01 3316.18 1258.01 3322.35 1258.01Z" fill="#32267D"/>
<path d="M1608.57 686.751C1614.75 686.751 1619.75 681.747 1619.75 675.575C1619.75 669.402 1614.75 664.398 1608.57 664.398C1602.4 664.398 1597.4 669.402 1597.4 675.575C1597.4 681.747 1602.4 686.751 1608.57 686.751Z" fill="#32267D"/>
<path d="M1933.41 391.27C2161.42 406.725 2352.72 555.971 2429.45 761.135" stroke="url(#paint78_linear_1004_452)" stroke-width="8" stroke-miterlimit="10" stroke-linecap="round"/>
<path d="M1358.96 761.135C1435.68 555.971 1626.99 406.724 1855 391.27" stroke="url(#paint79_linear_1004_452)" stroke-width="8" stroke-miterlimit="10" stroke-linecap="round"/>
<path d="M751.686 961.204C751.686 645.707 1007.45 389.945 1322.94 389.945C1467.37 389.945 1599.28 443.542 1699.86 531.93" stroke="url(#paint80_linear_1004_452)" stroke-width="8" stroke-miterlimit="10" stroke-linecap="round"/>
<path d="M1322.94 1532.46C1007.45 1532.46 751.686 1276.7 751.686 961.203" stroke="url(#paint81_linear_1004_452)" stroke-width="8" stroke-miterlimit="10" stroke-linecap="round"/>
<path d="M3036.72 961.203C3036.72 1276.7 2780.96 1532.46 2465.46 1532.46" stroke="url(#paint82_linear_1004_452)" stroke-width="8" stroke-miterlimit="10" stroke-linecap="round"/>
<path d="M2088.54 531.927C2189.13 443.54 2321.04 389.945 2465.46 389.945C2780.96 389.945 3036.72 645.707 3036.72 961.204" stroke="url(#paint83_linear_1004_452)" stroke-width="8" stroke-miterlimit="10" stroke-linecap="round"/>
<path d="M180.426 961.204C180.426 645.707 436.187 389.945 751.685 389.945C996.793 389.945 1205.85 544.314 1286.93 761.135" stroke="url(#paint84_linear_1004_452)" stroke-width="8" stroke-miterlimit="10" stroke-linecap="round"/>
<path d="M751.685 1532.46C436.187 1532.46 180.426 1276.7 180.426 961.203" stroke="url(#paint85_linear_1004_452)" stroke-width="8" stroke-miterlimit="10" stroke-linecap="round"/>
<path d="M3607.98 961.203C3607.98 1276.7 3352.22 1532.46 3036.72 1532.46" stroke="url(#paint86_linear_1004_452)" stroke-width="8" stroke-miterlimit="10" stroke-linecap="round"/>
<path d="M2501.48 761.135C2582.56 544.314 2791.61 389.945 3036.72 389.945C3352.22 389.945 3607.98 645.707 3607.98 961.204" stroke="url(#paint87_linear_1004_452)" stroke-width="8" stroke-miterlimit="10" stroke-linecap="round"/>
<path d="M751.685 961.203C751.685 1276.7 495.923 1532.46 180.426 1532.46" stroke="url(#paint88_linear_1004_452)" stroke-width="8" stroke-miterlimit="10" stroke-linecap="round"/>
<path d="M180.426 389.945C495.923 389.945 751.685 645.707 751.685 961.204" stroke="url(#paint89_linear_1004_452)" stroke-width="8" stroke-miterlimit="10" stroke-linecap="round"/>
<path d="M3036.72 961.204C3036.72 645.707 3292.48 389.945 3607.98 389.945" stroke="url(#paint90_linear_1004_452)" stroke-width="8" stroke-miterlimit="10" stroke-linecap="round"/>
<path d="M3607.98 1532.46C3292.48 1532.46 3036.72 1276.7 3036.72 961.203" stroke="url(#paint91_linear_1004_452)" stroke-width="8" stroke-miterlimit="10" stroke-linecap="round"/>
</g>
<defs>
<linearGradient id="paint0_linear_1004_452" x1="nan" y1="nan" x2="nan" y2="nan" gradientUnits="userSpaceOnUse">
<stop stop-color="#4B38BC" stop-opacity="0"/>
<stop offset="0.5" stop-color="#4B38BC"/>
<stop offset="1" stop-color="#4B38BC" stop-opacity="0"/>
</linearGradient>
<linearGradient id="paint1_linear_1004_452" x1="nan" y1="nan" x2="nan" y2="nan" gradientUnits="userSpaceOnUse">
<stop stop-color="#4B38BC" stop-opacity="0"/>
<stop offset="0.5" stop-color="#4B38BC"/>
<stop offset="1" stop-color="#4B38BC" stop-opacity="0"/>
</linearGradient>
<linearGradient id="paint2_linear_1004_452" x1="nan" y1="nan" x2="nan" y2="nan" gradientUnits="userSpaceOnUse">
<stop stop-color="#4B38BC" stop-opacity="0"/>
<stop offset="0.5" stop-color="#4B38BC"/>
<stop offset="1" stop-color="#4B38BC" stop-opacity="0"/>
</linearGradient>
<linearGradient id="paint3_linear_1004_452" x1="nan" y1="nan" x2="nan" y2="nan" gradientUnits="userSpaceOnUse">
<stop stop-color="#4B38BC" stop-opacity="0"/>
<stop offset="0.5" stop-color="#4B38BC"/>
<stop offset="1" stop-color="#4B38BC" stop-opacity="0"/>
</linearGradient>
<linearGradient id="paint4_linear_1004_452" x1="nan" y1="nan" x2="nan" y2="nan" gradientUnits="userSpaceOnUse">
<stop stop-color="#4B38BC" stop-opacity="0"/>
<stop offset="0.5" stop-color="#4B38BC"/>
<stop offset="1" stop-color="#4B38BC" stop-opacity="0"/>
</linearGradient>
<linearGradient id="paint5_linear_1004_452" x1="nan" y1="nan" x2="nan" y2="nan" gradientUnits="userSpaceOnUse">
<stop stop-color="#4B38BC" stop-opacity="0"/>
<stop offset="0.5" stop-color="#4B38BC"/>
<stop offset="1" stop-color="#4B38BC" stop-opacity="0"/>
</linearGradient>
<linearGradient id="paint6_linear_1004_452" x1="nan" y1="nan" x2="nan" y2="nan" gradientUnits="userSpaceOnUse">
<stop stop-color="#4B38BC" stop-opacity="0"/>
<stop offset="0.5" stop-color="#4B38BC"/>
<stop offset="1" stop-color="#4B38BC" stop-opacity="0"/>
</linearGradient>
<linearGradient id="paint7_linear_1004_452" x1="nan" y1="nan" x2="nan" y2="nan" gradientUnits="userSpaceOnUse">
<stop stop-color="#4B38BC" stop-opacity="0"/>
<stop offset="0.5" stop-color="#4B38BC"/>
<stop offset="1" stop-color="#4B38BC" stop-opacity="0"/>
</linearGradient>
<linearGradient id="paint8_linear_1004_452" x1="nan" y1="nan" x2="nan" y2="nan" gradientUnits="userSpaceOnUse">
<stop stop-color="#4B38BC" stop-opacity="0"/>
<stop offset="0.5" stop-color="#4B38BC"/>
<stop offset="1" stop-color="#4B38BC" stop-opacity="0"/>
</linearGradient>
<linearGradient id="paint9_linear_1004_452" x1="nan" y1="nan" x2="nan" y2="nan" gradientUnits="userSpaceOnUse">
<stop stop-color="#4B38BC" stop-opacity="0"/>
<stop offset="0.5" stop-color="#4B38BC"/>
<stop offset="1" stop-color="#4B38BC" stop-opacity="0"/>
</linearGradient>
<linearGradient id="paint10_linear_1004_452" x1="nan" y1="nan" x2="nan" y2="nan" gradientUnits="userSpaceOnUse">
<stop stop-color="#4B38BC" stop-opacity="0"/>
<stop offset="0.5" stop-color="#4B38BC"/>
<stop offset="1" stop-color="#4B38BC" stop-opacity="0"/>
</linearGradient>
<linearGradient id="paint11_linear_1004_452" x1="nan" y1="nan" x2="nan" y2="nan" gradientUnits="userSpaceOnUse">
<stop stop-color="#4B38BC" stop-opacity="0"/>
<stop offset="0.5" stop-color="#4B38BC"/>
<stop offset="1" stop-color="#4B38BC" stop-opacity="0"/>
</linearGradient>
<linearGradient id="paint12_linear_1004_452" x1="nan" y1="nan" x2="nan" y2="nan" gradientUnits="userSpaceOnUse">
<stop stop-color="#4B38BC" stop-opacity="0"/>
<stop offset="0.5" stop-color="#4B38BC"/>
<stop offset="1" stop-color="#4B38BC" stop-opacity="0"/>
</linearGradient>
<linearGradient id="paint13_linear_1004_452" x1="nan" y1="nan" x2="nan" y2="nan" gradientUnits="userSpaceOnUse">
<stop stop-color="#4B38BC" stop-opacity="0"/>
<stop offset="0.5" stop-color="#4B38BC"/>
<stop offset="1" stop-color="#4B38BC" stop-opacity="0"/>
</linearGradient>
<linearGradient id="paint14_linear_1004_452" x1="nan" y1="nan" x2="nan" y2="nan" gradientUnits="userSpaceOnUse">
<stop stop-color="#4B38BC" stop-opacity="0"/>
<stop offset="0.5" stop-color="#4B38BC"/>
<stop offset="1" stop-color="#4B38BC" stop-opacity="0"/>
</linearGradient>
<linearGradient id="paint15_linear_1004_452" x1="nan" y1="nan" x2="nan" y2="nan" gradientUnits="userSpaceOnUse">
<stop stop-color="#4B38BC" stop-opacity="0"/>
<stop offset="0.5" stop-color="#4B38BC"/>
<stop offset="1" stop-color="#4B38BC" stop-opacity="0"/>
</linearGradient>
<linearGradient id="paint16_linear_1004_452" x1="nan" y1="nan" x2="nan" y2="nan" gradientUnits="userSpaceOnUse">
<stop stop-color="#4B38BC" stop-opacity="0"/>
<stop offset="0.5" stop-color="#4B38BC"/>
<stop offset="1" stop-color="#4B38BC" stop-opacity="0"/>
</linearGradient>
<linearGradient id="paint17_linear_1004_452" x1="nan" y1="nan" x2="nan" y2="nan" gradientUnits="userSpaceOnUse">
<stop stop-color="#4B38BC" stop-opacity="0"/>
<stop offset="0.5" stop-color="#4B38BC"/>
<stop offset="1" stop-color="#4B38BC" stop-opacity="0"/>
</linearGradient>
<linearGradient id="paint18_linear_1004_452" x1="nan" y1="nan" x2="nan" y2="nan" gradientUnits="userSpaceOnUse">
<stop stop-color="#4B38BC" stop-opacity="0"/>
<stop offset="0.5" stop-color="#4B38BC"/>
<stop offset="1" stop-color="#4B38BC" stop-opacity="0"/>
</linearGradient>
<linearGradient id="paint19_linear_1004_452" x1="nan" y1="nan" x2="nan" y2="nan" gradientUnits="userSpaceOnUse">
<stop stop-color="#4B38BC" stop-opacity="0"/>
<stop offset="0.5" stop-color="#4B38BC"/>
<stop offset="1" stop-color="#4B38BC" stop-opacity="0"/>
</linearGradient>
<linearGradient id="paint20_linear_1004_452" x1="nan" y1="nan" x2="nan" y2="nan" gradientUnits="userSpaceOnUse">
<stop stop-color="#4B38BC" stop-opacity="0"/>
<stop offset="0.5" stop-color="#4B38BC"/>
<stop offset="1" stop-color="#4B38BC" stop-opacity="0"/>
</linearGradient>
<linearGradient id="paint21_linear_1004_452" x1="nan" y1="nan" x2="nan" y2="nan" gradientUnits="userSpaceOnUse">
<stop stop-color="#4B38BC" stop-opacity="0"/>
<stop offset="0.5" stop-color="#4B38BC"/>
<stop offset="1" stop-color="#4B38BC" stop-opacity="0"/>
</linearGradient>
<linearGradient id="paint22_linear_1004_452" x1="nan" y1="nan" x2="nan" y2="nan" gradientUnits="userSpaceOnUse">
<stop stop-color="#4B38BC" stop-opacity="0"/>
<stop offset="0.5" stop-color="#4B38BC"/>
<stop offset="1" stop-color="#4B38BC" stop-opacity="0"/>
</linearGradient>
<linearGradient id="paint23_linear_1004_452" x1="nan" y1="nan" x2="nan" y2="nan" gradientUnits="userSpaceOnUse">
<stop stop-color="#4B38BC" stop-opacity="0"/>
<stop offset="0.5" stop-color="#4B38BC"/>
<stop offset="1" stop-color="#4B38BC" stop-opacity="0"/>
</linearGradient>
<linearGradient id="paint24_linear_1004_452" x1="nan" y1="nan" x2="nan" y2="nan" gradientUnits="userSpaceOnUse">
<stop stop-color="#4B38BC" stop-opacity="0"/>
<stop offset="0.5" stop-color="#4B38BC"/>
<stop offset="1" stop-color="#4B38BC" stop-opacity="0"/>
</linearGradient>
<linearGradient id="paint25_linear_1004_452" x1="nan" y1="nan" x2="nan" y2="nan" gradientUnits="userSpaceOnUse">
<stop stop-color="#4B38BC" stop-opacity="0"/>
<stop offset="0.5" stop-color="#4B38BC"/>
<stop offset="1" stop-color="#4B38BC" stop-opacity="0"/>
</linearGradient>
<linearGradient id="paint26_linear_1004_452" x1="nan" y1="nan" x2="nan" y2="nan" gradientUnits="userSpaceOnUse">
<stop stop-color="#4B38BC" stop-opacity="0"/>
<stop offset="0.5" stop-color="#4B38BC"/>
<stop offset="1" stop-color="#4B38BC" stop-opacity="0"/>
</linearGradient>
<linearGradient id="paint27_linear_1004_452" x1="nan" y1="nan" x2="nan" y2="nan" gradientUnits="userSpaceOnUse">
<stop stop-color="#4B38BC" stop-opacity="0"/>
<stop offset="0.5" stop-color="#4B38BC"/>
<stop offset="1" stop-color="#4B38BC" stop-opacity="0"/>
</linearGradient>
<linearGradient id="paint28_linear_1004_452" x1="nan" y1="nan" x2="nan" y2="nan" gradientUnits="userSpaceOnUse">
<stop stop-color="#4B38BC" stop-opacity="0"/>
<stop offset="0.5" stop-color="#4B38BC"/>
<stop offset="1" stop-color="#4B38BC" stop-opacity="0"/>
</linearGradient>
<linearGradient id="paint29_linear_1004_452" x1="nan" y1="nan" x2="nan" y2="nan" gradientUnits="userSpaceOnUse">
<stop stop-color="#4B38BC" stop-opacity="0"/>
<stop offset="0.5" stop-color="#4B38BC"/>
<stop offset="1" stop-color="#4B38BC" stop-opacity="0"/>
</linearGradient>
<linearGradient id="paint30_linear_1004_452" x1="nan" y1="nan" x2="nan" y2="nan" gradientUnits="userSpaceOnUse">
<stop stop-color="#4B38BC" stop-opacity="0"/>
<stop offset="0.5" stop-color="#4B38BC"/>
<stop offset="1" stop-color="#4B38BC" stop-opacity="0"/>
</linearGradient>
<linearGradient id="paint31_linear_1004_452" x1="nan" y1="nan" x2="nan" y2="nan" gradientUnits="userSpaceOnUse">
<stop stop-color="#4B38BC" stop-opacity="0"/>
<stop offset="0.5" stop-color="#4B38BC"/>
<stop offset="1" stop-color="#4B38BC" stop-opacity="0"/>
</linearGradient>
<linearGradient id="paint32_linear_1004_452" x1="nan" y1="nan" x2="nan" y2="nan" gradientUnits="userSpaceOnUse">
<stop stop-color="#4B38BC" stop-opacity="0"/>
<stop offset="0.5" stop-color="#4B38BC"/>
<stop offset="1" stop-color="#4B38BC" stop-opacity="0"/>
</linearGradient>
<linearGradient id="paint33_linear_1004_452" x1="nan" y1="nan" x2="nan" y2="nan" gradientUnits="userSpaceOnUse">
<stop stop-color="#4B38BC" stop-opacity="0"/>
<stop offset="0.5" stop-color="#4B38BC"/>
<stop offset="1" stop-color="#4B38BC" stop-opacity="0"/>
</linearGradient>
<linearGradient id="paint34_linear_1004_452" x1="nan" y1="nan" x2="nan" y2="nan" gradientUnits="userSpaceOnUse">
<stop stop-color="#4B38BC" stop-opacity="0"/>
<stop offset="0.5" stop-color="#4B38BC"/>
<stop offset="1" stop-color="#4B38BC" stop-opacity="0"/>
</linearGradient>
<linearGradient id="paint35_linear_1004_452" x1="nan" y1="nan" x2="nan" y2="nan" gradientUnits="userSpaceOnUse">
<stop stop-color="#4B38BC" stop-opacity="0"/>
<stop offset="0.5" stop-color="#4B38BC"/>
<stop offset="1" stop-color="#4B38BC" stop-opacity="0"/>
</linearGradient>
<linearGradient id="paint36_linear_1004_452" x1="nan" y1="nan" x2="nan" y2="nan" gradientUnits="userSpaceOnUse">
<stop stop-color="#4B38BC" stop-opacity="0"/>
<stop offset="0.5" stop-color="#4B38BC"/>
<stop offset="1" stop-color="#4B38BC" stop-opacity="0"/>
</linearGradient>
<linearGradient id="paint37_linear_1004_452" x1="nan" y1="nan" x2="nan" y2="nan" gradientUnits="userSpaceOnUse">
<stop stop-color="#4B38BC" stop-opacity="0"/>
<stop offset="0.5" stop-color="#4B38BC"/>
<stop offset="1" stop-color="#4B38BC" stop-opacity="0"/>
</linearGradient>
<linearGradient id="paint38_linear_1004_452" x1="nan" y1="nan" x2="nan" y2="nan" gradientUnits="userSpaceOnUse">
<stop stop-color="#32267D" stop-opacity="0"/>
<stop offset="0.5" stop-color="#32267D"/>
<stop offset="1" stop-color="#32267D" stop-opacity="0"/>
</linearGradient>
<linearGradient id="paint39_linear_1004_452" x1="nan" y1="nan" x2="nan" y2="nan" gradientUnits="userSpaceOnUse">
<stop stop-color="#32267D" stop-opacity="0"/>
<stop offset="0.5" stop-color="#32267D"/>
<stop offset="1" stop-color="#32267D" stop-opacity="0"/>
</linearGradient>
<linearGradient id="paint40_linear_1004_452" x1="nan" y1="nan" x2="nan" y2="nan" gradientUnits="userSpaceOnUse">
<stop stop-color="#32267D" stop-opacity="0"/>
<stop offset="0.5" stop-color="#32267D"/>
<stop offset="1" stop-color="#32267D" stop-opacity="0"/>
</linearGradient>
<linearGradient id="paint41_linear_1004_452" x1="nan" y1="nan" x2="nan" y2="nan" gradientUnits="userSpaceOnUse">
<stop stop-color="#32267D" stop-opacity="0"/>
<stop offset="0.5" stop-color="#32267D"/>
<stop offset="1" stop-color="#32267D" stop-opacity="0"/>
</linearGradient>
<linearGradient id="paint42_linear_1004_452" x1="nan" y1="nan" x2="nan" y2="nan" gradientUnits="userSpaceOnUse">
<stop stop-color="#32267D" stop-opacity="0"/>
<stop offset="0.5" stop-color="#32267D"/>
<stop offset="1" stop-color="#32267D" stop-opacity="0"/>
</linearGradient>
<linearGradient id="paint43_linear_1004_452" x1="nan" y1="nan" x2="nan" y2="nan" gradientUnits="userSpaceOnUse">
<stop stop-color="#32267D" stop-opacity="0"/>
<stop offset="0.5" stop-color="#32267D"/>
<stop offset="1" stop-color="#32267D" stop-opacity="0"/>
</linearGradient>
<linearGradient id="paint44_linear_1004_452" x1="nan" y1="nan" x2="nan" y2="nan" gradientUnits="userSpaceOnUse">
<stop stop-color="#32267D" stop-opacity="0"/>
<stop offset="0.5" stop-color="#32267D"/>
<stop offset="1" stop-color="#32267D" stop-opacity="0"/>
</linearGradient>
<linearGradient id="paint45_linear_1004_452" x1="nan" y1="nan" x2="nan" y2="nan" gradientUnits="userSpaceOnUse">
<stop stop-color="#32267D" stop-opacity="0"/>
<stop offset="0.5" stop-color="#32267D"/>
<stop offset="1" stop-color="#32267D" stop-opacity="0"/>
</linearGradient>
<linearGradient id="paint46_linear_1004_452" x1="nan" y1="nan" x2="nan" y2="nan" gradientUnits="userSpaceOnUse">
<stop stop-color="#32267D" stop-opacity="0"/>
<stop offset="0.5" stop-color="#32267D"/>
<stop offset="1" stop-color="#32267D" stop-opacity="0"/>
</linearGradient>
<linearGradient id="paint47_linear_1004_452" x1="nan" y1="nan" x2="nan" y2="nan" gradientUnits="userSpaceOnUse">
<stop stop-color="#32267D" stop-opacity="0"/>
<stop offset="0.5" stop-color="#32267D"/>
<stop offset="1" stop-color="#32267D" stop-opacity="0"/>
</linearGradient>
<linearGradient id="paint48_linear_1004_452" x1="nan" y1="nan" x2="nan" y2="nan" gradientUnits="userSpaceOnUse">
<stop stop-color="#32267D" stop-opacity="0"/>
<stop offset="0.5" stop-color="#32267D"/>
<stop offset="1" stop-color="#32267D" stop-opacity="0"/>
</linearGradient>
<linearGradient id="paint49_linear_1004_452" x1="nan" y1="nan" x2="nan" y2="nan" gradientUnits="userSpaceOnUse">
<stop stop-color="#32267D" stop-opacity="0"/>
<stop offset="0.5" stop-color="#32267D"/>
<stop offset="1" stop-color="#32267D" stop-opacity="0"/>
</linearGradient>
<linearGradient id="paint50_linear_1004_452" x1="nan" y1="nan" x2="nan" y2="nan" gradientUnits="userSpaceOnUse">
<stop stop-color="#32267D" stop-opacity="0"/>
<stop offset="0.5" stop-color="#32267D"/>
<stop offset="1" stop-color="#32267D" stop-opacity="0"/>
</linearGradient>
<linearGradient id="paint51_linear_1004_452" x1="nan" y1="nan" x2="nan" y2="nan" gradientUnits="userSpaceOnUse">
<stop stop-color="#32267D" stop-opacity="0"/>
<stop offset="0.5" stop-color="#32267D"/>
<stop offset="1" stop-color="#32267D" stop-opacity="0"/>
</linearGradient>
<linearGradient id="paint52_linear_1004_452" x1="nan" y1="nan" x2="nan" y2="nan" gradientUnits="userSpaceOnUse">
<stop stop-color="#32267D" stop-opacity="0"/>
<stop offset="0.5" stop-color="#32267D"/>
<stop offset="1" stop-color="#32267D" stop-opacity="0"/>
</linearGradient>
<linearGradient id="paint53_linear_1004_452" x1="nan" y1="nan" x2="nan" y2="nan" gradientUnits="userSpaceOnUse">
<stop stop-color="#32267D" stop-opacity="0"/>
<stop offset="0.5" stop-color="#32267D"/>
<stop offset="1" stop-color="#32267D" stop-opacity="0"/>
</linearGradient>
<linearGradient id="paint54_linear_1004_452" x1="nan" y1="nan" x2="nan" y2="nan" gradientUnits="userSpaceOnUse">
<stop stop-color="#32267D" stop-opacity="0"/>
<stop offset="0.5" stop-color="#32267D"/>
<stop offset="1" stop-color="#32267D" stop-opacity="0"/>
</linearGradient>
<linearGradient id="paint55_linear_1004_452" x1="nan" y1="nan" x2="nan" y2="nan" gradientUnits="userSpaceOnUse">
<stop stop-color="#32267D" stop-opacity="0"/>
<stop offset="0.5" stop-color="#32267D"/>
<stop offset="1" stop-color="#32267D" stop-opacity="0"/>
</linearGradient>
<linearGradient id="paint56_linear_1004_452" x1="nan" y1="nan" x2="nan" y2="nan" gradientUnits="userSpaceOnUse">
<stop stop-color="#32267D" stop-opacity="0"/>
<stop offset="0.5" stop-color="#32267D"/>
<stop offset="1" stop-color="#32267D" stop-opacity="0"/>
</linearGradient>
<linearGradient id="paint57_linear_1004_452" x1="nan" y1="nan" x2="nan" y2="nan" gradientUnits="userSpaceOnUse">
<stop stop-color="#32267D" stop-opacity="0"/>
<stop offset="0.5" stop-color="#32267D"/>
<stop offset="1" stop-color="#32267D" stop-opacity="0"/>
</linearGradient>
<linearGradient id="paint58_linear_1004_452" x1="nan" y1="nan" x2="nan" y2="nan" gradientUnits="userSpaceOnUse">
<stop stop-color="#32267D" stop-opacity="0"/>
<stop offset="0.5" stop-color="#32267D"/>
<stop offset="1" stop-color="#32267D" stop-opacity="0"/>
</linearGradient>
<linearGradient id="paint59_linear_1004_452" x1="nan" y1="nan" x2="nan" y2="nan" gradientUnits="userSpaceOnUse">
<stop stop-color="#32267D" stop-opacity="0"/>
<stop offset="0.5" stop-color="#32267D"/>
<stop offset="1" stop-color="#32267D" stop-opacity="0"/>
</linearGradient>
<linearGradient id="paint60_linear_1004_452" x1="nan" y1="nan" x2="nan" y2="nan" gradientUnits="userSpaceOnUse">
<stop stop-color="#32267D" stop-opacity="0"/>
<stop offset="0.5" stop-color="#32267D"/>
<stop offset="1" stop-color="#32267D" stop-opacity="0"/>
</linearGradient>
<linearGradient id="paint61_linear_1004_452" x1="nan" y1="nan" x2="nan" y2="nan" gradientUnits="userSpaceOnUse">
<stop stop-color="#32267D" stop-opacity="0"/>
<stop offset="0.5" stop-color="#32267D"/>
<stop offset="1" stop-color="#32267D" stop-opacity="0"/>
</linearGradient>
<linearGradient id="paint62_linear_1004_452" x1="nan" y1="nan" x2="nan" y2="nan" gradientUnits="userSpaceOnUse">
<stop stop-color="#32267D" stop-opacity="0"/>
<stop offset="0.5" stop-color="#32267D"/>
<stop offset="1" stop-color="#32267D" stop-opacity="0"/>
</linearGradient>
<linearGradient id="paint63_linear_1004_452" x1="nan" y1="nan" x2="nan" y2="nan" gradientUnits="userSpaceOnUse">
<stop stop-color="#32267D" stop-opacity="0"/>
<stop offset="0.5" stop-color="#32267D"/>
<stop offset="1" stop-color="#32267D" stop-opacity="0"/>
</linearGradient>
<linearGradient id="paint64_linear_1004_452" x1="nan" y1="nan" x2="nan" y2="nan" gradientUnits="userSpaceOnUse">
<stop stop-color="#32267D" stop-opacity="0"/>
<stop offset="0.5" stop-color="#32267D"/>
<stop offset="1" stop-color="#32267D" stop-opacity="0"/>
</linearGradient>
<linearGradient id="paint65_linear_1004_452" x1="nan" y1="nan" x2="nan" y2="nan" gradientUnits="userSpaceOnUse">
<stop stop-color="#32267D" stop-opacity="0"/>
<stop offset="0.5" stop-color="#32267D"/>
<stop offset="1" stop-color="#32267D" stop-opacity="0"/>
</linearGradient>
<linearGradient id="paint66_linear_1004_452" x1="nan" y1="nan" x2="nan" y2="nan" gradientUnits="userSpaceOnUse">
<stop stop-color="#32267D" stop-opacity="0"/>
<stop offset="0.5" stop-color="#32267D"/>
<stop offset="1" stop-color="#32267D" stop-opacity="0"/>
</linearGradient>
<linearGradient id="paint67_linear_1004_452" x1="nan" y1="nan" x2="nan" y2="nan" gradientUnits="userSpaceOnUse">
<stop stop-color="#32267D" stop-opacity="0"/>
<stop offset="0.5" stop-color="#32267D"/>
<stop offset="1" stop-color="#32267D" stop-opacity="0"/>
</linearGradient>
<linearGradient id="paint68_linear_1004_452" x1="nan" y1="nan" x2="nan" y2="nan" gradientUnits="userSpaceOnUse">
<stop stop-color="#32267D" stop-opacity="0"/>
<stop offset="0.5" stop-color="#32267D"/>
<stop offset="1" stop-color="#32267D" stop-opacity="0"/>
</linearGradient>
<linearGradient id="paint69_linear_1004_452" x1="nan" y1="nan" x2="nan" y2="nan" gradientUnits="userSpaceOnUse">
<stop stop-color="#32267D" stop-opacity="0"/>
<stop offset="0.5" stop-color="#32267D"/>
<stop offset="1" stop-color="#32267D" stop-opacity="0"/>
</linearGradient>
<linearGradient id="paint70_linear_1004_452" x1="nan" y1="nan" x2="nan" y2="nan" gradientUnits="userSpaceOnUse">
<stop stop-color="#32267D" stop-opacity="0"/>
<stop offset="0.5" stop-color="#32267D"/>
<stop offset="1" stop-color="#32267D" stop-opacity="0"/>
</linearGradient>
<linearGradient id="paint71_linear_1004_452" x1="nan" y1="nan" x2="nan" y2="nan" gradientUnits="userSpaceOnUse">
<stop stop-color="#32267D" stop-opacity="0"/>
<stop offset="0.5" stop-color="#32267D"/>
<stop offset="1" stop-color="#32267D" stop-opacity="0"/>
</linearGradient>
<linearGradient id="paint72_linear_1004_452" x1="nan" y1="nan" x2="nan" y2="nan" gradientUnits="userSpaceOnUse">
<stop stop-color="#32267D" stop-opacity="0"/>
<stop offset="0.5" stop-color="#32267D"/>
<stop offset="1" stop-color="#32267D" stop-opacity="0"/>
</linearGradient>
<linearGradient id="paint73_linear_1004_452" x1="nan" y1="nan" x2="nan" y2="nan" gradientUnits="userSpaceOnUse">
<stop stop-color="#32267D" stop-opacity="0"/>
<stop offset="0.5" stop-color="#32267D"/>
<stop offset="1" stop-color="#32267D" stop-opacity="0"/>
</linearGradient>
<linearGradient id="paint74_linear_1004_452" x1="nan" y1="nan" x2="nan" y2="nan" gradientUnits="userSpaceOnUse">
<stop stop-color="#32267D" stop-opacity="0"/>
<stop offset="0.5" stop-color="#32267D"/>
<stop offset="1" stop-color="#32267D" stop-opacity="0"/>
</linearGradient>
<linearGradient id="paint75_linear_1004_452" x1="nan" y1="nan" x2="nan" y2="nan" gradientUnits="userSpaceOnUse">
<stop stop-color="#32267D" stop-opacity="0"/>
<stop offset="0.5" stop-color="#32267D"/>
<stop offset="1" stop-color="#32267D" stop-opacity="0"/>
</linearGradient>
<linearGradient id="paint76_linear_1004_452" x1="nan" y1="nan" x2="nan" y2="nan" gradientUnits="userSpaceOnUse">
<stop stop-color="#32267D" stop-opacity="0"/>
<stop offset="0.5" stop-color="#32267D"/>
<stop offset="1" stop-color="#32267D" stop-opacity="0"/>
</linearGradient>
<linearGradient id="paint77_linear_1004_452" x1="nan" y1="nan" x2="nan" y2="nan" gradientUnits="userSpaceOnUse">
<stop stop-color="#32267D" stop-opacity="0"/>
<stop offset="0.5" stop-color="#32267D"/>
<stop offset="1" stop-color="#32267D" stop-opacity="0"/>
</linearGradient>
<linearGradient id="paint78_linear_1004_452" x1="2181.43" y1="765.135" x2="2181.43" y2="387.27" gradientUnits="userSpaceOnUse">
<stop stop-color="#FA4B8A" stop-opacity="0"/>
<stop offset="0.5" stop-color="#FA4B8A"/>
<stop offset="1" stop-color="#FA4B8A" stop-opacity="0"/>
</linearGradient>
<linearGradient id="paint79_linear_1004_452" x1="1606.98" y1="765.135" x2="1606.98" y2="387.27" gradientUnits="userSpaceOnUse">
<stop stop-color="#FA4B8A" stop-opacity="0"/>
<stop offset="0.5" stop-color="#FA4B8A"/>
<stop offset="1" stop-color="#FA4B8A" stop-opacity="0"/>
</linearGradient>
<linearGradient id="paint80_linear_1004_452" x1="747.686" y1="675.575" x2="1703.86" y2="675.575" gradientUnits="userSpaceOnUse">
<stop stop-color="#FA4B8A"/>
<stop offset="1" stop-color="#FA4B8A" stop-opacity="0"/>
</linearGradient>
<linearGradient id="paint81_linear_1004_452" x1="1037.31" y1="1536.46" x2="1037.31" y2="957.203" gradientUnits="userSpaceOnUse">
<stop stop-color="#FA4B8A" stop-opacity="0"/>
<stop offset="1" stop-color="#FA4B8A"/>
</linearGradient>
<linearGradient id="paint82_linear_1004_452" x1="2751.09" y1="1536.46" x2="2751.09" y2="957.203" gradientUnits="userSpaceOnUse">
<stop stop-color="#FA4B8A" stop-opacity="0"/>
<stop offset="1" stop-color="#FA4B8A"/>
</linearGradient>
<linearGradient id="paint83_linear_1004_452" x1="2084.54" y1="675.575" x2="3040.72" y2="675.575" gradientUnits="userSpaceOnUse">
<stop stop-color="#FA4B8A" stop-opacity="0"/>
<stop offset="1" stop-color="#FA4B8A"/>
</linearGradient>
<linearGradient id="paint84_linear_1004_452" x1="176.426" y1="675.575" x2="1290.93" y2="675.575" gradientUnits="userSpaceOnUse">
<stop stop-color="#FA4B8A"/>
<stop offset="1" stop-color="#FA4B8A" stop-opacity="0"/>
</linearGradient>
<linearGradient id="paint85_linear_1004_452" x1="466.055" y1="1536.46" x2="466.055" y2="957.203" gradientUnits="userSpaceOnUse">
<stop stop-color="#FA4B8A" stop-opacity="0"/>
<stop offset="1" stop-color="#FA4B8A"/>
</linearGradient>
<linearGradient id="paint86_linear_1004_452" x1="3322.35" y1="1536.46" x2="3322.35" y2="957.203" gradientUnits="userSpaceOnUse">
<stop stop-color="#FA4B8A" stop-opacity="0"/>
<stop offset="1" stop-color="#FA4B8A"/>
</linearGradient>
<linearGradient id="paint87_linear_1004_452" x1="2497.48" y1="675.575" x2="3611.98" y2="675.575" gradientUnits="userSpaceOnUse">
<stop stop-color="#FA4B8A" stop-opacity="0"/>
<stop offset="1" stop-color="#FA4B8A"/>
</linearGradient>
<linearGradient id="paint88_linear_1004_452" x1="466.055" y1="1536.46" x2="466.055" y2="957.203" gradientUnits="userSpaceOnUse">
<stop stop-color="#FA4B8A" stop-opacity="0"/>
<stop offset="1" stop-color="#FA4B8A"/>
</linearGradient>
<linearGradient id="paint89_linear_1004_452" x1="176.426" y1="675.575" x2="755.685" y2="675.575" gradientUnits="userSpaceOnUse">
<stop stop-color="#FA4B8A" stop-opacity="0"/>
<stop offset="1" stop-color="#FA4B8A"/>
</linearGradient>
<linearGradient id="paint90_linear_1004_452" x1="3032.72" y1="675.575" x2="3611.98" y2="675.575" gradientUnits="userSpaceOnUse">
<stop stop-color="#FA4B8A"/>
<stop offset="1" stop-color="#FA4B8A" stop-opacity="0"/>
</linearGradient>
<linearGradient id="paint91_linear_1004_452" x1="3322.35" y1="1536.46" x2="3322.35" y2="957.203" gradientUnits="userSpaceOnUse">
<stop stop-color="#FA4B8A" stop-opacity="0"/>
<stop offset="1" stop-color="#FA4B8A"/>
</linearGradient>
<clipPath id="clip0_1004_452">
<rect width="3788.4" height="1922.41" fill="white"/>
</clipPath>
</defs>
</svg>
