<svg xmlns="http://www.w3.org/2000/svg" xmlns:xlink="http://www.w3.org/1999/xlink" viewBox="0 0 2188.843 1080"><defs><linearGradient id="linear-gradient" x1="1363.646" y1="598.934" x2="-192.084" y2="-93.722" gradientUnits="userSpaceOnUse"><stop offset="0" stop-color="#fa00e9"/><stop offset="0.025" stop-color="#ea03e1"/><stop offset="0.097" stop-color="#c10bcb"/><stop offset="0.176" stop-color="#9c12b8"/><stop offset="0.261" stop-color="#7d19a8"/><stop offset="0.353" stop-color="#641d9b"/><stop offset="0.456" stop-color="#512191"/><stop offset="0.574" stop-color="#432489"/><stop offset="0.723" stop-color="#3b2685"/><stop offset="1" stop-color="#392684"/></linearGradient><linearGradient id="linear-gradient-2" x1="1419.776" y1="341.212" x2="794.383" y2="62.77" gradientUnits="userSpaceOnUse"><stop offset="0" stop-color="#fff"/><stop offset="0.027" stop-color="#fee6fd"/><stop offset="0.092" stop-color="#fdaef8"/><stop offset="0.158" stop-color="#fc7ef4"/><stop offset="0.222" stop-color="#fb57f1"/><stop offset="0.286" stop-color="#fb39ee"/><stop offset="0.348" stop-color="#fa23ec"/><stop offset="0.407" stop-color="#fa16eb"/><stop offset="0.463" stop-color="#fa12eb"/><stop offset="0.468" stop-color="#fa12eb" stop-opacity="0.988"/><stop offset="0.792" stop-color="#fa05ea" stop-opacity="0.284"/><stop offset="0.931" stop-color="#fa00e9" stop-opacity="0"/></linearGradient><linearGradient id="linear-gradient-3" x1="1221.27" y1="729.918" x2="552.171" y2="432.016" xlink:href="#linear-gradient-2"/></defs><g id="Background_Trees" data-name="Background Trees"><path d="M2107.754,834.118c12.786-34.823,19.582-73.467,23.186-103.6a165.887,165.887,0,0,1-15.041,15.341c14.678-51.94,15.748-105.917,15.748-105.917s-9.534,37.22-37.911,77.125a199.954,199.954,0,0,0,22.834-19.953s-12.858,55.2-49.525,98.432c0,0,20.766-11.478,38.336-25.057,0,0-30.986,132.07-125.559,219.679h62.69c41.178-47.474,77.876-122.806,87.674-178.225A169.256,169.256,0,0,1,2107.754,834.118Z" transform="translate(0 0)" fill="#5944b9"/><path d="M1327.363,920.064c15.163-34.071,23.826-95.142,23.826-95.142a123.588,123.588,0,0,1-16.456,14.088c17.6-40.807,27.579-97.265,27.579-97.265s-25.44,49.142-49.147,62.765c0,0,18.935-3.325,26.861-9.56,0,0-17.174,47.665-54.163,82.3,0,0,26.861-7.066,44.916-19.536,0,0-31.706,84.795-96.878,142.157,0,0,43.114-23.76,73.375-51.084,0,0-57.882,81.306-113.064,131.212h62.851c42.314-43.6,83.283-129.411,93.352-180.3A167.021,167.021,0,0,1,1327.363,920.064Z" transform="translate(0 0)" fill="#775af6"/></g><g id="Waves"><path d="M39.687,375.84c81.639,13.279,72.649,68.553,154.288,81.831s90.631-41.994,172.271-28.715,72.649,68.552,154.288,81.831,90.629-41.995,172.267-28.716S765.45,550.623,847.089,563.9s90.626-41.995,172.262-28.717,72.649,68.553,154.288,81.832,90.629-41.995,172.268-28.716c10.03,4.554,32.621-23.6,50.457-62.874s24.165-74.813,14.134-79.368c-63.724-52.73-28.023-95.874-91.747-148.6s-99.425-9.586-163.149-62.317-28.021-95.872-91.743-148.6S964.434,76.952,900.71,24.221A140.276,140.276,0,0,1,877.266,0H0V374.772C11.27,373.28,24.158,373.314,39.687,375.84Z" transform="translate(0 0)" fill="url(#linear-gradient)"/></g><g id="Stars"><path d="M1593.327,140.064c-6.1-1.421-11.548-3.167-15.031-6.65-3.831-3.831-5.639-10.2-6.851-16.88-1.213,6.677-3.021,13.049-6.852,16.88-3.483,3.483-8.927,5.229-15.031,6.65h0c6.1,1.421,11.548,3.166,15.031,6.65,3.831,3.83,5.639,10.2,6.852,16.879,1.212-6.676,3.02-13.049,6.851-16.879,3.483-3.484,8.927-5.229,15.031-6.65Z" transform="translate(0 0)" fill="#fff"/><path d="M1265.411,377.245c-6.1-1.421-11.548-3.166-15.031-6.649-3.831-3.831-5.639-10.2-6.852-16.88-1.212,6.676-3.02,13.049-6.851,16.88-3.483,3.483-8.927,5.228-15.031,6.649h0c6.1,1.422,11.548,3.167,15.031,6.65,3.831,3.831,5.639,10.2,6.851,16.88,1.213-6.677,3.021-13.049,6.852-16.88,3.483-3.483,8.927-5.228,15.031-6.65Z" transform="translate(0 0)" fill="#fff"/><path d="M2058.606,476.3c-4.193-.976-7.933-2.175-10.326-4.568-2.631-2.632-3.873-7.01-4.706-11.6-.833,4.586-2.076,8.964-4.707,11.6-2.393,2.393-6.133,3.592-10.326,4.568h0c4.193.976,7.933,2.175,10.326,4.568,2.631,2.632,3.874,7.009,4.707,11.6.833-4.587,2.075-8.964,4.706-11.6,2.393-2.393,6.133-3.592,10.326-4.568Z" transform="translate(0 0)" fill="#afa4ff"/><path d="M2071.7,156.293c-2.961-.689-5.6-1.536-7.29-3.225-1.858-1.858-2.735-4.948-3.323-8.186-.588,3.238-1.465,6.328-3.322,8.186-1.69,1.689-4.33,2.536-7.29,3.225h0c2.96.689,5.6,1.536,7.29,3.225,1.857,1.858,2.734,4.948,3.322,8.186.588-3.238,1.465-6.328,3.323-8.186,1.689-1.689,4.329-2.536,7.29-3.225Z" transform="translate(0 0)" fill="#afa4ff"/><path d="M2034.846,80c-4.9-1.142-9.28-2.545-12.08-5.344-3.078-3.079-4.531-8.2-5.506-13.566-.974,5.366-2.427,10.487-5.506,13.566-2.8,2.8-7.174,4.2-12.079,5.344h0c4.9,1.142,9.28,2.545,12.079,5.344,3.079,3.079,4.532,8.2,5.506,13.565.975-5.365,2.428-10.486,5.506-13.565,2.8-2.8,7.175-4.2,12.08-5.344Z" transform="translate(0 0)" fill="#fff"/><path d="M1206.712,548.911c-3.487-.812-6.6-1.809-8.586-3.8-2.188-2.188-3.221-5.828-3.914-9.642-.692,3.814-1.725,7.454-3.913,9.642-1.99,1.99-5.1,2.987-8.587,3.8h0c3.487.812,6.6,1.809,8.587,3.8,2.188,2.189,3.221,5.829,3.913,9.643.693-3.814,1.726-7.454,3.914-9.643,1.99-1.989,5.1-2.986,8.586-3.8Z" transform="translate(0 0)" fill="#fd99f6"/><path d="M1109.481,465.666c-5.969-1.39-11.292-3.1-14.7-6.5-3.746-3.746-5.514-9.977-6.7-16.506-1.186,6.529-2.954,12.76-6.7,16.506-3.406,3.406-8.729,5.113-14.7,6.5h0c5.969,1.389,11.292,3.1,14.7,6.5,3.746,3.746,5.514,9.977,6.7,16.506,1.186-6.529,2.954-12.76,6.7-16.506,3.406-3.406,8.729-5.113,14.7-6.5Z" transform="translate(0 0)" fill="#fd99f6"/><path d="M1131.4,324.975c-4.185-.974-7.916-2.171-10.3-4.558-2.626-2.626-3.865-6.995-4.7-11.571-.831,4.576-2.071,8.945-4.7,11.571-2.387,2.387-6.119,3.584-10.3,4.558h0c4.184.974,7.916,2.17,10.3,4.558,2.626,2.626,3.866,6.994,4.7,11.571.831-4.577,2.07-8.945,4.7-11.571,2.388-2.388,6.119-3.584,10.3-4.558Z" transform="translate(0 0)" fill="#fd99f6"/><path d="M892.266,463.654c-4.184-.974-7.916-2.17-10.3-4.558-2.625-2.626-3.865-6.994-4.7-11.571-.831,4.577-2.071,8.945-4.7,11.571-2.387,2.388-6.119,3.584-10.3,4.558h0c4.184.974,7.916,2.171,10.3,4.559,2.626,2.625,3.866,6.994,4.7,11.57.831-4.576,2.071-8.945,4.7-11.57,2.388-2.388,6.12-3.585,10.3-4.559Z" transform="translate(0 0)" fill="#fd99f6"/><path d="M1003.106,161.587c-5.558-1.294-10.514-2.883-13.686-6.054-3.488-3.488-5.134-9.29-6.238-15.369-1.1,6.079-2.75,11.881-6.238,15.369-3.171,3.171-8.128,4.76-13.685,6.054h0c5.557,1.294,10.514,2.883,13.685,6.055,3.488,3.488,5.134,9.289,6.238,15.368,1.1-6.079,2.75-11.88,6.238-15.368,3.172-3.172,8.128-4.761,13.686-6.055Z" transform="translate(0 0)" fill="#fa00e9"/><path d="M1161.495,58.774c-4.193-.977-7.933-2.176-10.326-4.568-2.631-2.632-3.873-7.01-4.706-11.6-.833,4.586-2.075,8.964-4.707,11.6-2.393,2.392-6.132,3.591-10.326,4.568h0c4.194.976,7.933,2.175,10.326,4.568,2.632,2.632,3.874,7.009,4.707,11.6.833-4.587,2.075-8.964,4.706-11.6,2.393-2.393,6.133-3.592,10.326-4.568Z" transform="translate(0 0)" fill="#afa4ff"/><path d="M1230.657,122.782c-5.5-1.281-10.41-2.854-13.55-5.994-3.454-3.454-5.084-9.2-6.177-15.217-1.093,6.019-2.723,11.763-6.176,15.217-3.14,3.14-8.048,4.713-13.55,5.994h0c5.5,1.282,10.41,2.855,13.55,5.995,3.453,3.453,5.083,9.2,6.176,15.217,1.093-6.019,2.723-11.764,6.177-15.217,3.14-3.14,8.047-4.713,13.55-5.995Z" transform="translate(0 0)" fill="#fff"/><path d="M1676.4,82.662c-2.8-.653-5.3-1.454-6.9-3.053-1.759-1.759-2.589-4.685-3.146-7.75-.556,3.065-1.387,5.991-3.145,7.75-1.6,1.6-4.1,2.4-6.9,3.053h0c2.8.652,5.3,1.454,6.9,3.053,1.758,1.759,2.589,4.684,3.145,7.75.557-3.066,1.387-5.991,3.146-7.75,1.6-1.6,4.1-2.4,6.9-3.053Z" transform="translate(0 0)" fill="#afa4ff"/><path d="M1858.154,149.357c-2.8-.653-5.3-1.454-6.9-3.053-1.759-1.759-2.589-4.685-3.146-7.75-.557,3.065-1.387,5.991-3.145,7.75-1.6,1.6-4.1,2.4-6.9,3.053h0c2.8.652,5.3,1.454,6.9,3.053,1.758,1.759,2.588,4.684,3.145,7.75.557-3.066,1.387-5.991,3.146-7.75,1.6-1.6,4.1-2.4,6.9-3.053Z" transform="translate(0 0)" fill="#afa4ff"/></g><g id="Dots"><circle cx="1800.092" cy="334.64" r="2.72" fill="#afa4ff"/><circle cx="1332.882" cy="240.065" r="2.72" fill="#afa4ff"/><circle cx="1536.052" cy="328.418" r="3.444" fill="#afa4ff"/><circle cx="1411.182" cy="322.401" r="1.36" fill="#775af6"/><circle cx="1386.834" cy="111.954" r="1.208" fill="#775af6"/><circle cx="1423.61" cy="45.33" r="2.72" fill="#afa4ff"/><circle cx="1309.869" cy="49.839" r="1.789" fill="#775af6"/><circle cx="1309.869" cy="110.746" r="4.436" fill="#775af6"/><circle cx="1614.623" cy="188.437" r="1.789" fill="#775af6"/><circle cx="1170.632" cy="194.278" r="1.36" fill="#775af6"/><circle cx="2104.773" cy="106.193" r="2.322" fill="#775af6"/><circle cx="2104.773" cy="205.872" r="2.72" fill="#afa4ff"/><circle cx="1922.477" cy="429.076" r="2.72" fill="#afa4ff"/><circle cx="2095.066" cy="405.455" r="2.72" fill="#775af6"/><circle cx="2061.087" cy="595.812" r="1.501" fill="#775af6"/><circle cx="2108.993" cy="540" r="1.501" fill="#afa4ff"/><circle cx="1904.748" cy="415.789" r="1.501" fill="#775af6"/><circle cx="2005.28" cy="398.964" r="1.501" fill="#775af6"/><circle cx="1159.61" cy="673.211" r="1.501" fill="#775af6"/><circle cx="1581.29" cy="23.22" r="1.501" fill="#775af6"/><circle cx="1963.32" cy="40.001" r="1.501" fill="#775af6"/><circle cx="964.759" cy="21.719" r="1.501" fill="#775af6"/><circle cx="1868.103" cy="308.702" r="1.501" fill="#775af6"/><circle cx="1486.686" cy="113.162" r="1.501" fill="#775af6"/><circle cx="1288.262" cy="673.211" r="5.181" fill="#afa4ff"/><circle cx="1181.968" cy="717.787" r="1.862" fill="#775af6"/><circle cx="1905.458" cy="93.465" r="2.72" fill="#775af6"/><circle cx="1812.762" cy="49.839" r="3.676" fill="#afa4ff"/><circle cx="1975.875" cy="143.994" r="3.886" fill="#afa4ff"/><circle cx="1183.83" cy="445.709" r="3.886" fill="#fa00e9"/><circle cx="1006.992" cy="369.88" r="3.886" fill="#fa00e9"/><circle cx="1330.162" cy="441.823" r="3.886" fill="#fa00e9"/><circle cx="869.985" cy="108.514" r="3.886" fill="#fa00e9"/><circle cx="838.165" cy="340.592" r="3.886" fill="#fd99f6"/><circle cx="1293.443" cy="524.96" r="3.886" fill="#fd99f6"/><circle cx="947.134" cy="271.34" r="3.886" fill="#fd99f6"/><circle cx="985.486" cy="465.666" r="3.886" fill="#fa00e9"/><circle cx="1762.525" cy="107.713" r="1.521" fill="#775af6"/><circle cx="2129.508" cy="33.168" r="1.521" fill="#775af6"/><circle cx="2018.781" cy="201.632" r="1.521" fill="#775af6"/><circle cx="1935.597" cy="168.654" r="1.521" fill="#775af6"/><circle cx="1666.35" cy="308.702" r="1.521" fill="#775af6"/><circle cx="1579.769" cy="351.885" r="1.521" fill="#775af6"/><circle cx="1498.321" cy="101.571" r="1.164" fill="#775af6"/><circle cx="1475.576" cy="357.646" r="2.72" fill="#775af6"/></g><g id="Clouds"><path d="M1317.931,164.718c15.986,2.734,21.242,12.68,33.985,10.044,12.048-2.493,25.672-28.062,46.866-24.083,18.846,3.538,37.981,33.587,73.142,39.547H1231.907C1275.638,190.226,1289.809,159.907,1317.931,164.718Z" transform="translate(0 0)" fill="#5944b9"/><path d="M2188.843,360.366c-27.683,0-61.078-23.289-73.821-23.289s-16.7,8.788-27.683,8.788-22.461-25.046-43.5-25.046-30.135,19.917-42.183,22.41c-12.743,2.636-22.683-5.637-38.669-8.372-28.122-4.811-42.293,25.509-86.023,25.509Z" transform="translate(0 0)" fill="#5944b9"/><path d="M1553.365,245.4c28.383,0,37.191,9.787,61.659,9.787s50.028-27.893,96.894-27.893,67.122,22.181,93.957,24.957c28.384,2.936,50.522-6.278,86.128-9.323,62.636-5.358,94.2,28.406,191.594,28.408h.012c-97.4,0-128.967-67.532-191.606-56.816-35.606,6.091-57.744,24.518-86.127,18.646-26.836-5.552-47.092-49.915-93.958-49.915s-72.426,55.787-96.894,55.787-33.276-19.574-61.659-19.574S1450.6,271.34,1388.939,271.34h.009C1450.606,271.338,1524.983,245.4,1553.365,245.4Z" transform="translate(0 0)" fill="#927bf8"/><path d="M1388.939,271.34c61.66,0,136.043-25.936,164.426-25.936s37.191,9.787,61.659,9.787,50.028-27.893,96.894-27.893,67.122,22.181,93.958,24.957c28.383,2.936,50.521-6.278,86.127-9.323,62.639-5.358,94.2,28.408,191.605,28.408Z" transform="translate(0 0)" fill="#5944b9"/></g><g id="Observatory"><rect x="1404.859" y="840.669" width="581.69" height="17.525" transform="translate(3391.408 1698.863) rotate(-180)" fill="#161037"/><rect x="1404.859" y="847.241" width="581.69" height="4.381" transform="translate(3391.408 1698.863) rotate(-180)" fill="#392684"/><path d="M2000.433,695.348c0-168.027-135.678-304.365-303.454-305.433-169.08-1.076-307.425,138.349-307.425,307.432V830.67a10,10,0,0,0,10,10h590.881a10,10,0,0,0,10-10Z" transform="translate(0 0)" fill="#775af6"/><path d="M1389.554,830.67V697.347c0-168.331,137.121-307.245,305.174-307.417-27.7.9-50.1,142.6-50.1,317.293V840.669H1399.553A10,10,0,0,1,1389.554,830.67Z" transform="translate(0 0)" fill="#afa4ff"/><path d="M1399.559,858.194h590.869a10,10,0,0,1,10,10V1080H1389.554V868.2A10.005,10.005,0,0,1,1399.559,858.194Z" transform="translate(0 0)" fill="#775af6"/><path d="M2000.433,695.348V830.67a10,10,0,0,1-10,10H1806.062V707.223c0-174.813-49.482-316.6-110.614-317.3.511,0,1.019-.013,1.531-.01C1864.755,390.983,2000.433,527.321,2000.433,695.348Z" transform="translate(0 0)" fill="#392684"/><path d="M2000.433,868.2V1080H1806.062V858.194h184.366A10,10,0,0,1,2000.433,868.2Z" transform="translate(0 0)" fill="#392684"/><path d="M2000.433,695.348V830.67a10,10,0,0,1-10,10h-73.3V707.223c0-174.871-99.03-316.692-221.35-317.3.4,0,.8-.01,1.2-.008C1864.755,390.983,2000.433,527.321,2000.433,695.348Z" transform="translate(0 0)" fill="#161037"/><path d="M2000.433,868.2V1080h-83.3V858.194h73.3A10,10,0,0,1,2000.433,868.2Z" transform="translate(0 0)" fill="#161037"/><path d="M1990.669,1014.284c-20.574,14.813-53.921,21.479-53.921,21.479,28.2-24.824,49.371-55.414,63.685-80.312V1080H1935.6C1971.438,1052.263,1990.669,1014.284,1990.669,1014.284Z" transform="translate(0 0)" fill="#161037"/><path d="M1983.042,926.517a168.73,168.73,0,0,0,17.391-19.119v13.275A172.661,172.661,0,0,1,1983.042,926.517Z" transform="translate(0 0)" fill="#161037"/><path d="M1389.554,868.2a10.005,10.005,0,0,1,10-10h245.065V1080h-255.07Z" transform="translate(0 0)" fill="#afa4ff"/><path d="M1690.713,389.987c1.2-.109,2.4-.048,3.6-.051-55.5,1.146-100.386,142.75-100.386,317.287v42.639a28.726,28.726,0,0,1-28.726,28.725h-78.313a14.035,14.035,0,0,0-14.035,14.035v48.047h-73.3a10,10,0,0,1-10-10V697.347C1389.554,530.361,1524.5,392.349,1690.713,389.987Z" transform="translate(0 0)" fill="#fff"/><rect x="1644.624" y="858.194" width="161.438" height="10.005" fill="#afa4ff"/><rect x="1806.062" y="858.194" width="111.069" height="10.005" fill="#775af6"/><path d="M1917.131,858.194h73.3a10,10,0,0,1,10,10h-83.3Z" transform="translate(0 0)" fill="#392684"/><path d="M1399.559,858.194h245.065v10H1486.891a14.034,14.034,0,0,0-14.035,14.035V923.8a44.118,44.118,0,0,1,44.118,44.118l.115,82.454-6.6-3.643h-75.274V1080h-45.665V868.2A10.005,10.005,0,0,1,1399.559,858.194Z" transform="translate(0 0)" fill="#fff"/><path d="M1644.636,423.042c-98.425,29.579-171.78,143.976-171.78,280.591v64.949h-35.533a20,20,0,0,1-20-20V695.348c0-168.689,124.614-307.63,277.673-305.439C1676.867,389.649,1659.752,401.859,1644.636,423.042Z" transform="translate(0 0)" fill="#392684"/><path d="M1593.386,447.452l-12.96-31.287c-.6.3-1.19.611-1.786.914l13.052,31.511C1592.255,448.206,1592.821,447.83,1593.386,447.452Z" transform="translate(0 0)" fill="#161037"/><path d="M1553.766,481.307l-22.422-33.557c-.781.631-1.572,1.248-2.347,1.888l22.68,33.943C1552.372,482.82,1553.064,482.057,1553.766,481.307Z" transform="translate(0 0)" fill="#161037"/><path d="M1642.008,423.87l-5.524-27.774q-.976.222-1.949.451l5.555,27.928C1640.727,424.265,1641.369,424.073,1642.008,423.87Z" transform="translate(0 0)" fill="#161037"/><rect x="1417.321" y="741.144" width="55.535" height="3" fill="#161037"/><path d="M1474.167,672.169l-55.62-5.464q-.126,1.494-.241,2.991l55.635,5.465C1474.016,674.164,1474.084,673.163,1474.167,672.169Z" transform="translate(0 0)" fill="#161037"/><path d="M1572.172,463.606l-17.511-32.74q-.842.544-1.682,1.1l17.65,33C1571.144,464.511,1571.655,464.052,1572.172,463.606Z" transform="translate(0 0)" fill="#161037"/><path d="M1616.563,434.089l-8.979-29.52c-.628.227-1.26.444-1.886.675l9.049,29.748Q1615.653,434.536,1616.563,434.089Z" transform="translate(0 0)" fill="#161037"/><path d="M1472.988,694.133l-55.636-1.394c-.007.871-.031,1.737-.031,2.609v.391l55.591,1.393C1472.929,696.13,1472.963,695.133,1472.988,694.133Z" transform="translate(0 0)" fill="#161037"/><rect x="1417.321" y="717.507" width="55.535" height="3" fill="#161037"/><path d="M1563.924,768.582h-91.068V703.633c0-136.615,73.355-251.012,171.78-280.591-36.032,50.492-60.711,153.471-60.711,272.306v53.233A20,20,0,0,1,1563.924,768.582Z" transform="translate(0 0)" fill="#161037"/><path d="M1472.856,930.281h0c20.786,0,37.637,16.851,37.637,42.076v57.737h-75.274V967.918A37.637,37.637,0,0,1,1472.856,930.281Z" transform="translate(0 0)" fill="#161037"/><rect x="1435.219" y="1030.094" width="75.274" height="16.635" fill="#5944b9"/><rect x="1453.116" y="1013.458" width="57.377" height="12.477" fill="#5944b9"/><rect x="1471.013" y="996.823" width="39.48" height="12.477" fill="#5944b9"/><rect x="1488.91" y="980.187" width="21.583" height="12.477" fill="#5944b9"/><path d="M1510.493,980.187" transform="translate(0 0)" fill="#fd99f6"/><path d="M1383.182,1046.729H1399.5V1080h-32.952v-16.635A16.636,16.636,0,0,1,1383.182,1046.729Z" transform="translate(0 0)" fill="#fff"/><path d="M1398.237,1046.729h1.262v16.636h-17.9A16.636,16.636,0,0,1,1398.237,1046.729Z" transform="translate(0 0)" fill="#775af6"/><polygon points="1450.273 1046.806 1450.273 1063.365 1399.499 1063.365 1399.499 1046.729 1450.273 1046.806" fill="#775af6"/><polygon points="1399.499 1046.729 1435.219 1063.365 1399.499 1063.365 1399.499 1046.729" fill="#392684"/><rect x="1381.601" y="1063.365" width="53.617" height="16.635" fill="#fff"/><path d="M1451.854,1046.729h15.055V1080h-31.69v-16.635A16.636,16.636,0,0,1,1451.854,1046.729Z" transform="translate(0 0)" fill="#fff"/><path d="M1466.909,1046.729h43.584V1080h-60.22v-16.635A16.636,16.636,0,0,1,1466.909,1046.729Z" transform="translate(0 0)" fill="#775af6"/><polygon points="1510.493 1046.729 1450.273 1080 1510.493 1080 1510.493 1046.729" fill="#392684"/></g><g id="Telescope"><path d="M1586.449,630.3c-19.9,37.853-43.862,62.483-56.6,56.7l54.078,24.556V695.348C1583.925,673.025,1584.8,651.261,1586.449,630.3Z" transform="translate(0 0)" fill="#5944b9"/><path d="M1583.939,690.8l-30.419-13.814-.025-.039c-1.554,1.475-3.084,2.817-4.581,4.01l.445.73.839.382,33.727,15.315v-2.033Q1583.925,693.068,1583.939,690.8Z" transform="translate(0 0)" fill="#392684"/><path d="M1603.283,518.431a20,20,0,0,0-12.232-1.392l-25.007,5.057,0,.006c-.7,18.125-7.634,44.113-19.981,71.3s-27.348,49.514-40.536,61.967l0,.007,12.649,22.156a20,20,0,0,0,9.1,8.294l2.579,1.171c12.74,5.784,36.7-18.846,56.6-56.7,3.216-40.763,9.393-78.486,17.878-111.395Z" transform="translate(0 0)" fill="#392684"/><path d="M1505.524,655.371c13.188-12.453,28.19-34.778,40.536-61.967s19.284-53.177,19.981-71.3l0-.006,14.533-2.939c2.125,17.685-4.908,48.481-19.67,80.989s-33.321,58.07-48.035,68.108l-7.351-12.876Z" transform="translate(0 0)" fill="#161037"/><path d="M1525.282,631.152l.373.169,27.84,45.623c-1.554,1.475-3.084,2.817-4.581,4.01l-27.223-44.609Q1523.488,633.834,1525.282,631.152Z" transform="translate(0 0)" fill="#161037"/><path d="M1546.06,593.4q-.936,2.061-1.894,4.082l43.431,19.722q.456-4.753.966-9.446l-40.68-18.473C1547.286,590.658,1546.685,592.028,1546.06,593.4Z" transform="translate(0 0)" fill="#161037"/><path d="M1562.346,546.8q-.708,3-1.545,6.115l.38.173,36.75-6.322q.647-3.183,1.321-6.315Z" transform="translate(0 0)" fill="#161037"/><path d="M1407.3,530.4c20.991-46.225,26.354-88.99,11.98-95.517l138.756,63.009c14.375,6.527,9.011,49.292-11.98,95.517s-49.66,78.407-64.034,71.879L1343.27,602.274C1357.644,608.8,1386.313,576.62,1407.3,530.4Z" transform="translate(0 0)" fill="#775af6"/><path d="M1491.1,568.448c-20.99,46.226-49.66,78.407-64.034,71.88h0l-83.8-38.054c14.374,6.528,43.043-25.654,64.034-71.879s26.354-88.99,11.98-95.517l83.8,38.053C1517.459,479.459,1512.1,522.223,1491.1,568.448Z" transform="translate(0 0)" fill="#afa4ff"/><path d="M1419.284,434.878l83.8,38.053c4.174,1.9,6.681,6.854,7.626,14.06l-83.8-38.054C1425.966,441.731,1423.459,436.774,1419.284,434.878Z" transform="translate(0 0)" fill="#dfdbff"/><path d="M1386.528,568.143l83.8,38.054c-16.408,24.532-33.278,38.663-43.258,34.131l-83.8-38.054C1353.25,606.806,1370.12,592.675,1386.528,568.143Z" transform="translate(0 0)" fill="#927bf8"/><path d="M1503.085,472.931l54.955,24.956c4.175,1.9,6.682,6.853,7.627,14.059l-54.956-24.955C1509.766,479.785,1507.259,474.827,1503.085,472.931Z" transform="translate(0 0)" fill="#afa4ff"/><path d="M1482.026,665.283l-54.956-24.955c9.278,4.213,24.513-7.7,39.793-29.114l54.956,24.956C1506.538,657.579,1491.3,669.5,1482.026,665.283Z" transform="translate(0 0)" fill="#5944b9"/><path d="M1451.725,629.3l54.956,24.956q-1.188,1.162-2.356,2.224l-54.956-24.955Q1450.536,630.468,1451.725,629.3Z" transform="translate(0 0)" fill="#392684"/><path d="M1466.863,611.214q1.734-2.429,3.465-5.017l54.956,24.956q-1.794,2.681-3.591,5.194l-.2-.325Z" transform="translate(0 0)" fill="#392684"/><path d="M1491.1,568.448q.936-2.061,1.83-4.111l54.956,24.955q-.894,2.05-1.83,4.112t-1.892,4.083l-54.956-24.955Q1490.168,570.508,1491.1,568.448Z" transform="translate(0 0)" fill="#5944b9"/><path d="M1511.132,495.514l54.956,24.955q-.029,1.575-.124,3.238l-54.956-24.956C1511.071,497.645,1511.113,496.564,1511.132,495.514Z" transform="translate(0 0)" fill="#5944b9"/><path d="M1507.351,522.052l54.631,24.809.376-.065q-.708,3-1.548,6.122l-54.956-24.955Q1506.663,524.957,1507.351,522.052Z" transform="translate(0 0)" fill="#5944b9"/><path d="M1419.358,434.912c14.375,6.527,9.011,49.291-11.98,95.517s-49.659,78.406-64.034,71.879l6.064,2.754c14.375,6.527,43.044-25.654,64.035-71.879s26.354-88.99,11.98-95.518" transform="translate(0 0)" fill="#dfdbff"/><path d="M1392.663,570.929l-6.065-2.754c-16.406,24.529-33.274,38.665-43.254,34.133l6.065,2.754C1359.388,609.593,1376.256,595.458,1392.663,570.929Z" transform="translate(0 0)" fill="#afa4ff"/><ellipse cx="1381.277" cy="518.576" rx="91.924" ry="28.585" transform="translate(337.993 1561.843) rotate(-65.577)" fill="#fff"/><path d="M1355.25,506.757c14.539-32.019,32.762-57.3,47.367-67.64,2.447,2.3,5.062,4.61,7.881,6.942,10.031,4.555,3.7,40.089-14.134,79.368s-40.427,67.428-50.457,62.874c-3.612-.588-7.074-1.035-10.414-1.366C1333.671,569.13,1340.71,538.776,1355.25,506.757Z" transform="translate(0 0)" fill="#fd99f6"/><path d="M1359.149,508.528c17.836-39.279,41.319-67.024,51.349-62.469,3.876,1.76,5.3,8.158,4.571,17.595-11.385,13-23.51,32.278-33.792,54.922s-16.815,44.457-19.114,61.587c-6.627,6.759-12.381,9.9-16.256,8.138C1335.876,583.746,1341.312,547.807,1359.149,508.528Z" transform="translate(0 0)" fill="#fa00e9"/><path d="M1381.277,518.576c10.282-22.644,22.407-41.917,33.792-54.922-1.157,14.99-7.759,37.67-18.7,61.773s-23.677,44-34.2,54.736C1364.462,563.033,1370.994,541.22,1381.277,518.576Z" transform="translate(0 0)" fill="#fd99f6"/><path d="M1433.782,536.851l-2.752-1.2c1.716-3.954,3.349-7.956,4.853-11.895l2.8,1.07C1437.166,528.812,1435.516,532.855,1433.782,536.851Z" transform="translate(0 0)" fill="#392684"/><path d="M1423.773,557.673l-2.65-1.406c1.971-3.715,3.907-7.575,5.756-11.471l2.711,1.287C1427.722,550.019,1425.765,553.918,1423.773,557.673Z" transform="translate(0 0)" fill="#392684"/><path d="M1452.064,550.72c10.538-23.208,17.138-45.543,19.278-62.859a6.779,6.779,0,0,1,13.48,1.4c-1.461,17.848-8.266,42.092-19.745,67.37a267.567,267.567,0,0,1-20.776,37.748l-13.019-5.911A267.5,267.5,0,0,0,1452.064,550.72Z" transform="translate(0 0)" fill="#392684"/><path d="M1419.7,617.256a6.765,6.765,0,0,1-2.279-10.653,165.146,165.146,0,0,0,13.86-18.136l13.019,5.911a153.929,153.929,0,0,1-16.955,21.454A6.761,6.761,0,0,1,1419.7,617.256Z" transform="translate(0 0)" fill="#161037"/><path d="M1456.616,552.787c10.4-22.9,17.392-45.742,19.688-64.312a1.728,1.728,0,0,1,.14-.506,1.792,1.792,0,0,1,2.351-.85,1.762,1.762,0,0,1,1.043,1.733c-1.47,17.967-8.51,41.918-19.314,65.71a262.329,262.329,0,0,1-20.846,37.717l-3.778-1.716A273.524,273.524,0,0,0,1456.616,552.787Z" transform="translate(0 0)" fill="#fa00e9"/><path d="M1421.768,612.7a1.739,1.739,0,0,1-.619-2.768,171.441,171.441,0,0,0,14.751-19.372l3.778,1.716a147.206,147.206,0,0,1-15.919,20.069A1.762,1.762,0,0,1,1421.768,612.7Z" transform="translate(0 0)" fill="#fd99f6"/><circle cx="1430.359" cy="540.864" r="5.045" fill="#fa00e9"/><path d="M1430.362,535.818a5.046,5.046,0,1,1-4.6,2.96,5.033,5.033,0,0,1,4.6-2.96m0-3a8.048,8.048,0,1,0,3.323.721,7.978,7.978,0,0,0-3.323-.721Z" transform="translate(0 0)" fill="#392684"/><circle cx="1420.036" cy="561.416" r="5.045" fill="#fa00e9"/><path d="M1420.039,556.369a5.047,5.047,0,1,1-4.6,2.961,5.036,5.036,0,0,1,4.6-2.961m0-3a8.046,8.046,0,0,0-3.329,15.372,7.979,7.979,0,0,0,3.323.722,8.046,8.046,0,0,0,3.33-15.372,7.981,7.981,0,0,0-3.324-.722Z" transform="translate(0 0)" fill="#392684"/><circle cx="1439.04" cy="519.567" r="5.045" fill="#fa00e9"/><path d="M1439.043,514.52a5.046,5.046,0,1,1-4.6,2.961,5.028,5.028,0,0,1,4.6-2.961m0-3a8.046,8.046,0,0,0-3.329,15.372,7.973,7.973,0,0,0,3.323.722,8.047,8.047,0,0,0,.006-16.094Z" transform="translate(0 0)" fill="#392684"/></g><g id="Outer_Waves" data-name="Outer Waves"><path d="M900.71,24.221c23.321,19.3,42.894,25.756,61.456,28.77,13.593,2.208,26.644,2.57,40.237,4.776,18.564,3.015,38.132,9.47,61.456,28.771,63.722,52.728,28.021,95.872,91.743,148.6,23.321,19.3,42.894,25.756,61.456,28.771,13.593,2.207,26.644,2.568,40.237,4.776,18.564,3.014,38.132,9.469,61.456,28.77,60.9,50.4,31,92.039,83.866,141.662.873-.618,1.733-1.187,2.578-1.7-25.028-23.233-31.2-44.305-37.691-66.5-7.015-24-14.269-48.821-46.84-75.772-25.449-21.059-46.072-26.69-62.888-29.421-6.892-1.119-13.714-1.776-20.311-2.413-6.5-.626-13.225-1.275-19.926-2.363-16.021-2.6-35.682-7.977-60.025-28.12-31.152-25.778-37.832-48.633-44.9-72.831-7.015-24-14.268-48.819-46.838-75.77-25.45-21.059-46.072-26.689-62.888-29.42-6.892-1.119-13.713-1.776-20.31-2.413-6.5-.626-13.226-1.275-19.927-2.363-16.021-2.6-35.681-7.977-60.025-28.12A140.182,140.182,0,0,1,881.007,0h-3.741A140.276,140.276,0,0,0,900.71,24.221Z" transform="translate(0 0)" fill="url(#linear-gradient-2)"/><path d="M39.205,378.8c39.912,6.492,57.231,22.834,75.567,40.137,18.187,17.161,36.994,34.907,78.77,41.7,41.691,6.77,65.144-4.1,87.824-14.6,22.868-10.6,44.468-20.6,84.4-14.119,39.911,6.492,57.23,22.834,75.566,40.137,18.187,17.161,36.994,34.907,78.77,41.7,41.691,6.77,65.142-4.1,87.822-14.6,22.868-10.6,44.467-20.6,84.4-14.12,39.912,6.492,57.231,22.834,75.567,40.137,18.187,17.161,36.994,34.907,78.77,41.7,41.689,6.77,65.14-4.1,87.819-14.605,22.867-10.595,44.466-20.6,84.395-14.12,39.911,6.492,57.23,22.835,75.566,40.137,18.187,17.162,36.994,34.908,78.771,41.7,41.689,6.769,65.141-4.1,87.821-14.605,20.98-9.721,40.9-18.936,74.884-15.386-.172-.972-.31-2-.419-3.059-72.141-7.15-83.832,42.75-161.806,30.088l-.048-.007c-81.639-13.279-72.649-68.553-154.288-81.832l-.048-.007c-81.575-13.247-90.6,41.977-172.166,28.732l-.048-.008C765.45,550.623,774.44,495.35,692.8,482.071l-.048-.008c-81.577-13.246-90.6,41.977-172.171,28.732l-.048-.008c-81.639-13.279-72.648-68.552-154.288-81.831l-.048-.008c-81.579-13.247-90.606,41.976-172.175,28.731l-.048-.008c-81.639-13.278-72.649-68.552-154.288-81.831l-.049-.008c-15.5-2.517-28.38-2.558-39.638-1.07v3C11.087,376.259,23.774,376.3,39.205,378.8Z" transform="translate(0 0)" fill="url(#linear-gradient-3)"/></g><g id="Orbit_Mural" data-name="Orbit Mural"><path d="M1804.544,654.783a46.055,46.055,0,0,1-43.853,12.664c-8.666,4.143-16.888,7.731-24.417,10.7A65.989,65.989,0,0,0,1803.647,680q1-.555,1.969-1.144Q1805.238,666.683,1804.544,654.783Z" transform="translate(0 0)" fill="#fff"/><path d="M1694.836,640.994a5.933,5.933,0,0,0-1.307-6.5,6.009,6.009,0,0,0-9.219.922,5.935,5.935,0,0,0,.761,7.516,6,6,0,0,0,9.765-1.943Z" transform="translate(0 0)" fill="#fff"/><path d="M1786.37,602.855a9.109,9.109,0,0,0-1.858,11.458,8.866,8.866,0,0,0,5.583,4.234,9.212,9.212,0,0,0,10.619-4.814,9.062,9.062,0,0,0,.357-.839q-.466-4.292-.979-8.527l-.132.07a9.216,9.216,0,0,0-13.59-1.582Z" transform="translate(0 0)" fill="#fff"/><path d="M1803.518,639.5q-.285-3.755-.6-7.477-7.4,4.445-15.266,8.965c-13.936,8-27.346,15.229-39.519,21.368a45.776,45.776,0,1,1,48.288-77.767c.395.253.769.533,1.155.8q-1.776-12.189-3.891-23.848a65.824,65.824,0,0,0-77.577,26.427A65.049,65.049,0,0,0,1728.082,672c-21.014,9.541-35.342,13.972-37.189,10.791-1.885-3.387,7.438-12.616,15.812-19.959-12.059,9.677-18.384,17.135-16.3,20.715,4.719,8.135,50.4-7.863,101.244-37.04Q1797.723,643.015,1803.518,639.5Z" transform="translate(0 0)" fill="#fff"/><path d="M1815.3,636.9a45.665,45.665,0,0,1-10.753,17.885q.693,11.894,1.072,24.075a65.239,65.239,0,0,0,31.574-57C1830.555,626.743,1823.2,631.8,1815.3,636.9Z" transform="translate(0 0)" fill="#775af6"/><path d="M1853.984,660.421a7.558,7.558,0,0,0-11.6,1.133,7.465,7.465,0,0,0,.934,9.461,7.552,7.552,0,0,0,12.291-2.426,7.463,7.463,0,0,0-1.63-8.168Z" transform="translate(0 0)" fill="#775af6"/><path d="M1837.343,567.426a4.505,4.505,0,0,0,7.332-1.452,4.452,4.452,0,0,0-.974-4.871,4.507,4.507,0,0,0-6.915.678,4.454,4.454,0,0,0,.557,5.645Z" transform="translate(0 0)" fill="#775af6"/><path d="M1800.73,605.737q4.746-2.548,9.312-4.923c-.256-.484-.5-.914-.723-1.276q-4.534,2.322-9.227,4.829.508,4.239.979,8.527a8.988,8.988,0,0,0-.341-7.157Z" transform="translate(0 0)" fill="#775af6"/><path d="M1874.512,577.848c-2.889-4.977-20.4.309-45.191,11.831.231.381.462.774.681,1.173,23.748-11.244,40.32-16.657,42.425-12.3,2.105,3.627-12.522,16.276-36.357,32.415a65.33,65.33,0,0,0-35.277-46.418,65.96,65.96,0,0,0-7.11-3.011q2.112,11.652,3.891,23.848a45.441,45.441,0,0,1,19.89,37.7q-6.981,4.391-14.548,8.937.317,3.721.6,7.477C1848.087,612.477,1878.878,585.335,1874.512,577.848Z" transform="translate(0 0)" fill="#775af6"/></g><g id="Foreground_Trees" data-name="Foreground Trees"><path d="M2042.512,767.974s-4.337,31.267-34.7,60.893c0,0,16.954-3.226,24.051-9.275,0,0-15.377,46.243-48.5,79.846,0,0,24.051-6.855,40.217-18.953,0,0-28.389,82.266-86.742,137.916,0,0,33.514-7.258,54.191-23.389,0,0-26,55.651-73.9,84.988h125.381Z" transform="translate(0 0)" fill="#775af6"/><path d="M2093.988,995.012c20.677,16.131,54.191,23.389,54.191,23.389-58.354-55.65-86.742-137.916-86.742-137.916,16.166,12.1,40.217,18.953,40.217,18.953-33.12-33.6-48.5-79.846-48.5-79.846,7.1,6.049,24.051,9.275,24.051,9.275-30.359-29.626-34.7-60.893-34.7-60.893s-.985,48.089-14.489,94.364a150.277,150.277,0,0,0,13.838-13.667c-3.316,26.849-9.568,61.278-21.333,92.3a153.715,153.715,0,0,0,20.64-19.76c-9.015,49.373-37.085,116.489-74.971,158.785h201.7C2119.991,1050.663,2093.988,995.012,2093.988,995.012Z" transform="translate(0 0)" fill="#161037"/><path d="M1230.657,817.576s-3.953,26.3-31.619,51.213c0,0,15.45-2.713,21.917-7.8,0,0-14.012,38.892-44.194,67.154,0,0,21.918-5.766,36.649-15.941,0,0-25.87,69.189-79.047,115.993,0,0,30.541-6.1,49.384-19.672,0,0-23.7,46.8-67.349,71.478h114.259Z" transform="translate(0 0)" fill="#afa4ff"/><path d="M1277.567,1008.522c18.843,13.567,49.383,19.672,49.383,19.672C1273.773,981.39,1247.9,912.2,1247.9,912.2c14.732,10.175,36.649,15.941,36.649,15.941-30.181-28.262-44.194-67.154-44.194-67.154,6.468,5.088,21.918,7.8,21.918,7.8-27.667-24.916-31.619-51.213-31.619-51.213s-.9,40.445-13.2,79.363a132.692,132.692,0,0,0,12.611-11.5c-3.022,22.582-8.72,51.538-19.441,77.631a136.321,136.321,0,0,0,18.809-16.619c-8.215,41.525-33.8,97.972-68.321,133.544h183.8C1301.263,1055.326,1277.567,1008.522,1277.567,1008.522Z" transform="translate(0 0)" fill="#161037"/></g></svg>