<svg width="120" height="60" viewBox="0 0 120 60" fill="none" xmlns="http://www.w3.org/2000/svg">
<path d="M22.5801 21.6068C15.649 21.6068 10 27.2158 10 34.187C10 37.5234 11.3254 40.7232 13.6846 43.0825C16.0439 45.4417 19.2437 46.7671 22.5801 46.7671C25.9166 46.7671 29.1164 45.4417 31.4756 43.0825C33.8349 40.7232 35.1603 37.5234 35.1603 34.187C35.1603 27.2158 29.5112 21.6068 22.5801 21.6068ZM22.5801 40.477C19.0945 40.477 16.2901 37.6726 16.2901 34.187C16.2901 30.7014 19.0945 27.8969 22.5801 27.8969C26.0657 27.8969 28.8702 30.7014 28.8702 34.187C28.8702 37.6726 26.0657 40.477 22.5801 40.477ZM44.6554 38.3937C44.6554 37.3921 45.8574 36.9113 46.5385 37.6325L54.9119 46.3665C54.992 46.4466 55.0721 46.5668 55.3526 46.6469C55.4728 46.687 55.6731 46.687 55.8734 46.687H61.5625C62.5641 46.687 62.8846 45.5251 62.4038 44.9242L52.9888 35.3088L52.508 34.7879C51.4263 33.5059 51.5465 33.0251 52.7885 31.703L60.2804 23.4097C60.7612 22.8088 60.4407 21.6469 59.399 21.6469H54.2708C54.0705 21.6469 53.9103 21.6469 53.7901 21.687C53.4696 21.7671 53.3894 21.8873 53.3093 21.9674C53.2692 22.0075 49.1426 26.4546 46.6186 29.179C45.9375 29.9402 44.6955 29.4193 44.6955 28.4177V14.1549C44.6955 13.4338 44.0945 13.1533 43.6138 13.1533H39.407C38.6859 13.1533 38.3253 13.6341 38.3253 14.0748V45.7254C38.3253 46.4466 38.9263 46.6469 39.407 46.6469H43.6138C44.2548 46.6469 44.6955 46.1661 44.6955 45.6854V45.3649L44.6554 38.3937ZM78.9503 45.5652L78.5096 41.3584C78.4295 40.7976 77.9086 40.3969 77.3478 40.477L76.3862 40.5572C73.0208 40.5572 70.2965 37.9129 70.1362 34.6277V29.1389C70.1362 28.4578 70.617 27.937 71.2981 27.937H76.907C77.3077 27.937 77.9086 27.6165 77.9086 26.8552V22.8889C77.9086 22.1277 77.4279 21.687 76.9872 21.687H71.3381C70.6971 21.687 70.1362 21.2062 70.1362 20.5652V14.195C70.1362 13.7943 69.8558 13.1934 69.0545 13.1934H64.8878C64.367 13.1934 63.8462 13.5139 63.8462 14.1549V34.6277C64.0064 41.3985 69.5753 46.8472 76.4263 46.8472C76.9872 46.8472 77.5481 46.8072 78.109 46.727C78.5897 46.6469 79.0304 46.1261 78.9503 45.5652ZM109.239 40.2767C105.673 40.2767 105.152 38.9947 105.152 34.227V22.7286C105.152 22.328 104.872 21.6469 104.071 21.6469H99.8638C99.3429 21.6469 98.782 22.0476 98.782 22.7286V23.2495C96.9391 22.2078 94.8558 21.6068 92.5721 21.6068C85.641 21.6068 79.992 27.2158 79.992 34.187C79.9883 35.8401 80.3112 37.4776 80.9421 39.0056C81.573 40.5335 82.4995 41.9218 83.6684 43.0907C84.8373 44.2596 86.2256 45.1861 87.7535 45.817C89.2815 46.4479 90.919 46.7708 92.5721 46.7671C95.6971 46.7671 98.5417 45.6453 100.745 43.7623C101.947 45.5652 103.83 46.7671 106.795 46.7671C107.316 46.7671 110 46.8472 110 45.6052V41.1181C109.96 40.7174 109.639 40.2767 109.239 40.2767ZM92.5721 40.477C89.0865 40.477 86.2821 37.6726 86.2821 34.187C86.2821 30.7014 89.0865 27.8969 92.5721 27.8969C96.0577 27.8969 98.8622 30.7014 98.8622 34.187C98.8221 37.6726 96.0176 40.477 92.5721 40.477Z" fill="black"/>
</svg>
