<?xml version="1.0" encoding="utf-8"?>
<!-- Generator: Adobe Illustrator 26.3.1, SVG Export Plug-In . SVG Version: 6.00 Build 0)  -->
<svg version="1.1" xmlns="http://www.w3.org/2000/svg" xmlns:xlink="http://www.w3.org/1999/xlink" x="0px" y="0px"
	 viewBox="0 0 5975.782715 2340.129395" style="enable-background:new 0 0 5975.782715 2340.129395;" xml:space="preserve">
<style type="text/css">
	.st0{fill:#1B1242;}
	
		.st1{clip-path:url(#SVGID_00000065783783772961181190000006778916349732247217_);fill:url(#SVGID_00000059994089979241125390000015970931797440122018_);}
	.st2{clip-path:url(#SVGID_00000065783783772961181190000006778916349732247217_);}
	.st3{fill:#FFFFFF;}
	.st4{fill:#0FC9F2;}
	.st5{fill:#F703E6;}
</style>
<g id="BG">
	<path class="st0" d="M655.686646,499.932373C751.156982,569.56427,803.25,527.984131,888.713501,579.916138
		c84.950012,51.405334,157.130371,225.488098,222.259644,258.729675c64.450806,32.675537,65.636353,11.843689,160.409668,56.907837
		c91.844849,42.123291,116.989136,118.663635,244.914185,173.55719c8.578857,3.34375,13.035889,5.112061,12.943115,5.338257
		c-4.430176-1.754517-8.740723-3.535034-12.943115-5.338257c-67.78418-26.421509-393.769653-151.552673-780.884949-397.422974
		c65.366516,85.260071,148.426147,197.070068,306.788757,297.117981
		c-24.709167-14.165466-158.454163-80.518066-349.636108-202.624329C501.444946,644.393494,252.888428,466.851624,0,237.658508
		C30.748901,374.98053,47.838867,582.827637,136.022705,629.211914c131.391113,66.862427,212.135986-9.793091,321.292175,65.522461
		s132.864014,304.550842,232.545288,369.444092s174.168152,0.640625,280.33313,58.468018
		c106.578674,55.606689,152.854919,253.670288,254.358459,315.641357
		c101.50354,61.971191,159.246216,36.168945,236.945557,42.525513c79.111816,6.294189,135.102783,56.628784,213.537476,122.392578
		c78.328979,65.211914,179.101807,145.853271,345.337769,200.014893
		c-29.647827-8.512085-199.026367-43.625854-441.074097-127.717773
		c-241.934082-83.450806-556.537659-215.879272-874.015625-404.215942
		c68.654663,96.438965,134.341553,194.95459,193.60498,225.76123c105.984924,53.830322,106.990112,22.931641,263.083496,94.897583
		c78.243042,35.128296,152.145508,144.393433,408.014648,261.925415c15.25,5.078857,23.207153,7.714355,23.104858,8.15332
		c-7.919922-2.657959-15.612427-5.378662-23.104858-8.15332c-75.100464-25.01123-327.326172-109.364624-667.795715-283.437012
		c-178.7948-92.202759-381.477295-210.277588-593.66156-357.695068c29.81604,51.411377,55.238403,103.316162,79.228149,153.802979
		c64.797302,136.138428,119.108398,261.85376,216.599182,321.920654
		c195.907043,118.155762,280.851135,71.105591,455.464417,153.45166
		c100.057129,46.32251,224.15332,274.606689,404.319458,336.657471c180.147949,62.020752,375.822144-64.794922,548.867676-33.152832
		c173.826416,29.71167,241.981689,163.94043,455.127441,191.902832
		c213.950195,23.721191,317.908203-110.773438,554.598145-107.723145
		c236.367676-1.363525,350.369385,115.245117,542.731689,100.324951
		c191.543701-17.698242,250.405273-117.333984,471.336182-144.771973s380.588623,65.826416,603.770752-12.249512
		c222.339844-80.454834,224.839844-215.666748,390.437988-293.192139
		c167.094727-81.950562,308.557617-31.161133,524.462402-177.388672
		c172.192383-120.081787,211.111816-338.905273,306.444824-462.834717
		c-505.313477,367.989014-953.240723,550.743896-1003.297852,573.503174
		c238.944824-124.543213,330.905273-222.622681,395.106934-289.250977
		c-489.851074,268.580078-905.055664,382.001831-953.499512,397.498413
		c204.229004-77.904175,304.835938-150.661743,371.810547-205.677612
		c66.841309-55.898071,100.050293-94.054443,166.397461-123.12915c93.927734-41.597656,149.120605-17.791626,270.937988-92.774902
		c92.323242-57.814453,122.25293-134.666992,174.253906-195.63623
		c-364.76416,211.596924-752.503906,360.427979-1056.967285,446.733398
		c-304.578125,88.144043-525.879639,113.762207-560.394043,121.397583
		c203.541504-47.687134,306.224121-104.966431,375.056152-149.635498
		c68.757324-45.530884,103.664062-78.451294,169.922852-97.313965c93.82666-27.111206,145.453613,4.825073,268.61084-50.890747
		c122.943359-57.240234,143.523438-161.674927,242.736328-210.230103c98.982422-50.104614,135.87207-4.16687,257.685547-63.261841
		c121.703125-61.577393,127.692871-208.425537,301.763672-298.789856
		c173.424316-93.743225,251.91748,24.355042,358.620605-42.217651c83.67334-53.376709,103.800781-277.553528,146.646484-403.651062
		c-349.022949,275.761658-705.726074,474.849731-982.757324,601.793091
		c-277.185547,127.977539-474.69873,183.810303-508.916016,196.953491
		c228.219238-94.060425,338.845703-182.966675,412.003906-249.90979
		c72.959961-68.141113,108.451172-114.31897,181.852539-150.584717
		c103.780273-51.880859,167.675293-24.782166,301.202637-118.437561c133.039062-95.779053,140.59375-224.60022,246.79834-305.529602
		c105.678711-83.084351,155.62793-37.622375,286.328125-138.535217c65.024414-51.068237,93.027344-122.345642,127.668457-198.092041
		C5880.101562,130.98877,5913.240723,65.115479,5975.782715,0h-45.102051
		c-134.236328,121.054932-265.284668,226.856873-386.189453,316.379272
		c-329.490234,243.7948-581.826172,368.408325-619.387695,389.600891
		c206.883789-130.847534,302.623535-236.81311,364.958496-314.902466
		c62.052734-79.226318,90.700684-130.576355,156.878906-178.448853c93.49707-68.282349,157.900879-52.276672,275.504395-166.665955
		C5737.746582,30.885254,5750.90625,15.518677,5762.448242,0h-77.193848
		c-69.636719,57.576111-115.739258,92.495117-129.782227,103.608398C5596.298828,67.049744,5632.105469,32.540833,5663.707031,0
		h-103.756836c-162.48877,127.939392-276.891113,201.576843-298.503418,216.844788
		C5350.266113,146.797302,5405.598145,72.158325,5441.452148,0H5202.59668
		c-389.431641,262.798706-687.022461,375.720825-732.241699,397.151855
		c267.482422-142.244995,390.589844-272.339111,470.367676-368.774841C4948.615234,18.591797,4956.073242,9.144653,4963.197754,0
		H825.86969c50.427673,41.716125,84.731323,88.911743,125.179871,139.329773
		c45.205994,56.026855,98.10144,116.078186,189.557617,169.8526c11.751709,6.417419,17.842163,9.737244,17.609131,10.011536
		c-6.027466-3.310669-11.890869-6.649292-17.609131-10.011536C1084.53186,278.56012,899.545044,177.399719,657.520325,0H488.347046
		c4.65686,3.146057,9.425659,6.640137,14.320068,10.528687C620.852722,101.803101,559.410706,428.154236,655.686646,499.932373z"/>
</g>
<g id="Blast_Off">
	<g>
		<defs>
			<path id="SVGID_1_" d="M655.686646,499.932373C751.156982,569.56427,803.25,527.984131,888.713501,579.916138
				c84.950012,51.405334,157.130371,225.488098,222.259644,258.729675
				c64.450806,32.675537,65.636353,11.843689,160.409668,56.907837c91.844849,42.123291,116.989136,118.663635,244.914185,173.55719
				c8.578857,3.34375,13.035889,5.112061,12.943115,5.338257c-4.430176-1.754517-8.740723-3.535034-12.943115-5.338257
				c-67.78418-26.421509-393.769653-151.552673-780.884949-397.422974
				c65.366516,85.260071,148.426147,197.070068,306.788757,297.117981
				c-24.709167-14.165466-158.454163-80.518066-349.636108-202.624329C501.444946,644.393494,252.888428,466.851624,0,237.658508
				C30.748901,374.98053,47.838867,582.827637,136.022705,629.211914
				c131.391113,66.862427,212.135986-9.793091,321.292175,65.522461s132.864014,304.550842,232.545288,369.444092
				s174.168152,0.640625,280.33313,58.468018c106.578674,55.606689,152.854919,253.670288,254.358459,315.641357
				c101.50354,61.971191,159.246216,36.168945,236.945557,42.525513c79.111816,6.294189,135.102783,56.628784,213.537476,122.392578
				c78.328979,65.211914,179.101807,145.853271,345.337769,200.014893
				c-29.647827-8.512085-199.026367-43.625854-441.074097-127.717773
				c-241.934082-83.450806-556.537659-215.879272-874.015625-404.215942
				c68.654663,96.438965,134.341553,194.95459,193.60498,225.76123c105.984924,53.830322,106.990112,22.931641,263.083496,94.897583
				c78.243042,35.128296,152.145508,144.393433,408.014648,261.925415c15.25,5.078857,23.207153,7.714355,23.104858,8.15332
				c-7.919922-2.657959-15.612427-5.378662-23.104858-8.15332c-75.100464-25.01123-327.326172-109.364624-667.795715-283.437012
				c-178.7948-92.202759-381.477295-210.277588-593.66156-357.695068c29.81604,51.411377,55.238403,103.316162,79.228149,153.802979
				c64.797302,136.138428,119.108398,261.85376,216.599182,321.920654
				c195.907043,118.155762,280.851135,71.105591,455.464417,153.45166
				c100.057129,46.32251,224.15332,274.606689,404.319458,336.657471
				c180.147949,62.020752,375.822144-64.794922,548.867676-33.152832
				c173.826416,29.71167,241.981689,163.94043,455.127441,191.902832
				c213.950195,23.721191,317.908203-110.773438,554.598145-107.723145
				c236.367676-1.363525,350.369385,115.245117,542.731689,100.324951
				c191.543701-17.698242,250.405273-117.333984,471.336182-144.771973s380.588623,65.826416,603.770752-12.249512
				c222.339844-80.454834,224.839844-215.666748,390.437988-293.192139
				c167.094727-81.950562,308.557617-31.161133,524.462402-177.388672
				c172.192383-120.081787,211.111816-338.905273,306.444824-462.834717
				c-505.313477,367.989014-953.240723,550.743896-1003.297852,573.503174
				c238.944824-124.543213,330.905273-222.622681,395.106934-289.250977
				c-489.851074,268.580078-905.055664,382.001831-953.499512,397.498413
				c204.229004-77.904175,304.835938-150.661743,371.810547-205.677612
				c66.841309-55.898071,100.050293-94.054443,166.397461-123.12915c93.927734-41.597656,149.120605-17.791626,270.937988-92.774902
				c92.323242-57.814453,122.25293-134.666992,174.253906-195.63623
				c-364.76416,211.596924-752.503906,360.427979-1056.967285,446.733398
				c-304.578125,88.144043-525.879639,113.762207-560.394043,121.397583
				c203.541504-47.687134,306.224121-104.966431,375.056152-149.635498
				c68.757324-45.530884,103.664062-78.451294,169.922852-97.313965c93.82666-27.111206,145.453613,4.825073,268.61084-50.890747
				c122.943359-57.240234,143.523438-161.674927,242.736328-210.230103c98.982422-50.104614,135.87207-4.16687,257.685547-63.261841
				c121.703125-61.577393,127.692871-208.425537,301.763672-298.789856
				c173.424316-93.743225,251.91748,24.355042,358.620605-42.217651
				c83.67334-53.376709,103.800781-277.553528,146.646484-403.651062
				c-349.022949,275.761658-705.726074,474.849731-982.757324,601.793091
				c-277.185547,127.977539-474.69873,183.810303-508.916016,196.953491
				c228.219238-94.060425,338.845703-182.966675,412.003906-249.90979
				c72.959961-68.141113,108.451172-114.31897,181.852539-150.584717
				c103.780273-51.880859,167.675293-24.782166,301.202637-118.437561
				c133.039062-95.779053,140.59375-224.60022,246.79834-305.529602
				c105.678711-83.084351,155.62793-37.622375,286.328125-138.535217
				c65.024414-51.068237,93.027344-122.345642,127.668457-198.092041C5880.101562,130.98877,5913.240723,65.115479,5975.782715,0
				h-45.102051c-134.236328,121.054932-265.284668,226.856873-386.189453,316.379272
				c-329.490234,243.7948-581.826172,368.408325-619.387695,389.600891
				c206.883789-130.847534,302.623535-236.81311,364.958496-314.902466
				c62.052734-79.226318,90.700684-130.576355,156.878906-178.448853
				c93.49707-68.282349,157.900879-52.276672,275.504395-166.665955C5737.746582,30.885254,5750.90625,15.518677,5762.448242,0
				h-77.193848c-69.636719,57.576111-115.739258,92.495117-129.782227,103.608398
				C5596.298828,67.049744,5632.105469,32.540833,5663.707031,0h-103.756836
				c-162.48877,127.939392-276.891113,201.576843-298.503418,216.844788
				C5350.266113,146.797302,5405.598145,72.158325,5441.452148,0H5202.59668
				c-389.431641,262.798706-687.022461,375.720825-732.241699,397.151855
				c267.482422-142.244995,390.589844-272.339111,470.367676-368.774841C4948.615234,18.591797,4956.073242,9.144653,4963.197754,0
				H825.86969c50.427673,41.716125,84.731323,88.911743,125.179871,139.329773
				c45.205994,56.026855,98.10144,116.078186,189.557617,169.8526c11.751709,6.417419,17.842163,9.737244,17.609131,10.011536
				c-6.027466-3.310669-11.890869-6.649292-17.609131-10.011536C1084.53186,278.56012,899.545044,177.399719,657.520325,0
				H488.347046c4.65686,3.146057,9.425659,6.640137,14.320068,10.528687
				C620.852722,101.803101,559.410706,428.154236,655.686646,499.932373z"/>
		</defs>
		<clipPath id="SVGID_00000135653714924954313400000006701095867129580975_">
			<use xlink:href="#SVGID_1_"  style="overflow:visible;"/>
		</clipPath>
		
			<linearGradient id="SVGID_00000082356099287306909370000018365941506063441283_" gradientUnits="userSpaceOnUse" x1="307.747498" y1="1135.928101" x2="2096.825195" y2="1450.752319" gradientTransform="matrix(0.984868 -0.173307 0.173307 0.984868 -232.311493 252.320099)">
			<stop  offset="0" style="stop-color:#5D52A9;stop-opacity:0"/>
			<stop  offset="0.809205" style="stop-color:#F703E6"/>
		</linearGradient>
		
			<path style="clip-path:url(#SVGID_00000135653714924954313400000006701095867129580975_);fill:url(#SVGID_00000082356099287306909370000018365941506063441283_);" d="
			M370.137604,2340.129395c-7.331055-923.8573,587.397827-1755.020386,1468.952026-2043.6427l0.189209-0.709656l-0.56958-0.458069
			C935.636475,582.976929,312.507141,1406.486816,267.643738,2340.128906"/>
		<g id="Spaceship" style="clip-path:url(#SVGID_00000135653714924954313400000006701095867129580975_);">
			<polygon class="st3" points="1849.220581,297.258484 1878.021851,283.381561 1846.488892,288.808197 1825.80188,284.939575 
				1839.278931,295.7771 1834.771118,312.685486 			"/>
			<polygon class="st4" points="1846.488892,288.808197 1825.80188,284.939575 1839.278809,295.777069 1878.021973,283.381531 			
				"/>
			<polygon class="st5" points="1842.689331,292.480713 1839.278809,295.777069 1825.80188,284.939575 			"/>
			<polygon class="st5" points="1843.62146,296.424164 1839.278809,295.777069 1834.771118,312.685486 			"/>
		</g>
	</g>
</g>
<g id="Starlight">
	<g>
		<path class="st5" d="M4031.816162,263.438538c6.273682,0,6.283936-9.75,0-9.75
			C4025.54248,253.688538,4025.531982,263.438538,4031.816162,263.438538L4031.816162,263.438538z"/>
	</g>
	<g>
		<path class="st4" d="M4110.305176,410.771545c5.791016,0,5.800293-9,0-9
			C4104.51416,401.771545,4104.504395,410.771545,4110.305176,410.771545L4110.305176,410.771545z"/>
	</g>
	<g>
		<path class="st5" d="M3795.093018,439.05603c2.252197,0,2.255859-3.5,0-3.5
			C3792.841064,435.55603,3792.837158,439.05603,3795.093018,439.05603L3795.093018,439.05603z"/>
	</g>
	<g>
		<path class="st4" d="M3858.894775,381.464264c3.378174,0,3.383789-5.25,0-5.25
			C3855.516602,376.214264,3855.510986,381.464264,3858.894775,381.464264L3858.894775,381.464264z"/>
	</g>
	<g>
		<path class="st5" d="M3793.063721,343.379303c3.378174,0,3.383545-5.25,0-5.25
			C3789.685547,338.129303,3789.679932,343.379303,3793.063721,343.379303L3793.063721,343.379303z"/>
	</g>
	<g>
		<path class="st4" d="M3958.549316,225.401031c4.343262,0,4.350586-6.75,0-6.75
			C3954.206055,218.651031,3954.19873,225.401031,3958.549316,225.401031L3958.549316,225.401031z"/>
	</g>
	<g>
		<path class="st5" d="M4279.270508,216.918091c4.826172,0,4.833984-7.5,0-7.5
			C4274.444824,209.418091,4274.436523,216.918091,4279.270508,216.918091L4279.270508,216.918091z"/>
	</g>
	<g>
		<path class="st4" d="M4655.132812,89.331886c4.825684,0,4.833496-7.5,0-7.5
			C4650.306641,81.831886,4650.298828,89.331886,4655.132812,89.331886L4655.132812,89.331886z"/>
	</g>
	<g>
		<path class="st5" d="M2337.891357,244.504303c4.825684,0,4.83374-7.5,0-7.5
			C2333.06543,237.004303,2333.057373,244.504303,2337.891357,244.504303L2337.891357,244.504303z"/>
	</g>
	<g>
		<path class="st4" d="M2279.270508,119.616371c3.86084,0,3.867188-6,0-6
			C2275.409912,113.616371,2275.40332,119.616371,2279.270508,119.616371L2279.270508,119.616371z"/>
	</g>
	<g>
		<path class="st4" d="M1324.098145,47.202579c3.860718,0,3.867065-6,0-6
			C1320.237427,41.202579,1320.231079,47.202579,1324.098145,47.202579L1324.098145,47.202579z"/>
	</g>
	<g>
		<path class="st5" d="M2065.477539,102.374992c3.860596,0,3.866943-6,0-6
			C2061.616699,96.374992,2061.610352,102.374992,2065.477539,102.374992L2065.477539,102.374992z"/>
	</g>
	<g>
		<path class="st5" d="M2624.822998,201.97847c3.860596,0,3.866943-6,0-6
			C2620.962158,195.97847,2620.955811,201.97847,2624.822998,201.97847L2624.822998,201.97847z"/>
	</g>
	<g>
		<path class="st4" d="M2444.787842,280.935333c2.895508,0,2.900391-4.5,0-4.5
			C2441.892334,276.435333,2441.887451,280.935333,2444.787842,280.935333L2444.787842,280.935333z"/>
	</g>
	<g>
		<path class="st5" d="M2113.753418,451.849121c0.965088,0,0.966553-1.5,0-1.5
			C2112.788086,450.349121,2112.786621,451.849121,2113.753418,451.849121L2113.753418,451.849121z"/>
	</g>
	<g>
		<path class="st5" d="M2151.684326,449.150848c1.93042,0,1.933594-3,0-3
			C2149.753906,446.150848,2149.750732,449.150848,2151.684326,449.150848L2151.684326,449.150848z"/>
	</g>
	<g>
		<path class="st4" d="M2134.56665,537.30603"/>
		<g>
			<path class="st5" d="M2134.56665,538.80603c1.93042,0,1.933594-3,0-3
				C2132.636475,535.80603,2132.633057,538.80603,2134.56665,538.80603L2134.56665,538.80603z"/>
		</g>
	</g>
	<g>
		<path class="st5" d="M1630.994629,463.894257c1.93042,0,1.933594-3,0-3
			C1629.064331,460.894257,1629.061157,463.894257,1630.994629,463.894257L1630.994629,463.894257z"/>
	</g>
	<g>
		<path class="st4" d="M2258.580811,397.426727c1.93042,0,1.933594-3,0-3
			C2256.650635,394.426727,2256.647217,397.426727,2258.580811,397.426727L2258.580811,397.426727z"/>
	</g>
	<g>
		<path class="st5" d="M2303.408447,446.452576c2.895508,0,2.900391-4.5,0-4.5
			C2300.512939,441.952576,2300.508057,446.452576,2303.408447,446.452576L2303.408447,446.452576z"/>
	</g>
	<g>
		<path class="st5" d="M3648.236084,440.68103c4.343262,0,4.350586-6.75,0-6.75
			C3643.892822,433.93103,3643.885498,440.68103,3648.236084,440.68103L3648.236084,440.68103z"/>
	</g>
	<g>
		<path class="st5" d="M3596.511963,429.586212c3.378174,0,3.383789-5.25,0-5.25
			C3593.133789,424.336212,3593.128174,429.586212,3596.511963,429.586212L3596.511963,429.586212z"/>
	</g>
	<g>
		<path class="st4" d="M3655.132568,400.875c1.93042,0,1.933594-3,0-3C3653.202148,397.875,3653.198975,400.875,3655.132568,400.875
			L3655.132568,400.875z"/>
	</g>
	<g>
		<path class="st4" d="M3489.615479,521.564636c1.930176,0,1.93335-3,0-3
			C3487.685059,518.564636,3487.681885,521.564636,3489.615479,521.564636L3489.615479,521.564636z"/>
	</g>
	<g>
		<path class="st4" d="M4434.442871,73.288788c1.930664,0,1.933594-3,0-3
			C4432.512695,70.288788,4432.509277,73.288788,4434.442871,73.288788L4434.442871,73.288788z"/>
	</g>
	<g>
		<path class="st5" d="M4837.891113,463.894257c1.930664,0,1.933594-3,0-3
			C4835.960938,460.894257,4835.95752,463.894257,4837.891113,463.894257L4837.891113,463.894257z"/>
	</g>
	<g>
		<path class="st4" d="M5013.753418,373.288788c1.930176,0,1.933594-3,0-3
			C5011.822754,370.288788,5011.819824,373.288788,5013.753418,373.288788L5013.753418,373.288788z"/>
	</g>
	<g>
		<path class="st5" d="M4882.71875,353.724121c3.378418,0,3.383789-5.25,0-5.25
			C4879.34082,348.474121,4879.334961,353.724121,4882.71875,353.724121L4882.71875,353.724121z"/>
	</g>
	<g>
		<path class="st4" d="M5086.166992,344.129303c4.343262,0,4.350586-6.75,0-6.75
			C5081.82373,337.379303,5081.816406,344.129303,5086.166992,344.129303L5086.166992,344.129303z"/>
	</g>
	<g>
		<path class="st5" d="M4579.270508,741.05603c4.826172,0,4.833984-7.5,0-7.5
			C4574.444824,733.55603,4574.436523,741.05603,4579.270508,741.05603L4579.270508,741.05603z"/>
	</g>
	<g>
		<path class="st4" d="M4323.29248,1104.410645c5.791016,0,5.800781-9,0-9
			C4317.501465,1095.410645,4317.491699,1104.410645,4323.29248,1104.410645L4323.29248,1104.410645z"/>
	</g>
	<g>
		<path class="st5" d="M1403.408447,235.65947c6.756226,0,6.767456-10.5,0-10.5
			C1396.652222,225.15947,1396.640991,235.65947,1403.408447,235.65947L1403.408447,235.65947z"/>
	</g>
	<g>
		<path class="st5" d="M1427.546387,299.676727c4.825928,0,4.833862-7.5,0-7.5
			C1422.720459,292.176727,1422.712524,299.676727,1427.546387,299.676727L1427.546387,299.676727z"/>
	</g>
	<g>
		<path class="st5" d="M989.615356,522.689636c3.378113,0,3.383728-5.25,0-5.25
			C986.237244,517.439636,986.231628,522.689636,989.615356,522.689636L989.615356,522.689636z"/>
	</g>
	<g>
		<path class="st4" d="M982.718811,395.103455c3.378113,0,3.383728-5.25,0-5.25
			C979.340698,389.853455,979.335083,395.103455,982.718811,395.103455L982.718811,395.103455z"/>
	</g>
	<g>
		<path class="st4" d="M1324.098145,408.896545c3.378052,0,3.383667-5.25,0-5.25
			C1320.719971,403.646545,1320.714355,408.896545,1324.098145,408.896545L1324.098145,408.896545z"/>
	</g>
	<g>
		<path class="st4" d="M927.546387,408.146545c2.412964,0,2.416992-3.75,0-3.75
			C925.133484,404.396545,925.129456,408.146545,927.546387,408.146545L927.546387,408.146545z"/>
	</g>
	<g>
		<path class="st5" d="M1544.787842,166.767227c2.412842,0,2.41687-3.75,0-3.75
			C1542.374878,163.017227,1542.37085,166.767227,1544.787842,166.767227L1544.787842,166.767227z"/>
	</g>
	<g>
		<path class="st5" d="M1499.960205,139.18103c2.412964,0,2.416992-3.75,0-3.75
			C1497.547241,135.43103,1497.543213,139.18103,1499.960205,139.18103L1499.960205,139.18103z"/>
	</g>
	<g>
		<path class="st4" d="M1486.167114,197.051712c1.447754,0,1.450195-2.25,0-2.25
			C1484.71936,194.801712,1484.716919,197.051712,1486.167114,197.051712L1486.167114,197.051712z"/>
	</g>
	<g>
		<path class="st5" d="M1399.960205,862.56897c1.447754,0,1.450195-2.25,0-2.25
			C1398.512451,860.31897,1398.51001,862.56897,1399.960205,862.56897L1399.960205,862.56897z"/>
	</g>
	<g>
		<path class="st4" d="M1720.649902,822.954956c1.447754,0,1.450073-2.25,0-2.25
			C1719.202148,820.704956,1719.199707,822.954956,1720.649902,822.954956L1720.649902,822.954956z"/>
	</g>
	<g>
		<path class="st5" d="M1582.718872,617.741394c1.447754,0,1.450073-2.25,0-2.25
			C1581.270996,615.491394,1581.268677,617.741394,1582.718872,617.741394L1582.718872,617.741394z"/>
	</g>
	<g>
		<path class="st5" d="M1303.408447,724.262939c0.96521,0,0.966797-1.5,0-1.5
			C1302.443237,722.762939,1302.44165,724.262939,1303.408447,724.262939L1303.408447,724.262939z"/>
	</g>
	<g>
		<path class="st5" d="M1362.029175,735.732727c2.412964,0,2.416992-3.75,0-3.75
			C1359.616211,731.982727,1359.612183,735.732727,1362.029175,735.732727L1362.029175,735.732727z"/>
	</g>
	<g>
		<path class="st4" d="M1399.960205,667.892212c3.860718,0,3.867065-6,0-6
			C1396.099487,661.892212,1396.09314,667.892212,1399.960205,667.892212L1399.960205,667.892212z"/>
	</g>
	<g>
		<path class="st4" d="M4613.753418,674.788757c3.86084,0,3.867188-6,0-6
			C4609.892578,668.788757,4609.88623,674.788757,4613.753418,674.788757L4613.753418,674.788757z"/>
	</g>
	<g>
		<path class="st4" d="M4568.925781,657.547424c3.86084,0,3.867188-6,0-6
			C4565.064941,651.547424,4565.058594,657.547424,4568.925781,657.547424L4568.925781,657.547424z"/>
	</g>
	<g>
		<path class="st5" d="M4630.994629,577.487061c2.895508,0,2.900391-4.5,0-4.5
			C4628.099121,572.987061,4628.094238,577.487061,4630.994629,577.487061L4630.994629,577.487061z"/>
	</g>
	<g>
		<path class="st4" d="M4727.546387,834.982727c1.447754,0,1.450195-2.25,0-2.25
			C4726.098633,832.732727,4726.096191,834.982727,4727.546387,834.982727L4727.546387,834.982727z"/>
	</g>
	<g>
		<path class="st5" d="M4420.649902,1003.948242c1.447754,0,1.450195-2.25,0-2.25
			C4419.202148,1001.698242,4419.199707,1003.948242,4420.649902,1003.948242L4420.649902,1003.948242z"/>
	</g>
	<g>
		<path class="st5" d="M4299.959961,1203.948242c1.448242,0,1.450195-2.25,0-2.25
			C4298.512207,1201.698242,4298.510254,1203.948242,4299.959961,1203.948242L4299.959961,1203.948242z"/>
	</g>
	<g>
		<path class="st5" d="M4386.166992,890.155151c1.447754,0,1.450195-2.25,0-2.25
			C4384.719238,887.905151,4384.716797,890.155151,4386.166992,890.155151L4386.166992,890.155151z"/>
	</g>
	<g>
		<path class="st5" d="M4451.68457,899.75c0.482422,0,0.483398-0.75,0-0.75C4451.20166,899,4451.201172,899.75,4451.68457,899.75
			L4451.68457,899.75z"/>
	</g>
	<g>
		<path class="st5" d="M4455.132812,848.775879c1.447754,0,1.450195-2.25,0-2.25
			C4453.685059,846.525879,4453.682617,848.775879,4455.132812,848.775879L4455.132812,848.775879z"/>
	</g>
	<g>
		<path class="st5" d="M4768.727051,431.821259c1.447754,0,1.450195-2.25,0-2.25
			C4767.279297,429.571259,4767.276855,431.821259,4768.727051,431.821259L4768.727051,431.821259z"/>
	</g>
	<g>
		<path class="st5" d="M4217.20166,517.741394c1.447754,0,1.450195-2.25,0-2.25
			C4215.753906,515.491394,4215.751465,517.741394,4217.20166,517.741394L4217.20166,517.741394z"/>
	</g>
	<g>
		<path class="st4" d="M4327.546387,382.472198c1.447754,0,1.450195-2.25,0-2.25
			C4326.098633,380.222198,4326.096191,382.472198,4327.546387,382.472198L4327.546387,382.472198z"/>
	</g>
	<g>
		<path class="st5" d="M4441.339355,486.331879c0.965332,0,0.966797-1.5,0-1.5
			C4440.374512,484.831879,4440.372559,486.331879,4441.339355,486.331879L4441.339355,486.331879z"/>
	</g>
	<g>
		<path class="st5" d="M4403.408691,567.142212c2.895508,0,2.899902-4.5,0-4.5
			C4400.513184,562.642212,4400.508301,567.142212,4403.408691,567.142212L4403.408691,567.142212z"/>
	</g>
	<g>
		<path class="st5" d="M4268.925781,836.107727c2.895508,0,2.900391-4.5,0-4.5
			C4266.030273,831.607727,4266.025391,836.107727,4268.925781,836.107727L4268.925781,836.107727z"/>
	</g>
	<g>
		<path class="st4" d="M1651.684326,865.937439c2.895508,0,2.900391-4.5,0-4.5
			C1648.788818,861.437439,1648.784058,865.937439,1651.684326,865.937439L1651.684326,865.937439z"/>
	</g>
	<g>
		<path class="st4" d="M1720.649902,557.547424c3.860718,0,3.867065-6,0-6
			C1716.789185,551.547424,1716.782715,557.547424,1720.649902,557.547424L1720.649902,557.547424z"/>
	</g>
	<g>
		<path class="st4" d="M1427.546387,1186.859741c4.343384,0,4.350464-6.75,0-6.75
			C1423.203125,1180.109741,1423.195923,1186.859741,1427.546387,1186.859741L1427.546387,1186.859741z"/>
	</g>
	<g>
		<path class="st5" d="M1600.127319,1260.31543c4.343384,0,4.350586-6.75,0-6.75
			C1595.784058,1253.56543,1595.776855,1260.31543,1600.127319,1260.31543L1600.127319,1260.31543z"/>
	</g>
	<g>
		<path class="st5" d="M1915.422607,479.327911c4.343384,0,4.350586-6.75,0-6.75
			C1911.079346,472.577911,1911.072144,479.327911,1915.422607,479.327911L1915.422607,479.327911z"/>
	</g>
	<g>
		<path class="st4" d="M3601.387939,275.163788c4.343262,0,4.350342-6.75,0-6.75
			C3597.044678,268.413788,3597.037354,275.163788,3601.387939,275.163788L3601.387939,275.163788z"/>
	</g>
	<g>
		<path class="st5" d="M3858.894775,116.543098c4.343262,0,4.350586-6.75,0-6.75
			C3854.551514,109.793098,3854.544189,116.543098,3858.894775,116.543098L3858.894775,116.543098z"/>
	</g>
	<g>
		<path class="st5" d="M3703.18335,225.401031c4.343262,0,4.350342-6.75,0-6.75
			C3698.839844,218.651031,3698.832764,225.401031,3703.18335,225.401031L3703.18335,225.401031z"/>
	</g>
	<g>
		<path class="st5" d="M3755.132568,149.525848c2.413086,0,2.416992-3.75,0-3.75
			C3752.719727,145.775848,3752.715576,149.525848,3755.132568,149.525848L3755.132568,149.525848z"/>
	</g>
	<g>
		<path class="st4" d="M3630.994629,197.051712c1.447754,0,1.450195-2.25,0-2.25
			C3629.546875,194.801712,3629.544434,197.051712,3630.994629,197.051712L3630.994629,197.051712z"/>
	</g>
	<g>
		<path class="st5" d="M724.098145,231.15947c0.965149,0,0.966736-1.5,0-1.5
			C723.132935,229.65947,723.131348,231.15947,724.098145,231.15947L724.098145,231.15947z"/>
	</g>
	<g>
		<path class="st5" d="M1165.477417,214.668091c1.93042,0,1.933594-3,0-3
			C1163.547119,211.668091,1163.543945,214.668091,1165.477417,214.668091L1165.477417,214.668091z"/>
	</g>
	<g>
		<path class="st5" d="M5037.891113,787.831909c2.895508,0,2.900391-4.5,0-4.5
			C5034.995605,783.331909,5034.990723,787.831909,5037.891113,787.831909L5037.891113,787.831909z"/>
	</g>
	<g>
		<path class="st5" d="M4022.103271,1480.250977c2.895508,0,2.900391-4.5,0-4.5
			C4019.207764,1475.750977,4019.202881,1480.250977,4022.103271,1480.250977L4022.103271,1480.250977z"/>
	</g>
	<g>
		<path class="st4" d="M1658.748047,1354.508911c2.895508,0,2.900391-4.5,0-4.5
			C1655.852539,1350.008911,1655.847778,1354.508911,1658.748047,1354.508911L1658.748047,1354.508911z"/>
	</g>
	<g>
		<path class="st4" d="M4358.581055,1510.529175c4.343262,0,4.350098-6.75,0-6.75
			C4354.237793,1503.779175,4354.230469,1510.529175,4358.581055,1510.529175L4358.581055,1510.529175z"/>
	</g>
	<g>
		<path class="st4" d="M4110.305176,1968.267212c4.343262,0,4.350586-6.75,0-6.75
			C4105.961914,1961.517212,4105.95459,1968.267212,4110.305176,1968.267212L4110.305176,1968.267212z"/>
	</g>
	<g>
		<path class="st5" d="M4441.339355,1416.168091c3.86084,0,3.867188-6,0-6
			C4437.479004,1410.168091,4437.472168,1416.168091,4441.339355,1416.168091L4441.339355,1416.168091z"/>
	</g>
	<g>
		<path class="st5" d="M4482.71875,1445.702637c1.930664,0,1.933594-3,0-3
			C4480.788574,1442.702637,4480.785156,1445.702637,4482.71875,1445.702637L4482.71875,1445.702637z"/>
	</g>
	<g>
		<path class="st5" d="M4962.029297,1204.323242c1.930176,0,1.933594-3,0-3
			C4960.098633,1201.323242,4960.095703,1204.323242,4962.029297,1204.323242L4962.029297,1204.323242z"/>
	</g>
	<g>
		<path class="st5" d="M1623.542969,2010.313232c5.784668,0,5.794189-8.98999,0-8.98999
			C1617.758301,2001.323242,1617.748779,2010.313232,1623.542969,2010.313232L1623.542969,2010.313232z"/>
	</g>
	<g>
		<path class="st5" d="M5630.994629,818.116394c1.930176,0,1.933594-3,0-3
			C5629.064453,815.116394,5629.061035,818.116394,5630.994629,818.116394L5630.994629,818.116394z"/>
	</g>
	<g>
		<path class="st4" d="M5565.477539,852.599121c1.930176,0,1.933594-3,0-3
			C5563.546875,849.599121,5563.543945,852.599121,5565.477539,852.599121L5565.477539,852.599121z"/>
	</g>
	<g>
		<path class="st4" d="M4751.68457,859.495667c1.930176,0,1.933105-3,0-3
			C4749.753906,856.495667,4749.750977,859.495667,4751.68457,859.495667L4751.68457,859.495667z"/>
	</g>
	<g>
		<path class="st5" d="M5117.20166,718.116394c1.930176,0,1.933594-3,0-3
			C5115.270996,715.116394,5115.268066,718.116394,5117.20166,718.116394L5117.20166,718.116394z"/>
	</g>
	<g>
		<path class="st5" d="M5079.270508,711.219849c1.930176,0,1.933594-3,0-3
			C5077.340332,708.219849,5077.336914,711.219849,5079.270508,711.219849L5079.270508,711.219849z"/>
	</g>
	<g>
		<path class="st5" d="M4696.511719,859.495667c1.930664,0,1.933594-3,0-3
			C4694.581543,856.495667,4694.578613,859.495667,4696.511719,859.495667L4696.511719,859.495667z"/>
	</g>
	<g>
		<path class="st4" d="M2068.195557,353.016296c1.930176,0,1.93335-3,0-3
			C2066.265137,350.016296,2066.261963,353.016296,2068.195557,353.016296L2068.195557,353.016296z"/>
	</g>
	<g>
		<path class="st5" d="M1651.684326,256.047394c1.93042,0,1.933594-2.999985,0-2.999985
			C1649.754028,253.047409,1649.750732,256.047394,1651.684326,256.047394L1651.684326,256.047394z"/>
	</g>
	<g>
		<path class="st5" d="M1165.477417,449.150848c1.93042,0,1.933594-3,0-3
			C1163.547119,446.150848,1163.543945,449.150848,1165.477417,449.150848L1165.477417,449.150848z"/>
	</g>
	<g>
		<path class="st4" d="M1134.442993,580.185364c1.930298,0,1.933472-3,0-3
			C1132.512573,577.185364,1132.509399,580.185364,1134.442993,580.185364L1134.442993,580.185364z"/>
	</g>
	<g>
		<path class="st4" d="M1051.684326,83.633614c1.93042,0,1.933594-3,0-3
			C1049.754028,80.633614,1049.750732,83.633614,1051.684326,83.633614L1051.684326,83.633614z"/>
	</g>
	<g>
		<path class="st5" d="M672.374023,97.426712c1.930298,0,1.933533-3,0-3
			C670.443665,94.426712,670.44043,97.426712,672.374023,97.426712L672.374023,97.426712z"/>
	</g>
	<g>
		<path class="st4" d="M686.167114,131.90947c1.930359,0,1.933533-3,0-3
			C684.236755,128.90947,684.233521,131.90947,686.167114,131.90947L686.167114,131.90947z"/>
	</g>
	<g>
		<path class="st5" d="M713.753296,228.461197c1.930359,0,1.933533-3,0-3
			C711.822937,225.461197,711.819763,228.461197,713.753296,228.461197L713.753296,228.461197z"/>
	</g>
	<g>
		<path class="st5" d="M758.580872,387.081879c1.930359,0,1.933594-3,0-3
			C756.650513,384.081879,756.647339,387.081879,758.580872,387.081879L758.580872,387.081879z"/>
	</g>
	<g>
		<path class="st5" d="M196.511932,507.771545c1.930344,0,1.933548-3,0-3
			C194.581573,504.771545,194.578369,507.771545,196.511932,507.771545L196.511932,507.771545z"/>
	</g>
	<g>
		<path class="st4" d="M213.753311,538.80603c1.930344,0,1.933548-3,0-3
			C211.822952,535.80603,211.819748,538.80603,213.753311,538.80603L213.753311,538.80603z"/>
	</g>
	<g>
		<path class="st5" d="M1731.161865,1308.931396c1.930298,0,1.933594-3,0-3
			C1729.231445,1305.931396,1729.228271,1308.931396,1731.161865,1308.931396L1731.161865,1308.931396z"/>
	</g>
	<g>
		<path class="st5" d="M4558.581055,1059.495728c1.930176,0,1.933594-3,0-3
			C4556.650391,1056.495728,4556.647461,1059.495728,4558.581055,1059.495728L4558.581055,1059.495728z"/>
	</g>
	<g>
		<path class="st5" d="M2434.442871,546.077576c2.413086,0,2.416992-3.75,0-3.75
			C2432.030029,542.327576,2432.026123,546.077576,2434.442871,546.077576L2434.442871,546.077576z"/>
	</g>
	<g>
		<path class="st5" d="M4399.959961,274.413788c3.378418,0,3.383789-5.25,0-5.25
			C4396.582031,269.163788,4396.57666,274.413788,4399.959961,274.413788L4399.959961,274.413788z"/>
	</g>
	<g>
		<path class="st5" d="M4406.856934,230.336197c4.343262,0,4.350098-6.75,0-6.75
			C4402.513672,223.586197,4402.506348,230.336197,4406.856934,230.336197L4406.856934,230.336197z"/>
	</g>
	<g>
		<path class="st5" d="M2877.101562,105.294098c4.825684,0,4.83374-7.5,0-7.5
			C2872.275635,97.794098,2872.267578,105.294098,2877.101562,105.294098L2877.101562,105.294098z"/>
	</g>
	<g>
		<path class="st4" d="M3154.16626,84.979439c5.30835,0,5.317139-8.25,0-8.25
			C3148.857666,76.729439,3148.848877,84.979439,3154.16626,84.979439L3154.16626,84.979439z"/>
	</g>
	<g>
		<path class="st5" d="M1479.270508,582.810364c5.308472,0,5.317261-8.25,0-8.25
			C1473.962036,574.560364,1473.953247,582.810364,1479.270508,582.810364L1479.270508,582.810364z"/>
	</g>
	<g>
		<path class="st5" d="M882.718811,358.672394c5.308472,0,5.317261-8.25,0-8.25
			C877.410339,350.422394,877.40155,358.672394,882.718811,358.672394L882.718811,358.672394z"/>
	</g>
	<g>
		<path class="st5" d="M5196.511719,713.844849c5.308594,0,5.317383-8.25,0-8.25
			C5191.203613,705.594849,5191.194824,713.844849,5196.511719,713.844849L5196.511719,713.844849z"/>
	</g>
	<g>
		<path class="st5" d="M5434.442871,1648.327637c5.308594,0,5.317383-8.25,0-8.25
			C5429.134277,1640.077637,5429.125488,1648.327637,5434.442871,1648.327637L5434.442871,1648.327637z"/>
	</g>
	<g>
		<path class="st5" d="M5234.442871,117.293098c5.308594,0,5.317383-8.25,0-8.25
			C5229.134277,109.043098,5229.125488,117.293098,5234.442871,117.293098L5234.442871,117.293098z"/>
	</g>
	<g>
		<path class="st4" d="M5630.994629,348.327576c5.308594,0,5.317383-8.25,0-8.25
			C5625.686035,340.077576,5625.677246,348.327576,5630.994629,348.327576L5630.994629,348.327576z"/>
	</g>
	<g>
		<path class="st4" d="M1165.477417,776.796448c5.308472,0,5.317261-8.25,0-8.25
			C1160.168945,768.546448,1160.160156,776.796448,1165.477417,776.796448L1165.477417,776.796448z"/>
	</g>
	<g>
		<path class="st4" d="M693.06366,903.5c5.308472,0,5.317261-8.25,0-8.25C687.755188,895.25,687.746399,903.5,693.06366,903.5
			L693.06366,903.5z"/>
	</g>
	<g>
		<path class="st5" d="M1272.374023,1104.035645c5.308472,0,5.317261-8.25,0-8.25
			C1267.065552,1095.785645,1267.056763,1104.035645,1272.374023,1104.035645L1272.374023,1104.035645z"/>
	</g>
	<g>
		<path class="st4" d="M4237.891113,902.75c4.343262,0,4.350586-6.75,0-6.75C4233.547852,896,4233.540527,902.75,4237.891113,902.75
			L4237.891113,902.75z"/>
	</g>
	<g>
		<path class="st4" d="M4537.891113,163.620682c7.23877,0,7.250977-11.25,0-11.25
			C4530.652344,152.370682,4530.640625,163.620682,4537.891113,163.620682L4537.891113,163.620682z"/>
	</g>
	<g>
		<path class="st5" d="M4817.20166,622.241394c7.23877,0,7.250977-11.25,0-11.25
			C4809.962891,610.991394,4809.950684,622.241394,4817.20166,622.241394L4817.20166,622.241394z"/>
	</g>
	<g>
		<path class="st5" d="M1789.615356,122.991371c8.203979,0,8.217651-12.75,0-12.75
			C1781.411377,110.241371,1781.397827,122.991371,1789.615356,122.991371L1789.615356,122.991371z"/>
	</g>
	<g>
		<path class="st5" d="M4110.305176,116.094818c8.204102,0,8.217285-12.75,0-12.75
			C4102.101074,103.344818,4102.087402,116.094818,4110.305176,116.094818L4110.305176,116.094818z"/>
	</g>
	<g>
		<path class="st5" d="M5055.132812,240.232758c8.203613,0,8.217285-12.75,0-12.75
			C5046.928711,227.482758,5046.915039,240.232758,5055.132812,240.232758L5055.132812,240.232758z"/>
	</g>
	<g>
		<path class="st5" d="M4537.891113,2033.336182c8.204102,0,8.217773-12.75,0-12.75
			C4529.687012,2020.586182,4529.673828,2033.336182,4537.891113,2033.336182L4537.891113,2033.336182z"/>
	</g>
	<g>
		<path class="st5" d="M4558.581055,926.439636c8.203613,0,8.217285-12.75,0-12.75
			C4550.376953,913.689636,4550.363281,926.439636,4558.581055,926.439636L4558.581055,926.439636z"/>
	</g>
	<g>
		<path class="st5" d="M3958.549316,522.991394c8.204102,0,8.217529-12.750031,0-12.750031
			C3950.345215,510.241364,3950.331787,522.991394,3958.549316,522.991394L3958.549316,522.991394z"/>
	</g>
	<g>
		<path class="st5" d="M2434.442871,67.818954c8.204102,0,8.217773-12.749996,0-12.749996
			C2426.239014,55.068958,2426.225342,67.818954,2434.442871,67.818954L2434.442871,67.818954z"/>
	</g>
	<g>
		<path class="st5" d="M165.477448,550.577576c8.20401,0,8.217606-12.75,0-12.75
			C157.273422,537.827576,157.259842,550.577576,165.477448,550.577576L165.477448,550.577576z"/>
	</g>
	<g>
		<path class="st5" d="M1658.580933,1016.094849c8.203979,0,8.217529-12.75,0-12.75
			C1650.376831,1003.344849,1650.363281,1016.094849,1658.580933,1016.094849L1658.580933,1016.094849z"/>
	</g>
</g>
<g id="Stars">
	<path class="st4" d="M4266.865723,514.418884c-6.210938-1.489014-8.881348-3.396423-10.341309-10.341461
		c-1.35791-6.460297-2.197266-56.426575-2.197266-56.426575s-0.839355,49.966278-2.197754,56.426575
		c-1.459961,6.945038-4.130371,8.852448-10.341309,10.341461c-6.210938,1.488953-56.426758,2.19751-56.426758,2.19751
		s49.966309,0.839294,56.426758,2.197388c6.944824,1.460083,8.852539,4.130371,10.341309,10.341492
		c1.489258,6.21106,2.197754,56.426636,2.197754,56.426636s0.708496-50.215576,2.197266-56.426636
		c1.489258-6.211121,3.396484-8.881409,10.341309-10.341492c6.460449-1.358093,56.426758-2.197388,56.426758-2.197388
		S4273.077148,515.907837,4266.865723,514.418884z"/>
	<path class="st5" d="M4426.29248,687.15863c-2.794922-0.670044-3.996582-1.528381-4.653809-4.653625
		c-0.611328-2.907166-0.98877-25.391968-0.98877-25.391968s-0.37793,22.484802-0.98877,25.391968
		c-0.657227,3.125244-1.858887,3.983582-4.653809,4.653625s-25.39209,0.988892-25.39209,0.988892
		s22.484863,0.377686,25.39209,0.988831c3.125488,0.657043,3.983398,1.858643,4.653809,4.653687
		c0.669922,2.794983,0.98877,25.391968,0.98877,25.391968s0.318848-22.596985,0.98877-25.391968
		c0.669922-2.795044,1.52832-3.996643,4.653809-4.653687c2.907227-0.611145,25.39209-0.988831,25.39209-0.988831
		S4429.087402,687.828674,4426.29248,687.15863z"/>
	<path class="st5" d="M4158.647949,1389.820801c-4.626465-1.109131-6.615723-2.530029-7.703613-7.703369
		c-1.01123-4.812256-1.636719-42.032227-1.636719-42.032227s-0.625,37.219971-1.636719,42.032227
		c-1.087891,5.17334-3.07666,6.594238-7.703613,7.703369c-4.626465,1.109131-42.032227,1.636963-42.032227,1.636963
		s37.220215,0.625122,42.032227,1.636841c5.17334,1.087524,6.594238,3.07666,7.703613,7.703369
		c1.108887,4.626587,1.636719,42.032227,1.636719,42.032227s0.527832-37.40564,1.637207-42.032227
		c1.108887-4.626709,2.529785-6.615845,7.703125-7.703369c4.8125-1.011719,42.032227-1.636841,42.032227-1.636841
		S4163.274414,1390.929932,4158.647949,1389.820801z"/>
	<path class="st5" d="M5000.986816,484.193329c-3.924805-0.940887-5.611816-2.146179-6.534668-6.534668
		c-0.85791-4.082184-1.388672-35.655396-1.388672-35.655396s-0.530273,31.573212-1.388184,35.655396
		c-0.922852,4.388489-2.610352,5.593781-6.534668,6.534668c-3.924805,0.940857-35.655762,1.38855-35.655762,1.38855
		s31.573242,0.530365,35.655762,1.38855c4.388184,0.922577,5.59375,2.609924,6.534668,6.534668
		c0.94043,3.924713,1.388184,35.655426,1.388184,35.655426s0.447754-31.730713,1.388672-35.655426
		c0.940918-3.924744,2.145996-5.612091,6.534668-6.534668c4.082031-0.858185,35.655273-1.38855,35.655273-1.38855
		S5004.911621,485.134186,5000.986816,484.193329z"/>
	<path class="st5" d="M1265.106079,1235.340698c-2.795044-0.670044-3.996704-1.52832-4.653687-4.653687
		c-0.611206-2.907104-0.988892-25.391846-0.988892-25.391846s-0.377686,22.484741-0.98877,25.391846
		c-0.657104,3.125366-1.858643,3.983643-4.653687,4.653687s-25.391968,0.988892-25.391968,0.988892
		s22.484863,0.377686,25.391968,0.988892c3.125244,0.656982,3.983643,1.858643,4.653687,4.653564
		c0.669922,2.795044,0.98877,25.39209,0.98877,25.39209s0.318848-22.597046,0.988892-25.39209
		c0.670044-2.794922,1.528442-3.996582,4.653687-4.653564c2.907104-0.611206,25.391968-0.988892,25.391968-0.988892
		S1267.901001,1236.010742,1265.106079,1235.340698z"/>
	<path class="st4" d="M1657.326782,701.834412c-2.794922-0.670044-3.996582-1.528381-4.653564-4.653687
		c-0.611206-2.907104-0.988892-25.391968-0.988892-25.391968s-0.377686,22.484863-0.98877,25.391968
		c-0.657104,3.125305-1.858765,3.983643-4.653687,4.653687c-2.795044,0.670044-25.391968,0.988831-25.391968,0.988831
		s22.484741,0.377747,25.391968,0.988892c3.125244,0.656982,3.983521,1.858643,4.653564,4.653625
		s0.988892,25.391968,0.988892,25.391968s0.318848-22.596985,0.988892-25.391968s1.52832-3.996643,4.653687-4.653625
		c2.907104-0.611145,25.391968-0.988892,25.391968-0.988892S1660.121826,702.504456,1657.326782,701.834412z"/>
	<path class="st5" d="M3212.9104,204.899017c-2.794922-0.670059-3.996582-1.528397-4.653564-4.653671
		c-0.611084-2.90712-0.98877-25.391953-0.98877-25.391953s-0.377686,22.484833-0.989014,25.391953
		c-0.656982,3.125275-1.858643,3.983612-4.653564,4.653671c-2.794922,0.670029-25.39209,0.988861-25.39209,0.988861
		s22.484863,0.377686,25.39209,0.988831c3.125244,0.657028,3.983643,1.858673,4.653564,4.653671
		c0.670166,2.794983,0.989014,25.391983,0.989014,25.391983s0.318848-22.597,0.98877-25.391983
		c0.670166-2.794998,1.52832-3.996643,4.653564-4.653671c2.907227-0.611145,25.39209-0.988831,25.39209-0.988831
		S3215.705566,205.569046,3212.9104,204.899017z"/>
	<path class="st5" d="M1559.367188,770.116333c-7.221924-1.731323-10.326782-3.949097-12.024414-12.024353
		c-1.579102-7.511597-2.554932-65.609009-2.554932-65.609009s-0.975952,58.097412-2.555054,65.609009
		c-1.697632,8.075256-4.80249,10.29303-12.024414,12.024353c-7.221802,1.731323-65.609009,2.555115-65.609009,2.555115
		s58.097412,0.975891,65.609009,2.554993c8.075195,1.697632,10.293091,4.80249,12.024292,12.024353
		c1.731323,7.221863,2.555176,65.60907,2.555176,65.60907s0.82373-58.387207,2.555054-65.60907
		c1.731201-7.221863,3.949097-10.326721,12.024292-12.024353c7.511597-1.579102,65.609009-2.554993,65.609009-2.554993
		S1566.588989,771.847656,1559.367188,770.116333z"/>
	<path class="st4" d="M1870.170532,1457.996582c-5.669434-1.359253-8.106934-3.100342-9.439697-9.439697
		c-1.239624-5.896973-2.005737-51.506104-2.005737-51.506104s-0.766113,45.609131-2.005859,51.506104
		c-1.332642,6.339355-3.770142,8.080444-9.439575,9.439697c-5.669556,1.359131-51.506226,2.005859-51.506226,2.005859
		s45.609253,0.766113,51.506104,2.005737c6.339478,1.332764,8.080566,3.770264,9.439697,9.439697
		s2.005859,51.506104,2.005859,51.506104s0.646729-45.83667,2.005859-51.506104s3.10022-8.106934,9.439697-9.439697
		c5.896851-1.239624,51.506104-2.005737,51.506104-2.005737S1875.840088,1459.355713,1870.170532,1457.996582z"/>
	<path class="st4" d="M1266.359863,136.097412c-3.416016-0.818954-4.884766-1.868042-5.687744-5.687805
		c-0.746948-3.553162-1.208618-31.034615-1.208618-31.034615s-0.461548,27.481453-1.208496,31.034615
		c-0.803101,3.819763-2.271729,4.868851-5.687866,5.687805c-3.416138,0.818939-31.034668,1.208618-31.034668,1.208618
		s27.481445,0.461624,31.034668,1.208572c3.819702,0.803024,4.868896,2.271713,5.687744,5.687805
		c0.81897,3.416107,1.208618,31.034653,1.208618,31.034653s0.389771-27.618546,1.208618-31.034653
		c0.81897-3.416092,1.868042-4.884781,5.687866-5.687805c3.553101-0.746948,31.034546-1.208572,31.034546-1.208572
		S1269.776001,136.916351,1266.359863,136.097412z"/>
	<path class="st4" d="M3377.313965,148.253601c-4.427246-1.061371-6.330811-2.420975-7.371582-7.371384
		c-0.968018-4.604874-1.566162-40.220764-1.566162-40.220764s-0.598389,35.615891-1.566406,40.220764
		c-1.040771,4.950409-2.944092,6.310013-7.371338,7.371384c-4.427246,1.06134-40.220703,1.56636-40.220703,1.56636
		s35.615723,0.598251,40.220703,1.566315c4.950439,1.040726,6.310059,2.944122,7.371338,7.371384
		s1.566406,40.22081,1.566406,40.22081s0.504883-35.793549,1.566406-40.22081
		c1.061279-4.427261,2.420898-6.330658,7.371338-7.371384c4.604736-0.968063,40.220703-1.566315,40.220703-1.566315
		S3381.741211,149.314941,3377.313965,148.253601z"/>
</g>
<g id="Moon">
	<path class="st4" d="M2159.455566,239.335938c-12.697754,7.348251-28.948486,3.011719-36.296387-9.686264
		c-7.348877-12.697678-3.011719-28.948486,9.685547-36.296585c7.939209-4.594391,17.266357-4.620605,24.939209-0.892166
		c-11.325439-8.204514-26.857666-9.519653-39.743164-2.062637c-17.464844,10.106964-23.429688,32.458466-13.32251,49.923279
		s32.45874,23.429321,49.92334,13.322357c12.885254-7.456863,19.483643-21.578629,18.012939-35.485901
		C2172.064697,226.667801,2167.394287,234.741714,2159.455566,239.335938z"/>
</g>
</svg>
