<?xml version="1.0" encoding="utf-8"?>
<!-- Generator: Adobe Illustrator 26.3.1, SVG Export Plug-In . SVG Version: 6.00 Build 0)  -->
<svg version="1.1" id="Logo" xmlns="http://www.w3.org/2000/svg" xmlns:xlink="http://www.w3.org/1999/xlink" x="0px" y="0px"
	 viewBox="0 0 4146.121582 2052.206055" style="enable-background:new 0 0 4146.121582 2052.206055;" xml:space="preserve">
<style type="text/css">
	.st0{fill-rule:evenodd;clip-rule:evenodd;fill:#FFFFFF;}
	.st1{fill-rule:evenodd;clip-rule:evenodd;fill:#0FC9F2;}
	.st2{fill:#F703E6;}
	.st3{fill:#FFFFFF;}
	.st4{fill:#0FC9F2;}
</style>
<g>
	<g>
		<path class="st0" d="M2057.261475,262.518158h-63.446411v206.290558h63.446411v-86.064423
			c-0.047607-9.362061,0.519043-18.716705,1.700195-28.004547c0.868652-7.734985,3.389648-15.192932,7.388672-21.869141
			c3.96167-6.19635,9.613037-11.128387,16.286621-14.211487c7.06543-3.398743,16.625488-5.097839,28.690918-5.097839
			c4.602539-0.014832,9.199951,0.339508,13.744385,1.059296c4.486084,0.745209,8.908691,1.807159,13.241211,3.177887v-58.259583
			c-3.321045-0.878693-6.721436-1.44751-10.148193-1.699097c-3.686279-0.264832-7.351318-0.419464-11.032471-0.419464
			c-14.093994,0-25.799072,3.185272-35.110352,9.555359c-9.316406,6.370575-17.345947,15.93335-24.098877,28.688293h-0.863281
			L2057.261475,262.518158z M2233.803467,147.919525h-63.398926v320.889191h58.367188v-27.165588h0.858154
			c2.907715,4.091522,6.233887,7.864166,9.930908,11.255005c4.369385,4.025299,9.199951,7.514618,14.390381,10.393768
			c5.693604,3.193268,11.71582,5.753571,17.965576,7.635406c6.726562,2.021637,13.717773,3.025848,20.740967,2.979248
			c14.205078,0.193329,28.299072-2.47876,41.444824-7.856232c12.08667-5.007843,22.970947-12.530396,31.932373-22.067749
			c9.046387-9.746552,16.027344-21.224548,20.523926-33.741669c4.915039-13.754425,7.351562-28.272552,7.192627-42.878082
			c0.037109-14.059479-2.197998-28.032104-6.620605-41.377625c-4.104736-12.672852-10.396973-24.526886-18.601318-35.021301
			c-7.96582-10.128448-17.991943-18.44812-29.416504-24.407196c-12.166016-6.233948-25.682617-9.372101-39.347412-9.136383
			c-12.600342-0.107544-25.121094,1.975555-37.011719,6.157135c-11.281494,4.006256-21.085205,11.329651-28.134766,21.008423
			h-0.836914L2233.803467,147.919525z M2242.055176,403.443909c-8.82373-9.621521-13.240967-22.214966-13.240967-37.780182
			c0-15.565308,4.417236-28.158722,13.240967-37.780273c8.829346-9.621552,21.334229-14.432343,37.515137-14.432343
			c16.185791,0,28.690918,4.810791,37.514648,14.432343c8.829346,9.621552,13.241211,22.214966,13.241211,37.780273
			c0,15.565216-4.411865,28.158661-13.241211,37.780182c-8.82373,9.621613-21.328857,14.432343-37.514648,14.432343
			c-16.180908,0-28.669922-4.81073-37.467285-14.432343H2242.055176z M2627.934814,313.451111h55.830078v-50.932953h-55.830078
			V201.47847h-63.419922v61.128128h-40.608154v50.932434h40.608154V411.5867
			c-0.280762,9.928253,1.673584,19.79187,5.714844,28.864746c3.591064,7.661316,9.046387,14.300446,15.863037,19.309326
			c7.10791,5.080872,15.137207,8.731201,23.638184,10.74704c9.692383,2.336273,19.63916,3.477661,29.612549,3.398743
			c7.494385-0.015869,14.978271-0.443298,22.419678-1.280151c7.537109-0.807709,14.946777-2.519531,22.070557-5.097321v-52.963104
			c-3.569824,2.847931-7.912842,4.548096-12.468018,4.876984c-4.390625,0.61972-8.807861,0.973511-13.240967,1.059326
			c-5.598389,0.230408-11.180908-0.709229-16.397949-2.758392c-3.797607-1.572021-6.986084-4.32724-9.088623-7.856293
			c-2.086914-3.727112-3.389893-7.843536-3.818848-12.093414c-0.593262-5.127502-0.874023-10.285736-0.836914-15.447174
			L2627.934814,313.451111z M2432.812988,171.466019c-5.985107,6.015747-9.703125,13.920181-10.518799,22.367538
			c-0.810547,8.447327,1.329346,16.915329,6.053711,23.962814c4.729736,7.04747,11.75293,12.239059,19.877686,14.690262
			c8.124756,2.451218,16.848145,2.010544,24.686768-1.246246c7.83374-3.25679,14.300537-9.128983,18.294189-16.617142
			c3.993408-7.487625,5.269775-16.128265,3.606689-24.450607c-1.657715-8.322342-6.14917-15.812607-12.711426-21.194885
			s-14.787842-8.323929-23.272705-8.324997c-4.84082-0.059311-9.650146,0.869156-14.120361,2.728226
			C2440.233154,165.240036,2436.186768,167.991028,2432.812988,171.466019z M2490.565674,262.518158H2427.0979v206.290558h63.467773
			V262.518158z"/>
		<path class="st0" d="M1954.139282,238.685104c-5.116455-38.682236-19.655273-75.517059-42.334717-107.269379
			c-22.674194-31.751801-52.800415-57.450798-87.733276-74.839096c-34.930298-17.388306-73.595581-25.934528-112.60083-24.888107
			c-39.005371,1.046055-77.15686,11.65329-111.105103,30.889004c-33.947754,19.236248-62.654053,46.513058-83.596802,79.435379
			c-20.943359,32.922318-33.483276,70.483276-36.518066,109.384247c-3.0354,38.90097,3.526855,77.951843,19.110107,113.724182
			c15.583862,35.772339,39.711426,67.171387,70.265137,91.439819c23.392334-10.416046,48.968994-22.575653,76.134644-36.213531
			c-27.476562-13.163849-50.822876-33.601837-67.505127-59.095337c-16.682861-25.4935-26.064941-55.069519-27.12854-85.517853
			c-1.063477-30.448334,6.231812-60.60643,21.095337-87.202118c14.863525-26.595169,36.726807-48.612061,63.217651-63.66143
			c26.490234-15.048866,56.596924-22.555542,87.052124-21.70546c30.454712,0.850075,60.095337,10.025146,85.705322,26.528954
			c25.609497,16.503784,46.209595,39.706543,59.567261,67.089828c13.357788,27.38327,18.956177,57.901535,16.196655,88.243408
			C1909.119263,269.07251,1932.640869,253.536392,1954.139282,238.685104z M1956.146606,265.696045
			c-24.077759,17.808838-50.755981,36.257477-79.447021,54.860809c-12.812134,40.190674-40.377686,74.034027-77.143066,94.715668
			c-36.765991,20.68219-80.002075,26.666687-121.003662,16.749023c-31.446655,15.116669-61.282227,28.202667-88.602417,39.038177
			c36.337402,23.109528,78.257324,35.942352,121.304443,37.134064c43.046997,1.192749,85.612671-9.302185,123.172607-30.366272
			c37.558228-21.064026,68.712036-51.911194,90.141602-89.262939
			C1946.003906,351.213348,1956.914551,308.752625,1956.146606,265.696045z"/>
		<path class="st1" d="M1968.238403,71.851639c3.225586,0,6.377075-0.956535,9.062256-2.748337
			c2.680054-1.792328,4.772217-4.33886,6.006226-7.319187c1.234131-2.97979,1.557129-6.258839,0.92688-9.422417
			c-0.630249-3.163052-2.182129-6.069221-4.464844-8.34988c-2.277466-2.280663-5.185303-3.834114-8.34729-4.463333
			c-3.167236-0.629223-6.445801-0.306137-9.422363,0.927937c-2.981934,1.234608-5.529541,3.324593-7.319702,6.006725
			c-1.795532,2.681602-2.748901,5.835117-2.748901,9.060139c-0.005371,2.142422,0.418335,4.264721,1.234009,6.244537
			c0.820923,1.979824,2.018066,3.779026,3.538086,5.293827c1.514771,1.514786,3.310303,2.716019,5.291138,3.534325
			C1963.974854,71.434814,1966.093384,71.854294,1968.238403,71.851639z"/>
		<path class="st1" d="M1419.498413,348.935852c4.301758,0,8.506592-1.276428,12.082764-3.667786s6.362183-5.7901,8.005615-9.765625
			c1.642944-3.976074,2.069946-8.349884,1.225586-12.568542c-0.844238-4.218109-2.920898-8.090881-5.967529-11.128387
			c-3.046509-3.037537-6.926147-5.102112-11.146851-5.933655c-4.220825-0.831024-8.593628-0.391418-12.564331,1.264252
			c-3.970825,1.655151-7.361084,4.451691-9.741211,8.03476c-2.380859,3.583588-3.644531,7.792694-3.631348,12.094513
			c0.017456,5.75351,2.315674,11.265564,6.390259,15.327423C1408.225952,346.655182,1413.744873,348.935852,1419.498413,348.935852z
			"/>
		<path class="st1" d="M1786.597656,220.897964c23.480347-12.9758,46.342529-25.289566,68.407593-36.654724
			c0.820923,1.324112,1.700195,2.890808,2.627075,4.656662c-21.867554,11.430832-44.729736,23.789062-68.210083,36.78714
			L1786.597656,220.897964z M2091.577393,105.10817c-10.481689-18.162117-74.039429,1.124962-163.98938,43.164627
			c0.842163,1.390335,1.679077,2.8246,2.473511,4.281143c86.173462-41.024338,146.30957-60.774857,153.947266-44.885986
			c12.001709,20.787582-125.79126,122.78537-307.62854,227.8069c-181.839355,105.021088-339.095215,173.297302-351.10022,152.510773
			c-6.840942-12.357727,26.988647-46.033203,57.376587-72.823792c-43.760986,35.30838-66.71167,62.518463-59.164185,75.582733
			c17.124512,29.67981,182.876465-28.688324,367.386353-135.144165
			C1975.388672,249.145111,2108.790771,134.789047,2091.577393,105.10817z"/>
		<path class="st2" d="M1764.993408,238.155457c-3.888184-6.672501-5.342041-14.486893-4.112793-22.110641
			c1.22937-7.623734,5.065063-14.585403,10.853027-19.697571c5.787964-5.112137,13.169678-8.058578,20.887207-8.336624
			c7.717407-0.278076,15.29248,2.1297,21.433228,6.812302c6.140625,4.682098,10.467407,11.349823,12.241699,18.865494
			c1.774292,7.51622,0.887207,15.414856-2.511108,22.348984c-3.397705,6.934662-9.096069,12.476349-16.122925,15.679138
			c-7.026855,3.203293-14.947144,3.869598-22.4104,1.886063c-4.25-1.061417-8.238647-2.978729-11.72168-5.634903
			C1770.046143,245.311523,1767.141602,241.97261,1764.993408,238.155457z"/>
		<path class="st3" d="M2716.618896,190.49678c18.744141,0,31.741699-12.881546,31.741699-30.434052v-3.609543
			c0-16.420105-13.431885-29.51403-31.741699-29.51403c-18.384033,0-31.815918,12.951988-31.815918,29.51403v3.609543
			C2684.802979,177.615234,2697.943359,190.49678,2716.618896,190.49678z M2716.544678,185.825287
			c-15.868164,0-26.78418-10.828613-26.78418-25.621124v-3.963364c0-13.660126,11.201904-24.701126,26.78418-24.701126
			c15.730713,0,26.932617,10.899597,26.932617,24.701126v3.963364
			C2743.477295,174.996674,2732.344238,185.825287,2716.544678,185.825287z M2709.939941,174.642853V161.54892h7.897217
			l7.256104,13.093933h5.386475c-2.584717-4.53006-6.970215-12.24437-7.902344-13.801529
			c3.877197-1.061935,6.822021-4.459106,6.822021-9.484406c0-5.73288-4.306152-9.767212-10.555908-9.767212h-13.574951v33.053146
			H2709.939941z M2709.939941,145.41217h7.611084c4.311279,0,7.10791,2.122818,7.10791,6.086716
			c0,4.529526-3.373779,6.228104-7.536865,6.228104h-7.182129V145.41217z"/>
	</g>
	<path class="st3" d="M2073.060791,1466.720459"/>
	<g>
		<g>
			<g>
				<path class="st3" d="M66.154564,650.756775h219.143646l-1.91449,629.458557h315.897278l-0.392212,186.505127H63.847878
					L66.154564,650.756775z"/>
				<path class="st3" d="M872.437927,1124.018677l-85.918579,342.701782H484.651154h-0.000244l243.600739-815.963684h286.756775
					l241.317383,815.963684h-0.000244H955.500854L872.437927,1124.018677z M979.029602,1192.822998l-74.201965-134.084351
					L873.324524,829.10376l-32.883789,229.634888l-72.821289,134.084351l104.818481-68.804321L979.029602,1192.822998z"/>
				<path class="st3" d="M1263.893799,1308.190796l1.734863-657.434021h219.149536l-1.280396,606.146179
					c0.086304,13.986206,7.123657,20.9823,19.947876,20.9823h142.210449c13.992188,0,20.94104-6.996094,20.848755-20.9823
					l1.286377-606.146179h219.143677l-1.734741,657.434021c-0.919434,102.578735-56.522827,158.529663-155.606445,158.529663
					h-311.231201C1318.11084,1466.720459,1262.974365,1410.769531,1263.893799,1308.190796z"/>
				<path class="st3" d="M1962.095337,650.756775h208.655396l266.140625,433.627258l0.795898-433.627258h212.153564
					l-2.306641,815.963684h-184.175293l-289.469482-467.430847l-1.947266,467.430847h-212.153564L1962.095337,650.756775z"/>
				<path class="st3" d="M2723.076416,1308.190796l1.169678-498.901367
					c1.278809-107.244812,53.023926-158.532654,157.935547-158.532654h308.907227
					c104.905762,0,153.40625,51.287842,152.133545,158.532654l-0.409912,152.698547h-219.149658l1.077637-108.403809
					c-0.487793-16.319275-4.793701-20.982361-21.115967-20.982361h-139.880371c-15.154297,0-20.174561,4.663086-19.686768,20.982361
					l-1.331055,410.311829c-0.680176,16.319336,4.793701,20.982422,19.947998,20.982422h139.880371
					c16.316162,0,20.174561-4.663086,20.854736-20.982422l-0.097412-108.406738h219.149658l-0.408936,152.701538
					c-0.112793,107.23877-51.856934,158.529663-155.606689,158.529663h-308.901123
					C2772.633301,1466.720459,2722.969482,1415.429565,2723.076416,1308.190796z"/>
			</g>
			<path class="st3" d="M3419.008789,650.756775h219.143555l-0.817871,305.403137h224.977783l0.817871-305.403137h219.143555
				l-2.306641,815.963684h-219.143555l1.090576-324.05542h-224.977783l-1.090576,324.05542h-219.143799L3419.008789,650.756775z"/>
		</g>
		<polygon class="st2" points="955.500854,1466.720459 872.437927,1124.018677 786.519348,1466.720459 		"/>
	</g>
	<g>
		<path class="st3" d="M1382.400024,1611.061401h243.384277c53.826172,0,79.567871,25.743042,79.567871,79.567993v250.405884
			c0,53.824951-25.741699,79.567993-79.567871,79.567993h-243.384277V1611.061401z M1584.830811,1929.334473
			c8.189941,0,10.530151-2.341309,10.530151-10.531372v-205.941528c0-8.190063-2.34021-10.531372-10.530151-10.531372h-92.439453
			v227.004272H1584.830811z"/>
		<path class="st3" d="M1983.255981,1936.35498h-120.522583l-21.646851,84.248291h-112.331421l123.446899-409.54187h145.094971
			l124.617554,409.54187h-117.011719L1983.255981,1936.35498z M1961.022583,1848.595825l-38.027954-148.020508
			l-38.029175,148.020508H1961.022583z"/>
		<path class="st3" d="M2190.367188,1893.645508l-130.467529-282.584106h119.352051l66.696533,173.762207l66.696289-173.762207
			h118.182617l-130.46875,282.584106v126.957764h-109.991211V1893.645508z"/>
		<path class="st3" d="M2447.20459,1941.035278v-56.16626h109.991211v37.443726c0,8.191284,2.340332,10.531372,10.530273,10.531372
			h75.4729c8.191162,0,10.53125-2.340088,10.53125-10.531372V1886.625c0-6.436401-2.925293-8.191162-12.286133-10.531372
			l-108.821777-29.838013c-57.335693-15.796997-84.248291-25.74292-84.248291-84.248291v-71.37793
			c0-53.824951,25.74292-79.567993,79.567871-79.567993h149.191162c53.825195,0,79.568115,25.743042,79.568115,79.567993v52.070068
			h-109.991455v-33.347534c0-8.191284-2.340088-10.531372-10.53125-10.531372h-67.281738
			c-8.191162,0-10.531494,2.340088-10.531494,10.531372v31.592773c0,6.435181,1.754883,8.191162,12.286377,11.116699
			l108.821777,29.252563c57.335693,15.21167,84.248291,25.743042,84.248291,84.248413v75.4729
			c0,53.824951-25.743164,79.567993-79.568115,79.567993h-157.381104
			C2472.946289,2020.603271,2447.20459,1994.860229,2447.20459,1941.035278z"/>
	</g>
	<g>
		<g>
			<path class="st4" d="M1238.059082,2020.603027v-409.541382H63.847878c5.00618,10.006958,13.810913,23.731812,28.733528,37.355225
				c26.29612,24.00415,77.559692,52.618286,172.455215,52.618286h879.596436L1238.059082,2020.603027z"/>
			<path class="st2" d="M1127.202637,1808.194946l-17.645874-60.359863H520.201965
				c3.826599,6.579224,9.674622,14.585205,18.435181,22.541504c19.000793,17.251953,56.035461,37.818359,124.570251,37.818359
				H1127.202637z"/>
			<path class="st2" d="M1158.251099,1914.399048l-17.645996-60.359863H678.939697
				c3.826599,6.579224,9.674622,14.585205,18.437195,22.541504c18.998779,17.251953,56.0354,37.818359,124.57019,37.818359
				H1158.251099z"/>
			<path class="st2" d="M1189.299683,2020.603027l-17.646118-60.359863H837.677368
				c3.82666,6.579346,9.674683,14.585327,18.437256,22.541626c18.998779,17.251953,56.0354,37.818237,124.57019,37.818237
				H1189.299683z"/>
		</g>
		<g>
			<path class="st4" d="M2908.0625,2020.603027v-409.541382h1174.211182
				c-5.006104,10.006958-13.810791,23.731812-28.733398,37.355225c-26.296143,24.00415-77.559814,52.618286-172.455322,52.618286
				h-879.596436L2908.0625,2020.603027z"/>
			<path class="st2" d="M3018.918945,1808.194946l17.645996-60.359863h589.354736
				c-3.82666,6.579224-9.674561,14.585205-18.435303,22.541504c-19.000732,17.251953-56.0354,37.818359-124.570068,37.818359
				H3018.918945z"/>
			<path class="st2" d="M2987.870605,1914.399048l17.645996-60.359863h461.665283
				c-3.82666,6.579224-9.674561,14.585205-18.437256,22.541504c-18.998779,17.251953-56.0354,37.818359-124.570068,37.818359
				H2987.870605z"/>
			<path class="st2" d="M2956.822021,2020.603027l17.645996-60.359863h333.976318
				c-3.82666,6.579346-9.674805,14.585327-18.437256,22.541626c-18.998779,17.251953-56.0354,37.818237-124.570312,37.818237
				H2956.822021z"/>
		</g>
	</g>
</g>
</svg>
