<?xml version="1.0" encoding="utf-8"?>
<!-- Generator: Adobe Illustrator 26.4.1, SVG Export Plug-In . SVG Version: 6.00 Build 0)  -->
<svg version="1.1" id="Layer_1" xmlns="http://www.w3.org/2000/svg" xmlns:xlink="http://www.w3.org/1999/xlink" x="0px" y="0px"
	 viewBox="0 0 650 784" style="enable-background:new 0 0 650 784;" xml:space="preserve">
<style type="text/css">
	.st0{opacity:0.6;fill:url(#SVGID_1_);enable-background:new    ;}
	.st1{fill:#3E3563;}
	.st2{fill:#E01E5A;}
	.st3{fill:#36C5F0;}
	.st4{fill:#2EB67D;}
	.st5{fill:#ECB22E;}
	.st6{fill-rule:evenodd;clip-rule:evenodd;fill:#775AF6;}
	.st7{fill:#1DA1F2;}
	.st8{fill:#5865F2;}
	.st9{fill-rule:evenodd;clip-rule:evenodd;fill:#EA4B71;}
	.st10{fill:#FFF9AE;}
	.st11{fill:#00AEEF;}
	.st12{fill:#00A94F;}
	.st13{fill:#F15D22;}
	.st14{fill:#E31B23;}
	.st15{fill-rule:evenodd;clip-rule:evenodd;fill:#FFFFFF;}
	.st16{opacity:0.3;fill:url(#SVGID_00000081645932176113273550000011887900800805470399_);enable-background:new    ;}
	.st17{fill:url(#SVGID_00000050641944117680157370000011542708865928558760_);}
	.st18{fill-rule:evenodd;clip-rule:evenodd;fill:#F1F2F3;}
	.st19{fill:#F1F2F3;}
	.st20{fill:#FF4F00;}
	.st21{fill:#FFFDF9;}
</style>
<radialGradient id="SVGID_1_" cx="325.0142" cy="392" r="249.54" gradientUnits="userSpaceOnUse">
	<stop  offset="9.658568e-02" style="stop-color:#69618F"/>
	<stop  offset="0.9229" style="stop-color:#21174E"/>
</radialGradient>
<path class="st0" d="M279.1,377.1l19.1-11.9l1,1.6l-19.1,11.9L279.1,377.1z M213.5,271.6l19.1-11.9l-1-1.6L212.5,270L213.5,271.6z
	 M193,238.7l19.1-11.9l-1-1.6L192,237L193,238.7z M187.9,230.4l19.1-11.9l-1-1.6l-19.1,11.9L187.9,230.4z M190.5,234.6l19.1-11.9
	l-1-1.6l-19.1,11.9L190.5,234.6z M185.3,226.3l19.1-11.9l-1-1.6l-19.1,11.9L185.3,226.3z M177.7,214l19.1-11.9l-1-1.6l-19.1,11.9
	L177.7,214z M180.2,218.1l19.1-11.9l-1-1.6l-19.1,11.9L180.2,218.1z M175.1,209.8l19.1-11.9l-1-1.6l-19.1,11.9L175.1,209.8z
	 M210.9,267.5l19.1-11.9l-1-1.6l-19.1,11.9L210.9,267.5z M205.8,259.3l19.1-11.9l-1-1.6l-19.1,11.9L205.8,259.3z M208.4,263.4
	l19.1-11.9l-1-1.6l-19.1,11.9L208.4,263.4z M203.3,255.1l19.1-11.9l-1-1.6l-19.1,11.9L203.3,255.1z M200.7,251l19.1-11.9l-1-1.6
	l-19.1,11.9L200.7,251z M198.1,246.9l19.1-11.9l-1-1.6l-19.1,11.9L198.1,246.9z M195.6,242.8l19.1-11.9l-1-1.6l-19.1,11.9
	L195.6,242.8z M182.8,222.2l19.1-11.9l-1-1.6l-19.1,11.9L182.8,222.2z M146.9,164.5l19.1-11.9l-1-1.6l-19.1,11.9L146.9,164.5z
	 M144.4,160.4l19.1-11.9l-1-1.6l-19.1,11.9L144.4,160.4z M149.5,168.6l19.1-11.9l-1-1.6L148.5,167L149.5,168.6z M152.1,172.8
	l19.1-11.9l-1-1.6L151,171.1L152.1,172.8z M275,370.5l19.1-11.9l-1-1.6l-19.1,11.9L275,370.5z M160.9,144.4l-1-1.6l-19.1,11.9l1,1.6
	L160.9,144.4z M162.3,189.2l19.1-11.9l-1-1.6l-19.1,11.9L162.3,189.2z M170,201.6l19.1-11.9l-1-1.6L169,200L170,201.6z M164.9,193.4
	l19.1-11.9l-1-1.6l-19.1,11.9L164.9,193.4z M154.6,176.9l19.1-11.9l-1-1.6l-19.1,11.9L154.6,176.9z M167.4,197.5l19.1-11.9l-1-1.6
	l-19.1,11.9L167.4,197.5z M157.2,181l19.1-11.9l-1-1.6l-19.1,11.9L157.2,181z M159.7,185.1l19.1-11.9l-1-1.6l-19.1,11.9L159.7,185.1
	z M172.5,205.7l19.1-11.9l-1-1.6l-19.1,11.9L172.5,205.7z M262.2,349.9l19.1-11.9l-1-1.6l-19.1,11.9L262.2,349.9z M257,341.6
	l19.1-11.9l-1-1.6L256,340L257,341.6z M259.6,345.8l19.1-11.9l-1-1.6l-19.1,11.9L259.6,345.8z M277.5,374.6l19.1-11.9l-1-1.6
	L276.5,373L277.5,374.6z M249.4,329.3l19.1-11.9l-1-1.6l-19.1,11.9L249.4,329.3z M246.8,325.2l19.1-11.9l-1-1.6l-19.1,11.9
	L246.8,325.2z M254.5,337.5l19.1-11.9l-1-1.6l-19.1,11.9L254.5,337.5z M269.8,362.2l19.1-11.9l-1-1.6l-19.1,11.9L269.8,362.2z
	 M264.7,354l19.1-11.9l-1-1.6l-19.1,11.9L264.7,354z M272.4,366.4l19.1-11.9l-1-1.6l-19.1,11.9L272.4,366.4z M267.3,358.1l19.1-11.9
	l-1-1.6l-19.1,11.9L267.3,358.1z M282.6,382.8l19.1-11.9l-1-1.6l-19.1,11.9L282.6,382.8z M251.9,333.4l19.1-11.9l-1-1.6l-19.1,11.9
	L251.9,333.4z M226.3,292.2l19.1-11.9l-1-1.6l-19.1,11.9L226.3,292.2z M231.4,300.5l19.1-11.9l-1-1.6l-19.1,11.9L231.4,300.5z
	 M223.7,288.1l19.1-11.9l-1-1.6l-19.1,11.9L223.7,288.1z M228.9,296.3l19.1-11.9l-1-1.6l-19.1,11.9L228.9,296.3z M216.1,275.7
	l19.1-11.9l-1-1.6L215,274.1L216.1,275.7z M218.6,279.9l19.1-11.9l-1-1.6l-19.1,11.9L218.6,279.9z M221.2,284l19.1-11.9l-1-1.6
	l-19.1,11.9L221.2,284z M234,304.6l19.1-11.9l-1-1.6L233,302.9L234,304.6z M239.1,312.8l19.1-11.9l-1-1.6l-19.1,11.9L239.1,312.8z
	 M244.2,321.1l19.1-11.9l-1-1.6l-19.1,11.9L244.2,321.1z M241.7,316.9l19.1-11.9l-1-1.6l-19.1,11.9L241.7,316.9z M236.5,308.7
	l19.1-11.9l-1-1.6L235.5,307L236.5,308.7z M416.4,304l-19.1-11.9l-1,1.6l19.1,11.9L416.4,304z M419,299.8l-19.1-11.9l-1,1.6
	l19.1,11.9L419,299.8z M413.8,308.1l-19.1-11.9l-1,1.6l19.1,11.9L413.8,308.1z M421.5,295.7l-19.1-11.9l-1,1.6l19.1,11.9
	L421.5,295.7z M408.7,316.3l-19.1-11.9l-1,1.6l19.1,11.9L408.7,316.3z M411.3,312.2l-19.1-11.9l-1,1.6l19.1,11.9L411.3,312.2z
	 M370.3,378.1l-19.1-11.9l-1,1.6l19.1,11.9L370.3,378.1z M434.3,275.1l-19.1-11.9l-1,1.6l19.1,11.9L434.3,275.1z M403.6,324.6
	l-19.1-11.9l-1,1.6l19.1,11.9L403.6,324.6z M426.6,287.5l-19.1-11.9l-1,1.6l19.1,11.9L426.6,287.5z M372.9,374l-19.1-11.9l-1,1.6
	l19.1,11.9L372.9,374z M424.1,291.6l-19.1-11.9l-1,1.6l19.1,11.9L424.1,291.6z M431.8,279.2l-19.1-11.9l-1,1.6l19.1,11.9
	L431.8,279.2z M401,328.7l-19.1-11.9l-1,1.6l19.1,11.9L401,328.7z M398.5,332.8l-19.1-11.9l-1,1.6l19.1,11.9L398.5,332.8z
	 M393.4,341l-19.1-11.9l-1,1.6l19.1,11.9L393.4,341z M395.9,336.9L376.8,325l-1,1.6l19.1,11.9L395.9,336.9z M436.9,271l-19.1-11.9
	l-1,1.6l19.1,11.9L436.9,271z M406.2,320.4L387,308.5l-1,1.6l19.1,11.9L406.2,320.4z M383.1,357.5L364,345.6l-1,1.6l19.1,11.9
	L383.1,357.5z M375.4,369.9L356.3,358l-1,1.6l19.1,11.9L375.4,369.9z M380.5,361.6l-19.1-11.9l-1,1.6l19.1,11.9L380.5,361.6z
	 M390.8,345.1l-19.1-11.9l-1,1.6l19.1,11.9L390.8,345.1z M378,365.7l-19.1-11.9l-1,1.6l19.1,11.9L378,365.7z M385.7,353.4
	l-19.1-11.9l-1,1.6l19.1,11.9L385.7,353.4z M388.2,349.3l-19.1-11.9l-1,1.6l19.1,11.9L388.2,349.3z M429.2,283.4l-19.1-11.9l-1,1.6
	l19.1,11.9L429.2,283.4z M488.1,188.6L469,176.7l-1,1.6l19.1,11.9L488.1,188.6z M485.5,192.7l-19.1-11.9l-1,1.6l19.1,11.9
	L485.5,192.7z M475.3,209.2l-19.1-11.9l-1,1.6l19.1,11.9L475.3,209.2z M493.2,180.4l-19.1-11.9l-1,1.6l19.1,11.9L493.2,180.4z
	 M477.8,205.1l-19.1-11.9l-1,1.6l19.1,11.9L477.8,205.1z M483,196.9L463.8,185l-1,1.6l19.1,11.9L483,196.9z M480.4,201l-19.1-11.9
	l-1,1.6l19.1,11.9L480.4,201z M490.6,184.5l-19.1-11.9l-1,1.6l19.1,11.9L490.6,184.5z M506,159.8l-19.1-11.9l-1,1.6l19.1,11.9
	L506,159.8z M495.8,176.3l-19.1-11.9l-1,1.6l19.1,11.9L495.8,176.3z M503.5,163.9L484.3,152l-1,1.6l19.1,11.9L503.5,163.9z
	 M508.6,155.7l-19.1-11.9l-1,1.6l19.1,11.9L508.6,155.7z M500.9,168l-19.1-11.9l-1,1.6l19.1,11.9L500.9,168z M498.3,172.2
	l-19.1-11.9l-1,1.6l19.1,11.9L498.3,172.2z M444.6,258.6l-19.1-11.9l-1,1.6l19.1,11.9L444.6,258.6z M454.8,242.2l-19.1-11.9l-1,1.6
	l19.1,11.9L454.8,242.2z M447.1,254.5L428,242.6l-1,1.6l19.1,11.9L447.1,254.5z M452.2,246.3l-19.1-11.9l-1,1.6l19.1,11.9
	L452.2,246.3z M449.7,250.4l-19.1-11.9l-1,1.6l19.1,11.9L449.7,250.4z M442,262.8l-19.1-11.9l-1,1.6l19.1,11.9L442,262.8z
	 M439.4,266.9L420.3,255l-1,1.6l19.1,11.9L439.4,266.9z M457.4,238.1l-19.1-11.9l-1,1.6l19.1,11.9L457.4,238.1z M465,225.7
	l-19.1-11.9l-1,1.6l19.1,11.9L465,225.7z M467.6,221.6l-19.1-11.9l-1,1.6l19.1,11.9L467.6,221.6z M470.2,217.5L451,205.6l-1,1.6
	l19.1,11.9L470.2,217.5z M459.9,233.9L440.8,222l-1,1.6l19.1,11.9L459.9,233.9z M472.7,213.3l-19.1-11.9l-1,1.6l19.1,11.9
	L472.7,213.3z M462.5,229.8l-19.1-11.9l-1,1.6l19.1,11.9L462.5,229.8z M393,442.4l-19.1,11.9l1,1.6L394,444L393,442.4z M464.7,557.7
	l-19.1,11.9l1,1.6l19.1-11.9L464.7,557.7z M459.5,549.4l-19.1,11.9l1,1.6l19.1-11.9L459.5,549.4z M462.1,553.6L443,565.5l1,1.6
	l19.1-11.9L462.1,553.6z M467.2,561.8l-19.1,11.9l1,1.6l19.1-11.9L467.2,561.8z M469.8,565.9l-19.1,11.9l1,1.6l19.1-11.9
	L469.8,565.9z M472.3,570l-19.1,11.9l1,1.6l19.1-11.9L472.3,570z M372.5,409.4l-19.1,11.9l1,1.6l19.1-11.9L372.5,409.4z M457,545.3
	l-19.1,11.9l1,1.6L458,547L457,545.3z M446.7,528.9l-19.1,11.9l1,1.6l19.1-11.9L446.7,528.9z M444.2,524.7L425,536.6l1,1.6
	l19.1-11.9L444.2,524.7z M449.3,533l-19.1,11.9l1,1.6l19.1-11.9L449.3,533z M451.9,537.1L432.7,549l1,1.6l19.1-11.9L451.9,537.1z
	 M474.9,574.2l-19.1,11.9l1,1.6l19.1-11.9L474.9,574.2z M490.3,598.9l-19.1,11.9l1,1.6l19.1-11.9L490.3,598.9z M500.5,615.3
	l-19.1,11.9l1,1.6l19.1-11.9L500.5,615.3z M503.1,619.5l-19.1,11.9l1,1.6l19.1-11.9L503.1,619.5z M497.9,611.2l-19.1,11.9l1,1.6
	l19.1-11.9L497.9,611.2z M505.6,623.6l-19.1,11.9l1,1.6l19.1-11.9L505.6,623.6z M495.4,607.1L476.3,619l1,1.6l19.1-11.9L495.4,607.1
	z M489.1,639.6l1,1.6l19.1-11.9l-1-1.6L489.1,639.6z M441.6,520.6l-19.1,11.9l1,1.6l19.1-11.9L441.6,520.6z M482.6,586.5l-19.1,11.9
	l1,1.6l19.1-11.9L482.6,586.5z M485.1,590.6L466,602.5l1,1.6l19.1-11.9L485.1,590.6z M480,582.4l-19.1,11.9l1,1.6L481,584L480,582.4
	z M487.7,594.8l-19.1,11.9l1,1.6l19.1-11.9L487.7,594.8z M492.8,603l-19.1,11.9l1,1.6l19.1-11.9L492.8,603z M477.5,578.3l-19.1,11.9
	l1,1.6l19.1-11.9L477.5,578.3z M454.4,541.2l-19.1,11.9l1,1.6l19.1-11.9L454.4,541.2z M398.1,450.6L379,462.5l1,1.6l19.1-11.9
	L398.1,450.6z M395.5,446.5l-19.1,11.9l1,1.6l19.1-11.9L395.5,446.5z M439.1,516.5l-19.1,11.9l1,1.6l19.1-11.9L439.1,516.5z
	 M400.7,454.7l-19.1,11.9l1,1.6l19.1-11.9L400.7,454.7z M387.8,434.1L368.7,446l1,1.6l19.1-11.9L387.8,434.1z M403.2,458.8
	l-19.1,11.9l1,1.6l19.1-11.9L403.2,458.8z M380.2,421.8L361,433.7l1,1.6l19.1-11.9L380.2,421.8z M385.3,430l-19.1,11.9l1,1.6
	l19.1-11.9L385.3,430z M375,413.5l-19.1,11.9l1,1.6l19.1-11.9L375,413.5z M377.6,417.6l-19.1,11.9l1,1.6l19.1-11.9L377.6,417.6z
	 M405.8,463l-19.1,11.9l1,1.6l19.1-11.9L405.8,463z M382.7,425.9l-19.1,11.9l1,1.6l19.1-11.9L382.7,425.9z M390.4,438.2l-19.1,11.9
	l1,1.6l19.1-11.9L390.4,438.2z M431.4,504.1L412.2,516l1,1.6l19.1-11.9L431.4,504.1z M428.8,500l-19.1,11.9l1,1.6l19.1-11.9
	L428.8,500z M408.3,467.1L389.2,479l1,1.6l19.1-11.9L408.3,467.1z M436.5,512.4l-19.1,11.9l1,1.6l19.1-11.9L436.5,512.4z
	 M423.7,491.8l-19.1,11.9l1,1.6l19.1-11.9L423.7,491.8z M433.9,508.3l-19.1,11.9l1,1.6l19.1-11.9L433.9,508.3z M426.3,495.9
	l-19.1,11.9l1,1.6l19.1-11.9L426.3,495.9z M416,479.4l-19.1,11.9l1,1.6l19.1-11.9L416,479.4z M413.4,475.3l-19.1,11.9l1,1.6
	l19.1-11.9L413.4,475.3z M421.1,487.7L402,499.6l1,1.6l19.1-11.9L421.1,487.7z M410.9,471.2l-19.1,11.9l1,1.6l19.1-11.9L410.9,471.2
	z M418.6,483.5l-19.1,11.9l1,1.6l19.1-11.9L418.6,483.5z M144,624.2l19.1,11.9l1-1.6L145,622.6L144,624.2z M141.4,628.3l19.1,11.9
	l1-1.6l-19.1-11.9L141.4,628.3z M269.5,422.4l19.1,11.9l1-1.6l-19.1-11.9L269.5,422.4z M208,521.2l19.1,11.9l1-1.6L209,519.6
	L208,521.2z M213.1,513l19.1,11.9l1-1.6l-19.1-11.9L213.1,513z M215.7,508.9l19.1,11.9l1-1.6l-19.1-11.9L215.7,508.9z M231,484.2
	l19.1,11.9l1-1.6l-19.1-11.9L231,484.2z M218.2,504.8l19.1,11.9l1-1.6l-19.1-11.9L218.2,504.8z M220.8,500.6l19.1,11.9l1-1.6
	L221.8,499L220.8,500.6z M225.9,492.4l19.1,11.9l1-1.6l-19.1-11.9L225.9,492.4z M228.5,488.3l19.1,11.9l1-1.6l-19.1-11.9
	L228.5,488.3z M223.4,496.5l19.1,11.9l1-1.6l-19.1-11.9L223.4,496.5z M210.6,517.1l19.1,11.9l1-1.6l-19.1-11.9L210.6,517.1z
	 M192.6,545.9l19.1,11.9l1-1.6l-19.1-11.9L192.6,545.9z M190.1,550.1l19.1,11.9l1-1.6l-19.1-11.9L190.1,550.1z M205.4,525.4
	l19.1,11.9l1-1.6l-19.1-11.9L205.4,525.4z M187.5,554.2l19.1,11.9l1-1.6l-19.1-11.9L187.5,554.2z M195.2,541.8l19.1,11.9l1-1.6
	l-19.1-11.9L195.2,541.8z M197.8,537.7l19.1,11.9l1-1.6l-19.1-11.9L197.8,537.7z M202.9,529.5l19.1,11.9l1-1.6l-19.1-11.9
	L202.9,529.5z M200.3,533.6l19.1,11.9l1-1.6l-19.1-11.9L200.3,533.6z M249,455.3l19.1,11.9l1-1.6L250,453.7L249,455.3z M261.8,434.7
	l19.1,11.9l1-1.6l-19.1-11.9L261.8,434.7z M146.5,620.1l19.1,11.9l1-1.6l-19.1-11.9L146.5,620.1z M259.2,438.9l19.1,11.9l1-1.6
	l-19.1-11.9L259.2,438.9z M266.9,426.5l19.1,11.9l1-1.6l-19.1-11.9L266.9,426.5z M274.6,414.1l19.1,11.9l1-1.6l-19.1-11.9
	L274.6,414.1z M272,418.3l19.1,11.9l1-1.6L273,416.6L272,418.3z M277.1,410l19.1,11.9l1-1.6l-19.1-11.9L277.1,410z M256.6,443
	l19.1,11.9l1-1.6l-19.1-11.9L256.6,443z M251.5,451.2l19.1,11.9l1-1.6l-19.1-11.9L251.5,451.2z M241.3,467.7l19.1,11.9l1-1.6
	L242.3,466L241.3,467.7z M238.7,471.8l19.1,11.9l1-1.6l-19.1-11.9L238.7,471.8z M236.2,475.9l19.1,11.9l1-1.6l-19.1-11.9
	L236.2,475.9z M243.8,463.6l19.1,11.9l1-1.6l-19.1-11.9L243.8,463.6z M254.1,447.1l19.1,11.9l1-1.6l-19.1-11.9L254.1,447.1z
	 M233.6,480l19.1,11.9l1-1.6l-19.1-11.9L233.6,480z M185,558.3l19.1,11.9l1-1.6L186,556.7L185,558.3z M246.4,459.4l19.1,11.9l1-1.6
	l-19.1-11.9L246.4,459.4z M264.3,430.6l19.1,11.9l1-1.6L265.4,429L264.3,430.6z M149.1,616l19.1,11.9l1-1.6l-19.1-11.9L149.1,616z
	 M151.7,611.9l19.1,11.9l1-1.6l-19.1-11.9L151.7,611.9z M169.6,583l19.1,11.9l1-1.6l-19.1-11.9L169.6,583z M167,587.1l19.1,11.9
	l1-1.6l-19.1-11.9L167,587.1z M164.5,591.3l19.1,11.9l1-1.6l-19.1-11.9L164.5,591.3z M154.2,607.7l19.1,11.9l1-1.6l-19.1-11.9
	L154.2,607.7z M172.2,578.9l19.1,11.9l1-1.6l-19.1-11.9L172.2,578.9z M159.4,599.5l19.1,11.9l1-1.6l-19.1-11.9L159.4,599.5z
	 M161.9,595.4l19.1,11.9l1-1.6l-19.1-11.9L161.9,595.4z M156.8,603.6l19.1,11.9l1-1.6L157.8,602L156.8,603.6z M177.3,570.7
	l19.1,11.9l1-1.6L178.3,569L177.3,570.7z M182.4,562.4l19.1,11.9l1-1.6l-19.1-11.9L182.4,562.4z M174.7,574.8l19.1,11.9l1-1.6
	l-19.1-11.9L174.7,574.8z M179.8,566.5l19.1,11.9l1-1.6l-19.1-11.9L179.8,566.5z M336.3,221.3h-22.5v1.9h22.5V221.3z M336.3,197
	h-22.5v1.9h22.5V197z M336.3,148.5h-22.5v1.9h22.5V148.5z M336.3,192.2h-22.5v1.9h22.5V192.2z M336.3,201.9h-22.5v1.9h22.5V201.9z
	 M336.3,352.2h-22.5v1.9h22.5V352.2z M336.3,172.8h-22.5v1.9h22.5V172.8z M336.3,342.5h-22.5v1.9h22.5V342.5z M336.3,211.6h-22.5
	v1.9h22.5V211.6z M336.3,347.4h-22.5v1.9h22.5V347.4z M336.3,206.7h-22.5v1.9h22.5V206.7z M336.3,216.4h-22.5v1.9h22.5V216.4z
	 M336.3,158.2h-22.5v1.9h22.5V158.2z M336.3,163.1h-22.5v1.9h22.5V163.1z M336.3,366.8h-22.5v1.9h22.5V366.8z M336.3,187.3h-22.5
	v1.9h22.5V187.3z M336.3,167.9h-22.5v1.9h22.5V167.9z M336.3,361.9h-22.5v1.9h22.5V361.9z M336.3,357.1h-22.5v1.9h22.5V357.1z
	 M336.3,182.5h-22.5v1.9h22.5V182.5z M336.3,177.6h-22.5v1.9h22.5V177.6z M336.3,153.4h-22.5v1.9h22.5V153.4z M336.3,255.2h-22.5
	v1.9h22.5V255.2z M336.3,260.1h-22.5v1.9h22.5V260.1z M336.3,264.9h-22.5v1.9h22.5V264.9z M336.3,298.9h-22.5v1.9h22.5V298.9z
	 M336.3,308.6h-22.5v1.9h22.5V308.6z M336.3,303.7h-22.5v1.9h22.5V303.7z M336.3,274.6h-22.5v1.9h22.5V274.6z M336.3,294h-22.5v1.9
	h22.5V294z M336.3,284.3h-22.5v1.9h22.5V284.3z M336.3,279.5h-22.5v1.9h22.5V279.5z M336.3,269.8h-22.5v1.9h22.5V269.8z
	 M336.3,289.2h-22.5v1.9h22.5V289.2z M336.3,337.7h-22.5v1.9h22.5V337.7z M336.3,240.7h-22.5v1.9h22.5V240.7z M336.3,332.8h-22.5
	v1.9h22.5V332.8z M336.3,313.4h-22.5v1.9h22.5V313.4z M336.3,231h-22.5v1.9h22.5V231z M336.3,226.1h-22.5v1.9h22.5V226.1z
	 M336.3,235.8h-22.5v1.9h22.5V235.8z M336.3,250.4h-22.5v1.9h22.5V250.4z M336.3,318.3h-22.5v1.9h22.5V318.3z M336.3,328h-22.5v1.9
	h22.5V328z M336.3,323.1h-22.5v1.9h22.5V323.1z M336.3,245.5h-22.5v1.9h22.5V245.5z M313.7,504.5h22.5v-1.9h-22.5V504.5z
	 M313.7,562.7h22.5v-1.9h-22.5V562.7z M313.7,456h22.5v-1.9h-22.5V456z M313.7,451.2h22.5v-1.9h-22.5V451.2z M313.7,567.6h22.5v-1.9
	h-22.5V567.6z M313.7,460.9h22.5v-1.9h-22.5V460.9z M313.7,446.3h22.5v-1.9h-22.5V446.3z M313.7,441.5h22.5v-1.9h-22.5V441.5z
	 M313.7,470.6h22.5v-1.9h-22.5V470.6z M313.7,426.9h22.5V425h-22.5V426.9z M313.7,465.7h22.5v-1.9h-22.5V465.7z M313.7,431.8h22.5
	v-1.9h-22.5V431.8z M313.7,436.6h22.5v-1.9h-22.5V436.6z M313.7,557.9h22.5v-1.9h-22.5V557.9z M313.7,577.3h22.5v-1.9h-22.5V577.3z
	 M313.7,422.1h22.5v-1.9h-22.5V422.1z M313.7,596.7h22.5v-1.9h-22.5V596.7z M313.7,572.4h22.5v-1.9h-22.5V572.4z M313.7,582.1h22.5
	v-1.9h-22.5V582.1z M313.7,587h22.5V585h-22.5V587z M313.7,601.5h22.5v-1.9h-22.5V601.5z M313.7,625.8h22.5v-1.9h-22.5V625.8z
	 M313.7,635.5h22.5v-1.9h-22.5V635.5z M313.7,606.4h22.5v-1.9h-22.5V606.4z M313.7,620.9h22.5V619h-22.5V620.9z M313.7,630.6h22.5
	v-1.9h-22.5V630.6z M313.7,611.2h22.5v-1.9h-22.5V611.2z M313.7,616.1h22.5v-1.9h-22.5V616.1z M313.7,591.8h22.5v-1.9h-22.5V591.8z
	 M313.7,509.4h22.5v-1.9h-22.5V509.4z M313.7,494.8h22.5v-1.9h-22.5V494.8z M313.7,499.7h22.5v-1.9h-22.5V499.7z M313.7,519.1h22.5
	v-1.9h-22.5V519.1z M313.7,553h22.5v-1.9h-22.5V553z M313.7,480.3h22.5v-1.9h-22.5V480.3z M313.7,490h22.5V488h-22.5V490z
	 M313.7,475.4h22.5v-1.9h-22.5V475.4z M313.7,523.9h22.5V522h-22.5V523.9z M313.7,485.1h22.5v-1.9h-22.5V485.1z M313.7,514.2h22.5
	v-1.9h-22.5V514.2z M313.7,543.3h22.5v-1.9h-22.5V543.3z M313.7,538.5h22.5v-1.9h-22.5V538.5z M313.7,417.2h22.5v-1.9h-22.5V417.2z
	 M313.7,548.2h22.5v-1.9h-22.5V548.2z M313.7,533.6h22.5v-1.9h-22.5V533.6z M313.7,528.8h22.5v-1.9h-22.5V528.8z M412.8,407.4l1.9,0
	l0.1-22.5l-1.9,0L412.8,407.4z M432.2,407.5l1.9,0l0.1-22.5l-1.9,0L432.2,407.5z M437,407.5l1.9,0L439,385l-1.9,0L437,407.5z
	 M398.2,407.3l1.9,0l0.1-22.5l-1.9,0L398.2,407.3z M407.9,407.4l1.9,0l0.1-22.5l-1.9,0L407.9,407.4z M388.5,407.3l1.9,0l0.1-22.5
	l-1.9,0L388.5,407.3z M403.1,407.4l1.9,0l0.1-22.5l-1.9,0L403.1,407.4z M422.5,407.4l1.9,0l0.1-22.5l-1.9,0L422.5,407.4z
	 M393.4,407.3l1.9,0l0.1-22.5l-1.9,0L393.4,407.3z M427.3,407.4l1.9,0l0.1-22.5l-1.9,0L427.3,407.4z M417.6,407.4l1.9,0l0.1-22.5
	l-1.9,0L417.6,407.4z M461.3,407.6l1.9,0l0.1-22.5l-1.9,0L461.3,407.6z M548.6,407.8l1.9,0l0.1-22.5l-1.9,0L548.6,407.8z
	 M543.7,407.8l1.9,0l0.1-22.5l-1.9,0L543.7,407.8z M538.9,407.8l1.9,0l0.1-22.5l-1.9,0L538.9,407.8z M495.2,407.7l1.9,0l0.1-22.5
	l-1.9,0L495.2,407.7z M524.3,407.8l1.9,0l0.1-22.5l-1.9,0L524.3,407.8z M529.2,407.8l1.9,0l0.1-22.5l-1.9,0L529.2,407.8z
	 M485.5,407.6l1.9,0l0.1-22.5l-1.9,0L485.5,407.6z M534,407.8l1.9,0l0.1-22.5l-1.9,0L534,407.8z M490.4,407.6l1.9,0l0.1-22.5l-1.9,0
	L490.4,407.6z M568,407.9l1.9,0l0.1-22.5l-1.9,0L568,407.9z M553.4,407.8l1.9,0l0.1-22.5l-1.9,0L553.4,407.8z M504.9,407.7l1.9,0
	l0.1-22.5l-1.9,0L504.9,407.7z M572.9,385.4l-0.1,22.5l1.9,0l0.1-22.5L572.9,385.4z M500.1,407.7l1.9,0l0.1-22.5l-1.9,0L500.1,407.7
	z M558.3,407.9l1.9,0l0.1-22.5l-1.9,0L558.3,407.9z M563.1,407.9l1.9,0l0.1-22.5l-1.9,0L563.1,407.9z M466.1,407.6l1.9,0l0.1-22.5
	l-1.9,0L466.1,407.6z M446.7,407.5l1.9,0l0.1-22.5l-1.9,0L446.7,407.5z M383.7,407.3l1.9,0l0.1-22.5l-1.9,0L383.7,407.3z
	 M456.4,407.5l1.9,0l0.1-22.5l-1.9,0L456.4,407.5z M451.6,407.5l1.9,0l0.1-22.5l-1.9,0L451.6,407.5z M378.8,407.3l1.9,0l0.1-22.5
	l-1.9,0L378.8,407.3z M441.9,407.5l1.9,0l0.1-22.5l-1.9,0L441.9,407.5z M374,407.3l1.9,0l0.1-22.5l-1.9,0L374,407.3z M371.1,407.3
	l0.1-22.5l-1.9,0l-0.1,21l-18.4,11.4l1,1.6l18.6-11.6L371.1,407.3z M475.8,407.6l1.9,0l0.1-22.5l-1.9,0L475.8,407.6z M514.6,407.7
	l1.9,0l0.1-22.5l-1.9,0L514.6,407.7z M519.5,407.7l1.9,0l0.1-22.5l-1.9,0L519.5,407.7z M509.8,407.7l1.9,0l0.1-22.5l-1.9,0
	L509.8,407.7z M471,407.6l1.9,0l0.1-22.5l-1.9,0L471,407.6z M480.7,407.6l1.9,0l0.1-22.5l-1.9,0L480.7,407.6z M361.3,407.2l-12,7.5
	l-1-1.6l11.2-7l0-3.4l-2.9,1.8l0,2.7l-1.9,0l0-1.5l-2.3,1.4l-0.9,1.5l-0.7-0.4l-2.8,1.7l1.9,1.2l-1,1.6l-11.7-7.3l0,1.7l-0.9,0v0.4
	H335l12.3,7.7l-1,1.6l-10-6.2v1.8h-22.5v-1.9H336l-4.7-2.9h-6.8l0,0.1l-1.9,0l0-0.1h-2.9l0,0.1l-1.9,0l0-0.1h-1.3l-13.3,8.3l-1-1.6
	l10.7-6.7l0-3.4l-2.9,1.8l0,1.7l-1.9,0l0-0.5l-6.8,4.2l1.2,0.8l-1,1.6l-10.9-6.8l0,0.7l-1.9,0l0-1.9l-2.9-1.8l0,3.4l14.2,8.8l-1,1.6
	l-18-11.2l0,1l-1.9,0l0-22.5l1.9,0l0,19.3l2.9,1.8l0-3.4l-1.5-0.9l1-1.6l0.5,0.3l0-15.4l0.9,0l13.1-8.2l0.9-1.5l0.7,0.4l2.8-1.7
	l-1.9-1.2l1-1.6l16.1,10h11.2l-0.8-1.2l2.7-1.7h-8.6l1.1,0.7l-1,1.6l-3.7-2.3h-4.4v-1.9h1.3l-12.3-7.7l1-1.6l10,6.2v-1.8h22.5v1.9
	H314l4.7,2.9h14.9l13.3-8.3l1,1.6l-11.6,7.2v1.3h-2.1l-4.7,2.9h5.5l13.8-8.6l-1.2-0.8l1-1.6l19.1,11.9l-1,1.6l-16.5-10.2l0.2,0.4
	l-2.6,1.6l2.8,1.7l1.4-0.8l1,1.6l-0.5,0.3l11.9,7.4l0-1.1l1.9,0l-0.1,17.1l1.1-0.7l1,1.6l-2.1,1.3l0,3.1l-1.9,0l0-1.9L361.3,407.2
	L361.3,407.2L361.3,407.2z M364.2,388l-2.7-1.7l0,3.4l1.2,0.7l-1,1.6l-0.2-0.1l0,1.4l0.8-0.5l1,1.6l-1.9,1.2l0,3.4l2.9-1.8l0-9.7
	L364.2,388z M335.2,398.5l-1.2-0.7h-1.7l0,2.3l0.9,0.6h2L335.2,398.5z M327.4,405.6h0.7l-0.7-0.5L327.4,405.6z M330.3,404.7l0-2
	h-2.9l0,1.7l0.7-1.1L330.3,404.7z M322.5,400.7l0-2.9h-2.9l0,1.9l0.1,0.1l-0.1,0l0,0.9H322.5z M319.6,402.7l0,0.6l0.9-0.6H319.6z
	 M303.1,406.8l0-2.4l-1.9,1.2L303.1,406.8z M285.7,396.3l0.2-0.3l2.8,1.7l0-3.4l-1.2-0.8l1-1.6l0.2,0.1l0-1.5l-0.8,0.5l-1-1.6
	l1.9-1.2l0-3.2l1.9,0l0,2l2.4-1.5l-0.4-0.3l1-1.6l1.2,0.8l2.8-1.7l-2.5-1.5l0.4-0.6l-9.7,6.1L285.7,396.3z M315.4,388.1h-0.6l0,2.9
	h2.9l0-2.9h-0.4l-0.5,0.8L315.4,388.1z M335.2,395.9l0-2.9h-2.9l0,2.9h0.4l0.5-0.8l1.4,0.8H335.2z M324.5,395.9h1l0-2.9h-1
	L324.5,395.9z M322.5,393h-2.9l0,2.9h2.9L322.5,393z M327.5,395.9h2.9l0-2.9h-2.9L327.5,395.9z M351.7,386l0,2.1l1.7-1L351.7,386z
	 M349.8,393.9l0-2.4l-1.9,1.2L349.8,393.9z M346.9,394.4l0,2.4l1.9-1.2L346.9,394.4z M348.8,389.9l-1.9-1.2l0,2.4L348.8,389.9z
	 M344.9,388.8l-1.7,1l1.6,1L344.9,388.8z M342,391.4l0,2.7l2.2-1.4L342,391.4z M343.3,395.6l1.6,1l0-2L343.3,395.6z M347.9,398.4
	l1.9,1.2l0-2.3L347.9,398.4z M351.7,393.8l1.7-1l-1.7-1L351.7,393.8z M354.6,391.2l0-2.7l-2.2,1.3L354.6,391.2z M356.6,390.7
	l1.4-0.9l-1.4-0.9L356.6,390.7z M349.8,385.8l-1.9,1.2l1.9,1.2L349.8,385.8z M344.2,387l-2.2-1.3l0,2.7L344.2,387z M340.1,391.9
	l-1.4,0.9l1.4,0.9L340.1,391.9z M342,397.1l0,2.7l2.2-1.4L342,397.1z M346.8,400.1l0,2.4l2-1.2L346.8,400.1z M351.7,399.5l1.7-1.1
	l-1.7-1L351.7,399.5z M354.6,396.9l0-2.7l-2.2,1.3L354.6,396.9z M357.1,392.7l2.4,1.5l0-3L357.1,392.7z M359.5,388.5l0-3.4l-4.3-2.7
	l-2.8,1.7l2.2,1.4l0-0.8l1.9,0l0,0.3l0.5-0.3l1,1.6l-1.1,0.7L359.5,388.5z M348.8,384.1l-2.8-1.7l-2.8,1.7l1.7,1l0-0.5l1.9,0l0,0.7
	L348.8,384.1z M338.7,387l1.4,0.9l0-1.7L338.7,387z M337.3,388.4l0.6-1l-0.8,0.5l0,3.4l2.4-1.5L337.3,388.4z M332.9,388.3l0.4-0.2
	h-0.9l0,2.9h2.9l0-1.9l-1.3,0.8L332.9,388.3z M330.4,388.1h-2.9l0,2.9h2.9L330.4,388.1z M325.5,388.1h-1.1l0,2.9h1L325.5,388.1z
	 M322.5,388.1h-2.9l0,2.9h2.9L322.5,388.1z M298.3,390.2l-1.7,1l1.7,1L298.3,390.2z M300.2,392.5l1.9-1.2l-1.9-1.2L300.2,392.5z
	 M301.2,394.1l1.9,1.2l0-2.4L301.2,394.1z M303.1,389.6l0-2.4l-1.9,1.2L303.1,389.6z M297.5,388.4l-2.1-1.3l0,2.7L297.5,388.4z
	 M295.4,392.8l0,2.7l2.1-1.3L295.4,392.8z M296.6,397l1.7,1l0-2.1L296.6,397z M300.2,398.2l1.9-1.2l-1.9-1.2L300.2,398.2z
	 M305.1,395.2l1.6-1l-1.6-1L305.1,395.2z M308,392.7l0-2.7l-2.2,1.4L308,392.7z M306.7,388.4l-1.6-1l0,2L306.7,388.4z M302.1,385.6
	l-2.8-1.7l-2.8,1.7l1.7,1.1l0-1.6l1.9,0l0,1.7L302.1,385.6z M293.5,387.5l-1.4,0.9l1.4,0.9L293.5,387.5z M290.5,389.8l0,3l2.4-1.5
	L290.5,389.8z M292,394.1l1.4,0.9l0-1.8L292,394.1z M295.4,398.5l0,2.7l2.2-1.3L295.4,398.5z M303.1,401.1l0-2.4l-1.9,1.2
	L303.1,401.1z M300.2,401.5l0,2.4l1.9-1.2L300.2,401.5z M305.8,397l2.2,1.4l0-2.7L305.8,397z M309.9,392.1l1.4-0.9l-1.4-0.9
	L309.9,392.1z M312.9,386.5l-4.3-2.7l-2.8,1.7l2.2,1.4l0-1.9l1.9,0l0,1.4l1-0.7l1,1.6l-1.6,1l2.5,1.5L312.9,386.5z M306.7,382.7
	L304,381l-2.8,1.7l2.8,1.7L306.7,382.7z M302.1,379.9l-2.8-1.7l-2.8,1.7l2.8,1.7L302.1,379.9z M290.5,398.9l2.9,1.8l0-1.8l-0.6,0.3
	l-1-1.6l1.1-0.7l-2.4-1.5L290.5,398.9z M296.6,402.7l1.7,1l0-2.1L296.6,402.7z M305.1,400.9l1.6-1l-1.6-1L305.1,400.9z M311.3,397
	l-1.4-0.9l0,1.7L311.3,397z M312.7,395.5l-0.6,1l0.8-0.5l0-3.4l-2.5,1.5L312.7,395.5z M314.8,394.8l1.3-0.8l1,1.6l-0.4,0.2h0.9
	l0-2.9h-2.9L314.8,394.8z M317.7,397.8h-2.9l0,2.7l2.9-1.8L317.7,397.8z M324.5,400.7h1l0-2.9h-1L324.5,400.7z M327.4,400.7h2.3
	l0.6-1l0-1.9h-2.9L327.4,400.7z M337.2,397.5l2.9,1.8l0-1.7l-1.1,0.7l-1-1.6l1.6-1l-2.4-1.5L337.2,397.5z M343.3,401.3l1.6,1l0-2
	L343.3,401.3z M347.9,404.1l1.9,1.2l0-2.3L347.9,404.1z M351.7,405.2l1.7-1.1l-1.7-1.1L351.7,405.2z M352.5,401.3l2.1,1.3l0-2.6
	L352.5,401.3z M356.6,396.5l1.4-0.9l-1.4-0.9L356.6,396.5z M350.6,379.6l-2.8,1.7l2.8,1.7l2.8-1.7L350.6,379.6z M346,376.7l-9.8,6.1
	v0.5h-0.8l-3.2,2l0,0.9h2.9l0-1.6l1.9,0l0,1l3.1-1.9l0.7-1.1l0.5,0.3l2.8-1.7l-1.7-1.1l1-1.6l2.6,1.6l2.8-1.7L346,376.7z M301.2,377
	l2.8,1.7l1.9-1.2l1,1.6l-1.1,0.7l8.4,5.2l0.6,0l0,0.4l1.2,0.7h1.7l0-1.1l1.9,0l0,1.1h2.9l0-1.1l1.9,0l0,1.1h1.1l0-1.6l1.9,0l0,1.6
	h2.9l0-1.6l0.1,0l-0.2-0.4l1.5-1h-11.6l-1,1.6l-2.5-1.6h-3v-1.9l-9.8-6.1L301.2,377z M288.6,403.4l0-3.4l-2.9-1.8l0,3.4L288.6,403.4
	z M290.5,404.6l2.9,1.8l0-3.4l-2.9-1.8L290.5,404.6z M299.8,410.4l-0.2-0.4l2.6-1.6l-1.9-1.2l0,0.3l-1.9,0l0-0.2l-0.3,0.2l-1-1.6
	l0.5-0.3l-2.2-1.3l0,3.4l-0.1,0L299.8,410.4z M308,404.8l0-3.4l-2.2,1.4l1.7,1.1l-1,1.6l-1.4-0.9l0,2L308,404.8z M312.8,401.8l0-3.4
	l-2.9,1.8l0,3.4L312.8,401.8z M314.8,402.8l0,2.7h1.1l1.8-1.1l0-1.8H315L314.8,402.8z M322.5,405.6l0-2.9h-1l0.8,1.2l-2.6,1.6l0,0
	H322.5z M324.5,405.6h1l0-2.9h-1L324.5,405.6z M335.2,404.2l-2.5-1.6h-0.4l0,2.9h2.9L335.2,404.2z M337.1,403.2l2.9,1.8l0-3.4
	l-2.9-1.8L337.1,403.2z M348.8,407l-2-1.2l0,1.4l-1.9,0l0-1.2l-0.8,0.5l-1-1.6l1.1-0.7l-2.2-1.4l0,3.4l4.1,2.5L348.8,407z
	 M354.6,403.4L354.6,403.4L354.6,403.4L354.6,403.4z M359.5,400.4l0-3.4l-2.4,1.5l0.4,0.3l-1,1.5l0,1.9L359.5,400.4z M361.4,404.9
	l2.9-1.8l0-3.4l-2.9,1.8L361.4,404.9z M240.1,407.5l1.9,0l0-22.5l-1.9,0L240.1,407.5z M211,407.5l1.9,0l0-22.5l-1.9,0L211,407.5z
	 M206.1,407.5l1.9,0l0-22.5l-1.9,0L206.1,407.5z M220.7,407.5l1.9,0l0-22.5l-1.9,0L220.7,407.5z M225.5,407.5l1.9,0l0-22.5l-1.9,0
	L225.5,407.5z M177,407.5l1.9,0l0-22.5l-1.9,0L177,407.5z M215.8,407.5l1.9,0l0-22.5l-1.9,0L215.8,407.5z M196.4,407.5l1.9,0l0-22.5
	l-1.9,0L196.4,407.5z M186.7,407.5l1.9,0l0-22.5l-1.9,0L186.7,407.5z M181.9,407.5l1.9,0l0-22.5l-1.9,0L181.9,407.5z M191.6,407.5
	l1.9,0l0-22.5l-1.9,0L191.6,407.5z M201.3,407.5l1.9,0l0-22.5l-1.9,0L201.3,407.5z M254.6,407.6l1.9,0l0-22.5l-1.9,0L254.6,407.6z
	 M264.3,407.6l1.9,0l0-22.5l-1.9,0L264.3,407.6z M259.5,407.6l1.9,0l0-22.5l-1.9,0L259.5,407.6z M269.2,407.6l1.9,0l0-22.5l-1.9,0
	L269.2,407.6z M230.4,407.5l1.9,0l0-22.5l-1.9,0L230.4,407.5z M138.2,407.5l1.9,0l0-22.5l-1.9,0L138.2,407.5z M249.8,407.5l1.9,0
	l0-22.5l-1.9,0L249.8,407.5z M274,407.6l1.9,0l0-22.5l-1.9,0L274,407.6z M244.9,407.5l1.9,0l0-22.5l-1.9,0L244.9,407.5z
	 M235.2,407.5l1.9,0l0-22.5l-1.9,0L235.2,407.5z M104.3,407.4l1.9,0l0-22.5l-1.9,0L104.3,407.4z M109.1,407.4l1.9,0l0-22.5l-1.9,0
	L109.1,407.4z M114,407.4l1.9,0l0-22.5l-1.9,0L114,407.4z M172.2,407.5l1.9,0l0-22.5l-1.9,0L172.2,407.5z M94.6,407.4l1.9,0l0-22.5
	l-1.9,0L94.6,407.4z M99.4,407.4l1.9,0l0-22.5l-1.9,0L99.4,407.4z M128.5,407.5l1.9,0l0-22.5l-1.9,0L128.5,407.5z M133.4,407.5
	l1.9,0l0-22.5l-1.9,0L133.4,407.5z M123.7,407.5l1.9,0l0-22.5l-1.9,0L123.7,407.5z M118.8,407.5l1.9,0l0-22.5l-1.9,0L118.8,407.5z
	 M89.7,407.4l1.9,0l0-22.5l-1.9,0L89.7,407.4z M152.8,407.5l1.9,0l0-22.5l-1.9,0L152.8,407.5z M162.5,407.5l1.9,0l0-22.5l-1.9,0
	L162.5,407.5z M157.6,407.5l1.9,0l0-22.5l-1.9,0L157.6,407.5z M84.9,407.4l1.9,0l0-22.5l-1.9,0L84.9,407.4z M167.3,407.5l1.9,0
	l0-22.5l-1.9,0L167.3,407.5z M75.2,407.4l1.9,0l0-22.5l-1.9,0L75.2,407.4z M80,407.4l1.9,0l0-22.5l-1.9,0L80,407.4z M147.9,407.5
	l1.9,0l0-22.5l-1.9,0L147.9,407.5z M143.1,407.5l1.9,0l0-22.5l-1.9,0L143.1,407.5z"/>
<path class="st1" d="M187.1,195.3V79.4c0-4.1-3.3-7.4-7.4-7.4H63.8c-4.1,0-7.4,3.3-7.4,7.4v115.9c0,4.1,3.3,7.4,7.4,7.4h115.9
	C183.8,202.6,187.1,199.3,187.1,195.3z"/>
<path class="st1" d="M593.2,195.3V79.4c0-4.1-3.3-7.4-7.4-7.4H469.9c-4.1,0-7.4,3.3-7.4,7.4v115.9c0,4.1,3.3,7.4,7.4,7.4h115.9
	C589.9,202.6,593.2,199.3,593.2,195.3z"/>
<path class="st1" d="M390.6,195.3V79.4c0-4.1-3.3-7.4-7.4-7.4H267.3c-4.1,0-7.4,3.3-7.4,7.4v115.9c0,4.1,3.3,7.4,7.4,7.4h115.9
	C387.3,202.6,390.6,199.3,390.6,195.3z"/>
<path class="st2" d="M315.6,139.1c-4.3,0-7.9,3.5-7.9,7.9v19.7c0,4.3,3.5,7.9,7.9,7.9c4.3,0,7.9-3.5,7.9-7.9V147
	C323.5,142.7,320,139.1,315.6,139.1z"/>
<path class="st2" d="M288.1,147c0,4.3,3.5,7.9,7.9,7.9s7.9-3.5,7.9-7.9v-7.9H296c0,0,0,0,0,0C291.6,139.1,288.1,142.7,288.1,147z"/>
<path class="st3" d="M315.6,99.7C315.6,99.7,315.6,99.7,315.6,99.7c-4.4,0-7.9,3.5-7.9,7.9s3.5,7.9,7.9,7.9h7.9c0-4.5,0-3.4,0-7.9
	C323.5,103.2,320,99.7,315.6,99.7z"/>
<path class="st3" d="M295.9,135.1h19.7c4.3,0,7.9-3.5,7.9-7.9c0-4.3-3.5-7.9-7.9-7.9h-19.7c-4.3,0-7.9,3.5-7.9,7.9
	C288,131.6,291.6,135.1,295.9,135.1z"/>
<path class="st4" d="M355,119.4c-4.3,0-7.9,3.5-7.9,7.9v0v7.9h7.9c4.3,0,7.9-3.5,7.9-7.9C362.9,122.9,359.3,119.4,355,119.4
	C355,119.4,355,119.4,355,119.4z"/>
<path class="st4" d="M327.5,107.5v19.7c0,4.3,3.5,7.9,7.9,7.9c4.3,0,7.9-3.5,7.9-7.9v-19.7c0-4.3-3.5-7.9-7.9-7.9
	C331,99.7,327.5,103.2,327.5,107.5z"/>
<path class="st5" d="M343.2,166.7c0-4.3-3.5-7.9-7.9-7.9h-7.9v7.9c0,4.3,3.5,7.9,7.9,7.9C339.7,174.5,343.2,171,343.2,166.7z"/>
<path class="st5" d="M355,139.1h-19.7c-4.3,0-7.9,3.5-7.9,7.9c0,4.3,3.5,7.9,7.9,7.9H355c4.3,0,7.9-3.5,7.9-7.9
	C362.9,142.7,359.4,139.1,355,139.1z"/>
<path class="st1" d="M594,456V340.1c0-4.1-3.3-7.4-7.4-7.4H470.8c-4.1,0-7.4,3.3-7.4,7.4V456c0,4.1,3.3,7.4,7.4,7.4h115.9
	C590.7,463.4,594,460.1,594,456z"/>
<path class="st1" d="M187.1,704.3V588.4c0-4.1-3.3-7.4-7.4-7.4H63.8c-4.1,0-7.4,3.3-7.4,7.4v115.9c0,4.1,3.3,7.4,7.4,7.4h115.9
	C183.8,711.6,187.1,708.3,187.1,704.3z"/>
<path class="st6" d="M121.1,685c-20.2,0-36.6-16.4-36.6-36.6c0-20.2,16.4-36.6,36.6-36.6s36.6,16.4,36.6,36.6
	C157.7,668.7,141.3,685,121.1,685z M121.1,678.4c16.5,0,29.9-13.4,29.9-29.9c0-16.5-13.4-29.9-29.9-29.9S91.2,632,91.2,648.5
	C91.2,665,104.6,678.4,121.1,678.4z M108.8,664.1l4.7-4.7l-10.9-10.9l10.9-10.9l-4.7-4.7l-15.6,15.6L108.8,664.1z M128.7,637.5
	l4.7-4.7l15.6,15.6l-15.6,15.6l-4.7-4.7l10.9-10.9L128.7,637.5z M114.5,667.9l6.6,1.1l6.6-39.9l-6.6-1.1L114.5,667.9z"/>
<path class="st1" d="M187.1,454.3V338.4c0-4.1-3.3-7.4-7.4-7.4H63.8c-4.1,0-7.4,3.3-7.4,7.4v115.9c0,4.1,3.3,7.4,7.4,7.4h115.9
	C183.8,461.6,187.1,458.3,187.1,454.3z"/>
<path class="st1" d="M593.2,704.3V588.4c0-4.1-3.3-7.4-7.4-7.4H469.9c-4.1,0-7.4,3.3-7.4,7.4v115.9c0,4.1,3.3,7.4,7.4,7.4h115.9
	C589.9,711.6,593.2,708.3,593.2,704.3z"/>
<path class="st1" d="M390.1,704.3V588.4c0-4.1-3.3-7.4-7.4-7.4H266.9c-4.1,0-7.4,3.3-7.4,7.4v115.9c0,4.1,3.3,7.4,7.4,7.4h115.9
	C386.8,711.6,390.1,708.3,390.1,704.3z"/>
<path class="st7" d="M356.5,629.4c-2.3,1-4.8,1.7-7.4,2c2.6-1.6,4.7-4.1,5.6-7.1c-2.5,1.4-5.2,2.5-8.1,3.1c-2.3-2.5-5.7-4.1-9.4-4.1
	c-7.1,0-12.8,5.7-12.8,12.8c0,1,0.1,2,0.3,2.9c-10.7-0.5-20.1-5.6-26.4-13.3c-1.1,1.9-1.7,4.1-1.7,6.4c0,4.5,2.3,8.4,5.7,10.7
	c-2.1-0.1-4.1-0.6-5.8-1.6v0.2c0,6.2,4.4,11.4,10.3,12.6c-1.1,0.3-2.2,0.4-3.4,0.4c-0.8,0-1.6-0.1-2.4-0.2c1.6,5.1,6.4,8.8,12,8.9
	c-4.4,3.4-9.9,5.5-15.9,5.5c-1,0-2-0.1-3-0.2c5.7,3.6,12.4,5.8,19.7,5.8c23.6,0,36.5-19.5,36.5-36.4c0-0.5,0-1.1,0-1.6
	c2.5-1.8,4.7-4.1,6.4-6.6L356.5,629.4z"/>
<path class="st8" d="M555.6,114.5c-4.8-2.2-9.8-3.8-15.2-4.7c-0.1,0-0.2,0-0.2,0.1c-0.7,1.2-1.4,2.7-1.9,3.9c-5.7-0.9-11.4-0.9-17,0
	c-0.5-1.2-1.3-2.7-1.9-3.9c0-0.1-0.1-0.1-0.2-0.1c-5.3,0.9-10.4,2.5-15.2,4.7c0,0-0.1,0-0.1,0.1c-9.7,14.4-12.3,28.5-11,42.4
	c0,0.1,0,0.1,0.1,0.2c6.4,4.7,12.6,7.5,18.6,9.4c0.1,0,0.2,0,0.3-0.1c1.4-2,2.7-4,3.8-6.2c0.1-0.1,0-0.3-0.1-0.3
	c-2-0.8-4-1.7-5.8-2.8c-0.1-0.1-0.2-0.3,0-0.4c0.4-0.3,0.8-0.6,1.2-0.9c0.1-0.1,0.2-0.1,0.2,0c12.2,5.6,25.4,5.6,37.5,0
	c0.1,0,0.2,0,0.2,0c0.4,0.3,0.8,0.6,1.2,0.9c0.1,0.1,0.1,0.3,0,0.4c-1.9,1.1-3.8,2-5.8,2.8c-0.1,0.1-0.2,0.2-0.1,0.3
	c1.1,2.2,2.4,4.2,3.8,6.2c0.1,0.1,0.2,0.1,0.3,0.1c6.1-1.9,12.3-4.7,18.6-9.4c0.1,0,0.1-0.1,0.1-0.2
	C568.3,140.9,564.2,126.9,555.6,114.5C555.7,114.5,555.7,114.5,555.6,114.5z M517.4,148.5c-3.7,0-6.7-3.4-6.7-7.5
	c0-4.1,3-7.5,6.7-7.5c3.8,0,6.8,3.4,6.7,7.5C524.1,145.1,521.2,148.5,517.4,148.5z M542.2,148.5c-3.7,0-6.7-3.4-6.7-7.5
	c0-4.1,3-7.5,6.7-7.5c3.8,0,6.8,3.4,6.7,7.5C548.9,145.1,546,148.5,542.2,148.5z"/>
<path class="st9" d="M558.2,394.2c-3.7,0-6.7-2.5-7.6-5.9h-9c-1.9,0-3.6,1.4-3.9,3.3l-0.3,1.9c-0.3,1.8-1.2,3.4-2.6,4.6
	c1.3,1.2,2.2,2.8,2.6,4.6l0.3,1.9c0.3,1.9,2,3.3,3.9,3.3h1.1c0.9-3.4,3.9-5.9,7.6-5.9c4.3,0,7.9,3.5,7.9,7.8c0,4.3-3.5,7.8-7.9,7.8
	c-3.7,0-6.7-2.5-7.6-5.9h-1.1c-3.8,0-7.1-2.8-7.7-6.6l-0.3-1.9c-0.3-1.9-2-3.3-3.9-3.3h-3.1c-0.9,3.4-3.9,5.9-7.6,5.9
	c-3.7,0-6.7-2.5-7.6-5.9h-4.4c-0.9,3.4-3.9,5.9-7.6,5.9c-4.3,0-7.9-3.5-7.9-7.8c0-4.3,3.5-7.8,7.9-7.8c3.7,0,6.7,2.5,7.6,5.9h4.4
	c0.9-3.4,3.9-5.9,7.6-5.9c3.7,0,6.7,2.5,7.6,5.9h3.1c1.9,0,3.6-1.4,3.9-3.3l0.3-1.9c0.6-3.8,3.9-6.6,7.7-6.6h9
	c0.9-3.4,3.9-5.9,7.6-5.9c4.3,0,7.9,3.5,7.9,7.8C566,390.7,562.5,394.2,558.2,394.2z M558.2,390.2c2.2,0,3.9-1.8,3.9-3.9
	c0-2.2-1.8-3.9-3.9-3.9c-2.2,0-3.9,1.8-3.9,3.9C554.2,388.5,556,390.2,558.2,390.2z M499.3,402c2.2,0,3.9-1.8,3.9-3.9
	c0-2.2-1.8-3.9-3.9-3.9c-2.2,0-3.9,1.8-3.9,3.9C495.3,400.3,497.1,402,499.3,402z M522.8,398.1c0,2.2-1.8,3.9-3.9,3.9
	c-2.2,0-3.9-1.8-3.9-3.9c0-2.2,1.8-3.9,3.9-3.9C521.1,394.2,522.8,395.9,522.8,398.1z M554.2,409.9c0,2.2-1.8,3.9-3.9,3.9
	s-3.9-1.8-3.9-3.9c0-2.2,1.8-3.9,3.9-3.9S554.2,407.7,554.2,409.9z"/>
<path d="M124.1,356.2c-20.3,0-37.3,16.4-37.3,36.7v38l37.3,0c20.2,0,36.7-17,36.7-37.3C160.8,373.3,144.4,356.2,124.1,356.2z"/>
<path class="st10" d="M124.5,370.4c-8,0-15.4,4.2-19.5,11.1c-4.1,6.9-4.3,15.4-0.5,22.5l-4.1,13.2l14.8-3.3c3.1,1.4,6.5,2.1,9.8,2
	c3.4-0.1,6.7-0.9,9.7-2.4c3-1.5,5.7-3.7,7.7-6.4c2.1-2.7,3.5-5.8,4.2-9.1c0.7-3.3,0.7-6.7-0.1-10c-0.8-3.3-2.3-6.4-4.4-9
	c-2.1-2.6-4.8-4.8-7.9-6.2C131.3,371.2,127.9,370.4,124.5,370.4L124.5,370.4z"/>
<path class="st11" d="M142.5,379.3c6.3,8.3,6.2,19.8-0.3,27.9c-6.5,8.1-17.6,10.9-27.1,6.6l-14.8,3.4l15-1.8c10,5.8,22.7,3.3,29.7-6
	C152,400.2,150.9,387.3,142.5,379.3L142.5,379.3z"/>
<path class="st12" d="M138.4,375.1c7.1,7.6,8.2,19,2.7,27.8c-5.6,8.8-16.4,12.7-26.3,9.4l-14.3,4.9l14.8-3.3
	c10.5,4.8,22.9,0.9,28.9-9C150,394.9,147.5,382.2,138.4,375.1L138.4,375.1z"/>
<path class="st13" d="M105.9,404.5c-2-4.8-2.3-10.2-0.8-15.2c1.5-5,4.6-9.3,8.9-12.3c4.3-2.9,9.5-4.3,14.7-3.9
	c5.2,0.4,10.1,2.6,13.9,6.2c-3.5-4.5-8.5-7.6-14.2-8.6c-5.6-1-11.4,0.2-16.2,3.3c-4.8,3.1-8.3,7.9-9.7,13.5
	c-1.4,5.5-0.7,11.4,2.1,16.5l-4.1,13.2L105.9,404.5z"/>
<path class="st14" d="M104.5,404c-2.5-4.6-3.3-9.9-2.3-15c1-5.1,3.6-9.8,7.6-13.1c4-3.4,9-5.3,14.2-5.4c5.2-0.1,10.3,1.5,14.4,4.7
	c-3.9-4.1-9.3-6.6-15-7c-5.7-0.4-11.3,1.4-15.8,5c-4.4,3.6-7.4,8.7-8.2,14.4c-0.8,5.7,0.5,11.4,3.7,16.1l-2.7,13.6L104.5,404z"/>
<path class="st15" d="M528.1,612.3c-20.2,0-36.5,16.3-36.5,36.5c0,16.1,10.4,29.8,24.9,34.6c1.8,0.3,2.5-0.8,2.5-1.7
	c0-0.9,0-3.7,0-6.8c-9.2,1.7-11.5-2.2-12.3-4.3c-0.4-1-2.2-4.3-3.7-5.2c-1.3-0.7-3.1-2.4,0-2.4c2.9,0,4.9,2.6,5.6,3.7
	c3.3,5.5,8.5,4,10.6,3c0.3-2.4,1.3-4,2.3-4.9c-8.1-0.9-16.6-4.1-16.6-18c0-4,1.4-7.3,3.7-9.8c-0.4-0.9-1.6-4.7,0.4-9.7
	c0,0,3.1-1,10,3.7c2.9-0.8,6-1.2,9.1-1.2s6.2,0.4,9.1,1.2c7-4.7,10-3.7,10-3.7c2,5,0.7,8.8,0.4,9.7c2.3,2.6,3.7,5.8,3.7,9.8
	c0,14-8.5,17.1-16.6,18c1.3,1.1,2.5,3.3,2.5,6.7c0,4.9,0,8.8,0,10c0,1,0.7,2.1,2.5,1.7c14.4-4.8,24.9-18.5,24.9-34.6
	C564.6,628.7,548.3,612.3,528.1,612.3z"/>
<linearGradient id="SVGID_00000183942717003279442800000002613759286339720583_" gradientUnits="userSpaceOnUse" x1="229.5296" y1="482.9827" x2="425.2776" y2="288.1847" gradientTransform="matrix(1 0 0 -1 0 786)">
	<stop  offset="9.375000e-02" style="stop-color:#FA00E9"/>
	<stop  offset="1" style="stop-color:#3860FF"/>
</linearGradient>
<path style="opacity:0.3;fill:url(#SVGID_00000183942717003279442800000002613759286339720583_);enable-background:new    ;" d="
	M415.8,308H244.2c-5.1,0-9.2,4.1-9.2,9.2v171.6c0,5.1,4.1,9.2,9.2,9.2h171.6c5.1,0,9.2-4.1,9.2-9.2V317.2
	C425,312.1,420.9,308,415.8,308z"/>
<linearGradient id="SVGID_00000053535129665054791470000009230851840784333754_" gradientUnits="userSpaceOnUse" x1="254.14" y1="458.4909" x2="401.95" y2="311.3979" gradientTransform="matrix(1 0 0 -1 0 786)">
	<stop  offset="9.375000e-02" style="stop-color:#FA00E9"/>
	<stop  offset="1" style="stop-color:#3860FF"/>
</linearGradient>
<path style="fill:url(#SVGID_00000053535129665054791470000009230851840784333754_);" d="M392.6,331.3H267.5c-5.1,0-9.2,4.1-9.2,9.2
	v125.1c0,5.1,4.1,9.2,9.2,9.2h125.1c5.1,0,9.2-4.1,9.2-9.2V340.5C401.8,335.4,397.6,331.3,392.6,331.3z"/>
<path class="st18" d="M361.7,396.2c-0.7-5.6-2.8-11-6.1-15.7c-3.3-4.6-7.6-8.4-12.7-10.9c-5-2.5-10.6-3.8-16.3-3.6
	c-5.6,0.2-11.1,1.7-16.1,4.5c-4.9,2.8-9.1,6.8-12.1,11.6c-3,4.8-4.8,10.3-5.3,16c-0.4,5.7,0.5,11.4,2.8,16.6
	c2.3,5.2,5.7,9.8,10.2,13.3c3.4-1.5,7.1-3.3,11-5.3c-4-1.9-7.3-4.9-9.8-8.6c-2.4-3.7-3.8-8-3.9-12.5c-0.2-4.4,0.9-8.8,3-12.7
	c2.1-3.9,5.3-7.1,9.1-9.3s8.2-3.3,12.6-3.2s8.7,1.5,12.4,3.9c3.7,2.4,6.7,5.8,8.6,9.8c1.9,4,2.7,8.5,2.3,12.9
	C355.2,400.6,358.6,398.3,361.7,396.2z M362,400.1c-3.5,2.6-7.3,5.3-11.5,8c-1.9,5.9-5.8,10.8-11.1,13.8c-5.3,3-11.6,3.9-17.5,2.4
	c-4.5,2.2-8.9,4.1-12.8,5.7c5.3,3.4,11.3,5.2,17.5,5.4c6.2,0.2,12.4-1.4,17.8-4.4s9.9-7.6,13-13C360.6,412.6,362.1,406.4,362,400.1z
	"/>
<path class="st18" d="M368,427.5c0.8,0,1.5-0.2,2.2-0.7c0.6-0.4,1.2-1.1,1.5-1.8c0.3-0.7,0.4-1.5,0.2-2.3c-0.2-0.8-0.5-1.5-1.1-2
	c-0.6-0.6-1.3-0.9-2-1.1c-0.8-0.2-1.6-0.1-2.3,0.2c-0.7,0.3-1.3,0.8-1.8,1.5c-0.4,0.7-0.7,1.4-0.7,2.2c0,1.1,0.4,2.1,1.2,2.8
	C366,427,367,427.5,368,427.5z"/>
<path class="st18" d="M363.8,371.8c0.5,0,0.9-0.1,1.3-0.4c0.4-0.3,0.7-0.6,0.9-1.1c0.2-0.4,0.2-0.9,0.1-1.4s-0.3-0.9-0.6-1.2
	c-0.3-0.3-0.7-0.6-1.2-0.7c-0.5-0.1-0.9,0-1.4,0.1c-0.4,0.2-0.8,0.5-1.1,0.9c-0.3,0.4-0.4,0.9-0.4,1.3c0,0.3,0.1,0.6,0.2,0.9
	c0.1,0.3,0.3,0.6,0.5,0.8c0.2,0.2,0.5,0.4,0.8,0.5C363.2,371.8,363.5,371.8,363.8,371.8z"/>
<path class="st18" d="M284.5,412.3c0.6,0,1.2-0.2,1.7-0.5c0.5-0.3,0.9-0.8,1.2-1.4c0.2-0.6,0.3-1.2,0.2-1.8
	c-0.1-0.6-0.4-1.2-0.9-1.6c-0.4-0.4-1-0.7-1.6-0.9c-0.6-0.1-1.2-0.1-1.8,0.2c-0.6,0.2-1.1,0.6-1.4,1.2c-0.3,0.5-0.5,1.1-0.5,1.8
	c0,0.8,0.3,1.6,0.9,2.2C282.9,411.9,283.7,412.3,284.5,412.3z"/>
<path class="st18" d="M337.5,393.6c3.4-1.9,6.7-3.7,9.9-5.4c0.1,0.2,0.2,0.4,0.4,0.7c-3.2,1.7-6.5,3.5-9.9,5.4L337.5,393.6z
	 M381.6,376.7c-1.5-2.7-10.7,0.2-23.7,6.3c0.1,0.2,0.2,0.4,0.4,0.6c12.5-6,21.1-8.9,22.2-6.6c1.7,3-18.2,17.9-44.5,33.3
	c-26.3,15.3-49,25.3-50.7,22.3c-1-1.8,3.9-6.7,8.3-10.6c-6.3,5.2-9.6,9.1-8.6,11c2.5,4.3,26.4-4.2,53.1-19.7
	C364.8,397.7,384.1,381,381.6,376.7z"/>
<path class="st19" d="M334.4,396.1c-0.6-1-0.8-2.1-0.6-3.2c0.2-1.1,0.7-2.1,1.6-2.9s1.9-1.2,3-1.2c1.1,0,2.2,0.3,3.1,1
	c0.9,0.7,1.5,1.7,1.8,2.8c0.3,1.1,0.1,2.3-0.4,3.3c-0.5,1-1.3,1.8-2.3,2.3c-1,0.5-2.2,0.6-3.2,0.3c-0.6-0.2-1.2-0.4-1.7-0.8
	C335.1,397.1,334.7,396.7,334.4,396.1z"/>
<path class="st20" d="M148.8,98H96.2C90,98,85,103,85,109.2v52.5c0,6.2,5,11.2,11.2,11.2h52.5c6.2,0,11.2-5,11.2-11.2v-52.5
	C160,103,155,98,148.8,98z"/>
<path class="st21" d="M148.8,146.8H96.2v15h52.5V146.8z"/>
</svg>
