<svg width="800" height="112" viewBox="0 0 800 112" fill="none" xmlns="http://www.w3.org/2000/svg">
<path d="M58.1569 41.6834C58.1569 31.8636 51.5088 23.4039 41.2374 23.4039H24.4706V59.9576H41.2374C51.5088 59.9576 58.1569 51.5032 58.1569 41.6834V41.6834ZM0 3.46532H44.257C67.6721 3.46532 82.7797 21.1409 82.7797 41.6834C82.7797 62.2259 67.6721 79.8959 44.257 79.8959H24.4706V109.203H0V3.46532Z" fill="white"/>
<path d="M153.622 33.6753L140.631 77.1812H166.309L153.622 33.6753ZM176.434 109.203L172.359 96.3638H134.745L130.664 109.203H104.529L142.296 3.46532H164.802L203.021 109.203H176.434Z" fill="white"/>
<path d="M244.107 24.6118H220.246V3.46532H292.597V24.6118H268.578V109.203H244.107V24.6118Z" fill="white"/>
<path d="M388.821 41.6834C388.821 31.8636 382.173 23.4039 371.9 23.4039H355.132V59.9576H371.9C382.173 59.9576 388.821 51.5032 388.821 41.6834ZM330.664 3.46532H375.078C398.488 3.46532 413.595 21.1409 413.595 41.6834C413.595 56.4864 405.739 69.6248 392.595 75.8213L413.748 109.203H385.35L366.613 79.8959H355.132V109.203H330.664V3.46532" fill="white"/>
<path d="M479.607 23.1044V47.1183H519.635V66.306H479.607V89.5632H519.635V109.203H455.137V3.46498H519.635V23.1044H479.607" fill="white"/>
<path d="M646.372 56.333C646.372 38.9621 634.586 22.7991 615.406 22.7991C596.066 22.7991 584.436 38.9621 584.436 56.333C584.436 73.7039 596.066 89.8672 615.406 89.8672C634.586 89.8672 646.372 73.7039 646.372 56.333V56.333ZM559.359 56.333C559.359 27.3306 580.207 0.744047 615.406 0.744047C650.445 0.744047 671.293 27.3306 671.293 56.333C671.293 85.3353 650.445 111.922 615.406 111.922C580.207 111.922 559.359 85.3353 559.359 56.333" fill="white"/>
<path d="M775.681 72.3449V3.46517H800V109.203H774.474L736.403 41.2262V109.203H711.932V3.46517H737.458L775.681 72.3449Z" fill="white"/>
</svg>
