<svg width="88" height="40" viewBox="0 0 88 40" fill="none" xmlns="http://www.w3.org/2000/svg">
<g clip-path="url(#clip0_1336_31)">
<path d="M10.2113 8.83203H3.37234C2.90434 8.83203 2.50633 9.20981 2.43333 9.72314L-0.332664 29.2086C-0.387664 29.5931 -0.119665 29.9398 0.231335 29.9398H3.49633C3.96433 29.9398 4.36234 29.562 4.43534 29.0475L5.18134 23.792C5.25334 23.2775 5.65234 22.8998 6.11934 22.8998H8.28434C12.7893 22.8998 15.3893 20.4775 16.0683 15.6775C16.3743 13.5775 16.0813 11.9276 15.1963 10.772C14.2243 9.50314 12.5003 8.83203 10.2113 8.83203ZM11.0003 15.9486C10.6263 18.6753 8.75134 18.6753 6.93834 18.6753H5.90633L6.63034 13.5831C6.67334 13.2753 6.91334 13.0486 7.19334 13.0486H7.66634C8.90134 13.0486 10.0663 13.0486 10.6683 13.8309C11.0273 14.2975 11.1373 14.9909 11.0003 15.9486Z" fill="#0F0F0F"/>
<path d="M30.654 15.8618H27.379C27.1 15.8618 26.859 16.0884 26.816 16.3962L26.671 17.414L26.442 17.0451C25.733 15.9018 24.152 15.5195 22.574 15.5195C18.955 15.5195 15.864 18.5651 15.262 22.8373C14.949 24.9684 15.394 27.0062 16.482 28.4273C17.48 29.734 18.908 30.2784 20.607 30.2784C23.523 30.2784 25.14 28.1951 25.14 28.1951L24.994 29.2062C24.939 29.5929 25.207 29.9395 25.556 29.9395H28.506C28.975 29.9395 29.371 29.5618 29.445 29.0473L31.215 16.5929C31.271 16.2095 31.004 15.8618 30.654 15.8618ZM26.089 22.944C25.773 25.0229 24.288 26.4184 22.394 26.4184C21.443 26.4184 20.683 26.0795 20.195 25.4373C19.711 24.7995 19.527 23.8918 19.681 22.8806C19.976 20.8195 21.486 19.3784 23.351 19.3784C24.281 19.3784 25.037 19.7218 25.535 20.3695C26.034 21.024 26.232 21.9373 26.089 22.944Z" fill="#0F0F0F"/>
<path d="M48.0965 15.8594H44.8055C44.4915 15.8594 44.1965 16.0327 44.0185 16.3227L39.4795 23.7516L37.5555 16.6127C37.4345 16.166 37.0635 15.8594 36.6435 15.8594H33.4095C33.0165 15.8594 32.7435 16.286 32.8685 16.6972L36.4935 28.5172L33.0855 33.8627C32.8175 34.2838 33.0875 34.8627 33.5505 34.8627H36.8375C37.1495 34.8627 37.4415 34.6938 37.6185 34.4094L48.5645 16.8538C48.8265 16.4338 48.5575 15.8594 48.0965 15.8594Z" fill="#0F0F0F"/>
<path d="M58.9926 8.83203H52.1526C51.6856 8.83203 51.2876 9.20981 51.2146 9.72314L48.4486 29.2086C48.3936 29.5931 48.6616 29.9398 49.0106 29.9398H52.5206C52.8466 29.9398 53.1256 29.6753 53.1766 29.3153L53.9616 23.792C54.0336 23.2775 54.4326 22.8998 54.8996 22.8998H57.0636C61.5696 22.8998 64.1686 20.4775 64.8486 15.6775C65.1556 13.5775 64.8606 11.9276 63.9756 10.772C63.0046 9.50314 61.2816 8.83203 58.9926 8.83203ZM59.7816 15.9486C59.4086 18.6753 57.5336 18.6753 55.7196 18.6753H54.6886L55.4136 13.5831C55.4566 13.2753 55.6946 13.0486 55.9756 13.0486H56.4486C57.6826 13.0486 58.8486 13.0486 59.4506 13.8309C59.8096 14.2975 59.9186 14.9909 59.7816 15.9486Z" fill="#0F0F0F"/>
<path d="M79.4349 15.8618H76.1619C75.8809 15.8618 75.6419 16.0884 75.5999 16.3962L75.4549 17.414L75.2249 17.0451C74.5159 15.9018 72.9359 15.5195 71.3579 15.5195C67.7389 15.5195 64.6489 18.5651 64.0469 22.8373C63.7349 24.9684 64.1779 27.0062 65.2659 28.4273C66.2659 29.734 67.6919 30.2784 69.3909 30.2784C72.3069 30.2784 73.9239 28.1951 73.9239 28.1951L73.7779 29.2062C73.7229 29.5929 73.9909 29.9395 74.3419 29.9395H77.2909C77.7579 29.9395 78.1559 29.5618 78.2289 29.0473L79.9999 16.5929C80.0539 16.2095 79.7859 15.8618 79.4349 15.8618ZM74.8699 22.944C74.5559 25.0229 73.0689 26.4184 71.1749 26.4184C70.2259 26.4184 69.4639 26.0795 68.9759 25.4373C68.4919 24.7995 68.3099 23.8918 68.4619 22.8806C68.7589 20.8195 70.2669 19.3784 72.1319 19.3784C73.0619 19.3784 73.8179 19.7218 74.3159 20.3695C74.8169 21.024 75.0149 21.9373 74.8699 22.944Z" fill="#0F0F0F"/>
<path d="M83.2946 9.36759L80.4876 29.2098C80.4326 29.5942 80.7007 29.9409 81.0497 29.9409H83.8717C84.3407 29.9409 84.7386 29.5631 84.8106 29.0486L87.5787 9.56425C87.6337 9.17981 87.3656 8.83203 87.0166 8.83203H83.8567C83.5777 8.83314 83.3376 9.05981 83.2946 9.36759Z" fill="#0F0F0F"/>
</g>
<defs>
<clipPath id="clip0_1336_31">
<rect width="88" height="40" fill="white"/>
</clipPath>
</defs>
</svg>
