<svg width="92" height="99" viewBox="0 0 92 99" fill="none" xmlns="http://www.w3.org/2000/svg">
<rect y="7" width="92" height="92" rx="46" fill="#D7D7D7"/>
<rect width="92" height="92" rx="46" fill="white"/>
<rect width="39.4273" height="39.4273" transform="translate(26.2871 26.2871)" fill="white"/>
<path d="M34.502 34.4834C34.502 32.8879 34.502 32.0902 34.8346 31.6505C35.1244 31.2674 35.5673 31.0303 36.0468 31.0017C36.5972 30.9688 37.261 31.4113 38.5885 32.2963L55.8634 43.813C56.9603 44.5442 57.5088 44.9099 57.6999 45.3707C57.867 45.7736 57.867 46.2264 57.6999 46.6293C57.5088 47.0902 56.9603 47.4558 55.8634 48.187L38.5885 59.7037C37.261 60.5887 36.5972 61.0312 36.0468 60.9983C35.5673 60.9697 35.1244 60.7326 34.8346 60.3495C34.502 59.9098 34.502 59.1121 34.502 57.5167V34.4834Z" fill="#6C4DF6"/>
</svg>
