<svg width="408" height="233" viewBox="0 0 408 233" fill="none" xmlns="http://www.w3.org/2000/svg">
<g clip-path="url(#clip0_172_6504)">
<rect width="408" height="233" fill="white"/>
<g clip-path="url(#clip1_172_6504)">
<path d="M49.3758 38.1746C49.3758 46.2935 42.7941 52.8752 34.6753 52.8752C26.5564 52.8752 19.9747 46.2935 19.9747 38.1746C19.9747 30.0557 26.5564 23.4741 34.6753 23.4741C42.7941 23.4741 49.3758 30.0557 49.3758 38.1746Z" stroke="#EFF2F7" stroke-width="0.948423"/>
<ellipse cx="34.6755" cy="38.1745" rx="11.3811" ry="11.3811" fill="#F7DEF5"/>
<path fill-rule="evenodd" clip-rule="evenodd" d="M35.0214 32.484C35.4142 32.484 35.7327 32.8025 35.7327 33.1953V33.2284C35.7327 33.6212 36.0512 33.9397 36.444 33.9397H37.2707C37.6635 33.9397 37.982 34.2582 37.982 34.651V35.7555L35.3795 38.0362L33.5053 41.8306L37.6565 40.4759L37.982 40.1685V43.1538C37.982 43.5466 37.6635 43.8651 37.2707 43.8651H29.6962C29.3033 43.8651 28.9849 43.5466 28.9849 43.1538V34.651C28.9849 34.2582 29.3033 33.9397 29.6962 33.9397H30.5228C30.9157 33.9397 31.2341 33.6212 31.2341 33.2284V33.1953C31.2341 32.8025 31.5526 32.484 31.9455 32.484H35.0214ZM34.2332 34.7602C34.2332 35.1793 33.8975 35.519 33.4834 35.519C33.0694 35.519 32.7337 35.1793 32.7337 34.7602C32.7337 34.3412 33.0694 34.0015 33.4834 34.0015C33.8975 34.0015 34.2332 34.3412 34.2332 34.7602Z" fill="#7A1F74"/>
<path d="M37.2669 39.6523L36.178 38.3771L38.9924 35.8737C39.3378 35.5665 39.8615 35.6029 40.1622 35.955C40.4628 36.3071 40.4266 36.8416 40.0812 37.1489L37.2669 39.6523Z" fill="#7A1F74"/>
<path d="M36.6239 40.1395L35.5762 38.9124L34.8258 40.6595L36.6239 40.1395Z" fill="#7A1F74"/>
<path d="M61.8444 43.8658C59.1214 43.8658 57.4746 41.9662 57.4746 38.9644V38.9514C57.4746 35.9432 59.1603 34.0565 61.8444 34.0565C64.535 34.0565 66.2077 35.9497 66.2077 38.9514V38.9644C66.2077 41.9597 64.5479 43.8658 61.8444 43.8658ZM61.8444 42.5821C63.6208 42.5821 64.723 41.1558 64.723 38.9644V38.9514C64.723 36.7406 63.6143 35.3402 61.8444 35.3402C60.0744 35.3402 58.9593 36.7406 58.9593 38.9514V38.9644C58.9593 41.1558 60.042 42.5821 61.8444 42.5821ZM68.0165 43.6389V36.598H69.4234V37.6807H69.5272C69.8384 36.9092 70.5256 36.4618 71.4462 36.4618C72.4058 36.4618 73.0865 36.9611 73.3977 37.7196H73.5079C73.8645 36.9611 74.675 36.4618 75.6539 36.4618C77.0738 36.4618 77.9037 37.3176 77.9037 38.7829V43.6389H76.5033V39.12C76.5033 38.1475 76.0624 37.6677 75.1418 37.6677C74.247 37.6677 73.6571 38.3355 73.6571 39.1848V43.6389H72.2567V38.9774C72.2567 38.1734 71.7315 37.6677 70.9016 37.6677C70.0523 37.6677 69.4234 38.3939 69.4234 39.3145V43.6389H68.0165ZM81.8002 43.7556C80.4581 43.7556 79.4662 42.9387 79.4662 41.6615V41.6485C79.4662 40.3908 80.4127 39.6581 82.0919 39.5544L83.998 39.4442V38.8218C83.998 38.0503 83.5118 37.6224 82.5587 37.6224C81.7807 37.6224 81.2685 37.9076 81.1 38.4068L81.0935 38.4328H79.7385L79.7449 38.3874C79.9135 37.2334 81.0222 36.4618 82.6235 36.4618C84.3935 36.4618 85.3919 37.3436 85.3919 38.8218V43.6389H83.998V42.6405H83.8878C83.4729 43.3536 82.7338 43.7556 81.8002 43.7556ZM80.8666 41.6031C80.8666 42.2515 81.4176 42.634 82.1762 42.634C83.2265 42.634 83.998 41.9468 83.998 41.0391V40.4361L82.2799 40.5464C81.3074 40.6047 80.8666 40.9548 80.8666 41.5902V41.6031ZM87.3759 43.6389V36.598H88.7827V37.6613H88.8865C89.1393 36.9157 89.7941 36.4748 90.7342 36.4748C90.9611 36.4748 91.2075 36.5072 91.3501 36.5396V37.8363C91.0973 37.7844 90.8574 37.752 90.5916 37.752C89.5154 37.752 88.7827 38.4133 88.7827 39.4312V43.6389H87.3759ZM96.485 43.6389V34.2834H100.245C102.002 34.2834 103.059 35.1781 103.059 36.611V36.6239C103.059 37.5964 102.339 38.4717 101.419 38.6273V38.7375C102.683 38.8736 103.526 39.7684 103.526 40.9872V41.0002C103.526 42.6405 102.326 43.6389 100.33 43.6389H96.485ZM99.9082 35.4699H97.9372V38.2642H99.6618C100.946 38.2642 101.613 37.7844 101.613 36.8768V36.8638C101.613 35.9821 100.984 35.4699 99.9082 35.4699ZM99.9536 39.3729H97.9372V42.4525H100.038C101.347 42.4525 102.041 41.9143 102.041 40.9094V40.8965C102.041 39.8915 101.322 39.3729 99.9536 39.3729ZM108.187 43.7751C106.126 43.7751 104.881 42.3682 104.881 40.1379V40.1314C104.881 37.9336 106.152 36.4618 108.116 36.4618C110.081 36.4618 111.286 37.8817 111.286 39.9953V40.488H106.294C106.32 41.8365 107.059 42.621 108.22 42.621C109.121 42.621 109.659 42.1737 109.828 41.8106L109.854 41.7587L111.209 41.7523L111.196 41.8106C110.962 42.7377 109.99 43.7751 108.187 43.7751ZM108.123 37.6159C107.163 37.6159 106.437 38.2707 106.314 39.4831H109.893C109.782 38.2253 109.076 37.6159 108.123 37.6159ZM112.959 43.6389V36.598H114.366V37.6613H114.47C114.723 36.9157 115.377 36.4748 116.318 36.4748C116.544 36.4748 116.791 36.5072 116.933 36.5396V37.8363C116.681 37.7844 116.441 37.752 116.175 37.752C115.099 37.752 114.366 38.4133 114.366 39.4312V43.6389H112.959ZM121.07 46.122C119.28 46.122 118.178 45.3376 118.01 44.1641L118.023 44.1511H119.443L119.449 44.1641C119.566 44.6503 120.136 44.9939 121.089 44.9939C122.25 44.9939 122.937 44.4493 122.937 43.4898V42.1024H122.833C122.405 42.8674 121.627 43.2953 120.661 43.2953C118.853 43.2953 117.737 41.9014 117.737 39.9175V39.9045C117.737 37.8947 118.859 36.4748 120.687 36.4748C121.673 36.4748 122.438 36.9611 122.846 37.752H122.931V36.598H124.331V43.4963C124.331 45.0977 123.067 46.122 121.07 46.122ZM121.05 42.1348C122.243 42.1348 122.963 41.2271 122.963 39.911V39.898C122.963 38.5884 122.237 37.6677 121.05 37.6677C119.851 37.6677 119.177 38.5884 119.177 39.898V39.911C119.177 41.2206 119.851 42.1348 121.05 42.1348ZM128.915 43.7751C127.216 43.7751 126.14 42.9776 126.004 41.7976V41.7912H127.411L127.417 41.7976C127.592 42.3293 128.104 42.6859 128.941 42.6859C129.809 42.6859 130.412 42.2904 130.412 41.7134V41.7004C130.412 41.2595 130.082 40.9613 129.265 40.7733L128.143 40.5139C126.814 40.2092 126.198 39.6063 126.198 38.5754V38.5689C126.198 37.3436 127.339 36.4618 128.934 36.4618C130.542 36.4618 131.573 37.2658 131.696 38.4133V38.4198H130.354V38.4068C130.218 37.9141 129.719 37.5446 128.928 37.5446C128.156 37.5446 127.599 37.9271 127.599 38.4911V38.5041C127.599 38.945 127.923 39.2173 128.714 39.4053L129.829 39.6581C131.184 39.9758 131.832 40.5528 131.832 41.5707V41.5837C131.832 42.8868 130.587 43.7751 128.915 43.7751ZM136.494 43.7751C134.426 43.7751 133.161 42.3941 133.161 40.1249V40.112C133.161 37.8493 134.432 36.4618 136.494 36.4618C138.549 36.4618 139.82 37.8428 139.82 40.112V40.1249C139.82 42.3941 138.555 43.7751 136.494 43.7751ZM136.494 42.6016C137.7 42.6016 138.387 41.6809 138.387 40.1249V40.112C138.387 38.5495 137.7 37.6353 136.494 37.6353C135.281 37.6353 134.601 38.5495 134.601 40.112V40.1249C134.601 41.6874 135.281 42.6016 136.494 42.6016ZM141.499 43.6389V36.598H142.906V37.6677H143.01C143.353 36.9157 144.027 36.4618 145.052 36.4618C146.627 36.4618 147.496 37.4019 147.496 39.0811V43.6389H146.096V39.4118C146.096 38.2448 145.609 37.6677 144.579 37.6677C143.548 37.6677 142.906 38.3744 142.906 39.509V43.6389H141.499ZM153.824 35.3402C153.338 35.3402 152.942 34.9447 152.942 34.465C152.942 33.9787 153.338 33.5832 153.824 33.5832C154.304 33.5832 154.706 33.9787 154.706 34.465C154.706 34.9447 154.304 35.3402 153.824 35.3402ZM153.117 43.6389V36.598H154.518V43.6389H153.117ZM159.127 43.7751C157.429 43.7751 156.352 42.9776 156.216 41.7976V41.7912H157.623L157.63 41.7976C157.805 42.3293 158.317 42.6859 159.153 42.6859C160.022 42.6859 160.625 42.2904 160.625 41.7134V41.7004C160.625 41.2595 160.294 40.9613 159.477 40.7733L158.356 40.5139C157.027 40.2092 156.411 39.6063 156.411 38.5754V38.5689C156.411 37.3436 157.552 36.4618 159.147 36.4618C160.755 36.4618 161.785 37.2658 161.909 38.4133V38.4198H160.566V38.4068C160.43 37.9141 159.931 37.5446 159.14 37.5446C158.369 37.5446 157.811 37.9271 157.811 38.4911V38.5041C157.811 38.945 158.135 39.2173 158.926 39.4053L160.041 39.6581C161.396 39.9758 162.045 40.5528 162.045 41.5707V41.5837C162.045 42.8868 160.8 43.7751 159.127 43.7751ZM170.337 43.7751C168.269 43.7751 167.004 42.3941 167.004 40.1249V40.112C167.004 37.8493 168.275 36.4618 170.337 36.4618C172.392 36.4618 173.663 37.8428 173.663 40.112V40.1249C173.663 42.3941 172.399 43.7751 170.337 43.7751ZM170.337 42.6016C171.543 42.6016 172.23 41.6809 172.23 40.1249V40.112C172.23 38.5495 171.543 37.6353 170.337 37.6353C169.125 37.6353 168.444 38.5495 168.444 40.112V40.1249C168.444 41.6874 169.125 42.6016 170.337 42.6016ZM175.342 43.6389V36.598H176.749V37.6677H176.853C177.196 36.9157 177.871 36.4618 178.895 36.4618C180.47 36.4618 181.339 37.4019 181.339 39.0811V43.6389H179.939V39.4118C179.939 38.2448 179.453 37.6677 178.422 37.6677C177.391 37.6677 176.749 38.3744 176.749 39.509V43.6389H175.342ZM187.045 43.7556C186.059 43.7556 185.288 43.3018 184.879 42.5303H184.775V43.6389H183.368V33.8361H184.775V37.7131H184.879C185.255 36.9546 186.078 36.4748 187.045 36.4748C188.834 36.4748 189.962 37.8817 189.962 40.112V40.1249C189.962 42.3358 188.821 43.7556 187.045 43.7556ZM186.649 42.5562C187.823 42.5562 188.529 41.6356 188.529 40.1249V40.112C188.529 38.6013 187.823 37.6807 186.649 37.6807C185.476 37.6807 184.749 38.6078 184.749 40.112V40.1249C184.749 41.6291 185.476 42.5562 186.649 42.5562ZM194.624 43.7751C192.555 43.7751 191.291 42.3941 191.291 40.1249V40.112C191.291 37.8493 192.562 36.4618 194.624 36.4618C196.679 36.4618 197.95 37.8428 197.95 40.112V40.1249C197.95 42.3941 196.685 43.7751 194.624 43.7751ZM194.624 42.6016C195.829 42.6016 196.517 41.6809 196.517 40.1249V40.112C196.517 38.5495 195.829 37.6353 194.624 37.6353C193.411 37.6353 192.73 38.5495 192.73 40.112V40.1249C192.73 41.6874 193.411 42.6016 194.624 42.6016ZM201.561 43.7556C200.219 43.7556 199.227 42.9387 199.227 41.6615V41.6485C199.227 40.3908 200.173 39.6581 201.853 39.5544L203.759 39.4442V38.8218C203.759 38.0503 203.272 37.6224 202.319 37.6224C201.541 37.6224 201.029 37.9076 200.861 38.4068L200.854 38.4328H199.499L199.506 38.3874C199.674 37.2334 200.783 36.4618 202.384 36.4618C204.154 36.4618 205.153 37.3436 205.153 38.8218V43.6389H203.759V42.6405H203.648C203.233 43.3536 202.494 43.7556 201.561 43.7556ZM200.627 41.6031C200.627 42.2515 201.178 42.634 201.937 42.634C202.987 42.634 203.759 41.9468 203.759 41.0391V40.4361L202.041 40.5464C201.068 40.6047 200.627 40.9548 200.627 41.5902V41.6031ZM207.136 43.6389V36.598H208.543V37.6613H208.647C208.9 36.9157 209.555 36.4748 210.495 36.4748C210.722 36.4748 210.968 36.5072 211.111 36.5396V37.8363C210.858 37.7844 210.618 37.752 210.352 37.752C209.276 37.752 208.543 38.4133 208.543 39.4312V43.6389H207.136ZM214.839 43.7556C213.069 43.7556 211.921 42.3358 211.921 40.1249V40.112C211.921 37.8817 213.049 36.4748 214.839 36.4748C215.805 36.4748 216.628 36.9546 217.004 37.7131H217.114V33.8361H218.515V43.6389H217.114V42.5303H217.004C216.596 43.3018 215.824 43.7556 214.839 43.7556ZM215.241 42.5562C216.414 42.5562 217.134 41.6291 217.134 40.1249V40.112C217.134 38.6078 216.408 37.6807 215.241 37.6807C214.061 37.6807 213.354 38.6013 213.354 40.112V40.1249C213.354 41.6356 214.061 42.5562 215.241 42.5562ZM221.341 35.3402C220.855 35.3402 220.46 34.9447 220.46 34.465C220.46 33.9787 220.855 33.5832 221.341 33.5832C221.821 33.5832 222.223 33.9787 222.223 34.465C222.223 34.9447 221.821 35.3402 221.341 35.3402ZM220.635 43.6389V36.598H222.035V43.6389H220.635ZM224.084 43.6389V36.598H225.491V37.6677H225.595C225.938 36.9157 226.612 36.4618 227.637 36.4618C229.212 36.4618 230.081 37.4019 230.081 39.0811V43.6389H228.681V39.4118C228.681 38.2448 228.194 37.6677 227.164 37.6677C226.133 37.6677 225.491 38.3744 225.491 39.509V43.6389H224.084ZM235.021 46.122C233.232 46.122 232.13 45.3376 231.961 44.1641L231.974 44.1511H233.394L233.401 44.1641C233.517 44.6503 234.088 44.9939 235.041 44.9939C236.201 44.9939 236.889 44.4493 236.889 43.4898V42.1024H236.785C236.357 42.8674 235.579 43.2953 234.613 43.2953C232.804 43.2953 231.689 41.9014 231.689 39.9175V39.9045C231.689 37.8947 232.811 36.4748 234.639 36.4748C235.624 36.4748 236.389 36.9611 236.798 37.752H236.882V36.598H238.282V43.4963C238.282 45.0977 237.018 46.122 235.021 46.122ZM235.002 42.1348C236.195 42.1348 236.914 41.2271 236.914 39.911V39.898C236.914 38.5884 236.188 37.6677 235.002 37.6677C233.802 37.6677 233.128 38.5884 233.128 39.898V39.911C233.128 41.2206 233.802 42.1348 235.002 42.1348Z" fill="#262C36"/>
<ellipse cx="244.231" cy="38.639" rx="0.948423" ry="0.948422" fill="#414857"/>
<g filter="url(#filter0_i_172_6504)">
<path d="M260.354 38.6389C260.354 41.7817 257.806 44.3294 254.664 44.3294C251.521 44.3294 248.973 41.7817 248.973 38.6389C248.973 35.4961 251.521 32.9484 254.664 32.9484C257.806 32.9484 260.354 35.4961 260.354 38.6389ZM250.59 38.6389C250.59 40.8885 252.414 42.7122 254.664 42.7122C256.913 42.7122 258.737 40.8885 258.737 38.6389C258.737 36.3893 256.913 34.5656 254.664 34.5656C252.414 34.5656 250.59 36.3893 250.59 38.6389Z" fill="#9F8AF9"/>
</g>
<path d="M265.159 42.6389V41.6534L268.264 38.3923C269.503 37.1021 269.859 36.6224 269.859 35.8638V35.8444C269.859 34.9302 269.23 34.2559 268.206 34.2559C267.156 34.2559 266.456 34.9432 266.456 35.9675L266.449 35.987H265.088L265.075 35.974C265.081 34.2624 266.404 33.0565 268.284 33.0565C270.028 33.0565 271.312 34.1652 271.312 35.7082V35.7277C271.312 36.7909 270.819 37.6078 269.12 39.2935L267.136 41.2709V41.4006H271.461V42.6389H265.159ZM276.537 32.8361L273.678 44.9859H272.355L275.215 32.8361H276.537ZM280.849 42.814C278.852 42.814 277.549 41.7183 277.425 40.1688L277.419 40.091H278.806L278.813 40.1558C278.904 41.0051 279.688 41.6016 280.849 41.6016C281.99 41.6016 282.761 40.9597 282.761 40.0391V40.0261C282.761 38.9693 281.996 38.3793 280.751 38.3793H279.61V37.2512H280.706C281.776 37.2512 282.502 36.6224 282.502 35.7536V35.7406C282.502 34.833 281.892 34.3013 280.836 34.3013C279.798 34.3013 279.072 34.8524 278.981 35.7341L278.975 35.799H277.613L277.62 35.7277C277.763 34.1522 279.007 33.1084 280.836 33.1084C282.696 33.1084 283.915 34.1068 283.915 35.5526V35.5656C283.915 36.7261 283.085 37.5041 281.944 37.744V37.7764C283.319 37.8996 284.239 38.7295 284.239 40.0391V40.0521C284.239 41.6599 282.832 42.814 280.849 42.814ZM292.681 42.7751C290.625 42.7751 289.368 41.3747 289.368 39.099V39.086C289.368 36.8558 290.619 35.4618 292.674 35.4618C294.444 35.4618 295.501 36.4603 295.695 37.8283V37.8607L294.347 37.8672L294.34 37.8477C294.185 37.154 293.614 36.6353 292.681 36.6353C291.507 36.6353 290.801 37.5689 290.801 39.086V39.099C290.801 40.655 291.52 41.6016 292.681 41.6016C293.562 41.6016 294.107 41.1996 294.334 40.4411L294.347 40.4086H295.695L295.683 40.467C295.43 41.835 294.425 42.7751 292.681 42.7751ZM300.273 42.7751C298.205 42.7751 296.94 41.3941 296.94 39.1249V39.112C296.94 36.8493 298.211 35.4618 300.273 35.4618C302.328 35.4618 303.599 36.8428 303.599 39.112V39.1249C303.599 41.3941 302.334 42.7751 300.273 42.7751ZM300.273 41.6016C301.479 41.6016 302.166 40.6809 302.166 39.1249V39.112C302.166 37.5495 301.479 36.6353 300.273 36.6353C299.06 36.6353 298.38 37.5495 298.38 39.112V39.1249C298.38 40.6874 299.06 41.6016 300.273 41.6016ZM305.278 42.6389V35.598H306.685V36.6807H306.789C307.1 35.9092 307.787 35.4618 308.708 35.4618C309.667 35.4618 310.348 35.9611 310.659 36.7196H310.769C311.126 35.9611 311.936 35.4618 312.915 35.4618C314.335 35.4618 315.165 36.3176 315.165 37.7829V42.6389H313.765V38.12C313.765 37.1475 313.324 36.6677 312.403 36.6677C311.508 36.6677 310.918 37.3355 310.918 38.1848V42.6389H309.518V37.9774C309.518 37.1734 308.993 36.6677 308.163 36.6677C307.314 36.6677 306.685 37.3939 306.685 38.3145V42.6389H305.278ZM317.129 44.9859V35.598H318.536V36.7066H318.64C319.049 35.9351 319.82 35.4748 320.806 35.4748C322.582 35.4748 323.723 36.8947 323.723 39.112V39.1249C323.723 41.3552 322.595 42.7556 320.806 42.7556C319.84 42.7556 319.016 42.2823 318.64 41.5238H318.536V44.9859H317.129ZM320.41 41.5562C321.584 41.5562 322.29 40.6356 322.29 39.1249V39.112C322.29 37.5949 321.584 36.6807 320.41 36.6807C319.237 36.6807 318.51 37.6078 318.51 39.112V39.1249C318.51 40.6291 319.237 41.5562 320.41 41.5562ZM325.48 42.6389V32.8361H326.887V42.6389H325.48ZM331.937 42.7751C329.876 42.7751 328.631 41.3682 328.631 39.1379V39.1314C328.631 36.9336 329.902 35.4618 331.866 35.4618C333.831 35.4618 335.036 36.8817 335.036 38.9953V39.488H330.044C330.07 40.8365 330.809 41.621 331.97 41.621C332.871 41.621 333.409 41.1737 333.578 40.8106L333.604 40.7587L334.959 40.7523L334.946 40.8106C334.712 41.7377 333.74 42.7751 331.937 42.7751ZM331.873 36.6159C330.913 36.6159 330.187 37.2707 330.064 38.4831H333.643C333.532 37.2253 332.826 36.6159 331.873 36.6159ZM339.367 42.6843C337.818 42.6843 337.182 42.1397 337.182 40.7847V36.7066H336.08V35.598H337.182V33.8215H338.615V35.598H340.126V36.7066H338.615V40.4475C338.615 41.2061 338.901 41.5173 339.594 41.5173C339.808 41.5173 339.931 41.5108 340.126 41.4914V42.613C339.899 42.6519 339.64 42.6843 339.367 42.6843ZM344.645 42.7751C342.583 42.7751 341.338 41.3682 341.338 39.1379V39.1314C341.338 36.9336 342.609 35.4618 344.574 35.4618C346.538 35.4618 347.744 36.8817 347.744 38.9953V39.488H342.752C342.778 40.8365 343.517 41.621 344.677 41.621C345.578 41.621 346.117 41.1737 346.285 40.8106L346.311 40.7587L347.666 40.7523L347.653 40.8106C347.42 41.7377 346.447 42.7751 344.645 42.7751ZM344.58 36.6159C343.62 36.6159 342.894 37.2707 342.771 38.4831H346.35C346.24 37.2253 345.533 36.6159 344.58 36.6159ZM351.984 42.7556C350.214 42.7556 349.066 41.3358 349.066 39.1249V39.112C349.066 36.8817 350.195 35.4748 351.984 35.4748C352.95 35.4748 353.773 35.9546 354.149 36.7131H354.26V32.8361H355.66V42.6389H354.26V41.5303H354.149C353.741 42.3018 352.969 42.7556 351.984 42.7556ZM352.386 41.5562C353.559 41.5562 354.279 40.6291 354.279 39.1249V39.112C354.279 37.6078 353.553 36.6807 352.386 36.6807C351.206 36.6807 350.499 37.6013 350.499 39.112V39.1249C350.499 40.6356 351.206 41.5562 352.386 41.5562Z" fill="#414857"/>
<path d="M49.8753 -5.82524C49.8753 2.29365 43.2937 8.87531 35.1748 8.87531C27.0559 8.87531 20.4742 2.29365 20.4742 -5.82524C20.4742 -13.9441 27.0559 -20.5258 35.1748 -20.5258C43.2937 -20.5258 49.8753 -13.9441 49.8753 -5.82524Z" stroke="#EFF2F7" stroke-width="0.948423"/>
<ellipse cx="35.175" cy="-5.82535" rx="11.3811" ry="11.3811" fill="#F7DEF5"/>
<g filter="url(#filter1_dd_172_6504)">
<rect x="32.7778" y="79.639" width="13.2779" height="13.2779" rx="1.89685" fill="#DDE2EB"/>
<path d="M37.8549 90.131L34.9942 87.3222C34.5683 86.904 34.5683 86.2484 34.9942 85.8302C35.4529 85.3799 36.2231 85.3799 36.6817 85.8302L37.8549 86.9821L42.1521 82.7628C42.6108 82.3125 43.381 82.3125 43.8396 82.7628C44.2655 83.181 44.2655 83.8366 43.8396 84.2548L37.8549 90.131Z" fill="white"/>
<path d="M58.7363 90.4984C57.1155 90.4984 56.2013 89.4935 56.1041 88.1514L56.0976 88.0606H57.2646L57.2711 88.1255C57.3424 88.8322 57.8027 89.4222 58.7299 89.4222C59.7672 89.4222 60.3248 88.8062 60.3248 87.6652V80.9225H61.4918V87.6781C61.4918 89.4481 60.4674 90.4984 58.7363 90.4984ZM66.6071 90.4011C64.6167 90.4011 63.3849 89.0267 63.3849 86.7899V86.7769C63.3849 84.5337 64.6167 83.1657 66.6071 83.1657C68.5975 83.1657 69.8294 84.5337 69.8294 86.7769V86.7899C69.8294 89.0267 68.5975 90.4011 66.6071 90.4011ZM66.6071 89.4027C67.9297 89.4027 68.6753 88.4367 68.6753 86.7899V86.7769C68.6753 85.1237 67.9297 84.1641 66.6071 84.1641C65.2845 84.1641 64.5389 85.1237 64.5389 86.7769V86.7899C64.5389 88.4367 65.2845 89.4027 66.6071 89.4027ZM72.1763 81.9404C71.7484 81.9404 71.3983 81.5903 71.3983 81.1624C71.3983 80.7345 71.7484 80.3843 72.1763 80.3843C72.6042 80.3843 72.9543 80.7345 72.9543 81.1624C72.9543 81.5903 72.6042 81.9404 72.1763 81.9404ZM71.6058 90.278V83.2889H72.7339V90.278H71.6058ZM74.8604 90.278V83.2889H75.9886V84.3392H76.0923C76.4424 83.6001 77.0972 83.1657 78.1281 83.1657C79.697 83.1657 80.5723 84.0928 80.5723 85.7526V90.278H79.4442V86.0249C79.4442 84.7671 78.9255 84.1641 77.8104 84.1641C76.6952 84.1641 75.9886 84.9162 75.9886 86.1416V90.278H74.8604ZM88.8321 90.3298C87.3928 90.3298 86.7898 89.7982 86.7898 88.4626V84.2225H85.6877V83.2889H86.7898V81.48H87.9568V83.2889H89.4869V84.2225H87.9568V88.1773C87.9568 89.0007 88.2421 89.3314 88.9682 89.3314C89.1692 89.3314 89.2794 89.3249 89.4869 89.3055V90.265C89.2665 90.3039 89.0525 90.3298 88.8321 90.3298ZM91.2374 90.278V80.514H92.3655V84.3392H92.4692C92.8193 83.6001 93.4742 83.1657 94.505 83.1657C96.074 83.1657 96.9492 84.0928 96.9492 85.7526V90.278H95.8211V86.0249C95.8211 84.7671 95.3025 84.1641 94.1873 84.1641C93.0722 84.1641 92.3655 84.9162 92.3655 86.1416V90.278H91.2374ZM101.844 90.4011C99.8473 90.4011 98.6414 89.0007 98.6414 86.8094V86.8029C98.6414 84.6439 99.8732 83.1657 101.773 83.1657C103.672 83.1657 104.827 84.5791 104.827 86.6667V87.1076H99.7954C99.8279 88.5534 100.625 89.3962 101.87 89.3962C102.817 89.3962 103.4 88.9489 103.588 88.5274L103.614 88.4691H104.742L104.729 88.521C104.489 89.4675 103.491 90.4011 101.844 90.4011ZM101.766 84.1706C100.729 84.1706 99.9381 84.8773 99.8149 86.2064H103.679C103.562 84.8254 102.797 84.1706 101.766 84.1706ZM113.164 90.4011C111.167 90.4011 109.961 89.0007 109.961 86.8094V86.8029C109.961 84.6439 111.193 83.1657 113.093 83.1657C114.992 83.1657 116.146 84.5791 116.146 86.6667V87.1076H111.115C111.148 88.5534 111.945 89.3962 113.19 89.3962C114.137 89.3962 114.72 88.9489 114.908 88.5274L114.934 88.4691H116.062L116.049 88.521C115.809 89.4675 114.811 90.4011 113.164 90.4011ZM113.086 84.1706C112.049 84.1706 111.258 84.8773 111.135 86.2064H114.999C114.882 84.8254 114.117 84.1706 113.086 84.1706ZM117.08 90.278L119.472 86.7834L117.054 83.2889H118.383L120.043 85.8887H120.147L121.787 83.2889H123.051L120.678 86.738L123.084 90.278H121.761L120.108 87.6392H120.004L118.344 90.278H117.08ZM127.136 90.4011C125.178 90.4011 123.927 88.9813 123.927 86.764V86.751C123.927 84.5791 125.171 83.1657 127.129 83.1657C128.828 83.1657 129.846 84.1447 130.053 85.3895L130.06 85.4284H128.938L128.932 85.409C128.757 84.7217 128.134 84.1641 127.129 84.1641C125.872 84.1641 125.081 85.1756 125.081 86.751V86.764C125.081 88.3718 125.884 89.4027 127.129 89.4027C128.069 89.4027 128.666 88.9878 128.925 88.2098L128.938 88.1709L130.053 88.1644L130.04 88.2357C129.755 89.5 128.815 90.4011 127.136 90.4011ZM131.771 90.278V80.514H132.899V90.278H131.771ZM137.405 90.4011C135.817 90.4011 135 89.4675 135 87.8143V83.2889H136.128V87.542C136.128 88.7997 136.582 89.4027 137.697 89.4027C138.929 89.4027 139.584 88.6506 139.584 87.4253V83.2889H140.712V90.278H139.584V89.2341H139.48C139.136 89.9797 138.43 90.4011 137.405 90.4011ZM145.218 90.4011C143.662 90.4011 142.592 89.6491 142.462 88.495H143.616C143.804 89.0785 144.362 89.4611 145.257 89.4611C146.197 89.4611 146.865 89.0137 146.865 88.3783V88.3654C146.865 87.8921 146.508 87.5614 145.646 87.354L144.563 87.0946C143.253 86.7834 142.663 86.2129 142.663 85.208V85.2015C142.663 84.041 143.779 83.1657 145.263 83.1657C146.728 83.1657 147.746 83.8983 147.902 85.0394H146.793C146.644 84.4883 146.1 84.1058 145.257 84.1058C144.427 84.1058 143.817 84.5337 143.817 85.1496V85.1626C143.817 85.6359 144.168 85.9341 144.991 86.1351L146.067 86.3944C147.383 86.7121 148.019 87.2826 148.019 88.2811V88.294C148.019 89.5389 146.806 90.4011 145.218 90.4011ZM150.366 81.9404C149.938 81.9404 149.588 81.5903 149.588 81.1624C149.588 80.7345 149.938 80.3843 150.366 80.3843C150.794 80.3843 151.144 80.7345 151.144 81.1624C151.144 81.5903 150.794 81.9404 150.366 81.9404ZM149.795 90.278V83.2889H150.923V90.278H149.795ZM155.027 90.278L152.44 83.2889H153.633L155.546 89.0461H155.65L157.562 83.2889H158.755L156.168 90.278H155.027ZM162.84 90.4011C160.843 90.4011 159.637 89.0007 159.637 86.8094V86.8029C159.637 84.6439 160.869 83.1657 162.768 83.1657C164.668 83.1657 165.822 84.5791 165.822 86.6667V87.1076H160.791C160.823 88.5534 161.621 89.3962 162.866 89.3962C163.812 89.3962 164.396 88.9489 164.584 88.5274L164.61 88.4691H165.738L165.725 88.521C165.485 89.4675 164.486 90.4011 162.84 90.4011ZM162.762 84.1706C161.724 84.1706 160.934 84.8773 160.81 86.2064H164.674C164.558 84.8254 163.793 84.1706 162.762 84.1706ZM274.95 90.278V84.2225H273.789V83.2889H274.95V82.5109C274.95 81.117 275.65 80.4492 276.979 80.4492C277.251 80.4492 277.498 80.4686 277.731 80.514V81.4152C277.595 81.3893 277.407 81.3828 277.206 81.3828C276.402 81.3828 276.078 81.7783 276.078 82.5433V83.2889H277.666V84.2225H276.078V90.278H274.95ZM281.868 90.4011C279.877 90.4011 278.645 89.0267 278.645 86.7899V86.7769C278.645 84.5337 279.877 83.1657 281.868 83.1657C283.858 83.1657 285.09 84.5337 285.09 86.7769V86.7899C285.09 89.0267 283.858 90.4011 281.868 90.4011ZM281.868 89.4027C283.19 89.4027 283.936 88.4367 283.936 86.7899V86.7769C283.936 85.1237 283.19 84.1641 281.868 84.1641C280.545 84.1641 279.799 85.1237 279.799 86.7769V86.7899C279.799 88.4367 280.545 89.4027 281.868 89.4027ZM286.84 90.278V83.2889H287.968V84.3262H288.072C288.338 83.5936 288.993 83.1657 289.939 83.1657C290.153 83.1657 290.393 83.1916 290.503 83.2111V84.3068C290.27 84.2679 290.056 84.2419 289.81 84.2419C288.733 84.2419 287.968 84.9227 287.968 85.9471V90.278H286.84ZM297.551 90.4011C296.222 90.4011 295.217 89.5972 295.217 88.3265V88.3135C295.217 87.0687 296.137 86.349 297.765 86.2518L299.768 86.1286V85.4932C299.768 84.6309 299.243 84.1641 298.199 84.1641C297.363 84.1641 296.812 84.4753 296.63 85.02L296.624 85.0394H295.496L295.502 85.0005C295.684 83.9048 296.747 83.1657 298.238 83.1657C299.943 83.1657 300.896 84.041 300.896 85.4932V90.278H299.768V89.2471H299.664C299.224 89.9927 298.491 90.4011 297.551 90.4011ZM296.371 88.3005C296.371 89.0072 296.974 89.4222 297.784 89.4222C298.932 89.4222 299.768 88.6701 299.768 87.6716V87.0363L297.901 87.153C296.838 87.2178 296.371 87.5938 296.371 88.2876V88.3005ZM303.023 90.278V80.514H304.151V90.278H303.023ZM306.381 90.278V80.514H307.509V90.278H306.381ZM316.268 90.4011C314.31 90.4011 313.059 88.9813 313.059 86.764V86.751C313.059 84.5791 314.304 83.1657 316.262 83.1657C317.96 83.1657 318.978 84.1447 319.186 85.3895L319.192 85.4284H318.071L318.064 85.409C317.889 84.7217 317.267 84.1641 316.262 84.1641C315.004 84.1641 314.213 85.1756 314.213 86.751V86.764C314.213 88.3718 315.017 89.4027 316.262 89.4027C317.202 89.4027 317.798 88.9878 318.058 88.2098L318.071 88.1709L319.186 88.1644L319.173 88.2357C318.888 89.5 317.947 90.4011 316.268 90.4011ZM320.904 90.278V80.514H322.032V84.3392H322.136C322.486 83.6001 323.141 83.1657 324.172 83.1657C325.74 83.1657 326.616 84.0928 326.616 85.7526V90.278H325.488V86.0249C325.488 84.7671 324.969 84.1641 323.854 84.1641C322.739 84.1641 322.032 84.9162 322.032 86.1416V90.278H320.904ZM330.577 90.4011C329.248 90.4011 328.243 89.5972 328.243 88.3265V88.3135C328.243 87.0687 329.164 86.349 330.791 86.2518L332.794 86.1286V85.4932C332.794 84.6309 332.269 84.1641 331.225 84.1641C330.389 84.1641 329.838 84.4753 329.656 85.02L329.65 85.0394H328.522L328.528 85.0005C328.71 83.9048 329.773 83.1657 331.264 83.1657C332.969 83.1657 333.922 84.041 333.922 85.4932V90.278H332.794V89.2471H332.691C332.25 89.9927 331.517 90.4011 330.577 90.4011ZM329.397 88.3005C329.397 89.0072 330 89.4222 330.81 89.4222C331.958 89.4222 332.794 88.6701 332.794 87.6716V87.0363L330.927 87.153C329.864 87.2178 329.397 87.5938 329.397 88.2876V88.3005ZM335.984 90.278V83.2889H337.112V84.3522H337.216C337.527 83.6001 338.189 83.1657 339.103 83.1657C340.049 83.1657 340.711 83.6649 341.035 84.3911H341.138C341.514 83.652 342.312 83.1657 343.278 83.1657C344.704 83.1657 345.502 83.9826 345.502 85.4479V90.278H344.374V85.7072C344.374 84.6763 343.9 84.1641 342.915 84.1641C341.942 84.1641 341.301 84.8968 341.301 85.785V90.278H340.172V85.5321C340.172 84.7023 339.602 84.1641 338.72 84.1641C337.806 84.1641 337.112 84.9616 337.112 85.9471V90.278H335.984ZM347.538 92.612V83.2889H348.666V84.404H348.769C349.197 83.626 349.975 83.1657 350.948 83.1657C352.718 83.1657 353.878 84.5985 353.878 86.7769V86.7899C353.878 88.9813 352.724 90.4011 350.948 90.4011C349.988 90.4011 349.152 89.9214 348.769 89.1758H348.666V92.612H347.538ZM350.688 89.4027C351.966 89.4027 352.724 88.4172 352.724 86.7899V86.7769C352.724 85.1496 351.966 84.1641 350.688 84.1641C349.418 84.1641 348.64 85.1626 348.64 86.7769V86.7899C348.64 88.4043 349.418 89.4027 350.688 89.4027ZM356.238 81.9404C355.81 81.9404 355.46 81.5903 355.46 81.1624C355.46 80.7345 355.81 80.3843 356.238 80.3843C356.666 80.3843 357.016 80.7345 357.016 81.1624C357.016 81.5903 356.666 81.9404 356.238 81.9404ZM355.668 90.278V83.2889H356.796V90.278H355.668ZM361.794 90.4011C359.804 90.4011 358.572 89.0267 358.572 86.7899V86.7769C358.572 84.5337 359.804 83.1657 361.794 83.1657C363.785 83.1657 365.017 84.5337 365.017 86.7769V86.7899C365.017 89.0267 363.785 90.4011 361.794 90.4011ZM361.794 89.4027C363.117 89.4027 363.863 88.4367 363.863 86.7899V86.7769C363.863 85.1237 363.117 84.1641 361.794 84.1641C360.472 84.1641 359.726 85.1237 359.726 86.7769V86.7899C359.726 88.4367 360.472 89.4027 361.794 89.4027ZM366.767 90.278V83.2889H367.895V84.3392H367.999C368.349 83.6001 369.004 83.1657 370.035 83.1657C371.604 83.1657 372.479 84.0928 372.479 85.7526V90.278H371.351V86.0249C371.351 84.7671 370.832 84.1641 369.717 84.1641C368.602 84.1641 367.895 84.9162 367.895 86.1416V90.278H366.767ZM376.92 90.4011C375.364 90.4011 374.294 89.6491 374.165 88.495H375.319C375.507 89.0785 376.064 89.4611 376.959 89.4611C377.899 89.4611 378.567 89.0137 378.567 88.3783V88.3654C378.567 87.8921 378.21 87.5614 377.348 87.354L376.265 87.0946C374.956 86.7834 374.366 86.2129 374.366 85.208V85.2015C374.366 84.041 375.481 83.1657 376.966 83.1657C378.431 83.1657 379.449 83.8983 379.604 85.0394H378.496C378.346 84.4883 377.802 84.1058 376.959 84.1058C376.129 84.1058 375.52 84.5337 375.52 85.1496V85.1626C375.52 85.6359 375.87 85.9341 376.693 86.1351L377.769 86.3944C379.086 86.7121 379.721 87.2826 379.721 88.2811V88.294C379.721 89.5389 378.509 90.4011 376.92 90.4011Z" fill="#6D7685"/>
<path d="M173.887 90.4011C172.117 90.4011 170.957 88.9683 170.957 86.7899V86.7769C170.957 84.5856 172.111 83.1657 173.887 83.1657C174.847 83.1657 175.683 83.6455 176.066 84.3911H176.169V80.514H177.298V90.278H176.169V89.1628H176.066C175.638 89.9408 174.86 90.4011 173.887 90.4011ZM174.147 89.4027C175.417 89.4027 176.195 88.4043 176.195 86.7899V86.7769C176.195 85.1626 175.417 84.1641 174.147 84.1641C172.869 84.1641 172.111 85.1496 172.111 86.7769V86.7899C172.111 88.4172 172.869 89.4027 174.147 89.4027ZM180.059 81.9404C179.632 81.9404 179.281 81.5903 179.281 81.1624C179.281 80.7345 179.632 80.3843 180.059 80.3843C180.487 80.3843 180.837 80.7345 180.837 81.1624C180.837 81.5903 180.487 81.9404 180.059 81.9404ZM179.489 90.278V83.2889H180.617V90.278H179.489ZM185.142 90.4011C183.586 90.4011 182.517 89.6491 182.387 88.495H183.541C183.729 89.0785 184.287 89.4611 185.181 89.4611C186.121 89.4611 186.789 89.0137 186.789 88.3783V88.3654C186.789 87.8921 186.433 87.5614 185.57 87.354L184.488 87.0946C183.178 86.7834 182.588 86.2129 182.588 85.208V85.2015C182.588 84.041 183.703 83.1657 185.188 83.1657C186.653 83.1657 187.671 83.8983 187.826 85.0394H186.718C186.569 84.4883 186.024 84.1058 185.181 84.1058C184.351 84.1058 183.742 84.5337 183.742 85.1496V85.1626C183.742 85.6359 184.092 85.9341 184.915 86.1351L185.992 86.3944C187.308 86.7121 187.943 87.2826 187.943 88.2811V88.294C187.943 89.5389 186.731 90.4011 185.142 90.4011ZM192.553 90.4011C190.595 90.4011 189.344 88.9813 189.344 86.764V86.751C189.344 84.5791 190.588 83.1657 192.546 83.1657C194.245 83.1657 195.263 84.1447 195.47 85.3895L195.477 85.4284H194.355L194.349 85.409C194.174 84.7217 193.551 84.1641 192.546 84.1641C191.289 84.1641 190.498 85.1756 190.498 86.751V86.764C190.498 88.3718 191.302 89.4027 192.546 89.4027C193.486 89.4027 194.083 88.9878 194.342 88.2098L194.355 88.1709L195.47 88.1644L195.457 88.2357C195.172 89.5 194.232 90.4011 192.553 90.4011ZM199.996 90.4011C198.005 90.4011 196.774 89.0267 196.774 86.7899V86.7769C196.774 84.5337 198.005 83.1657 199.996 83.1657C201.986 83.1657 203.218 84.5337 203.218 86.7769V86.7899C203.218 89.0267 201.986 90.4011 199.996 90.4011ZM199.996 89.4027C201.318 89.4027 202.064 88.4367 202.064 86.7899V86.7769C202.064 85.1237 201.318 84.1641 199.996 84.1641C198.673 84.1641 197.928 85.1237 197.928 86.7769V86.7899C197.928 88.4367 198.673 89.4027 199.996 89.4027ZM204.968 90.278V83.2889H206.097V84.3262H206.2C206.466 83.5936 207.121 83.1657 208.068 83.1657C208.281 83.1657 208.521 83.1916 208.632 83.2111V84.3068C208.398 84.2679 208.184 84.2419 207.938 84.2419C206.862 84.2419 206.097 84.9227 206.097 85.9471V90.278H204.968ZM212.411 90.4011C210.641 90.4011 209.481 88.9683 209.481 86.7899V86.7769C209.481 84.5856 210.635 83.1657 212.411 83.1657C213.371 83.1657 214.207 83.6455 214.59 84.3911H214.694V80.514H215.822V90.278H214.694V89.1628H214.59C214.162 89.9408 213.384 90.4011 212.411 90.4011ZM212.671 89.4027C213.941 89.4027 214.719 88.4043 214.719 86.7899V86.7769C214.719 85.1626 213.941 84.1641 212.671 84.1641C211.393 84.1641 210.635 85.1496 210.635 86.7769V86.7899C210.635 88.4172 211.393 89.4027 212.671 89.4027ZM224.581 90.4011C222.623 90.4011 221.371 88.9813 221.371 86.764V86.751C221.371 84.5791 222.616 83.1657 224.574 83.1657C226.273 83.1657 227.291 84.1447 227.498 85.3895L227.505 85.4284H226.383L226.377 85.409C226.201 84.7217 225.579 84.1641 224.574 84.1641C223.316 84.1641 222.525 85.1756 222.525 86.751V86.764C222.525 88.3718 223.329 89.4027 224.574 89.4027C225.514 89.4027 226.111 88.9878 226.37 88.2098L226.383 88.1709L227.498 88.1644L227.485 88.2357C227.2 89.5 226.26 90.4011 224.581 90.4011ZM229.216 90.278V80.514H230.344V84.3392H230.448C230.798 83.6001 231.453 83.1657 232.484 83.1657C234.053 83.1657 234.928 84.0928 234.928 85.7526V90.278H233.8V86.0249C233.8 84.7671 233.281 84.1641 232.166 84.1641C231.051 84.1641 230.344 84.9162 230.344 86.1416V90.278H229.216ZM238.889 90.4011C237.56 90.4011 236.555 89.5972 236.555 88.3265V88.3135C236.555 87.0687 237.476 86.349 239.103 86.2518L241.107 86.1286V85.4932C241.107 84.6309 240.582 84.1641 239.538 84.1641C238.701 84.1641 238.15 84.4753 237.969 85.02L237.962 85.0394H236.834L236.841 85.0005C237.022 83.9048 238.085 83.1657 239.577 83.1657C241.282 83.1657 242.235 84.041 242.235 85.4932V90.278H241.107V89.2471H241.003C240.562 89.9927 239.829 90.4011 238.889 90.4011ZM237.709 88.3005C237.709 89.0072 238.312 89.4222 239.123 89.4222C240.27 89.4222 241.107 88.6701 241.107 87.6716V87.0363L239.24 87.153C238.176 87.2178 237.709 87.5938 237.709 88.2876V88.3005ZM244.297 90.278V83.2889H245.425V84.3392H245.528C245.878 83.6001 246.533 83.1657 247.564 83.1657C249.133 83.1657 250.008 84.0928 250.008 85.7526V90.278H248.88V86.0249C248.88 84.7671 248.362 84.1641 247.246 84.1641C246.131 84.1641 245.425 84.9162 245.425 86.1416V90.278H244.297ZM252.051 90.278V83.2889H253.179V84.3392H253.282C253.633 83.6001 254.287 83.1657 255.318 83.1657C256.887 83.1657 257.762 84.0928 257.762 85.7526V90.278H256.634V86.0249C256.634 84.7671 256.116 84.1641 255.001 84.1641C253.885 84.1641 253.179 84.9162 253.179 86.1416V90.278H252.051ZM262.657 90.4011C260.661 90.4011 259.455 89.0007 259.455 86.8094V86.8029C259.455 84.6439 260.686 83.1657 262.586 83.1657C264.486 83.1657 265.64 84.5791 265.64 86.6667V87.1076H260.609C260.641 88.5534 261.439 89.3962 262.683 89.3962C263.63 89.3962 264.213 88.9489 264.401 88.5274L264.427 88.4691H265.555L265.543 88.521C265.303 89.4675 264.304 90.4011 262.657 90.4011ZM262.58 84.1706C261.542 84.1706 260.751 84.8773 260.628 86.2064H264.492C264.375 84.8254 263.61 84.1706 262.58 84.1706ZM267.455 90.278V80.514H268.583V90.278H267.455Z" fill="#9F8AF9"/>
<rect x="32.7778" y="111.401" width="13.2779" height="13.2779" rx="1.89685" fill="#DDE2EB"/>
<path d="M37.8549 121.893L34.9942 119.084C34.5683 118.666 34.5683 118.01 34.9942 117.592C35.4529 117.142 36.2231 117.142 36.6817 117.592L37.8549 118.744L42.1521 114.525C42.6108 114.074 43.381 114.074 43.8396 114.525C44.2655 114.943 44.2655 115.599 43.8396 116.017L37.8549 121.893Z" fill="white"/>
<path d="M56.733 123.556V114.2H57.9V123.556H56.733ZM60.1432 123.556V116.567H61.2713V117.617H61.3751C61.7252 116.878 62.38 116.444 63.4108 116.444C64.9798 116.444 65.8551 117.371 65.8551 119.03V123.556H64.727V119.303C64.727 118.045 64.2083 117.442 63.0932 117.442C61.978 117.442 61.2713 118.194 61.2713 119.419V123.556H60.1432ZM70.3804 123.608C68.9411 123.608 68.3382 123.076 68.3382 121.74V117.5H67.236V116.567H68.3382V114.758H69.5052V116.567H71.0353V117.5H69.5052V121.455C69.5052 122.279 69.7905 122.609 70.5166 122.609C70.7176 122.609 70.8278 122.603 71.0353 122.583V123.543C70.8148 123.582 70.6009 123.608 70.3804 123.608ZM72.7209 123.556V116.567H73.849V117.604H73.9528C74.2186 116.871 74.8734 116.444 75.82 116.444C76.0339 116.444 76.2738 116.469 76.384 116.489V117.585C76.1506 117.546 75.9367 117.52 75.6903 117.52C74.6141 117.52 73.849 118.201 73.849 119.225V123.556H72.7209ZM80.4556 123.679C78.4652 123.679 77.2334 122.304 77.2334 120.068V120.055C77.2334 117.812 78.4652 116.444 80.4556 116.444C82.446 116.444 83.6778 117.812 83.6778 120.055V120.068C83.6778 122.304 82.446 123.679 80.4556 123.679ZM80.4556 122.681C81.7782 122.681 82.5238 121.715 82.5238 120.068V120.055C82.5238 118.402 81.7782 117.442 80.4556 117.442C79.133 117.442 78.3874 118.402 78.3874 120.055V120.068C78.3874 121.715 79.133 122.681 80.4556 122.681ZM88.0087 123.679C86.2387 123.679 85.0782 122.246 85.0782 120.068V120.055C85.0782 117.863 86.2323 116.444 88.0087 116.444C88.9682 116.444 89.8046 116.923 90.1871 117.669H90.2908V113.792H91.4189V123.556H90.2908V122.441H90.1871C89.7592 123.219 88.9812 123.679 88.0087 123.679ZM88.268 122.681C89.5388 122.681 90.3168 121.682 90.3168 120.068V120.055C90.3168 118.44 89.5388 117.442 88.268 117.442C86.9908 117.442 86.2323 118.427 86.2323 120.055V120.068C86.2323 121.695 86.9908 122.681 88.268 122.681ZM95.9249 123.679C94.3365 123.679 93.5196 122.745 93.5196 121.092V116.567H94.6477V120.82C94.6477 122.078 95.1015 122.681 96.2166 122.681C97.4485 122.681 98.1033 121.928 98.1033 120.703V116.567H99.2314V123.556H98.1033V122.512H97.9996C97.6559 123.258 96.9492 123.679 95.9249 123.679ZM104.198 123.679C102.24 123.679 100.988 122.259 100.988 120.042V120.029C100.988 117.857 102.233 116.444 104.191 116.444C105.89 116.444 106.908 117.423 107.115 118.667L107.122 118.706H106L105.994 118.687C105.818 118 105.196 117.442 104.191 117.442C102.933 117.442 102.142 118.453 102.142 120.029V120.042C102.142 121.65 102.946 122.681 104.191 122.681C105.131 122.681 105.728 122.266 105.987 121.488L106 121.449L107.115 121.442L107.102 121.514C106.817 122.778 105.877 123.679 104.198 123.679ZM111.621 123.679C109.624 123.679 108.418 122.279 108.418 120.087V120.081C108.418 117.922 109.65 116.444 111.55 116.444C113.449 116.444 114.603 117.857 114.603 119.945V120.385H109.572C109.605 121.831 110.402 122.674 111.647 122.674C112.594 122.674 113.177 122.227 113.365 121.805L113.391 121.747H114.519L114.506 121.799C114.266 122.745 113.268 123.679 111.621 123.679ZM111.543 117.448C110.506 117.448 109.715 118.155 109.592 119.484H113.456C113.339 118.103 112.574 117.448 111.543 117.448ZM120.685 126.006C120.536 126.006 120.341 125.994 120.186 125.968V125.04C120.322 125.066 120.497 125.073 120.652 125.073C121.294 125.073 121.683 124.781 121.936 123.977L122.066 123.562L119.479 116.567H120.685L122.604 122.317H122.708L124.62 116.567H125.807L123.077 123.984C122.5 125.553 121.923 126.006 120.685 126.006ZM129.911 123.679C127.92 123.679 126.688 122.304 126.688 120.068V120.055C126.688 117.812 127.92 116.444 129.911 116.444C131.901 116.444 133.133 117.812 133.133 120.055V120.068C133.133 122.304 131.901 123.679 129.911 123.679ZM129.911 122.681C131.233 122.681 131.979 121.715 131.979 120.068V120.055C131.979 118.402 131.233 117.442 129.911 117.442C128.588 117.442 127.842 118.402 127.842 120.055V120.068C127.842 121.715 128.588 122.681 129.911 122.681ZM137.224 123.679C135.635 123.679 134.819 122.745 134.819 121.092V116.567H135.947V120.82C135.947 122.078 136.4 122.681 137.516 122.681C138.747 122.681 139.402 121.928 139.402 120.703V116.567H140.53V123.556H139.402V122.512H139.299C138.955 123.258 138.248 123.679 137.224 123.679ZM142.637 123.556V116.567H143.766V117.604H143.869C144.135 116.871 144.79 116.444 145.737 116.444C145.95 116.444 146.19 116.469 146.301 116.489V117.585C146.067 117.546 145.853 117.52 145.607 117.52C144.531 117.52 143.766 118.201 143.766 119.225V123.556H142.637ZM149.964 123.679C148.408 123.679 147.338 122.927 147.208 121.773H148.362C148.55 122.356 149.108 122.739 150.003 122.739C150.943 122.739 151.61 122.292 151.61 121.656V121.643C151.61 121.17 151.254 120.839 150.392 120.632L149.309 120.372C147.999 120.061 147.409 119.491 147.409 118.486V118.479C147.409 117.319 148.524 116.444 150.009 116.444C151.474 116.444 152.492 117.176 152.648 118.317H151.539C151.39 117.766 150.845 117.384 150.003 117.384C149.173 117.384 148.563 117.812 148.563 118.427V118.44C148.563 118.914 148.913 119.212 149.737 119.413L150.813 119.672C152.129 119.99 152.764 120.56 152.764 121.559V121.572C152.764 122.817 151.552 123.679 149.964 123.679ZM157.368 123.679C155.371 123.679 154.165 122.279 154.165 120.087V120.081C154.165 117.922 155.397 116.444 157.296 116.444C159.196 116.444 160.35 117.857 160.35 119.945V120.385H155.319C155.351 121.831 156.149 122.674 157.394 122.674C158.34 122.674 158.924 122.227 159.112 121.805L159.138 121.747H160.266L160.253 121.799C160.013 122.745 159.014 123.679 157.368 123.679ZM157.29 117.448C156.253 117.448 155.462 118.155 155.338 119.484H159.202C159.086 118.103 158.321 117.448 157.29 117.448ZM162.165 123.556V113.792H163.293V123.556H162.165ZM165.926 123.556V117.5H164.765V116.567H165.926V115.789C165.926 114.395 166.626 113.727 167.955 113.727C168.227 113.727 168.474 113.746 168.707 113.792V114.693C168.571 114.667 168.383 114.661 168.182 114.661C167.378 114.661 167.054 115.056 167.054 115.821V116.567H168.642V117.5H167.054V123.556H165.926ZM176.876 123.679C174.886 123.679 173.654 122.304 173.654 120.068V120.055C173.654 117.812 174.886 116.444 176.876 116.444C178.866 116.444 180.098 117.812 180.098 120.055V120.068C180.098 122.304 178.866 123.679 176.876 123.679ZM176.876 122.681C178.199 122.681 178.944 121.715 178.944 120.068V120.055C178.944 118.402 178.199 117.442 176.876 117.442C175.553 117.442 174.808 118.402 174.808 120.055V120.068C174.808 121.715 175.553 122.681 176.876 122.681ZM181.849 123.556V116.567H182.977V117.617H183.081C183.431 116.878 184.086 116.444 185.116 116.444C186.685 116.444 187.561 117.371 187.561 119.03V123.556H186.433V119.303C186.433 118.045 185.914 117.442 184.799 117.442C183.684 117.442 182.977 118.194 182.977 119.419V123.556H181.849ZM195.82 123.608C194.381 123.608 193.778 123.076 193.778 121.74V117.5H192.676V116.567H193.778V114.758H194.945V116.567H196.475V117.5H194.945V121.455C194.945 122.279 195.23 122.609 195.957 122.609C196.158 122.609 196.268 122.603 196.475 122.583V123.543C196.255 123.582 196.041 123.608 195.82 123.608ZM198.226 123.556V113.792H199.354V117.617H199.458C199.808 116.878 200.463 116.444 201.493 116.444C203.062 116.444 203.938 117.371 203.938 119.03V123.556H202.81V119.303C202.81 118.045 202.291 117.442 201.176 117.442C200.061 117.442 199.354 118.194 199.354 119.419V123.556H198.226ZM208.833 123.679C206.836 123.679 205.63 122.279 205.63 120.087V120.081C205.63 117.922 206.862 116.444 208.761 116.444C210.661 116.444 211.815 117.857 211.815 119.945V120.385H206.784C206.816 121.831 207.614 122.674 208.858 122.674C209.805 122.674 210.389 122.227 210.577 121.805L210.603 121.747H211.731L211.718 121.799C211.478 122.745 210.479 123.679 208.833 123.679ZM208.755 117.448C207.717 117.448 206.926 118.155 206.803 119.484H210.667C210.551 118.103 209.786 117.448 208.755 117.448ZM219.88 123.679C218.11 123.679 216.95 122.246 216.95 120.068V120.055C216.95 117.863 218.104 116.444 219.88 116.444C220.84 116.444 221.676 116.923 222.059 117.669H222.162V113.792H223.29V123.556H222.162V122.441H222.059C221.631 123.219 220.853 123.679 219.88 123.679ZM220.14 122.681C221.41 122.681 222.188 121.682 222.188 120.068V120.055C222.188 118.44 221.41 117.442 220.14 117.442C218.862 117.442 218.104 118.427 218.104 120.055V120.068C218.104 121.695 218.862 122.681 220.14 122.681ZM226.052 115.218C225.624 115.218 225.274 114.868 225.274 114.44C225.274 114.012 225.624 113.662 226.052 113.662C226.48 113.662 226.83 114.012 226.83 114.44C226.83 114.868 226.48 115.218 226.052 115.218ZM225.482 123.556V116.567H226.61V123.556H225.482ZM231.135 123.679C229.579 123.679 228.51 122.927 228.38 121.773H229.534C229.722 122.356 230.28 122.739 231.174 122.739C232.114 122.739 232.782 122.292 232.782 121.656V121.643C232.782 121.17 232.426 120.839 231.563 120.632L230.48 120.372C229.171 120.061 228.581 119.491 228.581 118.486V118.479C228.581 117.319 229.696 116.444 231.181 116.444C232.646 116.444 233.664 117.176 233.819 118.317H232.711C232.562 117.766 232.017 117.384 231.174 117.384C230.344 117.384 229.735 117.812 229.735 118.427V118.44C229.735 118.914 230.085 119.212 230.908 119.413L231.985 119.672C233.301 119.99 233.936 120.56 233.936 121.559V121.572C233.936 122.817 232.724 123.679 231.135 123.679ZM238.546 123.679C236.588 123.679 235.337 122.259 235.337 120.042V120.029C235.337 117.857 236.581 116.444 238.539 116.444C240.238 116.444 241.256 117.423 241.463 118.667L241.47 118.706H240.348L240.342 118.687C240.167 118 239.544 117.442 238.539 117.442C237.282 117.442 236.491 118.453 236.491 120.029V120.042C236.491 121.65 237.294 122.681 238.539 122.681C239.479 122.681 240.076 122.266 240.335 121.488L240.348 121.449L241.463 121.442L241.45 121.514C241.165 122.778 240.225 123.679 238.546 123.679ZM245.989 123.679C243.998 123.679 242.766 122.304 242.766 120.068V120.055C242.766 117.812 243.998 116.444 245.989 116.444C247.979 116.444 249.211 117.812 249.211 120.055V120.068C249.211 122.304 247.979 123.679 245.989 123.679ZM245.989 122.681C247.311 122.681 248.057 121.715 248.057 120.068V120.055C248.057 118.402 247.311 117.442 245.989 117.442C244.666 117.442 243.92 118.402 243.92 120.055V120.068C243.92 121.715 244.666 122.681 245.989 122.681ZM250.961 123.556V116.567H252.09V117.604H252.193C252.459 116.871 253.114 116.444 254.06 116.444C254.274 116.444 254.514 116.469 254.625 116.489V117.585C254.391 117.546 254.177 117.52 253.931 117.52C252.855 117.52 252.09 118.201 252.09 119.225V123.556H250.961ZM258.404 123.679C256.634 123.679 255.474 122.246 255.474 120.068V120.055C255.474 117.863 256.628 116.444 258.404 116.444C259.364 116.444 260.2 116.923 260.583 117.669H260.686V113.792H261.815V123.556H260.686V122.441H260.583C260.155 123.219 259.377 123.679 258.404 123.679ZM258.664 122.681C259.934 122.681 260.712 121.682 260.712 120.068V120.055C260.712 118.44 259.934 117.442 258.664 117.442C257.386 117.442 256.628 118.427 256.628 120.055V120.068C256.628 121.695 257.386 122.681 258.664 122.681ZM270.574 123.679C268.616 123.679 267.364 122.259 267.364 120.042V120.029C267.364 117.857 268.609 116.444 270.567 116.444C272.266 116.444 273.284 117.423 273.491 118.667L273.498 118.706H272.376L272.369 118.687C272.194 118 271.572 117.442 270.567 117.442C269.309 117.442 268.518 118.453 268.518 120.029V120.042C268.518 121.65 269.322 122.681 270.567 122.681C271.507 122.681 272.104 122.266 272.363 121.488L272.376 121.449L273.491 121.442L273.478 121.514C273.193 122.778 272.253 123.679 270.574 123.679ZM275.209 123.556V113.792H276.337V117.617H276.441C276.791 116.878 277.446 116.444 278.477 116.444C280.046 116.444 280.921 117.371 280.921 119.03V123.556H279.793V119.303C279.793 118.045 279.274 117.442 278.159 117.442C277.044 117.442 276.337 118.194 276.337 119.419V123.556H275.209ZM284.882 123.679C283.553 123.679 282.548 122.875 282.548 121.604V121.591C282.548 120.347 283.469 119.627 285.096 119.53L287.1 119.406V118.771C287.1 117.909 286.575 117.442 285.531 117.442C284.694 117.442 284.143 117.753 283.962 118.298L283.955 118.317H282.827L282.834 118.278C283.015 117.183 284.078 116.444 285.57 116.444C287.275 116.444 288.228 117.319 288.228 118.771V123.556H287.1V122.525H286.996C286.555 123.271 285.822 123.679 284.882 123.679ZM283.702 121.578C283.702 122.285 284.305 122.7 285.116 122.7C286.263 122.7 287.1 121.948 287.1 120.949V120.314L285.232 120.431C284.169 120.496 283.702 120.872 283.702 121.565V121.578ZM290.289 123.556V116.567H291.418V117.617H291.521C291.871 116.878 292.526 116.444 293.557 116.444C295.126 116.444 296.001 117.371 296.001 119.03V123.556H294.873V119.303C294.873 118.045 294.355 117.442 293.239 117.442C292.124 117.442 291.418 118.194 291.418 119.419V123.556H290.289ZM298.044 123.556V116.567H299.172V117.617H299.275C299.626 116.878 300.28 116.444 301.311 116.444C302.88 116.444 303.755 117.371 303.755 119.03V123.556H302.627V119.303C302.627 118.045 302.109 117.442 300.994 117.442C299.878 117.442 299.172 118.194 299.172 119.419V123.556H298.044ZM308.65 123.679C306.653 123.679 305.448 122.279 305.448 120.087V120.081C305.448 117.922 306.679 116.444 308.579 116.444C310.479 116.444 311.633 117.857 311.633 119.945V120.385H306.602C306.634 121.831 307.431 122.674 308.676 122.674C309.623 122.674 310.206 122.227 310.394 121.805L310.42 121.747H311.548L311.535 121.799C311.296 122.745 310.297 123.679 308.65 123.679ZM308.573 117.448C307.535 117.448 306.744 118.155 306.621 119.484H310.485C310.368 118.103 309.603 117.448 308.573 117.448ZM313.448 123.556V113.792H314.576V123.556H313.448ZM317.662 123.621C317.202 123.621 316.819 123.238 316.819 122.778C316.819 122.311 317.202 121.935 317.662 121.935C318.129 121.935 318.505 122.311 318.505 122.778C318.505 123.238 318.129 123.621 317.662 123.621Z" fill="#6D7685"/>
<rect x="33.252" y="144.669" width="12.3295" height="12.3295" rx="1.42263" fill="white"/>
<rect x="33.252" y="144.669" width="12.3295" height="12.3295" rx="1.42263" stroke="#C7CED9" stroke-width="0.948423"/>
<path d="M56.733 154.834V145.478H59.9422C62.7171 145.478 64.3574 147.209 64.3574 150.146V150.159C64.3574 153.103 62.7236 154.834 59.9422 154.834H56.733ZM57.9 153.783H59.8644C61.9521 153.783 63.1645 152.448 63.1645 150.172V150.159C63.1645 147.877 61.9391 146.529 59.8644 146.529H57.9V153.783ZM69.1097 154.957C67.1193 154.957 65.8875 153.582 65.8875 151.346V151.333C65.8875 149.089 67.1193 147.721 69.1097 147.721C71.1001 147.721 72.3319 149.089 72.3319 151.333V151.346C72.3319 153.582 71.1001 154.957 69.1097 154.957ZM69.1097 153.958C70.4323 153.958 71.1779 152.992 71.1779 151.346V151.333C71.1779 149.679 70.4323 148.72 69.1097 148.72C67.7871 148.72 67.0415 149.679 67.0415 151.333V151.346C67.0415 152.992 67.7871 153.958 69.1097 153.958ZM75.1716 154.834L73.2137 147.845H74.3418L75.7162 153.433H75.82L77.3825 147.845H78.4522L80.0147 153.433H80.1184L81.4929 147.845H82.6145L80.6566 154.834H79.522L77.9595 149.427H77.8558L76.2998 154.834H75.1716ZM84.1057 154.834V147.845H85.2338V148.895H85.3376C85.6877 148.156 86.3425 147.721 87.3733 147.721C88.9423 147.721 89.8176 148.649 89.8176 150.308V154.834H88.6895V150.581C88.6895 149.323 88.1708 148.72 87.0556 148.72C85.9405 148.72 85.2338 149.472 85.2338 150.697V154.834H84.1057ZM91.9246 154.834V145.07H93.0528V154.834H91.9246ZM98.0903 154.957C96.0999 154.957 94.8681 153.582 94.8681 151.346V151.333C94.8681 149.089 96.0999 147.721 98.0903 147.721C100.081 147.721 101.313 149.089 101.313 151.333V151.346C101.313 153.582 100.081 154.957 98.0903 154.957ZM98.0903 153.958C99.4129 153.958 100.159 152.992 100.159 151.346V151.333C100.159 149.679 99.4129 148.72 98.0903 148.72C96.7677 148.72 96.0221 149.679 96.0221 151.333V151.346C96.0221 152.992 96.7677 153.958 98.0903 153.958ZM104.982 154.957C103.653 154.957 102.648 154.153 102.648 152.882V152.869C102.648 151.624 103.569 150.905 105.196 150.808L107.199 150.684V150.049C107.199 149.187 106.674 148.72 105.63 148.72C104.794 148.72 104.243 149.031 104.061 149.576L104.055 149.595H102.927L102.933 149.556C103.115 148.461 104.178 147.721 105.669 147.721C107.374 147.721 108.328 148.597 108.328 150.049V154.834H107.199V153.803H107.096C106.655 154.548 105.922 154.957 104.982 154.957ZM103.802 152.856C103.802 153.563 104.405 153.978 105.216 153.978C106.363 153.978 107.199 153.226 107.199 152.227V151.592L105.332 151.709C104.269 151.774 103.802 152.15 103.802 152.843V152.856ZM112.97 154.957C111.2 154.957 110.039 153.524 110.039 151.346V151.333C110.039 149.141 111.193 147.721 112.97 147.721C113.929 147.721 114.766 148.201 115.148 148.947H115.252V145.07H116.38V154.834H115.252V153.719H115.148C114.72 154.497 113.942 154.957 112.97 154.957ZM113.229 153.958C114.5 153.958 115.278 152.96 115.278 151.346V151.333C115.278 149.718 114.5 148.72 113.229 148.72C111.952 148.72 111.193 149.705 111.193 151.333V151.346C111.193 152.973 111.952 153.958 113.229 153.958Z" fill="#6C4DF6"/>
<path d="M122.876 157.284C122.727 157.284 122.533 157.271 122.377 157.246V156.318C122.513 156.344 122.688 156.351 122.844 156.351C123.486 156.351 123.875 156.059 124.127 155.255L124.257 154.84L121.67 147.845H122.876L124.795 153.595H124.899L126.812 147.845H127.998L125.269 155.262C124.692 156.831 124.115 157.284 122.876 157.284ZM132.102 154.957C130.112 154.957 128.88 153.582 128.88 151.346V151.333C128.88 149.089 130.112 147.721 132.102 147.721C134.092 147.721 135.324 149.089 135.324 151.333V151.346C135.324 153.582 134.092 154.957 132.102 154.957ZM132.102 153.958C133.425 153.958 134.17 152.992 134.17 151.346V151.333C134.17 149.679 133.425 148.72 132.102 148.72C130.779 148.72 130.034 149.679 130.034 151.333V151.346C130.034 152.992 130.779 153.958 132.102 153.958ZM139.415 154.957C137.827 154.957 137.01 154.023 137.01 152.37V147.845H138.138V152.098C138.138 153.356 138.592 153.958 139.707 153.958C140.939 153.958 141.594 153.206 141.594 151.981V147.845H142.722V154.834H141.594V153.79H141.49C141.146 154.536 140.44 154.957 139.415 154.957ZM144.829 154.834V147.845H145.957V148.882H146.061C146.327 148.149 146.981 147.721 147.928 147.721C148.142 147.721 148.382 147.747 148.492 147.767V148.863C148.259 148.824 148.045 148.798 147.798 148.798C146.722 148.798 145.957 149.478 145.957 150.503V154.834H144.829ZM156.019 154.957C154.463 154.957 153.393 154.205 153.264 153.051H154.418C154.606 153.634 155.163 154.017 156.058 154.017C156.998 154.017 157.666 153.569 157.666 152.934V152.921C157.666 152.448 157.309 152.117 156.447 151.91L155.364 151.65C154.055 151.339 153.465 150.769 153.465 149.764V149.757C153.465 148.597 154.58 147.721 156.065 147.721C157.53 147.721 158.548 148.454 158.703 149.595H157.595C157.445 149.044 156.901 148.662 156.058 148.662C155.228 148.662 154.619 149.089 154.619 149.705V149.718C154.619 150.192 154.969 150.49 155.792 150.691L156.868 150.95C158.185 151.268 158.82 151.838 158.82 152.837V152.85C158.82 154.095 157.608 154.957 156.019 154.957ZM160.57 157.168V147.845H161.699V148.96H161.802C162.23 148.182 163.008 147.721 163.981 147.721C165.751 147.721 166.911 149.154 166.911 151.333V151.346C166.911 153.537 165.757 154.957 163.981 154.957C163.021 154.957 162.185 154.477 161.802 153.732H161.699V157.168H160.57ZM163.721 153.958C164.999 153.958 165.757 152.973 165.757 151.346V151.333C165.757 149.705 164.999 148.72 163.721 148.72C162.451 148.72 161.673 149.718 161.673 151.333V151.346C161.673 152.96 162.451 153.958 163.721 153.958ZM171.527 154.957C169.53 154.957 168.325 153.557 168.325 151.365V151.359C168.325 149.2 169.556 147.721 171.456 147.721C173.356 147.721 174.51 149.135 174.51 151.223V151.663H169.479C169.511 153.109 170.308 153.952 171.553 153.952C172.5 153.952 173.083 153.505 173.271 153.083L173.297 153.025H174.425L174.412 153.077C174.173 154.023 173.174 154.957 171.527 154.957ZM171.45 148.726C170.412 148.726 169.621 149.433 169.498 150.762H173.362C173.245 149.381 172.48 148.726 171.45 148.726ZM179.119 154.957C177.161 154.957 175.91 153.537 175.91 151.32V151.307C175.91 149.135 177.155 147.721 179.113 147.721C180.811 147.721 181.829 148.7 182.037 149.945L182.043 149.984H180.922L180.915 149.965C180.74 149.278 180.118 148.72 179.113 148.72C177.855 148.72 177.064 149.731 177.064 151.307V151.32C177.064 152.928 177.868 153.958 179.113 153.958C180.053 153.958 180.649 153.544 180.909 152.766L180.922 152.727L182.037 152.72L182.024 152.791C181.739 154.056 180.799 154.957 179.119 154.957ZM184.287 146.496C183.859 146.496 183.509 146.146 183.509 145.718C183.509 145.29 183.859 144.94 184.287 144.94C184.714 144.94 185.065 145.29 185.065 145.718C185.065 146.146 184.714 146.496 184.287 146.496ZM183.716 154.834V147.845H184.844V154.834H183.716ZM188.89 154.957C187.561 154.957 186.556 154.153 186.556 152.882V152.869C186.556 151.624 187.476 150.905 189.104 150.808L191.107 150.684V150.049C191.107 149.187 190.582 148.72 189.538 148.72C188.702 148.72 188.151 149.031 187.969 149.576L187.963 149.595H186.835L186.841 149.556C187.023 148.461 188.086 147.721 189.577 147.721C191.282 147.721 192.235 148.597 192.235 150.049V154.834H191.107V153.803H191.003C190.562 154.548 189.83 154.957 188.89 154.957ZM187.71 152.856C187.71 153.563 188.313 153.978 189.123 153.978C190.271 153.978 191.107 153.226 191.107 152.227V151.592L189.24 151.709C188.177 151.774 187.71 152.15 187.71 152.843V152.856ZM194.362 154.834V145.07H195.49V154.834H194.362ZM204.249 154.957C202.291 154.957 201.04 153.537 201.04 151.32V151.307C201.04 149.135 202.284 147.721 204.242 147.721C205.941 147.721 206.959 148.7 207.166 149.945L207.173 149.984H206.051L206.045 149.965C205.87 149.278 205.247 148.72 204.242 148.72C202.985 148.72 202.194 149.731 202.194 151.307V151.32C202.194 152.928 202.998 153.958 204.242 153.958C205.182 153.958 205.779 153.544 206.038 152.766L206.051 152.727L207.166 152.72L207.153 152.791C206.868 154.056 205.928 154.957 204.249 154.957ZM208.884 154.834V145.07H210.013V148.895H210.116C210.466 148.156 211.121 147.721 212.152 147.721C213.721 147.721 214.596 148.649 214.596 150.308V154.834H213.468V150.581C213.468 149.323 212.949 148.72 211.834 148.72C210.719 148.72 210.013 149.472 210.013 150.697V154.834H208.884ZM218.558 154.957C217.229 154.957 216.224 154.153 216.224 152.882V152.869C216.224 151.624 217.144 150.905 218.772 150.808L220.775 150.684V150.049C220.775 149.187 220.25 148.72 219.206 148.72C218.37 148.72 217.819 149.031 217.637 149.576L217.63 149.595H216.502L216.509 149.556C216.69 148.461 217.754 147.721 219.245 147.721C220.95 147.721 221.903 148.597 221.903 150.049V154.834H220.775V153.803H220.671C220.23 154.548 219.498 154.957 218.558 154.957ZM217.378 152.856C217.378 153.563 217.981 153.978 218.791 153.978C219.939 153.978 220.775 153.226 220.775 152.227V151.592L218.908 151.709C217.844 151.774 217.378 152.15 217.378 152.843V152.856ZM223.965 154.834V147.845H225.093V148.908H225.197C225.508 148.156 226.169 147.721 227.083 147.721C228.03 147.721 228.691 148.221 229.015 148.947H229.119C229.495 148.208 230.292 147.721 231.258 147.721C232.685 147.721 233.482 148.538 233.482 150.004V154.834H232.354V150.263C232.354 149.232 231.881 148.72 230.895 148.72C229.923 148.72 229.281 149.453 229.281 150.341V154.834H228.153V150.088C228.153 149.258 227.582 148.72 226.701 148.72C225.787 148.72 225.093 149.517 225.093 150.503V154.834H223.965ZM235.518 157.168V147.845H236.646V148.96H236.75C237.178 148.182 237.956 147.721 238.928 147.721C240.698 147.721 241.859 149.154 241.859 151.333V151.346C241.859 153.537 240.705 154.957 238.928 154.957C237.969 154.957 237.132 154.477 236.75 153.732H236.646V157.168H235.518ZM238.669 153.958C239.946 153.958 240.705 152.973 240.705 151.346V151.333C240.705 149.705 239.946 148.72 238.669 148.72C237.398 148.72 236.62 149.718 236.62 151.333V151.346C236.62 152.96 237.398 153.958 238.669 153.958ZM244.219 146.496C243.791 146.496 243.441 146.146 243.441 145.718C243.441 145.29 243.791 144.94 244.219 144.94C244.647 144.94 244.997 145.29 244.997 145.718C244.997 146.146 244.647 146.496 244.219 146.496ZM243.648 154.834V147.845H244.776V154.834H243.648ZM249.775 154.957C247.785 154.957 246.553 153.582 246.553 151.346V151.333C246.553 149.089 247.785 147.721 249.775 147.721C251.765 147.721 252.997 149.089 252.997 151.333V151.346C252.997 153.582 251.765 154.957 249.775 154.957ZM249.775 153.958C251.098 153.958 251.843 152.992 251.843 151.346V151.333C251.843 149.679 251.098 148.72 249.775 148.72C248.452 148.72 247.707 149.679 247.707 151.333V151.346C247.707 152.992 248.452 153.958 249.775 153.958ZM254.748 154.834V147.845H255.876V148.895H255.98C256.33 148.156 256.984 147.721 258.015 147.721C259.584 147.721 260.46 148.649 260.46 150.308V154.834H259.331V150.581C259.331 149.323 258.813 148.72 257.698 148.72C256.582 148.72 255.876 149.472 255.876 150.697V154.834H254.748ZM269.711 154.957C268.739 154.957 267.961 154.497 267.533 153.719H267.429V154.834H266.301V145.07H267.429V148.947H267.533C267.915 148.201 268.752 147.721 269.711 147.721C271.488 147.721 272.642 149.141 272.642 151.333V151.346C272.642 153.524 271.481 154.957 269.711 154.957ZM269.452 153.958C270.729 153.958 271.488 152.973 271.488 151.346V151.333C271.488 149.705 270.729 148.72 269.452 148.72C268.181 148.72 267.403 149.718 267.403 151.333V151.346C267.403 152.96 268.181 153.958 269.452 153.958ZM276.311 154.957C274.982 154.957 273.977 154.153 273.977 152.882V152.869C273.977 151.624 274.898 150.905 276.525 150.808L278.529 150.684V150.049C278.529 149.187 278.004 148.72 276.96 148.72C276.123 148.72 275.572 149.031 275.391 149.576L275.384 149.595H274.256L274.263 149.556C274.444 148.461 275.507 147.721 276.999 147.721C278.704 147.721 279.657 148.597 279.657 150.049V154.834H278.529V153.803H278.425C277.984 154.548 277.251 154.957 276.311 154.957ZM275.131 152.856C275.131 153.563 275.734 153.978 276.545 153.978C277.692 153.978 278.529 153.226 278.529 152.227V151.592L276.661 151.709C275.598 151.774 275.131 152.15 275.131 152.843V152.856ZM284.299 154.957C282.529 154.957 281.368 153.524 281.368 151.346V151.333C281.368 149.141 282.522 147.721 284.299 147.721C285.258 147.721 286.095 148.201 286.477 148.947H286.581V145.07H287.709V154.834H286.581V153.719H286.477C286.049 154.497 285.271 154.957 284.299 154.957ZM284.558 153.958C285.829 153.958 286.607 152.96 286.607 151.346V151.333C286.607 149.718 285.829 148.72 284.558 148.72C283.281 148.72 282.522 149.705 282.522 151.333V151.346C282.522 152.973 283.281 153.958 284.558 153.958ZM292.753 157.297C291.067 157.297 289.991 156.539 289.816 155.391L289.829 155.385H290.996L291.003 155.391C291.126 155.923 291.748 156.299 292.753 156.299C294.004 156.299 294.75 155.709 294.75 154.678V153.265H294.646C294.205 154.036 293.414 154.471 292.455 154.471C290.646 154.471 289.524 153.07 289.524 151.112V151.099C289.524 149.141 290.653 147.721 292.481 147.721C293.466 147.721 294.231 148.208 294.659 148.999H294.737V147.845H295.865V154.736C295.865 156.299 294.659 157.297 292.753 157.297ZM292.701 153.472C293.998 153.472 294.776 152.5 294.776 151.112V151.099C294.776 149.712 293.991 148.72 292.701 148.72C291.405 148.72 290.678 149.712 290.678 151.099V151.112C290.678 152.5 291.405 153.472 292.701 153.472ZM300.818 154.957C298.822 154.957 297.616 153.557 297.616 151.365V151.359C297.616 149.2 298.848 147.721 300.747 147.721C302.647 147.721 303.801 149.135 303.801 151.223V151.663H298.77C298.802 153.109 299.6 153.952 300.844 153.952C301.791 153.952 302.374 153.505 302.562 153.083L302.588 153.025H303.717L303.704 153.077C303.464 154.023 302.465 154.957 300.818 154.957ZM300.741 148.726C299.703 148.726 298.912 149.433 298.789 150.762H302.653C302.537 149.381 301.772 148.726 300.741 148.726ZM306.025 151.722L305.914 145.472H307.211L307.101 151.722H306.025ZM306.569 154.95C306.044 154.95 305.668 154.574 305.668 154.049C305.668 153.518 306.044 153.142 306.569 153.142C307.094 153.142 307.464 153.518 307.464 154.049C307.464 154.574 307.094 154.95 306.569 154.95Z" fill="#262C36"/>
<rect x="19.9742" y="64.4742" width="369.052" height="108.163" rx="3.31948" stroke="#EFF2F7" stroke-width="0.948423" shape-rendering="crispEdges"/>
</g>
<circle cx="35" cy="203" r="15.5" stroke="#EFF2F7"/>
<circle cx="35" cy="203" r="12" fill="#EFF2F7"/>
<rect width="12" height="12" transform="translate(29 197)" fill="#EFF2F7"/>
<path d="M29.0023 199.913L35 202.911L40.9977 199.913C40.9755 199.531 40.8081 199.172 40.5296 198.909C40.2512 198.646 39.8828 198.5 39.5 198.5H30.5C30.1172 198.5 29.7488 198.646 29.4704 198.909C29.1919 199.172 29.0245 199.531 29.0023 199.913Z" fill="#6D7685"/>
<path d="M41 201.589L35 204.589L29 201.589V206C29 206.398 29.158 206.779 29.4393 207.061C29.7206 207.342 30.1022 207.5 30.5 207.5H39.5C39.8978 207.5 40.2794 207.342 40.5607 207.061C40.842 206.779 41 206.398 41 206V201.589Z" fill="#6D7685"/>
<path d="M59.3418 208V198.136H63.1836C65.1182 198.136 66.458 199.435 66.458 201.369V201.383C66.458 203.311 65.1182 204.63 63.1836 204.63H60.873V208H59.3418ZM62.8008 199.428H60.873V203.345H62.8008C64.127 203.345 64.8994 202.627 64.8994 201.39V201.376C64.8994 200.146 64.127 199.428 62.8008 199.428ZM70.0264 208.123C68.6113 208.123 67.5654 207.262 67.5654 205.915V205.901C67.5654 204.575 68.5635 203.803 70.334 203.693L72.3438 203.577V202.921C72.3438 202.107 71.8311 201.656 70.8262 201.656C70.0059 201.656 69.4658 201.957 69.2881 202.483L69.2812 202.511H67.8525L67.8594 202.463C68.0371 201.246 69.2061 200.433 70.8945 200.433C72.7607 200.433 73.8135 201.362 73.8135 202.921V208H72.3438V206.947H72.2275C71.79 207.699 71.0107 208.123 70.0264 208.123ZM69.042 205.854C69.042 206.537 69.623 206.94 70.4229 206.94C71.5303 206.94 72.3438 206.216 72.3438 205.259V204.623L70.5322 204.739C69.5068 204.801 69.042 205.17 69.042 205.84V205.854ZM78.708 208.048C77.0742 208.048 76.4043 207.474 76.4043 206.045V201.745H75.2422V200.576H76.4043V198.703H77.915V200.576H79.5078V201.745H77.915V205.689C77.915 206.489 78.2158 206.817 78.9473 206.817C79.1729 206.817 79.3027 206.811 79.5078 206.79V207.973C79.2686 208.014 78.9951 208.048 78.708 208.048ZM81.2373 208V200.576H82.7207V201.697H82.8301C83.0967 200.911 83.7871 200.446 84.7783 200.446C85.0176 200.446 85.2773 200.48 85.4277 200.515V201.882C85.1611 201.827 84.9082 201.793 84.6279 201.793C83.4932 201.793 82.7207 202.49 82.7207 203.563V208H81.2373ZM87.6152 199.25C87.1025 199.25 86.6855 198.833 86.6855 198.327C86.6855 197.814 87.1025 197.397 87.6152 197.397C88.1211 197.397 88.5449 197.814 88.5449 198.327C88.5449 198.833 88.1211 199.25 87.6152 199.25ZM86.8701 208V200.576H88.3467V208H86.8701ZM93.6309 208.144C91.4639 208.144 90.1377 206.667 90.1377 204.268V204.254C90.1377 201.902 91.457 200.433 93.624 200.433C95.4902 200.433 96.6045 201.485 96.8096 202.928V202.962L95.3877 202.969L95.3809 202.948C95.2168 202.217 94.6152 201.67 93.6309 201.67C92.3936 201.67 91.6484 202.654 91.6484 204.254V204.268C91.6484 205.908 92.4072 206.906 93.6309 206.906C94.5605 206.906 95.1348 206.482 95.374 205.683L95.3877 205.648H96.8096L96.7959 205.71C96.5293 207.152 95.4697 208.144 93.6309 208.144ZM98.5596 208V197.664H100.043V203.707H100.152L103.099 200.576H104.835L101.738 203.707L105.04 208H103.235L100.679 204.664L100.043 205.3V208H98.5596ZM112.423 208L109.764 198.136H111.356L113.168 205.806H113.264L115.321 198.136H116.743L118.814 205.806H118.91L120.715 198.136H122.308L119.642 208H118.199L116.08 200.624H115.984L113.872 208H112.423ZM126.396 208.144C124.215 208.144 122.882 206.688 122.882 204.295V204.281C122.882 201.896 124.222 200.433 126.396 200.433C128.562 200.433 129.902 201.889 129.902 204.281V204.295C129.902 206.688 128.569 208.144 126.396 208.144ZM126.396 206.906C127.667 206.906 128.392 205.936 128.392 204.295V204.281C128.392 202.634 127.667 201.67 126.396 201.67C125.117 201.67 124.399 202.634 124.399 204.281V204.295C124.399 205.942 125.117 206.906 126.396 206.906ZM134.817 208.144C132.637 208.144 131.304 206.688 131.304 204.295V204.281C131.304 201.896 132.644 200.433 134.817 200.433C136.984 200.433 138.324 201.889 138.324 204.281V204.295C138.324 206.688 136.991 208.144 134.817 208.144ZM134.817 206.906C136.089 206.906 136.813 205.936 136.813 204.295V204.281C136.813 202.634 136.089 201.67 134.817 201.67C133.539 201.67 132.821 202.634 132.821 204.281V204.295C132.821 205.942 133.539 206.906 134.817 206.906ZM142.802 208.123C140.936 208.123 139.726 206.626 139.726 204.295V204.281C139.726 201.93 140.915 200.446 142.802 200.446C143.82 200.446 144.688 200.952 145.085 201.752H145.201V197.664H146.678V208H145.201V206.831H145.085C144.654 207.645 143.841 208.123 142.802 208.123ZM143.226 206.858C144.463 206.858 145.222 205.881 145.222 204.295V204.281C145.222 202.695 144.456 201.718 143.226 201.718C141.981 201.718 141.236 202.688 141.236 204.281V204.295C141.236 205.888 141.981 206.858 143.226 206.858ZM151.586 208.144C149.795 208.144 148.66 207.303 148.517 206.059V206.052H150L150.007 206.059C150.191 206.619 150.731 206.995 151.613 206.995C152.529 206.995 153.165 206.578 153.165 205.97V205.956C153.165 205.491 152.816 205.177 151.955 204.979L150.772 204.705C149.371 204.384 148.722 203.748 148.722 202.661V202.654C148.722 201.362 149.925 200.433 151.606 200.433C153.302 200.433 154.389 201.28 154.519 202.49V202.497H153.104V202.483C152.96 201.964 152.434 201.574 151.6 201.574C150.786 201.574 150.198 201.978 150.198 202.572V202.586C150.198 203.051 150.54 203.338 151.374 203.536L152.55 203.803C153.979 204.138 154.662 204.746 154.662 205.819V205.833C154.662 207.207 153.35 208.144 151.586 208.144ZM162.961 208.144C161.17 208.144 160.035 207.303 159.892 206.059V206.052H161.375L161.382 206.059C161.566 206.619 162.106 206.995 162.988 206.995C163.904 206.995 164.54 206.578 164.54 205.97V205.956C164.54 205.491 164.191 205.177 163.33 204.979L162.147 204.705C160.746 204.384 160.097 203.748 160.097 202.661V202.654C160.097 201.362 161.3 200.433 162.981 200.433C164.677 200.433 165.764 201.28 165.894 202.49V202.497H164.479V202.483C164.335 201.964 163.809 201.574 162.975 201.574C162.161 201.574 161.573 201.978 161.573 202.572V202.586C161.573 203.051 161.915 203.338 162.749 203.536L163.925 203.803C165.354 204.138 166.037 204.746 166.037 205.819V205.833C166.037 207.207 164.725 208.144 162.961 208.144ZM170.925 208.144C168.751 208.144 167.438 206.66 167.438 204.309V204.302C167.438 201.984 168.778 200.433 170.85 200.433C172.921 200.433 174.192 201.93 174.192 204.158V204.678H168.929C168.956 206.1 169.735 206.927 170.959 206.927C171.909 206.927 172.477 206.455 172.654 206.072L172.682 206.018L174.11 206.011L174.097 206.072C173.851 207.05 172.825 208.144 170.925 208.144ZM170.856 201.649C169.845 201.649 169.079 202.34 168.949 203.618H172.723C172.606 202.292 171.861 201.649 170.856 201.649ZM175.956 208V200.576H177.439V201.704H177.549C177.911 200.911 178.622 200.433 179.702 200.433C181.363 200.433 182.279 201.424 182.279 203.194V208H180.803V203.543C180.803 202.312 180.29 201.704 179.203 201.704C178.116 201.704 177.439 202.449 177.439 203.646V208H175.956ZM187.153 208.048C185.52 208.048 184.85 207.474 184.85 206.045V201.745H183.688V200.576H184.85V198.703H186.36V200.576H187.953V201.745H186.36V205.689C186.36 206.489 186.661 206.817 187.393 206.817C187.618 206.817 187.748 206.811 187.953 206.79V207.973C187.714 208.014 187.44 208.048 187.153 208.048ZM195.548 208.123C194.133 208.123 193.087 207.262 193.087 205.915V205.901C193.087 204.575 194.085 203.803 195.855 203.693L197.865 203.577V202.921C197.865 202.107 197.353 201.656 196.348 201.656C195.527 201.656 194.987 201.957 194.81 202.483L194.803 202.511H193.374L193.381 202.463C193.559 201.246 194.728 200.433 196.416 200.433C198.282 200.433 199.335 201.362 199.335 202.921V208H197.865V206.947H197.749C197.312 207.699 196.532 208.123 195.548 208.123ZM194.563 205.854C194.563 206.537 195.145 206.94 195.944 206.94C197.052 206.94 197.865 206.216 197.865 205.259V204.623L196.054 204.739C195.028 204.801 194.563 205.17 194.563 205.84V205.854ZM201.427 208V200.576H202.91V201.704H203.02C203.382 200.911 204.093 200.433 205.173 200.433C206.834 200.433 207.75 201.424 207.75 203.194V208H206.273V203.543C206.273 202.312 205.761 201.704 204.674 201.704C203.587 201.704 202.91 202.449 202.91 203.646V208H201.427ZM213.82 208V198.136H220.082V199.455H215.352V202.34H219.829V203.611H215.352V206.681H220.082V208H213.82ZM222.126 208V200.576H223.609V201.718H223.719C224.047 200.904 224.771 200.433 225.742 200.433C226.754 200.433 227.472 200.959 227.8 201.759H227.916C228.292 200.959 229.146 200.433 230.179 200.433C231.676 200.433 232.551 201.335 232.551 202.88V208H231.074V203.235C231.074 202.21 230.609 201.704 229.639 201.704C228.695 201.704 228.073 202.408 228.073 203.304V208H226.597V203.085C226.597 202.237 226.043 201.704 225.168 201.704C224.272 201.704 223.609 202.47 223.609 203.44V208H222.126ZM236.659 208.123C235.244 208.123 234.198 207.262 234.198 205.915V205.901C234.198 204.575 235.196 203.803 236.967 203.693L238.977 203.577V202.921C238.977 202.107 238.464 201.656 237.459 201.656C236.639 201.656 236.099 201.957 235.921 202.483L235.914 202.511H234.485L234.492 202.463C234.67 201.246 235.839 200.433 237.527 200.433C239.394 200.433 240.446 201.362 240.446 202.921V208H238.977V206.947H238.86C238.423 207.699 237.644 208.123 236.659 208.123ZM235.675 205.854C235.675 206.537 236.256 206.94 237.056 206.94C238.163 206.94 238.977 206.216 238.977 205.259V204.623L237.165 204.739C236.14 204.801 235.675 205.17 235.675 205.84V205.854ZM243.311 199.25C242.798 199.25 242.381 198.833 242.381 198.327C242.381 197.814 242.798 197.397 243.311 197.397C243.816 197.397 244.24 197.814 244.24 198.327C244.24 198.833 243.816 199.25 243.311 199.25ZM242.565 208V200.576H244.042V208H242.565ZM246.271 208V197.664H247.754V208H246.271Z" fill="#262C36"/>
<circle cx="254" cy="203.5" r="1" fill="#414857"/>
<path d="M263.21 208.203C261.601 208.203 260.453 207.169 260.327 205.787L260.321 205.721H261.356L261.362 205.769C261.464 206.594 262.211 207.252 263.222 207.252C264.371 207.252 265.16 206.433 265.16 205.266V205.255C265.16 204.106 264.359 203.287 263.24 203.287C262.666 203.287 262.175 203.46 261.805 203.813C261.655 203.957 261.517 204.124 261.41 204.327H260.477L260.931 199.369H265.734V200.332H261.781L261.488 203.251H261.583C261.966 202.671 262.642 202.354 263.426 202.354C265.047 202.354 266.213 203.568 266.213 205.237V205.249C266.213 206.989 264.963 208.203 263.21 208.203ZM271.399 208V201.552H272.44V202.533H272.535C272.822 201.839 273.432 201.438 274.276 201.438C275.149 201.438 275.759 201.899 276.058 202.569H276.154C276.501 201.887 277.237 201.438 278.128 201.438C279.444 201.438 280.18 202.192 280.18 203.544V208H279.139V203.783C279.139 202.832 278.702 202.359 277.793 202.359C276.896 202.359 276.304 203.035 276.304 203.855V208H275.263V203.622C275.263 202.856 274.736 202.359 273.923 202.359C273.08 202.359 272.44 203.095 272.44 204.004V208H271.399ZM282.608 200.308C282.213 200.308 281.89 199.985 281.89 199.59C281.89 199.195 282.213 198.872 282.608 198.872C283.003 198.872 283.326 199.195 283.326 199.59C283.326 199.985 283.003 200.308 282.608 200.308ZM282.082 208V201.552H283.122V208H282.082ZM285.084 208V201.552H286.125V202.521H286.221C286.544 201.839 287.148 201.438 288.099 201.438C289.547 201.438 290.354 202.294 290.354 203.825V208H289.313V204.076C289.313 202.916 288.835 202.359 287.806 202.359C286.777 202.359 286.125 203.053 286.125 204.184V208H285.084ZM294.451 208.114C293.016 208.114 292.029 207.42 291.909 206.355H292.974C293.147 206.893 293.662 207.246 294.487 207.246C295.354 207.246 295.971 206.834 295.971 206.247V206.235C295.971 205.799 295.642 205.494 294.846 205.302L293.847 205.063C292.639 204.776 292.095 204.25 292.095 203.323V203.317C292.095 202.246 293.123 201.438 294.493 201.438C295.845 201.438 296.784 202.114 296.928 203.167H295.905C295.767 202.659 295.265 202.306 294.487 202.306C293.722 202.306 293.159 202.7 293.159 203.269V203.281C293.159 203.717 293.482 203.992 294.242 204.178L295.235 204.417C296.449 204.71 297.035 205.237 297.035 206.158V206.17C297.035 207.318 295.917 208.114 294.451 208.114ZM303.866 208.114C302.64 208.114 301.713 207.372 301.713 206.2V206.188C301.713 205.039 302.562 204.375 304.063 204.286L305.912 204.172V203.586C305.912 202.79 305.427 202.359 304.464 202.359C303.693 202.359 303.184 202.647 303.017 203.149L303.011 203.167H301.97L301.976 203.131C302.143 202.12 303.124 201.438 304.5 201.438C306.073 201.438 306.953 202.246 306.953 203.586V208H305.912V207.049H305.816C305.409 207.737 304.733 208.114 303.866 208.114ZM302.777 206.176C302.777 206.828 303.334 207.21 304.081 207.21C305.14 207.21 305.912 206.517 305.912 205.595V205.009L304.189 205.117C303.208 205.177 302.777 205.524 302.777 206.164V206.176ZM311.51 210.273C309.955 210.273 308.962 209.573 308.801 208.514L308.813 208.508H309.889L309.895 208.514C310.009 209.005 310.583 209.352 311.51 209.352C312.665 209.352 313.353 208.807 313.353 207.856V206.552H313.257C312.85 207.264 312.12 207.665 311.235 207.665C309.566 207.665 308.532 206.373 308.532 204.567V204.555C308.532 202.748 309.572 201.438 311.259 201.438C312.168 201.438 312.874 201.887 313.269 202.617H313.341V201.552H314.381V207.91C314.381 209.352 313.269 210.273 311.51 210.273ZM311.463 206.744C312.659 206.744 313.377 205.847 313.377 204.567V204.555C313.377 203.275 312.653 202.359 311.463 202.359C310.266 202.359 309.596 203.275 309.596 204.555V204.567C309.596 205.847 310.266 206.744 311.463 206.744ZM318.969 208.114C317.133 208.114 315.996 206.846 315.996 204.782V204.77C315.996 202.7 317.133 201.438 318.969 201.438C320.806 201.438 321.942 202.7 321.942 204.77V204.782C321.942 206.846 320.806 208.114 318.969 208.114ZM318.969 207.193C320.189 207.193 320.877 206.301 320.877 204.782V204.77C320.877 203.245 320.189 202.359 318.969 202.359C317.749 202.359 317.061 203.245 317.061 204.77V204.782C317.061 206.301 317.749 207.193 318.969 207.193Z" fill="#414857"/>
<path d="M35.5 173L35.5 187" stroke="#EFF2F7" stroke-width="2"/>
<path d="M35 9L35 23" stroke="#EFF2F7" stroke-width="2"/>
</g>
<path d="M-0.948423 7.58738C-0.948423 2.89993 2.85151 -0.9 7.53896 -0.9L400.413 -0.9C405.1 -0.9 408.9 2.89993 408.9 7.58738L407.1 7.58738C407.1 3.89404 404.106 0.9 400.413 0.9L7.58738 0.9C3.92079 0.9 0.948423 3.89404 0.948423 7.58738L-0.948423 7.58738ZM408 241H0H408ZM7.58738 241C2.87319 241 -0.948423 237.178 -0.948423 232.464L-0.948423 7.58738C-0.948423 2.89993 2.85151 -0.9 7.53896 -0.9L7.58738 0.9C3.92079 0.9 0.948423 3.89404 0.948423 7.58738L0.948423 233.413C0.948423 237.603 3.92079 241 7.58738 241H7.58738ZM400.413 -0.9C405.1 -0.9 408.9 2.89993 408.9 7.58738V232.513C408.9 237.2 405.1 241 400.413 241H400.413C404.106 241 407.1 237.603 407.1 233.413V7.58738C407.1 3.89404 404.106 0.9 400.413 0.9L400.413 -0.9Z" fill="#EFF2F7" mask="url(#path-1-inside-1_172_6504)"/>
</g>
<defs>
<filter id="filter0_i_172_6504" x="248.973" y="32.9484" width="11.3813" height="12.3295" filterUnits="userSpaceOnUse" color-interpolation-filters="sRGB">
<feFlood flood-opacity="0" result="BackgroundImageFix"/>
<feBlend mode="normal" in="SourceGraphic" in2="BackgroundImageFix" result="shape"/>
<feColorMatrix in="SourceAlpha" type="matrix" values="0 0 0 0 0 0 0 0 0 0 0 0 0 0 0 0 0 0 127 0" result="hardAlpha"/>
<feOffset dy="0.948423"/>
<feGaussianBlur stdDeviation="0.474211"/>
<feComposite in2="hardAlpha" operator="arithmetic" k2="-1" k3="1"/>
<feColorMatrix type="matrix" values="0 0 0 0 0 0 0 0 0 0 0 0 0 0 0 0 0 0 0.1 0"/>
<feBlend mode="normal" in2="shape" result="effect1_innerShadow_172_6504"/>
</filter>
<filter id="filter1_dd_172_6504" x="6.22208" y="52.6189" width="396.556" height="135.668" filterUnits="userSpaceOnUse" color-interpolation-filters="sRGB">
<feFlood flood-opacity="0" result="BackgroundImageFix"/>
<feColorMatrix in="SourceAlpha" type="matrix" values="0 0 0 0 0 0 0 0 0 0 0 0 0 0 0 0 0 0 127 0" result="hardAlpha"/>
<feOffset dy="0.948423"/>
<feGaussianBlur stdDeviation="0.948423"/>
<feComposite in2="hardAlpha" operator="out"/>
<feColorMatrix type="matrix" values="0 0 0 0 0 0 0 0 0 0 0 0 0 0 0 0 0 0 0.04 0"/>
<feBlend mode="normal" in2="BackgroundImageFix" result="effect1_dropShadow_172_6504"/>
<feColorMatrix in="SourceAlpha" type="matrix" values="0 0 0 0 0 0 0 0 0 0 0 0 0 0 0 0 0 0 127 0" result="hardAlpha"/>
<feMorphology radius="1.89685" operator="dilate" in="SourceAlpha" result="effect2_dropShadow_172_6504"/>
<feOffset dy="1.89685"/>
<feGaussianBlur stdDeviation="5.69054"/>
<feComposite in2="hardAlpha" operator="out"/>
<feColorMatrix type="matrix" values="0 0 0 0 0 0 0 0 0 0 0 0 0 0 0 0 0 0 0.02 0"/>
<feBlend mode="normal" in2="effect1_dropShadow_172_6504" result="effect2_dropShadow_172_6504"/>
<feBlend mode="normal" in="SourceGraphic" in2="effect2_dropShadow_172_6504" result="shape"/>
</filter>
<clipPath id="clip0_172_6504">
<rect width="408" height="233" fill="white"/>
</clipPath>
<clipPath id="clip1_172_6504">
<path d="M0 7.58739C0 3.39699 3.39699 0 7.58738 0L400.413 0C404.603 0 408 3.39699 408 7.58738V233.413C408 237.603 404.603 241 400.413 241H7.58736C3.39696 241 0 237.603 0 233.413L0 7.58739Z" fill="white"/>
</clipPath>
</defs>
</svg>
