<svg width="21" height="20" viewBox="0 0 21 20" fill="none" xmlns="http://www.w3.org/2000/svg">
<path d="M20.667 9.39917C20.667 8.18333 19.6737 7.195 18.4528 7.195C17.857 7.195 17.317 7.43333 16.9195 7.81667C15.4112 6.82417 13.3703 6.1925 11.1103 6.11167L12.3462 2.22083L15.6928 3.005L15.6878 3.05333C15.6878 4.0475 16.5003 4.85583 17.4995 4.85583C18.4978 4.85583 19.3095 4.0475 19.3095 3.05333C19.3095 2.05917 18.497 1.25 17.4995 1.25C16.7328 1.25 16.0795 1.72833 15.8153 2.39917L12.2078 1.55333C12.0503 1.515 11.8903 1.60583 11.8412 1.76083L10.4628 6.1C8.09783 6.12833 5.95533 6.765 4.37949 7.7875C3.98449 7.4225 3.46033 7.19417 2.88033 7.19417C1.65949 7.19417 0.666992 8.18333 0.666992 9.39917C0.666992 10.2075 1.11116 10.9083 1.76449 11.2917C1.72116 11.5267 1.69283 11.7642 1.69283 12.0058C1.69283 15.265 5.69949 17.9167 10.6253 17.9167C15.5512 17.9167 19.5587 15.265 19.5587 12.0058C19.5587 11.7775 19.5345 11.5525 19.4962 11.3308C20.1895 10.9583 20.667 10.2375 20.667 9.39917ZM6.31366 10.9125C6.31366 10.1892 6.90533 9.6 7.63199 9.6C8.35866 9.6 8.94949 10.1892 8.94949 10.9125C8.94949 11.6358 8.35866 12.2242 7.63199 12.2242C6.90533 12.2242 6.31366 11.6358 6.31366 10.9125ZM13.8645 14.8033C13.2003 15.4642 12.1578 15.7858 10.6778 15.7858L10.667 15.7833L10.6562 15.7858C9.17533 15.7858 8.13283 15.4642 7.46949 14.8033C7.34866 14.6833 7.34866 14.4875 7.46949 14.3675C7.59033 14.2467 7.78699 14.2467 7.90783 14.3675C8.44949 14.9067 9.34866 15.1683 10.6562 15.1683L10.667 15.1708L10.6778 15.1683C11.9853 15.1683 12.8845 14.9058 13.4262 14.3667C13.547 14.2458 13.7437 14.2467 13.8645 14.3667C13.9853 14.4875 13.9853 14.6825 13.8645 14.8033ZM13.707 12.2242C12.9803 12.2242 12.3895 11.6358 12.3895 10.9125C12.3895 10.1892 12.9803 9.6 13.707 9.6C14.4337 9.6 15.0245 10.1892 15.0245 10.9125C15.0245 11.6358 14.4337 12.2242 13.707 12.2242Z" fill="#FF4500"/>
</svg>
