<svg width="20" height="20" viewBox="0 0 20 20" fill="none" xmlns="http://www.w3.org/2000/svg">
<path d="M20 9.39917C20 8.18333 19.0067 7.195 17.7858 7.195C17.19 7.195 16.65 7.43333 16.2525 7.81667C14.7442 6.82417 12.7033 6.1925 10.4433 6.11167L11.6792 2.22083L15.0258 3.005L15.0208 3.05333C15.0208 4.0475 15.8333 4.85583 16.8325 4.85583C17.8308 4.85583 18.6425 4.0475 18.6425 3.05333C18.6425 2.05917 17.83 1.25 16.8325 1.25C16.0658 1.25 15.4125 1.72833 15.1483 2.39917L11.5408 1.55333C11.3833 1.515 11.2233 1.60583 11.1742 1.76083L9.79583 6.1C7.43083 6.12833 5.28833 6.765 3.7125 7.7875C3.3175 7.4225 2.79333 7.19417 2.21333 7.19417C0.9925 7.19417 0 8.18333 0 9.39917C0 10.2075 0.444167 10.9083 1.0975 11.2917C1.05417 11.5267 1.02583 11.7642 1.02583 12.0058C1.02583 15.265 5.0325 17.9167 9.95833 17.9167C14.8842 17.9167 18.8917 15.265 18.8917 12.0058C18.8917 11.7775 18.8675 11.5525 18.8292 11.3308C19.5225 10.9583 20 10.2375 20 9.39917ZM5.64667 10.9125C5.64667 10.1892 6.23833 9.6 6.965 9.6C7.69167 9.6 8.2825 10.1892 8.2825 10.9125C8.2825 11.6358 7.69167 12.2242 6.965 12.2242C6.23833 12.2242 5.64667 11.6358 5.64667 10.9125ZM13.1975 14.8033C12.5333 15.4642 11.4908 15.7858 10.0108 15.7858L10 15.7833L9.98917 15.7858C8.50833 15.7858 7.46583 15.4642 6.8025 14.8033C6.68167 14.6833 6.68167 14.4875 6.8025 14.3675C6.92333 14.2467 7.12 14.2467 7.24083 14.3675C7.7825 14.9067 8.68167 15.1683 9.98917 15.1683L10 15.1708L10.0108 15.1683C11.3183 15.1683 12.2175 14.9058 12.7592 14.3667C12.88 14.2458 13.0767 14.2467 13.1975 14.3667C13.3183 14.4875 13.3183 14.6825 13.1975 14.8033ZM13.04 12.2242C12.3133 12.2242 11.7225 11.6358 11.7225 10.9125C11.7225 10.1892 12.3133 9.6 13.04 9.6C13.7667 9.6 14.3575 10.1892 14.3575 10.9125C14.3575 11.6358 13.7667 12.2242 13.04 12.2242Z" fill="#FF4500"/>
</svg>
