<svg width="20" height="20" viewBox="0 0 20 20" fill="none" xmlns="http://www.w3.org/2000/svg">
<path d="M8.32279 4.02676C8.96781 3.35468 9.86581 2.93787 10.859 2.93787C12.1792 2.93787 13.3311 3.67406 13.9444 4.76693C14.4775 4.52876 15.0675 4.39628 15.6883 4.39628C18.0695 4.39628 20 6.34357 20 8.74556C20 11.1478 18.0695 13.0951 15.6883 13.0951C15.3977 13.0951 15.1137 13.0661 14.839 13.0105C14.2989 13.9741 13.2695 14.6251 12.088 14.6251C11.5934 14.6251 11.1256 14.5108 10.7091 14.3077C10.1615 15.5957 8.88576 16.4988 7.39886 16.4988C5.85043 16.4988 4.53077 15.5191 4.02422 14.145C3.80285 14.192 3.5735 14.2165 3.33818 14.2165C1.49459 14.2165 0 12.7065 0 10.8436C0 9.59514 0.67151 8.50511 1.66923 7.92192C1.46382 7.44927 1.34957 6.92762 1.34957 6.37918C1.34957 4.23673 3.08889 2.49998 5.23419 2.49998C6.49373 2.49998 7.61311 3.09884 8.32279 4.02676Z" fill="#00A1E0"/>
</svg>
