<svg width="21" height="20" viewBox="0 0 21 20" fill="none" xmlns="http://www.w3.org/2000/svg">
<g clip-path="url(#clip0_1193_4812)">
<path fill-rule="evenodd" clip-rule="evenodd" d="M7.69808 0C6.58766 0.000819135 5.68898 0.900229 5.6898 2.00852C5.68898 3.11681 6.58848 4.01622 7.6989 4.01704H9.70801V2.00934C9.70883 0.901048 8.80933 0.00163827 7.69808 0ZM7.69808 5.35714H2.34211C1.23169 5.35796 0.332189 6.25737 0.33301 7.36566C0.331369 8.47395 1.23087 9.37336 2.34129 9.375H7.69808C8.80851 9.37418 9.70801 8.47477 9.70719 7.36648C9.70801 6.25737 8.80851 5.35796 7.69808 5.35714V5.35714Z" fill="#36C5F0"/>
<path fill-rule="evenodd" clip-rule="evenodd" d="M20.332 7.36566C20.3329 6.25737 19.4333 5.35796 18.3228 5.35714C17.2122 5.35796 16.3126 6.25737 16.3135 7.36566V9.375H18.3228C19.4333 9.37418 20.3329 8.47477 20.332 7.36566ZM14.9748 7.36566V2.00852C14.9756 0.901048 14.0768 0.00163827 12.9663 0C11.8558 0.000819135 10.9562 0.900229 10.957 2.00852V7.36566C10.9554 8.47395 11.855 9.37336 12.9655 9.375C14.076 9.37418 14.9756 8.47477 14.9748 7.36566V7.36566Z" fill="#2EB67D"/>
<path fill-rule="evenodd" clip-rule="evenodd" d="M12.9661 20C14.0766 19.9992 14.9761 19.0999 14.9752 17.9917C14.9761 16.8835 14.0766 15.9841 12.9661 15.9833H10.957V17.9917C10.9562 19.099 11.8557 19.9984 12.9661 20ZM12.9661 14.6425H18.3229C19.4333 14.6417 20.3328 13.7424 20.332 12.6342C20.3337 11.526 19.4342 10.6266 18.3237 10.625H12.967C11.8565 10.6258 10.957 11.5252 10.9579 12.6333C10.957 13.7424 11.8557 14.6417 12.9661 14.6425V14.6425Z" fill="#ECB22E"/>
<path fill-rule="evenodd" clip-rule="evenodd" d="M0.333008 12.6335C0.332188 13.7418 1.23177 14.6412 2.34229 14.642C3.45281 14.6412 4.35239 13.7418 4.35157 12.6335V10.625H2.34229C1.23177 10.6258 0.332188 11.5252 0.333008 12.6335ZM5.69027 12.6335V17.9907C5.68863 19.099 6.5882 19.9984 7.69873 20C8.80925 19.9992 9.70883 19.0998 9.70801 17.9915V12.6352C9.70965 11.5269 8.81007 10.6275 7.69955 10.6258C6.5882 10.6258 5.68945 11.5252 5.69027 12.6335Z" fill="#E01E5A"/>
</g>
<defs>
<clipPath id="clip0_1193_4812">
<rect width="20" height="20" fill="white" transform="translate(0.333008)"/>
</clipPath>
</defs>
</svg>
