<svg width="20" height="20" viewBox="0 0 20 20" fill="none" xmlns="http://www.w3.org/2000/svg">
<g clip-path="url(#clip0_1886_3948)">
<path fill-rule="evenodd" clip-rule="evenodd" d="M7.36507 0C6.25465 0.000819135 5.35597 0.900229 5.35679 2.00852C5.35597 3.11681 6.25547 4.01622 7.36589 4.01704H9.375V2.00934C9.37582 0.901048 8.47632 0.00163827 7.36507 0ZM7.36507 5.35714H2.00911C0.898682 5.35796 -0.000818469 6.25737 2.24291e-06 7.36566C-0.00163918 8.47395 0.897861 9.37336 2.00829 9.375H7.36507C8.4755 9.37418 9.375 8.47477 9.37418 7.36648C9.375 6.25737 8.4755 5.35796 7.36507 5.35714Z" fill="#36C5F0"/>
<path fill-rule="evenodd" clip-rule="evenodd" d="M20.0002 7.36566C20.0011 6.25737 19.1015 5.35796 17.991 5.35714C16.8804 5.35796 15.9809 6.25737 15.9817 7.36566V9.375H17.991C19.1015 9.37418 20.0011 8.47477 20.0002 7.36566ZM14.643 7.36566V2.00852C14.6438 0.901048 13.745 0.00163827 12.6345 0C11.524 0.000819135 10.6244 0.900229 10.6252 2.00852V7.36566C10.6236 8.47395 11.5232 9.37336 12.6337 9.375C13.7442 9.37418 14.6438 8.47477 14.643 7.36566Z" fill="#2EB67D"/>
<path fill-rule="evenodd" clip-rule="evenodd" d="M12.6343 20C13.7448 19.9992 14.6443 19.0999 14.6435 17.9917C14.6443 16.8835 13.7448 15.9841 12.6343 15.9833H10.6252V17.9917C10.6244 19.099 11.5239 19.9984 12.6343 20ZM12.6343 14.6425H17.9911C19.1016 14.6417 20.0011 13.7424 20.0002 12.6342C20.0019 11.526 19.1024 10.6266 17.992 10.625H12.6352C11.5247 10.6258 10.6252 11.5252 10.6261 12.6333C10.6252 13.7424 11.5239 14.6417 12.6343 14.6425Z" fill="#ECB22E"/>
<path fill-rule="evenodd" clip-rule="evenodd" d="M5.61221e-07 12.6335C-0.000820223 13.7418 0.898759 14.6412 2.00928 14.642C3.1198 14.6412 4.01938 13.7418 4.01856 12.6335V10.625H2.00928C0.898759 10.6258 -0.000820223 11.5252 5.61221e-07 12.6335ZM5.35726 12.6335V17.9907C5.35562 19.099 6.2552 19.9984 7.36572 20C8.47624 19.9992 9.37582 19.0998 9.375 17.9915V12.6352C9.37664 11.5269 8.47706 10.6275 7.36654 10.6258C6.2552 10.6258 5.35644 11.5252 5.35726 12.6335Z" fill="#E01E5A"/>
</g>
<defs>
<clipPath id="clip0_1886_3948">
<rect width="20" height="20" fill="white"/>
</clipPath>
</defs>
</svg>
