<svg width="13" height="14" viewBox="0 0 13 14" fill="none" xmlns="http://www.w3.org/2000/svg">
<g clip-path="url(#clip0)">
<path d="M4.72865 7.37988C3.98432 7.37988 3.38062 8.03847 3.38062 8.85047V12.529C3.38062 13.341 3.98432 13.9995 4.72865 13.9995C5.47298 13.9995 6.07668 13.341 6.07668 12.529V8.85047C6.07615 8.03847 5.47245 7.37988 4.72865 7.37988Z" fill="#E01E5A"/>
<path d="M0.0102539 8.85065C0.0102539 9.66324 0.61449 10.3224 1.35936 10.3224C2.10423 10.3224 2.70846 9.66324 2.70846 8.85065V7.37891H1.36043C1.35989 7.37891 1.35989 7.37891 1.35936 7.37891C0.61449 7.37891 0.0102539 8.03807 0.0102539 8.85065V8.85065Z" fill="#E01E5A"/>
<path d="M4.7301 -0.000488281C4.72957 -0.000488281 4.72903 -0.000488281 4.7285 -0.000488281C3.98363 -0.000488281 3.37939 0.658678 3.37939 1.47126C3.37939 2.28384 3.98363 2.94301 4.7285 2.94301H6.07653C6.07653 2.10826 6.07653 2.31126 6.07653 1.46834C6.076 0.656928 5.47337 -0.000488281 4.7301 -0.000488281V-0.000488281Z" fill="#36C5F0"/>
<path d="M1.35032 6.63246H4.7287C5.47357 6.63246 6.0778 5.9733 6.0778 5.16071C6.0778 4.34813 5.47357 3.68896 4.7287 3.68896H1.35032C0.605457 3.68896 0.0012207 4.34813 0.0012207 5.16071C0.0012207 5.9733 0.605457 6.63246 1.35032 6.63246V6.63246Z" fill="#36C5F0"/>
<path d="M11.4734 3.68848C10.7296 3.68848 10.127 4.34589 10.127 5.15731V5.16023V6.63198H11.475C12.2199 6.63198 12.8241 5.97281 12.8241 5.16023C12.8241 4.34764 12.2199 3.68848 11.475 3.68848C11.4745 3.68848 11.4739 3.68848 11.4734 3.68848V3.68848Z" fill="#2EB67D"/>
<path d="M6.75952 1.47107V5.16065C6.75952 5.97265 7.36322 6.63124 8.10756 6.63124C8.85189 6.63124 9.45559 5.97265 9.45559 5.16065V1.47107C9.45559 0.659072 8.85189 0.000488281 8.10756 0.000488281C7.36322 0.000488281 6.75952 0.659072 6.75952 1.47107V1.47107Z" fill="#2EB67D"/>
<path d="M9.45486 12.5277C9.45486 11.7157 8.85116 11.0571 8.10682 11.0571H6.75879V12.5289C6.75932 13.3403 7.36249 13.9983 8.10682 13.9983C8.85116 13.9983 9.45486 13.3397 9.45486 12.5277Z" fill="#ECB22E"/>
<path d="M11.4853 7.37891H8.10692C7.36205 7.37891 6.75781 8.03807 6.75781 8.85065C6.75781 9.66324 7.36205 10.3224 8.10692 10.3224H11.4853C12.2302 10.3224 12.8344 9.66324 12.8344 8.85065C12.8344 8.03807 12.2302 7.37891 11.4853 7.37891V7.37891Z" fill="#ECB22E"/>
</g>
<defs>
<clipPath id="clip0">
<rect width="12.8333" height="14" fill="white"/>
</clipPath>
</defs>
</svg>
