<?xml version="1.0" encoding="utf-8"?>
<!-- Generator: Adobe Illustrator 26.1.0, SVG Export Plug-In . SVG Version: 6.00 Build 0)  -->
<svg version="1.1" id="Layer_1" xmlns="http://www.w3.org/2000/svg" xmlns:xlink="http://www.w3.org/1999/xlink" x="0px" y="0px"
	 viewBox="0 0 210.687561 210.4627075" enable-background="new 0 0 210.687561 210.4627075" xml:space="preserve">
<g>
	<path fill="#281A62" d="M105.3439331,209.266571C105.1833496,210.8614197,105.5045776,210.8614197,105.3439331,209.266571
		L105.3439331,209.266571z"/>
	<path fill="#281A62" d="M105.3436279,1.1961365C105.5042114-0.3987122,105.1829834-0.3987122,105.3436279,1.1961365
		L105.3436279,1.1961365z"/>
	<path fill="#281A62" d="M1.196228,105.2315369C-0.3987427,105.0708923-0.3987427,105.3921814,1.196228,105.2315369
		L1.196228,105.2315369z"/>
	<path fill="#281A62" d="M190.348938,102.0798035L120.0650635,90.509491L108.494812,20.3138123
		c-0.5877686-3.5656738-5.7145996-3.5656738-6.3023682,0l-11.5704346,70.196167L20.338623,102.0802917
		c-3.5665894,0.5871582-3.5665894,5.715332,0,6.3024902l70.2838135,11.5703125l11.5703125,70.1958008
		c0.5877686,3.5656738,5.7145996,3.5656738,6.3023682,0l11.5703735-70.1962891l70.2834473-11.5701904
		C193.9155273,107.7952576,193.9155273,102.6669617,190.348938,102.0798035z"/>
	<path fill="#281A62" d="M209.491333,105.2311707C211.0863037,105.3918152,211.0863037,105.0705261,209.491333,105.2311707
		L209.491333,105.2311707z"/>
</g>
</svg>
