<?xml version="1.0" encoding="utf-8"?>
<!-- Generator: Adobe Illustrator 26.1.0, SVG Export Plug-In . SVG Version: 6.00 Build 0)  -->
<svg version="1.1" id="Layer_1" xmlns="http://www.w3.org/2000/svg" xmlns:xlink="http://www.w3.org/1999/xlink" x="0px" y="0px"
	 viewBox="0 0 527.8179932 527.6211548" enable-background="new 0 0 527.8179932 527.6211548" xml:space="preserve">
<g>
	<path fill="#352381" d="M299.0106506,469.151123C298.8620911,470.6265259,299.1592407,470.6265259,299.0106506,469.151123
		L299.0106506,469.151123z"/>
	<path fill="#352381" d="M299.0103455,276.6642151C299.158905,275.1888123,298.8617554,275.1888123,299.0103455,276.6642151
		L299.0103455,276.6642151z"/>
	<path fill="#352381" d="M202.6631165,372.9078369C201.1876068,372.7592163,201.1876068,373.0564575,202.6631165,372.9078369
		L202.6631165,372.9078369z"/>
	<path fill="#352381" d="M377.6491699,369.992157l-65.019928-10.7037659l-10.7037048-64.9383545
		c-0.5437622-3.2986145-5.2865906-3.2986145-5.8303528,0l-10.7038574,64.9388123l-65.0194855,10.7037354
		c-3.299469,0.5432129-3.299469,5.2872925,0,5.8304749l65.0198822,10.7037659l10.7037354,64.938446
		c0.5437622,3.2986145,5.2866211,3.2986145,5.8303528,0l10.7037964-64.9389038l65.0195618-10.7036438
		C380.9486389,375.279541,380.9486389,370.5353394,377.6491699,369.992157z"/>
	<path fill="#352381" d="M395.3578796,372.9075012C396.8334045,373.0560913,396.8334045,372.7588806,395.3578796,372.9075012
		L395.3578796,372.9075012z"/>
</g>
<g>
	<circle fill="#281A62" cx="164.6991882" cy="48.9116287" r="16.0000114"/>
</g>
<circle fill="#352381" cx="118.4110107" cy="250.4927979" r="22.0744934"/>
<g>
	<circle fill="#281A62" cx="338.4794922" cy="110.6558685" r="22.0744934"/>
</g>
</svg>
