<?xml version="1.0" encoding="utf-8"?>
<!-- Generator: Adobe Illustrator 26.1.0, SVG Export Plug-In . SVG Version: 6.00 Build 0)  -->
<svg version="1.1" id="Layer_1" xmlns="http://www.w3.org/2000/svg" xmlns:xlink="http://www.w3.org/1999/xlink" x="0px" y="0px"
	 viewBox="0 0 527.8179932 527.6211548" enable-background="new 0 0 527.8179932 527.6211548" xml:space="preserve">
<g>
	<path fill="#352381" d="M174.835907,269.8043518C174.6437988,271.7123108,175.0280914,271.7123108,174.835907,269.8043518
		L174.835907,269.8043518z"/>
	<path fill="#352381" d="M174.8355408,20.8841953C175.0276489,18.9762363,174.6433563,18.9762363,174.8355408,20.8841953
		L174.8355408,20.8841953z"/>
	<path fill="#352381" d="M50.2412605,145.3444977C48.3331566,145.1523132,48.3331566,145.5366821,50.2412605,145.3444977
		L50.2412605,145.3444977z"/>
	<path fill="#352381" d="M276.5296326,141.5739899l-84.0824432-13.8418732l-13.8417969-83.976944
		c-0.7031708-4.2657089-6.8365326-4.2657089-7.5396881,0l-13.8420258,83.9775238l-84.0818634,13.8418655
		c-4.2668076,0.7024384-4.2668076,6.8374023,0,7.5398407l84.0823822,13.8418732l13.8418732,83.9770813
		c0.7031555,4.2657166,6.8365173,4.2657166,7.5396881,0l13.8419342-83.9776611l84.0819397-13.8417358
		C280.7964478,148.4115448,280.7964478,142.2764282,276.5296326,141.5739899z"/>
	<path fill="#352381" d="M299.4302063,145.3440552C301.3382874,145.5362396,301.3382874,145.1518707,299.4302063,145.3440552
		L299.4302063,145.3440552z"/>
</g>
<g>
	<circle fill="#281A62" cx="274.290802" cy="465.2790527" r="19.5816593"/>
</g>
<circle fill="#352381" cx="416.589325" cy="350.7084656" r="28.5462856"/>
</svg>
