<svg width="128" height="53" viewBox="0 0 128 53" fill="none" xmlns="http://www.w3.org/2000/svg">
<rect x="0.5" y="11.5" width="70" height="41" rx="5.83333" fill="#F8F9FB"/>
<rect x="0.5" y="11.5" width="70" height="41" rx="5.83333" stroke="#EFF2F7"/>
<path d="M24.3233 28.4285H21.598C21.4932 27.8461 21.2981 27.3337 21.0128 26.8911C20.7275 26.4486 20.3781 26.073 19.9646 25.7643C19.5512 25.4557 19.0882 25.2228 18.5758 25.0655C18.0692 24.9083 17.5305 24.8297 16.9598 24.8297C15.9291 24.8297 15.0061 25.0888 14.1909 25.6071C13.3815 26.1254 12.7409 26.8853 12.2692 27.8869C11.8034 28.8885 11.5704 30.1114 11.5704 31.5555C11.5704 33.0113 11.8034 34.24 12.2692 35.2416C12.7409 36.2432 13.3844 37.0002 14.1996 37.5127C15.0149 38.0251 15.932 38.2814 16.9511 38.2814C17.5159 38.2814 18.0517 38.2056 18.5583 38.0542C19.0707 37.897 19.5337 37.667 19.9471 37.3642C20.3606 37.0614 20.71 36.6916 20.9953 36.2549C21.2865 35.8123 21.4874 35.3057 21.598 34.735L24.3233 34.7437C24.1777 35.623 23.8953 36.4325 23.476 37.172C23.0626 37.9058 22.5297 38.5405 21.8775 39.0762C21.2312 39.6061 20.4916 40.0167 19.6589 40.3078C18.8262 40.599 17.9177 40.7446 16.9336 40.7446C15.3846 40.7446 14.0045 40.3777 12.7933 39.644C11.5821 38.9044 10.6271 37.8475 9.92828 36.4732C9.23532 35.099 8.88884 33.4597 8.88884 31.5555C8.88884 29.6455 9.23823 28.0063 9.93702 26.6378C10.6358 25.2635 11.5908 24.2095 12.802 23.4758C14.0133 22.7363 15.3905 22.3665 16.9336 22.3665C17.8828 22.3665 18.7679 22.5033 19.589 22.777C20.4159 23.0449 21.1584 23.4409 21.8164 23.965C22.4744 24.4832 23.0189 25.118 23.4498 25.8691C23.8807 26.6145 24.1719 27.4676 24.3233 28.4285ZM27.5893 40.5V27.0833H30.0962V29.267H30.2622C30.5417 28.5275 30.9988 27.951 31.6336 27.5375C32.2683 27.1182 33.0282 26.9086 33.9134 26.9086C34.8101 26.9086 35.5613 27.1182 36.1669 27.5375C36.7784 27.9568 37.2297 28.5333 37.5208 29.267H37.6606C37.9809 28.5507 38.4904 27.9801 39.1892 27.555C39.888 27.1241 40.7207 26.9086 41.6874 26.9086C42.9044 26.9086 43.8973 27.29 44.6659 28.0529C45.4404 28.8157 45.8277 29.9658 45.8277 31.5031V40.5H43.216V31.7477C43.216 30.8393 42.9685 30.1812 42.4735 29.7736C41.9785 29.366 41.3875 29.1622 40.7003 29.1622C39.8501 29.1622 39.1892 29.4242 38.7175 29.9483C38.2458 30.4666 38.01 31.1333 38.01 31.9486V40.5H35.407V31.5817C35.407 30.8538 35.1799 30.2686 34.7257 29.826C34.2715 29.3835 33.6804 29.1622 32.9525 29.1622C32.4576 29.1622 32.0004 29.2932 31.5812 29.5552C31.1677 29.8115 30.8329 30.1696 30.5767 30.6296C30.3263 31.0897 30.2011 31.6225 30.2011 32.2281V40.5H27.5893ZM54.5967 40.762C53.5135 40.762 52.5469 40.4854 51.6967 39.9322C50.8523 39.3732 50.1885 38.5783 49.7052 37.5476C49.2277 36.5111 48.9889 35.2678 48.9889 33.8178C48.9889 32.3679 49.2306 31.1275 49.7139 30.0968C50.203 29.0661 50.8727 28.2771 51.7229 27.7297C52.5731 27.1823 53.5368 26.9086 54.6141 26.9086C55.4469 26.9086 56.1165 27.0484 56.6231 27.3279C57.1356 27.6016 57.5316 27.9218 57.8111 28.2887C58.0964 28.6556 58.3177 28.9788 58.4749 29.2583H58.6322V22.6111H61.2439V40.5H58.6933V38.4124H58.4749C58.3177 38.6977 58.0906 39.0238 57.7936 39.3907C57.5025 39.7575 57.1007 40.0778 56.5882 40.3515C56.0758 40.6252 55.4119 40.762 54.5967 40.762ZM55.1732 38.5347C55.9244 38.5347 56.5591 38.3367 57.0774 37.9407C57.6014 37.5389 57.9974 36.9828 58.2653 36.2723C58.539 35.5619 58.6758 34.735 58.6758 33.7916C58.6758 32.8599 58.5419 32.0447 58.274 31.3459C58.0062 30.6471 57.6131 30.1026 57.0948 29.7125C56.5766 29.3223 55.936 29.1272 55.1732 29.1272C54.387 29.1272 53.7319 29.3311 53.2078 29.7387C52.6837 30.1463 52.2878 30.7024 52.0199 31.407C51.7578 32.1116 51.6268 32.9065 51.6268 33.7916C51.6268 34.6884 51.7608 35.4949 52.0286 36.2112C52.2965 36.9275 52.6925 37.4952 53.2166 37.9145C53.7465 38.3279 54.3987 38.5347 55.1732 38.5347Z" fill="#1D1F24"/>
<rect x="0.5" y="0.5" width="70.3333" height="46" rx="5.83333" fill="white"/>
<rect x="0.5" y="0.5" width="70.3333" height="46" rx="5.83333" stroke="#EFF2F7"/>
<path d="M26.345 21.1847H24.1291C24.0439 20.7112 23.8852 20.2945 23.6532 19.9347C23.4212 19.5748 23.1371 19.2694 22.801 19.0185C22.4648 18.7675 22.0884 18.5781 21.6717 18.4503C21.2598 18.3224 20.8218 18.2585 20.3578 18.2585C19.5197 18.2585 18.7692 18.4692 18.1064 18.8906C17.4482 19.312 16.9274 19.9299 16.5439 20.7443C16.1651 21.5587 15.9757 22.553 15.9757 23.7273C15.9757 24.911 16.1651 25.91 16.5439 26.7244C16.9274 27.5388 17.4506 28.1544 18.1135 28.571C18.7763 28.9877 19.5221 29.196 20.3507 29.196C20.81 29.196 21.2456 29.1345 21.6575 29.0114C22.0742 28.8835 22.4506 28.6965 22.7868 28.4503C23.1229 28.2041 23.407 27.9034 23.639 27.5483C23.8758 27.1884 24.0391 26.7765 24.1291 26.3125L26.345 26.3196C26.2266 27.0346 25.997 27.6927 25.6561 28.294C25.3199 28.8906 24.8867 29.4067 24.3564 29.8423C23.8308 30.2732 23.2295 30.607 22.5524 30.8438C21.8753 31.0805 21.1367 31.1989 20.3365 31.1989C19.077 31.1989 17.9548 30.9006 16.97 30.304C15.9851 29.7027 15.2086 28.8433 14.6404 27.7259C14.077 26.6084 13.7953 25.2756 13.7953 23.7273C13.7953 22.1742 14.0794 20.8414 14.6475 19.7287C15.2157 18.6113 15.9922 17.7543 16.9771 17.1577C17.9619 16.5563 19.0817 16.2557 20.3365 16.2557C21.1083 16.2557 21.8279 16.367 22.4956 16.5895C23.1679 16.8073 23.7716 17.1293 24.3066 17.5554C24.8417 17.9768 25.2844 18.4929 25.6348 19.1037C25.9851 19.7098 26.2219 20.4034 26.345 21.1847ZM29.0006 31V20.0909H31.039V21.8665H31.1739C31.4012 21.2652 31.7729 20.7964 32.289 20.4602C32.8051 20.1193 33.423 19.9489 34.1426 19.9489C34.8718 19.9489 35.4826 20.1193 35.975 20.4602C36.4722 20.8011 36.8391 21.2699 37.0759 21.8665H37.1895C37.4499 21.2841 37.8642 20.8201 38.4324 20.4744C39.0006 20.1241 39.6777 19.9489 40.4637 19.9489C41.4533 19.9489 42.2605 20.259 42.8855 20.8793C43.5153 21.4995 43.8301 22.4347 43.8301 23.6847V31H41.7066V23.8835C41.7066 23.1449 41.5053 22.6098 41.1029 22.2784C40.7004 21.947 40.2198 21.7812 39.6611 21.7812C38.9698 21.7812 38.4324 21.9943 38.0489 22.4205C37.6654 22.8419 37.4736 23.384 37.4736 24.0469V31H35.3571V23.7486C35.3571 23.1567 35.1725 22.6809 34.8032 22.321C34.4338 21.9612 33.9533 21.7812 33.3614 21.7812C32.9589 21.7812 32.5873 21.8878 32.2463 22.1009C31.9102 22.3092 31.6379 22.6004 31.4296 22.9744C31.226 23.3485 31.1242 23.7817 31.1242 24.2741V31H29.0006ZM50.9602 31.2131C50.0795 31.2131 49.2935 30.9882 48.6022 30.5384C47.9157 30.0838 47.3759 29.4375 46.9829 28.5994C46.5947 27.7566 46.4005 26.7457 46.4005 25.5668C46.4005 24.3878 46.597 23.3793 46.99 22.5412C47.3878 21.7031 47.9323 21.0616 48.6235 20.6165C49.3148 20.1714 50.0985 19.9489 50.9744 19.9489C51.6515 19.9489 52.196 20.0625 52.6079 20.2898C53.0246 20.5123 53.3466 20.7727 53.5738 21.071C53.8058 21.3693 53.9858 21.6321 54.1136 21.8594H54.2414V16.4545H56.365V31H54.2912V29.3026H54.1136C53.9858 29.5346 53.8011 29.7997 53.5596 30.098C53.3229 30.3963 52.9962 30.6567 52.5795 30.8793C52.1628 31.1018 51.6231 31.2131 50.9602 31.2131ZM51.4289 29.402C52.0397 29.402 52.5558 29.241 52.9772 28.919C53.4034 28.5923 53.7253 28.1402 53.9431 27.5625C54.1657 26.9848 54.277 26.3125 54.277 25.5455C54.277 24.7879 54.1681 24.125 53.9503 23.5568C53.7324 22.9886 53.4128 22.5459 52.9914 22.2287C52.57 21.9115 52.0492 21.7528 51.4289 21.7528C50.7897 21.7528 50.2571 21.9186 49.8309 22.25C49.4048 22.5814 49.0828 23.0336 48.865 23.6065C48.652 24.1795 48.5454 24.8258 48.5454 25.5455C48.5454 26.2746 48.6543 26.9304 48.8721 27.5128C49.0899 28.0952 49.4119 28.5568 49.838 28.8977C50.2689 29.2339 50.7992 29.402 51.4289 29.402Z" fill="#1D1F24"/>
<rect x="75.834" y="11.5" width="51" height="41" rx="5.52383" fill="#F8F9FB"/>
<rect x="75.834" y="11.5" width="51" height="41" rx="5.52383" stroke="#EFF2F7"/>
<path d="M94.7993 40.5V22.6111H97.4984V31.1537H97.7168L105.22 22.6111H108.618L101.403 30.6646L108.644 40.5H105.395L99.6122 32.5076L97.4984 34.9359V40.5H94.7993Z" fill="#1D1F24"/>
<rect x="75.834" y="0.5" width="51" height="46" rx="5.52383" fill="white"/>
<rect x="75.834" y="0.5" width="51" height="46" rx="5.52383" stroke="#EFF2F7"/>
<path d="M95.932 31V16.4545H98.1266V23.4006H98.3042L104.405 16.4545H107.168L101.301 23.0028L107.189 31H104.547L99.8453 24.5014L98.1266 26.4759V31H95.932Z" fill="#1D1F24"/>
</svg>
