<svg width="3273" height="922" viewBox="0 0 3273 922" fill="none" xmlns="http://www.w3.org/2000/svg">
<g clip-path="url(#clip0_508:9)">
<path d="M3020.7 103.232C2670.06 344.222 2584.2 880.041 2346.13 850.807C2169.51 829.119 2010.56 322.588 1574.67 369.421C1159.17 414.064 941.744 828.494 895 921.88H4116.61C3867.21 256.991 3371.34 -137.757 3020.7 103.232Z" fill="#000430"/>
<path d="M3060.81 244.964C2742.59 389.126 2634.25 973.358 2333.89 897.339C2100.23 838.203 1967.5 447.634 1622.56 481.544C1319.11 511.376 1134.51 773.071 1053.14 921.88H3923.27C3809.33 670.158 3480.6 54.7903 3060.81 244.964Z" fill="#000860"/>
<path d="M1913.77 685.39C1738.28 540.789 1554.72 574.041 1397.76 720.928C1324.7 789.298 1276.2 863.816 1245.77 921.881H2264.58C2147.95 887.699 2032.55 783.26 1913.77 685.39Z" fill="#000B8F"/>
<path d="M3510.63 533.976C3390.72 426.35 3262.14 340.275 3077.58 440.917C2843.13 568.759 2709.34 861.528 2490.2 921.881H3777.82C3728.88 815.475 3638.49 648.736 3510.63 533.976Z" fill="#000B8F"/>
<path d="M3148.71 603.7C2915.89 633.06 2832.28 835.213 2597.79 921.88H3554.92C3511.72 828.08 3373.48 575.356 3148.71 603.7Z" fill="#000FBF"/>
<path d="M1901.6 794.026C1755.18 698.413 1646.5 704.288 1542.75 798.413C1489.82 846.427 1462.76 892.158 1449.4 921.881H2119.21C2038.17 888.758 1970.54 839.046 1901.6 794.026Z" fill="#000FBF"/>
<path d="M1864.33 862.758C1803.12 833.352 1722.98 817.851 1651.47 874.886C1632.42 890.076 1617.04 906.139 1604.62 921.881H1992.53C1936.2 900.755 1895.66 877.806 1864.33 862.758Z" fill="#333FCC"/>
<path d="M3050.71 798.637C2935.74 819.101 2818.81 921.88 2668.2 921.88H3327.22C3276.51 851.398 3187.89 774.22 3050.71 798.637Z" fill="#333FCC"/>
<path d="M2757.35 145.222C2757.54 155.071 2753.78 164.962 2746.08 172.277C2731.52 186.087 2708.53 185.486 2694.72 170.932C2680.9 156.378 2681.51 133.384 2696.06 119.573C2703.77 112.258 2713.84 109.027 2723.67 109.73C2707.15 104.714 2688.48 108.441 2675.06 121.177C2655.18 140.042 2654.35 171.451 2673.22 191.331C2692.08 211.211 2723.49 212.033 2743.37 193.168C2756.79 180.432 2761.49 161.985 2757.35 145.222Z" fill="#4262F5"/>
<path d="M2757.38 146.673C2757.19 156.036 2753.41 165.32 2746.08 172.277C2731.52 186.088 2708.53 185.486 2694.72 170.932C2680.9 156.378 2681.51 133.384 2696.06 119.573C2703.39 112.617 2712.86 109.325 2722.22 109.624C2709.02 107.192 2694.88 110.845 2684.4 120.793C2666.99 137.319 2666.27 164.833 2682.79 182.249C2699.32 199.663 2726.83 200.383 2744.25 183.858C2754.73 173.909 2759.12 159.984 2757.38 146.673Z" fill="#000FBF"/>
<path d="M2415.99 828.85C2364.61 828.85 2322.96 870.501 2322.96 921.881L2509.28 921.881V828.85H2415.99Z" fill="white"/>
<path d="M2462.51 828.85C2411.13 828.85 2369.47 870.501 2369.47 921.881L2509.28 921.881V828.85L2462.51 828.85Z" fill="#000FBF"/>
<path d="M2462.51 838.203C2416.29 838.203 2378.83 875.667 2378.83 921.881L2509.28 921.881V838.203H2462.51Z" fill="#4262F5"/>
<path d="M2509.28 838.204H2552.82V692.91C2539.26 704.983 2524.67 715.391 2509.28 724.184V838.204Z" fill="#000FBF"/>
<path d="M2139.01 672.508C2271.57 784.064 2455.45 790.918 2563.76 682.617C2671.91 574.459 2664.78 390.395 2553.65 257.869" fill="#4262F5"/>
<path d="M2139.01 672.508C2244.03 756.524 2406.4 741.861 2514.7 633.56C2622.86 525.402 2637.29 362.908 2553.65 257.869" fill="#000FBF"/>
<path d="M2451.69 570.539C2566.19 456.039 2611.84 316.05 2553.65 257.864C2495.47 199.678 2355.48 245.33 2240.98 359.83C2126.48 474.33 2080.83 614.319 2139.01 672.505C2197.2 730.69 2337.19 685.038 2451.69 570.539Z" fill="#E337E2"/>
<path d="M2543.39 448.78C2553.43 410.878 2549.47 377.588 2529 357.116C2485.84 313.963 2385.78 344.066 2305.49 424.352C2225.2 504.638 2195.1 604.705 2238.25 647.857C2258.73 668.329 2292.02 672.287 2329.92 662.248C2370.63 640.603 2412.64 609.584 2451.68 570.541C2490.72 531.499 2521.74 489.496 2543.39 448.78Z" fill="#711671"/>
<path d="M2178.13 662.478C2125.24 609.583 2164.18 484.572 2264.95 383.805C2314.28 334.48 2370.87 298.454 2424.28 282.389C2476.2 266.766 2518.58 271.963 2543.61 296.993C2568.65 322.027 2573.84 364.41 2558.22 416.328C2557.77 417.832 2557.24 419.346 2556.76 420.854C2569.85 390.557 2577.31 361.609 2578.6 335.795C2574.74 316.417 2566.37 299.908 2553.53 287.074C2524.68 258.213 2477.33 251.774 2420.24 268.954C2364.64 285.677 2305.97 322.945 2255.03 373.886C2148.79 480.119 2109.85 614.031 2168.21 672.397C2181.47 685.654 2198.66 693.814 2218.5 697.382C2243.31 695.91 2270.95 688.846 2299.86 676.573C2249.26 692.415 2204.64 688.979 2178.13 662.478Z" fill="#EE9FF1"/>
<path d="M2241.56 644.549C2221.96 624.954 2217.88 591.864 2230.06 551.376C2242.54 509.889 2270.5 465.949 2308.8 427.657C2363.33 373.123 2427.04 341.942 2474.65 341.942C2495.43 341.942 2513.15 347.888 2525.69 360.423C2545.29 380.018 2549.37 413.108 2537.19 453.596C2535.66 458.69 2533.89 463.821 2531.9 468.974C2539.36 456.584 2545.97 444.253 2551.72 432.087C2556.86 399.025 2550.24 371.743 2532.3 353.811C2487.4 308.907 2384.17 339.065 2302.18 421.045C2262.82 460.409 2234.02 505.742 2221.1 548.682C2207.89 592.622 2212.8 629.018 2234.95 651.162C2249.07 665.282 2268.95 671.981 2292.13 671.981C2299.26 671.981 2306.74 671.277 2314.42 670.029C2326.05 664.483 2337.83 658.14 2349.65 651.037C2304.88 668.33 2264.54 667.521 2241.56 644.549Z" fill="#EE9FF1"/>
<path d="M2372.98 634.051C2344.18 642.545 2320.52 639.421 2306.36 625.26C2276.73 595.632 2297.5 526.662 2352.65 471.511C2379.53 444.623 2410.47 425.059 2439.77 416.424C2468.58 407.948 2492.24 411.063 2506.4 425.219C2522.02 440.846 2523.62 467.419 2513.56 497.133C2516.3 493.226 2518.96 489.319 2521.54 485.41C2527.54 459.296 2524.13 436.34 2509.71 421.913C2494.28 406.487 2468.98 402.948 2438.45 411.94C2408.42 420.794 2376.77 440.773 2349.34 468.205C2292.37 525.178 2271.6 597.121 2303.05 628.567C2312.89 638.408 2326.75 643.408 2343.41 643.408C2350.51 643.408 2358.11 642.502 2366.13 640.675C2370.32 637.916 2374.51 635.059 2378.7 632.115C2376.79 632.764 2374.88 633.493 2372.98 634.051Z" fill="#E337E2"/>
<path d="M2379.81 631.328C2404.22 614.07 2428.47 593.747 2451.68 570.541C2474.89 547.335 2495.21 523.078 2512.47 498.671L2296.99 415.852L2379.81 631.328Z" fill="white"/>
<path d="M2379.81 631.328C2404.22 614.07 2428.47 593.747 2451.68 570.541L2296.99 415.852L2379.81 631.328Z" fill="#8EA1F9"/>
<path d="M2360.26 440.17L2296.99 415.852L2346.29 465.15C2353.05 458.391 2357.97 449.797 2360.26 440.17Z" fill="#4262F5"/>
<path d="M2346.29 465.15L2296.99 415.852L2321.31 479.123C2330.94 476.835 2339.53 471.91 2346.29 465.15Z" fill="#000FBF"/>
<path d="M2274.37 388.525C2274.48 388.426 2274.61 388.343 2274.73 388.246C2274.61 388.342 2274.48 388.428 2274.37 388.525Z" fill="#EE9FF1"/>
<path d="M2271.91 390.771C2272.41 390.274 2272.93 389.824 2273.45 389.361C2272.41 390.284 2271.43 391.266 2270.5 392.303C2270.96 391.788 2271.41 391.267 2271.91 390.771Z" fill="#EE9FF1"/>
<path d="M2269.39 393.587C2269.48 393.469 2269.57 393.346 2269.66 393.229C2269.57 393.345 2269.48 393.47 2269.39 393.587Z" fill="#EE9FF1"/>
<path d="M2465.74 743.993L2509.28 828.85V724.184C2495.38 732.127 2480.8 738.698 2465.74 743.993Z" fill="#4262F5"/>
<path d="M2465.74 838.203L2509.28 828.85L2465.74 743.992V838.203Z" fill="white"/>
<path d="M2506.31 828.85C2454.93 828.85 2413.28 870.501 2413.28 921.881L2552.82 921.881V828.85H2506.31Z" fill="white"/>
<path d="M2552.82 828.85C2501.44 828.85 2459.79 870.501 2459.79 921.881H2645.85C2645.85 870.501 2604.2 828.85 2552.82 828.85Z" fill="#000FBF"/>
<path d="M2552.82 860.918C2519.15 860.918 2491.86 888.212 2491.86 921.88H2613.78C2613.78 888.212 2586.49 860.918 2552.82 860.918Z" fill="#4262F5"/>
<path d="M2296.99 451.332C2316.59 451.332 2332.47 435.447 2332.47 415.852C2332.47 396.256 2316.59 380.371 2296.99 380.371C2277.4 380.371 2261.51 396.256 2261.51 415.852C2261.51 435.447 2277.4 451.332 2296.99 451.332Z" fill="#4262F5"/>
<path d="M2302.36 420.867C2313.48 409.754 2315.71 393.968 2307.35 385.609C2298.99 377.249 2283.2 379.48 2272.09 390.593C2260.98 401.706 2258.75 417.492 2267.11 425.852C2275.47 434.211 2291.25 431.98 2302.36 420.867Z" fill="#8EA1F9"/>
<path d="M2296.99 451.333C2316.59 451.333 2332.47 435.447 2332.47 415.852C2332.47 400.74 2322.98 387.923 2309.67 382.809C2312.25 383.996 2314.62 385.621 2316.69 387.694C2327.8 398.796 2326.08 418.51 2312.86 431.726C2299.65 444.942 2279.94 446.656 2268.83 435.553C2266.76 433.48 2265.14 431.106 2263.95 428.531C2269.06 441.843 2281.88 451.333 2296.99 451.333Z" fill="#000FBF"/>
<path d="M2289.28 408.136C2296.66 400.762 2298.75 390.897 2293.95 386.101C2289.16 381.305 2279.29 383.395 2271.92 390.768C2264.54 398.142 2262.45 408.007 2267.25 412.803C2272.05 417.599 2281.91 415.509 2289.28 408.136Z" fill="white"/>
<path d="M2552.82 892.988C2536.86 892.988 2523.93 905.924 2523.93 921.881H2581.71C2581.71 905.924 2568.78 892.988 2552.82 892.988Z" fill="black"/>
<path d="M2280.59 395.848L1965.02 399.455L2280.59 403.062L2596.17 399.455L2280.59 395.848Z" fill="url(#paint0_radial_508:9)"/>
<path d="M2276.99 399.455L2280.59 715.033L2284.2 399.455L2280.59 83.877L2276.99 399.455Z" fill="url(#paint1_radial_508:9)"/>
<path d="M2281.88 398.165L2167.7 286.557L2279.3 400.746L2393.49 512.354L2281.88 398.165Z" fill="url(#paint2_linear_508:9)"/>
<path d="M2279.3 398.165L2167.7 512.354L2281.88 400.746L2393.49 286.557L2279.3 398.165Z" fill="url(#paint3_radial_508:9)"/>
<path d="M1520.76 130.647C1525.15 130.647 1528.71 127.09 1528.71 122.702C1528.71 118.315 1525.15 114.758 1520.76 114.758C1516.38 114.758 1512.82 118.315 1512.82 122.702C1512.82 127.09 1516.38 130.647 1520.76 130.647Z" fill="#61C8EF"/>
<path d="M2063.51 310.651C2067.89 310.651 2071.45 307.094 2071.45 302.706C2071.45 298.319 2067.89 294.762 2063.51 294.762C2059.12 294.762 2055.56 298.319 2055.56 302.706C2055.56 307.094 2059.12 310.651 2063.51 310.651Z" fill="#61C8EF"/>
<path d="M2548.68 162.133C2551.56 162.133 2553.9 159.793 2553.9 156.905C2553.9 154.018 2551.56 151.678 2548.68 151.678C2545.79 151.678 2543.45 154.018 2543.45 156.905C2543.45 159.793 2545.79 162.133 2548.68 162.133Z" fill="#4262F5"/>
<path d="M2316.3 58.9669C2317.78 58.9669 2318.97 57.7719 2318.97 56.2979C2318.97 54.8238 2317.78 53.6289 2316.3 53.6289C2314.83 53.6289 2313.63 54.8238 2313.63 56.2979C2313.63 57.7719 2314.83 58.9669 2316.3 58.9669Z" fill="#4262F5"/>
<path d="M1253.13 97.5411C1254.6 97.5411 1255.8 96.3461 1255.8 94.8721C1255.8 93.3981 1254.6 92.2031 1253.13 92.2031C1251.66 92.2031 1250.46 93.3981 1250.46 94.8721C1250.46 96.3461 1251.66 97.5411 1253.13 97.5411Z" fill="#4262F5"/>
<path d="M2240.38 140.137C2241.85 140.137 2243.05 138.942 2243.05 137.468C2243.05 135.994 2241.85 134.799 2240.38 134.799C2238.9 134.799 2237.71 135.994 2237.71 137.468C2237.71 138.942 2238.9 140.137 2240.38 140.137Z" fill="#4262F5"/>
<path d="M2835.67 56.2969C2837.14 56.2969 2838.34 55.102 2838.34 53.628C2838.34 52.1539 2837.14 50.959 2835.67 50.959C2834.19 50.959 2833 52.1539 2833 53.628C2833 55.102 2834.19 56.2969 2835.67 56.2969Z" fill="#4262F5"/>
<path d="M1884.61 113.098C1886.08 113.098 1887.28 111.903 1887.28 110.429C1887.28 108.955 1886.08 107.76 1884.61 107.76C1883.13 107.76 1881.94 108.955 1881.94 110.429C1881.94 111.903 1883.13 113.098 1884.61 113.098Z" fill="#4262F5"/>
<path d="M1403.75 40.0079C1405.23 40.0079 1406.42 38.8129 1406.42 37.3389C1406.42 35.8649 1405.23 34.6699 1403.75 34.6699C1402.28 34.6699 1401.08 35.8649 1401.08 37.3389C1401.08 38.8129 1402.28 40.0079 1403.75 40.0079Z" fill="#4262F5"/>
<path d="M1911.87 297.367C1913.34 297.367 1914.54 296.172 1914.54 294.698C1914.54 293.224 1913.34 292.029 1911.87 292.029C1910.39 292.029 1909.2 293.224 1909.2 294.698C1909.2 296.172 1910.39 297.367 1911.87 297.367Z" fill="#4262F5"/>
<path d="M1023.66 89.8536C1025.13 89.8536 1026.33 88.6586 1026.33 87.1846C1026.33 85.7106 1025.13 84.5156 1023.66 84.5156C1022.19 84.5156 1020.99 85.7106 1020.99 87.1846C1020.99 88.6586 1022.19 89.8536 1023.66 89.8536Z" fill="#4262F5"/>
<path d="M2596.17 66.9727C2597.65 66.9727 2598.84 65.7778 2598.84 64.3037C2598.84 62.8297 2597.65 61.6348 2596.17 61.6348C2594.7 61.6348 2593.5 62.8297 2593.5 64.3037C2593.5 65.7778 2594.7 66.9727 2596.17 66.9727Z" fill="#E237E1"/>
<path d="M2353.61 189.467C2355.08 189.467 2356.27 188.272 2356.27 186.798C2356.27 185.324 2355.08 184.129 2353.61 184.129C2352.13 184.129 2350.94 185.324 2350.94 186.798C2350.94 188.272 2352.13 189.467 2353.61 189.467Z" fill="#E237E1"/>
<path d="M2867.6 128.041C2869.08 128.041 2870.27 126.846 2870.27 125.372C2870.27 123.898 2869.08 122.703 2867.6 122.703C2866.13 122.703 2864.93 123.898 2864.93 125.372C2864.93 126.846 2866.13 128.041 2867.6 128.041Z" fill="#4262F5"/>
<path d="M1845.36 152.633C1848.24 152.633 1850.59 150.293 1850.59 147.405C1850.59 144.518 1848.24 142.178 1845.36 142.178C1842.47 142.178 1840.13 144.518 1840.13 147.405C1840.13 150.293 1842.47 152.633 1845.36 152.633Z" fill="#4262F5"/>
<path d="M1609.85 209.399C1612.73 209.399 1615.07 207.058 1615.07 204.171C1615.07 201.284 1612.73 198.943 1609.85 198.943C1606.96 198.943 1604.62 201.284 1604.62 204.171C1604.62 207.058 1606.96 209.399 1609.85 209.399Z" fill="#4262F5"/>
<path d="M2466.52 104.835C2467.82 104.835 2468.87 103.783 2468.87 102.486C2468.87 101.188 2467.82 100.137 2466.52 100.137C2465.22 100.137 2464.17 101.188 2464.17 102.486C2464.17 103.783 2465.22 104.835 2466.52 104.835Z" fill="#61C8EF"/>
<path d="M2031.58 208.868C2032.88 208.868 2033.93 207.816 2033.93 206.519C2033.93 205.222 2032.88 204.17 2031.58 204.17C2030.29 204.17 2029.23 205.222 2029.23 206.519C2029.23 207.816 2030.29 208.868 2031.58 208.868Z" fill="#61C8EF"/>
<path d="M1979.71 384.343C1981.9 384.343 1983.68 382.565 1983.68 380.371C1983.68 378.177 1981.9 376.398 1979.71 376.398C1977.51 376.398 1975.73 378.177 1975.73 380.371C1975.73 382.565 1977.51 384.343 1979.71 384.343Z" fill="#E237E1"/>
<path d="M2923.46 87.849C2925.65 87.849 2927.43 86.0705 2927.43 83.8766C2927.43 81.6828 2925.65 79.9043 2923.46 79.9043C2921.26 79.9043 2919.49 81.6828 2919.49 83.8766C2919.49 86.0705 2921.26 87.849 2923.46 87.849Z" fill="#E237E1"/>
<path d="M1085.84 182.468C1088.03 182.468 1089.81 180.69 1089.81 178.496C1089.81 176.302 1088.03 174.523 1085.84 174.523C1083.64 174.523 1081.86 176.302 1081.86 178.496C1081.86 180.69 1083.64 182.468 1085.84 182.468Z" fill="#E237E1"/>
<path d="M2110.84 128.987C2115.22 128.987 2118.78 125.43 2118.78 121.042C2118.78 116.655 2115.22 113.098 2110.84 113.098C2106.45 113.098 2102.89 116.655 2102.89 121.042C2102.89 125.43 2106.45 128.987 2110.84 128.987Z" fill="#E237E1"/>
<path d="M2693.51 318.596C2697.89 318.596 2701.45 315.039 2701.45 310.652C2701.45 306.264 2697.89 302.707 2693.51 302.707C2689.12 302.707 2685.56 306.264 2685.56 310.652C2685.56 315.039 2689.12 318.596 2693.51 318.596Z" fill="#E237E1"/>
<path d="M1689.67 100.646C1692.23 101.204 1694.22 103.202 1694.78 105.759L1697.89 119.978L1700.99 105.759C1701.55 103.202 1703.55 101.204 1706.1 100.646L1720.32 97.541L1706.1 94.4357C1703.55 93.8774 1701.55 91.8802 1700.99 89.3232L1697.89 75.1035L1694.78 89.3232C1694.22 91.8802 1692.23 93.8774 1689.67 94.4357L1675.45 97.541L1689.67 100.646Z" fill="#4262F5"/>
<path d="M1775.57 260.087C1777.39 260.486 1778.82 261.913 1779.22 263.74L1781.44 273.901L1783.66 263.74C1784.06 261.913 1785.48 260.486 1787.31 260.087L1797.47 257.868L1787.31 255.649C1785.48 255.25 1784.06 253.823 1783.66 251.995L1781.44 241.834L1779.22 251.995C1778.82 253.823 1777.39 255.25 1775.57 255.649L1765.41 257.868L1775.57 260.087Z" fill="#4262F5"/>
<path d="M941.893 160.312C944.465 160.873 946.474 162.882 947.036 165.454L950.159 179.756L953.282 165.454C953.844 162.882 955.852 160.873 958.424 160.312L972.726 157.189L958.424 154.065C955.852 153.504 953.844 151.495 953.282 148.923L950.159 134.621L947.036 148.923C946.474 151.495 944.465 153.504 941.894 154.065L927.591 157.189L941.893 160.312Z" fill="#4262F5"/>
<path d="M1926.31 200.679C1927.74 200.991 1928.86 202.109 1929.17 203.539L1930.91 211.495L1932.64 203.539C1932.96 202.109 1934.07 200.991 1935.5 200.679L1943.46 198.942L1935.5 197.204C1934.07 196.892 1932.96 195.775 1932.64 194.344L1930.91 186.389L1929.17 194.344C1928.86 195.775 1927.74 196.892 1926.31 197.204L1918.35 198.942L1926.31 200.679Z" fill="#61C8EF"/>
</g>
<defs>
<radialGradient id="paint0_radial_508:9" cx="0" cy="0" r="1" gradientUnits="userSpaceOnUse" gradientTransform="translate(2280.59 399.455) scale(223.162 223.162)">
<stop stop-color="white"/>
<stop offset="0.94424" stop-color="white" stop-opacity="0"/>
</radialGradient>
<radialGradient id="paint1_radial_508:9" cx="0" cy="0" r="1" gradientUnits="userSpaceOnUse" gradientTransform="translate(2280.59 399.455) scale(223.162 223.162)">
<stop stop-color="white"/>
<stop offset="0.94424" stop-color="white" stop-opacity="0"/>
</radialGradient>
<linearGradient id="paint2_linear_508:9" x1="2167.7" y1="399.456" x2="2393.49" y2="399.456" gradientUnits="userSpaceOnUse">
<stop offset="0.1" stop-color="white" stop-opacity="0"/>
<stop offset="0.5" stop-color="white"/>
<stop offset="0.65" stop-color="white" stop-opacity="0"/>
</linearGradient>
<radialGradient id="paint3_radial_508:9" cx="0" cy="0" r="1" gradientUnits="userSpaceOnUse" gradientTransform="translate(2280.59 399.456) scale(112.899)">
<stop stop-color="white"/>
<stop offset="0.94424" stop-color="white" stop-opacity="0"/>
</radialGradient>
<clipPath id="clip0_508:9">
<rect width="3272.26" height="921.804" fill="white"/>
</clipPath>
</defs>
</svg>
