<svg width="873" height="871" viewBox="0 0 873 871" fill="none" xmlns="http://www.w3.org/2000/svg">
<g clip-path="url(#clip0_1172_452)">
<path d="M792.025 94.148C792.212 103.997 788.459 113.888 780.751 121.202C766.197 135.013 743.203 134.412 729.391 119.857C715.581 105.304 716.183 82.3093 730.737 68.4986C738.445 61.1841 748.518 57.9529 758.343 58.6558C741.821 53.6402 723.153 57.3669 709.733 70.1026C689.853 88.9681 689.03 120.377 707.896 140.257C726.761 160.136 758.169 160.959 778.049 142.094C791.47 129.358 796.169 110.911 792.025 94.148Z" fill="#4262F5"/>
<path d="M792.057 95.5963C791.864 104.959 788.081 114.244 780.752 121.201C766.198 135.011 743.203 134.41 729.392 119.856C715.581 105.302 716.183 82.3076 730.737 68.4969C738.068 61.5404 747.539 58.2493 756.9 58.5476C743.697 56.1158 729.56 59.7685 719.077 69.7173C701.662 86.2426 700.941 113.757 717.467 131.172C733.993 148.587 761.507 149.307 778.923 132.781C789.406 122.833 793.792 108.908 792.057 95.5963Z" fill="#000FBF"/>
<path d="M450.666 777.773C399.286 777.773 357.635 819.425 357.635 870.805L543.955 870.804V777.773H450.666Z" fill="white"/>
<path d="M497.182 777.773C445.802 777.773 404.15 819.425 404.15 870.805L543.956 870.805V777.773L497.182 777.773Z" fill="#000FBF"/>
<path d="M497.182 787.129C450.968 787.129 413.504 824.593 413.504 870.806L543.956 870.806V787.129H497.182Z" fill="#4262F5"/>
<path d="M543.956 787.126H587.497V641.832C573.939 653.905 559.348 664.313 543.956 673.106V787.126Z" fill="#000FBF"/>
<path d="M173.683 621.432C306.248 732.988 490.13 739.842 598.43 631.541C706.588 523.383 699.453 339.319 588.321 206.793" fill="#4262F5"/>
<path d="M173.683 621.432C278.708 705.448 441.073 690.785 549.373 582.484C657.531 474.326 671.965 311.832 588.321 206.793" fill="#000FBF"/>
<path d="M486.363 519.462C600.863 404.963 646.514 264.973 588.329 206.788C530.143 148.602 390.154 194.254 275.654 308.754C161.154 423.254 115.503 563.243 173.688 621.428C231.874 679.614 371.863 633.962 486.363 519.462Z" fill="#E337E2"/>
<path d="M578.061 397.704C588.1 359.802 584.143 326.512 563.671 306.04C520.518 262.887 420.451 292.99 340.165 373.276C259.879 453.562 229.777 553.628 272.929 596.781C293.401 617.253 326.691 621.211 364.593 611.172C405.309 589.526 447.313 558.508 486.355 519.465C525.397 480.423 556.416 438.42 578.061 397.704Z" fill="#711671"/>
<path d="M212.806 611.404C159.913 558.509 198.858 433.497 299.62 332.73C348.951 283.406 405.543 247.38 458.957 231.315C510.875 215.692 553.255 220.889 578.289 245.919C603.326 270.953 608.511 313.336 592.893 365.254C592.441 366.757 591.916 368.272 591.432 369.78C604.528 339.483 611.984 310.535 613.276 284.721C609.416 265.342 601.044 248.834 588.208 236C559.352 207.139 512.005 200.7 454.915 217.88C399.317 234.603 340.644 271.871 289.701 322.812C183.468 429.045 144.524 562.957 202.888 621.323C216.145 634.58 233.339 642.74 253.18 646.307C277.989 644.835 305.621 637.772 334.537 625.498C283.935 641.34 239.314 637.905 212.806 611.404Z" fill="#EE9FF1"/>
<path d="M276.234 593.477C256.639 573.882 252.554 540.792 264.736 500.304C277.216 458.816 305.178 414.876 343.471 376.585C398.006 322.051 461.719 290.87 509.329 290.87C530.109 290.87 547.828 296.815 560.365 309.351C579.961 328.946 584.046 362.036 571.864 402.524C570.332 407.617 568.56 412.749 566.571 417.901C574.031 405.512 580.641 393.18 586.393 381.015C591.538 347.953 584.912 320.67 566.978 302.738C522.077 257.835 418.841 287.993 336.859 369.973C297.492 409.337 268.697 454.67 255.778 497.61C242.56 541.55 247.476 577.946 269.622 600.09C283.742 614.21 303.623 620.909 326.805 620.909C333.94 620.909 341.412 620.205 349.098 618.957C360.723 613.411 372.5 607.068 384.327 599.965C339.56 617.258 299.211 616.449 276.234 593.477Z" fill="#EE9FF1"/>
<path d="M407.657 582.977C378.858 591.471 355.193 588.347 341.032 574.186C311.406 544.558 332.171 475.588 387.322 420.437C414.208 393.549 445.149 373.985 474.446 365.35C503.25 356.874 526.912 359.989 541.073 374.145C556.697 389.772 558.291 416.344 548.23 446.059C550.971 442.152 553.632 438.245 556.212 434.335C562.215 408.222 558.805 385.266 544.379 370.839C528.951 355.413 503.65 351.874 473.124 360.865C443.092 369.72 411.445 389.699 384.016 417.131C327.049 474.104 306.278 546.047 337.726 577.492C347.565 587.333 361.42 592.334 378.088 592.334C385.183 592.334 392.788 591.428 400.808 589.601C404.998 586.842 409.186 583.984 413.373 581.041C411.467 581.69 409.551 582.419 407.657 582.977Z" fill="#E337E2"/>
<path d="M414.487 580.254C438.894 562.995 463.15 542.673 486.356 519.467C509.562 496.26 529.885 472.004 547.144 447.597L331.667 364.777L414.487 580.254Z" fill="white"/>
<path d="M414.487 580.254C438.894 562.995 463.15 542.673 486.356 519.467L331.667 364.777L414.487 580.254Z" fill="#8EA1F9"/>
<path d="M394.938 389.096L331.667 364.777L380.965 414.076C387.725 407.317 392.65 398.723 394.938 389.096Z" fill="#4262F5"/>
<path d="M380.965 414.076L331.667 364.777L355.986 428.049C365.612 425.76 374.206 420.836 380.965 414.076Z" fill="#000FBF"/>
<path d="M309.042 337.447C309.16 337.348 309.284 337.265 309.402 337.168C309.284 337.264 309.159 337.35 309.042 337.447Z" fill="#EE9FF1"/>
<path d="M306.586 339.695C307.083 339.198 307.605 338.748 308.121 338.285C307.083 339.208 306.102 340.189 305.179 341.227C305.64 340.712 306.09 340.191 306.586 339.695Z" fill="#EE9FF1"/>
<path d="M304.062 342.511C304.158 342.393 304.24 342.269 304.339 342.152C304.242 342.269 304.156 342.394 304.062 342.511Z" fill="#EE9FF1"/>
<path d="M500.415 692.915L543.956 777.772V673.105C530.051 681.049 515.476 687.62 500.415 692.915Z" fill="#4262F5"/>
<path d="M500.415 787.125L543.956 777.772L500.415 692.914V787.125Z" fill="white"/>
<path d="M540.982 777.773C489.603 777.773 447.951 819.425 447.951 870.805L587.497 870.804V777.773H540.982Z" fill="white"/>
<path d="M587.497 777.773C536.117 777.773 494.466 819.425 494.466 870.805H680.528C680.528 819.425 638.876 777.773 587.497 777.773Z" fill="#000FBF"/>
<path d="M587.497 809.844C553.829 809.844 526.535 837.137 526.535 870.806H648.459C648.459 837.137 621.165 809.844 587.497 809.844Z" fill="#4262F5"/>
<path d="M331.667 400.258C351.262 400.258 367.147 384.373 367.147 364.777C367.147 345.182 351.262 329.297 331.667 329.297C312.072 329.297 296.187 345.182 296.187 364.777C296.187 384.373 312.072 400.258 331.667 400.258Z" fill="#4262F5"/>
<path d="M337.04 369.793C348.153 358.68 350.384 342.894 342.024 334.534C333.665 326.174 317.879 328.406 306.766 339.519C295.653 350.632 293.422 366.418 301.781 374.777C310.141 383.137 325.927 380.905 337.04 369.793Z" fill="#8EA1F9"/>
<path d="M331.667 400.259C351.262 400.259 367.148 384.373 367.148 364.778C367.148 349.666 357.659 336.849 344.345 331.734C346.922 332.922 349.295 334.547 351.368 336.62C362.471 347.722 360.756 367.436 347.54 380.652C334.325 393.868 314.612 395.582 303.509 384.479C301.435 382.406 299.811 380.032 298.623 377.457C303.737 390.769 316.555 400.259 331.667 400.259Z" fill="#000FBF"/>
<path d="M323.959 357.06C331.333 349.686 333.422 339.821 328.626 335.025C323.831 330.229 313.965 332.319 306.592 339.692C299.219 347.066 297.129 356.931 301.925 361.727C306.721 366.523 316.586 364.433 323.959 357.06Z" fill="white"/>
<path d="M587.497 841.91C571.54 841.91 558.604 854.846 558.604 870.803H616.39C616.39 854.846 603.454 841.91 587.497 841.91Z" fill="black"/>
<path d="M315.27 344.773L-0.307617 348.381L315.27 351.988L630.848 348.381L315.27 344.773Z" fill="url(#paint0_radial_1172_452)"/>
<path d="M311.663 348.379L315.27 663.956L318.877 348.379L315.27 32.8008L311.663 348.379Z" fill="url(#paint1_radial_1172_452)"/>
<path d="M316.561 347.089L202.371 235.48L313.98 349.67L428.169 461.278L316.561 347.089Z" fill="url(#paint2_linear_1172_452)"/>
<path d="M313.98 347.089L202.371 461.278L316.561 349.67L428.169 235.48L313.98 347.089Z" fill="url(#paint3_radial_1172_452)"/>
<path d="M98.181 259.577C102.569 259.577 106.126 256.02 106.126 251.632C106.126 247.244 102.569 243.688 98.181 243.688C93.7933 243.688 90.2363 247.244 90.2363 251.632C90.2363 256.02 93.7933 259.577 98.181 259.577Z" fill="#61C8EF"/>
<path d="M583.351 111.057C586.238 111.057 588.578 108.716 588.578 105.829C588.578 102.942 586.238 100.602 583.351 100.602C580.464 100.602 578.123 102.942 578.123 105.829C578.123 108.716 580.464 111.057 583.351 111.057Z" fill="#4262F5"/>
<path d="M350.978 7.88874C352.452 7.88874 353.646 6.6938 353.646 5.21976C353.646 3.74572 352.452 2.55078 350.978 2.55078C349.504 2.55078 348.309 3.74572 348.309 5.21976C348.309 6.6938 349.504 7.88874 350.978 7.88874Z" fill="#4262F5"/>
<path d="M275.053 89.0606C276.527 89.0606 277.722 87.8657 277.722 86.3916C277.722 84.9176 276.527 83.7227 275.053 83.7227C273.579 83.7227 272.384 84.9176 272.384 86.3916C272.384 87.8657 273.579 89.0606 275.053 89.0606Z" fill="#4262F5"/>
<path d="M870.342 5.22077C871.816 5.22077 873.011 4.02583 873.011 2.55179C873.011 1.07776 871.816 -0.117188 870.342 -0.117188C868.868 -0.117188 867.673 1.07776 867.673 2.55179C867.673 4.02583 868.868 5.22077 870.342 5.22077Z" fill="#4262F5"/>
<path d="M630.848 15.8966C632.322 15.8966 633.517 14.7016 633.517 13.2276C633.517 11.7535 632.322 10.5586 630.848 10.5586C629.374 10.5586 628.179 11.7535 628.179 13.2276C628.179 14.7016 629.374 15.8966 630.848 15.8966Z" fill="#E237E1"/>
<path d="M388.28 138.393C389.754 138.393 390.949 137.198 390.949 135.724C390.949 134.25 389.754 133.055 388.28 133.055C386.806 133.055 385.611 134.25 385.611 135.724C385.611 137.198 386.806 138.393 388.28 138.393Z" fill="#E237E1"/>
<path d="M501.194 53.7566C502.491 53.7566 503.543 52.7049 503.543 51.4076C503.543 50.1103 502.491 49.0586 501.194 49.0586C499.896 49.0586 498.845 50.1103 498.845 51.4076C498.845 52.7049 499.896 53.7566 501.194 53.7566Z" fill="#61C8EF"/>
<path d="M66.2572 157.792C67.5545 157.792 68.6062 156.74 68.6062 155.443C68.6062 154.145 67.5545 153.094 66.2572 153.094C64.9599 153.094 63.9082 154.145 63.9082 155.443C63.9082 156.74 64.9599 157.792 66.2572 157.792Z" fill="#61C8EF"/>
<path d="M14.3805 333.269C16.5744 333.269 18.3528 331.49 18.3528 329.297C18.3528 327.103 16.5744 325.324 14.3805 325.324C12.1866 325.324 10.4082 327.103 10.4082 329.297C10.4082 331.49 12.1866 333.269 14.3805 333.269Z" fill="#E237E1"/>
<path d="M145.511 77.9128C149.899 77.9128 153.456 74.3558 153.456 69.9681C153.456 65.5804 149.899 62.0234 145.511 62.0234C141.123 62.0234 137.566 65.5804 137.566 69.9681C137.566 74.3558 141.123 77.9128 145.511 77.9128Z" fill="#E237E1"/>
<path d="M728.181 267.522C732.569 267.522 736.126 263.965 736.126 259.577C736.126 255.19 732.569 251.633 728.181 251.633C723.793 251.633 720.236 255.19 720.236 259.577C720.236 263.965 723.793 267.522 728.181 267.522Z" fill="#E237E1"/>
</g>
<defs>
<radialGradient id="paint0_radial_1172_452" cx="0" cy="0" r="1" gradientUnits="userSpaceOnUse" gradientTransform="translate(315.27 348.381) scale(223.162)">
<stop stop-color="white"/>
<stop offset="0.94424" stop-color="white" stop-opacity="0"/>
</radialGradient>
<radialGradient id="paint1_radial_1172_452" cx="0" cy="0" r="1" gradientUnits="userSpaceOnUse" gradientTransform="translate(315.27 348.379) scale(223.162)">
<stop stop-color="white"/>
<stop offset="0.94424" stop-color="white" stop-opacity="0"/>
</radialGradient>
<linearGradient id="paint2_linear_1172_452" x1="202.371" y1="348.379" x2="428.169" y2="348.379" gradientUnits="userSpaceOnUse">
<stop offset="0.1" stop-color="white" stop-opacity="0"/>
<stop offset="0.5" stop-color="white"/>
<stop offset="0.65" stop-color="white" stop-opacity="0"/>
</linearGradient>
<radialGradient id="paint3_radial_1172_452" cx="0" cy="0" r="1" gradientUnits="userSpaceOnUse" gradientTransform="translate(315.27 348.379) scale(112.899)">
<stop stop-color="white"/>
<stop offset="0.94424" stop-color="white" stop-opacity="0"/>
</radialGradient>
<clipPath id="clip0_1172_452">
<rect width="873" height="871" fill="white"/>
</clipPath>
</defs>
</svg>
