<svg width="134" height="30" viewBox="0 0 134 30" fill="none" xmlns="http://www.w3.org/2000/svg">
<g clip-path="url(#clip0)">
<path d="M86.3171 20.7635C83.5353 20.7635 82.1067 18.473 82.1067 15.6597C82.1067 12.8465 83.5102 10.6805 86.3171 10.6805C89.1742 10.6805 90.528 12.946 90.528 15.6597C90.5029 18.5228 89.0744 20.7635 86.3171 20.7635ZM59.0989 10.6805C60.7276 10.6805 61.4045 11.6266 61.4045 12.4481C61.4045 14.4398 59.3744 15.3112 55.1389 15.4357C55.1389 12.971 56.5424 10.6805 59.0989 10.6805ZM41.0533 20.7635C38.4217 20.7635 37.3189 18.6224 37.3189 15.6597C37.3189 12.722 38.4467 10.6805 41.0533 10.6805C43.71 10.6805 44.9632 12.7967 44.9632 15.6597C44.9632 18.6473 43.6599 20.7635 41.0533 20.7635ZM18.7973 7.76765H14.687L21.5041 23.4025C20.2009 26.2905 19.4991 27.0124 18.5968 27.0124C17.6444 27.0124 16.7421 26.2407 16.0905 25.5685L14.2859 27.9585C15.514 29.2531 17.1933 30 18.9226 30C21.0781 30 22.7322 28.7552 23.6846 26.5145L31.5544 7.74273H27.5193L23.4089 18.946L18.7973 7.76765ZM127.671 10.6805C129.676 10.6805 130.077 12.0498 130.077 15.2614V23.7013H133.636V13.0456C133.636 9.21164 131.005 7.54358 128.573 7.54358C126.418 7.54358 124.438 8.88796 123.335 11.3776C122.709 8.98756 120.704 7.54358 118.373 7.54358C116.343 7.54358 114.313 8.83816 113.21 11.2531V7.76765H109.651V23.6763H113.21V16.8797C113.21 13.444 115.015 10.6805 117.471 10.6805C119.476 10.6805 119.852 12.0498 119.852 15.2614V23.7013H123.411L123.386 16.8797C123.386 13.444 125.215 10.6805 127.671 10.6805ZM101.029 7.76765H97.4705V23.6763H101.029V17.5768C101.029 13.7179 102.734 11.1037 105.265 11.1037C105.916 11.1037 106.468 11.1286 107.069 11.3776L107.621 7.61825C107.17 7.56845 106.769 7.51865 106.367 7.51865C103.862 7.51865 102.057 9.23651 101.004 11.4523V7.76765H101.029ZM86.3171 7.51865C81.6055 7.51865 78.4222 11.1037 78.4222 15.6349C78.4222 20.3403 81.6556 23.8506 86.3171 23.8506C91.0544 23.8506 94.2873 20.2407 94.2873 15.6349C94.2622 11.0788 90.9791 7.51865 86.3171 7.51865ZM59.2991 20.7635C57.4445 20.7635 56.0662 19.8175 55.4896 17.9004C60.2013 17.7013 64.8131 16.556 64.8131 12.3983C64.8131 10.0083 62.4573 7.54358 59.0738 7.54358C54.5122 7.54358 51.4294 11.2531 51.4294 15.6597C51.4294 20.2655 54.4621 23.8755 58.9985 23.8755C62.1562 23.8755 64.1613 22.6058 65.7404 20.7635L64.0113 18.4232C62.1813 20.2905 61.0538 20.7635 59.2991 20.7635ZM41.7551 7.51865C39.9506 7.51865 38.146 8.56429 37.4443 10.2075V7.76765H33.8853V29.9253H37.4443V22.0083C38.1962 23.1535 39.9255 23.9004 41.4543 23.9004C46.1913 23.9004 48.6976 20.39 48.6976 15.6597C48.6725 10.9792 46.2163 7.51865 41.7551 7.51865ZM16.7923 1.39419H0V4.85477H6.56651V23.6763H10.3009V4.85477H16.7923V1.39419ZM69.7004 7.76765H67.5698V10.9544H69.7004V23.6763H73.2595V10.9544H76.7182V7.76765H73.2595V5.27801C73.2595 3.68465 73.9113 3.13693 75.39 3.13693C75.9409 3.13693 76.4422 3.28631 77.1191 3.51037L77.9209 0.522821C77.2696 0.149378 75.966 0 75.114 0C71.7055 0 69.7004 2.04149 69.7004 5.57678V7.76765Z" fill="#131313"/>
</g>
<defs>
<clipPath id="clip0">
<rect width="133.636" height="30" fill="white"/>
</clipPath>
</defs>
</svg>
