<svg width="71" height="70" viewBox="0 0 71 70" fill="none" xmlns="http://www.w3.org/2000/svg">
<rect x="1.33398" y="0.5" width="69" height="69" rx="34.5" fill="url(#paint0_linear_1810_2667)"/>
<rect x="1.33398" y="0.5" width="69" height="69" rx="34.5" stroke="#EBE7FE"/>
<path d="M47.2391 35.0647L47.2502 35.0536V34.95C47.2502 33.3526 46.4555 31.8577 45.1492 30.9344L45.1497 30.9292C45.1543 30.8848 45.1602 30.827 45.1602 30.77C45.1602 28.7775 43.8886 27.1374 42.1178 26.81C41.6907 25.052 40.1028 23.75 38.2502 23.75C36.9094 23.75 35.7266 24.4128 35.0002 25.421C34.2739 24.4128 33.0911 23.75 31.7502 23.75C29.8979 23.75 28.3102 25.0516 27.8828 26.8092C26.1197 27.1287 24.8402 28.7795 24.8402 30.78L24.8402 30.7868C24.8402 30.8359 24.8402 30.8895 24.8418 30.944C23.5352 31.8673 22.7402 33.3624 22.7402 34.96C22.7402 35.8947 23.0032 36.7832 23.5097 37.57C23.003 38.3581 22.7402 39.255 22.7402 40.18C22.7402 41.8755 23.6222 43.4484 25.0666 44.3429C25.7471 46.6588 27.851 48.25 30.2902 48.25C32.2887 48.25 34.0464 47.1654 34.9912 45.5533C35.9421 47.1646 37.6908 48.25 39.6902 48.25C42.1306 48.25 44.2241 46.6576 44.9136 44.3425C46.3571 43.4396 47.2402 41.8768 47.2402 40.18C47.2402 39.255 46.9774 38.358 46.4708 37.57C46.9583 36.8117 47.22 35.9526 47.2391 35.0647ZM30.5502 46.7522V46.75H30.3002C28.4578 46.75 26.8779 45.4914 26.4538 43.6838C26.4538 43.6835 26.4537 43.6832 26.4536 43.683L26.404 43.4646L26.3791 43.3551L26.2807 43.3009L26.0807 43.1909L26.0785 43.1898C24.9472 42.582 24.2502 41.4352 24.2502 40.18C24.2502 39.4097 24.519 38.6645 25.0249 38.0369L25.2748 37.7269L25.4014 37.57L25.2748 37.4131L25.0249 37.1031C25.0249 37.1031 25.0249 37.1031 25.0248 37.1031C24.519 36.4754 24.2502 35.7303 24.2502 34.96C24.2502 33.7325 24.9195 32.5952 26.0118 31.9785L26.3204 31.8092L26.4764 31.7237L26.4467 31.5483L26.4467 31.5483L26.4467 31.5482L26.4467 31.5479L26.4464 31.5466L26.4456 31.5413L26.4421 31.5207L26.4298 31.4458C26.4196 31.383 26.406 31.2978 26.3924 31.2077C26.3636 31.0165 26.3402 30.8366 26.3402 30.78C26.3402 29.5021 27.1783 28.26 28.5202 28.26H28.9802H29.2094L29.2293 28.0317L29.2693 27.5717L29.2693 27.5717L29.2695 27.5693C29.3695 26.2781 30.4622 25.26 31.7502 25.26C33.1322 25.26 34.2502 26.3781 34.2502 27.76V42.81C34.2502 44.9072 32.6073 46.6227 30.5502 46.7522ZM44.7256 37.7169L44.9202 37.9582V37.9682L44.9756 38.0369C45.4815 38.6645 45.7502 39.4097 45.7502 40.18C45.7502 41.4352 45.0533 42.582 43.9219 43.1898L43.9198 43.1909L43.7198 43.3009L43.6213 43.3551L43.5965 43.4646L43.5466 43.6842C43.1326 45.4907 41.5536 46.75 39.7002 46.75C37.5187 46.75 35.7502 44.9723 35.7502 42.8V27.75C35.7502 26.3681 36.8683 25.25 38.2502 25.25C39.5382 25.25 40.631 26.2681 40.731 27.5593L40.7306 27.5593L40.7323 27.5723L40.7923 28.0323L40.8207 28.25H41.0402H41.5002C42.8209 28.25 43.6602 29.4905 43.6602 30.77C43.6602 30.8266 43.6368 31.0065 43.608 31.1977C43.5945 31.2878 43.5809 31.373 43.5707 31.4358L43.5583 31.5107L43.5549 31.5313L43.554 31.5366L43.5538 31.5379L43.5538 31.5382L43.5537 31.5383L43.8002 31.58L43.5537 31.5383L43.5241 31.7137L43.68 31.7992L43.9874 31.9677C43.9878 31.968 43.9883 31.9682 43.9887 31.9685C45.081 32.5852 45.7502 33.7225 45.7502 34.95C45.7502 35.7203 45.4815 36.4655 44.9756 37.0931L44.7256 37.4031L44.5991 37.56L44.7256 37.7169Z" fill="#6C4DF6" stroke="#6C4DF6" stroke-width="0.5"/>
<defs>
<linearGradient id="paint0_linear_1810_2667" x1="35.834" y1="0" x2="35.834" y2="70" gradientUnits="userSpaceOnUse">
<stop stop-color="#EBE7FE"/>
<stop offset="1" stop-color="white" stop-opacity="0"/>
</linearGradient>
</defs>
</svg>
