<svg width="1440" height="1062" viewBox="0 0 1440 1062" fill="none" xmlns="http://www.w3.org/2000/svg">
<mask id="mask0" mask-type="alpha" maskUnits="userSpaceOnUse" x="0" y="0" width="1440" height="1062">
<rect width="1440" height="1062" fill="url(#paint0_linear)"/>
</mask>
<g mask="url(#mask0)">
<circle opacity="0.3" cx="720" cy="1047" r="336.5" stroke="url(#paint1_linear)"/>
<circle opacity="0.3" cx="720" cy="1047" r="525.5" stroke="url(#paint2_linear)"/>
<circle opacity="0.3" cx="720" cy="1047" r="166.5" stroke="url(#paint3_linear)"/>
<path d="M370.508 453.192L635.69 902.793C635.69 902.793 645.404 895.139 671.508 888.623C697.611 882.106 716.119 885.623 716.119 885.623L744.508 334.192C744.508 334.192 568.254 292.101 493.508 308.192C418.762 324.283 370.508 453.192 370.508 453.192Z" fill="url(#paint4_linear)" fill-opacity="0.8"/>
<path style="mix-blend-mode:screen" opacity="0.25" d="M372.403 887.479H372.393C365.276 884.592 356.778 882.642 349.327 885.162C339.644 888.438 333.352 898.468 330.001 907.982C325.994 919.364 323.551 933.055 325.948 945.048C327.87 954.671 333.548 963.875 342.168 967.863C349.122 971.081 357.053 970.863 364.421 972.429C377.313 975.169 393.082 981.132 405.129 972.513C411.121 968.228 414.577 960.877 415.891 953.423C417.374 945.008 417.668 936.254 414.895 928.082C411.947 919.393 405.728 911.769 399.408 905.456C391.709 897.768 382.351 891.515 372.403 887.479Z" fill="url(#paint5_linear)"/>
<path style="mix-blend-mode:screen" opacity="0.25" d="M392.299 706.02C380.772 709.508 371.453 716.321 364.269 725.206C356.324 734.959 351.056 747.564 348.52 761.735C345.728 778.122 346.366 794.47 349.563 806.323C353.036 818.981 360.004 826.81 369.431 831.485C375.763 834.666 383.483 836.429 393.138 834.226C407.473 831.012 422.531 820.156 439.143 814.191C450.595 810.041 463.796 808.7 475.123 803.684C489.051 797.627 495.613 787.107 494.762 773.699C494.083 760.512 485.975 744.444 474.441 732.464C451.097 707.519 415.179 698.342 392.299 706.02Z" fill="url(#paint6_linear)"/>
<path style="mix-blend-mode:screen" opacity="0.25" d="M831.484 770.467C838.876 776.347 847.429 779.32 856.365 779.991C866.201 780.766 876.684 778.541 886.957 773.855C898.774 768.346 909.036 760.641 915.256 753.291C921.873 745.404 923.816 737.416 922.626 729.249C921.853 723.745 919.547 717.978 913.818 712.732C905.35 704.918 891.629 700.047 880.37 691.991C872.584 686.455 865.83 678.536 857.541 673.467C847.419 667.183 837.705 667.643 829.436 674.173C821.231 680.495 814.482 692.893 811.899 705.679C806.221 731.866 816.323 759.132 831.484 770.467Z" fill="url(#paint7_linear)"/>
<path style="mix-blend-mode:screen" opacity="0.25" d="M926.911 602.428C908.766 603.528 899.419 614.799 894.745 626.621C890.072 638.443 892.316 672.931 915.639 679.976C931.401 684.739 960.713 691.28 972.681 679.975C978.05 674.906 980.476 667.153 980.757 659.595C982.143 622.336 945.056 601.327 926.911 602.428Z" fill="url(#paint8_linear)"/>
<g filter="url(#filter0_d)">
<path d="M286.688 836.222C286.869 835.909 286.977 835.531 286.997 835.136C287.017 834.741 286.948 834.347 286.801 834.004C286.653 833.661 286.432 833.384 286.167 833.208C285.901 833.033 285.602 832.966 285.308 833.016C285.014 833.067 284.738 833.233 284.514 833.493C284.29 833.753 284.13 834.096 284.052 834.478C283.975 834.86 283.984 835.263 284.078 835.639C284.173 836.014 284.348 836.343 284.583 836.585C284.899 836.908 285.297 837.051 285.692 836.983C286.086 836.916 286.445 836.642 286.688 836.222V836.222Z" fill="white"/>
</g>
<g filter="url(#filter1_d)">
<path d="M275.796 1004.41C275.915 1004.17 275.986 1003.89 275.998 1003.59C276.01 1003.3 275.964 1003 275.865 1002.75C275.767 1002.49 275.62 1002.29 275.443 1002.16C275.266 1002.02 275.067 1001.97 274.872 1002.01C274.676 1002.05 274.493 1002.17 274.344 1002.37C274.195 1002.56 274.088 1002.82 274.036 1003.1C273.983 1003.39 273.989 1003.69 274.051 1003.97C274.113 1004.25 274.228 1004.5 274.384 1004.68C274.488 1004.8 274.608 1004.89 274.735 1004.95C274.863 1005 274.997 1005.01 275.128 1004.99C275.26 1004.96 275.386 1004.9 275.501 1004.8C275.616 1004.7 275.716 1004.57 275.796 1004.41V1004.41Z" fill="white"/>
</g>
<g filter="url(#filter2_d)">
<path d="M383.583 638.222C383.825 637.909 383.968 637.531 383.995 637.136C384.022 636.741 383.932 636.348 383.735 636.004C383.538 635.661 383.243 635.384 382.889 635.208C382.535 635.033 382.136 634.966 381.744 635.016C381.351 635.067 380.983 635.233 380.685 635.493C380.387 635.753 380.173 636.096 380.069 636.478C379.966 636.86 379.978 637.264 380.105 637.639C380.231 638.014 380.466 638.343 380.779 638.584C381.199 638.908 381.73 639.051 382.256 638.984C382.782 638.916 383.26 638.642 383.583 638.222Z" fill="white"/>
</g>
<g filter="url(#filter3_d)">
<path d="M1191.69 879.611C1191.87 879.454 1191.98 879.265 1192 879.068C1192.02 878.871 1191.95 878.674 1191.8 878.502C1191.65 878.331 1191.43 878.192 1191.17 878.104C1190.9 878.016 1190.6 877.983 1190.31 878.008C1190.01 878.034 1189.74 878.117 1189.51 878.247C1189.29 878.377 1189.13 878.548 1189.05 878.739C1188.97 878.931 1188.98 879.132 1189.08 879.32C1189.17 879.507 1189.35 879.672 1189.59 879.793C1189.9 879.954 1190.3 880.026 1190.69 879.992C1191.09 879.958 1191.44 879.821 1191.69 879.611V879.611Z" fill="white"/>
</g>
<g filter="url(#filter4_d)">
<path d="M232.146 721.853C232.216 721.923 232.305 721.971 232.402 721.99C232.499 722.01 232.6 722 232.691 721.962C232.783 721.924 232.861 721.86 232.916 721.778C232.971 721.696 233 721.599 233 721.5C233 721.401 232.971 721.304 232.916 721.222C232.861 721.14 232.783 721.076 232.691 721.038C232.6 721 232.499 720.99 232.402 721.01C232.305 721.029 232.216 721.077 232.146 721.147C232.053 721.24 232 721.368 232 721.5C232 721.632 232.053 721.76 232.146 721.853Z" fill="white"/>
</g>
<g filter="url(#filter5_d)">
<path d="M225.291 727.704C225.43 727.845 225.608 727.941 225.802 727.98C225.997 728.019 226.198 728 226.381 727.925C226.564 727.849 226.721 727.721 226.831 727.557C226.941 727.392 227 727.198 227 727C227 726.802 226.941 726.608 226.831 726.443C226.721 726.279 226.564 726.151 226.381 726.075C226.198 726 225.997 725.981 225.802 726.02C225.608 726.059 225.43 726.155 225.291 726.296C225.105 726.483 225 726.736 225 727C225 727.264 225.105 727.517 225.291 727.704Z" fill="white"/>
</g>
<g filter="url(#filter6_d)">
<path d="M1033.14 769.853C1033.21 769.923 1033.3 769.971 1033.4 769.99C1033.5 770.01 1033.6 770 1033.69 769.962C1033.78 769.924 1033.86 769.86 1033.92 769.778C1033.97 769.696 1034 769.599 1034 769.5C1034 769.401 1033.97 769.304 1033.92 769.222C1033.86 769.14 1033.78 769.076 1033.69 769.038C1033.6 769 1033.5 768.99 1033.4 769.01C1033.3 769.029 1033.21 769.077 1033.14 769.147C1033.05 769.241 1033 769.368 1033 769.5C1033 769.632 1033.05 769.759 1033.14 769.853Z" fill="white"/>
</g>
<g filter="url(#filter7_d)">
<path d="M316.867 692.68C316.934 692.534 316.978 692.353 316.994 692.157C317.009 691.962 316.996 691.762 316.954 691.582C316.913 691.403 316.846 691.251 316.762 691.148C316.677 691.044 316.58 690.993 316.481 691.001C316.382 691.008 316.287 691.074 316.207 691.19C316.126 691.306 316.065 691.467 316.031 691.653C315.997 691.838 315.991 692.04 316.014 692.232C316.037 692.425 316.088 692.599 316.16 692.734C316.258 692.914 316.387 693.009 316.519 692.999C316.652 692.989 316.777 692.874 316.867 692.68V692.68Z" fill="white"/>
</g>
<g filter="url(#filter8_d)">
<path d="M684.592 705.408C684.831 705.172 684.971 704.889 684.996 704.594C685.021 704.299 684.928 704.004 684.731 703.749C684.533 703.493 684.239 703.286 683.886 703.155C683.532 703.024 683.135 702.974 682.744 703.012C682.353 703.05 681.985 703.174 681.688 703.368C681.39 703.562 681.176 703.818 681.071 704.103C680.967 704.388 680.977 704.69 681.101 704.971C681.225 705.252 681.457 705.499 681.767 705.681C681.976 705.804 682.215 705.894 682.471 705.947C682.726 705.999 682.993 706.013 683.256 705.988C683.519 705.962 683.773 705.898 684.002 705.798C684.231 705.699 684.432 705.566 684.592 705.408Z" fill="white"/>
</g>
<g filter="url(#filter9_d)">
<path d="M664.146 709.707C664.216 709.847 664.305 709.942 664.402 709.981C664.499 710.019 664.6 710 664.691 709.924C664.783 709.848 664.861 709.72 664.916 709.556C664.971 709.391 665 709.198 665 709C665 708.802 664.971 708.609 664.916 708.444C664.861 708.28 664.783 708.152 664.691 708.076C664.6 708 664.499 707.981 664.402 708.019C664.305 708.058 664.216 708.153 664.146 708.293C664.053 708.481 664 708.735 664 709C664 709.265 664.053 709.519 664.146 709.707V709.707Z" fill="white"/>
</g>
<g filter="url(#filter10_d)">
<path d="M886.668 950.614C886.815 950.416 886.92 950.157 886.969 949.87C887.018 949.583 887.009 949.281 886.943 949.001C886.878 948.722 886.758 948.477 886.6 948.3C886.442 948.122 886.252 948.018 886.055 948.002C885.857 947.986 885.661 948.058 885.491 948.209C885.321 948.36 885.184 948.583 885.099 948.85C885.013 949.117 884.982 949.416 885.01 949.71C885.038 950.003 885.123 950.278 885.255 950.498C885.342 950.646 885.448 950.766 885.567 950.852C885.685 950.937 885.814 950.987 885.945 950.998C886.077 951.009 886.208 950.98 886.332 950.914C886.456 950.849 886.57 950.747 886.668 950.614V950.614Z" fill="white"/>
</g>
<g filter="url(#filter11_d)">
<path d="M668.668 837.743C668.815 837.611 668.92 837.438 668.969 837.247C669.018 837.055 669.009 836.854 668.943 836.667C668.878 836.481 668.758 836.318 668.6 836.2C668.442 836.081 668.252 836.012 668.055 836.001C667.857 835.991 667.661 836.039 667.491 836.139C667.321 836.24 667.184 836.389 667.099 836.567C667.013 836.745 666.982 836.944 667.01 837.14C667.038 837.335 667.123 837.518 667.255 837.666C667.342 837.764 667.448 837.844 667.567 837.901C667.685 837.958 667.814 837.991 667.945 837.999C668.077 838.006 668.208 837.987 668.332 837.943C668.456 837.899 668.57 837.831 668.668 837.743V837.743Z" fill="white"/>
</g>
<g filter="url(#filter12_d)">
<path d="M921.501 952.872C921.722 952.806 921.879 952.719 921.953 952.624C922.027 952.528 922.013 952.427 921.915 952.333C921.816 952.24 921.636 952.159 921.398 952.099C921.16 952.04 920.874 952.006 920.578 952.001C920.281 951.996 919.986 952.02 919.731 952.071C919.476 952.121 919.272 952.196 919.145 952.285C919.017 952.375 918.973 952.475 919.016 952.573C919.06 952.671 919.189 952.762 919.389 952.835C919.52 952.884 919.679 952.923 919.857 952.952C920.034 952.98 920.226 952.996 920.422 952.999C920.618 953.003 920.814 952.993 920.999 952.971C921.184 952.949 921.355 952.916 921.501 952.872V952.872Z" fill="white"/>
</g>
<path d="M236.338 659.614C236.632 659.416 236.841 659.156 236.938 658.869C237.036 658.582 237.017 658.279 236.886 658C236.754 657.72 236.514 657.476 236.197 657.298C235.881 657.121 235.501 657.018 235.106 657.002C234.711 656.986 234.318 657.059 233.978 657.21C233.638 657.362 233.366 657.585 233.195 657.853C233.025 658.121 232.964 658.42 233.021 658.714C233.077 659.007 233.248 659.281 233.513 659.502C233.688 659.649 233.9 659.768 234.137 659.853C234.375 659.938 234.632 659.987 234.894 659.998C235.157 660.008 235.419 659.98 235.667 659.914C235.915 659.848 236.143 659.746 236.338 659.614V659.614Z" fill="#775AF6"/>
<g filter="url(#filter13_d)">
<path d="M1087.11 525.372C1087.22 525.556 1087.41 525.714 1087.65 525.825C1087.9 525.937 1088.19 525.998 1088.48 526C1088.78 526.002 1089.07 525.945 1089.32 525.837C1089.57 525.729 1089.76 525.574 1089.88 525.392C1090 525.21 1090.03 525.009 1089.97 524.815C1089.92 524.62 1089.78 524.441 1089.57 524.3C1089.36 524.159 1089.1 524.062 1088.81 524.021C1088.52 523.981 1088.21 523.999 1087.94 524.073C1087.57 524.172 1087.28 524.364 1087.12 524.608C1086.96 524.852 1086.96 525.126 1087.11 525.372V525.372Z" fill="white"/>
</g>
<g filter="url(#filter14_d)">
<path d="M851.834 776.743C851.908 776.611 851.96 776.438 851.984 776.247C852.009 776.055 852.004 775.854 851.972 775.667C851.939 775.481 851.879 775.318 851.8 775.2C851.721 775.081 851.626 775.012 851.527 775.001C851.429 774.991 851.33 775.039 851.245 775.139C851.16 775.24 851.092 775.389 851.049 775.567C851.006 775.745 850.991 775.944 851.005 776.14C851.019 776.335 851.061 776.518 851.127 776.666C851.171 776.764 851.224 776.844 851.283 776.901C851.343 776.958 851.407 776.991 851.473 776.999C851.538 777.006 851.604 776.987 851.666 776.943C851.728 776.899 851.785 776.831 851.834 776.743Z" fill="white"/>
</g>
<g filter="url(#filter15_d)">
<path d="M1011.25 741.2C1010.99 741.052 1010.7 740.984 1010.4 741.003C1010.1 741.023 1009.82 741.13 1009.58 741.312C1009.35 741.493 1009.17 741.739 1009.08 742.021C1008.98 742.302 1008.97 742.605 1009.05 742.891C1009.13 743.178 1009.29 743.435 1009.51 743.63C1009.74 743.825 1010.01 743.95 1010.31 743.988C1010.6 744.026 1010.9 743.975 1011.17 743.843C1011.43 743.711 1011.65 743.503 1011.8 743.246C1012 742.901 1012.05 742.492 1011.95 742.109C1011.84 741.725 1011.59 741.398 1011.25 741.2Z" fill="white"/>
</g>
<g filter="url(#filter16_d)">
<path d="M578.494 533.331C577.979 533.085 577.388 532.972 576.796 533.006C576.204 533.04 575.637 533.219 575.167 533.521C574.697 533.823 574.346 534.235 574.156 534.703C573.967 535.172 573.949 535.677 574.104 536.154C574.26 536.631 574.581 537.059 575.029 537.384C575.476 537.709 576.029 537.916 576.618 537.98C577.206 538.043 577.804 537.959 578.336 537.739C578.867 537.519 579.309 537.173 579.604 536.744C579.999 536.169 580.103 535.486 579.895 534.847C579.687 534.207 579.183 533.662 578.494 533.331Z" fill="white"/>
</g>
<g filter="url(#filter17_d)">
<path d="M291.995 936.266C291.652 936.069 291.259 935.978 290.864 936.005C290.47 936.031 290.092 936.175 289.779 936.416C289.465 936.658 289.231 936.987 289.105 937.362C288.978 937.737 288.966 938.141 289.069 938.523C289.173 938.904 289.387 939.247 289.685 939.507C289.983 939.767 290.352 939.933 290.744 939.984C291.136 940.034 291.535 939.967 291.889 939.791C292.243 939.615 292.537 939.338 292.734 938.995C292.865 938.767 292.95 938.516 292.983 938.256C293.017 937.995 292.999 937.731 292.931 937.477C292.862 937.224 292.744 936.986 292.584 936.778C292.423 936.57 292.223 936.396 291.995 936.266V936.266Z" fill="white"/>
</g>
<g filter="url(#filter18_d)">
<path d="M1188.8 575.405C1188.92 575.169 1188.99 574.886 1189 574.591C1189.01 574.296 1188.96 574.002 1188.86 573.746C1188.77 573.49 1188.62 573.284 1188.44 573.154C1188.26 573.023 1188.07 572.974 1187.87 573.013C1187.67 573.051 1187.49 573.175 1187.34 573.37C1187.19 573.564 1187.09 573.82 1187.04 574.105C1186.98 574.391 1186.99 574.693 1187.05 574.973C1187.11 575.254 1187.23 575.501 1187.38 575.683C1187.49 575.805 1187.61 575.895 1187.74 575.947C1187.86 575.999 1188 576.013 1188.13 575.987C1188.26 575.961 1188.39 575.897 1188.5 575.797C1188.62 575.697 1188.72 575.564 1188.8 575.405V575.405Z" fill="white"/>
</g>
<g filter="url(#filter19_d)">
<path d="M1167.1 597.393C1167.04 597.55 1167.01 597.739 1167 597.936C1166.99 598.133 1167.02 598.33 1167.07 598.501C1167.12 598.672 1167.19 598.81 1167.28 598.897C1167.37 598.985 1167.47 599.017 1167.57 598.991C1167.66 598.965 1167.76 598.882 1167.83 598.752C1167.9 598.621 1167.96 598.45 1167.98 598.259C1168.01 598.068 1168.01 597.866 1167.97 597.679C1167.94 597.492 1167.88 597.328 1167.8 597.208C1167.75 597.128 1167.69 597.069 1167.63 597.034C1167.57 597 1167.5 596.991 1167.43 597.009C1167.37 597.026 1167.31 597.069 1167.25 597.135C1167.19 597.201 1167.14 597.289 1167.1 597.393V597.393Z" fill="white"/>
</g>
<g filter="url(#filter20_d)">
<path d="M209.237 606.258C208.979 606.064 208.684 605.976 208.39 606.005C208.095 606.034 207.813 606.179 207.579 606.421C207.346 606.663 207.171 606.992 207.077 607.366C206.984 607.74 206.975 608.142 207.052 608.523C207.13 608.904 207.29 609.245 207.512 609.505C207.735 609.765 208.01 609.931 208.303 609.983C208.596 610.034 208.894 609.97 209.16 609.796C209.425 609.623 209.647 609.348 209.796 609.008C209.896 608.779 209.961 608.526 209.987 608.263C210.013 608 210 607.733 209.948 607.477C209.896 607.221 209.806 606.982 209.684 606.772C209.562 606.563 209.41 606.388 209.237 606.258Z" fill="white"/>
</g>
<path d="M281.793 620.61C281.954 620.399 282.026 620.133 281.992 619.87C281.957 619.607 281.82 619.369 281.61 619.207C281.399 619.046 281.133 618.974 280.87 619.008C280.607 619.043 280.369 619.18 280.207 619.39C280.127 619.495 280.068 619.613 280.034 619.74C280 619.867 279.991 619.999 280.008 620.13C280.025 620.26 280.068 620.385 280.133 620.499C280.199 620.613 280.286 620.713 280.39 620.793C280.495 620.873 280.613 620.932 280.74 620.966C280.867 621 280.999 621.009 281.13 620.992C281.26 620.975 281.385 620.932 281.499 620.866C281.613 620.801 281.713 620.714 281.793 620.61V620.61Z" fill="#775AF6"/>
<path d="M291.791 550.612C291.912 550.456 291.984 550.267 291.998 550.069C292.011 549.872 291.966 549.675 291.868 549.503C291.769 549.331 291.622 549.193 291.445 549.104C291.268 549.016 291.068 548.983 290.872 549.008C290.676 549.034 290.491 549.117 290.342 549.247C290.193 549.377 290.086 549.549 290.034 549.74C289.983 549.931 289.989 550.133 290.053 550.32C290.116 550.508 290.234 550.672 290.391 550.793C290.601 550.954 290.866 551.026 291.128 550.992C291.39 550.958 291.629 550.821 291.791 550.612V550.612Z" fill="#775AF6"/>
<g filter="url(#filter21_d)">
<path d="M379.447 534.569C379.658 534.776 379.925 534.917 380.216 534.973C380.506 535.029 380.807 534.998 381.079 534.884C381.352 534.769 381.585 534.577 381.749 534.331C381.913 534.085 382 533.796 382 533.5C382 533.204 381.913 532.915 381.749 532.669C381.585 532.423 381.352 532.231 381.079 532.116C380.807 532.002 380.506 531.971 380.216 532.027C379.925 532.083 379.658 532.224 379.447 532.431C379.306 532.571 379.193 532.737 379.116 532.921C379.04 533.104 379 533.301 379 533.5C379 533.699 379.04 533.896 379.116 534.079C379.193 534.263 379.306 534.429 379.447 534.569Z" fill="white"/>
</g>
<g filter="url(#filter22_d)">
<path d="M826.335 901.232C826.63 900.835 826.84 900.317 826.938 899.742C827.036 899.168 827.018 898.562 826.886 898.003C826.755 897.443 826.516 896.954 826.199 896.599C825.882 896.243 825.502 896.036 825.107 896.004C824.712 895.972 824.32 896.117 823.979 896.42C823.639 896.723 823.366 897.17 823.196 897.705C823.025 898.24 822.964 898.84 823.02 899.427C823.077 900.014 823.248 900.563 823.513 901.004C823.688 901.297 823.9 901.536 824.137 901.706C824.374 901.876 824.63 901.975 824.893 901.996C825.155 902.017 825.417 901.96 825.665 901.829C825.912 901.698 826.14 901.495 826.335 901.232Z" fill="white"/>
</g>
<g filter="url(#filter23_d)">
<path d="M1094.34 969.362C1094.63 969.031 1094.84 968.599 1094.94 968.12C1095.04 967.641 1095.02 967.136 1094.89 966.669C1094.75 966.203 1094.52 965.796 1094.2 965.499C1093.88 965.203 1093.5 965.03 1093.11 965.004C1092.71 964.977 1092.32 965.098 1091.98 965.35C1091.64 965.602 1091.37 965.975 1091.2 966.421C1091.03 966.868 1090.96 967.367 1091.02 967.857C1091.08 968.346 1091.25 968.804 1091.51 969.172C1091.87 969.664 1092.36 969.961 1092.89 969.996C1093.42 970.032 1093.94 969.804 1094.34 969.362V969.362Z" fill="white"/>
</g>
<g filter="url(#filter24_d)">
<path d="M904.335 529.36C904.63 529.03 904.839 528.598 904.938 528.119C905.036 527.64 905.018 527.135 904.886 526.669C904.755 526.202 904.516 525.795 904.199 525.499C903.882 525.202 903.502 525.03 903.107 525.004C902.712 524.977 902.32 525.098 901.979 525.35C901.639 525.602 901.366 525.975 901.196 526.421C901.025 526.867 900.964 527.366 901.02 527.856C901.077 528.345 901.248 528.803 901.513 529.17C901.688 529.415 901.9 529.613 902.137 529.755C902.374 529.897 902.631 529.979 902.893 529.996C903.155 530.014 903.417 529.967 903.665 529.858C903.912 529.748 904.14 529.579 904.335 529.36V529.36Z" fill="white"/>
</g>
<g filter="url(#filter25_d)">
<path d="M865.502 693.135C865.331 693.036 865.134 692.989 864.937 693.002C864.739 693.015 864.55 693.086 864.392 693.206C864.235 693.326 864.117 693.491 864.053 693.678C863.989 693.866 863.983 694.068 864.034 694.259C864.086 694.45 864.192 694.622 864.342 694.753C864.491 694.883 864.675 694.966 864.871 694.992C865.068 695.017 865.267 694.984 865.445 694.896C865.622 694.808 865.769 694.669 865.868 694.497C865.999 694.268 866.034 693.996 865.966 693.741C865.897 693.486 865.731 693.268 865.502 693.135V693.135Z" fill="white"/>
</g>
<g filter="url(#filter26_d)">
<path d="M427.511 783.608C427.73 783.408 427.884 783.149 427.956 782.862C428.027 782.575 428.012 782.273 427.912 781.995C427.813 781.716 427.633 781.473 427.396 781.297C427.158 781.12 426.874 781.018 426.579 781.002C426.284 780.987 425.99 781.059 425.736 781.209C425.481 781.36 425.277 781.582 425.149 781.849C425.02 782.115 424.974 782.414 425.014 782.707C425.055 783 425.182 783.274 425.378 783.495C425.51 783.644 425.67 783.765 425.849 783.851C426.028 783.938 426.223 783.987 426.421 783.998C426.62 784.008 426.818 783.979 427.005 783.912C427.193 783.845 427.365 783.742 427.511 783.608Z" fill="white"/>
</g>
<g filter="url(#filter27_d)">
<path d="M336.073 839.375C336.147 839.558 336.274 839.716 336.438 839.827C336.601 839.938 336.794 839.998 336.991 840C337.189 840.002 337.383 839.945 337.548 839.836C337.713 839.728 337.843 839.573 337.92 839.391C337.998 839.209 338.019 839.009 337.983 838.814C337.946 838.62 337.852 838.441 337.714 838.3C337.576 838.159 337.399 838.062 337.205 838.021C337.012 837.981 336.81 837.998 336.627 838.072C336.505 838.121 336.394 838.194 336.3 838.286C336.206 838.378 336.131 838.488 336.08 838.609C336.028 838.73 336.001 838.86 336 838.991C335.999 839.123 336.024 839.253 336.073 839.375V839.375Z" fill="white"/>
</g>
<g filter="url(#filter28_d)">
<path d="M1193.48 751.062C1193.31 751.015 1193.11 750.994 1192.92 751.002C1192.72 751.01 1192.53 751.047 1192.38 751.108C1192.22 751.17 1192.11 751.252 1192.05 751.346C1191.99 751.44 1191.98 751.541 1192.04 751.636C1192.09 751.73 1192.2 751.815 1192.35 751.88C1192.5 751.944 1192.68 751.984 1192.88 751.996C1193.08 752.008 1193.27 751.991 1193.45 751.947C1193.63 751.902 1193.77 751.833 1193.87 751.747C1193.94 751.69 1193.98 751.626 1193.99 751.561C1194.01 751.495 1194 751.428 1193.96 751.365C1193.93 751.301 1193.87 751.241 1193.78 751.19C1193.7 751.138 1193.6 751.094 1193.48 751.062V751.062Z" fill="white"/>
</g>
<g filter="url(#filter29_d)">
<path d="M307.486 536.125C307.313 536.03 307.115 535.987 306.919 536.003C306.722 536.02 306.534 536.094 306.379 536.216C306.224 536.339 306.109 536.505 306.049 536.692C305.988 536.88 305.984 537.082 306.038 537.272C306.091 537.462 306.2 537.632 306.35 537.76C306.5 537.888 306.685 537.969 306.881 537.993C307.077 538.016 307.276 537.981 307.453 537.892C307.629 537.803 307.775 537.664 307.872 537.492C307.936 537.377 307.978 537.25 307.993 537.119C308.009 536.988 307.998 536.856 307.962 536.729C307.926 536.602 307.866 536.483 307.784 536.379C307.702 536.276 307.601 536.19 307.486 536.125V536.125Z" fill="white"/>
</g>
<g filter="url(#filter30_d)">
<path d="M1112.5 866.137C1112.33 866.037 1112.14 865.99 1111.94 866.002C1111.74 866.014 1111.55 866.084 1111.39 866.204C1111.24 866.324 1111.12 866.488 1111.05 866.676C1110.99 866.863 1110.98 867.065 1111.03 867.257C1111.08 867.448 1111.19 867.62 1111.34 867.751C1111.49 867.882 1111.67 867.965 1111.87 867.991C1112.07 868.017 1112.27 867.984 1112.44 867.897C1112.62 867.809 1112.77 867.67 1112.87 867.499C1113 867.27 1113.03 866.998 1112.97 866.743C1112.9 866.488 1112.73 866.27 1112.5 866.137Z" fill="white"/>
</g>
<g filter="url(#filter31_d)">
<path d="M909.748 512.066C909.662 512.017 909.564 511.994 909.465 512.001C909.367 512.008 909.273 512.044 909.194 512.104C909.116 512.165 909.058 512.247 909.026 512.341C908.995 512.434 908.992 512.535 909.017 512.631C909.043 512.726 909.097 512.812 909.171 512.877C909.246 512.942 909.338 512.983 909.436 512.996C909.534 513.009 909.633 512.992 909.722 512.948C909.81 512.904 909.884 512.834 909.933 512.748C909.966 512.692 909.987 512.629 909.996 512.564C910.004 512.498 910 512.432 909.983 512.369C909.966 512.305 909.936 512.246 909.896 512.194C909.855 512.142 909.805 512.099 909.748 512.066V512.066Z" fill="white"/>
</g>
<g filter="url(#filter32_d)">
<path d="M1167.15 537.854C1167.22 537.924 1167.31 537.971 1167.4 537.991C1167.5 538.01 1167.6 538 1167.69 537.962C1167.78 537.924 1167.86 537.86 1167.92 537.778C1167.97 537.695 1168 537.599 1168 537.5C1168 537.401 1167.97 537.305 1167.92 537.222C1167.86 537.14 1167.78 537.076 1167.69 537.038C1167.6 537 1167.5 536.99 1167.4 537.009C1167.31 537.029 1167.22 537.076 1167.15 537.146C1167.1 537.192 1167.06 537.247 1167.04 537.308C1167.01 537.369 1167 537.434 1167 537.5C1167 537.566 1167.01 537.631 1167.04 537.692C1167.06 537.753 1167.1 537.808 1167.15 537.854V537.854Z" fill="white"/>
</g>
<path d="M1169.49 553.063C1169.31 553.015 1169.12 552.994 1168.92 553.002C1168.72 553.01 1168.53 553.047 1168.38 553.108C1168.22 553.169 1168.11 553.252 1168.05 553.346C1167.99 553.44 1167.98 553.541 1168.04 553.636C1168.09 553.731 1168.2 553.816 1168.35 553.88C1168.5 553.944 1168.69 553.985 1168.88 553.996C1169.08 554.008 1169.28 553.991 1169.45 553.946C1169.63 553.902 1169.77 553.832 1169.87 553.746C1169.94 553.688 1169.98 553.625 1169.99 553.56C1170.01 553.494 1170 553.428 1169.96 553.364C1169.93 553.301 1169.87 553.242 1169.78 553.19C1169.7 553.138 1169.6 553.095 1169.49 553.063Z" fill="#775AF6"/>
<g filter="url(#filter33_d)">
<path d="M230.147 628.706C230.217 628.846 230.306 628.942 230.403 628.981C230.499 629.019 230.6 629 230.691 628.924C230.783 628.849 230.861 628.72 230.916 628.556C230.971 628.391 231 628.198 231 628C231 627.802 230.971 627.609 230.916 627.444C230.861 627.28 230.783 627.151 230.691 627.076C230.6 627 230.499 626.981 230.403 627.019C230.306 627.058 230.217 627.154 230.147 627.294C230.1 627.387 230.063 627.496 230.038 627.618C230.013 627.739 230 627.869 230 628C230 628.131 230.013 628.261 230.038 628.382C230.063 628.504 230.1 628.613 230.147 628.706Z" fill="white"/>
</g>
<g filter="url(#filter34_d)">
<path d="M309.147 591.706C309.217 591.846 309.306 591.942 309.403 591.981C309.499 592.019 309.6 592 309.691 591.924C309.783 591.849 309.861 591.72 309.916 591.556C309.971 591.391 310 591.198 310 591C310 590.802 309.971 590.609 309.916 590.444C309.861 590.28 309.783 590.151 309.691 590.076C309.6 590 309.499 589.981 309.403 590.019C309.306 590.058 309.217 590.154 309.147 590.294C309.1 590.387 309.063 590.497 309.038 590.618C309.013 590.739 309 590.869 309 591C309 591.131 309.013 591.261 309.038 591.382C309.063 591.504 309.1 591.613 309.147 591.706Z" fill="white"/>
</g>
<g filter="url(#filter35_d)">
<path d="M605.883 854.821C605.96 854.73 606.001 854.614 606 854.494C605.999 854.374 605.954 854.259 605.875 854.169C605.796 854.08 605.687 854.021 605.569 854.005C605.451 853.988 605.33 854.015 605.229 854.079C605.169 854.118 605.117 854.17 605.079 854.231C605.04 854.291 605.015 854.36 605.005 854.431C604.995 854.502 605 854.575 605.021 854.644C605.042 854.713 605.077 854.777 605.125 854.831C605.172 854.885 605.231 854.928 605.297 854.957C605.363 854.986 605.434 855.001 605.506 855C605.578 854.999 605.649 854.983 605.714 854.952C605.779 854.921 605.837 854.876 605.883 854.821V854.821Z" fill="white"/>
</g>
<circle opacity="0.9" cx="416.687" cy="766.93" r="28.0418" transform="rotate(-4.8894 416.687 766.93)" fill="#775AF6"/>
<circle opacity="0.8" cx="865.596" cy="733.821" r="28.0418" transform="rotate(-129.553 865.596 733.821)" fill="#775AF6"/>
<circle cx="370.666" cy="926.74" r="14.5708" transform="rotate(-4.8894 370.666 926.74)" fill="#3C2B85"/>
<circle cx="937.578" cy="645.25" r="14.5708" transform="rotate(-12.804 937.578 645.25)" fill="#3C2B85"/>
<circle cx="516.373" cy="994.92" r="14.5708" transform="rotate(-4.8894 516.373 994.92)" fill="#3C2B85"/>
<circle cx="671.971" cy="699.099" r="16.0898" transform="rotate(-4.8894 671.971 699.099)" fill="#BF1E62"/>
<circle cx="663.174" cy="603.427" r="16.0898" transform="rotate(-4.8894 663.174 603.427)" fill="#BF1E62"/>
<circle cx="908.959" cy="522.057" r="14.5708" transform="rotate(-4.8894 908.959 522.057)" fill="#3C2B85"/>
<circle cx="271.144" cy="1004.27" r="14.5708" transform="rotate(-4.8894 271.144 1004.27)" fill="#3C2B85"/>
<circle cx="265.837" cy="780.673" r="11.6968" transform="rotate(-4.8894 265.837 780.673)" fill="#3C2B85"/>
<circle cx="1203.31" cy="1005.01" r="11.6968" transform="rotate(-4.8894 1203.31 1005.01)" fill="#3C2B85"/>
<circle cx="1193.42" cy="881.844" r="9.62118" transform="rotate(-4.8894 1193.42 881.844)" fill="#3C2B85"/>
<circle cx="1111.99" cy="863.653" r="7.24541" transform="rotate(-4.8894 1111.99 863.653)" fill="#3C2B85"/>
<circle cx="382.762" cy="633.675" r="14.5708" transform="rotate(-4.8894 382.762 633.675)" fill="#3C2B85"/>
<circle cx="1095.35" cy="965.228" r="14.5708" transform="rotate(-4.8894 1095.35 965.228)" fill="#3C2B85"/>
<circle cx="368.322" cy="898.603" r="3.29904" transform="rotate(-4.8894 368.322 898.603)" fill="#3C2B85"/>
<circle cx="930.296" cy="611.765" r="3.29904" transform="rotate(-12.804 930.296 611.765)" fill="#3C2B85"/>
<circle cx="954.88" cy="664.751" r="3.29904" transform="rotate(-12.804 954.88 664.751)" fill="#3C2B85"/>
<circle cx="330.982" cy="629.181" r="3.29904" transform="rotate(-4.8894 330.982 629.181)" fill="#3C2B85"/>
<circle cx="338.13" cy="923.346" r="3.29904" transform="rotate(-4.8894 338.13 923.346)" fill="#3C2B85"/>
<circle cx="903.797" cy="640.43" r="3.29904" transform="rotate(-12.804 903.797 640.43)" fill="#3C2B85"/>
<circle cx="290.844" cy="938.192" r="3.29904" transform="rotate(-4.8894 290.844 938.192)" fill="#3C2B85"/>
<circle cx="1010.04" cy="742.999" r="3.29904" transform="rotate(-4.8894 1010.04 742.999)" fill="#3C2B85"/>
<circle cx="1033.68" cy="769.39" r="3.29904" transform="rotate(-4.8894 1033.68 769.39)" fill="#3C2B85"/>
<circle cx="355.175" cy="947.539" r="3.29904" transform="rotate(-4.8894 355.175 947.539)" fill="#3C2B85"/>
<circle cx="509.68" cy="833.722" r="3.29904" transform="rotate(-4.8894 509.68 833.722)" fill="#3C2B85"/>
<circle cx="803.845" cy="788.635" r="3.29904" transform="rotate(-4.8894 803.845 788.635)" fill="#3C2B85"/>
<circle cx="458.957" cy="909.462" r="5.20502" transform="rotate(-4.8894 458.957 909.462)" fill="#3C2B85"/>
<circle cx="918.591" cy="669.7" r="3.29904" transform="rotate(-12.804 918.591 669.7)" fill="#3C2B85"/>
<circle cx="398.612" cy="938.742" r="3.29904" transform="rotate(-4.8894 398.612 938.742)" fill="#3C2B85"/>
<circle cx="971.376" cy="650.456" r="3.29904" transform="rotate(-12.804 971.376 650.456)" fill="#3C2B85"/>
<circle cx="417.267" cy="813.799" r="3.29904" transform="rotate(-4.8894 417.267 813.799)" fill="#775AF6"/>
<circle cx="450.258" cy="783.558" r="3.29904" transform="rotate(-4.8894 450.258 783.558)" fill="#775AF6"/>
<circle cx="865.953" cy="693.489" r="3.29904" transform="rotate(-129.553 865.953 693.489)" fill="#775AF6"/>
<circle cx="462.064" cy="761.944" r="3.29904" transform="rotate(-4.8894 462.064 761.944)" fill="#775AF6"/>
<circle cx="449.708" cy="746.169" r="3.29904" transform="rotate(-4.8894 449.708 746.169)" fill="#775AF6"/>
<circle cx="471.194" cy="739.641" r="3.29904" transform="rotate(-4.8894 471.194 739.641)" fill="#775AF6"/>
<circle cx="435.869" cy="726.66" r="3.29904" transform="rotate(-4.8894 435.869 726.66)" fill="#775AF6"/>
<circle cx="835.711" cy="704.486" r="3.29904" transform="rotate(-129.553 835.711 704.486)" fill="#775AF6"/>
<circle cx="447.359" cy="719.055" r="3.29904" transform="rotate(-4.8894 447.359 719.055)" fill="#775AF6"/>
<circle cx="412.869" cy="731.873" r="3.29904" transform="rotate(-4.8894 412.869 731.873)" fill="#775AF6"/>
<circle cx="843.41" cy="684.142" r="3.29904" transform="rotate(-129.553 843.41 684.142)" fill="#775AF6"/>
<circle cx="389.775" cy="730.773" r="3.29904" transform="rotate(-4.8894 389.775 730.773)" fill="#775AF6"/>
<circle cx="825.814" cy="740.776" r="3.29904" transform="rotate(-129.553 825.814 740.776)" fill="#775AF6"/>
<circle cx="904.442" cy="724.281" r="3.29904" transform="rotate(-129.553 904.442 724.281)" fill="#775AF6"/>
<circle cx="896.744" cy="756.171" r="3.29904" transform="rotate(-129.553 896.744 756.171)" fill="#775AF6"/>
<circle cx="380.978" cy="748.368" r="3.29904" transform="rotate(-4.8894 380.978 748.368)" fill="#775AF6"/>
<circle cx="371.217" cy="770.82" r="3.29904" transform="rotate(-4.8894 371.217 770.82)" fill="#775AF6"/>
<circle cx="387.576" cy="791.805" r="3.29904" transform="rotate(-4.8894 387.576 791.805)" fill="#775AF6"/>
<circle cx="852.206" cy="774.866" r="3.29904" transform="rotate(-129.553 852.206 774.866)" fill="#775AF6"/>
<circle cx="420.016" cy="711.529" r="3.29904" transform="rotate(-4.8894 420.016 711.529)" fill="#775AF6"/>
<circle cx="391.643" cy="966.963" r="5.4984" transform="rotate(-4.8894 391.643 966.963)" fill="#3C2B85"/>
<circle cx="823.818" cy="898.233" r="5.4984" transform="rotate(-4.8894 823.818 898.233)" fill="#3C2B85"/>
<circle cx="579.83" cy="979.201" r="8.17108" transform="rotate(-4.8894 579.83 979.201)" fill="#3C2B85"/>
<circle cx="554.537" cy="747.168" r="8.17108" transform="rotate(-4.8894 554.537 747.168)" fill="#3C2B85"/>
<circle cx="606.082" cy="851.496" r="5.4984" transform="rotate(-4.8894 606.082 851.496)" fill="#3C2B85"/>
<circle cx="578.039" cy="533.689" r="5.4984" transform="rotate(-4.8894 578.039 533.689)" fill="#BF1E62"/>
<circle cx="669.312" cy="833.901" r="5.4984" transform="rotate(-4.8894 669.312 833.901)" fill="#BF1E62"/>
<circle cx="722.097" cy="665.101" r="5.4984" transform="rotate(-4.8894 722.097 665.101)" fill="#BF1E62"/>
<circle cx="565.943" cy="636.509" r="5.4984" transform="rotate(-4.8894 565.943 636.509)" fill="#BF1E62"/>
<circle cx="740.242" cy="553.483" r="5.4984" transform="rotate(-4.8894 740.242 553.483)" fill="#BF1E62"/>
<circle cx="316.865" cy="692.043" r="5.4984" transform="rotate(-4.8894 316.865 692.043)" fill="#3C2B85"/>
<circle cx="1009.66" cy="522.692" r="5.4984" transform="rotate(-4.8894 1009.66 522.692)" fill="#3C2B85"/>
<circle cx="1043.41" cy="591.131" r="7.96499" transform="rotate(-4.8894 1043.41 591.131)" fill="#3C2B85"/>
<circle cx="1153.26" cy="688.828" r="6.59353" transform="rotate(-4.8894 1153.26 688.828)" fill="#3C2B85"/>
<circle cx="467.521" cy="536.438" r="5.4984" transform="rotate(-4.8894 467.521 536.438)" fill="#3C2B85"/>
<circle cx="361.76" cy="789.288" r="5.4984" transform="rotate(-4.8894 361.76 789.288)" fill="#775AF6"/>
<path d="M381.207 876.652L387.085 850.775M387.085 850.775L377.559 856.775M387.085 850.775L393.085 860.302" stroke="#D6D2FF" stroke-width="3" stroke-linecap="round" stroke-linejoin="round"/>
<path d="M904.954 677.767L891.927 691.915M891.927 691.915L903.174 691.411M891.927 691.915L891.422 680.668" stroke="#D6D2FF" stroke-width="3" stroke-linecap="round" stroke-linejoin="round"/>
</g>
<defs>
<filter id="filter0_d" x="280" y="829" width="11" height="12" filterUnits="userSpaceOnUse" color-interpolation-filters="sRGB">
<feFlood flood-opacity="0" result="BackgroundImageFix"/>
<feColorMatrix in="SourceAlpha" type="matrix" values="0 0 0 0 0 0 0 0 0 0 0 0 0 0 0 0 0 0 127 0"/>
<feOffset/>
<feGaussianBlur stdDeviation="2"/>
<feColorMatrix type="matrix" values="0 0 0 0 1 0 0 0 0 1 0 0 0 0 1 0 0 0 0.65 0"/>
<feBlend mode="normal" in2="BackgroundImageFix" result="effect1_dropShadow"/>
<feBlend mode="normal" in="SourceGraphic" in2="effect1_dropShadow" result="shape"/>
</filter>
<filter id="filter1_d" x="270" y="998" width="10" height="11" filterUnits="userSpaceOnUse" color-interpolation-filters="sRGB">
<feFlood flood-opacity="0" result="BackgroundImageFix"/>
<feColorMatrix in="SourceAlpha" type="matrix" values="0 0 0 0 0 0 0 0 0 0 0 0 0 0 0 0 0 0 127 0"/>
<feOffset/>
<feGaussianBlur stdDeviation="2"/>
<feColorMatrix type="matrix" values="0 0 0 0 1 0 0 0 0 1 0 0 0 0 1 0 0 0 0.65 0"/>
<feBlend mode="normal" in2="BackgroundImageFix" result="effect1_dropShadow"/>
<feBlend mode="normal" in="SourceGraphic" in2="effect1_dropShadow" result="shape"/>
</filter>
<filter id="filter2_d" x="376" y="631" width="12" height="12" filterUnits="userSpaceOnUse" color-interpolation-filters="sRGB">
<feFlood flood-opacity="0" result="BackgroundImageFix"/>
<feColorMatrix in="SourceAlpha" type="matrix" values="0 0 0 0 0 0 0 0 0 0 0 0 0 0 0 0 0 0 127 0"/>
<feOffset/>
<feGaussianBlur stdDeviation="2"/>
<feColorMatrix type="matrix" values="0 0 0 0 1 0 0 0 0 1 0 0 0 0 1 0 0 0 0.65 0"/>
<feBlend mode="normal" in2="BackgroundImageFix" result="effect1_dropShadow"/>
<feBlend mode="normal" in="SourceGraphic" in2="effect1_dropShadow" result="shape"/>
</filter>
<filter id="filter3_d" x="1185" y="874" width="11" height="10" filterUnits="userSpaceOnUse" color-interpolation-filters="sRGB">
<feFlood flood-opacity="0" result="BackgroundImageFix"/>
<feColorMatrix in="SourceAlpha" type="matrix" values="0 0 0 0 0 0 0 0 0 0 0 0 0 0 0 0 0 0 127 0"/>
<feOffset/>
<feGaussianBlur stdDeviation="2"/>
<feColorMatrix type="matrix" values="0 0 0 0 1 0 0 0 0 1 0 0 0 0 1 0 0 0 0.65 0"/>
<feBlend mode="normal" in2="BackgroundImageFix" result="effect1_dropShadow"/>
<feBlend mode="normal" in="SourceGraphic" in2="effect1_dropShadow" result="shape"/>
</filter>
<filter id="filter4_d" x="228" y="717" width="9" height="9" filterUnits="userSpaceOnUse" color-interpolation-filters="sRGB">
<feFlood flood-opacity="0" result="BackgroundImageFix"/>
<feColorMatrix in="SourceAlpha" type="matrix" values="0 0 0 0 0 0 0 0 0 0 0 0 0 0 0 0 0 0 127 0"/>
<feOffset/>
<feGaussianBlur stdDeviation="2"/>
<feColorMatrix type="matrix" values="0 0 0 0 1 0 0 0 0 1 0 0 0 0 1 0 0 0 0.65 0"/>
<feBlend mode="normal" in2="BackgroundImageFix" result="effect1_dropShadow"/>
<feBlend mode="normal" in="SourceGraphic" in2="effect1_dropShadow" result="shape"/>
</filter>
<filter id="filter5_d" x="221" y="722" width="10" height="10" filterUnits="userSpaceOnUse" color-interpolation-filters="sRGB">
<feFlood flood-opacity="0" result="BackgroundImageFix"/>
<feColorMatrix in="SourceAlpha" type="matrix" values="0 0 0 0 0 0 0 0 0 0 0 0 0 0 0 0 0 0 127 0"/>
<feOffset/>
<feGaussianBlur stdDeviation="2"/>
<feColorMatrix type="matrix" values="0 0 0 0 1 0 0 0 0 1 0 0 0 0 1 0 0 0 0.65 0"/>
<feBlend mode="normal" in2="BackgroundImageFix" result="effect1_dropShadow"/>
<feBlend mode="normal" in="SourceGraphic" in2="effect1_dropShadow" result="shape"/>
</filter>
<filter id="filter6_d" x="1029" y="765" width="9" height="9" filterUnits="userSpaceOnUse" color-interpolation-filters="sRGB">
<feFlood flood-opacity="0" result="BackgroundImageFix"/>
<feColorMatrix in="SourceAlpha" type="matrix" values="0 0 0 0 0 0 0 0 0 0 0 0 0 0 0 0 0 0 127 0"/>
<feOffset/>
<feGaussianBlur stdDeviation="2"/>
<feColorMatrix type="matrix" values="0 0 0 0 1 0 0 0 0 1 0 0 0 0 1 0 0 0 0.65 0"/>
<feBlend mode="normal" in2="BackgroundImageFix" result="effect1_dropShadow"/>
<feBlend mode="normal" in="SourceGraphic" in2="effect1_dropShadow" result="shape"/>
</filter>
<filter id="filter7_d" x="312" y="687" width="9" height="10" filterUnits="userSpaceOnUse" color-interpolation-filters="sRGB">
<feFlood flood-opacity="0" result="BackgroundImageFix"/>
<feColorMatrix in="SourceAlpha" type="matrix" values="0 0 0 0 0 0 0 0 0 0 0 0 0 0 0 0 0 0 127 0"/>
<feOffset/>
<feGaussianBlur stdDeviation="2"/>
<feColorMatrix type="matrix" values="0 0 0 0 1 0 0 0 0 1 0 0 0 0 1 0 0 0 0.65 0"/>
<feBlend mode="normal" in2="BackgroundImageFix" result="effect1_dropShadow"/>
<feBlend mode="normal" in="SourceGraphic" in2="effect1_dropShadow" result="shape"/>
</filter>
<filter id="filter8_d" x="677" y="699" width="12" height="11" filterUnits="userSpaceOnUse" color-interpolation-filters="sRGB">
<feFlood flood-opacity="0" result="BackgroundImageFix"/>
<feColorMatrix in="SourceAlpha" type="matrix" values="0 0 0 0 0 0 0 0 0 0 0 0 0 0 0 0 0 0 127 0"/>
<feOffset/>
<feGaussianBlur stdDeviation="2"/>
<feColorMatrix type="matrix" values="0 0 0 0 1 0 0 0 0 1 0 0 0 0 1 0 0 0 0.65 0"/>
<feBlend mode="normal" in2="BackgroundImageFix" result="effect1_dropShadow"/>
<feBlend mode="normal" in="SourceGraphic" in2="effect1_dropShadow" result="shape"/>
</filter>
<filter id="filter9_d" x="660" y="704" width="9" height="10" filterUnits="userSpaceOnUse" color-interpolation-filters="sRGB">
<feFlood flood-opacity="0" result="BackgroundImageFix"/>
<feColorMatrix in="SourceAlpha" type="matrix" values="0 0 0 0 0 0 0 0 0 0 0 0 0 0 0 0 0 0 127 0"/>
<feOffset/>
<feGaussianBlur stdDeviation="2"/>
<feColorMatrix type="matrix" values="0 0 0 0 1 0 0 0 0 1 0 0 0 0 1 0 0 0 0.65 0"/>
<feBlend mode="normal" in2="BackgroundImageFix" result="effect1_dropShadow"/>
<feBlend mode="normal" in="SourceGraphic" in2="effect1_dropShadow" result="shape"/>
</filter>
<filter id="filter10_d" x="881" y="944" width="10" height="11" filterUnits="userSpaceOnUse" color-interpolation-filters="sRGB">
<feFlood flood-opacity="0" result="BackgroundImageFix"/>
<feColorMatrix in="SourceAlpha" type="matrix" values="0 0 0 0 0 0 0 0 0 0 0 0 0 0 0 0 0 0 127 0"/>
<feOffset/>
<feGaussianBlur stdDeviation="2"/>
<feColorMatrix type="matrix" values="0 0 0 0 1 0 0 0 0 1 0 0 0 0 1 0 0 0 0.65 0"/>
<feBlend mode="normal" in2="BackgroundImageFix" result="effect1_dropShadow"/>
<feBlend mode="normal" in="SourceGraphic" in2="effect1_dropShadow" result="shape"/>
</filter>
<filter id="filter11_d" x="663" y="832" width="10" height="10" filterUnits="userSpaceOnUse" color-interpolation-filters="sRGB">
<feFlood flood-opacity="0" result="BackgroundImageFix"/>
<feColorMatrix in="SourceAlpha" type="matrix" values="0 0 0 0 0 0 0 0 0 0 0 0 0 0 0 0 0 0 127 0"/>
<feOffset/>
<feGaussianBlur stdDeviation="2"/>
<feColorMatrix type="matrix" values="0 0 0 0 1 0 0 0 0 1 0 0 0 0 1 0 0 0 0.65 0"/>
<feBlend mode="normal" in2="BackgroundImageFix" result="effect1_dropShadow"/>
<feBlend mode="normal" in="SourceGraphic" in2="effect1_dropShadow" result="shape"/>
</filter>
<filter id="filter12_d" x="915" y="948" width="11" height="9" filterUnits="userSpaceOnUse" color-interpolation-filters="sRGB">
<feFlood flood-opacity="0" result="BackgroundImageFix"/>
<feColorMatrix in="SourceAlpha" type="matrix" values="0 0 0 0 0 0 0 0 0 0 0 0 0 0 0 0 0 0 127 0"/>
<feOffset/>
<feGaussianBlur stdDeviation="2"/>
<feColorMatrix type="matrix" values="0 0 0 0 1 0 0 0 0 1 0 0 0 0 1 0 0 0 0.65 0"/>
<feBlend mode="normal" in2="BackgroundImageFix" result="effect1_dropShadow"/>
<feBlend mode="normal" in="SourceGraphic" in2="effect1_dropShadow" result="shape"/>
</filter>
<filter id="filter13_d" x="1083" y="520" width="11" height="10" filterUnits="userSpaceOnUse" color-interpolation-filters="sRGB">
<feFlood flood-opacity="0" result="BackgroundImageFix"/>
<feColorMatrix in="SourceAlpha" type="matrix" values="0 0 0 0 0 0 0 0 0 0 0 0 0 0 0 0 0 0 127 0"/>
<feOffset/>
<feGaussianBlur stdDeviation="2"/>
<feColorMatrix type="matrix" values="0 0 0 0 1 0 0 0 0 1 0 0 0 0 1 0 0 0 0.65 0"/>
<feBlend mode="normal" in2="BackgroundImageFix" result="effect1_dropShadow"/>
<feBlend mode="normal" in="SourceGraphic" in2="effect1_dropShadow" result="shape"/>
</filter>
<filter id="filter14_d" x="847" y="771" width="9" height="10" filterUnits="userSpaceOnUse" color-interpolation-filters="sRGB">
<feFlood flood-opacity="0" result="BackgroundImageFix"/>
<feColorMatrix in="SourceAlpha" type="matrix" values="0 0 0 0 0 0 0 0 0 0 0 0 0 0 0 0 0 0 127 0"/>
<feOffset/>
<feGaussianBlur stdDeviation="2"/>
<feColorMatrix type="matrix" values="0 0 0 0 1 0 0 0 0 1 0 0 0 0 1 0 0 0 0.65 0"/>
<feBlend mode="normal" in2="BackgroundImageFix" result="effect1_dropShadow"/>
<feBlend mode="normal" in="SourceGraphic" in2="effect1_dropShadow" result="shape"/>
</filter>
<filter id="filter15_d" x="1005" y="737" width="11" height="11" filterUnits="userSpaceOnUse" color-interpolation-filters="sRGB">
<feFlood flood-opacity="0" result="BackgroundImageFix"/>
<feColorMatrix in="SourceAlpha" type="matrix" values="0 0 0 0 0 0 0 0 0 0 0 0 0 0 0 0 0 0 127 0"/>
<feOffset/>
<feGaussianBlur stdDeviation="2"/>
<feColorMatrix type="matrix" values="0 0 0 0 1 0 0 0 0 1 0 0 0 0 1 0 0 0 0.65 0"/>
<feBlend mode="normal" in2="BackgroundImageFix" result="effect1_dropShadow"/>
<feBlend mode="normal" in="SourceGraphic" in2="effect1_dropShadow" result="shape"/>
</filter>
<filter id="filter16_d" x="570" y="529" width="14" height="13" filterUnits="userSpaceOnUse" color-interpolation-filters="sRGB">
<feFlood flood-opacity="0" result="BackgroundImageFix"/>
<feColorMatrix in="SourceAlpha" type="matrix" values="0 0 0 0 0 0 0 0 0 0 0 0 0 0 0 0 0 0 127 0"/>
<feOffset/>
<feGaussianBlur stdDeviation="2"/>
<feColorMatrix type="matrix" values="0 0 0 0 1 0 0 0 0 1 0 0 0 0 1 0 0 0 0.65 0"/>
<feBlend mode="normal" in2="BackgroundImageFix" result="effect1_dropShadow"/>
<feBlend mode="normal" in="SourceGraphic" in2="effect1_dropShadow" result="shape"/>
</filter>
<filter id="filter17_d" x="285" y="932" width="12" height="12" filterUnits="userSpaceOnUse" color-interpolation-filters="sRGB">
<feFlood flood-opacity="0" result="BackgroundImageFix"/>
<feColorMatrix in="SourceAlpha" type="matrix" values="0 0 0 0 0 0 0 0 0 0 0 0 0 0 0 0 0 0 127 0"/>
<feOffset/>
<feGaussianBlur stdDeviation="2"/>
<feColorMatrix type="matrix" values="0 0 0 0 1 0 0 0 0 1 0 0 0 0 1 0 0 0 0.65 0"/>
<feBlend mode="normal" in2="BackgroundImageFix" result="effect1_dropShadow"/>
<feBlend mode="normal" in="SourceGraphic" in2="effect1_dropShadow" result="shape"/>
</filter>
<filter id="filter18_d" x="1183" y="569" width="10" height="11" filterUnits="userSpaceOnUse" color-interpolation-filters="sRGB">
<feFlood flood-opacity="0" result="BackgroundImageFix"/>
<feColorMatrix in="SourceAlpha" type="matrix" values="0 0 0 0 0 0 0 0 0 0 0 0 0 0 0 0 0 0 127 0"/>
<feOffset/>
<feGaussianBlur stdDeviation="2"/>
<feColorMatrix type="matrix" values="0 0 0 0 1 0 0 0 0 1 0 0 0 0 1 0 0 0 0.65 0"/>
<feBlend mode="normal" in2="BackgroundImageFix" result="effect1_dropShadow"/>
<feBlend mode="normal" in="SourceGraphic" in2="effect1_dropShadow" result="shape"/>
</filter>
<filter id="filter19_d" x="1163" y="593" width="9" height="10" filterUnits="userSpaceOnUse" color-interpolation-filters="sRGB">
<feFlood flood-opacity="0" result="BackgroundImageFix"/>
<feColorMatrix in="SourceAlpha" type="matrix" values="0 0 0 0 0 0 0 0 0 0 0 0 0 0 0 0 0 0 127 0"/>
<feOffset/>
<feGaussianBlur stdDeviation="2"/>
<feColorMatrix type="matrix" values="0 0 0 0 1 0 0 0 0 1 0 0 0 0 1 0 0 0 0.65 0"/>
<feBlend mode="normal" in2="BackgroundImageFix" result="effect1_dropShadow"/>
<feBlend mode="normal" in="SourceGraphic" in2="effect1_dropShadow" result="shape"/>
</filter>
<filter id="filter20_d" x="203" y="602" width="11" height="12" filterUnits="userSpaceOnUse" color-interpolation-filters="sRGB">
<feFlood flood-opacity="0" result="BackgroundImageFix"/>
<feColorMatrix in="SourceAlpha" type="matrix" values="0 0 0 0 0 0 0 0 0 0 0 0 0 0 0 0 0 0 127 0"/>
<feOffset/>
<feGaussianBlur stdDeviation="2"/>
<feColorMatrix type="matrix" values="0 0 0 0 1 0 0 0 0 1 0 0 0 0 1 0 0 0 0.65 0"/>
<feBlend mode="normal" in2="BackgroundImageFix" result="effect1_dropShadow"/>
<feBlend mode="normal" in="SourceGraphic" in2="effect1_dropShadow" result="shape"/>
</filter>
<filter id="filter21_d" x="375" y="528" width="11" height="11" filterUnits="userSpaceOnUse" color-interpolation-filters="sRGB">
<feFlood flood-opacity="0" result="BackgroundImageFix"/>
<feColorMatrix in="SourceAlpha" type="matrix" values="0 0 0 0 0 0 0 0 0 0 0 0 0 0 0 0 0 0 127 0"/>
<feOffset/>
<feGaussianBlur stdDeviation="2"/>
<feColorMatrix type="matrix" values="0 0 0 0 1 0 0 0 0 1 0 0 0 0 1 0 0 0 0.65 0"/>
<feBlend mode="normal" in2="BackgroundImageFix" result="effect1_dropShadow"/>
<feBlend mode="normal" in="SourceGraphic" in2="effect1_dropShadow" result="shape"/>
</filter>
<filter id="filter22_d" x="819" y="892" width="12" height="14" filterUnits="userSpaceOnUse" color-interpolation-filters="sRGB">
<feFlood flood-opacity="0" result="BackgroundImageFix"/>
<feColorMatrix in="SourceAlpha" type="matrix" values="0 0 0 0 0 0 0 0 0 0 0 0 0 0 0 0 0 0 127 0"/>
<feOffset/>
<feGaussianBlur stdDeviation="2"/>
<feColorMatrix type="matrix" values="0 0 0 0 1 0 0 0 0 1 0 0 0 0 1 0 0 0 0.65 0"/>
<feBlend mode="normal" in2="BackgroundImageFix" result="effect1_dropShadow"/>
<feBlend mode="normal" in="SourceGraphic" in2="effect1_dropShadow" result="shape"/>
</filter>
<filter id="filter23_d" x="1087" y="961" width="12" height="13" filterUnits="userSpaceOnUse" color-interpolation-filters="sRGB">
<feFlood flood-opacity="0" result="BackgroundImageFix"/>
<feColorMatrix in="SourceAlpha" type="matrix" values="0 0 0 0 0 0 0 0 0 0 0 0 0 0 0 0 0 0 127 0"/>
<feOffset/>
<feGaussianBlur stdDeviation="2"/>
<feColorMatrix type="matrix" values="0 0 0 0 1 0 0 0 0 1 0 0 0 0 1 0 0 0 0.65 0"/>
<feBlend mode="normal" in2="BackgroundImageFix" result="effect1_dropShadow"/>
<feBlend mode="normal" in="SourceGraphic" in2="effect1_dropShadow" result="shape"/>
</filter>
<filter id="filter24_d" x="897" y="521" width="12" height="13" filterUnits="userSpaceOnUse" color-interpolation-filters="sRGB">
<feFlood flood-opacity="0" result="BackgroundImageFix"/>
<feColorMatrix in="SourceAlpha" type="matrix" values="0 0 0 0 0 0 0 0 0 0 0 0 0 0 0 0 0 0 127 0"/>
<feOffset/>
<feGaussianBlur stdDeviation="2"/>
<feColorMatrix type="matrix" values="0 0 0 0 1 0 0 0 0 1 0 0 0 0 1 0 0 0 0.65 0"/>
<feBlend mode="normal" in2="BackgroundImageFix" result="effect1_dropShadow"/>
<feBlend mode="normal" in="SourceGraphic" in2="effect1_dropShadow" result="shape"/>
</filter>
<filter id="filter25_d" x="860" y="689" width="10" height="10" filterUnits="userSpaceOnUse" color-interpolation-filters="sRGB">
<feFlood flood-opacity="0" result="BackgroundImageFix"/>
<feColorMatrix in="SourceAlpha" type="matrix" values="0 0 0 0 0 0 0 0 0 0 0 0 0 0 0 0 0 0 127 0"/>
<feOffset/>
<feGaussianBlur stdDeviation="2"/>
<feColorMatrix type="matrix" values="0 0 0 0 1 0 0 0 0 1 0 0 0 0 1 0 0 0 0.65 0"/>
<feBlend mode="normal" in2="BackgroundImageFix" result="effect1_dropShadow"/>
<feBlend mode="normal" in="SourceGraphic" in2="effect1_dropShadow" result="shape"/>
</filter>
<filter id="filter26_d" x="421" y="777" width="11" height="11" filterUnits="userSpaceOnUse" color-interpolation-filters="sRGB">
<feFlood flood-opacity="0" result="BackgroundImageFix"/>
<feColorMatrix in="SourceAlpha" type="matrix" values="0 0 0 0 0 0 0 0 0 0 0 0 0 0 0 0 0 0 127 0"/>
<feOffset/>
<feGaussianBlur stdDeviation="2"/>
<feColorMatrix type="matrix" values="0 0 0 0 1 0 0 0 0 1 0 0 0 0 1 0 0 0 0.65 0"/>
<feBlend mode="normal" in2="BackgroundImageFix" result="effect1_dropShadow"/>
<feBlend mode="normal" in="SourceGraphic" in2="effect1_dropShadow" result="shape"/>
</filter>
<filter id="filter27_d" x="332" y="834" width="10" height="10" filterUnits="userSpaceOnUse" color-interpolation-filters="sRGB">
<feFlood flood-opacity="0" result="BackgroundImageFix"/>
<feColorMatrix in="SourceAlpha" type="matrix" values="0 0 0 0 0 0 0 0 0 0 0 0 0 0 0 0 0 0 127 0"/>
<feOffset/>
<feGaussianBlur stdDeviation="2"/>
<feColorMatrix type="matrix" values="0 0 0 0 1 0 0 0 0 1 0 0 0 0 1 0 0 0 0.65 0"/>
<feBlend mode="normal" in2="BackgroundImageFix" result="effect1_dropShadow"/>
<feBlend mode="normal" in="SourceGraphic" in2="effect1_dropShadow" result="shape"/>
</filter>
<filter id="filter28_d" x="1188" y="747" width="10" height="9" filterUnits="userSpaceOnUse" color-interpolation-filters="sRGB">
<feFlood flood-opacity="0" result="BackgroundImageFix"/>
<feColorMatrix in="SourceAlpha" type="matrix" values="0 0 0 0 0 0 0 0 0 0 0 0 0 0 0 0 0 0 127 0"/>
<feOffset/>
<feGaussianBlur stdDeviation="2"/>
<feColorMatrix type="matrix" values="0 0 0 0 1 0 0 0 0 1 0 0 0 0 1 0 0 0 0.65 0"/>
<feBlend mode="normal" in2="BackgroundImageFix" result="effect1_dropShadow"/>
<feBlend mode="normal" in="SourceGraphic" in2="effect1_dropShadow" result="shape"/>
</filter>
<filter id="filter29_d" x="302" y="532" width="10" height="10" filterUnits="userSpaceOnUse" color-interpolation-filters="sRGB">
<feFlood flood-opacity="0" result="BackgroundImageFix"/>
<feColorMatrix in="SourceAlpha" type="matrix" values="0 0 0 0 0 0 0 0 0 0 0 0 0 0 0 0 0 0 127 0"/>
<feOffset/>
<feGaussianBlur stdDeviation="2"/>
<feColorMatrix type="matrix" values="0 0 0 0 1 0 0 0 0 1 0 0 0 0 1 0 0 0 0.65 0"/>
<feBlend mode="normal" in2="BackgroundImageFix" result="effect1_dropShadow"/>
<feBlend mode="normal" in="SourceGraphic" in2="effect1_dropShadow" result="shape"/>
</filter>
<filter id="filter30_d" x="1107" y="862" width="10" height="10" filterUnits="userSpaceOnUse" color-interpolation-filters="sRGB">
<feFlood flood-opacity="0" result="BackgroundImageFix"/>
<feColorMatrix in="SourceAlpha" type="matrix" values="0 0 0 0 0 0 0 0 0 0 0 0 0 0 0 0 0 0 127 0"/>
<feOffset/>
<feGaussianBlur stdDeviation="2"/>
<feColorMatrix type="matrix" values="0 0 0 0 1 0 0 0 0 1 0 0 0 0 1 0 0 0 0.65 0"/>
<feBlend mode="normal" in2="BackgroundImageFix" result="effect1_dropShadow"/>
<feBlend mode="normal" in="SourceGraphic" in2="effect1_dropShadow" result="shape"/>
</filter>
<filter id="filter31_d" x="905" y="508" width="9" height="9" filterUnits="userSpaceOnUse" color-interpolation-filters="sRGB">
<feFlood flood-opacity="0" result="BackgroundImageFix"/>
<feColorMatrix in="SourceAlpha" type="matrix" values="0 0 0 0 0 0 0 0 0 0 0 0 0 0 0 0 0 0 127 0"/>
<feOffset/>
<feGaussianBlur stdDeviation="2"/>
<feColorMatrix type="matrix" values="0 0 0 0 1 0 0 0 0 1 0 0 0 0 1 0 0 0 0.65 0"/>
<feBlend mode="normal" in2="BackgroundImageFix" result="effect1_dropShadow"/>
<feBlend mode="normal" in="SourceGraphic" in2="effect1_dropShadow" result="shape"/>
</filter>
<filter id="filter32_d" x="1163" y="533" width="9" height="9" filterUnits="userSpaceOnUse" color-interpolation-filters="sRGB">
<feFlood flood-opacity="0" result="BackgroundImageFix"/>
<feColorMatrix in="SourceAlpha" type="matrix" values="0 0 0 0 0 0 0 0 0 0 0 0 0 0 0 0 0 0 127 0"/>
<feOffset/>
<feGaussianBlur stdDeviation="2"/>
<feColorMatrix type="matrix" values="0 0 0 0 1 0 0 0 0 1 0 0 0 0 1 0 0 0 0.65 0"/>
<feBlend mode="normal" in2="BackgroundImageFix" result="effect1_dropShadow"/>
<feBlend mode="normal" in="SourceGraphic" in2="effect1_dropShadow" result="shape"/>
</filter>
<filter id="filter33_d" x="226" y="623" width="9" height="10" filterUnits="userSpaceOnUse" color-interpolation-filters="sRGB">
<feFlood flood-opacity="0" result="BackgroundImageFix"/>
<feColorMatrix in="SourceAlpha" type="matrix" values="0 0 0 0 0 0 0 0 0 0 0 0 0 0 0 0 0 0 127 0"/>
<feOffset/>
<feGaussianBlur stdDeviation="2"/>
<feColorMatrix type="matrix" values="0 0 0 0 1 0 0 0 0 1 0 0 0 0 1 0 0 0 0.65 0"/>
<feBlend mode="normal" in2="BackgroundImageFix" result="effect1_dropShadow"/>
<feBlend mode="normal" in="SourceGraphic" in2="effect1_dropShadow" result="shape"/>
</filter>
<filter id="filter34_d" x="305" y="586" width="9" height="10" filterUnits="userSpaceOnUse" color-interpolation-filters="sRGB">
<feFlood flood-opacity="0" result="BackgroundImageFix"/>
<feColorMatrix in="SourceAlpha" type="matrix" values="0 0 0 0 0 0 0 0 0 0 0 0 0 0 0 0 0 0 127 0"/>
<feOffset/>
<feGaussianBlur stdDeviation="2"/>
<feColorMatrix type="matrix" values="0 0 0 0 1 0 0 0 0 1 0 0 0 0 1 0 0 0 0.65 0"/>
<feBlend mode="normal" in2="BackgroundImageFix" result="effect1_dropShadow"/>
<feBlend mode="normal" in="SourceGraphic" in2="effect1_dropShadow" result="shape"/>
</filter>
<filter id="filter35_d" x="601" y="850" width="9" height="9" filterUnits="userSpaceOnUse" color-interpolation-filters="sRGB">
<feFlood flood-opacity="0" result="BackgroundImageFix"/>
<feColorMatrix in="SourceAlpha" type="matrix" values="0 0 0 0 0 0 0 0 0 0 0 0 0 0 0 0 0 0 127 0"/>
<feOffset/>
<feGaussianBlur stdDeviation="2"/>
<feColorMatrix type="matrix" values="0 0 0 0 1 0 0 0 0 1 0 0 0 0 1 0 0 0 0.65 0"/>
<feBlend mode="normal" in2="BackgroundImageFix" result="effect1_dropShadow"/>
<feBlend mode="normal" in="SourceGraphic" in2="effect1_dropShadow" result="shape"/>
</filter>
<linearGradient id="paint0_linear" x1="720" y1="0" x2="720" y2="1062" gradientUnits="userSpaceOnUse">
<stop stop-color="#170F39"/>
<stop offset="1" stop-color="#20154D"/>
</linearGradient>
<linearGradient id="paint1_linear" x1="362.78" y1="693.15" x2="1057" y2="1384" gradientUnits="userSpaceOnUse">
<stop offset="0.09375" stop-color="#FA00E9"/>
<stop offset="1" stop-color="#3860FF"/>
</linearGradient>
<linearGradient id="paint2_linear" x1="162.44" y1="494.7" x2="1246" y2="1573" gradientUnits="userSpaceOnUse">
<stop offset="0.09375" stop-color="#FA00E9"/>
<stop offset="1" stop-color="#3860FF"/>
</linearGradient>
<linearGradient id="paint3_linear" x1="542.98" y1="871.65" x2="887" y2="1214" gradientUnits="userSpaceOnUse">
<stop offset="0.09375" stop-color="#FA00E9"/>
<stop offset="1" stop-color="#3860FF"/>
</linearGradient>
<linearGradient id="paint4_linear" x1="604.508" y1="574.192" x2="681.508" y2="899.192" gradientUnits="userSpaceOnUse">
<stop stop-color="#2E2262" stop-opacity="0"/>
<stop offset="0.302083" stop-color="#3E3372" stop-opacity="0.859375"/>
<stop offset="1" stop-color="#A399D0" stop-opacity="0"/>
</linearGradient>
<linearGradient id="paint5_linear" x1="-49444.4" y1="188102" x2="37875.6" y2="240310" gradientUnits="userSpaceOnUse">
<stop offset="0.07" stop-color="#231A5C"/>
<stop offset="0.96" stop-color="#30247D"/>
</linearGradient>
<linearGradient id="paint6_linear" x1="359961" y1="104374" x2="468615" y2="59139.5" gradientUnits="userSpaceOnUse">
<stop offset="0.07" stop-color="#231A5C"/>
<stop offset="0.96" stop-color="#30247D"/>
</linearGradient>
<linearGradient id="paint7_linear" x1="-92695.9" y1="-277443" x2="-170349" y2="-327359" gradientUnits="userSpaceOnUse">
<stop offset="0.07" stop-color="#231A5C"/>
<stop offset="0.96" stop-color="#30247D"/>
</linearGradient>
<linearGradient id="paint8_linear" x1="-22856.3" y1="192765" x2="70993.8" y2="232764" gradientUnits="userSpaceOnUse">
<stop offset="0.07" stop-color="#231A5C"/>
<stop offset="0.96" stop-color="#30247D"/>
</linearGradient>
</defs>
</svg>
