<svg width="20" height="20" viewBox="0 0 20 20" fill="none" xmlns="http://www.w3.org/2000/svg">
<path fill-rule="evenodd" clip-rule="evenodd" d="M18.8939 2.85843C19.5608 3.55023 19.7763 5.11824 19.7763 5.11824C19.7763 5.11824 19.9999 6.95843 20 8.79862V10.5266C20 12.3664 19.7764 14.2062 19.7764 14.2062C19.7764 14.2062 19.5609 15.7743 18.894 16.4664C18.1381 17.277 17.2999 17.3639 16.8208 17.4136C16.7657 17.4193 16.7154 17.4245 16.6705 17.4303C13.5647 17.6586 9.99985 17.6663 9.99985 17.6663C9.99985 17.6663 5.32922 17.6103 3.55295 17.4384C3.46791 17.4219 3.36464 17.409 3.24764 17.3944C2.68469 17.3244 1.80382 17.2147 1.10593 16.4664C0.439234 15.7743 0.223616 14.2062 0.223616 14.2062C0.223616 14.2062 0 12.3663 0 10.5266V8.79862C0 6.95843 0.223616 5.11824 0.223616 5.11824C0.223616 5.11824 0.439234 3.55023 1.10593 2.85843C1.86745 2.04184 2.71253 1.95944 3.18971 1.9129C3.24066 1.90793 3.28742 1.90337 3.32944 1.89837C6.43515 1.66626 9.996 1.66626 9.996 1.66626H10.0037C10.0037 1.66626 13.5644 1.66626 16.6704 1.89837C16.7124 1.90338 16.7591 1.90794 16.8101 1.91291C17.2872 1.95944 18.1324 2.04186 18.8939 2.85843ZM7.70764 6.22678V12.6186L13.7078 9.43456L7.70764 6.22678Z" fill="#EA3323"/>
</svg>
