<svg width="20" height="20" viewBox="0 0 20 20" fill="none" xmlns="http://www.w3.org/2000/svg">
<path d="M4.5 11.6C4.77614 11.6 5 11.3761 5 11.1C5 10.8238 4.77614 10.6 4.5 10.6C4.22386 10.6 4 10.8238 4 11.1C4 11.3761 4.22386 11.6 4.5 11.6Z" fill="white"/>
<path d="M16.2 6.99998C16.3105 6.99998 16.4 6.91043 16.4 6.79998C16.4 6.68952 16.3105 6.59998 16.2 6.59998C16.0895 6.59998 16 6.68952 16 6.79998C16 6.91043 16.0895 6.99998 16.2 6.99998Z" fill="white"/>
<path d="M17.8599 8.52L13.2999 8.58016L16.6001 5.32L14.7898 3.592L11.2798 6.992V2H8.71976V6.90976L5.30088 3.49632L3.57288 5.30656L6.99176 8.72H1.99976V11.28L7.0276 11.1021L3.32968 14.632L5.13992 16.36L8.71976 13.008V18H11.2798V13.0902L14.5918 16.6304L16.3198 14.8202L12.9399 11.2L17.8001 11.12L17.8599 8.52ZM11.6369 11.6358C10.5217 12.0518 9.43304 12.0368 8.3684 11.6358C7.98856 10.5514 8.02216 9.46144 8.3684 8.36736C9.43752 7.98752 10.5274 7.99072 11.6369 8.36736C12.0548 9.45664 12.0666 10.5462 11.6369 11.6358Z" fill="#FF4A00"/>
<path d="M11.0999 18H8.87976C8.79144 18 8.71976 17.9283 8.71976 17.84V13.2218L5.29224 16.4934C5.23048 16.5526 5.1332 16.5526 5.07144 16.4934L3.2612 14.7654C3.22952 14.7354 3.2116 14.6934 3.2116 14.6496C3.2116 14.6058 3.22952 14.5642 3.2612 14.5338L6.67016 11.28H2.15976C2.07144 11.28 1.99976 11.2083 1.99976 11.12V8.85344C1.99976 8.76512 2.07144 8.69344 2.15976 8.69344H3.11976C3.20808 8.69344 3.27976 8.76512 3.27976 8.85344C3.27976 8.94176 3.20808 9.01344 3.11976 9.01344H2.31976V10.96H7.06952C7.13512 10.96 7.19368 10.9997 7.218 11.0605C7.24232 11.1213 7.22728 11.1907 7.17992 11.2358L3.60328 14.6499L5.18184 16.1568L8.76936 12.7322C8.81576 12.688 8.88392 12.6755 8.9428 12.7008C9.00168 12.7261 9.03976 12.7837 9.03976 12.848V17.68H10.9399V16.56C10.9399 16.4717 11.0116 16.4 11.0999 16.4C11.1882 16.4 11.2599 16.4717 11.2599 16.56V17.84C11.2599 17.9283 11.1882 18 11.0999 18ZM14.6497 16.7882C14.6058 16.7882 14.5642 16.7702 14.5338 16.7386L11.2798 13.3296V15.6C11.2798 15.6883 11.2081 15.76 11.1198 15.76C11.0314 15.76 10.9598 15.6883 10.9598 15.6V12.9302C10.9598 12.865 10.9998 12.8061 11.0602 12.7818C11.121 12.7574 11.1902 12.7725 11.2356 12.8198L14.6497 16.3968L16.1562 14.8182L12.7319 11.2304C12.6878 11.184 12.6753 11.1158 12.7006 11.057C12.7258 10.9981 12.7838 10.96 12.8478 10.96H17.6798V8.72H13.2798C13.2151 8.72 13.1566 8.68096 13.1319 8.62112C13.107 8.56128 13.1207 8.49248 13.1665 8.44672L14.1665 7.44672C14.2289 7.38432 14.3303 7.38432 14.3927 7.44672C14.4551 7.50912 14.4551 7.61056 14.3927 7.67296L13.666 8.4H17.8398C17.9281 8.4 17.9998 8.47168 17.9998 8.56V11.12C17.9998 11.2083 17.9281 11.28 17.8398 11.28H13.2215L16.4932 14.7075C16.5521 14.7693 16.5521 14.8666 16.4932 14.9283L14.7655 16.7386C14.7354 16.7702 14.6935 16.7882 14.6497 16.7882ZM9.9988 12.1008C9.434 12.1008 8.87048 11.9958 8.31208 11.7856C8.26792 11.769 8.23304 11.7334 8.21768 11.6886C7.8452 10.6259 7.84488 9.49216 8.21608 8.31872C8.23112 8.27104 8.26792 8.23296 8.31496 8.21632C9.40904 7.82784 10.5441 7.8272 11.6884 8.21568C11.7335 8.23104 11.7694 8.2656 11.7863 8.30976C12.2228 9.44768 12.2225 10.5866 11.786 11.6944C11.7694 11.7366 11.7354 11.7699 11.6929 11.7856C11.1297 11.9958 10.5636 12.1008 9.9988 12.1008ZM8.49512 11.512C9.49256 11.8701 10.5073 11.8698 11.514 11.5104C11.8858 10.5232 11.8862 9.50944 11.514 8.49504C10.4903 8.16288 9.47592 8.16192 8.49736 8.49184C8.17416 9.55776 8.17352 10.5475 8.49512 11.512ZM7.13928 9.04H4.39976C4.31144 9.04 4.23976 8.96832 4.23976 8.88C4.23976 8.79168 4.31144 8.72 4.39976 8.72H6.75304L3.47016 5.43744C3.40776 5.37504 3.40776 5.2736 3.47016 5.2112L5.21064 3.4704C5.2708 3.41024 5.37704 3.41024 5.43688 3.4704L8.71976 6.75328V4.4C8.71976 4.31168 8.79144 4.24 8.87976 4.24C8.96808 4.24 9.03976 4.31168 9.03976 4.4V7.13952C9.03976 7.20416 9.00072 7.26272 8.94088 7.28736C8.88104 7.31232 8.81256 7.29856 8.76648 7.2528L5.32392 3.80992L3.80968 5.32448L7.25224 8.76704C7.298 8.8128 7.31176 8.8816 7.2868 8.94144C7.26216 9.00096 7.20392 9.04 7.13928 9.04ZM11.1198 7.3488C11.0986 7.3488 11.0772 7.34464 11.057 7.336C10.9982 7.31072 10.9598 7.2528 10.9598 7.1888V2.32H9.03976V3.44C9.03976 3.52832 8.96808 3.6 8.87976 3.6C8.79144 3.6 8.71976 3.52832 8.71976 3.44V2.16C8.71976 2.07168 8.79144 2 8.87976 2H11.1198C11.2081 2 11.2798 2.07168 11.2798 2.16V6.8128L14.7066 3.51744C14.7684 3.45792 14.8666 3.45792 14.9284 3.51744L16.7386 5.25824C16.77 5.28832 16.7876 5.32992 16.7876 5.37344C16.7876 5.41696 16.77 5.45856 16.7386 5.48864L14.8855 7.2704C14.8215 7.33184 14.7204 7.3296 14.6593 7.26592C14.5982 7.20224 14.6001 7.10112 14.6638 7.03968L16.3972 5.37312L14.8177 3.8544L11.2308 7.304C11.2001 7.33312 11.1601 7.3488 11.1198 7.3488Z" fill="#472B29"/>
</svg>
